<?xml version="1.0" encoding="UTF-8" standalone="no"?>
<!-- Generator: Adobe Illustrator 16.0.0, SVG Export Plug-In . SVG Version: 6.00 Build 0)  -->

<svg
   xmlns:dc="http://purl.org/dc/elements/1.1/"
   xmlns:cc="http://creativecommons.org/ns#"
   xmlns:rdf="http://www.w3.org/1999/02/22-rdf-syntax-ns#"
   xmlns:svg="http://www.w3.org/2000/svg"
   xmlns="http://www.w3.org/2000/svg"
   xmlns:sodipodi="http://sodipodi.sourceforge.net/DTD/sodipodi-0.dtd"
   xmlns:inkscape="http://www.inkscape.org/namespaces/inkscape"
   version="1.1"
   id="Layer_1"
   x="0px"
   y="0px"
   width="272.25px"
   height="362px"
   viewBox="0 0 272.25 362"
   enable-background="new 0 0 272.25 362"
   xml:space="preserve"
   inkscape:version="0.91 r"
   sodipodi:docname="green-icon-marker-flash.svg"><metadata
     id="metadata3755"><rdf:RDF><cc:Work
         rdf:about=""><dc:format>image/svg+xml</dc:format><dc:type
           rdf:resource="http://purl.org/dc/dcmitype/StillImage" /><dc:title></dc:title></cc:Work></rdf:RDF></metadata><defs
     id="defs3753" /><sodipodi:namedview
     pagecolor="#ffffff"
     bordercolor="#666666"
     borderopacity="1"
     objecttolerance="10"
     gridtolerance="10"
     guidetolerance="10"
     inkscape:pageopacity="0"
     inkscape:pageshadow="2"
     inkscape:window-width="1875"
     inkscape:window-height="1056"
     id="namedview3751"
     showgrid="false"
     inkscape:zoom="0.6519337"
     inkscape:cx="136.125"
     inkscape:cy="181"
     inkscape:window-x="1411"
     inkscape:window-y="24"
     inkscape:window-maximized="1"
     inkscape:current-layer="Layer_1" /><circle
     fill="#FFFFFF"
     cx="135.625"
     cy="138.5"
     r="114"
     id="circle3747" /><path
     fill="#5BCF8F"
     d="M136.645,2C63.337,2,4,62.637,4,137.434c0,83.075,132.645,218.228,132.645,218.228  S269.25,220.509,269.25,137.434C269.25,62.637,209.895,2,136.645,2z M136.624,250.927c-60.77,0-110.018-50.312-110.018-112.348  c0-62.063,49.249-112.364,110.018-112.364c60.75,0,110.035,50.301,110.035,112.364C246.658,200.613,197.374,250.927,136.624,250.927  z"
     id="path3749" /><g
     id="g3834"
     transform="matrix(0.29584346,0,0,0.30664063,59.264205,60)"
     style="fill:#5bcf8f;fill-opacity:1"><polygon
       id="polygon3788"
       points="178.949,501.8 377.627,216.518 275.945,216.518 333.051,10.199 213.335,10.199 134.373,295.481 236.055,295.481 "
       style="fill:#5bcf8f;fill-opacity:1" /><g
       id="g3790"
       style="fill:#5bcf8f;fill-opacity:1"><path
         id="path3792"
         d="m 178.943,512 c -1.461,0 -2.937,-0.314 -4.332,-0.969 -4.499,-2.113 -6.819,-7.161 -5.493,-11.952 l 53.53,-193.399 -88.276,0 c -3.186,0 -6.188,-1.488 -8.117,-4.024 -1.929,-2.534 -2.562,-5.826 -1.712,-8.897 L 203.506,7.478 C 204.729,3.06 208.751,0 213.335,0 l 119.716,0 c 3.185,0 6.188,1.488 8.118,4.024 1.929,2.534 2.562,5.826 1.712,8.897 l -53.53,193.399 88.276,0 c 3.799,0 7.283,2.11 9.041,5.478 1.757,3.368 1.5,7.432 -0.671,10.55 L 187.318,507.629 c -1.96,2.815 -5.124,4.371 -8.375,4.371 z m -31.164,-226.719 88.276,0 c 3.186,0 6.188,1.488 8.117,4.024 1.929,2.534 2.562,5.826 1.712,8.897 l -41.176,148.762 153.386,-220.246 -82.149,0 c -3.185,0 -6.188,-1.488 -8.118,-4.024 -1.929,-2.534 -2.562,-5.826 -1.712,-8.897 l 53.532,-193.399 -98.552,0 -73.316,264.883 z"
         style="fill:#5bcf8f;fill-opacity:1"
         inkscape:connector-curvature="0" /><path
         id="path3794"
         d="m 261.106,163.394 c -0.909,0 -1.832,-0.122 -2.749,-0.378 -5.425,-1.515 -8.595,-7.141 -7.08,-12.566 l 1.423,-5.093 c 1.515,-5.425 7.145,-8.594 12.566,-7.08 5.425,1.515 8.596,7.141 7.08,12.566 l -1.423,5.093 c -1.259,4.507 -5.356,7.458 -9.817,7.458 z"
         style="fill:#5bcf8f;fill-opacity:1"
         inkscape:connector-curvature="0" /><path
         id="path3796"
         d="m 271.075,127.698 c -0.909,0 -1.832,-0.122 -2.749,-0.378 -5.425,-1.516 -8.596,-7.141 -7.08,-12.566 l 21.649,-77.515 c 1.515,-5.425 7.146,-8.591 12.566,-7.08 5.425,1.516 8.596,7.141 7.08,12.566 l -21.649,77.515 c -1.258,4.507 -5.356,7.458 -9.817,7.458 z"
         style="fill:#5bcf8f;fill-opacity:1"
         inkscape:connector-curvature="0" /></g><g
       id="g3798"
       style="fill:#5bcf8f;fill-opacity:1" /><g
       id="g3800"
       style="fill:#5bcf8f;fill-opacity:1" /><g
       id="g3802"
       style="fill:#5bcf8f;fill-opacity:1" /><g
       id="g3804"
       style="fill:#5bcf8f;fill-opacity:1" /><g
       id="g3806"
       style="fill:#5bcf8f;fill-opacity:1" /><g
       id="g3808"
       style="fill:#5bcf8f;fill-opacity:1" /><g
       id="g3810"
       style="fill:#5bcf8f;fill-opacity:1" /><g
       id="g3812"
       style="fill:#5bcf8f;fill-opacity:1" /><g
       id="g3814"
       style="fill:#5bcf8f;fill-opacity:1" /><g
       id="g3816"
       style="fill:#5bcf8f;fill-opacity:1" /><g
       id="g3818"
       style="fill:#5bcf8f;fill-opacity:1" /><g
       id="g3820"
       style="fill:#5bcf8f;fill-opacity:1" /><g
       id="g3822"
       style="fill:#5bcf8f;fill-opacity:1" /><g
       id="g3824"
       style="fill:#5bcf8f;fill-opacity:1" /><g
       id="g3826"
       style="fill:#5bcf8f;fill-opacity:1" /></g></svg>