<?xml version="1.0" encoding="UTF-8" standalone="no"?>
<svg
   xmlns:dc="http://purl.org/dc/elements/1.1/"
   xmlns:cc="http://creativecommons.org/ns#"
   xmlns:rdf="http://www.w3.org/1999/02/22-rdf-syntax-ns#"
   xmlns:svg="http://www.w3.org/2000/svg"
   xmlns="http://www.w3.org/2000/svg"
   xmlns:sodipodi="http://sodipodi.sourceforge.net/DTD/sodipodi-0.dtd"
   xmlns:inkscape="http://www.inkscape.org/namespaces/inkscape"
   version="1.1"
   x="0px"
   y="0px"
   viewBox="0 0 51 77.900002"
   xml:space="preserve"
   id="svg8"
   sodipodi:docname="air_balloon.svg"
   width="51"
   height="77.900002"
   inkscape:version="0.92.0 unknown"><metadata
     id="metadata14"><rdf:RDF><cc:Work
         rdf:about=""><dc:format>image/svg+xml</dc:format><dc:type
           rdf:resource="http://purl.org/dc/dcmitype/StillImage" /><dc:title></dc:title></cc:Work></rdf:RDF></metadata><defs
     id="defs12" /><sodipodi:namedview
     pagecolor="#ffffff"
     bordercolor="#666666"
     borderopacity="1"
     objecttolerance="10"
     gridtolerance="10"
     guidetolerance="10"
     inkscape:pageopacity="0"
     inkscape:pageshadow="2"
     inkscape:window-width="1875"
     inkscape:window-height="1056"
     id="namedview10"
     showgrid="false"
     inkscape:zoom="3.776"
     inkscape:cx="10.516615"
     inkscape:cy="24.73497"
     inkscape:window-x="1411"
     inkscape:window-y="24"
     inkscape:window-maximized="1"
     inkscape:current-layer="svg8" /><path
     d="M 51,23.4 C 51,23 51,22.7 51,22.3 50.4,9.8 40,0 27.1,0 H 23.8 C 11,0 0.6,9.8 0,22.3 c 0,0.4 0,0.7 0,1.1 0,5.1 1.5,10.1 4.4,14.3 l 12.1,18.9 c 0.6,1 1.6,1.8 2.6,2.2 -0.1,0 -0.2,0 -0.4,0.1 -0.3,0.2 -0.5,0.6 -0.4,1 l 1.4,5.3 c 0.1,0.4 0.4,0.6 0.8,0.6 h 1.2 l -0.3,3.9 c -0.3,-0.1 -0.6,-0.2 -0.9,-0.3 -0.4,-0.2 -0.9,0.1 -1.1,0.5 -0.2,0.4 0.1,0.9 0.5,1.1 0.1,0 0.2,0 0.2,0.1 v 6 c 0,0.5 0.4,0.8 0.8,0.8 H 30 c 0.5,0 0.8,-0.4 0.8,-0.8 v -6 c 0,0 0.1,0 0.1,0 0.4,-0.2 0.7,-0.6 0.5,-1.1 -0.2,-0.4 -0.6,-0.7 -1.1,-0.5 -0.3,0.1 -0.5,0.2 -0.8,0.2 l -0.3,-3.9 h 1.1 c 0.4,0 0.7,-0.3 0.8,-0.6 l 1.4,-5.3 c 0.1,-0.4 -0.1,-0.8 -0.4,-1 -0.2,-0.1 -0.3,-0.1 -0.5,-0.1 1.1,-0.4 2,-1.2 2.6,-2.2 l 4.7,-7.2 v 0 0 L 46.6,37.8 C 49.5,33.5 51,28.6 51,23.4 Z M 36.7,49.1 36.5,47.9 c 1.5,-3.2 3,-6.9 4.3,-10.7 l 0.2,2.4 c 0,0.3 0.2,0.6 0.5,0.7 0.1,0 0.2,0.1 0.3,0.1 0.2,0 0.4,-0.1 0.5,-0.2 L 44,38.8 37.7,48.5 Z M 13.1,48.3 7,38.8 8.5,40.1 c 0.2,0.1 0.3,0.2 0.5,0.2 0.1,0 0.2,0 0.3,-0.1 0.3,-0.1 0.5,-0.4 0.5,-0.7 L 10,37 c 1.3,3.9 2.9,7.6 4.3,10.8 L 14.1,49 Z M 14.8,3.5 c 1.3,-0.6 2.6,-1 4,-1.3 -2.6,3.7 -4.1,8.9 -4.3,15.6 l -2.6,4.6 C 10.9,21.5 9.1,19.7 8.3,18.1 8.4,12.3 10.2,7 14.8,3.5 Z m 27.9,14.6 c 0,0 0,0 0,0 -0.8,1.6 -2.6,3.4 -3.6,4.4 l -3,-5.3 C 35.8,10.7 34.4,5.7 31.8,2.1 c 1.6,0.3 3.1,0.8 4.5,1.4 4.5,3.5 6.2,8.7 6.4,14.6 z M 34.9,47.2 33.3,48 32.6,45.6 c 0,-0.1 -0.1,-0.2 -0.1,-0.3 0.8,-3.1 1.6,-6.6 2.2,-10.2 0,-0.2 0.1,-0.3 0.1,-0.5 l 0.9,3.4 c 0.1,0.3 0.3,0.5 0.6,0.6 0.3,0.1 0.6,0 0.8,-0.2 l 2.5,-2.6 c -1.5,4.1 -3.1,8 -4.7,11.4 z M 11.5,35.8 14,38.4 c 0.2,0.2 0.5,0.3 0.8,0.2 0.3,-0.1 0.5,-0.3 0.6,-0.6 l 0.7,-2.6 c 0.7,3.7 1.4,7.2 2.3,10.4 L 17.7,48 16,47.2 C 14.4,43.8 12.8,39.9 11.5,35.8 Z m 19.2,9.6 -4.4,2.3 v -9.1 l 7.1,-6.2 c -0.8,4.7 -1.7,9.1 -2.7,13 z m -6.1,2.3 -4.7,-2.5 c -1,-3.9 -2,-8.4 -2.7,-13.1 l 7.4,6.4 z m 0,1.9 v 8.2 H 23.5 C 23,56.4 21.8,52.6 20.4,47.5 Z m 1.7,8.1 v -8.1 l 3.8,-2 c -1.3,5 -2.6,8.8 -3.1,10.1 z m 14.3,-25.4 -3.7,3.9 -1.5,-5.7 c 0.5,-3.5 0.7,-6.7 0.8,-9.7 l 2,3.5 c 0.1,0.2 0.3,0.4 0.6,0.4 0.2,0 0.5,0 0.7,-0.2 0.1,-0.1 1.8,-1.5 3.3,-3.3 -0.4,3.6 -1.2,7.4 -2.2,11.1 z M 33.7,30 26.3,36.5 v -9.8 l 8.2,-7.4 c 0,3.4 -0.3,7.1 -0.8,10.7 z M 24.6,36.4 17,29.8 c 0,0 -0.1,0 -0.1,-0.1 -0.5,-3.6 -0.7,-7.3 -0.7,-10.8 l 8.4,7.6 z m -13,-12 c 0.2,0.2 0.4,0.2 0.7,0.2 0.2,0 0.5,-0.2 0.6,-0.4 l 1.7,-2.9 c 0.1,3.1 0.4,6.4 0.9,10 l -1.3,4.9 -3.7,-3.9 c -1,-3.7 -1.8,-7.4 -2,-11 1.3,1.6 3,3 3.1,3.1 z m 6.2,25.5 c 0.2,0.1 0.5,0.1 0.7,0 0.2,-0.1 0.4,-0.3 0.5,-0.5 l 0.2,-0.6 c 1.1,4.1 2.2,7.3 2.7,8.9 h -0.3 c 0,0 0,0 0,0 -0.6,-1 -2.3,-4 -4.3,-8.2 z m 5.6,9.5 c -0.1,0.1 -0.3,0.2 -0.4,0.2 0,0 0,0 0,0 -0.2,0 -0.3,-0.1 -0.5,-0.2 z m 2.5,0 c -0.2,0.2 -0.3,0.2 -0.5,0.2 -0.2,0 -0.3,-0.1 -0.4,-0.2 z m 2.5,0 c -0.1,0.1 -0.3,0.2 -0.4,0.2 0,0 0,0 0,0 -0.2,0 -0.3,-0.1 -0.5,-0.2 z m 0.9,-1.7 h -0.5 c 0.6,-1.7 1.7,-5.1 2.9,-9.5 l 0.3,1.1 c 0.1,0.2 0.2,0.4 0.5,0.5 0.2,0.1 0.5,0.1 0.7,0 l 0.6,-0.3 c -2,4.1 -3.7,7.1 -4.3,8.1 -0.1,0.1 -0.1,0.1 -0.2,0.1 z M 46.8,34.2 v 0 l -4.3,3.6 -0.4,-4.9 c 1.1,-3.8 1.8,-7.4 2.1,-10.7 l 1.4,3 c 0.1,0.3 0.4,0.4 0.6,0.5 0.3,0 0.6,-0.1 0.8,-0.3 0,0 0.3,-0.4 0.7,-0.8 0,0.9 -0.1,1.8 -0.4,2.7 -0.1,0.3 0.1,0.7 0.5,0.7 0,0 0.1,0 0.1,0 0.3,0 0.5,-0.2 0.6,-0.5 0.4,-1.7 0.5,-3.3 0.4,-4.8 0.1,-0.2 0.3,-0.5 0.4,-0.7 0,0.1 0,0.2 0,0.3 0,0.3 0,0.7 0,1 0,3.9 -0.9,7.6 -2.5,10.9 z m 2.1,-15 C 48.8,19.5 48.7,19.7 48.5,20 48,16.7 46.9,14.3 46.8,14.2 46.7,13.9 46.3,13.8 46,13.9 c -0.3,0.1 -0.4,0.5 -0.3,0.8 0,0 1.4,3.1 1.8,7 -0.4,0.6 -0.7,1.1 -1.1,1.5 l -2.2,-4.8 c -0.1,-4.8 -1.1,-8.8 -3.1,-12 4,3.2 6.8,7.7 7.8,12.8 z M 27.1,1.6 c 0.7,0 1.4,0 2.1,0.1 3.3,3.6 4.8,9.1 5.1,15.3 l -8.1,7.4 V 1.6 h 0.9 c 0,0 0,0 0,0 z m -2.5,0 v 22.7 l -8.3,-7.5 c 0,0 0,0 0,0 0.3,-6.1 1.8,-11.4 5,-15 C 22.2,1.7 23,1.6 23.9,1.6 Z M 9.8,6.5 C 7.8,9.7 6.7,13.7 6.6,18.4 L 4.4,23.3 C 3.6,22.3 2.5,20.7 2,19.3 3,14.2 5.9,9.7 9.8,6.5 Z M 1.7,22.4 c 0,-0.1 0,-0.1 0,-0.2 1,1.7 2.2,3.1 2.3,3.2 0.2,0.2 0.5,0.3 0.8,0.3 0.3,0 0.5,-0.2 0.6,-0.5 l 1.4,-3.1 c 0.3,3.3 1,6.9 2,10.7 l -0.4,5 -4.1,-3.6 c -1.7,-3.3 -2.6,-7 -2.6,-10.8 0,-0.3 0,-0.7 0,-1 z M 17.9,55.8 15,51.3 c 0,0 0.1,0 0.1,0 0.3,-0.1 0.5,-0.3 0.5,-0.6 l 0.1,-0.3 c 1.4,2.8 2.6,5.1 3.4,6.6 -0.5,-0.3 -0.9,-0.7 -1.2,-1.2 z m 1.9,3.4 c 0,0 -0.1,-0.1 -0.1,-0.1 0.4,0.1 0.8,0.2 1.2,0.2 -0.1,0.1 -0.3,0.3 -0.4,0.3 -0.2,0.1 -0.6,-0.2 -0.7,-0.4 z m 3.9,6.7 v 0.5 h -0.8 v -0.5 z m 1.6,0.5 v -0.5 h 0.3 v 0.5 z M 21.8,76 H 22 v 0.3 h -0.2 z m 6.2,0 v 0.3 H 27.3 V 76 Z m -1.5,0.3 H 25.8 V 76 h 0.7 z m -1.5,0 H 24.3 V 76 H 25 Z m -1.5,0 H 22.8 V 76 h 0.7 z m 5.4,0 V 76 h 0.3 v 0.3 z m 0.3,-2 h -6.3 c 0,0 0,0 0,0 0,-0.2 -0.2,-0.4 -0.4,-0.4 -0.2,0 -0.4,0.2 -0.4,0.4 0,0 0,0 0,0 h -0.3 v -2.7 c 0.1,0 0.2,0 0.3,0.1 v 1.6 c 0,0.2 0.2,0.4 0.4,0.4 0.2,0 0.4,-0.2 0.4,-0.4 v -1.5 c 0.9,0.1 1.7,0.2 2.6,0.2 1.3,0 2.5,-0.2 3.7,-0.4 z M 22.6,70 22.8,67.6 h 5.4 l 0.2,2.4 c -1.9,0.4 -3.9,0.4 -5.8,0 z m 5.5,-3.6 H 27.3 V 65.9 H 28 Z m 1.6,-2.2 h -8.5 l -0.8,-2.9 c 0.1,0 0.1,0 0.2,0 0.3,0 0.7,-0.1 1.1,-0.4 0.3,0.2 0.8,0.4 1.3,0.4 0,0 0,0 0,0 0.3,0 0.8,-0.1 1.2,-0.4 0.3,0.2 0.7,0.4 1.1,0.4 0.4,0 0.9,-0.1 1.4,-0.4 0.3,0.2 0.8,0.4 1.3,0.4 0.3,0 0.8,-0.1 1.2,-0.4 0.3,0.2 0.7,0.4 1.2,0.4 z m 1.4,-5 c -0.1,0.2 -0.3,0.4 -0.5,0.4 0,0 0,0 0,0 -0.2,0 -0.4,-0.2 -0.5,-0.3 0.4,0 0.9,-0.2 1.3,-0.3 -0.2,0.1 -0.3,0.2 -0.3,0.2 z m 1.7,-3.4 c -0.3,0.4 -0.6,0.7 -0.9,1 0.8,-1.5 2,-3.7 3.3,-6.4 l 0.1,0.3 c 0.1,0.3 0.2,0.5 0.5,0.6 z M 48.1,29.2 c 0,0.3 -0.3,0.6 -0.6,0.6 -0.3,0 -0.6,-0.3 -0.6,-0.6 0,-0.3 0.3,-0.6 0.6,-0.6 0.3,0 0.6,0.2 0.6,0.6 z M 26.9,44 v -5.2 c 0,-0.2 0.2,-0.4 0.4,-0.4 0.2,0 0.4,0.2 0.4,0.4 V 44 c 0,0.2 -0.2,0.4 -0.4,0.4 -0.3,0 -0.4,-0.2 -0.4,-0.4 z m 0.8,1.2 c 0,0.3 -0.2,0.5 -0.5,0.5 -0.3,0 -0.5,-0.2 -0.5,-0.5 0,-0.3 0.2,-0.5 0.5,-0.5 0.3,0 0.5,0.2 0.5,0.5 z"
     id="path2"
     inkscape:connector-curvature="0" /><path
     style="fill:#28170b;fill-opacity:1;stroke:#001000;stroke-width:0.00936317;stroke-miterlimit:4;stroke-dasharray:none;stroke-opacity:1"
     d="m 21.801559,72.940259 c 0,-1.102774 0.02229,-1.310845 0.140447,-1.310845 0.115288,0 0.140448,0.164376 0.140448,0.917591 0,0.974155 0.0643,1.142307 0.436775,1.142307 0.308957,0 0.40591,-0.267524 0.40591,-1.120032 v -0.757817 l 0.632015,0.07283 c 1.058883,0.122023 3.638494,0.06538 4.633762,-0.10175 0.501546,-0.08422 0.933422,-0.15313 0.959725,-0.15313 0.0263,0 0.04782,0.58988 0.04782,1.310845 v 1.310844 H 26.07631 c -3.00324,0 -3.128606,-0.0071 -3.291622,-0.187264 -0.09321,-0.102995 -0.226555,-0.187263 -0.296323,-0.187263 -0.06977,0 -0.199006,0.08427 -0.287193,0.187263 -0.347029,0.405301 -0.399617,0.257441 -0.399617,-1.12358 z"
     id="path4510"
     inkscape:connector-curvature="0" /><path
     style="fill:#ff7f2a;fill-opacity:1;stroke:#001000;stroke-width:0.00936317;stroke-miterlimit:4;stroke-dasharray:none;stroke-opacity:1"
     d="m 20.811016,62.744558 -0.379674,-1.396178 0.367226,-0.05872 c 0.201974,-0.0323 0.494699,-0.124641 0.650498,-0.205208 0.261088,-0.135014 0.31329,-0.132971 0.666568,0.02609 0.489471,0.220376 1.310341,0.218382 1.732048,-0.0042 0.305077,-0.161028 0.327351,-0.159933 0.789269,0.03878 0.525686,0.226144 1.085194,0.20684 1.753323,-0.06049 0.321917,-0.128806 0.385003,-0.128217 0.644585,0.006 0.517161,0.267434 1.073502,0.286315 1.700473,0.05771 0.37974,-0.13846 0.604484,-0.176838 0.679191,-0.115979 0.06141,0.05003 0.293176,0.144846 0.515038,0.210711 0.395637,0.117455 0.402293,0.126183 0.346497,0.45442 -0.03129,0.184066 -0.173316,0.798143 -0.315618,1.364615 l -0.258731,1.029949 -4.255509,0.02434 -4.25551,0.02434 z"
     id="path4512"
     inkscape:connector-curvature="0" /><path
     style="fill:#99cc33;fill-opacity:1;stroke:#001000;stroke-width:0.00936317;stroke-miterlimit:4;stroke-dasharray:none;stroke-opacity:1"
     d="m 3.5343451,22.074824 c -0.788795,-1.178513 -1.4890802,-2.500207 -1.4890802,-2.810438 0,-0.333961 0.481169,-2.071282 0.8597039,-3.104071 C 3.8438343,13.598732 5.2579214,11.253594 7.2126361,9.0164334 7.8986833,8.231256 9.4384757,6.7426295 9.5645935,6.7426295 c 0.026498,0 -0.1775557,0.4322436 -0.453452,0.9605414 -0.9198667,1.7613997 -1.6651079,3.9378441 -2.0464994,5.9767121 -0.2143425,1.145846 -0.4314227,3.114533 -0.4314227,3.912546 0,0.680901 -0.017499,0.731142 -1.1001728,3.158738 -0.605095,1.356758 -1.1296103,2.46769 -1.1655896,2.468739 -0.035979,10e-4 -0.4108796,-0.514238 -0.8331119,-1.145082 z"
     id="path4514"
     inkscape:connector-curvature="0" /><path
     style="fill:#99cc33;fill-opacity:1;stroke:#001000;stroke-width:0.00936317;stroke-miterlimit:4;stroke-dasharray:none;stroke-opacity:1"
     d="m 20.440727,20.523002 -4.122967,-3.728479 0.07253,-1.070006 c 0.275437,-4.06308 1.297624,-8.0477712 2.760476,-10.7608903 0.559372,-1.0374549 1.32544,-2.1828828 1.82816,-2.7334718 l 0.401285,-0.4394946 1.081723,-0.098888 c 0.594948,-0.054388 1.321764,-0.098888 1.615147,-0.098888 H 24.61051 V 12.922323 c 0,6.231192 -0.01053,11.329376 -0.02341,11.329299 -0.01287,-7.7e-5 -1.878744,-1.677956 -4.146376,-3.72862 z"
     id="path4516"
     inkscape:connector-curvature="0" /><path
     style="fill:#99cc33;fill-opacity:1;stroke:#001000;stroke-width:0.00936317;stroke-miterlimit:4;stroke-dasharray:none;stroke-opacity:1"
     d="M 37.607877,19.857692 36.139142,17.24513 36.037585,15.94982 C 35.600717,10.377771 34.36543,5.9804398 32.391624,2.9710569 32.128812,2.570359 31.913785,2.220842 31.913785,2.1943524 c 0,-0.1454082 1.889924,0.3735864 3.350276,0.9200238 0.921521,0.3448163 1.146605,0.4745258 1.764049,1.0165697 3.353857,2.9442938 5.196856,7.2199221 5.609422,13.0134691 0.05352,0.751565 0.03764,0.95024 -0.0973,1.217212 -0.314118,0.621468 -1.487132,2.091146 -2.468771,3.093146 l -0.994847,1.015481 z"
     id="path4518"
     inkscape:connector-curvature="0" /><path
     style="fill:#99cc33;fill-opacity:1;stroke:#001000;stroke-width:0.00936317;stroke-miterlimit:4;stroke-dasharray:none;stroke-opacity:1"
     d="m 16.775246,47.556906 c -0.874043,-0.419217 -0.710681,-0.169278 -1.921762,-2.940244 -1.136309,-2.599887 -2.973587,-7.431448 -3.204446,-8.426855 -0.05309,-0.228919 0.182833,-0.02489 1.27501,1.102637 1.416273,1.462113 1.505023,1.516042 2.039819,1.239488 0.30624,-0.158363 0.499055,-0.610854 0.848406,-1.991006 0.120576,-0.476352 0.246716,-0.866094 0.280311,-0.866094 0.03359,0 0.113896,0.305474 0.178448,0.67883 0.261087,1.510078 1.07403,5.299181 1.568734,7.311826 l 0.525682,2.138672 -0.246607,0.82382 c -0.317255,1.05983 -0.415829,1.31447 -0.504984,1.304482 -0.0399,-0.0045 -0.417273,-0.17347 -0.838611,-0.375556 z"
     id="path4520"
     inkscape:connector-curvature="0" /><path
     style="fill:#99cc33;fill-opacity:1;stroke:#001000;stroke-width:0.00936317;stroke-miterlimit:4;stroke-dasharray:none;stroke-opacity:1"
     d="m 26.295882,43.145954 v -4.526186 l 3.487781,-3.04778 c 1.91828,-1.676279 3.500796,-2.995133 3.516702,-2.930788 0.09639,0.389939 -1.81769,9.774578 -2.486832,12.192809 l -0.163776,0.591875 -2.176938,1.123128 -2.176937,1.123128 z m 1.307549,2.366365 c 0.160435,-0.299774 0.110472,-0.554754 -0.140988,-0.719517 -0.481631,-0.315576 -1.031847,0.293179 -0.648173,0.717134 0.216599,0.239338 0.661627,0.240682 0.789161,0.0024 z m -0.01543,-1.242094 c 0.160492,-0.160493 0.160492,-5.607223 0,-5.767715 -0.155711,-0.155711 -0.356906,-0.140381 -0.559099,0.0426 -0.158229,0.143195 -0.171228,0.35691 -0.171228,2.815107 0,1.654651 0.03664,2.728604 0.09693,2.841256 0.108344,0.202443 0.461389,0.240762 0.633401,0.06875 z"
     id="path4522"
     inkscape:connector-curvature="0" /><path
     style="fill:#99cc33;fill-opacity:1;stroke:#001000;stroke-width:0.00936317;stroke-miterlimit:4;stroke-dasharray:none;stroke-opacity:1"
     d="m 36.609872,48.501341 -0.09977,-0.566374 0.799956,-1.7996 c 0.894207,-2.011628 2.304089,-5.535975 2.993228,-7.482309 0.249658,-0.705109 0.462724,-1.273217 0.47348,-1.262461 0.01076,0.01076 0.06885,0.566597 0.1291,1.235202 0.06025,0.668605 0.150715,1.292947 0.201036,1.387427 0.11776,0.221103 0.671587,0.453171 0.890463,0.373127 0.093,-0.03401 0.497476,-0.333707 0.898838,-0.665994 0.401362,-0.332286 0.75044,-0.583466 0.775728,-0.558178 0.02529,0.02529 -1.314321,2.139755 -2.976911,4.698814 -2.895425,4.456642 -3.043182,4.664512 -3.504139,4.929777 l -0.48125,0.276942 z"
     id="path4524"
     inkscape:connector-curvature="0" /><path
     style="fill:#ffcc00;fill-opacity:1;stroke:#001000;stroke-width:0.00936317;stroke-miterlimit:4;stroke-dasharray:none;stroke-opacity:1"
     d="M 10.886192,21.405554 C 9.945109,20.444377 8.787074,18.997832 8.4855863,18.406867 8.3134396,18.069432 8.3008152,17.929597 8.3584637,16.99879 8.699192,11.497311 10.604451,7.1390277 13.939627,4.2318706 14.62889,3.6310632 14.913705,3.4525377 15.639494,3.1663713 16.497821,2.8279477 17.800842,2.4256453 18.418036,2.308508 l 0.314931,-0.059771 -0.170749,0.257272 c -2.324905,3.5030079 -3.711621,8.373895 -4.029869,14.155055 l -0.06407,1.163868 -1.258971,2.230282 c -0.692434,1.226655 -1.304556,2.230282 -1.36027,2.230282 -0.05572,0 -0.488995,-0.395974 -0.962846,-0.879942 z"
     id="path4526"
     inkscape:connector-curvature="0" /><path
     style="fill:#ffcc00;fill-opacity:1;stroke:#001000;stroke-width:0.00936317;stroke-miterlimit:4;stroke-dasharray:none;stroke-opacity:1"
     d="M 26.20225,12.980034 V 1.5928847 l 0.866093,6.657e-4 c 0.476352,3.661e-4 1.155589,0.028001 1.509416,0.061411 l 0.643323,0.060746 0.598066,0.7563393 c 2.377728,3.0069738 3.827188,7.2641752 4.339069,12.7442543 0.05291,0.566471 0.09624,1.204654 0.09628,1.418184 l 7.8e-5,0.388236 -3.628229,3.31492 c -1.995526,1.823208 -3.8073,3.475712 -4.026164,3.672233 l -0.397935,0.35731 z"
     id="path4528"
     inkscape:connector-curvature="0" /><path
     style="fill:#ffcc00;fill-opacity:1;stroke:#001000;stroke-width:0.00936317;stroke-miterlimit:4;stroke-dasharray:none;stroke-opacity:1"
     d="m 45.287143,20.717164 -1.091878,-2.411017 -0.05547,-1.264028 C 43.987336,13.568048 43.126279,10.140663 41.746333,7.5150912 41.495972,7.0387398 41.324989,6.6489978 41.366371,6.6489978 c 0.04138,0 0.566243,0.468883 1.16636,1.0419623 2.978196,2.8440169 5.082205,6.4295709 6.073522,10.3502139 l 0.291857,1.15429 -0.192254,0.396951 -0.192254,0.396951 -0.112557,-0.654345 c -0.347714,-2.021445 -1.395736,-5.173308 -1.790401,-5.384527 -0.441682,-0.23638 -0.932996,0.01795 -0.932996,0.482964 0,0.127798 0.107169,0.503689 0.238153,0.835312 0.627207,1.587952 1.326006,4.32133 1.498561,5.861669 l 0.06465,0.57713 -0.491035,0.710306 c -0.270068,0.390668 -0.517567,0.710306 -0.549996,0.710306 -0.03243,0 -0.550307,-1.084957 -1.15084,-2.411017 z"
     id="path4530"
     inkscape:connector-curvature="0" /><path
     style="fill:#ffcc00;fill-opacity:1;stroke:#001000;stroke-width:0.00936317;stroke-miterlimit:4;stroke-dasharray:none;stroke-opacity:1"
     d="m 33.288419,47.870364 c -0.08969,-0.154015 -0.719212,-2.461514 -0.719212,-2.636243 0,-0.102818 0.188917,-0.951327 0.419815,-1.885576 0.542381,-2.194556 1.182871,-5.177527 1.511861,-7.041232 0.143131,-0.810829 0.28979,-1.442843 0.325909,-1.404476 0.03612,0.03837 0.240962,0.740897 0.455208,1.561178 0.214246,0.820282 0.447944,1.604364 0.519328,1.742407 0.154433,0.298639 0.606853,0.508408 0.924543,0.428673 0.125409,-0.03148 0.799476,-0.654968 1.499926,-1.387385 0.699687,-0.73162 1.272158,-1.299879 1.272158,-1.262798 0,0.36665 -3.003189,7.737594 -4.21618,10.348075 l -0.405946,0.873638 -0.72989,0.366982 c -0.792255,0.398338 -0.797342,0.400098 -0.85752,0.296757 z"
     id="path4532"
     inkscape:connector-curvature="0" /><path
     style="fill:#ffcc00;fill-opacity:1;stroke:#001000;stroke-width:0.00936317;stroke-miterlimit:4;stroke-dasharray:none;stroke-opacity:1"
     d="M 22.316533,46.483257 C 21.132092,45.848736 20.10795,45.295578 20.040662,45.254018 19.853181,45.138219 18.92252,41.296816 18.153815,37.465863 17.806579,35.735361 17.21598,32.270504 17.260634,32.22585 c 0.01754,-0.01754 1.678436,1.392243 3.690883,3.132848 l 3.658993,3.164738 v 4.568128 c 0,2.512471 -0.0316,4.563007 -0.07022,4.556748 -0.03862,-0.0063 -1.039312,-0.530534 -2.223754,-1.165055 z"
     id="path4534"
     inkscape:connector-curvature="0" /><path
     style="fill:#ffcc00;fill-opacity:1;stroke:#001000;stroke-width:0.00936317;stroke-miterlimit:4;stroke-dasharray:none;stroke-opacity:1"
     d="m 13.585326,48.621111 c -0.443818,-0.31851 -0.774294,-0.793089 -3.399073,-4.881225 -1.5991016,-2.490627 -2.8895152,-4.546355 -2.8675859,-4.568284 0.021929,-0.02193 0.3108671,0.191467 0.6420839,0.474215 0.7587178,0.64769 0.9825439,0.738624 1.3636946,0.554027 0.3512825,-0.170131 0.4626744,-0.440011 0.5343893,-1.294717 0.030247,-0.360482 0.08014,-0.903975 0.1108734,-1.207761 l 0.05588,-0.552338 0.583536,1.629103 c 0.742615,2.073218 1.613398,4.251905 2.768496,6.926739 l 0.912975,2.114157 -0.106827,0.579448 -0.106827,0.579448 z"
     id="path4536"
     inkscape:connector-curvature="0" /><path
     style="fill:#6699ff;fill-opacity:1;stroke:#001000;stroke-width:0.00936317;stroke-miterlimit:4;stroke-dasharray:none;stroke-opacity:1"
     d="M 6.3095012,35.945052 4.253596,34.129909 3.8113458,33.146776 C 2.8852719,31.08809 2.1871015,28.589409 1.9145892,26.358476 1.7781535,25.241539 1.6173872,22.198054 1.6994784,22.286188 c 0.023629,0.02537 0.3426093,0.488533 0.7088451,1.029257 1.0854109,1.602538 1.5957802,2.180937 2.0531967,2.326879 0.6217344,0.198368 0.7243567,0.08008 1.5716027,-1.811495 l 0.7405441,-1.653353 0.070346,0.592392 c 0.3179488,2.677498 0.8814696,5.749652 1.5694198,8.556026 l 0.371644,1.516058 -0.1872193,2.32935 C 8.4948864,36.452444 8.4004606,37.559048 8.388022,37.630423 8.3751278,37.70441 7.4816632,36.979943 6.3095012,35.945052 Z"
     id="path4538"
     inkscape:connector-curvature="0" /><path
     style="opacity:1;fill:#5bcf8f;fill-opacity:1;stroke:#001000;stroke-width:0.01324153;stroke-miterlimit:4;stroke-dasharray:none;stroke-opacity:1"
     d="m 26.365236,31.499953 0.01059,-4.882474 3.994972,-3.588755 3.994972,-3.588755 0.04095,1.20528 c 0.06211,1.828033 -0.50706,8.849363 -0.753803,9.298954 -0.06774,0.123433 -6.34016,5.673707 -7.070521,6.256491 -0.214598,0.171236 -0.22714,-0.100262 -0.217163,-4.700741 z"
     id="path4614"
     inkscape:connector-curvature="0" /><path
     style="opacity:1;fill:#5bcf8f;fill-opacity:1;stroke:#001000;stroke-width:0.01324153;stroke-miterlimit:4;stroke-dasharray:none;stroke-opacity:1"
     d="M 3.4757161,22.071056 C 3.0453473,21.427648 2.5254291,20.558255 2.3203424,20.139073 L 1.9474575,19.376924 2.1823078,18.362667 C 3.1013756,14.393456 5.4814035,10.442287 8.8472703,7.2979267 9.2293666,6.940976 9.568685,6.6756198 9.6013112,6.7082461 9.6339375,6.7408724 9.3948284,7.2795756 9.0699574,7.9053643 7.8547544,10.246172 7.0251084,13.375013 6.7417576,16.685695 L 6.5831503,18.53887 5.5254904,20.889879 c -0.581713,1.293056 -1.1048256,2.351011 -1.1624726,2.351011 -0.057647,0 -0.4569328,-0.526425 -0.8873017,-1.169834 z"
     id="path4616"
     inkscape:connector-curvature="0" /><path
     style="opacity:1;fill:#5bcf8f;fill-opacity:1;stroke:#001000;stroke-width:0.01324153;stroke-miterlimit:4;stroke-dasharray:none;stroke-opacity:1"
     d="m 20.414253,20.570998 -4.152788,-3.749416 0.09294,-1.325569 c 0.325264,-4.639284 1.618797,-8.9616815 3.556513,-11.8842488 1.302645,-1.9647192 1.131054,-1.8495325 2.980272,-2.0006174 0.88479,-0.072289 1.639048,-0.1010958 1.676129,-0.064015 0.03708,0.037081 0.05219,5.1762393 0.03357,11.4203522 l -0.03385,11.352932 z"
     id="path4618"
     inkscape:connector-curvature="0" /><path
     style="opacity:1;fill:#5bcf8f;fill-opacity:1;stroke:#001000;stroke-width:0.01324153;stroke-miterlimit:4;stroke-dasharray:none;stroke-opacity:1"
     d="m 37.531434,19.830663 -1.46887,-2.614667 -0.09044,-1.324153 C 35.616738,10.688552 34.289737,6.0188424 32.266203,2.8507243 32.010987,2.4511493 31.817955,2.1084435 31.837242,2.0891558 c 0.07637,-0.076375 2.197792,0.5148338 3.312195,0.9230615 1.039274,0.3807068 1.308076,0.5517058 2.241143,1.4257062 3.084148,2.8889101 4.751644,6.7337385 5.245085,12.0938515 l 0.144239,1.566838 -0.603362,0.907588 c -0.599393,0.901615 -2.779136,3.344232 -3.039947,3.40656 -0.07496,0.01791 -0.797283,-1.14403 -1.605161,-2.582098 z"
     id="path4620"
     inkscape:connector-curvature="0" /><path
     style="opacity:1;fill:#5bcf8f;fill-opacity:1;stroke:#001000;stroke-width:0.01324153;stroke-miterlimit:4;stroke-dasharray:none;stroke-opacity:1"
     d="M 16.740693,47.602138 15.932354,47.22451 14.995718,45.064533 c -1.546479,-3.566341 -3.476866,-8.660489 -3.469152,-9.154837 0.0013,-0.08556 0.6121,0.485341 1.357256,1.268671 1.86999,1.965788 2.165993,1.922156 2.806621,-0.413708 0.203787,-0.743048 0.391083,-1.330435 0.416214,-1.305304 0.02513,0.02513 0.289629,1.26368 0.587773,2.752332 0.298144,1.488651 0.810987,3.823776 1.139651,5.189166 l 0.597572,2.482526 -0.352873,1.059582 c -0.19408,0.58277 -0.39267,1.054457 -0.44131,1.048193 -0.04864,-0.0063 -0.45219,-0.18132 -0.896777,-0.389016 z"
     id="path4622"
     inkscape:connector-curvature="0" /><path
     style="opacity:1;fill:#5bcf8f;fill-opacity:1;stroke:#001000;stroke-width:0.01324153;stroke-miterlimit:4;stroke-dasharray:none;stroke-opacity:1"
     d="m 26.222232,43.17528 v -4.562432 l 3.434866,-2.994335 c 1.889176,-1.646884 3.483125,-2.987383 3.542108,-2.978887 0.05898,0.0085 0.09016,0.265835 0.06928,0.571862 -0.07751,1.136081 -2.358591,12.002347 -2.561991,12.204431 -0.06609,0.06566 -4.377439,2.321793 -4.436821,2.321793 -0.02609,0 -0.04744,-2.053095 -0.04744,-4.562432 z m 1.397664,2.155943 c 0.12078,-0.380544 -0.263995,-0.688169 -0.621465,-0.496857 -0.242299,0.129674 -0.331683,0.523004 -0.158261,0.696425 0.203799,0.2038 0.691304,0.07903 0.779726,-0.199568 z m -0.02147,-1.245761 c 0.104799,-0.273102 0.104799,-5.134263 0,-5.407365 -0.110293,-0.287419 -0.411271,-0.263075 -0.577043,0.04667 -0.146217,0.273208 -0.191809,4.756541 -0.05362,5.272212 0.09184,0.342706 0.51056,0.401452 0.630658,0.08848 z"
     id="path4624"
     inkscape:connector-curvature="0" /><path
     style="opacity:1;fill:#5bcf8f;fill-opacity:1;stroke:#001000;stroke-width:0.01324153;stroke-miterlimit:4;stroke-dasharray:none;stroke-opacity:1"
     d="m 36.608292,48.697722 c -0.04388,-0.200278 -0.10352,-0.440668 -0.132524,-0.534201 -0.029,-0.09353 0.218064,-0.772588 0.54904,-1.509013 0.872592,-1.941525 2.236494,-5.313255 3.043456,-7.523788 0.385501,-1.056011 0.730439,-1.830641 0.76653,-1.721398 0.03609,0.109242 0.104878,0.705111 0.152861,1.324152 0.139801,1.803615 0.593404,2.019447 1.921435,0.914248 0.445927,-0.371104 0.840381,-0.64513 0.876565,-0.608946 0.03618,0.03618 -1.312197,2.184275 -2.996401,4.773535 -2.225462,3.421377 -3.181962,4.781769 -3.500522,4.97865 -0.560019,0.34611 -0.584918,0.342699 -0.68044,-0.09324 z"
     id="path4626"
     inkscape:connector-curvature="0" /><path
     style="opacity:1;fill:#4ebdc7;fill-opacity:1;stroke:#001000;stroke-width:0.01324153;stroke-miterlimit:4;stroke-dasharray:none;stroke-opacity:1"
     d="M 6.3412997,36.021968 C 4.3238954,34.260856 4.2574828,34.186135 3.7787728,33.138887 3.0978357,31.649237 2.4559143,29.63171 2.1200336,27.925551 1.8656291,26.633265 1.5621593,22.674655 1.6968779,22.4057 c 0.029452,-0.0588 0.3905445,0.386893 0.802428,0.990425 1.0752525,1.575566 1.7311771,2.228239 2.2393402,2.228239 0.4471957,0 0.3471164,0.157024 1.5627235,-2.451908 l 0.4925436,-1.057096 0.1807479,1.39036 c 0.2632142,2.024714 0.8028422,4.915583 1.3591404,7.281124 l 0.486764,2.069861 -0.1626731,2.044582 c -0.08947,1.124519 -0.181312,2.243497 -0.2040927,2.486615 l -0.04142,0.442033 z"
     id="path4628"
     inkscape:connector-curvature="0" /><path
     style="opacity:1;fill:#4ebdc7;fill-opacity:1;stroke:#001000;stroke-width:0.01324153;stroke-miterlimit:4;stroke-dasharray:none;stroke-opacity:1"
     d="M 12.29944,34.178857 10.496329,32.282102 9.9556861,30.045659 C 9.3337313,27.47286 8.8070192,24.573734 8.6833121,23.042267 8.6362493,22.45964 8.5717143,21.856509 8.5399008,21.701976 8.5031645,21.52353 9.0649,21.994623 10.079361,22.993025 c 1.399689,1.377532 1.652226,1.572017 2.041243,1.572017 0.567575,0 0.669078,-0.10933 1.605287,-1.72907 l 0.777591,-1.345313 0.08511,0.775804 c 0.04681,0.426692 0.154106,1.729194 0.238428,2.894448 0.08432,1.165254 0.266218,3.012447 0.404211,4.104873 l 0.250896,1.986229 -0.604878,2.317266 c -0.332683,1.274497 -0.643088,2.359807 -0.68979,2.4118 -0.0467,0.05199 -0.896312,-0.759007 -1.888023,-1.802222 z"
     id="path4630"
     inkscape:connector-curvature="0" /><path
     style="opacity:1;fill:#4ebdc7;fill-opacity:1;stroke:#001000;stroke-width:0.01324153;stroke-miterlimit:4;stroke-dasharray:none;stroke-opacity:1"
     d="m 26.222232,31.598964 v -4.88345 l 4.137097,-3.72618 c 2.275403,-2.049398 4.158802,-3.661064 4.18533,-3.58148 0.09437,0.283097 -0.264016,5.918927 -0.517282,8.134672 -0.141612,1.238911 -0.257476,2.292539 -0.257476,2.341396 0,0.10018 -7.361201,6.598493 -7.474683,6.598493 -0.04014,0 -0.07299,-2.197553 -0.07299,-4.883451 z"
     id="path4632"
     inkscape:connector-curvature="0" /><path
     style="opacity:1;fill:#4ebdc7;fill-opacity:1;stroke:#001000;stroke-width:0.01324153;stroke-miterlimit:4;stroke-dasharray:none;stroke-opacity:1"
     d="m 42.507627,37.582656 c -9.25e-4,-0.05892 -0.08969,-1.140425 -0.19725,-2.403345 l -0.195569,-2.296218 0.321091,-1.146578 c 0.669594,-2.391045 1.382691,-5.92969 1.591935,-7.899757 0.169577,-1.596601 0.163367,-1.596937 0.943877,0.05105 0.392716,0.82919 0.818651,1.588564 0.946523,1.687499 0.34741,0.268793 0.84264,0.09957 1.322949,-0.452065 l 0.42838,-0.491991 0.002,0.42766 c 0.0011,0.235214 -0.0944,0.905935 -0.212186,1.490492 -0.171273,0.850011 -0.181284,1.102439 -0.04999,1.260634 0.244937,0.295131 0.759675,0.242291 0.975426,-0.100132 0.267107,-0.423932 0.494461,-1.906557 0.560908,-3.657799 0.07679,-2.024018 0.307408,-2.407469 0.312773,-0.520063 0.0075,2.645151 -0.577019,5.854035 -1.533091,8.416081 -0.776867,2.081816 -0.819841,2.139089 -2.93166,3.907115 -2.080848,1.742096 -2.283449,1.895187 -2.286082,1.727418 z m 5.35504,-7.929085 c 0.545421,-0.54542 -0.02443,-1.341232 -0.661497,-0.923807 -0.401768,0.263249 -0.413577,0.655593 -0.02786,0.925757 0.366534,0.256731 0.430864,0.256549 0.689362,-0.0019 z"
     id="path4634"
     inkscape:connector-curvature="0" /><path
     style="opacity:1;fill:#4ebdc7;fill-opacity:1;stroke:#001000;stroke-width:0.01324153;stroke-miterlimit:4;stroke-dasharray:none;stroke-opacity:1"
     d=""
     id="path4636"
     inkscape:connector-curvature="0" /><path
     style="opacity:1;fill:#4ebdc7;fill-opacity:1;stroke:#001000;stroke-width:0.01324153;stroke-miterlimit:4;stroke-dasharray:none;stroke-opacity:1"
     d="M 18.44955,56.442031 C 18.226506,56.20643 17.376477,54.973744 16.560595,53.70273 15.282059,51.710972 15.10565,51.370972 15.28335,51.241035 c 0.113397,-0.08292 0.25745,-0.289368 0.320119,-0.458777 0.09822,-0.265516 0.336714,0.12696 1.728444,2.844396 0.887975,1.733827 1.593951,3.172962 1.568835,3.198078 -0.02512,0.02512 -0.228155,-0.1471 -0.451198,-0.382701 z"
     id="path4638"
     inkscape:connector-curvature="0" /><path
     style="opacity:1;fill:#4ebdc7;fill-opacity:1;stroke:#001000;stroke-width:0.01324153;stroke-miterlimit:4;stroke-dasharray:none;stroke-opacity:1"
     d="m 22.671251,55.18607 c -0.897545,-2.894951 -2.142875,-7.217591 -2.142875,-7.438087 0,-0.07788 0.923596,0.319067 2.052436,0.882097 l 2.052437,1.023691 v 4.07375 4.07375 h -0.575593 -0.575594 z"
     id="path4640"
     inkscape:connector-curvature="0" /><path
     style="opacity:1;fill:#5bcf8f;fill-opacity:1;stroke:#001000;stroke-width:0.01324153;stroke-miterlimit:4;stroke-dasharray:none;stroke-opacity:1"
     d="m 28.916646,57.474859 c 0.204472,-0.532844 1.569071,-4.950073 2.067212,-6.691596 0.302059,-1.056012 0.585178,-2.039195 0.629154,-2.184852 0.06204,-0.205492 0.127205,-0.117028 0.290827,0.394816 0.247592,0.774517 0.676227,1.020434 1.341158,0.76945 0.215869,-0.08148 0.392489,-0.117037 0.392489,-0.07901 0,0.1465 -2.819722,5.595876 -3.480943,6.727246 -0.525174,0.898591 -0.77359,1.202746 -1.009892,1.236493 -0.24484,0.03497 -0.295151,-0.0028 -0.230005,-0.172545 z"
     id="path4642"
     inkscape:connector-curvature="0" /><path
     style="opacity:1;fill:#5bcf8f;fill-opacity:1;stroke:#001000;stroke-width:0.01324153;stroke-miterlimit:4;stroke-dasharray:none;stroke-opacity:1"
     d="m 22.122869,46.408195 -2.179342,-1.166601 -0.236702,-0.837481 c -0.384849,-1.361644 -1.386077,-5.948066 -1.87386,-8.583774 -0.588592,-3.180422 -0.64879,-3.609468 -0.498689,-3.554315 0.06782,0.02492 1.737839,1.439555 3.711144,3.143632 l 3.587829,3.098322 v 4.548659 c 0,3.558784 -0.03602,4.545341 -0.165519,4.533409 -0.09104,-0.0084 -1.146223,-0.540221 -2.344861,-1.181851 z"
     id="path4644"
     inkscape:connector-curvature="0" /><path
     style="opacity:1;fill:#5bcf8f;fill-opacity:1;stroke:#001000;stroke-width:0.01324153;stroke-miterlimit:4;stroke-dasharray:none;stroke-opacity:1"
     d="m 13.520919,48.569696 c -0.249096,-0.196249 -1.05586,-1.283049 -1.79281,-2.41511 -2.801291,-4.30319 -4.3430207,-6.768997 -4.2748774,-6.83714 0.038851,-0.03885 0.270553,0.103058 0.5148933,0.315353 0.674486,0.586027 0.9944959,0.723395 1.3019195,0.558867 0.4000311,-0.21409 0.4965256,-0.497439 0.6014494,-1.766115 0.053157,-0.642743 0.1410572,-1.119438 0.1953342,-1.059322 0.05428,0.06012 0.472313,1.122277 0.928969,2.36036 0.456656,1.238082 1.388477,3.56197 2.070713,5.164195 1.112801,2.613401 1.231964,2.971039 1.158147,3.4759 -0.04526,0.309521 -0.120208,0.562104 -0.16656,0.561297 -0.04635,-8.08e-4 -0.288082,-0.162036 -0.537178,-0.358285 z"
     id="path4646"
     inkscape:connector-curvature="0" /><path
     style="opacity:1;fill:#5bcf8f;fill-opacity:1;stroke:#001000;stroke-width:0.01324153;stroke-miterlimit:4;stroke-dasharray:none;stroke-opacity:1"
     d="m 32.969438,46.923167 c -0.460451,-1.546106 -0.457558,-1.600031 0.251403,-4.685644 0.367506,-1.599499 0.862817,-3.905302 1.100691,-5.124007 0.237874,-1.218705 0.472387,-2.172095 0.52114,-2.118644 0.04875,0.05345 0.277592,0.78146 0.508532,1.617799 0.688337,2.492787 0.926907,2.552762 2.806949,0.705657 0.718082,-0.705502 1.305604,-1.241122 1.305604,-1.190268 0,0.30153 -2.306221,6.012642 -3.743104,9.269402 -0.792435,1.79609 -0.819779,1.836919 -1.441063,2.151747 -0.348315,0.176505 -0.722138,0.320918 -0.830718,0.320918 -0.130253,0 -0.293364,-0.32217 -0.479434,-0.94696 z"
     id="path4648"
     inkscape:connector-curvature="0" /><path
     style="opacity:1;fill:#ff4f3c;fill-opacity:1;stroke:#001000;stroke-width:0.01324153;stroke-miterlimit:4;stroke-dasharray:none;stroke-opacity:1"
     d="M 10.85002,21.385651 C 10.32071,20.840222 9.533066,19.917267 9.0996993,19.33464 L 8.3117598,18.275318 8.3855479,16.752542 C 8.6232828,11.846374 10.457785,7.5323774 13.549597,4.608816 c 0.555267,-0.5250503 1.235394,-1.0679981 1.511392,-1.2065506 0.800799,-0.4020049 3.613573,-1.2759341 3.613573,-1.1227375 0,0.039224 -0.201984,0.4068389 -0.448852,0.8169218 -2.050561,3.4062592 -3.29612,7.8997163 -3.63857,13.1264313 l -0.108446,1.655191 -1.137628,1.986229 c -1.641729,2.866358 -1.355456,2.691522 -2.491046,1.52135 z"
     id="path4650"
     inkscape:connector-curvature="0" /><path
     style="opacity:1;fill:#ff4f3c;fill-opacity:1;stroke:#001000;stroke-width:0.01324153;stroke-miterlimit:4;stroke-dasharray:none;stroke-opacity:1"
     d="M 26.222232,12.915987 V 1.4907166 l 1.489671,0.094565 c 1.709099,0.1084947 1.553463,0.00516 2.800804,1.8595272 2.059548,3.0618333 3.326826,7.2773412 3.726059,12.3944642 l 0.08888,1.139167 -3.760399,3.429159 c -2.06822,1.886037 -3.891937,3.542671 -4.052705,3.681409 l -0.292306,0.25225 z"
     id="path4652"
     inkscape:connector-curvature="0" /><path
     style="opacity:1;fill:#ff4f3c;fill-opacity:1;stroke:#001000;stroke-width:0.01324153;stroke-miterlimit:4;stroke-dasharray:none;stroke-opacity:1"
     d="M 46.108692,22.553808 C 45.965574,22.239833 45.477317,21.178522 45.023676,20.195339 L 44.198875,18.407733 44.084383,16.707534 C 43.847068,13.1834 43.079488,10.186873 41.728546,7.5106734 41.500413,7.0587436 41.362739,6.6889829 41.422605,6.6889829 c 0.175296,0 2.836609,2.7737368 3.493826,3.6414191 1.693021,2.23519 3.122264,5.22756 3.748593,7.848336 0.191243,0.800225 0.2022,1.030055 0.06491,1.361502 -0.09084,0.219318 -0.183706,0.380226 -0.206358,0.357574 -0.02265,-0.02265 -0.134586,-0.493365 -0.248741,-1.046028 -0.419092,-2.028951 -1.248941,-4.441161 -1.653941,-4.80768 -0.316833,-0.286731 -0.773778,-0.163804 -0.871596,0.234476 -0.03915,0.159387 0.107279,0.77558 0.326336,1.373306 0.472454,1.28915 0.977952,3.236705 1.259433,4.852268 l 0.203766,1.169518 -0.384944,0.559497 c -0.651809,0.947372 -0.746301,0.97636 -1.045198,0.320637 z"
     id="path4654"
     inkscape:connector-curvature="0" /><path
     style="opacity:1;fill:#ff4f3c;fill-opacity:1;stroke:#001000;stroke-width:0.01324153;stroke-miterlimit:4;stroke-dasharray:none;stroke-opacity:1"
     d="M 13.522351,48.625218 C 13.21545,48.414926 12.162106,46.896985 10.11098,43.7092 8.4789239,41.172716 7.1672974,39.073719 7.1962547,39.044762 c 0.028957,-0.02896 0.3852836,0.221193 0.7918363,0.555889 1.2938836,1.065196 1.6842222,0.754156 1.9050011,-1.517996 l 0.1082709,-1.114273 0.891189,2.393255 c 0.490154,1.31629 1.463309,3.752041 2.162567,5.41278 1.147881,2.726221 1.263107,3.074674 1.186238,3.587279 -0.04683,0.312264 -0.127861,0.567753 -0.180075,0.567753 -0.05221,0 -0.294733,-0.136904 -0.538931,-0.304231 z"
     id="path4656"
     inkscape:connector-curvature="0" /><path
     style="opacity:1;fill:#ff4f3c;fill-opacity:1;stroke:#001000;stroke-width:0.01324153;stroke-miterlimit:4;stroke-dasharray:none;stroke-opacity:1"
     d="m 22.249774,46.499662 c -2.106397,-1.120161 -2.330995,-1.273533 -2.46813,-1.685419 -0.591675,-1.777109 -2.658205,-11.9733 -2.536771,-12.516346 0.03213,-0.143676 5.990729,4.854193 7.09219,5.948684 l 0.299682,0.297786 -0.03485,4.593798 -0.03485,4.593797 z"
     id="path4658"
     inkscape:connector-curvature="0" /><path
     style="opacity:1;fill:#ff4f3c;fill-opacity:1;stroke:#001000;stroke-width:0.01324153;stroke-miterlimit:4;stroke-dasharray:none;stroke-opacity:1"
     d="m 33.24024,47.957893 c 0,-0.02456 -0.175231,-0.628297 -0.389403,-1.341646 L 32.461433,45.319248 32.9089,43.449825 c 0.559891,-2.339107 1.303685,-5.83353 1.604634,-7.538741 0.126151,-0.714788 0.271558,-1.221277 0.323126,-1.12553 0.05157,0.09575 0.288931,0.883617 0.527472,1.750821 0.427098,1.552697 0.709806,2.064684 1.14007,2.064684 0.120127,0 0.871856,-0.640559 1.670511,-1.423464 1.021336,-1.001194 1.423403,-1.325262 1.355363,-1.092426 -0.312333,1.068815 -3.041784,7.754401 -4.064164,9.954866 -0.533928,1.149172 -0.577427,1.201131 -1.318921,1.575436 -0.741813,0.374465 -0.906751,0.436752 -0.906751,0.342422 z"
     id="path4660"
     inkscape:connector-curvature="0" /><path
     style="opacity:1;fill:#4ebdc7;fill-opacity:1;stroke:#001000;stroke-width:0.01324153;stroke-miterlimit:4;stroke-dasharray:none;stroke-opacity:1"
     d="m 28.841934,57.72853 c -0.04001,-0.04001 0.12346,-0.650773 0.36326,-1.357256 0.378083,-1.113882 1.146864,-3.63253 2.190675,-7.176994 l 0.292462,-0.993115 0.224118,0.662076 c 0.302412,0.893368 0.72032,1.142414 1.385073,0.825415 0.259809,-0.123894 0.472379,-0.193119 0.472379,-0.153834 0,0.13049 -2.358247,4.732216 -3.252355,6.346428 -0.484073,0.873941 -0.974689,1.663466 -1.090257,1.754502 -0.22235,0.17515 -0.464588,0.213545 -0.585355,0.09278 z"
     id="path4662"
     inkscape:connector-curvature="0" /><path
     style="opacity:1;fill:#4ebdc7;fill-opacity:1;stroke:#001000;stroke-width:0.01324153;stroke-miterlimit:4;stroke-dasharray:none;stroke-opacity:1"
     d="m 36.164555,33.344703 -0.717105,-2.739758 0.22454,-2.126148 c 0.300412,-2.844573 0.474728,-5.209168 0.478381,-6.489232 0.0018,-0.647921 0.05014,-1.004331 0.125597,-0.926906 0.06743,0.06919 0.549328,0.870332 1.070894,1.780322 0.521566,0.90999 1.017578,1.698604 1.102249,1.752474 0.08467,0.05387 0.323518,0.09886 0.530772,0.09998 0.305679,0.0016 0.700599,-0.315877 2.091674,-1.681732 l 1.714848,-1.68376 -0.08499,0.591334 c -0.446795,3.108734 -0.975826,5.752159 -1.955505,9.771122 -0.11495,0.471565 -0.453629,0.904507 -1.916318,2.449682 -0.977179,1.032287 -1.81522,1.891624 -1.862312,1.909635 -0.04709,0.01801 -0.40832,-1.200142 -0.802727,-2.707008 z"
     id="path4664"
     inkscape:connector-curvature="0" /><path
     style="opacity:1;fill:#43a2ab;fill-opacity:1;stroke:#001000;stroke-width:0.01324153;stroke-miterlimit:4;stroke-dasharray:none;stroke-opacity:1"
     d="M 6.2524569,35.978714 C 4.3454872,34.272967 4.1979089,34.106106 3.7701207,33.172034 2.6085039,30.635652 1.9428803,27.850619 1.7184631,24.587698 c -0.1466432,-2.132122 -0.10653,-2.578559 0.1879957,-2.092285 0.082494,0.136201 0.5786457,0.827731 1.1025595,1.536733 0.9464127,1.280762 1.5045874,1.719308 1.9639476,1.543035 0.1137191,-0.04364 0.5702758,-0.839949 1.0145704,-1.769581 l 0.8078085,-1.69024 0.2989451,2.062269 c 0.3477693,2.399083 0.7007611,4.225448 1.3161208,6.809553 l 0.4414532,1.853814 -0.1815074,2.118644 c -0.099829,1.165254 -0.1838162,2.282508 -0.1866381,2.482786 -0.00282,0.200278 -0.049821,0.360927 -0.1044423,0.356998 -0.054621,-0.0039 -1.0116899,-0.82325 -2.1268192,-1.82071 z"
     id="path4666"
     inkscape:connector-curvature="0" /><path
     style="opacity:1;fill:#43a2ab;fill-opacity:1;stroke:#001000;stroke-width:0.01324153;stroke-miterlimit:4;stroke-dasharray:none;stroke-opacity:1"
     d="M 6.2180541,35.969183 C 4.1613071,34.140386 4.1549175,34.132941 3.6665997,32.996249 2.5772665,30.46053 1.979286,28.025002 1.7265813,25.094703 1.5620689,23.187059 1.5580247,22.279189 1.7142927,22.336052 c 0.066714,0.02428 0.5880992,0.668323 1.1586334,1.431214 0.5705343,0.762892 1.233511,1.499787 1.4732816,1.637545 0.4048223,0.232587 0.4530686,0.234973 0.675773,0.03343 0.1319048,-0.119372 0.5613909,-0.899374 0.9544138,-1.733338 0.3930229,-0.833964 0.7524115,-1.517881 0.7986413,-1.519816 0.04623,-0.0019 0.1253841,0.339107 0.1758986,0.75787 0.2141924,1.775648 0.8933073,5.491889 1.3920528,7.61757 l 0.536777,2.287774 -0.2005883,2.374698 c -0.1103236,1.306084 -0.2005883,2.421694 -0.2005883,2.479135 0,0.240541 -0.2978839,0.01218 -2.2605335,-1.732949 z"
     id="path4668"
     inkscape:connector-curvature="0" /><path
     style="opacity:1;fill:#43a2ab;fill-opacity:1;stroke:#001000;stroke-width:0.01324153;stroke-miterlimit:4;stroke-dasharray:none;stroke-opacity:1"
     d="M 7.4192655,37.056251 C 4.706011,34.71422 4.2081719,34.191733 3.7523271,33.207762 3.1247574,31.853111 2.4472852,29.754703 2.1376551,28.206462 1.713238,26.084252 1.4331242,22.313983 1.6998709,22.313983 c 0.058782,0 0.3927511,0.389341 0.7421533,0.865203 0.3494022,0.475862 0.9357886,1.194012 1.3030807,1.595888 1.010869,1.106052 1.1529955,1.041672 2.144531,-0.97142 0.4394219,-0.892147 0.8380236,-1.622086 0.8857818,-1.622086 0.047758,0 0.1586391,0.521385 0.2464023,1.158633 0.240918,1.749309 0.8834254,5.148184 1.4080023,7.448358 l 0.468078,2.052437 -0.1459674,1.920021 C 8.5707377,37.144415 8.4877233,37.807594 8.3711626,37.80288 8.3210036,37.80088 7.8926501,37.464869 7.4192655,37.056251 Z"
     id="path4670"
     inkscape:connector-curvature="0" /><path
     style="opacity:1;fill:#ffc518;fill-opacity:1;stroke:#001000;stroke-width:0.01324153;stroke-miterlimit:4;stroke-dasharray:none;stroke-opacity:1"
     d="M 20.772363,33.07219 C 18.210131,30.859674 16.952619,29.687929 16.900506,29.464407 16.700142,28.605 16.390757,24.734042 16.307844,22.049152 c -0.0506,-1.638638 -0.07945,-2.9998 -0.06409,-3.024802 0.01535,-0.025 1.909269,1.661329 4.208705,3.747405 l 4.180795,3.792864 v 4.89269 c 0,2.69098 -0.0149,4.892451 -0.0331,4.892159 -0.01821,-2.65e-4 -1.740709,-1.475068 -3.827782,-3.277278 z"
     id="path4672"
     inkscape:connector-curvature="0" /><path
     style="opacity:1;fill:#ffc518;fill-opacity:1;stroke:#001000;stroke-width:0.01324153;stroke-miterlimit:4;stroke-dasharray:none;stroke-opacity:1"
     d="M 6.9538413,36.669351 C 4.1063462,34.220202 3.8400375,33.851103 2.9145643,31.070985 2.3372441,29.336717 1.9399603,27.495904 1.7330583,25.596479 1.5629029,24.034401 1.5504853,22.313983 1.7093659,22.313983 c 0.064004,0 0.4542571,0.448921 0.8672282,0.997603 0.9817587,1.304385 1.8288159,2.180363 2.1083768,2.180363 0.2630383,0 0.7421316,-0.726875 1.4697585,-2.2299 0.4712087,-0.973354 0.7348751,-1.313885 0.7348751,-0.949106 0,0.450939 1.0101649,5.943548 1.465632,7.969138 l 0.5456144,2.426499 -0.1544417,2.25106 c -0.158156,2.305196 -0.231123,2.846928 -0.3834588,2.846928 -0.04781,0 -0.6819092,-0.511748 -1.4091091,-1.137217 z"
     id="path4674"
     inkscape:connector-curvature="0" /><path
     style="opacity:1;fill:#ffc518;fill-opacity:1;stroke:#001000;stroke-width:0.01324153;stroke-miterlimit:4;stroke-dasharray:none;stroke-opacity:1"
     d="m 36.12577,33.355997 -0.752365,-2.898476 0.181289,-1.456568 c 0.164823,-1.324275 0.323115,-3.222641 0.574143,-6.885593 l 0.09075,-1.324153 1.057045,1.832549 c 0.581374,1.007902 1.167896,1.891875 1.303382,1.964384 0.460199,0.246292 0.874084,-0.02416 2.535174,-1.656572 1.238518,-1.217138 1.658599,-1.560715 1.657552,-1.355678 -0.0051,0.99079 -0.804591,5.262577 -1.600377,8.550593 l -0.528791,2.184852 -1.882716,1.971569 -1.882716,1.971569 z"
     id="path4676"
     inkscape:connector-curvature="0" /><path
     style="opacity:1;fill:#ffc518;fill-opacity:1;stroke:#001000;stroke-width:0.01324153;stroke-miterlimit:4;stroke-dasharray:none;stroke-opacity:1"
     d="m 20.979628,56.57643 c -0.698958,-1.209605 -3.496803,-6.627051 -3.496803,-6.770834 0,-0.05004 0.115256,-0.02929 0.256125,0.0461 0.140869,0.07539 0.36883,0.137074 0.506579,0.137074 0.285516,0 0.826279,-0.521212 0.826279,-0.796405 0,-0.432899 0.258449,0.149829 0.588132,1.326066 0.319918,1.141397 1.98592,6.538017 2.151874,6.970487 0.03798,0.09896 0.0083,0.179937 -0.06594,0.179937 -0.07425,0 -0.419055,-0.491592 -0.766241,-1.092426 z"
     id="path4678"
     inkscape:connector-curvature="0" /><path
     style="opacity:1;fill:#ffc518;fill-opacity:1;stroke:#001000;stroke-width:0.01324153;stroke-miterlimit:4;stroke-dasharray:none;stroke-opacity:1"
     d="m 26.354647,53.637579 v -4.031277 l 1.622087,-0.86 c 2.310523,-1.224995 2.131045,-1.24607 1.740612,0.204393 -0.54596,2.028255 -1.772869,6.044485 -2.268892,7.427112 -0.4097,1.142011 -0.499568,1.291049 -0.778487,1.291049 h -0.31532 z"
     id="path4680"
     inkscape:connector-curvature="0" /><path
     style="opacity:1;fill:#ffc518;fill-opacity:1;stroke:#001000;stroke-width:0.01324153;stroke-miterlimit:4;stroke-dasharray:none;stroke-opacity:1"
     d="m 32.313333,56.168688 c 0,-0.03258 0.640559,-1.307711 1.423464,-2.833633 l 1.423464,-2.774405 0.272553,0.40924 0.272552,0.409241 -1.557741,2.338934 c -1.360726,2.043118 -1.834292,2.675805 -1.834292,2.450623 z"
     id="path4682"
     inkscape:connector-curvature="0" /><path
     style="opacity:1;fill:#ffc518;fill-opacity:1;stroke:#001000;stroke-width:0.01324153;stroke-miterlimit:4;stroke-dasharray:none;stroke-opacity:1"
     d="m 18.37129,56.402553 c -0.509801,-0.568456 -3.200093,-4.725598 -3.241722,-5.009233 -0.01514,-0.103169 0.02966,-0.18758 0.09956,-0.18758 0.0699,0 0.207116,-0.190323 0.304924,-0.422941 l 0.177834,-0.422941 0.559316,1.118121 c 0.307623,0.614967 1.063832,2.086408 1.680463,3.269869 0.616631,1.183461 1.063601,2.151748 0.993265,2.151748 -0.07034,0 -0.328473,-0.22367 -0.57364,-0.497043 z"
     id="path4684"
     inkscape:connector-curvature="0" /><path
     style="opacity:1;fill:#ffc518;fill-opacity:1;stroke:#001000;stroke-width:0.01324153;stroke-miterlimit:4;stroke-dasharray:none;stroke-opacity:1"
     d="m 22.71851,55.476132 c -0.890912,-2.798016 -2.353998,-7.87904 -2.287829,-7.945209 0.02572,-0.02572 0.977156,0.417278 2.114296,0.984447 l 2.067525,1.031217 v 4.139958 4.139958 h -0.572806 -0.572807 z"
     id="path4686"
     inkscape:connector-curvature="0" /><path
     style="opacity:1;fill:#ffc518;fill-opacity:1;stroke:#001000;stroke-width:0.01324153;stroke-miterlimit:4;stroke-dasharray:none;stroke-opacity:1"
     d="m 28.849791,57.584865 c 0,-0.132901 0.151317,-0.684079 0.33626,-1.224841 0.302178,-0.883546 1.419545,-4.536902 2.181513,-7.132698 l 0.289224,-0.9853 0.351003,0.720469 c 0.30451,0.625035 0.407198,0.725905 0.775235,0.761507 0.233327,0.02257 0.546158,-0.02422 0.69518,-0.103971 0.149022,-0.07975 0.270949,-0.102757 0.270949,-0.05112 0,0.157816 -2.366779,4.785663 -3.275026,6.403776 -0.470104,0.837527 -0.949904,1.597259 -1.066222,1.688295 -0.304457,0.23828 -0.558116,0.203685 -0.558116,-0.07612 z"
     id="path4688"
     inkscape:connector-curvature="0" /><path
     style="opacity:1;fill:#4ebdc7;fill-opacity:1;stroke:#001000;stroke-width:0.01324153;stroke-miterlimit:4;stroke-dasharray:none;stroke-opacity:1"
     d="m 21.283112,57.131086 c -0.89096,-1.431778 -3.881998,-7.232673 -3.781239,-7.333431 0.03074,-0.03074 0.198227,-0.0022 0.372191,0.06332 0.423674,0.159688 0.879617,-0.02791 1.066913,-0.438977 0.08393,-0.184199 0.19232,-0.334907 0.240874,-0.334907 0.04855,0 0.37554,0.968287 0.726635,2.151748 0.351095,1.183461 0.927467,3.072393 1.280826,4.197627 0.353358,1.125233 0.64247,2.09352 0.64247,2.151748 0,0.25156 -0.22359,0.06527 -0.54867,-0.457133 z"
     id="path4690"
     inkscape:connector-curvature="0" /><path
     style="opacity:1;fill:#4ebdc7;fill-opacity:1;stroke:#001000;stroke-width:0.01324153;stroke-miterlimit:4;stroke-dasharray:none;stroke-opacity:1"
     d="m 26.209002,43.161513 0.0075,-4.60143 3.402176,-2.934121 c 1.871197,-1.613767 3.461763,-2.936858 3.534591,-2.940202 0.07469,-0.0034 0.117511,0.260096 0.09822,0.604541 -0.03891,0.694802 -1.399479,7.520776 -2.04968,10.283209 l -0.432017,1.835462 -2.234028,1.176985 c -1.228716,0.647343 -2.256589,1.176986 -2.284164,1.176986 -0.02757,0 -0.04675,-2.070643 -0.04262,-4.60143 z m 1.315237,2.28585 c 0.232158,-0.279734 0.06658,-0.597555 -0.311316,-0.597555 -0.368763,0 -0.557618,0.344935 -0.335432,0.612652 0.196393,0.236639 0.442595,0.230891 0.646748,-0.0151 z m -0.02508,-1.286114 c 0.19005,-0.190051 0.224548,-5.226251 0.03782,-5.521149 -0.06436,-0.101648 -0.212417,-0.148209 -0.32901,-0.103468 -0.185,0.07099 -0.211987,0.433068 -0.211987,2.844154 0,2.972277 0.04771,3.235928 0.503177,2.780463 z"
     id="path4692"
     inkscape:connector-curvature="0" /><path
     style="opacity:1;fill:#4ebdc7;fill-opacity:1;stroke:#001000;stroke-width:0.01324153;stroke-miterlimit:4;stroke-dasharray:none;stroke-opacity:1"
     d="m 32.295996,56.158731 c 0.0019,-0.06591 0.646128,-1.356257 1.431673,-2.867441 l 1.428265,-2.747606 0.301847,0.408269 0.301846,0.40827 -1.483278,2.232706 c -1.371392,2.064288 -1.988844,2.864276 -1.980353,2.565802 z"
     id="path4698"
     inkscape:connector-curvature="0" /><path
     style="opacity:1;fill:#4ebdc7;fill-opacity:1;stroke:#001000;stroke-width:0.01324153;stroke-miterlimit:4;stroke-dasharray:none;stroke-opacity:1"
     d="M 26.201486,12.937732 V 1.5500197 l 1.291048,0.00195 c 0.76922,0.00116 1.424851,0.069251 1.622087,0.1684543 0.923104,0.4642938 2.840594,3.7907633 3.702794,6.423624 0.757204,2.312239 1.353861,5.55268 1.484815,8.064032 l 0.04279,0.820669 -3.999971,3.648346 c -2.199983,2.006591 -4.03228,3.648346 -4.071769,3.648346 -0.03949,0 -0.0718,-5.12447 -0.0718,-11.387711 z"
     id="path4700"
     inkscape:connector-curvature="0" /><path
     style="opacity:1;fill:#ff4f3c;fill-opacity:1;stroke:#001000;stroke-width:0.01324153;stroke-miterlimit:4;stroke-dasharray:none;stroke-opacity:1"
     d="M 3.4656637,22.04128 C 3.0179278,21.367618 2.4903705,20.490286 2.2933141,20.091655 L 1.9350297,19.366871 2.1657208,18.370257 C 2.9090157,15.159131 4.7906927,11.649105 7.2235107,8.9356014 8.2520771,7.7883644 9.4831255,6.6360382 9.5783937,6.7313065 9.6057429,6.7586556 9.3952381,7.2575898 9.1106053,7.8400492 7.7762679,10.570575 7.0504508,13.361723 6.7359748,16.97175 l -0.1380145,1.584336 -1.0735006,2.355018 c -0.5904253,1.29526 -1.1120273,2.355017 -1.1591155,2.355017 -0.047088,0 -0.4519445,-0.551178 -0.8996805,-1.224841 z"
     id="path4702"
     inkscape:connector-curvature="0" /><path
     style="opacity:1;fill:#ff4f3c;fill-opacity:1;stroke:#001000;stroke-width:0.01324153;stroke-miterlimit:4;stroke-dasharray:none;stroke-opacity:1"
     d="M 23.675178,35.611542 C 23.196064,35.194045 21.486344,33.703477 19.8758,32.29917 18.265257,30.894863 16.915408,29.643538 16.876136,29.51845 16.694762,28.940741 16.387748,24.889683 16.312051,22.07535 l -0.08367,-3.110793 0.517537,0.450484 c 0.284646,0.247766 2.171073,1.942796 4.192061,3.766733 l 3.674523,3.316249 v 4.938604 c 0,2.716233 -0.0149,4.937569 -0.0331,4.936303 -0.01821,-0.0013 -0.425107,-0.34389 -0.904221,-0.761388 z"
     id="path4704"
     inkscape:connector-curvature="0" /><path
     style="opacity:1;fill:#ff4f3c;fill-opacity:1;stroke:#001000;stroke-width:0.01324153;stroke-miterlimit:4;stroke-dasharray:none;stroke-opacity:1"
     d="m 38.607015,21.710798 c -0.25223,-0.419069 -0.932814,-1.602161 -1.51241,-2.629094 L 36.040796,17.214554 35.94884,15.83753 C 35.615034,10.838857 34.252772,6.028564 32.291521,2.9231432 31.957248,2.3938586 31.82502,2.0796807 31.936535,2.0796807 c 0.348335,0 2.991694,0.7922308 3.724101,1.116136 1.885679,0.8339365 4.226211,3.6873583 5.438416,6.6301564 0.842199,2.0445559 1.395388,4.5322649 1.590031,7.1504239 l 0.0886,1.191737 -0.665669,0.942922 c -0.651601,0.922996 -2.365409,2.866424 -2.818043,3.195611 -0.201098,0.146253 -0.283093,0.07513 -0.686955,-0.595869 z"
     id="path4706"
     inkscape:connector-curvature="0" /><path
     style="opacity:1;fill:#5bcf8f;fill-opacity:1;stroke:#001000;stroke-width:0.01324153;stroke-miterlimit:4;stroke-dasharray:none;stroke-opacity:1"
     d="M 10.659661,21.247608 C 10.086366,20.646324 9.326633,19.742807 8.9713661,19.239793 8.3322676,18.33491 8.3254262,18.314326 8.3254262,17.29625 c 0,-3.600945 1.2916877,-7.775021 3.2685238,-10.5622001 1.002363,-1.4132516 2.721032,-3.0359519 3.67237,-3.4673092 0.799071,-0.3623162 3.002253,-1.0546448 3.356173,-1.0546448 0.123158,0 0.06983,0.1750183 -0.171465,0.5627649 -0.713996,1.147331 -1.905032,3.7856524 -2.356855,5.2207804 -0.775156,2.4621338 -1.271081,5.2997498 -1.488554,8.5173018 l -0.09397,1.390361 -1.267561,2.217955 c -0.697158,1.219876 -1.329324,2.218325 -1.404814,2.218775 -0.07549,3.97e-4 -0.606314,-0.491141 -1.179609,-1.092426 z"
     id="path4708"
     inkscape:connector-curvature="0" /><path
     style="opacity:1;fill:#5bcf8f;fill-opacity:1;stroke:#001000;stroke-width:0.01324153;stroke-miterlimit:4;stroke-dasharray:none;stroke-opacity:1"
     d="m 26.232966,31.589282 0.03473,-4.941517 4.104873,-3.683772 4.104873,-3.683772 0.04341,0.701901 c 0.07939,1.283605 -0.386005,7.489561 -0.715624,9.542702 -0.07306,0.455061 -0.39826,0.77908 -3.721173,3.707627 -2.002616,1.764943 -3.696176,3.229094 -3.763467,3.253668 -0.07386,0.02697 -0.108584,-1.91381 -0.08762,-4.896837 z"
     id="path4710"
     inkscape:connector-curvature="0" /><path
     style="opacity:1;fill:#5bcf8f;fill-opacity:1;stroke:#001000;stroke-width:0.01324153;stroke-miterlimit:4;stroke-dasharray:none;stroke-opacity:1"
     d="m 26.336843,53.622318 0.0029,-4.071769 1.724062,-0.898153 c 0.948234,-0.493984 1.776732,-0.865601 1.841108,-0.825815 0.140353,0.08674 -0.379323,2.066579 -1.471532,5.606166 -1.121589,3.634802 -1.383677,4.261341 -1.782565,4.261341 h -0.316957 z"
     id="path4712"
     inkscape:connector-curvature="0" /><path
     style="opacity:1;fill:#5bcf8f;fill-opacity:1;stroke:#001000;stroke-width:0.01324153;stroke-miterlimit:4;stroke-dasharray:none;stroke-opacity:1"
     d="M 45.850397,22.107488 C 44.049826,18.188729 44.178488,18.565317 44.058291,16.862056 43.790189,13.06287 42.912163,9.7120048 41.54321,7.2635956 41.325316,6.8738855 41.176699,6.5253714 41.21295,6.4891198 c 0.108007,-0.1080063 2.435518,2.1998547 3.298493,3.2706456 1.933518,2.3991326 3.271723,5.0284426 4.06869,7.9941796 0.361085,1.343698 0.373308,1.465838 0.183433,1.833016 -0.111887,0.216364 -0.225803,0.371017 -0.253148,0.343672 -0.02734,-0.02734 -0.175155,-0.613854 -0.328469,-1.303354 -0.410394,-1.845674 -1.198098,-4.119432 -1.548495,-4.469829 -0.246201,-0.2462 -0.352944,-0.27639 -0.568794,-0.160871 -0.372009,0.199093 -0.335742,0.509054 0.270314,2.310251 0.504916,1.500607 1.185367,4.441936 1.185367,5.123882 0,0.343564 -0.85109,1.702994 -1.066183,1.702994 -0.07273,0 -0.344425,-0.461798 -0.603761,-1.026218 z"
     id="path4714"
     inkscape:connector-curvature="0" /><path
     style="opacity:1;fill:#ff4f3c;fill-opacity:1;stroke:#001000;stroke-width:0.01324153;stroke-miterlimit:4;stroke-dasharray:none;stroke-opacity:1"
     d="m 23.307631,57.396153 c -0.07352,-0.236692 -0.345451,-1.097029 -0.604291,-1.911859 -0.744224,-2.342824 -2.334091,-7.891939 -2.27736,-7.94867 0.02831,-0.02831 0.981857,0.412577 2.118997,0.979746 l 2.067525,1.031217 v 4.139958 4.139958 h -0.585599 c -0.54498,0 -0.594872,-0.02985 -0.719272,-0.43035 z"
     id="path4716"
     inkscape:connector-curvature="0" /><path
     style="opacity:1;fill:#4ebdc7;fill-opacity:1;stroke:#001000;stroke-width:0.01324153;stroke-miterlimit:4;stroke-dasharray:none;stroke-opacity:1"
     d="M 12.264054,34.207776 10.456765,32.30515 10.05415,30.710392 C 9.8327121,29.833275 9.477629,28.231499 9.2650766,27.150888 8.916543,25.378954 8.7754572,24.410719 8.5221148,22.052136 l -0.080617,-0.750532 1.5830302,1.572059 c 1.592377,1.581342 2.026931,1.857811 2.512034,1.598192 0.14484,-0.07752 0.641981,-0.797154 1.104759,-1.599195 0.462778,-0.802042 0.87704,-1.458729 0.920582,-1.459305 0.04354,-5.76e-4 0.119649,0.788479 0.169126,1.753455 0.08476,1.653045 0.24433,3.398153 0.620538,6.786282 l 0.161733,1.456568 -0.633136,2.35037 c -0.348225,1.292704 -0.672665,2.350371 -0.720978,2.350371 -0.04831,0 -0.901122,-0.856181 -1.895132,-1.902625 z"
     id="path4718"
     inkscape:connector-curvature="0" /><path
     style="opacity:1;fill:#ffc518;fill-opacity:1;stroke:#001000;stroke-width:0.01324153;stroke-miterlimit:4;stroke-dasharray:none;stroke-opacity:1"
     d="M 7.1432532,36.832386 C 5.2447744,35.239529 4.2448196,34.166039 3.7597436,33.200058 3.1819725,32.049483 2.4458994,29.735378 2.114774,28.028516 1.6423166,25.593125 1.4160967,22.583766 1.6926329,22.412858 c 0.066212,-0.04092 0.5440908,0.456917 1.0619538,1.106308 0.5178629,0.64939 1.1556554,1.36868 1.4173166,1.598422 L 4.6476509,25.5353 4.9629443,25.239097 c 0.1734114,-0.162911 0.6147831,-0.879247 0.9808262,-1.591858 0.3660429,-0.71261 0.7209218,-1.329888 0.7886198,-1.371727 0.067698,-0.04184 0.1554497,0.119241 0.195004,0.357957 0.373992,2.257102 0.9672914,5.388102 1.4234769,7.512069 l 0.5532561,2.57592 -0.1609164,2.289568 c -0.088504,1.259261 -0.2078676,2.416488 -0.2652523,2.571614 -0.096884,0.261902 -0.1922117,0.208317 -1.3347054,-0.750254 z"
     id="path4720"
     inkscape:connector-curvature="0" /><path
     style="opacity:1;fill:#ffc518;fill-opacity:1;stroke:#001000;stroke-width:0.01324153;stroke-miterlimit:4;stroke-dasharray:none;stroke-opacity:1"
     d="m 22.295236,46.549592 c -1.238083,-0.664305 -2.295976,-1.273826 -2.350874,-1.354494 -0.288888,-0.424496 -1.341018,-4.963425 -2.136538,-9.217112 -0.623835,-3.335673 -0.672871,-3.707627 -0.488794,-3.707627 0.08352,0 1.758716,1.380976 3.722662,3.068835 l 3.57081,3.068836 v 4.677457 c 0,2.572601 -0.0149,4.676213 -0.0331,4.674694 -0.01821,-0.0015 -1.046081,-0.546284 -2.284163,-1.210589 z"
     id="path4722"
     inkscape:connector-curvature="0" /><path
     style="opacity:1;fill:#ffc518;fill-opacity:1;stroke:#001000;stroke-width:0.01324153;stroke-miterlimit:4;stroke-dasharray:none;stroke-opacity:1"
     d="m 20.441422,20.61725 c -3.487966,-3.148927 -4.111191,-3.766759 -4.146912,-4.111032 -0.06033,-0.581476 0.322222,-3.74079 0.644402,-5.321755 0.347335,-1.7043978 1.069401,-3.9474615 1.734807,-5.389089 0.601364,-1.3028787 2.117212,-3.6349293 2.544867,-3.9151396 0.191368,-0.1253886 0.84139,-0.2247907 1.844703,-0.2820941 l 1.549213,-0.088482 V 12.917551 c 0,6.274341 -0.0149,11.407369 -0.0331,11.406728 -0.01821,-6.62e-4 -1.880297,-1.668802 -4.137977,-3.707029 z"
     id="path4724"
     inkscape:connector-curvature="0" /></svg>