<?xml version="1.0" encoding="UTF-8" standalone="no"?>
<svg
   xmlns:dc="http://purl.org/dc/elements/1.1/"
   xmlns:cc="http://creativecommons.org/ns#"
   xmlns:rdf="http://www.w3.org/1999/02/22-rdf-syntax-ns#"
   xmlns:svg="http://www.w3.org/2000/svg"
   xmlns="http://www.w3.org/2000/svg"
   xmlns:xlink="http://www.w3.org/1999/xlink"
   xmlns:sodipodi="http://sodipodi.sourceforge.net/DTD/sodipodi-0.dtd"
   xmlns:inkscape="http://www.inkscape.org/namespaces/inkscape"
   version="1.1"
   x="0px"
   y="0px"
   viewBox="0 0 122.90057 122.90057"
   xml:space="preserve"
   id="svg151"
   sodipodi:docname="bienfaiteur3.svg"
   width="122.90057"
   height="122.90057"
   inkscape:version="0.92.1 unknown"><metadata
     id="metadata157"><rdf:RDF><cc:Work
         rdf:about=""><dc:format>image/svg+xml</dc:format><dc:type
           rdf:resource="http://purl.org/dc/dcmitype/StillImage" /><dc:title></dc:title></cc:Work></rdf:RDF></metadata><defs
     id="defs155"><linearGradient
       inkscape:collect="always"
       id="linearGradient4784"><stop
         style="stop-color:#35995f;stop-opacity:1;"
         offset="0"
         id="stop4780" /><stop
         style="stop-color:#356f5f;stop-opacity:0"
         offset="1"
         id="stop4782" /></linearGradient><radialGradient
       inkscape:collect="always"
       xlink:href="#linearGradient4784"
       id="radialGradient4786"
       cx="27.67429"
       cy="43.614117"
       fx="27.67429"
       fy="43.614117"
       r="60"
       gradientUnits="userSpaceOnUse"
       gradientTransform="matrix(2.9283353,-0.00541619,0.00489025,2.6439834,-53.578595,-71.550994)" /></defs><sodipodi:namedview
     pagecolor="#ffffff"
     bordercolor="#666666"
     borderopacity="1"
     objecttolerance="10"
     gridtolerance="10"
     guidetolerance="10"
     inkscape:pageopacity="0"
     inkscape:pageshadow="2"
     inkscape:window-width="1875"
     inkscape:window-height="1056"
     id="namedview153"
     showgrid="false"
     inkscape:zoom="2.5851824"
     inkscape:cx="64.04154"
     inkscape:cy="48.210115"
     inkscape:window-x="1411"
     inkscape:window-y="24"
     inkscape:window-maximized="1"
     inkscape:current-layer="layer4"
     showguides="false" /><g
     inkscape:groupmode="layer"
     id="layer1"
     inkscape:label="fond"
     style="display:inline"
     transform="translate(33.775997,17.83617)"
     sodipodi:insensitive="true"><circle
       style="opacity:1;fill:#5bcf8f;fill-opacity:1;stroke:#4b6e5f;stroke-width:2;stroke-miterlimit:4;stroke-dasharray:none;stroke-opacity:1"
       id="path3963"
       cx="27.67429"
       cy="43.614117"
       r="59.950287" /></g><g
     inkscape:groupmode="layer"
     id="layer3"
     inkscape:label="cocarde" /><g
     inkscape:groupmode="layer"
     id="layer4"
     inkscape:label="numéro"><path
       style="display:inline;stroke-width:0.46723962"
       d="m 120.01511,17.4621 1.54189,-1.915684 -2.24274,-1.027924 1.16809,-2.149304 -2.38292,-0.607413 0.79431,-2.3361959 -2.42965,-0.186896 0.3738,-2.429645 -2.42965,0.233619 -0.0935,-2.47637 -2.3362,0.70086 -0.51397,-2.382923 -2.19602,1.074652 -0.93448,-2.289474 -1.9624,1.448442 -1.355,-2.055853 -1.68205,1.822233 -1.68206,-1.822233 -1.30826,2.055853 -1.962407,-1.448442 -0.93447,2.289474 -2.19603,-1.074652 -0.56069,2.382923 -2.38292,-0.70086 -0.0935,2.47637 -2.42965,-0.233619 0.37379,2.429645 -2.42964,0.186896 0.7943,2.3361959 -2.38292,0.607413 1.1681,2.149304 -2.19602,1.027924 1.54189,1.915684 -2.00913,1.401718 1.86896,1.588614 -1.72879,1.775512 2.10258,1.214822 -1.355,2.055856 2.28948,0.84103 -0.98121,2.242751 2.42965,0.420514 -0.56069,2.382922 2.47637,-0.04671 -0.14017,2.429644 2.42964,-0.467238 0.28035,2.429645 2.28947,-0.887754 0.74759,2.336195 2.10258,-1.261545 1.121357,2.196026 1.82224,-1.635337 1.49516,1.962405 1.49517,-1.915684 1.82224,1.63534 1.12139,-2.196025 2.10255,1.261545 0.7476,-2.336198 2.28947,0.887756 0.28035,-2.429646 2.42964,0.46724 -0.14018,-2.476369 2.47638,0.04671 -0.56069,-2.382922 2.42964,-0.420514 -0.9812,-2.242751 2.28949,-0.84103 -1.35501,-2.055856 2.10258,-1.214822 -1.72878,-1.775512 1.86894,-1.588614 z m -16.68046,17.054245 c -8.129947,0 -14.764757,-6.634803 -14.764757,-14.764771 0,-8.12997 6.63481,-14.7647709 14.764757,-14.7647709 8.12997,0 14.76478,6.6348009 14.76478,14.7647709 0,8.129968 -6.63481,14.764771 -14.76478,14.764771 z"
       id="path2"
       inkscape:connector-curvature="0" /><path
       style="display:inline;fill:#ffde4c;fill-opacity:1;stroke-width:0.46723962"
       d="m 103.14775,6.3885211 c -7.429087,0 -13.456477,6.0273909 -13.456477,13.4564999 0,7.42911 6.02739,13.456501 13.456477,13.456501 7.42912,0 13.4565,-6.074116 13.4565,-13.503224 0,-7.42911 -6.02738,-13.4097769 -13.4565,-13.4097769 z m 0,25.8850739 c -6.868397,0 -12.475277,-5.606875 -12.475277,-12.475297 0,-6.868423 5.60688,-12.4752979 12.475277,-12.4752979 6.86843,0 12.47532,5.6068749 12.47532,12.4752979 0,6.868422 -5.60689,12.475297 -12.47532,12.475297 z"
       id="path4"
       inkscape:connector-curvature="0" /><path
       style="display:inline;opacity:1;fill:#ffde4c;fill-opacity:1;stroke:#edcd00;stroke-width:0.86142999;stroke-miterlimit:4;stroke-dasharray:none;stroke-opacity:1"
       d="m 103.11719,38.219317 c -1.6e-4,-0.07107 -0.30076,-0.477451 -0.66777,-0.903069 l -0.66731,-0.773861 -0.79283,0.730787 c -0.43602,0.401931 -0.8555,0.730786 -0.93213,0.730786 -0.0766,0 -0.369107,-0.465057 -0.649917,-1.033462 l -0.51059,-1.033462 -0.99927,0.602747 c -0.54959,0.331511 -1.02783,0.602747 -1.06274,0.602747 -0.0349,0 -0.23116,-0.503935 -0.43613,-1.11986 -0.20497,-0.615922 -0.39041,-1.119857 -0.41209,-1.119857 -0.0217,0 -0.52334,0.189642 -1.11479,0.421428 -1.20562,0.472478 -1.1478,0.516204 -1.31763,-0.99645 -0.10336,-0.92057 -0.14453,-0.998212 -0.48628,-0.916864 -0.20535,0.04887 -0.74919,0.143138 -1.20854,0.209463 l -0.83518,0.120595 0.0599,-1.185015 0.0599,-1.185016 -1.18868,0.06009 -1.18868,0.06009 0.13312,-0.835371 c 0.27692,-1.737668 0.30572,-1.678454 -0.89998,-1.850059 -0.59224,-0.08429 -1.07679,-0.217755 -1.07679,-0.296587 0,-0.07884 0.19382,-0.581598 0.43071,-1.117255 0.2369,-0.535659 0.43072,-0.992653 0.43072,-1.015545 0,-0.0229 -0.48456,-0.216572 -1.07679,-0.430404 -0.59223,-0.213827 -1.1026,-0.411548 -1.13415,-0.439373 -0.0315,-0.02783 0.22042,-0.463076 0.55993,-0.96722 0.33951,-0.504144 0.61729,-0.975144 0.61729,-1.046667 0,-0.07152 -0.4264,-0.37069 -0.94757,-0.664818 -0.52116,-0.294127 -0.94757,-0.582859 -0.94757,-0.641628 0,-0.05877 0.36826,-0.482607 0.81836,-0.941866 0.71539,-0.72996 0.78388,-0.860763 0.54436,-1.039634 -0.5681,-0.42425 -1.56878,-1.347593 -1.51003,-1.393323 0.0336,-0.02618 0.42547,-0.293753 0.87073,-0.594605 0.44527,-0.300855 0.85134,-0.614597 0.9024,-0.697205 0.0511,-0.08262 -0.22574,-0.550301 -0.6151,-1.039313 -0.38936,-0.489014 -0.67915,-0.915034 -0.64397,-0.946708 0.0352,-0.03167 0.49037,-0.270064 1.01153,-0.529757 0.52117,-0.259693 0.96666,-0.488386 0.98999,-0.508209 0.0233,-0.01983 -0.20025,-0.484067 -0.49683,-1.03165 -0.61385,-1.133352 -0.60706,-1.145427 0.82552,-1.466023 0.77343,-0.173088 0.92499,-0.264058 0.82982,-0.498086 -0.064,-0.157479 -0.25686,-0.686057 -0.42847,-1.174618 l -0.31203,-0.8882889 0.37279,-0.1 c 0.20503,-0.055 0.74853,-0.101056 1.20778,-0.102354 l 0.83499,-0.0024 -0.10811,-1.196425 -0.10811,-1.196425 1.21134,0.101555 1.21134,0.101555 v -1.230958 c 0,-0.677045 0.0194,-1.22999 0.0431,-1.228768 0.0237,0.0012 0.53486,0.156383 1.13594,0.344801 0.60108,0.188417 1.1527,0.305598 1.22583,0.260402 0.0731,-0.0452 0.22485,-0.549236 0.33716,-1.120087 0.1123,-0.570852 0.2804,-1.037912 0.37354,-1.037912 0.0931,0 0.55183,0.193822 1.01932,0.430715 0.46748,0.236893 0.91109,0.430715 0.98579,0.430715 0.0747,0 0.31619,-0.465172 0.53665,-1.033716 0.22046,-0.568544 0.46088,-1.033716 0.53427,-1.033716 0.0734,0 0.48883,0.271351 0.92318,0.603001 0.43435,0.331651 0.855517,0.603001 0.935947,0.603001 0.0803,0 0.41002,-0.435313 0.73249,-0.967363 l 0.58629,-0.967363 0.86408,0.905813 0.8641,0.905814 0.82007,-0.89189 0.82011,-0.89189 0.63305,0.953439 c 0.34818,0.524392 0.68596,0.95344 0.75062,0.95344 0.0646,0 0.49922,-0.27135 0.9657,-0.603001 0.46648,-0.33165 0.88848,-0.603001 0.93781,-0.603001 0.0492,0 0.27443,0.465172 0.50026,1.033716 0.22582,0.568544 0.47903,1.033716 0.56268,1.033716 0.0837,0 0.53457,-0.193822 1.00205,-0.430715 0.4675,-0.236893 0.91587,-0.430715 0.99639,-0.430715 0.0804,0 0.24776,0.50993 0.37165,1.133179 0.25066,1.261076 0.0992,1.202542 1.77618,0.685952 l 0.81837,-0.252076 v 1.220911 1.220911 l 1.20601,-0.08629 c 1.36294,-0.09752 1.31774,-0.159551 1.05311,1.445749 -0.13029,0.790379 -0.12445,0.804328 0.37638,0.904502 0.27979,0.05596 0.80913,0.101738 1.17632,0.101738 0.36717,0 0.66762,0.06539 0.66762,0.145316 0,0.07992 -0.15507,0.5959949 -0.34459,1.1468299 -0.1895,0.550833 -0.34457,1.019535 -0.34457,1.041556 0,0.02202 0.50394,0.176449 1.11987,0.343171 0.61591,0.166722 1.11845,0.349771 1.11673,0.406776 -10e-4,0.057 -0.2343,0.523055 -0.51685,1.03567 -0.28256,0.512615 -0.51375,0.954058 -0.51375,0.980984 0,0.02692 0.46518,0.257712 1.03372,0.512859 0.56855,0.255149 1.03371,0.520718 1.03371,0.590157 0,0.06944 -0.31244,0.518686 -0.69435,0.998327 l -0.69435,0.872073 0.81529,0.571791 c 0.44841,0.314486 0.89656,0.631513 0.99585,0.704507 0.11561,0.08502 0.0429,0.248439 -0.20265,0.454749 -0.21077,0.177119 -0.6295,0.529263 -0.9305,0.782543 l -0.54728,0.460507 0.80129,0.813521 c 0.4407,0.447435 0.80129,0.863315 0.80129,0.924173 0,0.06086 -0.4264,0.354617 -0.94759,0.652798 -0.52115,0.298182 -0.94756,0.573716 -0.94756,0.612301 0,0.03859 0.27784,0.504493 0.61744,1.035355 0.33957,0.53086 0.59154,0.984554 0.55992,1.008209 -0.0315,0.02367 -0.53763,0.218846 -1.12447,0.433759 l -1.06695,0.390752 0.42636,0.96404 c 0.23448,0.53022 0.39071,1.056863 0.34719,1.170311 -0.0437,0.113461 -0.54994,0.260913 -1.12532,0.327694 -0.61062,0.07088 -1.04363,0.20404 -1.04004,0.319863 0.003,0.109145 0.11263,0.644231 0.24288,1.189085 l 0.23676,0.990645 h -1.20929 -1.2093 l 0.0652,1.292145 c 0.0359,0.71068 0.0185,1.292146 -0.0385,1.292146 -0.0571,0 -0.55045,-0.08971 -1.09632,-0.199325 -1.15774,-0.232506 -1.29623,-0.129046 -1.30467,0.974611 -0.008,1.118211 -0.12911,1.178704 -1.37527,0.690332 -0.60302,-0.236323 -1.10773,-0.410797 -1.12157,-0.38772 -0.0138,0.02307 -0.16774,0.526514 -0.34202,1.118748 -0.17427,0.592233 -0.38095,1.076786 -0.45928,1.076786 -0.0784,0 -0.52042,-0.232586 -0.98242,-0.516856 -0.46201,-0.284274 -0.91407,-0.51686 -1.00462,-0.51686 -0.0906,0 -0.38486,0.460781 -0.65404,1.02396 l -0.4894,1.023957 -0.92786,-0.79269 c -0.51763,-0.442235 -0.98724,-0.723555 -1.06218,-0.636314 -0.0739,0.086 -0.38724,0.485871 -0.69633,0.888589 -0.5173,0.674001 -0.87694,0.920962 -0.87807,0.603002 z m 3.51109,-4.12073 c 3.12828,-0.705105 6.55727,-2.911584 8.49255,-5.464764 0.93104,-1.22829 2.15031,-3.710243 2.54865,-5.188028 0.47755,-1.771721 0.53053,-4.718968 0.12043,-6.694855 -1.12379,-5.413299 -5.41805,-9.9211179 -10.79576,-11.3326319 -1.88774,-0.495485 -5.16058,-0.534388 -6.97759,-0.08294 -1.563817,0.388546 -3.722267,1.364093 -5.123537,2.315681 -2.23291,1.516343 -4.6658,4.8151299 -5.59095,7.5808519 -0.53876,1.610628 -0.55763,1.763203 -0.55763,4.509747 0,2.739209 0.02,2.902311 0.54954,4.479433 1.83935,5.478158 6.50138,9.371264 12.174997,10.166924 1.32271,0.185494 3.62548,0.05633 5.15935,-0.289417 z"
       id="path5033"
       inkscape:connector-curvature="0" /><path
       style="display:inline;opacity:1;fill:#820000;fill-opacity:1;stroke:#edcd00;stroke-width:0.3045615;stroke-miterlimit:4;stroke-dasharray:none;stroke-opacity:1"
       d="m 102.06399,34.01412 c -1.94496,-0.171397 -4.195887,-0.91111 -5.929857,-1.948708 -2.00353,-1.198905 -3.74149,-2.899489 -4.93489,-4.828764 -0.90234,-1.458732 -1.73975,-3.538013 -1.9289,-4.789387 -0.0998,-0.660523 -0.10009,-4.758265 -3.2e-4,-5.421194 0.11741,-0.780301 0.62472,-2.23407 1.13715,-3.258691 1.02903,-2.0576 2.81769,-4.3215309 4.28931,-5.4290529 1.20466,-0.90661 3.00434,-1.810525 4.68738,-2.354298 1.301937,-0.420649 1.707297,-0.469387 3.898377,-0.468707 1.71091,5.31e-4 1.99936,0.01514 2.66309,0.134909 5.24069,0.945632 9.6589,5.0050129 11.19527,10.2860389 0.64578,2.219707 0.63095,5.853739 -0.0319,7.832386 -0.40115,1.197327 -1.25408,2.966095 -1.93295,4.008435 -1.22211,1.876415 -3.2803,3.61192 -5.71087,4.815451 -1.95785,0.969476 -3.60997,1.356169 -6.06076,1.418588 -0.58628,0.01494 -1.1893,0.01628 -1.34007,0.003 z m 2.98231,-0.848631 c 2.9355,-0.409431 5.76641,-1.879736 7.84209,-4.072964 1.93611,-2.04577 3.15127,-4.554211 3.58903,-7.408839 0.14665,-0.956254 0.14665,-2.815963 0,-3.772219 -0.45652,-2.976966 -1.69963,-5.443231 -3.81121,-7.561314 -2.47883,-2.4864589 -5.54611,-3.8204379 -9.05003,-3.9359259 -3.908747,-0.128829 -7.437037,1.303025 -10.162657,4.1242119 -2.43879,2.524294 -3.75205,5.78005 -3.75423,9.307222 -0.003,4.5145 2.23088,8.681321 5.99937,11.191569 1.55827,1.037992 3.13821,1.681248 5.005497,2.037936 1.35116,0.258098 2.90719,0.290466 4.34214,0.09033 z"
       id="path5039"
       inkscape:connector-curvature="0" /><path
       style="display:inline;opacity:1;fill:#ffde4c;fill-opacity:1;stroke:#edcd00;stroke-width:0.3045615;stroke-miterlimit:4;stroke-dasharray:none;stroke-opacity:1"
       d="M 101.30511,32.124129 C 95.756973,31.27376 91.461773,26.852365 90.770403,21.279934 c -0.0944,-0.760668 -0.0787,-2.390007 0.0306,-3.173453 0.66396,-4.760416 4.02205,-8.7403879 8.59502,-10.1867179 3.069837,-0.970929 6.304817,-0.731021 9.194797,0.681891 3.83313,1.8740309 6.44339,5.5465019 6.93299,9.7542529 0.7834,6.73304 -4.02444,12.916775 -10.72576,13.795245 -0.94404,0.123745 -2.59249,0.110993 -3.49296,-0.02701 z"
       id="path5041"
       inkscape:connector-curvature="0" /><text
       xml:space="preserve"
       style="font-style:normal;font-weight:normal;font-size:25.28574944px;line-height:39.50898361px;font-family:sans-serif;letter-spacing:0px;word-spacing:0px;display:inline;fill:#820000;fill-opacity:1;stroke:none;stroke-width:1.58035934px;stroke-linecap:butt;stroke-linejoin:miter;stroke-opacity:1"
       x="95.539101"
       y="28.878139"
       id="text5046"><tspan
         sodipodi:role="line"
         id="tspan5044"
         x="95.539101"
         y="28.878139"
         style="fill:#820000;fill-opacity:1;stroke-width:1.58035934px">3</tspan></text>
</g><g
     inkscape:groupmode="layer"
     id="layer2"
     inkscape:label="badge"
     transform="translate(33.775997,17.83617)"
     style="display:inline"
     sodipodi:insensitive="true"><g
       id="g145"
       transform="translate(-21.111456,-7)"><path
         d="M 75.1,31 C 73.5,29.4 70.9,29.4 70.8,29.4 H 61.3 C 65,24.5 66.5,20.3 65.9,17 65.5,14.9 64.3,13.8 63.7,13.4 63.3,11.5 61,11 59.6,11 59.3,11 59.1,11.2 59,11.4 L 55.8,19 c -0.5,0.6 -4.9,6.7 -11.4,8.2 -7.4,1.7 -9.8,7.4 -9.9,7.6 L 21.4,61.6 c -0.4,0.9 -0.4,1.9 0.1,2.8 0.5,0.9 1.4,1.4 2.4,1.4 h 12.2 v 1.8 H 34 c -0.3,0 -0.6,0.2 -0.7,0.6 l -0.6,3.2 h -4.1 c -1.5,0 -2.7,1.2 -2.7,2.7 v 14.6 c 0,0.4 0.3,0.7 0.7,0.7 h 36.8 c 0.4,0 0.7,-0.3 0.7,-0.7 V 74 c 0,-1.5 -1.2,-2.7 -2.7,-2.7 H 57.3 L 56.7,68.1 C 56.6,67.8 56.4,67.5 56,67.5 h -2.5 v -1.8 h 7.9 c 1.5,0 2.8,-0.4 3.9,-1.2 0.6,-0.4 1,-0.9 1.2,-1.3 h 0.6 c 1.5,0 2.7,-1.2 2.7,-2.7 v -2.9 h 1.5 c 1,0 1.8,-0.8 1.8,-1.8 v -5.2 c 1.6,-0.1 2.2,-1.4 2.2,-2.3 v -3.8 c 0,-0.9 -0.3,-1.5 -0.7,-2 0.9,-0.3 1.5,-1.1 1.5,-2 v -6.3 c 0.2,-1.3 -0.2,-2.4 -1,-3.2 z M 59.6,13.6 c 0.8,0.1 1.9,0.4 2.5,1 -0.7,2.2 -1.7,3.7 -2.9,4.2 -0.7,0.3 -1.4,0.2 -1.9,0.1 z m 2.7,0.1 c 0,0 0,0 0,0 -0.7,-0.5 -1.7,-0.8 -2.4,-0.9 l 0.2,-0.4 c 0.7,0.1 2.1,0.4 2.2,1.3 z M 62.8,74 V 88 H 27.4 V 74 c 0,-0.7 0.6,-1.3 1.3,-1.3 h 4.7 23.5 4.7 c 0.7,0 1.2,0.6 1.2,1.3 z M 56.1,71.4 H 34.2 L 34.6,69 h 2.3 16.1 2.6 z m -3.8,-5.1 h -6.5 c -0.2,0 -0.4,0.2 -0.4,0.4 0,0.2 0.2,0.4 0.4,0.4 h 6.5 v 0.5 H 37.6 v -1.8 h 14.8 v 0.5 z m 12.4,-2.9 c -0.8,0.6 -1.9,1 -3.1,1 H 53 36.9 24 c -0.5,0 -1,-0.3 -1.3,-0.7 -0.3,-0.4 -0.3,-1 -0.1,-1.5 L 35.9,35.3 c 0,-0.1 2.2,-5.3 8.9,-6.8 6.3,-1.5 10.7,-6.7 11.9,-8.3 0.4,0.1 0.9,0.3 1.5,0.3 0.5,0 1,-0.1 1.6,-0.3 1.6,-0.7 2.9,-2.4 3.7,-5.1 0.4,0.5 0.9,1.2 1.1,2.3 0.4,2 0,5.7 -4.5,11.6 -0.2,0.3 -0.4,0.5 -0.6,0.7 -0.8,0.7 -3.1,3.3 -6.7,11 0,0 -1.8,3.3 -5.2,4.6 -0.4,0.1 -0.5,0.5 -0.4,0.9 0.1,0.4 0.5,0.5 0.9,0.4 3.8,-1.5 5.8,-5.1 5.9,-5.3 0.8,-1.6 1.5,-3 2.1,-4.2 v 2 c 0,0.9 0.3,1.7 0.8,2.4 -3.5,0.6 -3.5,3 -3.5,5.3 0,1.8 1.2,3.3 2.9,3.7 v 1.9 c 0,1.9 1,3.6 2.6,4.5 0,0 0,0 0,0 V 60 c 0,1.7 1.4,3.1 3.1,3.1 h 3 c -0.1,0.2 -0.2,0.2 -0.3,0.3 z m 3.9,-2.9 c 0,0.7 -0.6,1.3 -1.3,1.3 H 62 C 61,61.8 60.2,61 60.2,60 v -2.4 h 1.3 7.1 z m 2.8,-4.3 h -2.2 -7.8 c -2.1,0 -3.8,-1.7 -3.8,-3.8 v -1.8 h 14.3 v 5.2 c 0,0.2 -0.2,0.4 -0.5,0.4 z m 2.7,-7.9 c 0,0.2 -0.1,0.9 -1.1,0.9 H 57.2 c -1.4,0 -2.5,-1.1 -2.5,-2.5 0,-2.7 0,-4.1 4.1,-4.1 0.1,0 0.1,0 0.2,0 0.1,0 0.2,0 0.3,0 h 13.5 c 0.3,0.1 1.3,0.7 1.3,1.9 z m 0.8,-7.8 c 0,0.4 -0.3,0.8 -0.8,0.8 H 59.3 c -0.5,0 -1,-0.2 -1.4,-0.6 -0.4,-0.4 -0.6,-1 -0.6,-1.7 v -4.4 h 12.4 c 0,0 0.1,0 0.2,0 0.5,0 2,-0.1 2.7,-1.1 0.2,-0.3 0.2,-0.7 -0.1,-1 -0.3,-0.2 -0.7,-0.2 -1,0.1 -0.4,0.5 -1.4,0.5 -1.7,0.5 H 58.2 c 0.9,-1.4 1.6,-2.2 1.9,-2.5 h 10.7 c 0,0 2.1,0 3.3,1.2 0.6,0.6 0.9,1.3 0.9,2.3 v 6.4 z"
         id="path109"
         inkscape:connector-curvature="0" /><path
         d="m 43.6,47 h -9 c -0.9,0 -1.7,0.5 -2.2,1.3 l -5.8,11.2 c -0.3,0.5 -0.3,1.2 0.1,1.7 0.3,0.5 0.9,0.8 1.5,0.8 h 15.1 c 1.3,0 2.4,-1.1 2.4,-2.4 V 49 c -0.1,-1.1 -1,-2 -2.1,-2 z M 38.8,60.6 V 60.4 C 38.8,60.2 38.6,60 38.4,60 38.2,60 38,60.1 38,60.4 v 0.2 h -9.5 l 0.3,-0.2 C 29,60.3 29,60 28.9,59.8 28.8,59.6 28.5,59.5 28.3,59.7 l -0.4,0.3 2.5,-4.8 h 0.3 c 0.2,0 0.4,-0.2 0.4,-0.4 0,-0.2 -0.1,-0.3 -0.3,-0.4 l 2.9,-5.5 c 0,-0.1 0.1,-0.2 0.2,-0.2 l 0.4,0.5 c 0.1,0.1 0.2,0.1 0.3,0.1 0.1,0 0.2,0 0.3,-0.1 0.2,-0.1 0.2,-0.4 0,-0.6 L 34.6,48.3 H 38 v 0.2 c 0,0.2 0.2,0.4 0.4,0.4 0.2,0 0.4,-0.2 0.4,-0.4 v -0.2 h 4.7 l -0.3,0.3 c -0.1,0.2 -0.1,0.4 0,0.6 0.1,0.1 0.2,0.1 0.3,0.1 0.1,0 0.2,0 0.3,-0.1 l 0.4,-0.4 c 0,0.1 0.1,0.2 0.1,0.3 v 5.4 h -0.1 c -0.2,0 -0.4,0.2 -0.4,0.4 0,0.2 0.2,0.4 0.4,0.4 h 0.1 v 4.3 c 0,0.2 0,0.3 -0.1,0.4 l -0.3,-0.3 c -0.2,-0.2 -0.4,-0.2 -0.6,0 -0.2,0.2 -0.2,0.4 0,0.6 l 0.3,0.3 c -0.1,0 -0.2,0.1 -0.3,0.1 h -4.5 z"
         id="path111"
         inkscape:connector-curvature="0" /><path
         d="m 33.5,77.3 c -0.4,0 -0.7,0.3 -0.7,0.7 v 5 c 0,0.4 0.3,0.7 0.7,0.7 h 23.3 c 0.4,0 0.7,-0.3 0.7,-0.7 v -5 c 0,-0.4 -0.3,-0.7 -0.7,-0.7 z m 22.6,5 H 34.2 v -3.6 h 21.9 z"
         id="path113"
         inkscape:connector-curvature="0" /><path
         d="m 41.5,51.2 -3.6,3.6 -3.6,-3.6 c -0.2,-0.2 -0.4,-0.2 -0.6,0 -0.2,0.2 -0.2,0.4 0,0.6 l 3.6,3.6 -0.1,0.1 c -0.3,0.3 -0.3,0.7 0,1 0.1,0.1 0.3,0.2 0.5,0.2 0.2,0 0.4,-0.1 0.5,-0.2 l 0.1,-0.1 0.1,0.1 c 0.1,0.1 0.2,0.1 0.3,0.1 0.1,0 0.2,0 0.3,-0.1 0.2,-0.2 0.2,-0.4 0,-0.6 l -0.1,-0.1 3.6,-3.6 c 0.3,-0.3 0.3,-0.7 0,-1 -0.3,-0.2 -0.7,-0.2 -1,0 z"
         id="path115"
         inkscape:connector-curvature="0" /><path
         d="m 36.2,37.2 c 0.1,0 0.1,0 0.2,0 0.2,0 0.3,-0.1 0.4,-0.3 0,0 1.8,-4.2 5.9,-5.8 0.2,-0.1 0.3,-0.3 0.2,-0.5 -0.1,-0.2 -0.3,-0.3 -0.5,-0.2 -4.5,1.8 -6.3,6.1 -6.4,6.3 -0.1,0.2 0,0.5 0.2,0.5 z"
         id="path117"
         inkscape:connector-curvature="0" /><circle
         cx="43.700001"
         cy="30.299999"
         r="0.40000001"
         id="circle119" /><path
         d="M 70.7,48 H 63 c -0.2,0 -0.4,0.2 -0.4,0.4 0,0.2 0.2,0.4 0.4,0.4 h 7.7 c 0.2,0 0.4,-0.2 0.4,-0.4 0,-0.3 -0.2,-0.4 -0.4,-0.4 z"
         id="path121"
         inkscape:connector-curvature="0" /><circle
         cx="71.900002"
         cy="48.400002"
         r="0.5"
         id="circle123" /><path
         d="m 71.8,39.9 h -7.7 c -0.2,0 -0.4,0.2 -0.4,0.4 0,0.2 0.2,0.4 0.4,0.4 h 7.7 c 0.2,0 0.4,-0.2 0.4,-0.4 0.1,-0.2 -0.1,-0.4 -0.4,-0.4 z"
         id="path125"
         inkscape:connector-curvature="0" /><circle
         cx="73"
         cy="40.299999"
         r="0.5"
         id="circle127" /><path
         d="m 69.2,54.9 h -7.7 c -0.2,0 -0.4,0.2 -0.4,0.4 0,0.2 0.2,0.4 0.4,0.4 h 7.7 c 0.2,0 0.4,-0.2 0.4,-0.4 0,-0.2 -0.2,-0.4 -0.4,-0.4 z"
         id="path129"
         inkscape:connector-curvature="0" /><circle
         cx="70.400002"
         cy="55.299999"
         r="0.5"
         id="circle131" /><path
         d="m 62,61.2 h 3.9 c 0.2,0 0.4,-0.2 0.4,-0.4 0,-0.2 -0.2,-0.4 -0.4,-0.4 H 62 c -0.2,0 -0.4,0.2 -0.4,0.4 0,0.2 0.2,0.4 0.4,0.4 z"
         id="path133"
         inkscape:connector-curvature="0" /><circle
         cx="67"
         cy="60.799999"
         r="0.5"
         id="circle135" /><path
         d="m 56.1,87 c 0,0.2 0.2,0.4 0.4,0.4 H 62 c 0.2,0 0.4,-0.2 0.4,-0.4 V 81.4 C 62.4,81.2 62.2,81 62,81 c -0.2,0 -0.4,0.2 -0.4,0.4 v 5.2 h -5 c -0.3,0 -0.5,0.1 -0.5,0.4 z"
         id="path137"
         inkscape:connector-curvature="0" /><circle
         cx="55.099998"
         cy="87"
         r="0.5"
         id="circle139" /><path
         d="m 36.4,81.2 h 16.1 c 0.4,0 0.7,-0.3 0.7,-0.7 0,-0.4 -0.3,-0.7 -0.7,-0.7 H 36.4 c -0.4,0 -0.7,0.3 -0.7,0.7 0,0.4 0.3,0.7 0.7,0.7 z"
         id="path141"
         inkscape:connector-curvature="0" /><circle
         cx="54.299999"
         cy="80.5"
         r="0.69999999"
         id="circle143" /></g><path
       style="opacity:1;fill:#bfbfbf;fill-opacity:0;stroke:none;stroke-width:0.01367615;stroke-miterlimit:4;stroke-dasharray:none;stroke-opacity:1"
       d="M 4.993173,82.156977 C 4.869326,82.03313 4.829796,80.095286 4.832063,74.259001 c 0.0028,-7.20755 0.02009,-7.771475 0.254062,-8.286566 0.306379,-0.674491 0.947335,-1.235377 1.627652,-1.424318 0.279734,-0.07769 1.49808,-0.141599 2.707435,-0.142018 l 2.198827,-7.63e-4 0.310096,-1.710887 c 0.375689,-2.07279 0.417825,-2.118434 1.955613,-2.118434 h 1.063661 v -0.88895 -0.88895 H 8.605617 2.261825 L 1.532907,58.417323 C 0.285111,57.765467 -0.265516,56.268097 0.233384,54.883417 0.644515,53.742337 13.843229,26.935086 14.402436,26.105361 c 1.313803,-1.949361 3.789905,-3.97804 6.006854,-4.921438 0.532982,-0.226803 1.753467,-0.632167 2.712191,-0.900808 3.344033,-0.937021 5.919299,-2.439468 8.602171,-5.018628 2.635661,-2.533775 2.754327,-2.717461 4.638423,-7.180029 l 1.656103,-3.922557 1.087019,0.0039 c 1.459523,0.0053 2.508476,0.487391 3.042131,1.398185 0.197736,0.33748 0.688691,0.981571 1.091009,1.431314 0.882619,0.986663 1.342183,1.975008 1.555073,3.344366 0.452744,2.912171 -0.991365,7.01415 -3.878863,11.017862 -0.365344,0.506574 -0.664262,0.952759 -0.664262,0.991521 0,0.03876 2.237907,0.07047 4.973127,0.07047 2.73522,0 5.275926,0.05743 5.646011,0.12761 1.750252,0.331928 3.157355,1.219553 3.780726,2.384944 0.287227,0.536969 0.304208,0.751851 0.347242,4.393902 0.05234,4.429504 -0.02584,5.039823 -0.724062,5.652873 -0.251433,0.22076 -0.524561,0.423887 -0.60695,0.451389 -0.09522,0.03178 -0.03776,0.27424 0.157698,0.665431 0.276533,0.553452 0.312107,0.854844 0.353266,2.9929 0.0372,1.93235 0.0047,2.484907 -0.17338,2.951302 -0.26838,0.702743 -0.799278,1.21774 -1.479335,1.435028 l -0.512856,0.163864 -2.73e-4,2.690433 c -2.74e-4,3.020714 -0.086,3.380136 -0.943152,3.952752 -0.367978,0.245864 -0.655854,0.310439 -1.383904,0.310439 h -0.919265 l -0.06303,1.81209 c -0.04474,1.286188 -0.125754,1.931161 -0.279153,2.222374 -0.473736,0.899342 -1.539847,1.572757 -2.489896,1.572757 -0.395057,0 -0.582441,0.110875 -1.056428,0.625089 -0.725483,0.787057 -1.53945,1.2667 -2.691962,1.586281 -0.790438,0.219182 -1.461337,0.250337 -5.390937,0.250337 h -4.488147 l 0.04044,0.92314 0.04044,0.92314 1.467838,0.03879 c 1.68154,0.04444 1.613099,-0.0067 1.86875,1.397201 0.08903,0.488923 0.224066,1.206127 0.300078,1.593787 l 0.138203,0.704838 2.420552,0.04735 c 2.350502,0.04598 2.43897,0.05818 3.056949,0.421462 0.472474,0.277748 0.727868,0.55767 0.991521,1.086753 l 0.355124,0.712643 v 7.640783 c 0,5.005448 -0.04883,7.73202 -0.141572,7.905313 -0.138915,0.259562 -0.494224,0.264532 -18.914114,0.264532 -14.418517,0 -18.810605,-0.03806 -18.936655,-0.164114 z M 41.68628,73.742362 V 66.462866 L 41.307095,66.083718 40.927912,65.70457 24.211909,65.668387 c -12.378567,-0.02679 -16.815002,0.0047 -17.097542,0.12142 -0.806399,0.333096 -0.780932,0.07173 -0.780932,8.014635 v 7.286824 l 17.676423,-0.0347 17.676422,-0.03471 z m -6.695184,-9.507978 c -0.02952,-0.09402 -0.154871,-0.647907 -0.27856,-1.230853 L 34.487645,61.943629 H 23.978695 13.469746 l -0.159277,0.991521 c -0.0876,0.545337 -0.189625,1.099221 -0.226715,1.230854 -0.06383,0.226512 0.522533,0.239332 10.946786,0.239332 8.748828,0 11.003185,-0.03516 10.960556,-0.170952 z m -3.76707,-3.931892 c 0,-0.266249 -0.09117,-0.273523 -3.428549,-0.273523 h -3.428549 l 0.0437,-0.307714 c 0.04369,-0.307617 0.04476,-0.307734 3.460984,-0.376094 3.114274,-0.06232 3.421358,-0.0896 3.463255,-0.307713 0.04333,-0.225575 -0.383093,-0.239333 -7.417556,-0.239333 h -7.463528 v 0.88895 0.88895 h 7.38512 c 7.293946,0 7.38512,-0.0034 7.38512,-0.273523 z m 10.604472,-3.084246 c 0.859418,-0.223791 1.977585,-0.802988 1.977585,-1.024364 0,-0.07632 -0.699301,-0.131315 -1.675328,-0.13176 -2.113065,-9.57e-4 -2.568688,-0.127383 -3.378832,-0.937527 -0.812834,-0.812834 -0.963345,-1.379383 -0.963345,-3.626183 0,-1.572034 -0.0212,-1.714851 -0.266057,-1.792566 -0.146333,-0.04644 -0.572786,-0.420053 -0.947675,-0.830242 -0.957268,-1.047403 -1.270088,-1.935584 -1.352216,-3.839316 l -0.06565,-1.521673 -0.664228,-0.300194 c -0.836272,-0.377947 -1.681243,-1.327455 -1.978957,-2.223783 -0.26791,-0.806602 -0.210517,-3.21306 0.0988,-4.142742 0.290198,-0.872208 1.263911,-1.771036 2.235603,-2.06367 0.451313,-0.135917 0.840247,-0.259728 0.8643,-0.275136 0.02405,-0.01541 -0.09752,-0.295534 -0.270165,-0.622502 -0.256541,-0.485866 -0.327005,-0.881863 -0.385634,-2.167247 l -0.07174,-1.572758 -1.077479,2.119002 c -1.605981,3.158366 -2.619516,4.509651 -4.368719,5.824552 -0.889558,0.668692 -2.54167,1.56137 -2.889685,1.56137 -0.290928,0 -0.661194,-0.618375 -0.560406,-0.935926 0.04635,-0.146031 0.282236,-0.346165 0.524195,-0.444744 1.442567,-0.587722 3.378664,-2.143218 4.400867,-3.535736 0.258604,-0.352289 1.05532,-1.805766 1.770482,-3.229948 2.083743,-4.149597 3.874966,-6.986522 5.477553,-8.675309 1.233791,-1.300153 2.713713,-3.499422 3.772592,-5.606335 1.353677,-2.693492 1.830853,-4.910248 1.454369,-6.756394 -0.190671,-0.934991 -0.817434,-2.269784 -1.066133,-2.270506 -0.04633,-1.34e-4 -0.221145,0.375214 -0.388466,0.834107 -0.378337,1.037624 -1.123065,2.321238 -1.748182,3.013168 -0.966538,1.069841 -2.578626,1.576166 -4.140184,1.30035 l -0.617095,-0.108997 -0.72797,0.897238 c -0.986524,1.215911 -3.025011,3.122868 -4.37629,4.093914 -2.285041,1.642061 -4.134017,2.532086 -6.722272,3.23584 -2.02394,0.550315 -3.263542,1.075826 -4.59269,1.947005 -1.258458,0.824844 -2.790418,2.311099 -3.490841,3.386693 -0.269402,0.413704 -3.59061,7.024755 -7.380463,14.691225 -7.224526,14.614449 -7.205071,14.57011 -6.674733,15.212347 0.10368,0.125555 0.373137,0.341164 0.598793,0.47913 0.392782,0.240148 1.230208,0.25087 19.63073,0.25136 16.930861,4.1e-4 19.317544,-0.02477 20.035558,-0.211743 z m 4.966503,-2.581099 c 0.576123,-0.297925 0.703642,-0.747079 0.703642,-2.478399 v -1.566322 h -4.254734 -4.254736 l 0.05059,1.478145 c 0.05612,1.639626 0.206659,2.023264 0.978616,2.493956 0.397832,0.242573 0.704534,0.266529 3.418399,0.266994 2.313661,4.1e-4 3.065756,-0.04314 3.35822,-0.194374 z m 3.76959,-5.495349 c 0.187231,-0.07185 0.216328,-0.448943 0.216328,-2.80361 V 43.61759 h -7.179978 -7.179978 v 0.995907 c 0,2.314082 0.888699,3.769892 2.694568,4.41406 0.40202,0.143404 1.72932,0.186604 5.876029,0.191252 2.946188,0.0033 5.454051,-0.03135 5.573031,-0.07701 z m 2.044165,-7.175272 0.360347,-0.283449 v -2.328541 c 0,-2.625684 -0.107618,-3.049461 -0.898544,-3.538279 -0.453391,-0.280212 -0.558066,-0.283129 -8.362081,-0.23302 -8.660587,0.05561 -8.593161,0.04933 -9.420666,0.876839 -0.508073,0.508075 -0.73884,1.358843 -0.73884,2.72389 0,1.41808 0.501349,2.313037 1.572757,2.807524 0.512552,0.236558 1.069762,0.252667 8.836862,0.255482 8.181791,0.003 8.294514,-6.84e-4 8.650165,-0.280446 z m 0.988767,-7.936339 c 0.239656,-0.264577 0.263786,-0.571034 0.301171,-3.824941 0.02631,-2.290291 -0.01288,-3.736086 -0.11118,-4.101142 -0.199408,-0.740543 -1.068023,-1.667082 -1.89731,-2.023831 -1.155257,-0.496979 -2.286779,-0.575359 -7.735813,-0.535864 l -5.190532,0.03762 -0.709247,0.879021 c -0.390085,0.483461 -0.812912,1.054512 -0.939613,1.269 l -0.230367,0.38998 6.358161,-0.03815 c 6.350637,-0.0381 6.358653,-0.03851 6.774224,-0.345861 0.937272,-0.693187 1.781974,-0.08419 1.172793,0.845542 -0.116424,0.177685 -0.531837,0.467847 -0.92314,0.644806 l -0.711462,0.321742 -6.814266,0.04019 -6.814265,0.04019 0.04457,2.651212 c 0.04945,2.941106 0.08342,3.059675 1.068892,3.730383 l 0.452125,0.307713 h 7.822365 c 7.776419,0 7.823893,-0.0017 8.082892,-0.287622 z M 38.130481,11.769804 c 0.300876,-0.137432 0.811862,-0.538267 1.135523,-0.890746 C 39.915837,10.17137 40.964748,8.147251 40.90424,7.717699 40.85865,7.394058 39.596678,6.727743 38.910285,6.664902 l -0.451049,-0.04129 -1.143328,2.625452 c -0.742416,1.704831 -1.08779,2.648171 -0.984945,2.690242 0.36653,0.14994 1.290768,0.06288 1.799518,-0.169498 z M 40.883133,6.163127 C 40.330192,5.58598 38.88267,5.21545 38.88267,5.651057 c 0,0.105604 0.19733,0.227782 0.444474,0.275199 0.244462,0.0469 0.752189,0.22976 1.128283,0.406351 0.376094,0.176591 0.710091,0.29828 0.742218,0.270421 0.03213,-0.02786 -0.109405,-0.225816 -0.314512,-0.439901 z"
       id="path4826"
       inkscape:connector-curvature="0" /><path
       style="opacity:1;fill:#992f24;fill-opacity:1;stroke:#ac1000;stroke-width:0.014;stroke-miterlimit:4;stroke-dasharray:none;stroke-opacity:0.48128345"
       d="M 4.993173,82.156977 C 4.869326,82.03313 4.829796,80.095286 4.832063,74.259001 c 0.0028,-7.20755 0.02009,-7.771475 0.254062,-8.286566 0.306379,-0.674491 0.947335,-1.235377 1.627652,-1.424318 0.279734,-0.07769 1.49808,-0.141599 2.707435,-0.142018 l 2.198827,-7.63e-4 0.310096,-1.710887 c 0.375689,-2.07279 0.417825,-2.118434 1.955613,-2.118434 h 1.063661 v -0.88895 -0.88895 H 8.605617 2.261825 L 1.532907,58.417323 C 0.285111,57.765467 -0.265516,56.268097 0.233384,54.883417 0.644515,53.742337 13.843229,26.935086 14.402436,26.105361 c 1.313803,-1.949361 3.789905,-3.97804 6.006854,-4.921438 0.532982,-0.226803 1.753467,-0.632167 2.712191,-0.900808 3.344033,-0.937021 5.919299,-2.439468 8.602171,-5.018628 2.635661,-2.533775 2.754327,-2.717461 4.638423,-7.180029 l 1.656103,-3.922557 1.087019,0.0039 c 1.459523,0.0053 2.508476,0.487391 3.042131,1.398185 0.197736,0.33748 0.688691,0.981571 1.091009,1.431314 0.882619,0.986663 1.342183,1.975008 1.555073,3.344366 0.452744,2.912171 -0.991365,7.01415 -3.878863,11.017862 -0.365344,0.506574 -0.664262,0.952759 -0.664262,0.991521 0,0.03876 2.237907,0.07047 4.973127,0.07047 2.73522,0 5.275926,0.05743 5.646011,0.12761 1.750252,0.331928 3.157355,1.219553 3.780726,2.384944 0.287227,0.536969 0.304208,0.751851 0.347242,4.393902 0.05234,4.429504 -0.02584,5.039823 -0.724062,5.652873 -0.251433,0.22076 -0.524561,0.423887 -0.60695,0.451389 -0.09522,0.03178 -0.03776,0.27424 0.157698,0.665431 0.276533,0.553452 0.312107,0.854844 0.353266,2.9929 0.0372,1.93235 0.0047,2.484907 -0.17338,2.951302 -0.26838,0.702743 -0.799278,1.21774 -1.479335,1.435028 l -0.512856,0.163864 -2.73e-4,2.690433 c -2.74e-4,3.020714 -0.086,3.380136 -0.943152,3.952752 -0.367978,0.245864 -0.655854,0.310439 -1.383904,0.310439 h -0.919265 l -0.06303,1.81209 c -0.04474,1.286188 -0.125754,1.931161 -0.279153,2.222374 -0.473736,0.899342 -1.539847,1.572757 -2.489896,1.572757 -0.395057,0 -0.582441,0.110875 -1.056428,0.625089 -0.725483,0.787057 -1.53945,1.2667 -2.691962,1.586281 -0.790438,0.219182 -1.461337,0.250337 -5.390937,0.250337 h -4.488147 l 0.04044,0.92314 0.04044,0.92314 1.467838,0.03879 c 1.68154,0.04444 1.613099,-0.0067 1.86875,1.397201 0.08903,0.488923 0.224066,1.206127 0.300078,1.593787 l 0.138203,0.704838 2.420552,0.04735 c 2.350502,0.04598 2.43897,0.05818 3.056949,0.421462 0.472474,0.277748 0.727868,0.55767 0.991521,1.086753 l 0.355124,0.712643 v 7.640783 c 0,5.005448 -0.04883,7.73202 -0.141572,7.905313 -0.138915,0.259562 -0.494224,0.264532 -18.914114,0.264532 -14.418517,0 -18.810605,-0.03806 -18.936655,-0.164114 z M 41.68628,73.742362 V 66.462866 L 41.307095,66.083718 40.927912,65.70457 24.211909,65.668387 c -12.378567,-0.02679 -16.815002,0.0047 -17.097542,0.12142 -0.806399,0.333096 -0.780932,0.07173 -0.780932,8.014635 v 7.286824 l 17.676423,-0.0347 17.676422,-0.03471 z m -6.695184,-9.507978 c -0.02952,-0.09402 -0.154871,-0.647907 -0.27856,-1.230853 L 34.487645,61.943629 H 23.978695 13.469746 l -0.159277,0.991521 c -0.0876,0.545337 -0.189625,1.099221 -0.226715,1.230854 -0.06383,0.226512 0.522533,0.239332 10.946786,0.239332 8.748828,0 11.003185,-0.03516 10.960556,-0.170952 z m -3.76707,-3.931892 c 0,-0.266249 -0.09117,-0.273523 -3.428549,-0.273523 h -3.428549 l 0.0437,-0.307714 c 0.04369,-0.307617 0.04476,-0.307734 3.460984,-0.376094 3.114274,-0.06232 3.421358,-0.0896 3.463255,-0.307713 0.04333,-0.225575 -0.383093,-0.239333 -7.417556,-0.239333 h -7.463528 v 0.88895 0.88895 h 7.38512 c 7.293946,0 7.38512,-0.0034 7.38512,-0.273523 z m 10.604472,-3.084246 c 0.859418,-0.223791 1.977585,-0.802988 1.977585,-1.024364 0,-0.07632 -0.699301,-0.131315 -1.675328,-0.13176 -2.113065,-9.57e-4 -2.568688,-0.127383 -3.378832,-0.937527 -0.812834,-0.812834 -0.963345,-1.379383 -0.963345,-3.626183 0,-1.572034 -0.0212,-1.714851 -0.266057,-1.792566 -0.146333,-0.04644 -0.572786,-0.420053 -0.947675,-0.830242 -0.957268,-1.047403 -1.270088,-1.935584 -1.352216,-3.839316 l -0.06565,-1.521673 -0.664228,-0.300194 c -0.836272,-0.377947 -1.681243,-1.327455 -1.978957,-2.223783 -0.26791,-0.806602 -0.210517,-3.21306 0.0988,-4.142742 0.290198,-0.872208 1.263911,-1.771036 2.235603,-2.06367 0.451313,-0.135917 0.840247,-0.259728 0.8643,-0.275136 0.02405,-0.01541 -0.09752,-0.295534 -0.270165,-0.622502 -0.256541,-0.485866 -0.327005,-0.881863 -0.385634,-2.167247 l -0.07174,-1.572758 -1.077479,2.119002 c -1.605981,3.158366 -2.619516,4.509651 -4.368719,5.824552 -0.889558,0.668692 -2.54167,1.56137 -2.889685,1.56137 -0.290928,0 -0.661194,-0.618375 -0.560406,-0.935926 0.04635,-0.146031 0.282236,-0.346165 0.524195,-0.444744 1.442567,-0.587722 3.378664,-2.143218 4.400867,-3.535736 0.258604,-0.352289 1.05532,-1.805766 1.770482,-3.229948 2.083743,-4.149597 3.874966,-6.986522 5.477553,-8.675309 1.233791,-1.300153 2.713713,-3.499422 3.772592,-5.606335 1.353677,-2.693492 1.830853,-4.910248 1.454369,-6.756394 -0.190671,-0.934991 -0.817434,-2.269784 -1.066133,-2.270506 -0.04633,-1.34e-4 -0.221145,0.375214 -0.388466,0.834107 -0.378337,1.037624 -1.123065,2.321238 -1.748182,3.013168 -0.966538,1.069841 -2.578626,1.576166 -4.140184,1.30035 l -0.617095,-0.108997 -0.72797,0.897238 c -0.986524,1.215911 -3.025011,3.122868 -4.37629,4.093914 -2.285041,1.642061 -4.134017,2.532086 -6.722272,3.23584 -2.02394,0.550315 -3.263542,1.075826 -4.59269,1.947005 -1.258458,0.824844 -2.790418,2.311099 -3.490841,3.386693 -0.269402,0.413704 -3.59061,7.024755 -7.380463,14.691225 -7.224526,14.614449 -7.205071,14.57011 -6.674733,15.212347 0.10368,0.125555 0.373137,0.341164 0.598793,0.47913 0.392782,0.240148 1.230208,0.25087 19.63073,0.25136 16.930861,4.1e-4 19.317544,-0.02477 20.035558,-0.211743 z m 4.966503,-2.581099 c 0.576123,-0.297925 0.703642,-0.747079 0.703642,-2.478399 v -1.566322 h -4.254734 -4.254736 l 0.05059,1.478145 c 0.05612,1.639626 0.206659,2.023264 0.978616,2.493956 0.397832,0.242573 0.704534,0.266529 3.418399,0.266994 2.313661,4.1e-4 3.065756,-0.04314 3.35822,-0.194374 z m 3.76959,-5.495349 c 0.187231,-0.07185 0.216328,-0.448943 0.216328,-2.80361 V 43.61759 h -7.179978 -7.179978 v 0.995907 c 0,2.314082 0.888699,3.769892 2.694568,4.41406 0.40202,0.143404 1.72932,0.186604 5.876029,0.191252 2.946188,0.0033 5.454051,-0.03135 5.573031,-0.07701 z m 2.044165,-7.175272 0.360347,-0.283449 v -2.328541 c 0,-2.625684 -0.107618,-3.049461 -0.898544,-3.538279 -0.453391,-0.280212 -0.558066,-0.283129 -8.362081,-0.23302 -8.660587,0.05561 -8.593161,0.04933 -9.420666,0.876839 -0.508073,0.508075 -0.73884,1.358843 -0.73884,2.72389 0,1.41808 0.501349,2.313037 1.572757,2.807524 0.512552,0.236558 1.069762,0.252667 8.836862,0.255482 8.181791,0.003 8.294514,-6.84e-4 8.650165,-0.280446 z m 0.988767,-7.936339 c 0.239656,-0.264577 0.263786,-0.571034 0.301171,-3.824941 0.02631,-2.290291 -0.01288,-3.736086 -0.11118,-4.101142 -0.199408,-0.740543 -1.068023,-1.667082 -1.89731,-2.023831 -1.155257,-0.496979 -2.286779,-0.575359 -7.735813,-0.535864 l -5.190532,0.03762 -0.709247,0.879021 c -0.390085,0.483461 -0.812912,1.054512 -0.939613,1.269 l -0.230367,0.38998 6.358161,-0.03815 c 6.350637,-0.0381 6.358653,-0.03851 6.774224,-0.345861 0.937272,-0.693187 1.781974,-0.08419 1.172793,0.845542 -0.116424,0.177685 -0.531837,0.467847 -0.92314,0.644806 l -0.711462,0.321742 -6.814266,0.04019 -6.814265,0.04019 0.04457,2.651212 c 0.04945,2.941106 0.08342,3.059675 1.068892,3.730383 l 0.452125,0.307713 h 7.822365 c 7.776419,0 7.823893,-0.0017 8.082892,-0.287622 z M 38.130481,11.769804 c 0.300876,-0.137432 0.811862,-0.538267 1.135523,-0.890746 C 39.915837,10.17137 40.964748,8.147251 40.90424,7.717699 40.85865,7.394058 39.596678,6.727743 38.910285,6.664902 l -0.451049,-0.04129 -1.143328,2.625452 c -0.742416,1.704831 -1.08779,2.648171 -0.984945,2.690242 0.36653,0.14994 1.290768,0.06288 1.799518,-0.169498 z M 40.883133,6.163127 C 40.330192,5.58598 38.88267,5.21545 38.88267,5.651057 c 0,0.105604 0.19733,0.227782 0.444474,0.275199 0.244462,0.0469 0.752189,0.22976 1.128283,0.406351 0.376094,0.176591 0.710091,0.29828 0.742218,0.270421 0.03213,-0.02786 -0.109405,-0.225816 -0.314512,-0.439901 z"
       id="path4828"
       inkscape:connector-curvature="0" /><path
       style="opacity:1;fill:#ff6600;fill-opacity:1;stroke:#ac1000;stroke-width:0.00191466;stroke-miterlimit:4;stroke-dasharray:none;stroke-opacity:0.48128345"
       d="M 8.462296,54.970788 6.228983,54.895748 5.761256,54.384902 c -0.819748,-0.895323 -0.820077,-0.894337 2.351508,-7.028666 3.564895,-6.89505 3.351034,-6.532772 4.125046,-6.987761 l 0.645982,-0.379729 4.923414,-0.03879 c 4.893941,-0.03856 4.927091,-0.03692 5.537736,0.273523 0.337878,0.171772 0.753291,0.521427 0.92314,0.777012 0.308559,0.464311 0.308817,0.469599 0.308817,6.330667 0,5.573689 -0.01347,5.892379 -0.270426,6.396047 -0.331676,0.650137 -0.865473,1.045607 -1.657904,1.22828 -0.624719,0.144011 -10.052847,0.154179 -14.186273,0.0153 z m 8.45596,-1.636397 c 0,-0.144169 0.07693,-0.28971 0.170952,-0.323424 0.246543,-0.0884 0.649617,0.150619 0.649617,0.38522 0,0.168147 0.376902,0.20033 2.346142,0.20033 2.322638,0 2.343708,-0.0027 2.103217,-0.268429 -0.438746,-0.484809 0.109736,-1.073992 0.592818,-0.636809 0.134936,0.122115 0.286499,0.180865 0.33681,0.130555 0.05031,-0.05031 0.09147,-1.063733 0.09147,-2.252051 0,-2.02061 -0.01772,-2.170062 -0.273523,-2.306964 -0.150438,-0.08051 -0.273523,-0.236012 -0.273523,-0.345557 0,-0.109544 0.123085,-0.276039 0.273523,-0.369989 0.258007,-0.161129 0.273523,-0.318931 0.273523,-2.781976 0,-1.436137 -0.03783,-2.648983 -0.08406,-2.695214 -0.04623,-0.04623 -0.222187,0.0065 -0.391013,0.117071 -0.168828,0.110619 -0.407945,0.162374 -0.531372,0.115011 -0.261645,-0.100403 -0.297964,-0.612403 -0.0603,-0.850068 0.127644,-0.127644 -0.343423,-0.164114 -2.119803,-0.164114 -1.848749,0 -2.283917,0.0359 -2.283917,0.188397 0,0.5183 -0.73017,0.582344 -0.862669,0.07567 -0.0633,-0.242079 -0.203333,-0.264063 -1.681967,-0.264063 -1.254488,0 -1.576443,0.03647 -1.448799,0.164114 0.151252,0.151252 0.237783,0.793217 0.106918,0.793217 -0.03146,0 -0.148203,0.03492 -0.259434,0.07761 -0.116537,0.04472 -0.342295,-0.07344 -0.532742,-0.278827 l -0.330504,-0.356434 -1.469487,2.802954 c -1.175425,2.242051 -1.442427,2.853514 -1.334265,3.055616 0.164454,0.307286 0.0444,0.528118 -0.370572,0.681625 -0.222376,0.08226 -0.645479,0.754515 -1.472755,2.340011 -0.75267,1.442509 -1.0731,2.177685 -0.911448,2.091171 0.547308,-0.29291 1.017232,0.477767 0.481564,0.789765 -0.165958,0.09666 1.217676,0.140674 4.513129,0.143557 4.593858,0.004 4.752462,-0.0046 4.752462,-0.257967 z"
       id="path4838"
       inkscape:connector-curvature="0" /><path
       style="opacity:1;fill:#ff6600;fill-opacity:1;stroke:#ac1000;stroke-width:0.00191466;stroke-miterlimit:4;stroke-dasharray:none;stroke-opacity:0.48128345"
       d="m 16.110331,49.506317 c -0.321292,-0.321292 -0.368687,-0.695989 -0.119548,-0.945128 0.130985,-0.130985 -0.23881,-0.572826 -1.729073,-2.065947 -1.356512,-1.359113 -1.871564,-1.962205 -1.810859,-2.120399 0.223003,-0.581135 0.52239,-0.395319 2.428811,1.507454 l 1.901833,1.898192 1.88224,-1.878638 c 1.481093,-1.478258 1.960365,-1.878638 2.24881,-1.878638 0.343965,0 0.792363,0.417335 0.792363,0.737471 0,0.07126 -0.846212,0.983799 -1.88047,2.027862 -1.62882,1.644261 -1.880471,1.956858 -1.880471,2.335902 0,0.40494 -0.03573,0.439175 -0.478665,0.458638 -0.263266,0.01157 -0.611446,0.06342 -0.773734,0.115216 -0.20668,0.06597 -0.380792,0.0085 -0.581237,-0.191985 z"
       id="path4840"
       inkscape:connector-curvature="0" /><path
       style="opacity:1;fill:#ff6600;fill-opacity:1;stroke:#ac1000;stroke-width:0.00135387;stroke-miterlimit:4;stroke-dasharray:none;stroke-opacity:0.48128345"
       d="m 12.037732,76.608802 c -0.372506,-0.179614 -0.425069,-0.627883 -0.392509,-3.34741 l 0.03049,-2.547021 0.272641,-0.234373 0.272641,-0.234374 11.896564,0.0253 11.896564,0.0253 0.184856,0.2283 c 0.172445,0.212973 0.184855,0.415378 0.184855,3.015011 v 2.786712 L 36.12903,76.526676 C 35.874306,76.727042 35.870526,76.727103 24.065084,76.72056 15.766032,76.71596 12.191081,76.68274 12.037727,76.608796 Z M 34.933264,73.487494 V 71.698452 H 24.005602 13.07794 v 1.789042 1.789042 h 10.927662 10.927662 z"
       id="path4842"
       inkscape:connector-curvature="0" /><path
       style="opacity:1;fill:#ff6600;fill-opacity:1;stroke:#ac1000;stroke-width:0.00135387;stroke-miterlimit:4;stroke-dasharray:none;stroke-opacity:0.48128345"
       d="m 14.889136,74.0919 c -0.420044,-0.317604 -0.358702,-1.033544 0.105004,-1.225519 0.185261,-0.0767 2.620857,-0.100097 8.500332,-0.08166 9.071528,0.02845 8.466505,-0.01556 8.594643,0.62513 0.04965,0.248235 0.01408,0.353819 -0.186855,0.554759 l -0.248173,0.248172 h -8.302541 c -6.492298,0 -8.337397,-0.02636 -8.46241,-0.120882 z"
       id="path4844"
       inkscape:connector-curvature="0" /><path
       style="opacity:1;fill:#ff6600;fill-opacity:1;stroke:#ac1000;stroke-width:0.00135387;stroke-miterlimit:4;stroke-dasharray:none;stroke-opacity:0.48128345"
       d="m 32.727285,74.015604 c -0.306842,-0.285866 -0.286013,-0.794041 0.04316,-1.052968 0.140142,-0.110236 0.330101,-0.200429 0.422131,-0.200429 0.319382,0 0.676935,0.377896 0.676935,0.715449 0,0.620366 -0.69993,0.950009 -1.142226,0.537948 z"
       id="path4846"
       inkscape:connector-curvature="0" /><path
       style="opacity:1;fill:#ff6600;fill-opacity:1;stroke:#ac1000;stroke-width:0.00135387;stroke-miterlimit:4;stroke-dasharray:none;stroke-opacity:0.48128345"
       d="m 35.088405,80.193539 c -0.105046,-0.149974 -0.119179,-0.25837 -0.05043,-0.38682 0.08928,-0.166825 0.268654,-0.178459 2.751493,-0.178459 h 2.655984 v -2.617392 c 0,-1.619301 0.03817,-2.68872 0.100107,-2.804444 0.111901,-0.209088 0.476533,-0.248665 0.654192,-0.07101 0.08514,0.08514 0.116046,0.894597 0.116046,3.039299 0,2.528563 -0.02052,2.943771 -0.151965,3.075218 -0.131367,0.131367 -0.54352,0.151965 -3.040723,0.151965 -2.848227,0 -2.890806,-0.0029 -3.0347,-0.208361 z"
       id="path4848"
       inkscape:connector-curvature="0" /><path
       style="opacity:1;fill:#ff6600;fill-opacity:1;stroke:#ac1000;stroke-width:0.00135387;stroke-miterlimit:4;stroke-dasharray:none;stroke-opacity:0.48128345"
       d="m 40.543119,54.003246 c -0.07483,-0.139823 -0.07483,-0.250606 0,-0.390429 0.100721,-0.188199 0.183001,-0.19428 2.289679,-0.169233 1.958985,0.02329 2.196247,0.0435 2.29188,0.195214 0.07777,0.123369 0.07777,0.215098 0,0.338467 -0.09563,0.151715 -0.332895,0.171924 -2.29188,0.195215 -2.106678,0.02505 -2.188958,0.01896 -2.289679,-0.169234 z"
       id="path4850"
       inkscape:connector-curvature="0" /><path
       style="opacity:1;fill:#ff6600;fill-opacity:1;stroke:#ac1000;stroke-width:0.00135387;stroke-miterlimit:4;stroke-dasharray:none;stroke-opacity:0.48128345"
       d="m 40.079003,48.567656 c -0.15557,-0.15557 -0.148496,-0.415463 0.015,-0.551153 0.09488,-0.07874 1.270051,-0.102506 4.171975,-0.08437 3.72623,0.02329 4.048181,0.03839 4.14662,0.194481 0.07783,0.123416 0.07783,0.215053 -1e-6,0.338468 -0.09845,0.156114 -0.421079,0.171188 -4.161621,0.194443 -3.073142,0.01911 -4.083242,-0.0031 -4.171974,-0.09187 z"
       id="path4852"
       inkscape:connector-curvature="0" /><path
       style="opacity:1;fill:#ff6600;fill-opacity:1;stroke:#ac1000;stroke-width:0.00135387;stroke-miterlimit:4;stroke-dasharray:none;stroke-opacity:0.48128345"
       d="m 41.625249,41.700569 c -0.177659,-0.177659 -0.138081,-0.542291 0.07101,-0.654192 0.120107,-0.06428 1.588588,-0.100107 4.103054,-0.100107 3.431061,0 3.93482,0.01882 4.067967,0.151965 0.192887,0.192887 0.192887,0.373527 0,0.566415 -0.133236,0.133235 -0.643361,0.151965 -4.138973,0.151965 -2.972067,0 -4.016549,-0.02954 -4.103054,-0.116046 z"
       id="path4854"
       inkscape:connector-curvature="0" /><path
       style="opacity:1;fill:#ff6600;fill-opacity:1;stroke:#ac1000;stroke-width:0.00135387;stroke-miterlimit:4;stroke-dasharray:none;stroke-opacity:0.48128345"
       d="m 42.689003,33.577351 c -0.154636,-0.154637 -0.147061,-0.414762 0.01602,-0.550108 0.09491,-0.07877 1.285321,-0.102505 4.230843,-0.08437 l 4.098776,0.02524 0.0316,0.222909 c 0.07196,0.50765 0.116357,0.502379 -4.230767,0.502379 -3.005836,0 -4.059927,-0.0295 -4.146473,-0.116046 z"
       id="path4856"
       inkscape:connector-curvature="0" /><path
       style="opacity:1;fill:#ff6600;fill-opacity:1;stroke:#ac1000;stroke-width:0.00135387;stroke-miterlimit:4;stroke-dasharray:none;stroke-opacity:0.48128345"
       d="m 14.883099,30.147548 c -0.153454,-0.153455 -0.03283,-0.53111 0.428567,-1.341811 0.673595,-1.183537 1.378335,-2.08724 2.382897,-3.055641 0.957854,-0.923374 1.736738,-1.481896 2.828873,-2.028526 0.851469,-0.426174 1.108354,-0.461722 1.261996,-0.174639 0.17022,0.31806 0.05818,0.439896 -0.796914,0.866579 -1.127338,0.562531 -1.929659,1.152387 -2.881919,2.11875 -0.842538,0.855015 -1.59378,1.868069 -2.083352,2.809413 -0.152139,0.292532 -0.339852,0.608032 -0.417138,0.701111 -0.137689,0.165823 -0.5956,0.232174 -0.72301,0.104764 z"
       id="path4858"
       inkscape:connector-curvature="0" /><path
       style="opacity:1;fill:#ff3c00;fill-opacity:1;stroke:#ac1000;stroke-width:0.00135387;stroke-miterlimit:4;stroke-dasharray:none;stroke-opacity:0.48128345"
       d="m 22.320173,23.580819 c -0.08358,-0.08358 -0.151965,-0.211024 -0.151965,-0.283207 0,-0.165684 0.264484,-0.435173 0.427091,-0.435173 0.14226,0 0.443253,0.306916 0.443253,0.451976 0,0.126247 -0.321228,0.418369 -0.460055,0.418369 -0.0585,0 -0.174744,-0.06838 -0.258324,-0.151965 z"
       id="path4864"
       inkscape:connector-curvature="0" /><path
       style="opacity:1;fill:#ff3c00;fill-opacity:1;stroke:#ac1000;stroke-width:0.00135387;stroke-miterlimit:4;stroke-dasharray:none;stroke-opacity:0.48128345"
       d="m 51.525075,33.638137 c -0.08358,-0.08358 -0.151965,-0.216994 -0.151965,-0.296473 0,-0.531814 0.63613,-0.721674 0.92759,-0.27685 0.146742,0.223957 0.146742,0.259569 0,0.483525 -0.182137,0.277976 -0.545391,0.320032 -0.775625,0.0898 z"
       id="path4866"
       inkscape:connector-curvature="0" /><path
       style="opacity:1;fill:#ff3c00;fill-opacity:1;stroke:#ac1000;stroke-width:0.00135387;stroke-miterlimit:4;stroke-dasharray:none;stroke-opacity:0.48128345"
       d="m 50.478589,41.808869 c -0.261045,-0.152045 -0.218729,-0.6323 0.07253,-0.823139 0.223956,-0.146742 0.259569,-0.146742 0.483525,0 0.578626,0.37913 0.04299,1.172048 -0.556055,0.823139 z"
       id="path4868"
       inkscape:connector-curvature="0" /><path
       style="opacity:1;fill:#ff3c00;fill-opacity:1;stroke:#ac1000;stroke-width:0.00135387;stroke-miterlimit:4;stroke-dasharray:none;stroke-opacity:0.48128345"
       d="m 48.914041,48.627408 c -0.308164,-0.308164 -0.07691,-0.815085 0.371832,-0.815085 0.244295,0 0.539958,0.273963 0.539958,0.500328 0,0.204127 -0.313254,0.466722 -0.556761,0.466722 -0.111685,0 -0.271448,-0.06838 -0.355029,-0.151965 z"
       id="path4870"
       inkscape:connector-curvature="0" /><path
       style="opacity:1;fill:#ff3c00;fill-opacity:1;stroke:#ac1000;stroke-width:0.00135387;stroke-miterlimit:4;stroke-dasharray:none;stroke-opacity:0.48128345"
       d="m 45.529367,54.139592 c -0.18036,-0.18036 -0.19865,-0.536309 -0.03592,-0.699039 0.204933,-0.204933 0.638947,-0.1377 0.811544,0.125716 0.146741,0.223956 0.146741,0.259569 0,0.483525 -0.182137,0.277976 -0.545391,0.320031 -0.775625,0.0898 z"
       id="path4872"
       inkscape:connector-curvature="0" /><path
       style="opacity:1;fill:#ff3c00;fill-opacity:1;stroke:#ac1000;stroke-width:0.00135387;stroke-miterlimit:4;stroke-dasharray:none;stroke-opacity:0.48128345"
       d="m 33.639905,80.35189 c -0.194599,-0.194599 -0.203866,-0.564526 -0.01801,-0.718777 0.199229,-0.165345 0.638715,-0.08675 0.789038,0.141109 0.294946,0.447074 -0.389117,0.959584 -0.771032,0.577668 z"
       id="path4874"
       inkscape:connector-curvature="0" /><path
       style="opacity:1;fill:#ffc000;fill-opacity:1;stroke:#ac1000;stroke-width:0.00270774;stroke-miterlimit:4;stroke-dasharray:none;stroke-opacity:0.48128345"
       d="M 10.688992,57.429369 C 2.286537,57.378939 2.285872,57.378899 1.822604,56.945844 1.44864,56.596267 1.377525,56.375298 1.453813,55.799923 1.57191,54.909214 3.479184,50.911984 10.342218,37.17176 l 5.409899,-10.830957 1.406257,-1.369245 c 1.710125,-1.665115 3.524184,-2.644984 6.764951,-3.654108 2.533634,-0.788933 4.036654,-1.4824 5.788253,-2.670598 1.585053,-1.075222 3.929371,-3.180823 4.853294,-4.359092 l 0.77364,-0.986616 1.437864,-0.0078 c 2.479248,-0.01338 3.72522,-0.970569 4.982368,-3.827605 0.292544,-0.664846 0.597559,-1.208812 0.677811,-1.208812 0.282214,0 0.722796,0.887938 1.024045,2.063831 0.817908,3.1926 -1.303163,8.058863 -5.828087,13.371086 -1.270214,1.491222 -2.711753,3.829699 -4.613559,7.484162 -0.830376,1.595632 -1.832513,3.337941 -2.22697,3.871795 -0.773919,1.047417 -2.307667,2.314631 -3.626007,2.995879 -0.971356,0.501946 -1.08122,0.643732 -0.911981,1.17696 0.162084,0.510679 0.760084,0.386017 2.121758,-0.442305 2.384909,-1.450772 3.480696,-2.754412 5.460201,-6.495904 l 1.154185,-2.181544 0.115715,1.639706 c 0.06364,0.901838 0.249749,1.898895 0.413567,2.215683 l 0.297849,0.575979 -0.722904,0.23156 c -1.0089,0.323171 -1.974929,1.091192 -2.274579,1.808358 -0.390775,0.935255 -0.552953,3.185199 -0.297874,4.13249 0.26372,0.979383 1.219769,2.131275 2.060464,2.482538 0.594449,0.248377 0.60534,0.277313 0.704877,1.872781 0.122687,1.966511 0.573127,3.071457 1.646075,4.03787 l 0.786447,0.70836 0.180779,2.248497 c 0.175873,2.187503 0.198432,2.266713 0.831593,2.919968 0.794855,0.820084 1.570053,1.052027 3.520769,1.053429 0.922049,5.8e-4 1.498927,0.07963 1.498927,0.205188 0,0.112261 -0.456931,0.407925 -1.015402,0.657031 l -1.015403,0.452922 -11.314482,0.06826 c -6.222965,0.03754 -15.09587,0.04556 -19.717566,0.01781 z m 12.607039,-2.735466 c 1.181387,-0.606298 1.205897,-0.739157 1.270342,-6.885766 0.06697,-6.38748 -0.0068,-6.879714 -1.119556,-7.472769 -0.606174,-0.32306 -1.171965,-0.359164 -5.628638,-0.359164 -5.961086,0 -5.717879,-0.08834 -7.187979,2.611034 -1.625803,2.985279 -5.144731,10.032739 -5.272091,10.558573 -0.09063,0.374182 0.0071,0.653924 0.385347,1.103496 0.631877,0.750943 0.635258,0.751189 10.060651,0.731047 5.575131,-0.01191 7.068217,-0.069 7.491924,-0.286451 z M 16.565418,28.478495 c 1.223071,-1.838163 2.553464,-3.097534 4.198401,-3.974277 0.788205,-0.420109 1.082848,-0.679319 1.00444,-0.883649 -0.23675,-0.61696 -2.467055,0.609854 -4.183552,2.301228 -1.218297,1.200465 -2.650945,3.295888 -2.650945,3.877332 0,0.710169 0.607657,0.218343 1.631656,-1.320634 z m 6.394857,-5.149015 c 0,-0.149242 -0.15231,-0.300681 -0.338467,-0.336532 -0.333389,-0.06421 -0.471213,0.346195 -0.205498,0.61191 0.202734,0.202733 0.543965,0.02999 0.543965,-0.275378 z"
       id="path4876"
       inkscape:connector-curvature="0" /><path
       style="opacity:1;fill:#ffc000;fill-opacity:1;stroke:#ac1000;stroke-width:0.00270774;stroke-miterlimit:4;stroke-dasharray:none;stroke-opacity:0.48128345"
       d="m 36.941687,33.806964 c -0.582974,-0.520887 -0.636593,-0.674132 -0.761312,-2.175862 -0.07379,-0.888531 -0.14109,-2.159476 -0.149549,-2.824323 l -0.01538,-1.208812 6.334176,-0.0084 c 3.483797,-0.0046 6.713486,-0.0817 7.177088,-0.171265 1.015313,-0.196149 1.842265,-0.771061 1.926745,-1.339508 0.08198,-0.551632 -0.376224,-0.705087 -1.059864,-0.354953 -0.802377,0.410947 -13.217745,0.693541 -13.217564,0.300853 6.7e-5,-0.145254 0.392995,-0.764547 0.873173,-1.376206 l 0.873051,-1.112107 h 5.667662 c 6.164308,0 7.097466,0.121791 8.229131,1.074024 1.056269,0.888792 1.230032,1.745691 1.154294,5.692313 -0.06166,3.213279 -0.09978,3.539464 -0.442906,3.790235 -0.309442,0.226156 -1.745257,0.274385 -8.168519,0.274385 h -7.793085 z m 15.298899,-0.284332 c 0.167203,-0.201468 0.147859,-0.323891 -0.08122,-0.51401 -0.369666,-0.306795 -0.782174,0.01669 -0.60617,0.475348 0.14326,0.373328 0.397762,0.387642 0.68739,0.03866 z m -1.18739,-0.267424 c 0.06275,-0.18854 -0.859792,-0.241762 -4.190674,-0.241762 -3.69199,0 -4.271137,0.03985 -4.271137,0.293887 0,0.25547 0.547797,0.287073 4.190674,0.241762 3.142766,-0.03909 4.210795,-0.112579 4.271137,-0.293887 z"
       id="path4880"
       inkscape:connector-curvature="0" /><path
       style="opacity:1;fill:#ffc000;fill-opacity:1;stroke:#ac1000;stroke-width:0.00270774;stroke-miterlimit:4;stroke-dasharray:none;stroke-opacity:0.48128345"
       d="m 35.062146,41.958356 c -1.168533,-0.59585 -1.464324,-1.21129 -1.464324,-3.046762 0,-1.335208 0.07005,-1.709716 0.404215,-2.160998 0.831433,-1.122839 0.813747,-1.12065 9.592818,-1.187659 5.807447,-0.04433 8.179059,6.05e-4 8.478059,0.160625 0.716284,0.383343 0.962609,1.343442 0.962609,3.751938 0,2.074274 -0.02812,2.239155 -0.429856,2.520541 -0.37271,0.261057 -1.523309,0.301042 -8.655095,0.300782 -7.448603,-2.71e-4 -8.287859,-0.03223 -8.888426,-0.338467 z m 16.196408,-0.486031 c 0.07697,-0.399697 -0.481362,-0.669024 -0.776043,-0.374343 -0.294681,0.294681 -0.02535,0.853017 0.374344,0.776042 0.185257,-0.03568 0.366022,-0.216441 0.401699,-0.401699 z m -1.35441,-0.0939 c -0.05961,-0.309519 -0.412112,-0.338467 -4.121495,-0.338467 -3.709382,0 -4.061886,0.02895 -4.121494,0.338467 -0.06046,0.313934 0.238291,0.338468 4.121494,0.338468 3.883204,0 4.181953,-0.02453 4.121495,-0.338468 z"
       id="path4882"
       inkscape:connector-curvature="0" /><path
       style="opacity:1;fill:#ffc000;fill-opacity:1;stroke:#ac1000;stroke-width:0.00270774;stroke-miterlimit:4;stroke-dasharray:none;stroke-opacity:0.48128345"
       d="m 39.013301,49.023625 c -1.670882,-0.592404 -2.611034,-2.123597 -2.611034,-4.252501 v -1.318249 l 7.20452,0.05071 7.204521,0.05071 0.05792,2.224215 c 0.03186,1.223318 0.0062,2.507076 -0.05712,2.852796 l -0.11504,0.628583 -5.551772,-0.01527 c -3.389305,-0.0093 -5.777777,-0.0954 -6.132002,-0.220988 z m 9.283678,-0.730793 c 0,-0.2467 -0.591272,-0.297966 -3.951119,-0.342582 -2.267782,-0.03011 -4.028093,0.02451 -4.131791,0.128205 -0.514198,0.514198 0.172403,0.607806 4.083467,0.556726 3.402905,-0.04444 3.999443,-0.09551 3.999443,-0.342349 z m 1.450574,0 c 0,-0.410234 -0.647422,-0.554106 -0.870344,-0.19341 -0.178577,0.288942 0.06989,0.58023 0.494939,0.58023 0.246465,0 0.375405,-0.132861 0.375405,-0.38682 z"
       id="path4884"
       inkscape:connector-curvature="0" /><path
       style="opacity:1;fill:#ffc000;fill-opacity:1;stroke:#ac1000;stroke-width:0.00270774;stroke-miterlimit:4;stroke-dasharray:none;stroke-opacity:0.48128345"
       d="M 39.779568,54.427964 C 39.2371,53.961352 38.940249,52.921921 38.925019,51.435744 l -0.0084,-0.821993 h 4.378551 4.378551 l -0.101436,1.77904 c -0.143014,2.508245 -0.08931,2.475979 -4.121173,2.475979 -3.009177,0 -3.183366,-0.02091 -3.671521,-0.440806 z m 6.458322,-0.395458 c 0.155171,-0.186969 0.151124,-0.317401 -0.015,-0.483525 -0.341525,-0.341526 -0.730356,-0.273863 -0.730356,0.127095 0,0.6169 0.378836,0.798059 0.745356,0.35643 z m -1.132175,-0.22749 c 0,-0.240975 -0.374807,-0.290115 -2.2128,-0.290115 -2.020948,0 -2.630184,0.121204 -2.294841,0.456548 0.06803,0.06803 1.110072,0.123682 2.315661,0.123682 1.819486,0 2.19198,-0.0493 2.19198,-0.290115 z"
       id="path4886"
       inkscape:connector-curvature="0" /><path
       style="opacity:1;fill:#ffe441;fill-opacity:1;stroke:#ac1000;stroke-width:0.00270774;stroke-miterlimit:4;stroke-dasharray:none;stroke-opacity:0.48128345"
       d="m 7.916323,53.524083 c -0.07092,-0.07092 -0.12894,-0.288503 -0.12894,-0.483525 0,-0.195021 -0.130552,-0.354584 -0.290115,-0.354584 -0.159563,0 -0.290115,-0.09796 -0.290115,-0.217686 0,-0.430565 2.019996,-4.069694 2.359995,-4.251656 0.198254,-0.106103 0.347744,-0.402947 0.347744,-0.690522 0,-0.277428 0.62892,-1.706115 1.3976,-3.17486 1.304501,-2.492558 1.419975,-2.650197 1.733486,-2.366473 0.442932,0.400849 0.932437,0.209448 0.796248,-0.311339 -0.09887,-0.378091 -0.02435,-0.398652 1.444895,-0.398652 1.198598,0 1.574336,0.06565 1.660472,0.290115 0.143737,0.374575 0.629902,0.374575 0.773639,0 0.08965,-0.233619 0.526811,-0.290115 2.244908,-0.290115 h 2.133579 v 0.490846 c 0,0.420024 0.07674,0.482812 0.531878,0.435172 l 0.531877,-0.05567 0.05433,2.492496 c 0.04516,2.072055 0.0018,2.550514 -0.256937,2.836442 -0.2861,0.316136 -0.286015,0.382485 0.001,0.820595 0.437422,0.667588 0.360237,4.523275 -0.08855,4.423545 -0.159563,-0.03546 -0.377149,-0.07898 -0.483525,-0.09671 -0.106375,-0.01773 -0.177024,0.207109 -0.156998,0.499642 l 0.03641,0.531877 H 20.05086 c -1.793443,0 -2.239668,-0.05557 -2.329672,-0.290115 -0.06123,-0.159563 -0.22191,-0.290115 -0.357067,-0.290115 -0.135157,0 -0.354089,0.130552 -0.486515,0.290115 -0.200796,0.241946 -0.954036,0.290115 -4.53658,0.290115 -2.362694,0 -4.35383,-0.05802 -4.424747,-0.12894 z M 17.97458,49.038181 c 0.06959,-0.280787 0.950128,-1.361918 1.956749,-2.402513 1.782413,-1.842572 1.821223,-1.901933 1.485804,-2.272567 -0.189429,-0.209317 -0.430578,-0.380575 -0.535888,-0.380575 -0.10531,0 -1.074283,0.868732 -2.153274,1.930516 l -1.961802,1.930517 -1.826186,-1.833812 c -1.004403,-1.008596 -1.931562,-1.833811 -2.060355,-1.833811 -0.632342,0 -0.313606,0.533906 1.367512,2.290678 1.506769,1.574579 1.812843,1.994219 1.718279,2.355835 -0.154416,0.590486 0.315542,0.909203 1.190098,0.807103 0.556537,-0.06497 0.717381,-0.181103 0.819063,-0.591371 z"
       id="path4888"
       inkscape:connector-curvature="0" /><path
       style="opacity:1;fill:#ffe441;fill-opacity:1;stroke:#ac1000;stroke-width:0.00191466;stroke-miterlimit:4;stroke-dasharray:none;stroke-opacity:0.48128345"
       d="m 36.331639,11.858463 c -0.09951,-0.259308 1.988379,-5.136857 2.240258,-5.233512 0.52486,-0.201408 2.358527,0.716662 2.358527,1.180854 0,0.140661 -0.257635,0.7706 -0.572522,1.399865 -0.684529,1.367953 -1.72296,2.483199 -2.5176,2.703831 -0.75943,0.210855 -1.416697,0.18862 -1.508663,-0.05104 z"
       id="path4890"
       inkscape:connector-curvature="0" /><path
       style="opacity:1;fill:#ff6600;fill-opacity:1;stroke:#ac1000;stroke-width:0.00067693;stroke-miterlimit:4;stroke-dasharray:none;stroke-opacity:0.48128345"
       d="M 40.821496,6.477845 C 40.534677,6.305913 39.963214,6.085439 39.44476,5.946692 38.951827,5.814774 38.841787,5.743872 38.890718,5.589704 c 0.114254,-0.359982 1.462638,0.02752 2.001843,0.5753 0.390032,0.396233 0.351442,0.566111 -0.07107,0.312841 z"
       id="path4892"
       inkscape:connector-curvature="0" /><path
       style="opacity:1;fill:#ff6600;fill-opacity:1;stroke:#ac1000;stroke-width:0.00191466;stroke-miterlimit:4;stroke-dasharray:none;stroke-opacity:0.48128345"
       d="m 16.484173,59.703517 v -0.960773 l 7.373801,0.03763 c 4.05559,0.0207 7.420949,0.08482 7.478575,0.142484 0.30807,0.308298 -0.370512,0.391029 -3.447329,0.420288 -1.797256,0.01709 -3.341979,0.07714 -3.432717,0.133443 -0.09074,0.0563 -0.130311,0.192709 -0.08794,0.303129 0.06468,0.168564 0.588344,0.200762 3.265118,0.200762 1.753442,0 3.285425,0.03736 3.404405,0.08301 0.118981,0.04566 0.216328,0.159975 0.216328,0.25404 0,0.288895 -1.372544,0.346755 -8.225751,0.346755 h -6.54449 z"
       id="path4894"
       inkscape:connector-curvature="0" /><path
       style="opacity:1;fill:#ff3c00;fill-opacity:1;stroke:#ac1000;stroke-width:0.00191466;stroke-miterlimit:4;stroke-dasharray:none;stroke-opacity:0.48128345"
       d="m 13.919895,64.38984 c -0.971202,-0.05231 -0.929698,0.03931 -0.665399,-1.468985 l 0.167753,-0.95733 10.542192,-0.03503 10.542191,-0.03503 0.220171,0.974946 c 0.348511,1.543253 0.401797,1.460198 -0.976492,1.522018 -1.447409,0.06492 -18.623676,0.06441 -19.830416,-5.89e-4 z"
       id="path4896"
       inkscape:connector-curvature="0" /><path
       style="opacity:1;fill:#ffe441;fill-opacity:1;stroke:#ac1000;stroke-width:0.00191466;stroke-miterlimit:4;stroke-dasharray:none;stroke-opacity:0.48128345"
       d="M 10.823791,81.036391 6.344852,80.992371 V 73.90305 c 0,-4.890093 0.04763,-7.225958 0.153545,-7.529779 0.089,-0.255301 0.293959,-0.493843 0.487568,-0.567453 0.198987,-0.07565 7.135232,-0.126996 17.157304,-0.126996 h 16.82328 l 0.399764,0.399764 0.399765,0.399765 v 7.239243 7.239244 l -2.085613,0.06528 c -2.326906,0.07284 -21.912619,0.08252 -28.856674,0.01427 z m 23.54278,-0.775138 c 0.299698,-0.361113 -0.139301,-0.859404 -0.60104,-0.682218 -0.206331,0.07918 -0.283854,0.608966 -0.113968,0.778851 0.154561,0.154562 0.551001,0.100983 0.715008,-0.09663 z m 6.031892,0.07171 0.752188,-0.08905 0.117462,-1.179338 c 0.06544,-0.657046 0.06544,-2.019813 0,-3.077134 -0.109396,-1.767466 -0.136246,-1.897795 -0.390985,-1.897795 -0.262127,0 -0.276372,0.113968 -0.341904,2.73523 l -0.06838,2.73523 -2.666849,0.06838 c -2.552882,0.06546 -2.666849,0.08007 -2.666849,0.341903 0,0.214076 0.118894,0.291598 0.547045,0.356687 0.739147,0.112368 3.786672,0.116168 4.718272,0.0059 z m -5.222372,-3.693585 c 0.62757,-0.06287 1.051062,-0.174378 1.136574,-0.299259 0.207438,-0.302939 0.07297,-5.533011 -0.149132,-5.800633 -0.155119,-0.186907 -1.523109,-0.210776 -12.079854,-0.210776 -10.885739,0 -11.926337,0.01938 -12.155027,0.226338 -0.226133,0.204648 -0.250102,0.483931 -0.250102,2.914233 0,1.936688 0.04778,2.752062 0.170952,2.917493 0.147666,0.198324 0.524897,0.234921 2.76942,0.268677 5.854579,0.08805 19.625331,0.07728 20.557169,-0.01607 z"
       id="path4898"
       inkscape:connector-curvature="0" /><path
       style="opacity:1;fill:#ffc000;fill-opacity:1;stroke:#ac1000;stroke-width:0.00135387;stroke-miterlimit:4;stroke-dasharray:none;stroke-opacity:0.48128345"
       d="M 13.085208,73.487199 V 71.698157 H 24.01287 34.940532 v 1.789042 1.789042 H 24.01287 13.085208 Z m 18.764199,0.479869 c 0.26909,-0.286433 0.278888,-0.780352 0.01925,-0.970207 -0.219155,-0.160249 -1.630813,-0.186597 -9.997371,-0.186597 -6.582508,0 -6.839203,0.0067 -7.035287,0.184222 -0.251725,0.227867 -0.270172,0.741139 -0.03428,0.953689 0.09308,0.08387 0.321544,0.170682 0.507701,0.192922 0.186157,0.02224 3.931934,0.0474 8.323948,0.05591 l 7.985479,0.01548 z m 1.790003,0.0081 c 0.305867,-0.305866 0.302411,-0.673431 -0.0093,-0.985104 -0.190518,-0.190518 -0.306027,-0.232582 -0.507701,-0.18489 -0.599164,0.14169 -0.800932,0.848088 -0.344736,1.206932 0.334615,0.263208 0.571716,0.253044 0.861698,-0.03694 z"
       id="path4900"
       inkscape:connector-curvature="0" /></g></svg>