<?xml version="1.0" encoding="UTF-8" standalone="no"?>
<svg
   xmlns:dc="http://purl.org/dc/elements/1.1/"
   xmlns:cc="http://creativecommons.org/ns#"
   xmlns:rdf="http://www.w3.org/1999/02/22-rdf-syntax-ns#"
   xmlns:svg="http://www.w3.org/2000/svg"
   xmlns="http://www.w3.org/2000/svg"
   xmlns:sodipodi="http://sodipodi.sourceforge.net/DTD/sodipodi-0.dtd"
   xmlns:inkscape="http://www.inkscape.org/namespaces/inkscape"
   version="1.1"
   x="0px"
   y="0px"
   viewBox="-247 370.9 65.900002 77.963364"
   xml:space="preserve"
   id="svg76"
   sodipodi:docname="noun_659773_cc.svg"
   width="65.900002"
   height="77.963364"
   inkscape:version="0.92.0 unknown"><metadata
     id="metadata82"><rdf:RDF><cc:Work
         rdf:about=""><dc:format>image/svg+xml</dc:format><dc:type
           rdf:resource="http://purl.org/dc/dcmitype/StillImage" /></cc:Work></rdf:RDF></metadata><defs
     id="defs80" /><sodipodi:namedview
     pagecolor="#ffffff"
     bordercolor="#666666"
     borderopacity="1"
     objecttolerance="10"
     gridtolerance="10"
     guidetolerance="10"
     inkscape:pageopacity="0"
     inkscape:pageshadow="2"
     inkscape:window-width="1875"
     inkscape:window-height="1056"
     id="namedview78"
     showgrid="false"
     inkscape:zoom="7.552"
     inkscape:cx="26.645137"
     inkscape:cy="30.808103"
     inkscape:window-x="1411"
     inkscape:window-y="24"
     inkscape:window-maximized="1"
     inkscape:current-layer="svg76" /><g
     id="g70"
     transform="translate(-17.1,-11.036647)"><path
       d="m -188.2,433.9 -2.6,-5.6 -6.3,-1.6 V 424 h 30.6 c 0.7,0 1.2,-0.6 1.2,-1.2 0,-0.7 -0.6,-1.2 -1.2,-1.2 h -30.6 v -27.9 c 1.3,-0.6 4.2,-2.2 5.5,-4.4 0.9,-1.5 1.3,-2.8 1.2,-4 -0.1,-1.3 -0.7,-2.3 -1.7,-2.9 -1,-0.6 -2.2,-0.6 -3.4,-0.1 -1.1,0.5 -2.1,1.5 -2.9,3 -1.4,2.4 -1.3,5.8 -1.2,7.2 v 2.3 c -1.8,-1.9 -3.7,-1.9 -4.9,-1.2 v 0 c -1.6,0.9 -2.7,3.2 -0.6,6.9 1.3,2.3 4.2,3.9 5.5,4.6 v 16.6 h -29.1 c -0.7,0 -1.2,0.6 -1.2,1.2 0,0.7 0.6,1.2 1.2,1.2 h 29.1 v 2.5 c -0.1,0 -0.1,0 -0.2,0.1 l -4.6,2.8 -0.2,0.3 c -0.9,1.5 -1.3,2.4 -1.6,3.1 l -5.6,1.9 c -0.6,0.2 -1,0.9 -0.8,1.6 0.2,0.5 0.7,0.8 1.2,0.8 0.1,0 0.3,0 0.4,-0.1 l 5,-1.7 1.1,3.8 -5.9,9.2 c -0.4,0.6 -0.2,1.3 0.4,1.7 0.2,0.1 0.4,0.2 0.7,0.2 0.4,0 0.8,-0.2 1,-0.6 l 6.5,-10.1 -1.5,-5 h 0.1 l -0.3,-0.9 c 0.2,-0.4 0.7,-1.4 1.2,-2.4 l 3,-1.8 v 3.1 l -1.6,4.8 1.6,4.5 v 4.1 c 0,0.7 0.5,1.2 1.2,1.2 0,0 0,0 0,0 0.7,0 1.2,-0.5 1.2,-1.2 l 0.1,-4.5 -1.5,-4.1 0.8,-2.4 2.4,2.2 2.3,5.6 5,7 c 0.2,0.3 0.6,0.5 1,0.5 0.2,0 0.5,-0.1 0.7,-0.2 0.6,-0.4 0.7,-1.2 0.3,-1.7 l -4.8,-6.7 -2.4,-6 -3.8,-3.4 v -2.9 l 4.6,1.2 2.4,5.1 3.7,2.8 c 0.2,0.2 0.5,0.2 0.7,0.2 0.4,0 0.8,-0.2 1,-0.5 0.4,-0.5 0.3,-1.3 -0.3,-1.7 z m -8.1,-47.4 c 0.6,-1 1.2,-1.7 1.9,-2 0.2,-0.1 0.4,-0.1 0.6,-0.1 0.2,0 0.4,0.1 0.5,0.1 0.2,0.1 0.5,0.3 0.5,0.9 0,0.7 -0.3,1.6 -0.9,2.6 -0.7,1.2 -2.2,2.2 -3.4,2.9 v -0.2 c 0,-0.1 0,-0.1 0,-0.2 -0.1,-1.4 0.1,-2.9 0.8,-4 z m -6.7,12.6 c -1,-1.7 -1.1,-3.1 -0.3,-3.5 0.8,-0.4 1.9,0.4 2.8,2 0.7,1.2 0.9,3 0.9,4.4 -1.3,-0.6 -2.7,-1.7 -3.4,-2.9 z"
       id="path2"
       inkscape:connector-curvature="0" /><ellipse
       cx="-220"
       cy="433.5"
       rx="1.5"
       ry="1.7"
       id="ellipse4" /><ellipse
       cx="-225.7"
       cy="441.20001"
       rx="1.5"
       ry="1.7"
       id="ellipse6" /><ellipse
       cx="-215.7"
       cy="448.89999"
       rx="1.5"
       ry="1.7"
       id="ellipse8" /><ellipse
       cx="-218.39999"
       cy="441.20001"
       rx="1.5"
       ry="1.7"
       id="ellipse10" /><ellipse
       cx="-218.8"
       cy="427.60001"
       rx="1.5"
       ry="1.7"
       id="ellipse12" /><ellipse
       cx="-189.3"
       cy="458.20001"
       rx="1.5"
       ry="1.7"
       id="ellipse14" /><ellipse
       cx="-171.89999"
       cy="455.70001"
       rx="1.5"
       ry="1.7"
       id="ellipse16" /><ellipse
       cx="-167.10001"
       cy="457.39999"
       rx="1.5"
       ry="1.7"
       id="ellipse18" /><ellipse
       cx="-165.5"
       cy="452.39999"
       rx="1.5"
       ry="1.7"
       id="ellipse20" /><ellipse
       cx="-182.7"
       cy="458.20001"
       rx="1.5"
       ry="1.7"
       id="ellipse22" /><ellipse
       cx="-178.3"
       cy="455.20001"
       rx="1.5"
       ry="1.7"
       id="ellipse24" /><ellipse
       cx="-202.2"
       cy="451.29999"
       rx="1.5"
       ry="1.7"
       id="ellipse26" /><ellipse
       cx="-228.2"
       cy="448.89999"
       rx="1.5"
       ry="1.7"
       id="ellipse28" /><ellipse
       cx="-227.2"
       cy="431.79999"
       rx="1.5"
       ry="1.7"
       id="ellipse30" /><ellipse
       cx="-221.5"
       cy="449.60001"
       rx="1.5"
       ry="1.7"
       id="ellipse32" /><ellipse
       cx="-167.10001"
       cy="432.5"
       rx="1.5"
       ry="1.7"
       id="ellipse34" /><ellipse
       cx="-176.10001"
       cy="433.5"
       rx="1.5"
       ry="1.7"
       id="ellipse36" /><ellipse
       cx="-173.5"
       cy="442.89999"
       rx="1.5"
       ry="1.7"
       id="ellipse38" /><ellipse
       cx="-181.39999"
       cy="449.79999"
       rx="1.5"
       ry="1.7"
       id="ellipse40" /><ellipse
       cx="-211.3"
       cy="427.60001"
       rx="1.5"
       ry="1.7"
       id="ellipse42" /><ellipse
       cx="-185.7"
       cy="429.29999"
       rx="1.5"
       ry="1.7"
       id="ellipse44" /><ellipse
       cx="-178.8"
       cy="439.5"
       rx="1.5"
       ry="1.7"
       id="ellipse46" /><ellipse
       cx="-177.2"
       cy="427.60001"
       rx="1.5"
       ry="1.7"
       id="ellipse48" /><ellipse
       cx="-168.10001"
       cy="439.29999"
       rx="1.5"
       ry="1.7"
       id="ellipse50" /><ellipse
       cx="-168.10001"
       cy="447.20001"
       rx="1.5"
       ry="1.7"
       id="ellipse52" /><ellipse
       cx="-170.39999"
       cy="428.39999"
       rx="1.5"
       ry="1.7"
       id="ellipse54" /><ellipse
       cx="-175.3"
       cy="448.5"
       rx="1.5"
       ry="1.7"
       id="ellipse56" /><ellipse
       cx="-227.2"
       cy="456.89999"
       rx="1.5"
       ry="1.7"
       id="ellipse58" /><ellipse
       cx="-214.2"
       cy="457.39999"
       rx="1.5"
       ry="1.7"
       id="ellipse60" /><ellipse
       transform="matrix(-0.5056,-0.8628,0.8628,-0.5056,-704.3691,511.2567)"
       cx="-205.7"
       cy="457.39999"
       rx="1.7"
       ry="1.5"
       id="ellipse62" /><ellipse
       transform="matrix(-0.5056,-0.8628,0.8628,-0.5056,-682.0262,511.719)"
       cx="-194.39999"
       cy="451.29999"
       rx="1.7"
       ry="1.5"
       id="ellipse64" /><ellipse
       transform="matrix(-0.5056,-0.8628,0.8628,-0.5056,-691.4821,516.7766)"
       cx="-197.7"
       cy="456.5"
       rx="1.7"
       ry="1.5"
       id="ellipse66" /><ellipse
       cx="-220.89999"
       cy="456.5"
       rx="1.5"
       ry="1.7"
       id="ellipse68" /></g><path
     style="fill:#008000;fill-opacity:1;stroke:#001000;stroke-width:0.01324153;stroke-miterlimit:4;stroke-dasharray:none;stroke-opacity:1"
     d="m 29.271875,19.446785 c -1.191892,-0.770356 -2.091341,-1.751278 -2.612944,-2.849627 -0.855549,-1.801543 -0.704558,-2.96944 0.383902,-2.96944 1.108837,0 2.506157,1.776574 2.939958,3.737908 0.231687,1.047518 0.367633,2.618024 0.226622,2.618024 -0.0588,0 -0.480689,-0.241589 -0.937538,-0.536865 z"
     id="path84"
     inkscape:connector-curvature="0"
     transform="translate(-247,370.9)" /><path
     style="fill:#008000;fill-opacity:1;stroke:#001000;stroke-width:0.01324153;stroke-miterlimit:4;stroke-dasharray:none;stroke-opacity:1"
     d="m 32.842171,7.7516957 c 0,-1.3992149 0.309935,-2.4414641 1.075393,-3.6163344 0.7051,-1.0822286 1.418812,-1.6305245 2.122441,-1.6305245 0.791988,0 1.091953,0.3799845 1.00038,1.2672425 -0.152094,1.4736516 -1.242356,3.1208615 -2.789175,4.213993 -1.483732,1.0485484 -1.409039,1.0609728 -1.409039,-0.2343766 z"
     id="path86"
     inkscape:connector-curvature="0"
     transform="translate(-247,370.9)" /><path
     style="fill:#28170b;fill-opacity:1;stroke:#001000;stroke-width:0.01324153;stroke-miterlimit:4;stroke-dasharray:none;stroke-opacity:1"
     d="m 1.82793,51.190262 c -0.7908016,-0.73289 -0.763636,-1.983785 0.058098,-2.675228 0.3494079,-0.294008 0.5109685,-0.342658 0.9447193,-0.28448 0.9375164,0.125748 1.4848718,1.024624 1.2631006,2.074284 -0.2220008,1.050748 -1.5342443,1.563516 -2.2659179,0.885424 z"
     id="path88"
     inkscape:connector-curvature="0"
     transform="translate(-247,370.9)" /><path
     style="fill:#28170b;fill-opacity:1;stroke:#001000;stroke-width:0.01324153;stroke-miterlimit:4;stroke-dasharray:none;stroke-opacity:1"
     d="M 3.2183857,60.434017 C 2.7696424,59.985274 2.7545699,59.938613 2.8101513,59.170208 c 0.070197,-0.97046 0.443886,-1.429904 1.2510714,-1.538171 0.4322398,-0.05797 0.5954073,-0.0094 0.938272,0.279055 0.817375,0.687775 0.8861529,1.85299 0.1526691,2.586474 -0.5907817,0.590782 -1.302848,0.567381 -1.9337781,-0.06355 z"
     id="path90"
     inkscape:connector-curvature="0"
     transform="translate(-247,370.9)" /><path
     style="fill:#28170b;fill-opacity:1;stroke:#001000;stroke-width:0.01324153;stroke-miterlimit:4;stroke-dasharray:none;stroke-opacity:1"
     d="m 0.71823066,68.129837 c -0.38290321,-0.382903 -0.45021187,-0.54226 -0.45021187,-1.065898 0,-1.150378 0.72869663,-1.910612 1.66329461,-1.73528 0.4781001,0.08969 1.0660846,0.683459 1.1982454,1.210029 0.1333285,0.531224 -0.07676,1.263181 -0.4776175,1.664039 -0.5621597,0.562159 -1.3275105,0.53331 -1.93371064,-0.07289 z"
     id="path92"
     inkscape:connector-curvature="0"
     transform="translate(-247,370.9)" /><path
     style="fill:#28170b;fill-opacity:1;stroke:#001000;stroke-width:0.01324153;stroke-miterlimit:4;stroke-dasharray:none;stroke-opacity:1"
     d="m 7.7084087,69.106315 c -1.1620706,-0.708495 -0.960585,-2.670696 0.3108401,-3.027168 0.5951216,-0.166855 1.2556972,0.09697 1.5624594,0.624031 0.5171788,0.888584 0.1940356,2.132586 -0.645032,2.483171 -0.5883542,0.24583 -0.706404,0.238138 -1.2282675,-0.08003 z"
     id="path94"
     inkscape:connector-curvature="0"
     transform="translate(-247,370.9)" /><path
     style="fill:#28170b;fill-opacity:1;stroke:#001000;stroke-width:0.01324153;stroke-miterlimit:4;stroke-dasharray:none;stroke-opacity:1"
     d="M 2.2542476,76.563864 C 1.8833279,76.428272 1.4679528,75.957908 1.3180662,75.503747 1.1142678,74.886232 1.2609938,74.240521 1.7157259,73.753729 c 0.3133975,-0.335493 0.480802,-0.405993 0.95579,-0.40252 0.8933106,0.0065 1.4365453,0.594412 1.4365453,1.554603 0,1.19279 -0.9071217,2.00412 -1.8538136,1.658052 z"
     id="path96"
     inkscape:connector-curvature="0"
     transform="translate(-247,370.9)" /><path
     style="fill:#28170b;fill-opacity:1;stroke:#001000;stroke-width:0.01324153;stroke-miterlimit:4;stroke-dasharray:none;stroke-opacity:1"
     d="M 8.3381207,76.065537 C 7.4344327,75.573996 7.2826694,74.021303 8.0695894,73.31819 c 0.7216403,-0.644786 1.7450307,-0.445601 2.1965376,0.427516 0.424051,0.820026 0.102364,1.94382 -0.6599729,2.305573 -0.5332182,0.253028 -0.8230686,0.256288 -1.2680334,0.01426 z"
     id="path98"
     inkscape:connector-curvature="0"
     transform="translate(-247,370.9)" /><path
     style="fill:#28170b;fill-opacity:1;stroke:#001000;stroke-width:0.01324153;stroke-miterlimit:4;stroke-dasharray:none;stroke-opacity:1"
     d="m 15.1402,76.99323 c -1.227713,-0.533969 -1.125189,-2.693427 0.147823,-3.113559 0.962622,-0.317694 1.847662,0.441995 1.847662,1.585971 0,0.76848 -0.304661,1.277702 -0.917674,1.533836 -0.539088,0.225245 -0.545643,0.225207 -1.077811,-0.0062 z"
     id="path100"
     inkscape:connector-curvature="0"
     transform="translate(-247,370.9)" /><path
     style="fill:#28170b;fill-opacity:1;stroke:#001000;stroke-width:0.01324153;stroke-miterlimit:4;stroke-dasharray:none;stroke-opacity:1"
     d="m 13.244266,68.202727 c -0.400857,-0.400858 -0.610946,-1.132815 -0.477618,-1.664039 0.132161,-0.52657 0.720146,-1.120337 1.198246,-1.210029 0.934598,-0.175332 1.663294,0.584902 1.663294,1.73528 0,0.523638 -0.06731,0.682995 -0.450212,1.065898 -0.6062,0.6062 -1.371551,0.635049 -1.93371,0.07289 z"
     id="path102"
     inkscape:connector-curvature="0"
     transform="translate(-247,370.9)" /><path
     style="fill:#28170b;fill-opacity:1;stroke:#001000;stroke-width:0.01324153;stroke-miterlimit:4;stroke-dasharray:none;stroke-opacity:1"
     d="m 10.581485,60.527958 c -0.7955272,-0.710804 -0.6392068,-2.264539 0.27542,-2.737511 0.752458,-0.389112 1.543991,-0.123022 1.9065,0.64091 0.265034,0.558519 0.274147,1.014939 0.03184,1.594855 -0.389797,0.932916 -1.459783,1.175427 -2.213763,0.501746 z"
     id="path104"
     inkscape:connector-curvature="0"
     transform="translate(-247,370.9)" /><path
     style="fill:#28170b;fill-opacity:1;stroke:#001000;stroke-width:0.01324153;stroke-miterlimit:4;stroke-dasharray:none;stroke-opacity:1"
     d="M 8.986284,52.842317 C 8.6170993,52.512451 8.5563018,52.362219 8.5050068,51.653073 c -0.05675,-0.784565 -0.043145,-0.827248 0.4072349,-1.277628 0.3357379,-0.335738 0.5824948,-0.465947 0.8830096,-0.465947 0.6065127,0 1.1318857,0.320661 1.3791707,0.841774 0.766747,1.615799 -0.918067,3.225854 -2.188138,2.091045 z"
     id="path106"
     inkscape:connector-curvature="0"
     transform="translate(-247,370.9)" /><path
     style="fill:#28170b;fill-opacity:1;stroke:#001000;stroke-width:0.01324153;stroke-miterlimit:4;stroke-dasharray:none;stroke-opacity:1"
     d="m 10.768291,47.299359 c -0.160364,-0.03021 -0.473195,-0.261776 -0.69518,-0.514603 -0.3246765,-0.369786 -0.4036091,-0.578734 -0.4036091,-1.06842 0,-1.54137 1.5308211,-2.303719 2.4448041,-1.217513 1.002344,1.191218 0.09813,3.072542 -1.346015,2.800536 z"
     id="path108"
     inkscape:connector-curvature="0"
     transform="translate(-247,370.9)" /><path
     style="fill:#28170b;fill-opacity:1;stroke:#001000;stroke-width:0.01324153;stroke-miterlimit:4;stroke-dasharray:none;stroke-opacity:1"
     d="m 18.151543,47.210768 c -0.645165,-0.214323 -0.985301,-0.739875 -0.985301,-1.522415 0,-0.757779 0.271037,-1.241893 0.868167,-1.550681 1.083397,-0.560246 2.308635,0.686756 1.950212,1.984854 -0.259824,0.941006 -0.983326,1.370527 -1.833078,1.088242 z"
     id="path110"
     inkscape:connector-curvature="0"
     transform="translate(-247,370.9)" /><path
     style="fill:#28170b;fill-opacity:1;stroke:#001000;stroke-width:0.01324153;stroke-miterlimit:4;stroke-dasharray:none;stroke-opacity:1"
     d="m 23.604997,76.929751 c -0.657027,-0.410987 -0.98471,-1.021133 -0.915186,-1.704081 0.151239,-1.485652 1.823333,-1.755208 2.702255,-0.435626 0.89175,1.338841 -0.466853,2.965535 -1.787069,2.139707 z"
     id="path112"
     inkscape:connector-curvature="0"
     transform="translate(-247,370.9)" /><path
     style="fill:#28170b;fill-opacity:1;stroke:#001000;stroke-width:0.01324153;stroke-miterlimit:4;stroke-dasharray:none;stroke-opacity:1"
     d="m 27.141149,70.860225 c -0.869003,-0.433733 -1.167576,-1.608016 -0.616863,-2.426113 0.436882,-0.648999 0.923747,-0.852109 1.574902,-0.657019 0.669584,0.200613 1.034189,0.775777 1.034861,1.632496 4.24e-4,0.531801 -0.06711,0.701436 -0.429854,1.079807 -0.539377,0.562616 -0.972781,0.66544 -1.563046,0.370829 z"
     id="path114"
     inkscape:connector-curvature="0"
     transform="translate(-247,370.9)" /><path
     style="fill:#28170b;fill-opacity:1;stroke:#001000;stroke-width:0.01324153;stroke-miterlimit:4;stroke-dasharray:none;stroke-opacity:1"
     d="m 31.838257,76.138009 c -0.363583,-0.155219 -0.961625,-0.874866 -1.063134,-1.279312 -0.232552,-0.926561 0.3905,-1.836718 1.257334,-1.836718 1.407186,0 2.270863,1.837194 1.313663,2.794395 -0.350834,0.350834 -1.07676,0.505678 -1.507863,0.321635 z"
     id="path116"
     inkscape:connector-curvature="0"
     transform="translate(-247,370.9)" /><path
     style="fill:#28170b;fill-opacity:1;stroke:#001000;stroke-width:0.01324153;stroke-miterlimit:4;stroke-dasharray:none;stroke-opacity:1"
     d="m 34.968981,70.721566 c -0.862611,-0.462623 -1.214548,-1.750507 -0.668171,-2.445112 0.146795,-0.186621 0.474878,-0.407949 0.729071,-0.49184 0.38864,-0.128263 0.539688,-0.113987 0.949395,0.08973 0.718329,0.357164 1.033976,0.861842 1.033976,1.653187 0,0.581763 -0.05312,0.710689 -0.432439,1.049612 -0.503214,0.449622 -0.965522,0.491047 -1.611832,0.144427 z"
     id="path118"
     inkscape:connector-curvature="0"
     transform="translate(-247,370.9)" /><path
     style="fill:#28170b;fill-opacity:1;stroke:#001000;stroke-width:0.01324153;stroke-miterlimit:4;stroke-dasharray:none;stroke-opacity:1"
     d="m 40.034268,77.790726 c -1.169795,-0.517112 -1.139839,-2.575395 0.04469,-3.070321 1.212798,-0.506739 2.385388,0.83882 1.88248,2.160166 -0.320429,0.841898 -1.171894,1.244026 -1.927165,0.910155 z"
     id="path120"
     inkscape:connector-curvature="0"
     transform="translate(-247,370.9)" /><path
     style="fill:#28170b;fill-opacity:1;stroke:#001000;stroke-width:0.01324153;stroke-miterlimit:4;stroke-dasharray:none;stroke-opacity:1"
     d="m 46.656456,77.78832 c -0.592563,-0.257752 -0.888519,-0.77215 -0.888519,-1.54433 0,-0.779902 0.333573,-1.294393 1.004884,-1.549895 0.39269,-0.149459 0.533355,-0.146069 0.936993,0.02258 1.211501,0.506197 1.227987,2.573828 0.02453,3.076663 -0.540575,0.225867 -0.547161,0.225836 -1.07789,-0.005 z"
     id="path122"
     inkscape:connector-curvature="0"
     transform="translate(-247,370.9)" /><path
     style="fill:#28170b;fill-opacity:1;stroke:#001000;stroke-width:0.01324153;stroke-miterlimit:4;stroke-dasharray:none;stroke-opacity:1"
     d="m 51.034454,74.806205 c -0.542471,-0.219183 -0.845884,-0.777494 -0.845884,-1.556514 0,-0.646441 0.04804,-0.771712 0.450212,-1.17388 0.726516,-0.726516 1.805093,-0.538517 2.246445,0.391563 0.264247,0.55686 0.271945,0.887795 0.0339,1.457513 -0.345363,0.826571 -1.121688,1.189599 -1.884673,0.881318 z"
     id="path124"
     inkscape:connector-curvature="0"
     transform="translate(-247,370.9)" /><path
     style="fill:#28170b;fill-opacity:1;stroke:#001000;stroke-width:0.01324153;stroke-miterlimit:4;stroke-dasharray:none;stroke-opacity:1"
     d="m 47.789401,69.307924 c -0.396368,-0.215403 -0.778797,-0.930452 -0.778797,-1.456159 0,-0.567107 0.372996,-1.203183 0.859041,-1.464935 1.01017,-0.544013 2.054094,0.25082 2.054094,1.563966 0,0.569185 -0.05942,0.715159 -0.450212,1.105948 -0.501151,0.501151 -1.068453,0.585762 -1.684126,0.25118 z"
     id="path126"
     inkscape:connector-curvature="0"
     transform="translate(-247,370.9)" /><path
     style="fill:#28170b;fill-opacity:1;stroke:#001000;stroke-width:0.01324153;stroke-miterlimit:4;stroke-dasharray:none;stroke-opacity:1"
     d="m 53.628019,67.781974 c -0.652681,-0.698697 -0.669856,-1.63437 -0.04366,-2.378561 0.415689,-0.494018 1.060069,-0.630189 1.617663,-0.341846 0.530044,0.274096 0.812819,0.832511 0.812819,1.605126 0,0.523638 -0.06731,0.682995 -0.450212,1.065898 -0.36904,0.36904 -0.550454,0.450212 -1.006196,0.450212 -0.448124,0 -0.628622,-0.07776 -0.930414,-0.400829 z"
     id="path128"
     inkscape:connector-curvature="0"
     transform="translate(-247,370.9)" /><path
     style="fill:#28170b;fill-opacity:1;stroke:#001000;stroke-width:0.01324153;stroke-miterlimit:4;stroke-dasharray:none;stroke-opacity:1"
     d="m 57.381497,75.252017 c -1.399962,-0.690401 -0.918519,-3.096756 0.619573,-3.096756 1.552011,0 2.020499,2.426852 0.598728,3.101526 -0.542992,0.257667 -0.687291,0.257102 -1.218301,-0.0048 z"
     id="path130"
     inkscape:connector-curvature="0"
     transform="translate(-247,370.9)" /><path
     style="fill:#28170b;fill-opacity:1;stroke:#001000;stroke-width:0.01324153;stroke-miterlimit:4;stroke-dasharray:none;stroke-opacity:1"
     d="m 62.238358,76.955108 c -1.225338,-0.612125 -1.170473,-2.504057 0.08786,-3.029823 0.37212,-0.155481 0.556469,-0.163735 0.926856,-0.0415 1.250173,0.412594 1.315924,2.52389 0.09662,3.102489 -0.528532,0.250805 -0.547977,0.250259 -1.111336,-0.03117 z"
     id="path134"
     inkscape:connector-curvature="0"
     transform="translate(-247,370.9)" /><path
     style="fill:#28170b;fill-opacity:1;stroke:#001000;stroke-width:0.01324153;stroke-miterlimit:4;stroke-dasharray:none;stroke-opacity:1"
     d="m 63.959756,72.061745 c -0.37092,-0.135591 -0.786295,-0.605955 -0.936181,-1.060116 -0.203799,-0.617516 -0.05707,-1.263226 0.397659,-1.750019 0.315144,-0.337362 0.481462,-0.406731 0.975177,-0.406731 0.515597,0 0.650215,0.06262 1.006196,0.468061 1.055246,1.20186 -0.02819,3.265942 -1.442851,2.748805 z"
     id="path136"
     inkscape:connector-curvature="0"
     transform="translate(-247,370.9)" /><path
     style="fill:#28170b;fill-opacity:1;stroke:#001000;stroke-width:0.01324153;stroke-miterlimit:4;stroke-dasharray:none;stroke-opacity:1"
     d="m 61.576282,66.903397 c -0.848293,-0.273812 -1.192032,-0.752887 -1.191243,-1.660258 10e-4,-1.199864 1.030113,-1.990418 1.962988,-1.50801 1.362711,0.704686 1.159927,2.785968 -0.308292,3.164163 -0.145657,0.03752 -0.354211,0.03937 -0.463453,0.0041 z"
     id="path138"
     inkscape:connector-curvature="0"
     transform="translate(-247,370.9)" /><path
     style="fill:#28170b;fill-opacity:1;stroke:#001000;stroke-width:0.01324153;stroke-miterlimit:4;stroke-dasharray:none;stroke-opacity:1"
     d="m 55.783951,62.48513 c -0.707253,-0.284345 -1.048261,-1.570462 -0.630566,-2.378195 0.731584,-1.414727 2.715269,-0.786997 2.715269,0.859237 0,1.170021 -1.049893,1.934995 -2.084703,1.518958 z"
     id="path140"
     inkscape:connector-curvature="0"
     transform="translate(-247,370.9)" /><path
     style="fill:#28170b;fill-opacity:1;stroke:#001000;stroke-width:0.01324153;stroke-miterlimit:4;stroke-dasharray:none;stroke-opacity:1"
     d="m 50.173646,58.806559 c -0.805632,-0.719832 -0.638087,-2.265118 0.298082,-2.749229 1.184695,-0.61263 2.431934,0.722086 1.973315,2.111717 -0.338589,1.025936 -1.478578,1.345896 -2.271397,0.637512 z"
     id="path142"
     inkscape:connector-curvature="0"
     transform="translate(-247,370.9)" /><path
     style="fill:#28170b;fill-opacity:1;stroke:#001000;stroke-width:0.01324153;stroke-miterlimit:4;stroke-dasharray:none;stroke-opacity:1"
     d="m 61.147597,58.838869 c -0.486031,-0.263717 -0.763053,-0.839864 -0.763053,-1.58699 0,-0.523638 0.06731,-0.682995 0.450212,-1.065898 0.36904,-0.36904 0.550454,-0.450212 1.006196,-0.450212 1.413977,0 1.935236,1.999285 0.775653,2.97501 -0.447936,0.376914 -0.93255,0.41917 -1.469008,0.12809 z"
     id="path144"
     inkscape:connector-curvature="0"
     transform="translate(-247,370.9)" /><path
     style="fill:#28170b;fill-opacity:1;stroke:#001000;stroke-width:0.01324153;stroke-miterlimit:4;stroke-dasharray:none;stroke-opacity:1"
     d="m 62.236971,52.060102 c -1.20347,-0.600562 -1.164599,-2.458183 0.06403,-3.060084 0.540157,-0.26462 1.325228,-0.004 1.664591,0.552551 0.849064,1.392505 -0.382642,3.179213 -1.728623,2.507533 z"
     id="path146"
     inkscape:connector-curvature="0"
     transform="translate(-247,370.9)" /><path
     style="fill:#28170b;fill-opacity:1;stroke:#001000;stroke-width:0.01324153;stroke-miterlimit:4;stroke-dasharray:none;stroke-opacity:1"
     d="m 58.927976,47.956167 c -1.225337,-0.612125 -1.170473,-2.504057 0.08786,-3.029823 0.372119,-0.155481 0.556468,-0.163735 0.926855,-0.0415 1.245837,0.411163 1.320769,2.60761 0.10627,3.11506 -0.563817,0.235578 -0.561687,0.235661 -1.120988,-0.04374 z"
     id="path148"
     inkscape:connector-curvature="0"
     transform="translate(-247,370.9)" /><path
     style="fill:#28170b;fill-opacity:1;stroke:#001000;stroke-width:0.01324153;stroke-miterlimit:4;stroke-dasharray:none;stroke-opacity:1"
     d="m 52.358558,47.300916 c -0.153832,-0.02935 -0.451766,-0.232966 -0.662076,-0.452483 -0.333487,-0.348085 -0.382383,-0.499277 -0.382383,-1.182372 0,-0.70694 0.04188,-0.825133 0.429887,-1.213136 0.596901,-0.596901 1.316985,-0.603962 1.902293,-0.01865 1.117978,1.117977 0.204569,3.151351 -1.287721,2.866645 z"
     id="path150"
     inkscape:connector-curvature="0"
     transform="translate(-247,370.9)" /><path
     style="fill:#28170b;fill-opacity:1;stroke:#001000;stroke-width:0.01324153;stroke-miterlimit:4;stroke-dasharray:none;stroke-opacity:1"
     d="m 53.086011,53.020847 c -0.396368,-0.215402 -0.778797,-0.930451 -0.778797,-1.456158 0,-0.541668 0.388394,-1.246567 0.805771,-1.462401 0.632375,-0.327014 1.153699,-0.246031 1.657152,0.257422 0.406693,0.406693 0.450212,0.52317 0.450212,1.204979 0,0.681808 -0.04352,0.798285 -0.450212,1.204978 -0.501151,0.501152 -1.068452,0.585763 -1.684126,0.25118 z"
     id="path152"
     inkscape:connector-curvature="0"
     transform="translate(-247,370.9)" /><path
     style="fill:#28170b;fill-opacity:1;stroke:#001000;stroke-width:0.01324153;stroke-miterlimit:4;stroke-dasharray:none;stroke-opacity:1"
     d="m 50.757698,59.216732 c -0.160364,-0.03021 -0.473195,-0.261776 -0.69518,-0.514603 -0.322394,-0.367187 -0.403609,-0.579983 -0.403609,-1.057522 0,-0.745701 0.285234,-1.314453 0.790157,-1.575558 0.752459,-0.389112 1.543991,-0.123022 1.9065,0.640909 0.621819,1.310386 -0.296968,2.7518 -1.597868,2.506774 z"
     id="path154"
     inkscape:connector-curvature="0"
     transform="translate(-247,370.9)" /><path
     style="fill:#28170b;fill-opacity:1;stroke:#001000;stroke-width:0.01324153;stroke-miterlimit:4;stroke-dasharray:none;stroke-opacity:1"
     d="m 43.223527,48.532379 c -0.382903,-0.382903 -0.450212,-0.542259 -0.450212,-1.065898 0,-1.150378 0.728697,-1.910611 1.663295,-1.73528 0.4781,0.08969 1.066085,0.683459 1.198245,1.21003 0.133329,0.531223 -0.07676,1.263181 -0.477617,1.664038 -0.56216,0.56216 -1.327511,0.53331 -1.933711,-0.07289 z"
     id="path156"
     inkscape:connector-curvature="0"
     transform="translate(-247,370.9)" /></svg>