<?xml version="1.0" encoding="UTF-8" standalone="no"?>
<svg
   xmlns:dc="http://purl.org/dc/elements/1.1/"
   xmlns:cc="http://creativecommons.org/ns#"
   xmlns:rdf="http://www.w3.org/1999/02/22-rdf-syntax-ns#"
   xmlns:svg="http://www.w3.org/2000/svg"
   xmlns="http://www.w3.org/2000/svg"
   xmlns:sodipodi="http://sodipodi.sourceforge.net/DTD/sodipodi-0.dtd"
   xmlns:inkscape="http://www.inkscape.org/namespaces/inkscape"
   version="1.1"
   x="0px"
   y="0px"
   viewBox="0 0 73.984123 76.754707"
   enable-background="new 0 0 90 90"
   xml:space="preserve"
   id="svg108"
   sodipodi:docname="book_of_ester_tune.svg"
   width="73.984123"
   height="76.754707"
   inkscape:version="0.92.0 unknown"><metadata
     id="metadata114"><rdf:RDF><cc:Work
         rdf:about=""><dc:format>image/svg+xml</dc:format><dc:type
           rdf:resource="http://purl.org/dc/dcmitype/StillImage" /></cc:Work></rdf:RDF></metadata><defs
     id="defs112" /><sodipodi:namedview
     pagecolor="#ffffff"
     bordercolor="#666666"
     borderopacity="1"
     objecttolerance="10"
     gridtolerance="10"
     guidetolerance="10"
     inkscape:pageopacity="0"
     inkscape:pageshadow="2"
     inkscape:window-width="1875"
     inkscape:window-height="1056"
     id="namedview110"
     showgrid="false"
     inkscape:zoom="11.313708"
     inkscape:cx="29.722992"
     inkscape:cy="36.273795"
     inkscape:window-x="1411"
     inkscape:window-y="24"
     inkscape:window-maximized="1"
     inkscape:current-layer="svg108" /><g
     transform="translate(-8.007244,-6.6232954)"
     id="g102"><path
       style="fill:#000000"
       inkscape:connector-curvature="0"
       d="M 79.092,22.157 C 77.631,21.186 75.76,20.418 73.684,19.924 l 0.637,-4.705 c 0.133,-0.982 -0.676,-1.905 -1.803,-2.059 l -0.744,-0.101 c -1.125,-0.151 -2.15,0.523 -2.284,1.505 l -0.643,4.75 c -1.992,-0.035 -3.863,0.205 -5.43,0.721 -1.82,0.6 -3.073,1.519 -3.654,2.639 L 31.665,18.938 C 31.371,16.752 29.257,14.722 26.262,13.667 L 26.921,8.803 C 26.988,8.31 26.825,7.821 26.463,7.427 26.125,7.059 25.647,6.817 25.118,6.745 L 24.375,6.644 C 23.25,6.495 22.224,7.166 22.09,8.148 l -0.646,4.775 c -3.907,0.112 -7.053,1.978 -7.416,4.656 l -5.923,43.563 0.087,0.012 c -0.066,0.209 -0.12,0.423 -0.149,0.644 -0.35,2.59 1.897,5.129 5.533,6.349 l -0.891,6.582 c -0.067,0.494 0.096,0.982 0.458,1.377 0.338,0.367 0.816,0.609 1.345,0.682 l 0.743,0.1 c 0.108,0.016 0.215,0.022 0.322,0.022 0.417,0 0.818,-0.11 1.156,-0.321 0.454,-0.283 0.74,-0.711 0.807,-1.205 l 0.885,-6.539 c 3.919,-0.141 6.932,-2.025 7.288,-4.658 0.02,-0.145 0.021,-0.289 0.024,-0.434 l 27.781,3.76 0.067,-0.497 0.152,0.021 c -0.134,0.291 -0.236,0.591 -0.279,0.905 -0.366,2.713 2.878,5.463 7.915,6.758 l -0.879,6.498 c -0.133,0.981 0.676,1.904 1.803,2.059 l 0.744,0.1 c 0.106,0.015 0.212,0.021 0.316,0.021 0.995,0 1.847,-0.637 1.968,-1.525 l 0.874,-6.458 c 0.248,0.009 0.496,0.019 0.738,0.019 4.965,0 8.709,-1.787 9.064,-4.418 0.033,-0.244 0.027,-0.489 0.004,-0.734 l 0.094,0.014 0.975,-7.198 0.066,-0.025 C 77.102,63.021 77.081,62.99 77.065,62.958 l 0.723,-5.33 0.066,-0.026 C 77.84,57.57 77.819,57.539 77.803,57.508 l 0.723,-5.331 0.064,-0.025 C 78.578,52.12 78.557,52.089 78.541,52.058 l 0.721,-5.331 0.066,-0.026 C 79.316,46.67 79.295,46.638 79.279,46.607 L 80,41.277 80.066,41.252 c -0.014,-0.033 -0.035,-0.063 -0.051,-0.095 l 0.723,-5.33 0.066,-0.026 C 80.79,35.769 80.769,35.738 80.753,35.707 l 0.721,-5.33 0.066,-0.026 c -0.012,-0.032 -0.033,-0.063 -0.049,-0.094 l 0.471,-3.476 c 0.22,-1.606 -0.802,-3.246 -2.87,-4.624 z M 70.48,14.699 c 0.059,-0.428 0.589,-0.722 1.16,-0.647 l 0.742,0.101 c 0.424,0.058 0.77,0.308 0.896,0.609 l -1.363,-0.185 -0.135,0.991 1.457,0.197 -0.379,2.787 -1.454,-0.197 -0.135,0.991 1.456,0.197 -0.023,0.173 C 72.296,19.638 71.886,19.568 71.469,19.512 70.924,19.438 70.384,19.391 69.85,19.357 Z m -11.06,9.023 -0.189,1.347 -2.646,-0.358 -0.134,0.991 2.639,0.357 -0.393,2.785 -2.623,-0.355 -0.135,0.991 2.618,0.354 -0.394,2.784 -2.603,-0.352 -0.134,0.991 2.597,0.351 -0.394,2.785 -2.58,-0.349 -0.134,0.991 2.574,0.348 -0.394,2.785 -2.559,-0.346 -0.134,0.992 2.553,0.345 -0.393,2.784 -2.538,-0.343 -0.134,0.991 2.532,0.343 -0.394,2.784 -2.516,-0.34 -0.134,0.99 2.51,0.34 -0.394,2.785 -2.494,-0.338 -0.134,0.992 2.488,0.336 -0.394,2.785 -2.472,-0.335 -0.134,0.991 2.466,0.334 -0.393,2.784 -2.451,-0.331 -0.134,0.99 2.445,0.331 -0.387,2.788 -2.43,-0.329 -0.134,0.992 2.424,0.328 -0.378,2.675 -27.502,-3.722 5.792,-42.795 c 10e-4,-0.007 0,-0.014 10e-4,-0.021 l 27.765,3.692 c -0.003,0.028 -0.014,0.054 -0.018,0.082 z M 23.081,8.283 C 23.139,7.855 23.67,7.56 24.241,7.636 l 0.743,0.101 c 0.293,0.04 0.564,0.174 0.743,0.368 0.069,0.075 0.114,0.157 0.149,0.239 l -1.442,-0.195 -0.135,0.991 1.538,0.208 -0.377,2.787 -1.538,-0.208 -0.134,0.991 1.537,0.208 -0.033,0.244 c -0.535,-0.142 -1.09,-0.256 -1.665,-0.334 -0.397,-0.054 -0.789,-0.083 -1.176,-0.102 z m -8.062,9.431 c 0.354,-2.618 4.157,-4.274 8.475,-3.688 3.859,0.522 6.837,2.66 7.175,4.977 l -0.143,1.056 C 30.068,19.632 29.36,19.177 28.236,18.9 l -0.239,0.971 c 1.938,0.477 2.319,1.506 2.334,1.55 l 0.011,-0.004 -0.15,1.11 c -1.223,-0.79 -3.159,-1.281 -3.651,-1.397 l -0.229,0.974 c 1.478,0.348 3.162,0.996 3.729,1.544 l -0.252,1.861 C 29.331,25.082 28.623,24.627 27.498,24.35 l -0.239,0.971 c 1.938,0.477 2.319,1.505 2.334,1.549 l 0.012,-0.004 -0.079,0.584 C 26.572,25.504 21.984,25.764 21.77,25.776 l 0.064,0.998 c 0.052,-0.003 4.939,-0.278 7.541,1.798 l -0.196,1.449 c -2.955,-1.946 -7.542,-1.686 -7.756,-1.673 l 0.063,0.998 c 0.051,-0.004 4.938,-0.28 7.541,1.797 l -0.196,1.449 c -2.954,-1.947 -7.542,-1.686 -7.757,-1.674 l 0.064,0.998 c 0.051,-0.004 4.939,-0.279 7.541,1.798 l -0.196,1.449 C 25.529,33.216 20.941,33.478 20.727,33.49 l 0.064,0.998 c 0.051,-0.006 4.938,-0.28 7.541,1.797 l -0.196,1.449 C 25.182,35.787 20.594,36.047 20.38,36.06 l 0.063,0.998 c 0.051,-0.005 4.938,-0.279 7.541,1.798 l -0.196,1.448 C 24.834,38.358 20.246,38.617 20.031,38.63 l 0.064,0.998 c 0.05,-0.007 4.936,-0.283 7.541,1.798 l -0.196,1.448 c -2.955,-1.946 -7.542,-1.685 -7.757,-1.673 l 0.064,0.998 c 0.051,-0.005 4.938,-0.279 7.541,1.797 l -0.196,1.449 C 24.137,43.498 19.55,43.758 19.336,43.771 l 0.063,0.998 c 0.051,-0.005 4.938,-0.279 7.541,1.798 l -0.196,1.448 C 23.79,46.07 19.202,46.329 18.988,46.342 l 0.063,0.998 c 0.052,-0.005 4.935,-0.283 7.541,1.796 l -0.086,0.641 c -1.223,-0.789 -3.159,-1.281 -3.651,-1.396 l -0.229,0.973 c 1.478,0.349 3.161,0.996 3.729,1.546 l -0.252,1.86 c -0.458,-0.427 -1.167,-0.882 -2.291,-1.158 l -0.238,0.971 c 1.937,0.477 2.318,1.506 2.334,1.549 l 0.011,-0.003 -0.15,1.109 c -1.223,-0.789 -3.159,-1.28 -3.651,-1.396 l -0.229,0.974 c 1.478,0.348 3.161,0.994 3.729,1.545 l -0.252,1.861 C 24.908,57.784 24.2,57.329 23.076,57.053 l -0.239,0.971 c 1.938,0.477 2.319,1.506 2.334,1.55 l 0.011,-0.004 -0.228,1.679 C 23.683,59.285 20.957,57.7 17.646,57.252 14.22,56.788 11.077,57.666 9.364,59.329 Z m 2.267,51.906 -0.335,2.478 -1.647,-0.224 -0.134,0.992 1.647,0.223 -0.176,1.297 c -0.225,-0.231 -0.532,-0.398 -0.892,-0.447 l -0.916,-0.123 c -0.389,-0.053 -0.759,0.039 -1.047,0.23 l 1.722,-12.721 c 0.481,-0.096 1.024,-0.121 1.59,-0.045 0.456,0.063 0.884,0.184 1.27,0.348 l -0.009,0.064 -1.647,-0.223 -0.134,0.99 1.647,0.224 -0.335,2.478 -1.647,-0.223 -0.135,0.99 1.647,0.224 -0.335,2.477 -1.648,-0.223 -0.134,0.991 z m -3.089,-6.074 c -0.273,-0.313 -0.42,-0.648 -0.377,-0.967 0.045,-0.336 0.275,-0.626 0.624,-0.852 z M 19.3,62.191 c 0.276,0.237 0.683,0.68 0.611,1.212 -0.05,0.366 -0.39,0.708 -0.904,0.955 z m -0.446,3.302 c 1.161,-0.362 1.93,-1.081 2.049,-1.956 0.104,-0.767 -0.252,-1.53 -1.002,-2.152 -0.684,-0.565 -1.631,-0.954 -2.668,-1.095 -2.263,-0.307 -4.197,0.639 -4.403,2.154 -0.114,0.844 0.334,1.673 1.206,2.304 l -0.149,1.104 c -1.985,-0.864 -3.217,-2.317 -3.034,-3.675 0.262,-1.928 3.236,-3.189 6.496,-2.744 3.259,0.442 5.792,2.444 5.531,4.373 -0.192,1.422 -1.9,2.521 -4.171,2.771 z m 5.843,-1.441 c -0.28,2.07 -2.86,3.617 -6.161,3.785 l 0.034,-0.25 c 2.885,-0.243 5.034,-1.683 5.299,-3.648 0.345,-2.549 -2.46,-4.964 -6.388,-5.496 -3.927,-0.53 -7.275,1.05 -7.621,3.601 -0.256,1.897 1.301,3.796 3.887,4.83 l -0.035,0.257 c -3.021,-1.076 -4.953,-3.173 -4.679,-5.199 0.354,-2.618 4.157,-4.273 8.475,-3.688 3.858,0.522 6.835,2.659 7.175,4.976 l -0.052,0.387 0.088,0.012 c 0.003,0.142 -0.002,0.287 -0.022,0.433 z m 40.845,8.568 -0.335,2.478 -1.58,-0.214 -0.134,0.991 1.579,0.214 -0.335,2.477 -1.579,-0.213 -0.135,0.99 1.579,0.215 -0.175,1.296 c -0.225,-0.23 -0.533,-0.397 -0.893,-0.446 l -0.915,-0.124 c -0.389,-0.053 -0.76,0.04 -1.048,0.231 L 63.306,67.69 c 0.503,-0.029 1.053,-0.012 1.632,0.067 0.429,0.058 0.835,0.152 1.226,0.263 l -0.02,0.142 -1.579,-0.215 -0.135,0.992 1.58,0.213 -0.336,2.479 -1.579,-0.215 -0.134,0.992 z m -3.611,-2.215 c -0.858,-0.455 -1.373,-1.029 -1.311,-1.492 0.062,-0.457 0.701,-0.862 1.658,-1.076 z m 5.197,-2.043 c 0.272,0.121 0.531,0.252 0.756,0.4 0.622,0.41 0.962,0.881 0.911,1.258 -0.064,0.477 -0.907,0.927 -2.043,1.118 z m -0.516,3.811 c 1.848,-0.234 3.033,-0.986 3.174,-2.019 0.106,-0.79 -0.373,-1.581 -1.352,-2.226 -0.87,-0.574 -2.064,-0.988 -3.361,-1.164 -2.896,-0.389 -5.235,0.475 -5.444,2.015 -0.135,0.992 0.675,1.979 2.161,2.665 l -0.138,1.023 c -3.057,-0.926 -5.074,-2.586 -4.873,-4.074 0.118,-0.869 1.034,-1.643 2.515,-2.123 1.624,-0.527 3.718,-0.654 5.896,-0.361 2.177,0.295 4.161,0.975 5.587,1.915 1.298,0.856 1.976,1.847 1.858,2.716 -0.209,1.539 -2.786,2.649 -6.158,2.635 z m 8.376,-1.315 c -0.297,2.188 -3.995,3.68 -8.678,3.539 l 0.03,-0.221 c 0.046,0 0.092,0 0.137,0 4.003,0 6.862,-1.395 7.147,-3.504 0.174,-1.283 -0.643,-2.592 -2.298,-3.684 -1.549,-1.021 -3.682,-1.757 -6.004,-2.071 -2.322,-0.314 -4.573,-0.172 -6.339,0.401 -1.887,0.612 -3.022,1.656 -3.196,2.939 -0.275,2.039 2.06,4.135 5.729,5.209 L 61.485,73.7 c -4.331,-1.145 -7.344,-3.521 -7.06,-5.625 0.16,-1.184 1.37,-2.23 3.319,-2.873 2.1,-0.692 4.8,-0.865 7.605,-0.484 2.805,0.38 5.362,1.264 7.202,2.488 1.709,1.137 2.597,2.469 2.437,3.652 z m -1.883,-4.484 c -1.962,-1.308 -4.669,-2.248 -7.621,-2.646 -2.952,-0.4 -5.812,-0.214 -8.052,0.524 -1.286,0.424 -2.28,1.009 -2.966,1.709 L 60.41,23.859 c 0.16,-1.184 1.37,-2.23 3.319,-2.873 2.099,-0.692 4.8,-0.864 7.604,-0.483 2.804,0.379 5.362,1.263 7.202,2.487 1.709,1.138 2.596,2.469 2.436,3.652 l -0.035,0.256 c -0.457,-0.433 -1.168,-0.896 -2.309,-1.177 l -0.238,0.971 c 1.936,0.477 2.318,1.506 2.334,1.549 l 0.033,-0.011 -0.152,1.13 c -1.223,-0.796 -3.176,-1.292 -3.672,-1.409 l -0.229,0.974 c 1.494,0.351 3.199,1.008 3.748,1.563 l -0.252,1.861 c -0.457,-0.432 -1.17,-0.896 -2.311,-1.177 l -0.238,0.971 c 1.938,0.478 2.318,1.506 2.334,1.549 l 0.033,-0.011 -0.152,1.13 c -1.221,-0.796 -3.176,-1.292 -3.67,-1.409 l -0.23,0.974 c 1.494,0.352 3.199,1.009 3.748,1.562 l -0.252,1.861 c -0.457,-0.432 -1.17,-0.896 -2.309,-1.176 l -0.24,0.971 c 1.938,0.477 2.318,1.505 2.334,1.549 l 0.035,-0.011 -0.154,1.13 c -1.221,-0.796 -3.174,-1.292 -3.67,-1.409 l -0.229,0.974 c 1.492,0.352 3.197,1.009 3.746,1.562 l -0.252,1.861 c -0.457,-0.432 -1.17,-0.896 -2.309,-1.176 l -0.238,0.971 c 1.936,0.477 2.318,1.505 2.332,1.549 l 0.035,-0.012 -0.152,1.13 C 77.167,44.916 75.214,44.42 74.718,44.303 l -0.229,0.975 c 1.494,0.351 3.199,1.008 3.748,1.563 L 77.988,48.7 c -0.457,-0.433 -1.17,-0.896 -2.311,-1.177 l -0.238,0.971 c 1.936,0.477 2.318,1.505 2.334,1.549 l 0.033,-0.011 -0.152,1.129 c -1.221,-0.796 -3.176,-1.292 -3.67,-1.408 l -0.23,0.973 c 1.494,0.352 3.201,1.01 3.748,1.563 l -0.252,1.86 c -0.457,-0.432 -1.17,-0.896 -2.309,-1.176 l -0.24,0.971 c 1.938,0.477 2.318,1.506 2.334,1.549 l 0.035,-0.011 -0.154,1.13 c -1.221,-0.797 -3.176,-1.293 -3.67,-1.41 l -0.23,0.975 c 1.494,0.352 3.199,1.01 3.748,1.563 l -0.252,1.861 c -0.457,-0.433 -1.17,-0.896 -2.309,-1.177 l -0.238,0.971 c 1.936,0.477 2.318,1.505 2.332,1.549 l 0.035,-0.011 -0.152,1.13 c -1.223,-0.797 -3.176,-1.292 -3.672,-1.409 l -0.229,0.974 c 1.492,0.351 3.199,1.009 3.746,1.563 l -0.252,1.861 c -0.457,-0.433 -1.168,-0.896 -2.309,-1.177 l -0.238,0.971 c 1.936,0.477 2.318,1.506 2.334,1.549 l 0.033,-0.011 -0.283,2.093 c -0.488,-0.74 -1.224,-1.451 -2.205,-2.103 z"
       id="path2" /><rect
       style="fill:#000000"
       x="37.209"
       y="29.541"
       transform="matrix(0.991,0.1341,-0.1341,0.991,4.4324,-5.7087)"
       width="14.75"
       height="1"
       id="rect4" /><rect
       style="fill:#000000"
       x="36.847"
       y="32.215"
       transform="matrix(0.991,0.1341,-0.1341,0.991,4.7879,-5.6362)"
       width="14.75"
       height="1"
       id="rect6" /><rect
       style="fill:#000000"
       x="36.486"
       y="34.888"
       transform="matrix(0.991,0.1341,-0.1341,0.991,5.1417,-5.5621)"
       width="14.75"
       height="1"
       id="rect8" /><rect
       style="fill:#000000"
       x="36.123001"
       y="37.561001"
       transform="matrix(0.991,0.1341,-0.1341,0.991,5.4984,-5.4906)"
       width="14.75"
       height="1"
       id="rect10" /><rect
       style="fill:#000000"
       x="35.762001"
       y="40.235001"
       transform="matrix(0.991,0.1342,-0.1342,0.991,5.8553,-5.4192)"
       width="14.751"
       height="1"
       id="rect12" /><rect
       style="fill:#000000"
       x="43.622002"
       y="43.497002"
       transform="matrix(-0.991,-0.134,0.134,-0.991,87.4221,93.8804)"
       width="6.4990001"
       height="1"
       id="rect14" /><rect
       style="fill:#000000"
       x="35.037998"
       y="45.581001"
       transform="matrix(0.991,0.1341,-0.1341,0.991,6.5644,-5.2726)"
       width="14.75"
       height="1.001"
       id="rect16" /><rect
       style="fill:#000000"
       x="34.675999"
       y="48.255001"
       transform="matrix(0.991,0.1341,-0.1341,0.991,6.9197,-5.1998)"
       width="14.75"
       height="1.001"
       id="rect18" /><rect
       style="fill:#000000"
       x="41.188999"
       y="44.055"
       transform="matrix(-0.1336,0.991,-0.991,-0.1336,98.2287,16.9871)"
       width="1.001"
       height="14.75"
       id="rect20" /><path
       style="fill:#000000"
       inkscape:connector-curvature="0"
       d="m 71.333,34.095 0.401,-0.916 C 67.302,31.232 61.09,31.742 60.829,31.766 l 0.086,0.996 c 0.062,-0.006 6.222,-0.511 10.418,1.333 z"
       id="path22" /><path
       style="fill:#000000"
       inkscape:connector-curvature="0"
       d="m 70.952,36.905 0.402,-0.916 C 66.922,34.043 60.709,34.551 60.448,34.576 l 0.086,0.996 c 0.062,-0.006 6.218,-0.512 10.418,1.333 z"
       id="path24" /><path
       style="fill:#000000"
       inkscape:connector-curvature="0"
       d="m 60.067,37.387 0.086,0.996 c 0.062,-0.006 6.224,-0.51 10.418,1.333 L 70.973,38.8 C 66.542,36.853 60.33,37.363 60.067,37.387 Z"
       id="path26" /><path
       style="fill:#000000"
       inkscape:connector-curvature="0"
       d="m 59.688,40.196 0.086,0.996 c 0.062,-0.006 6.218,-0.512 10.418,1.334 L 70.594,41.61 C 66.162,39.664 59.949,40.173 59.688,40.196 Z"
       id="path28" /><path
       style="fill:#000000"
       inkscape:connector-curvature="0"
       d="m 59.307,43.008 0.086,0.996 c 0.062,-0.007 6.223,-0.511 10.418,1.333 l 0.402,-0.916 C 65.781,42.474 59.569,42.985 59.307,43.008 Z"
       id="path30" /><path
       style="fill:#000000"
       inkscape:connector-curvature="0"
       d="m 58.927,45.817 0.086,0.996 c 0.062,-0.006 6.223,-0.51 10.418,1.334 l 0.402,-0.916 C 65.401,45.285 59.189,45.794 58.927,45.817 Z"
       id="path32" /><path
       style="fill:#000000"
       inkscape:connector-curvature="0"
       d="m 58.546,48.628 0.086,0.996 c 0.063,-0.006 6.219,-0.512 10.418,1.333 l 0.402,-0.916 C 65.021,48.096 58.809,48.604 58.546,48.628 Z"
       id="path34" /><path
       style="fill:#000000"
       inkscape:connector-curvature="0"
       d="m 58.166,51.438 0.086,0.996 c 0.062,-0.005 6.223,-0.509 10.418,1.334 l 0.402,-0.916 C 64.64,50.905 58.428,51.414 58.166,51.438 Z"
       id="path36" /><path
       style="fill:#000000"
       inkscape:connector-curvature="0"
       d="m 57.785,54.249 0.086,0.996 c 0.062,-0.006 6.218,-0.512 10.418,1.333 l 0.402,-0.916 C 64.26,53.717 58.048,54.226 57.785,54.249 Z"
       id="path38" /><circle
       style="fill:#000000"
       cx="77.057999"
       cy="25.902"
       r="0.73400003"
       id="circle40" /><circle
       style="fill:#000000"
       cx="57.298"
       cy="27.201"
       r="0.73400003"
       id="circle42" /><circle
       style="fill:#000000"
       cx="76.319"
       cy="31.353001"
       r="0.73400003"
       id="circle44" /><circle
       style="fill:#000000"
       cx="75.581001"
       cy="36.803001"
       r="0.73400003"
       id="circle46" /><circle
       style="fill:#000000"
       cx="74.845001"
       cy="42.252998"
       r="0.73400003"
       id="circle48" /><circle
       style="fill:#000000"
       cx="74.106003"
       cy="47.702999"
       r="0.73400003"
       id="circle50" /><circle
       style="fill:#000000"
       cx="73.367996"
       cy="53.153"
       r="0.73400003"
       id="circle52" /><circle
       style="fill:#000000"
       cx="72.630997"
       cy="58.604"
       r="0.73400003"
       id="circle54" /><circle
       style="fill:#000000"
       cx="71.893997"
       cy="64.054001"
       r="0.73400003"
       id="circle56" /><circle
       style="fill:#000000"
       cx="26.663"
       cy="19.080999"
       r="0.73400003"
       id="circle58" /><circle
       style="fill:#000000"
       cx="25.926001"
       cy="24.531"
       r="0.73400003"
       id="circle60" /><circle
       style="fill:#000000"
       cx="22.237"
       cy="51.783001"
       r="0.73400003"
       id="circle62" /><circle
       style="fill:#000000"
       cx="21.499001"
       cy="57.231998"
       r="0.73400003"
       id="circle64" /><circle
       style="fill:#000000"
       cx="56.786999"
       cy="30.979"
       r="0.73400003"
       id="circle66" /><circle
       style="fill:#000000"
       cx="56.276001"
       cy="34.757"
       r="0.73400003"
       id="circle68" /><circle
       style="fill:#000000"
       cx="55.764999"
       cy="38.535"
       r="0.73400003"
       id="circle70" /><circle
       style="fill:#000000"
       cx="55.252998"
       cy="42.313"
       r="0.73400003"
       id="circle72" /><circle
       style="fill:#000000"
       cx="72.102997"
       cy="16.993999"
       r="0.73400003"
       id="circle74" /><circle
       style="fill:#000000"
       cx="24.620001"
       cy="10.567"
       r="0.73400003"
       id="circle76" /><circle
       style="fill:#000000"
       cx="54.742001"
       cy="46.091"
       r="0.73400003"
       id="circle78" /><circle
       style="fill:#000000"
       cx="54.23"
       cy="49.868999"
       r="0.73400003"
       id="circle80" /><circle
       style="fill:#000000"
       cx="53.717999"
       cy="53.646999"
       r="0.73400003"
       id="circle82" /><circle
       style="fill:#000000"
       cx="53.208"
       cy="57.424999"
       r="0.73400003"
       id="circle84" /><circle
       style="fill:#000000"
       cx="52.695999"
       cy="61.202999"
       r="0.73400003"
       id="circle86" /><circle
       style="fill:#000000"
       cx="52.185001"
       cy="64.981003"
       r="0.73400003"
       id="circle88" /><circle
       style="fill:#000000"
       cx="64.752998"
       cy="70.364998"
       r="0.73400003"
       id="circle90" /><circle
       style="fill:#000000"
       cx="64.283997"
       cy="73.833"
       r="0.73400003"
       id="circle92" /><circle
       style="fill:#000000"
       cx="63.814999"
       cy="77.301003"
       r="0.73400003"
       id="circle94" /><circle
       style="fill:#000000"
       cx="16.899"
       cy="63.888"
       r="0.73400003"
       id="circle96" /><circle
       style="fill:#000000"
       cx="16.429001"
       cy="67.356003"
       r="0.73400003"
       id="circle98" /><circle
       style="fill:#000000"
       cx="15.96"
       cy="70.823997"
       r="0.73500001"
       id="circle100" /></g><path
     style="fill:#008000;fill-opacity:1;stroke-width:0.16853711"
     d="m 38.567125,35.068818 c -1.483127,-0.211826 -4.497834,-0.630423 -6.69935,-0.930216 l -4.002757,-0.545079 v -0.495142 c 0,-0.450571 0.04172,-0.486685 0.463477,-0.401196 0.254913,0.05167 3.307541,0.473955 6.783619,0.938409 8.159704,1.090255 7.384182,0.936874 7.287745,1.441355 -0.09841,0.514799 -0.172478,0.514642 -3.832734,-0.0081 z"
     id="path57"
     inkscape:connector-curvature="0" /><path
     style="fill:#008000;fill-opacity:1;stroke-width:0.16853711"
     d="m 34.016623,39.890364 -6.910022,-0.956632 0.05861,-0.413127 c 0.03224,-0.22722 0.07765,-0.433257 0.100911,-0.457859 0.02326,-0.0246 3.276958,0.392526 7.230433,0.926954 l 7.188137,0.971686 1.85e-4,0.463477 c 1.48e-4,0.374458 -0.07265,0.459506 -0.379026,0.442804 -0.208565,-0.01137 -3.488718,-0.451156 -7.28923,-0.977303 z"
     id="path59"
     inkscape:connector-curvature="0" /><path
     style="fill:#008000;fill-opacity:1;stroke-width:0.16853711"
     d="m 36.460411,29.318306 c -3.568773,-0.483658 -6.811006,-0.926971 -7.204961,-0.985141 -0.617966,-0.09125 -0.716283,-0.162178 -0.716283,-0.516778 0,-0.32311 0.08775,-0.411016 0.410305,-0.411016 0.225668,0 3.4679,0.416681 7.204961,0.925958 3.737061,0.509277 6.851537,0.926406 6.921059,0.926954 0.161629,0.0013 0.159824,0.536577 -0.0026,0.765139 -0.08297,0.116768 -2.264626,-0.11587 -6.612501,-0.705116 z"
     id="path61"
     inkscape:connector-curvature="0" /><path
     style="fill:#008000;fill-opacity:1;stroke-width:0.16853711"
     d="m 36.420305,23.88029 c -3.868917,-0.530851 -7.070221,-1.001009 -7.114008,-1.044796 -0.1282,-0.128201 0.100036,-0.82331 0.270331,-0.82331 0.0855,0 3.231371,0.417129 6.990815,0.926954 3.759444,0.509825 6.941833,0.926954 7.071976,0.926954 0.150558,0 0.236624,0.183905 0.236624,0.505611 0,0.300622 -0.08541,0.499157 -0.210671,0.489691 -0.115869,-0.0088 -3.376149,-0.450253 -7.245067,-0.981104 z"
     id="path63"
     inkscape:connector-curvature="0" /><path
     style="fill:#008000;fill-opacity:1;stroke-width:0.16853711"
     d="m 33.511011,45.259348 c -3.893207,-0.538413 -7.097518,-0.983733 -7.120692,-0.9896 -0.156527,-0.03963 0.0017,-0.712225 0.184038,-0.782184 0.124395,-0.04773 3.340407,0.333854 7.146694,0.847975 3.806287,0.514121 7.008661,0.934765 7.116386,0.934765 0.23805,0 0.162806,0.886326 -0.07933,0.934469 -0.0927,0.01843 -3.353889,-0.407011 -7.247096,-0.945425 z"
     id="path65"
     inkscape:connector-curvature="0" /><path
     style="fill:#008000;fill-opacity:1;stroke-width:0.16853711"
     d="M 62.499393,27.126626 C 60.986057,26.554212 58.766798,26.21301 55.887609,26.11009 53.21915,26.0147 52.975292,25.979978 52.880687,25.681904 c -0.05663,-0.178409 -0.05139,-0.375546 0.01162,-0.438082 0.212042,-0.210426 5.04151,-0.06411 6.664732,0.201913 1.68314,0.275847 3.795889,0.861807 3.938325,1.092275 0.104874,0.169689 -0.07156,0.871453 -0.215077,0.855486 -0.05871,-0.0065 -0.410113,-0.126623 -0.780895,-0.26687 z"
     id="path69"
     inkscape:connector-curvature="0" /><path
     style="fill:#008000;fill-opacity:1;stroke-width:0.16853711"
     d="m 61.235365,32.605486 c -1.537074,-0.532535 -3.97924,-0.857706 -6.614536,-0.880717 l -2.485376,-0.0217 -5.46e-4,-0.487104 -5.46e-4,-0.487104 3.160071,0.10086 c 1.870073,0.05969 3.64167,0.208301 4.33983,0.364054 1.328787,0.296441 3.286474,0.915785 3.286474,1.039727 0,0.244156 -0.377672,0.730756 -0.553675,0.713368 -0.112608,-0.01113 -0.621871,-0.164748 -1.131696,-0.341382 z"
     id="path71"
     inkscape:connector-curvature="0" /><path
     style="fill:#008000;fill-opacity:1;stroke-width:0.16853711"
     d="m 61.072773,38.409016 c -1.396205,-0.592427 -3.46197,-0.913279 -6.494624,-1.008737 -3.093497,-0.09737 -3.278648,-0.142072 -3.283892,-0.792798 -0.0025,-0.306659 0.124253,-0.31572 2.988952,-0.213722 3.079517,0.109647 4.681343,0.343658 6.657216,0.972553 1.149073,0.365735 1.310249,0.544088 0.926954,1.025742 -0.187995,0.236238 -0.273525,0.238064 -0.794606,0.01696 z"
     id="path75"
     inkscape:connector-curvature="0" /><path
     style="fill:#008000;fill-opacity:1;stroke-width:0.16853711"
     d="m 60.139874,43.980337 c -1.513979,-0.572657 -3.73251,-0.913613 -6.615082,-1.016643 -2.865865,-0.102432 -2.907265,-0.109276 -2.907265,-0.480617 0,-0.319177 0.119945,-0.394692 0.785428,-0.494487 0.956836,-0.143487 3.813618,0.02158 5.878834,0.339689 1.475335,0.227246 3.756088,0.835975 3.978102,1.061749 0.135451,0.137746 -0.134059,0.87339 -0.314035,0.857178 -0.07251,-0.0065 -0.435201,-0.126623 -0.805982,-0.266869 z"
     id="path77"
     inkscape:connector-curvature="0" /><path
     style="fill:#333333;fill-opacity:1;stroke-width:0.16853711"
     d="m 58.960114,49.46024 c -1.700821,-0.549842 -3.927048,-0.851032 -6.488678,-0.877864 -1.402942,-0.0147 -2.496526,-0.09738 -2.56761,-0.194135 -0.0681,-0.0927 -0.124984,-0.311893 -0.126403,-0.487104 -0.0025,-0.304619 0.135783,-0.314275 3.15749,-0.220528 3.035909,0.09419 4.223522,0.257141 6.278007,0.861416 1.238519,0.364279 1.408263,0.487264 1.270706,0.920666 -0.134323,0.423215 -0.207168,0.423097 -1.523512,-0.0025 z"
     id="path79"
     inkscape:connector-curvature="0" /><path
     style="fill:#333333;fill-opacity:1;stroke-width:0.16853711"
     d="m 62.252532,29.982161 c -1.429584,-0.60659 -3.453584,-0.915289 -6.621026,-1.009833 l -3.16007,-0.09432 V 28.369197 27.86039 l 2.991533,0.106514 c 3.06683,0.109195 4.619912,0.337285 6.641983,0.975461 1.164768,0.367607 1.325098,0.541661 0.942187,1.022834 -0.187995,0.236238 -0.273525,0.238064 -0.794607,0.01696 z"
     id="path81"
     inkscape:connector-curvature="0" /><path
     style="fill:#333333;fill-opacity:1;stroke-width:0.16853711"
     d="m 61.319634,35.553481 c -1.513979,-0.572656 -3.73251,-0.913613 -6.615082,-1.016642 -2.886389,-0.103166 -2.907265,-0.10668 -2.907265,-0.489427 0,-0.328609 0.113762,-0.402574 0.770695,-0.501087 0.97872,-0.146768 5.327314,0.184459 6.967523,0.530707 0.687246,0.145078 1.650717,0.413878 2.141047,0.597334 0.851094,0.318435 0.882995,0.35224 0.703719,0.745708 -0.215778,0.473583 -0.174887,0.468439 -1.060637,0.133407 z"
     id="path83"
     inkscape:connector-curvature="0" /><path
     style="fill:#333333;fill-opacity:1;stroke-width:0.16853711"
     d="m 60.139874,41.033796 c -1.713584,-0.55327 -3.763015,-0.839611 -6.488679,-0.90658 l -2.612325,-0.06418 -0.05564,-0.454013 -0.05564,-0.454013 3.17358,0.101214 c 3.206645,0.102269 4.540529,0.300161 6.597769,0.97883 0.791177,0.261003 1.040118,0.415212 0.969089,0.600311 -0.05257,0.136996 -0.09558,0.318723 -0.09558,0.403837 0,0.211562 -0.2539,0.175158 -1.432565,-0.205402 z"
     id="path85"
     inkscape:connector-curvature="0" /><path
     style="fill:#008000;fill-opacity:1;stroke-width:0.16853711"
     d="m 59.907581,46.863855 c -1.247291,-0.541453 -3.801447,-0.936105 -6.70649,-1.036243 -2.758813,-0.0951 -2.898342,-0.116334 -2.989232,-0.454934 -0.05244,-0.195349 -0.09638,-0.422815 -0.09764,-0.505481 -0.0035,-0.231785 5.978733,0.01813 7.398099,0.309061 1.218221,0.249703 3.554512,0.930993 3.554512,1.036537 0,0.160499 -0.406542,0.910397 -0.49053,0.904821 -0.05464,-0.0036 -0.355565,-0.117821 -0.668717,-0.253761 z"
     id="path87"
     inkscape:connector-curvature="0" /><path
     style="fill:#008000;fill-opacity:1;stroke-width:0.16853711"
     d="m 59.297188,49.645262 c -1.71335,-0.608381 -3.370628,-0.853289 -6.446544,-0.952653 l -3.075802,-0.09936 v -0.465164 c 0,-0.44139 0.04953,-0.470693 0.969088,-0.573319 2.32812,-0.259828 7.44944,0.423255 9.508457,1.268239 0.408457,0.167624 0.433931,0.229415 0.278453,0.675421 -0.09412,0.270004 -0.220597,0.480824 -0.281051,0.468488 -0.06045,-0.01234 -0.489124,-0.15708 -0.952601,-0.321652 z"
     id="path89"
     inkscape:connector-curvature="0" /><path
     style="fill:#333333;fill-opacity:1;stroke-width:0.16853711"
     d="m 59.607524,46.79032 c -1.386646,-0.493244 -3.813848,-0.844317 -6.630477,-0.959037 -2.646071,-0.107774 -2.857467,-0.166595 -2.86255,-0.796502 -0.0025,-0.306349 0.130265,-0.315504 3.15749,-0.217784 1.813865,0.05855 3.662654,0.211984 4.33983,0.360165 1.373364,0.300522 3.455011,0.913276 3.455011,1.017017 0,0.177509 -0.401545,0.928749 -0.49053,0.917719 -0.05464,-0.0068 -0.490591,-0.151483 -0.968774,-0.321578 z"
     id="path91"
     inkscape:connector-curvature="0" /><path
     style="fill:#333333;fill-opacity:1;stroke-width:0.16853711"
     d="M 35.954799,26.553704 C 32.10794,26.015 28.941549,25.569117 28.918375,25.562853 c -0.02317,-0.0063 -0.04213,-0.200994 -0.04213,-0.432733 0,-0.340112 0.08349,-0.421342 0.433052,-0.421342 0.238178,0 3.490705,0.417129 7.227838,0.926954 3.737133,0.509824 6.841373,0.926954 6.898312,0.926954 0.05694,0 0.103526,0.227525 0.103526,0.505611 0,0.376937 -0.07506,0.500427 -0.29494,0.485239 -0.162217,-0.0112 -3.44237,-0.461129 -7.28923,-0.999832 z"
     id="path93"
     inkscape:connector-curvature="0" /><path
     style="fill:#333333;fill-opacity:1;stroke-width:0.05958686"
     d="m 35.360384,31.9184 c -3.965506,-0.540151 -7.214901,-0.986367 -7.220879,-0.991592 -0.006,-0.0052 0.01823,-0.216887 0.0538,-0.470361 0.06187,-0.440937 0.07136,-0.460748 0.219422,-0.458245 0.08511,0.0014 3.359036,0.437807 7.275383,0.969708 l 7.12063,0.967093 -0.01081,0.295181 c -0.01583,0.432242 -0.07419,0.68617 -0.155754,0.677733 -0.03948,-0.0041 -3.316288,-0.449366 -7.281794,-0.989517 z"
     id="path97"
     inkscape:connector-curvature="0" /><path
     style="fill:#333333;fill-opacity:1;stroke-width:0.05958686"
     d="m 38.667455,37.846876 c -1.687798,-0.230502 -3.071462,-0.422162 -3.07481,-0.425911 -0.0033,-0.0037 0.02114,-0.214624 0.05442,-0.468613 0.05666,-0.432449 0.06969,-0.461798 0.205033,-0.461798 0.130638,0 5.607848,0.727437 6.082828,0.80787 l 0.198746,0.03366 -0.03804,0.309176 c -0.072,0.585282 -0.091,0.637365 -0.230121,0.63081 -0.07113,-0.0034 -1.510261,-0.194687 -3.198059,-0.42519 z"
     id="path99"
     inkscape:connector-curvature="0" /><path
     style="fill:#aa4400;fill-opacity:1;stroke-width:0.05958686"
     d="m 33.857084,42.603832 c -3.907457,-0.531525 -7.118914,-0.980858 -7.136573,-0.998516 -0.03022,-0.03023 0.07143,-0.886225 0.109798,-0.924597 0.0098,-0.0098 3.283644,0.424298 7.275161,0.964712 3.991516,0.540413 7.269937,0.98257 7.285379,0.98257 0.01544,0 0.01231,0.107256 -0.007,0.238347 -0.01927,0.131092 -0.0508,0.345604 -0.07006,0.476695 -0.03109,0.211555 -0.05286,0.237721 -0.193658,0.232773 -0.08724,-0.0031 -3.355636,-0.440459 -7.263091,-0.971984 z"
     id="path101"
     inkscape:connector-curvature="0" /><path
     style="fill:#aa4400;fill-opacity:1;stroke-width:0.05958686"
     d="m 38.70095,37.866254 c -1.622253,-0.224563 -2.986918,-0.409746 -3.03259,-0.411516 -0.06653,-0.0026 -0.07543,-0.08514 -0.04474,-0.415326 0.05302,-0.570533 0.07367,-0.6101 0.298556,-0.572224 0.102709,0.0173 1.514041,0.206987 3.136294,0.421532 1.622252,0.214544 2.985203,0.402106 3.028779,0.416804 0.05135,0.01732 0.06818,0.0844 0.04784,0.190636 -0.01726,0.09015 -0.04873,0.304687 -0.06992,0.476744 -0.03754,0.304758 -0.04339,0.312687 -0.226604,0.30724 -0.103436,-0.0031 -1.515363,-0.189326 -3.137615,-0.41389 z"
     id="path103"
     inkscape:connector-curvature="0" /><path
     style="fill:#aa4400;fill-opacity:1;stroke-width:0.05958686"
     d="m 39.118058,32.446576 c -1.851662,-0.25515 -5.08276,-0.69714 -7.180217,-0.9822 -2.097458,-0.28506 -3.816815,-0.52264 -3.820793,-0.527955 -0.01868,-0.02495 0.130179,-0.928204 0.157366,-0.954875 0.01703,-0.0167 0.499681,0.03394 1.072563,0.112539 0.572883,0.0786 3.84312,0.521 7.267194,0.98311 3.424074,0.46211 6.233309,0.84792 6.242744,0.857355 0.0094,0.0094 -0.0096,0.20216 -0.04227,0.428278 -0.03268,0.226117 -0.05996,0.44464 -0.06061,0.485606 -6.5e-4,0.04097 -0.06151,0.07169 -0.135251,0.06827 -0.07374,-0.0034 -1.649067,-0.214975 -3.500728,-0.470125 z"
     id="path105"
     inkscape:connector-curvature="0" /><path
     style="fill:#aa4400;fill-opacity:1;stroke-width:0.05958686"
     d="M 41.203598,27.289178 C 38.347999,26.895095 32.481957,26.091453 30.775897,25.860593 29.940191,25.747507 29.165816,25.639335 29.055064,25.620211 l -0.201367,-0.03477 0.02985,-0.417228 c 0.01642,-0.229475 0.05997,-0.447343 0.09678,-0.484151 0.07495,-0.07495 -0.251122,-0.115809 8.707648,1.091175 3.162573,0.426083 5.783969,0.786752 5.825324,0.801486 0.07139,0.02544 0.06124,0.445819 -0.02051,0.849307 -0.0356,0.175741 -0.01529,0.176955 -2.289192,-0.136851 z"
     id="path107"
     inkscape:connector-curvature="0" /><path
     style="fill:#aa4400;fill-opacity:1;stroke-width:0.05958686"
     d="m 62.505902,30.107597 c -0.986579,-0.408303 -2.656268,-0.802204 -4.0817,-0.962925 -0.847907,-0.0956 -3.290893,-0.209791 -4.94571,-0.231167 l -0.983183,-0.0127 -0.01722,-0.521385 -0.01722,-0.521385 1.328127,3.5e-5 c 3.756896,9.7e-5 6.60035,0.395019 8.858396,1.230324 0.340005,0.125777 0.631118,0.262371 0.646918,0.303544 0.0158,0.04117 -0.06128,0.257879 -0.171291,0.481571 L 62.92301,30.28022 Z"
     id="path109"
     inkscape:connector-curvature="0" /><path
     style="fill:#aa4400;fill-opacity:1;stroke-width:0.05958686"
     d="M 61.522719,35.648238 C 59.476062,34.884625 56.816906,34.523293 53.329525,34.53493 l -1.549259,0.0052 -0.05207,-0.453621 c -0.02864,-0.249491 -0.03305,-0.472583 -0.0098,-0.49576 0.02325,-0.02318 1.052208,-0.04098 2.286578,-0.03957 2.34596,0.0027 3.015697,0.05003 4.687371,0.33136 1.296834,0.218245 2.779238,0.623297 3.588234,0.980451 l 0.310957,0.13728 -0.182592,0.406319 c -0.100424,0.223476 -0.200134,0.421798 -0.221576,0.440716 -0.02144,0.01892 -0.320533,-0.07065 -0.664647,-0.199039 z"
     id="path111"
     inkscape:connector-curvature="0" /><path
     style="fill:#aa4400;fill-opacity:1;stroke-width:0.05958686"
     d="m 60.781322,41.28299 c -1.183243,-0.457935 -2.82844,-0.810617 -4.710801,-1.009859 -0.69059,-0.0731 -1.522034,-0.102222 -3.016325,-0.105661 l -2.062935,-0.0047 -0.03648,-0.47275 c -0.02007,-0.260013 -0.02468,-0.484557 -0.01024,-0.498988 0.01443,-0.01443 0.67762,-0.03989 1.473755,-0.05657 2.823223,-0.05917 5.46705,0.229607 7.584964,0.828483 0.655347,0.185311 1.691769,0.557531 1.768932,0.635293 0.03631,0.03659 -0.08503,0.388572 -0.265833,0.77117 -0.0781,0.165264 -0.07341,0.165823 -0.725031,-0.08637 z"
     id="path113"
     inkscape:connector-curvature="0" /><path
     style="fill:#552200;fill-opacity:1;stroke-width:0.05958686"
     d="M 59.586146,46.80227 C 57.81067,46.197326 55.45872,45.891803 51.97267,45.813264 l -1.714377,-0.03862 -0.04074,-0.154344 c -0.02241,-0.08489 -0.04196,-0.301821 -0.04344,-0.482071 l -0.0027,-0.327728 0.625662,-0.04765 c 0.723041,-0.05506 3.096251,-0.0097 4.141287,0.07923 1.861876,0.158372 3.16821,0.395833 4.746564,0.862812 0.987627,0.292204 1.36109,0.440722 1.36109,0.541276 0,0.04752 -0.07876,0.260111 -0.175023,0.472414 -0.145811,0.321579 -0.198026,0.384497 -0.312832,0.376964 -0.07579,-0.005 -0.513204,-0.136949 -0.972023,-0.293279 z"
     id="path115"
     inkscape:connector-curvature="0" /><path
     style="fill:#552200;fill-opacity:1;stroke-width:0.05958686"
     d="m 60.805929,41.305417 c -1.295812,-0.513867 -3.318116,-0.916949 -5.362818,-1.068908 -0.442433,-0.03288 -1.626165,-0.05985 -2.630517,-0.05993 L 50.9865,40.176434 50.944,39.696313 c -0.02338,-0.264066 -0.02393,-0.498689 -0.0012,-0.521385 0.02269,-0.0227 0.984226,-0.0397 2.136735,-0.03779 2.710338,0.0045 4.501873,0.193988 6.410302,0.678045 0.746475,0.189337 2.188763,0.673772 2.281199,0.766208 0.09086,0.09086 -0.264918,0.873419 -0.404034,0.888707 -0.06277,0.0069 -0.315241,-0.06721 -0.561036,-0.16468 z"
     id="path117"
     inkscape:connector-curvature="0" /><path
     style="fill:#552200;fill-opacity:1;stroke-width:0.05958686"
     d="M 61.431591,35.637024 C 60.192141,35.188012 58.93193,34.913852 57.260095,34.729513 56.020693,34.592854 53.689717,34.499057 52.666286,34.54466 l -0.899838,0.0401 -0.03814,-0.317574 c -0.02097,-0.174666 -0.03837,-0.400842 -0.03865,-0.502615 -5.18e-4,-0.185036 -5.09e-4,-0.185041 0.401694,-0.223027 0.612773,-0.05787 2.97298,-0.04438 3.977423,0.02273 2.170624,0.14504 4.175901,0.534111 5.817327,1.128701 0.766732,0.277741 0.74758,0.249456 0.515553,0.761389 -0.107488,0.237156 -0.222247,0.4287 -0.25502,0.425652 -0.03277,-0.003 -0.354542,-0.112394 -0.715042,-0.242992 z"
     id="path119"
     inkscape:connector-curvature="0" /><path
     style="fill:#552200;fill-opacity:1;stroke-width:0.05958686"
     d="m 62.755834,30.219781 c -0.211185,-0.122932 -1.698194,-0.582502 -2.367014,-0.73154 -0.900944,-0.200765 -1.690816,-0.31483 -2.711202,-0.391524 -1.127435,-0.08474 -4.183812,-0.195492 -4.737156,-0.171656 l -0.446901,0.01925 -0.01713,-0.551178 -0.01713,-0.551179 1.298251,3.5e-5 c 3.36953,8.9e-5 6.069087,0.327338 8.210326,0.995281 0.714454,0.222868 1.340705,0.495538 1.340705,0.583742 0,0.118523 -0.345733,0.864265 -0.39972,0.862192 -0.02595,-9.96e-4 -0.09481,-0.02954 -0.153023,-0.06342 z"
     id="path121"
     inkscape:connector-curvature="0" /><path
     style="fill:#552200;fill-opacity:1;stroke-width:0.05958686"
     d="m 43.19801,27.555082 c -0.131091,-0.0103 -2.58458,-0.339235 -5.452198,-0.730959 -2.867618,-0.391724 -6.018273,-0.820531 -7.001457,-0.952904 -0.983183,-0.132373 -1.815724,-0.249665 -1.850092,-0.260648 -0.08099,-0.02588 -0.0096,-0.848724 0.0816,-0.939874 0.0743,-0.0743 -0.424036,-0.136646 8.472015,1.05988 3.293664,0.443 6.025416,0.81821 6.070559,0.8338 0.06495,0.02243 0.07323,0.118151 0.03968,0.458654 -0.02332,0.23667 -0.06026,0.457416 -0.08208,0.490546 -0.02182,0.03313 -0.146935,0.05181 -0.278026,0.0415 z"
     id="path123"
     inkscape:connector-curvature="0" /><path
     style="fill:#552200;fill-opacity:1;stroke-width:0.05958686"
     d="m 40.367634,32.630251 c -1.032342,-0.14432 -4.203366,-0.57935 -7.046721,-0.966732 -2.843354,-0.387383 -5.181788,-0.716386 -5.19652,-0.731119 -0.01473,-0.01473 0.0062,-0.240159 0.04642,-0.500948 l 0.0732,-0.474163 0.207402,0.01815 c 0.259083,0.02267 4.701821,0.617357 10.125437,1.355352 2.275959,0.309691 4.176146,0.563074 4.222636,0.563074 0.06771,0 0.07675,0.06818 0.04547,0.342625 -0.0774,0.67894 -0.07331,0.671208 -0.351821,0.663258 -0.13668,-0.0039 -1.093154,-0.125174 -2.125496,-0.269494 z"
     id="path125"
     inkscape:connector-curvature="0" /><path
     style="fill:#552200;fill-opacity:1;stroke-width:0.05958686"
     d="m 38.728995,37.880518 c -1.736957,-0.240244 -3.159877,-0.438668 -3.162046,-0.440942 -0.0022,-0.0023 0.02492,-0.225352 0.06021,-0.495727 l 0.06415,-0.491592 0.178142,0.01133 c 0.164889,0.01049 2.967624,0.380164 5.272819,0.695471 l 0.983184,0.134481 -0.01734,0.328937 c -0.02058,0.390476 -0.08669,0.664278 -0.164675,0.682025 -0.03099,0.0071 -1.477485,-0.183743 -3.214442,-0.423987 z"
     id="path127"
     inkscape:connector-curvature="0" /><path
     style="fill:#552200;fill-opacity:1;stroke-width:0.05958686"
     d="m 39.503624,43.39078 c -0.917637,-0.1262 -4.175549,-0.569543 -7.239804,-0.985207 -3.064254,-0.415663 -5.578384,-0.761334 -5.586954,-0.768157 -0.02042,-0.01625 0.109144,-0.948318 0.135521,-0.974934 0.01782,-0.01798 2.079822,0.254351 8.490364,1.121335 0.966796,0.130753 2.73145,0.36943 3.921453,0.530393 1.190002,0.160962 2.174325,0.303344 2.187384,0.316403 0.04704,0.04704 -0.121768,0.96264 -0.179944,0.975969 -0.03277,0.0075 -0.810382,-0.0896 -1.72802,-0.215802 z"
     id="path129"
     inkscape:connector-curvature="0" /><path
     style="fill:#008000;fill-opacity:1;stroke:#001000;stroke-width:0.1;stroke-miterlimit:4;stroke-dasharray:none;stroke-opacity:1"
     d="m 13.762756,19.152705 2.330994,0.05513 3.03125,0.5625 2.393756,1.056373 -0.175006,0.943627 -1.171875,-0.5625 -0.953125,-0.453125 -1.59375,-0.375 -1.859375,-0.234375 -1.625,-0.04687 -0.313869,0.05225 -0.064,-0.998"
     id="path4647"
     inkscape:connector-curvature="0" /><path
     style="fill:#008000;fill-opacity:1;stroke:#001000;stroke-width:0.1;stroke-miterlimit:4;stroke-dasharray:none;stroke-opacity:1"
     d="m 13.066756,24.294705 2.047651,0.04571 2.364389,0.331457 1.701475,0.486135 1.237437,0.618719 0.406048,0.191977 -0.152,1.122 -0.806475,-0.60687 -1.281631,-0.596622 -1.811961,-0.37565 -1.149049,-0.176777 -1.723572,-0.08839 -0.768312,0.04631 z"
     id="path4649"
     inkscape:connector-curvature="0" /><path
     style="fill:#008000;fill-opacity:1;stroke:#001000;stroke-width:0.1;stroke-miterlimit:4;stroke-dasharray:none;stroke-opacity:1"
     d="M 12.372756,29.436705 15.5,29.598457 l 2.5,0.53125 1.75,0.75 0.378756,0.230998 -0.152,1.122 -1.383006,-0.915498 -2.03125,-0.59375 -2.40625,-0.3125 -1.720494,0.02375 z"
     id="path4651"
     inkscape:connector-curvature="0" /><path
     style="fill:#008000;fill-opacity:1;stroke:#001000;stroke-width:0.1;stroke-miterlimit:4;stroke-dasharray:none;stroke-opacity:1"
     d="m 11.675756,34.577705 2.261744,0.114502 2.125,0.28125 1.90625,0.53125 1.464006,0.745998 -0.152,1.122 L 17.71875,36.379707 16,35.910957 l -1.4375,-0.25 -1.40625,-0.125 -1.416494,0.03975 z"
     id="path4653"
     inkscape:connector-curvature="0" /><path
     style="fill:#008000;fill-opacity:1;stroke:#001000;stroke-width:0.1;stroke-miterlimit:4;stroke-dasharray:none;stroke-opacity:1"
     d="m 10.980756,39.718705 2.675494,0.0985 2.40625,0.4375 1.84375,0.6875 0.830506,0.449498 -0.152,1.121 -1.272256,-0.882998 -1.59375,-0.4375 -1.09375,-0.28125 -2.1875,-0.25 -1.393744,0.05575 z"
     id="path4655"
     inkscape:connector-curvature="0" /><path
     style="fill:#552200;fill-opacity:1;stroke:#001000;stroke-width:0.1;stroke-miterlimit:4;stroke-dasharray:none;stroke-opacity:1"
     d="m 13.415756,21.724705 1.959244,0.06125 2.03125,0.25 2.15625,0.59375 1.609256,0.767998 -0.152,1.122 -1.457256,-0.921248 -1.9375,-0.625 -1.6875,-0.21875 -1.59375,-0.125 -0.864994,0.093 z"
     id="path4657"
     inkscape:connector-curvature="0" /><path
     style="fill:#552200;fill-opacity:1;stroke:#001000;stroke-width:0.1;stroke-miterlimit:4;stroke-dasharray:none;stroke-opacity:1"
     d="m 12.719756,26.866705 2.623994,0.106752 2.3125,0.375 1.53125,0.53125 1.288256,0.659998 -0.151,1.122 -1.387256,-0.906998 -2.28125,-0.6875 -1.9375,-0.21875 -1.934994,0.01625 z"
     id="path4659"
     inkscape:connector-curvature="0" /><path
     style="fill:#552200;fill-opacity:1;stroke:#001000;stroke-width:0.1;stroke-miterlimit:4;stroke-dasharray:none;stroke-opacity:1"
     d="m 12.023756,32.006705 2.069994,0.0605 2.46875,0.40625 1.84375,0.5625 1.374506,0.644748 -0.152,1.122 -0.910006,-0.672998 -1.53125,-0.65625 -2.3125,-0.375 -1.90625,-0.1875 -0.880994,0.09375 z"
     id="path4661"
     inkscape:connector-curvature="0" /><path
     style="fill:#552200;fill-opacity:1;stroke:#001000;stroke-width:0.1;stroke-miterlimit:4;stroke-dasharray:none;stroke-opacity:1"
     d="M 11.328756,37.147705 13,37.160957 l 1.9375,0.25 2.09375,0.46875 1.46875,0.59375 0.584756,0.348248 -0.152,1.122 -1.214006,-0.845248 -1.5625,-0.5625 -2.28125,-0.375 -2.483244,-0.01525 z"
     id="path4663"
     inkscape:connector-curvature="0" /><path
     style="fill:#552200;fill-opacity:1;stroke:#001000;stroke-width:0.00883884;stroke-miterlimit:4;stroke-dasharray:none;stroke-opacity:1"
     d="m 18.197048,12.944835 c -0.315485,-0.315485 -0.342194,-0.606982 -0.08551,-0.933297 0.142349,-0.180967 0.260588,-0.232891 0.53033,-0.232891 0.441699,0 0.700692,0.24141 0.700692,0.653121 0,0.377682 -0.227325,0.656327 -0.59308,0.726973 -0.237448,0.04586 -0.327546,0.01098 -0.552427,-0.213906 z"
     id="path4665"
     inkscape:connector-curvature="0" /><path
     style="fill:#552200;fill-opacity:1;stroke:#001000;stroke-width:0.00883884;stroke-miterlimit:4;stroke-dasharray:none;stroke-opacity:1"
     d="m 17.413419,18.379979 c -0.523369,-0.557099 0.07454,-1.4135 0.782211,-1.120375 0.435585,0.180426 0.559369,0.70718 0.256626,1.092055 -0.244692,0.311076 -0.760004,0.325125 -1.038837,0.02832 z"
     id="path4667"
     inkscape:connector-curvature="0" /><path
     style="fill:#552200;fill-opacity:1;stroke:#001000;stroke-width:0.00883884;stroke-miterlimit:4;stroke-dasharray:none;stroke-opacity:1"
     d="m 13.894658,45.796593 c -0.203082,-0.102015 -0.385734,-0.42769 -0.385734,-0.687778 0,-0.08838 0.08244,-0.265498 0.183192,-0.393588 0.387796,-0.493004 1.231022,-0.186117 1.231022,0.448023 0,0.516792 -0.566291,0.865516 -1.02848,0.633343 z"
     id="path4669"
     inkscape:connector-curvature="0" /><path
     style="fill:#552200;fill-opacity:1;stroke:#001000;stroke-width:0.00883884;stroke-miterlimit:4;stroke-dasharray:none;stroke-opacity:1"
     d="m 12.994001,51.083668 c -0.523368,-0.5571 0.07454,-1.4135 0.782211,-1.120375 0.435585,0.180425 0.55937,0.70718 0.256627,1.092055 -0.244693,0.311076 -0.760005,0.325124 -1.038838,0.02832 z"
     id="path4671"
     inkscape:connector-curvature="0" /><path
     style="fill:#552200;fill-opacity:1;stroke:#001000;stroke-width:0.00883884;stroke-miterlimit:4;stroke-dasharray:none;stroke-opacity:1"
     d="m 44.195088,55.061144 c -0.263522,-0.280507 -0.252675,-0.715247 0.02477,-0.99269 0.45498,-0.45498 1.19726,-0.09122 1.19726,0.586718 0,0.09715 -0.09763,0.274265 -0.216953,0.393589 -0.287067,0.287067 -0.74176,0.292669 -1.005076,0.01238 z"
     id="path4673"
     inkscape:connector-curvature="0" /><path
     style="fill:#552200;fill-opacity:1;stroke:#001000;stroke-width:0.00883884;stroke-miterlimit:4;stroke-dasharray:none;stroke-opacity:1"
     d="m 44.927913,51.471203 c -0.283967,-0.118108 -0.412357,-0.329055 -0.412357,-0.677513 0,-0.629736 0.742653,-0.941081 1.186368,-0.497365 0.527659,0.527658 -0.08698,1.460629 -0.774011,1.174878 z"
     id="path4675"
     inkscape:connector-curvature="0" /><path
     style="fill:#552200;fill-opacity:1;stroke:#001000;stroke-width:0.00883884;stroke-miterlimit:4;stroke-dasharray:none;stroke-opacity:1"
     d="m 45.223201,47.483998 c -0.224881,-0.224881 -0.259768,-0.314979 -0.213905,-0.552427 0.07064,-0.365755 0.34929,-0.59308 0.726973,-0.59308 0.411711,0 0.65312,0.258993 0.65312,0.700692 0,0.269742 -0.05192,0.387981 -0.232891,0.53033 -0.326315,0.256679 -0.617812,0.22997 -0.933297,-0.08552 z"
     id="path4677"
     inkscape:connector-curvature="0" /><path
     style="fill:#552200;fill-opacity:1;stroke:#001000;stroke-width:0.00883884;stroke-miterlimit:4;stroke-dasharray:none;stroke-opacity:1"
     d="m 45.722459,43.735053 c -0.438423,-0.438424 -0.127758,-1.197261 0.490154,-1.197261 0.363373,0 0.707106,0.343734 0.707106,0.707107 0,0.363373 -0.343733,0.707107 -0.707106,0.707107 -0.172214,0 -0.353396,-0.0802 -0.490154,-0.216953 z"
     id="path4679"
     inkscape:connector-curvature="0" /><path
     style="fill:#552200;fill-opacity:1;stroke:#001000;stroke-width:0.00883884;stroke-miterlimit:4;stroke-dasharray:none;stroke-opacity:1"
     d="m 46.22802,39.946736 c -0.553314,-0.588976 0.129068,-1.459423 0.851314,-1.085935 0.419147,0.216749 0.498208,0.662644 0.187524,1.057615 -0.244693,0.311076 -0.760005,0.325124 -1.038838,0.02832 z"
     id="path4681"
     inkscape:connector-curvature="0" /><path
     style="fill:#552200;fill-opacity:1;stroke:#001000;stroke-width:0.00883884;stroke-miterlimit:4;stroke-dasharray:none;stroke-opacity:1"
     d="m 46.963914,36.339068 c -0.381993,-0.213551 -0.515853,-0.663284 -0.311225,-1.045634 0.119126,-0.22259 0.574623,-0.370139 0.835942,-0.270785 0.259346,0.0986 0.491749,0.419872 0.491749,0.679784 0,0.442598 -0.643082,0.845374 -1.016466,0.636635 z"
     id="path4683"
     inkscape:connector-curvature="0" /><path
     style="fill:#552200;fill-opacity:1;stroke:#001000;stroke-width:0.00883884;stroke-miterlimit:4;stroke-dasharray:none;stroke-opacity:1"
     d="m 47.33932,32.462918 c -0.292711,-0.230246 -0.368658,-0.556483 -0.203774,-0.875333 0.142433,-0.275436 0.296736,-0.363501 0.636902,-0.363501 0.32826,0 0.531991,0.141777 0.637131,0.443383 0.114115,0.327349 0.0165,0.631097 -0.266511,0.829328 -0.270453,0.189433 -0.533977,0.178326 -0.803748,-0.03388 z"
     id="path4685"
     inkscape:connector-curvature="0" /><path
     style="fill:#552200;fill-opacity:1;stroke:#001000;stroke-width:0.00883884;stroke-miterlimit:4;stroke-dasharray:none;stroke-opacity:1"
     d="m 47.793307,28.670258 c -0.292171,-0.236586 -0.292171,-0.842947 0,-1.079533 0.471654,-0.381922 1.159344,-0.06175 1.159344,0.539767 0,0.601514 -0.68769,0.921688 -1.159344,0.539766 z"
     id="path4687"
     inkscape:connector-curvature="0" /><path
     style="fill:#552200;fill-opacity:1;stroke:#001000;stroke-width:0.00883884;stroke-miterlimit:4;stroke-dasharray:none;stroke-opacity:1"
     d="m 48.25196,24.804009 c -0.310684,-0.394972 -0.231624,-0.840866 0.187524,-1.057616 0.514699,-0.266161 1.043497,0.05403 1.043497,0.631853 0,0.612903 -0.852021,0.907583 -1.231021,0.425763 z"
     id="path4689"
     inkscape:connector-curvature="0" /><path
     style="fill:#552200;fill-opacity:1;stroke:#001000;stroke-width:0.00883884;stroke-miterlimit:4;stroke-dasharray:none;stroke-opacity:1"
     d="m 48.996846,21.224661 c -0.381993,-0.213552 -0.515853,-0.663285 -0.311225,-1.045635 0.119126,-0.22259 0.574623,-0.370138 0.835942,-0.270785 0.259346,0.0986 0.491749,0.419873 0.491749,0.679785 0,0.442598 -0.643082,0.845374 -1.016466,0.636635 z"
     id="path4691"
     inkscape:connector-curvature="0" /><path
     style="fill:#552200;fill-opacity:1;stroke:#001000;stroke-width:0.00883884;stroke-miterlimit:4;stroke-dasharray:none;stroke-opacity:1"
     d="m 68.568065,19.740398 c -0.291288,-0.291289 -0.314858,-0.436664 -0.129052,-0.795973 0.142926,-0.276388 0.295283,-0.359875 0.656744,-0.359875 0.599991,0 0.874274,0.854233 0.395265,1.231022 -0.322725,0.253855 -0.617975,0.229807 -0.922957,-0.07517 z"
     id="path4693"
     inkscape:connector-curvature="0" /><path
     style="fill:#552200;fill-opacity:1;stroke:#001000;stroke-width:0.00883884;stroke-miterlimit:4;stroke-dasharray:none;stroke-opacity:1"
     d="m 68.052553,25.382566 c -0.642116,-0.256968 -0.576997,-1.106305 0.103234,-1.346482 0.196183,-0.06927 0.59006,0.07705 0.74052,0.275086 0.173746,0.22869 0.1442,0.666956 -0.05972,0.885839 -0.09912,0.106394 -0.215192,0.193444 -0.257936,0.193444 -0.04274,0 -0.130687,0.0174 -0.19543,0.03867 -0.06474,0.02127 -0.213543,3.18e-4 -0.330667,-0.04655 z"
     id="path4695"
     inkscape:connector-curvature="0" /><path
     style="fill:#552200;fill-opacity:1;stroke:#001000;stroke-width:0.00883884;stroke-miterlimit:4;stroke-dasharray:none;stroke-opacity:1"
     d="m 67.08767,30.66596 c -0.124111,-0.13211 -0.192184,-0.317686 -0.192184,-0.523915 0,-0.738731 1.040798,-0.931903 1.324946,-0.24591 0.296246,0.715203 -0.607243,1.329214 -1.132762,0.769825 z"
     id="path4697"
     inkscape:connector-curvature="0" /><path
     style="fill:#552200;fill-opacity:1;stroke:#001000;stroke-width:0.00883884;stroke-miterlimit:4;stroke-dasharray:none;stroke-opacity:1"
     d="m 66.481933,36.245538 c -0.416054,-0.201146 -0.468489,-0.911425 -0.08701,-1.178623 0.492235,-0.344775 1.119282,-0.02342 1.119282,0.573614 0,0.555275 -0.513107,0.856004 -1.032272,0.605009 z"
     id="path4699"
     inkscape:connector-curvature="0" /><path
     style="fill:#552200;fill-opacity:1;stroke:#001000;stroke-width:0.00883884;stroke-miterlimit:4;stroke-dasharray:none;stroke-opacity:1"
     d="m 65.842844,41.733511 c -0.29245,-0.1158 -0.444338,-0.3394 -0.444338,-0.654127 0,-0.322815 0.152369,-0.538152 0.464852,-0.656958 0.272124,-0.103461 0.466087,-0.05154 0.744866,0.199401 0.527721,0.47502 -0.09372,1.377638 -0.76538,1.111684 z"
     id="path4701"
     inkscape:connector-curvature="0" /><path
     style="fill:#552200;fill-opacity:1;stroke:#001000;stroke-width:0.00883884;stroke-miterlimit:4;stroke-dasharray:none;stroke-opacity:1"
     d="m 64.877961,47.017804 c -0.280302,-0.298368 -0.260834,-0.789259 0.04071,-1.026451 0.326315,-0.256679 0.617812,-0.229971 0.933297,0.08551 0.224882,0.224882 0.259769,0.31498 0.213906,0.552427 -0.110621,0.572722 -0.802325,0.798946 -1.18791,0.38851 z"
     id="path4703"
     inkscape:connector-curvature="0" /><path
     style="fill:#552200;fill-opacity:1;stroke:#001000;stroke-width:0.00883884;stroke-miterlimit:4;stroke-dasharray:none;stroke-opacity:1"
     d="m 64.272224,52.597382 c -0.416053,-0.201145 -0.468489,-0.911425 -0.08701,-1.178623 0.489145,-0.342611 1.119282,-0.006 1.119282,0.597965 0,0.530415 -0.525166,0.825823 -1.032272,0.580658 z"
     id="path4705"
     inkscape:connector-curvature="0" /><path
     style="fill:#552200;fill-opacity:1;stroke:#001000;stroke-width:0.00883884;stroke-miterlimit:4;stroke-dasharray:none;stroke-opacity:1"
     d=""
     id="path4707"
     inkscape:connector-curvature="0" /><path
     style="fill:#552200;fill-opacity:1;stroke:#001000;stroke-width:0.00883884;stroke-miterlimit:4;stroke-dasharray:none;stroke-opacity:1"
     d="m 43.689527,58.84946 c -0.438423,-0.438423 -0.127758,-1.19726 0.490154,-1.19726 0.363373,0 0.707106,0.343733 0.707106,0.707106 0,0.363373 -0.343733,0.707107 -0.707106,0.707107 -0.172214,0 -0.353396,-0.08019 -0.490154,-0.216953 z"
     id="path4709"
     inkscape:connector-curvature="0" /><path
     style="fill:#803300;fill-opacity:1;stroke:#001000;stroke-width:0.00883884;stroke-miterlimit:4;stroke-dasharray:none;stroke-opacity:1"
     d="M 8.2877322,67.495953 C 7.9056166,67.288308 6.7132138,67.128149 6.2777808,67.225985 c -0.1956186,0.04395 -0.3780287,0.05755 -0.4053559,0.03023 -0.04282,-0.04282 1.503886,-11.83645 1.6270852,-12.406517 0.044716,-0.20691 0.05155,-0.208004 1.035336,-0.165672 0.9059106,0.03898 1.7334669,0.190605 1.6261329,0.29794 -0.02402,0.02402 -0.3521227,7.79e-4 -0.7291088,-0.05166 -0.3769861,-0.05243 -0.7015872,-0.07918 -0.7213357,-0.05943 -0.019749,0.01975 -0.058218,0.252079 -0.085487,0.516291 l -0.04958,0.480385 0.7663236,0.09292 c 0.421478,0.05111 0.7860339,0.112635 0.8101249,0.136725 0.03942,0.03942 -0.1998118,2.096396 -0.2704833,2.325718 -0.020531,0.06662 -0.2603735,0.06335 -0.8114232,-0.01107 -0.846188,-0.114278 -0.9100023,-0.09235 -0.9147136,0.314246 -0.00141,0.121534 -0.025077,0.304854 -0.052596,0.407377 -0.046926,0.174819 0.00105,0.192958 0.7717764,0.2918 0.4519968,0.05797 0.8301627,0.113743 0.8403687,0.123949 0.027901,0.0279 -0.3079085,2.373967 -0.3451309,2.41119 -0.017714,0.01771 -0.2684063,-0.0065 -0.5570945,-0.05375 -0.2886882,-0.04727 -0.6490314,-0.08618 -0.8007626,-0.08646 -0.2652389,-4.95e-4 -0.2781881,0.01693 -0.3358695,0.451748 -0.032997,0.248743 -0.04372,0.468535 -0.023829,0.488426 0.019891,0.01989 0.3798496,0.08215 0.7999083,0.138353 0.6855608,0.09173 0.7637429,0.121262 0.7637429,0.288522 0,0.228544 -0.2708068,2.201697 -0.3072908,2.238984 -0.014432,0.01475 -0.3693576,-0.02118 -0.7887247,-0.07985 -0.4193671,-0.05867 -0.7830804,-0.08607 -0.8082517,-0.0609 -0.025171,0.02517 -0.069711,0.247948 -0.098978,0.495058 -0.060852,0.513804 -0.095818,0.490998 0.942585,0.614792 l 0.5745243,0.06849 -0.028239,0.528455 c -0.015531,0.290651 -0.055306,0.555301 -0.088388,0.588112 -0.033082,0.03281 -0.1794735,-0.0052 -0.3253142,-0.08444 z M 8.4685265,64.696327 C 8.733882,64.430972 8.7508182,64.047913 8.510692,63.742642 8.0030737,63.09731 6.957631,63.714156 7.2721338,64.473433 c 0.1346648,0.32511 0.3054906,0.433628 0.6881597,0.43716 0.1939331,0.0018 0.3637863,-0.06982 0.508233,-0.214266 z m 0.4260041,-3.413384 c 0.1721865,-0.135442 0.2328909,-0.263671 0.2328909,-0.491947 0,-0.41062 -0.1146833,-0.60352 -0.4385638,-0.737676 -0.3142921,-0.130184 -0.7465818,9.04e-4 -0.8906394,0.270078 -0.3912129,0.730988 0.450407,1.467614 1.0963123,0.959545 z m 0.504855,-3.52232 c 0.1557553,-0.155755 0.2583659,-0.351525 0.2583659,-0.492935 0,-0.285667 -0.4376305,-0.751301 -0.7061184,-0.751301 -0.4349387,0 -0.7908614,0.338119 -0.7908614,0.751301 0,0.675816 0.7551889,0.97636 1.2386139,0.492935 z"
     id="path3801"
     inkscape:connector-curvature="0" /><path
     style="fill:#803300;fill-opacity:1;stroke:#001000;stroke-width:0.00883884;stroke-miterlimit:4;stroke-dasharray:none;stroke-opacity:1"
     d="M 16.756422,6.6060139 C 16.504229,6.5412425 15.885671,6.4386046 15.381849,6.3779297 l -0.91604,-0.110318 0.322438,-2.3422913 c 0.177342,-1.2882601 0.35151,-2.4088249 0.387042,-2.490144 0.03553,-0.081319 0.207767,-0.2157891 0.382747,-0.2988225 0.583421,-0.27685141 2.069988,0.050698 2.215834,0.4882351 0.02525,0.075739 -0.0074,0.101112 -0.08951,0.069598 C 17.61328,1.66691 17.295666,1.616808 16.978555,1.582848 l -0.576566,-0.061745 -0.05554,0.4689353 c -0.03773,0.3185379 -0.02212,0.4895861 0.04865,0.533324 0.0573,0.035414 0.394478,0.091591 0.749283,0.1248395 0.513959,0.048162 0.644819,0.089785 0.643718,0.204746 -0.0018,0.1920826 -0.344204,2.5970781 -0.373478,2.6235653 -0.01259,0.01139 -0.221761,-0.0124 -0.464829,-0.052866 -0.243068,-0.040466 -0.586036,-0.075946 -0.762152,-0.078844 l -0.320211,-0.00527 -0.04576,0.4640388 c -0.02517,0.2552214 -0.03746,0.4733766 -0.02732,0.4847893 0.01014,0.011413 0.333923,0.064568 0.719521,0.1181237 0.745149,0.103493 0.781228,0.1152351 0.732393,0.2383654 -0.01729,0.04358 -0.236663,0.026186 -0.489838,-0.038837 z m 0.392242,-2.2028142 c 0.420924,-0.471082 0.09526,-1.184986 -0.540552,-1.184986 -0.417384,0 -0.803576,0.4388168 -0.726288,0.8252562 0.134152,0.6707595 0.815941,0.8643592 1.26684,0.3597298 z"
     id="path3803"
     inkscape:connector-curvature="0" /><path
     style="fill:#803300;fill-opacity:1;stroke:#001000;stroke-width:0.00883884;stroke-miterlimit:4;stroke-dasharray:none;stroke-opacity:1"
     d="m 63.486255,12.891795 c -0.413215,-0.06287 -0.940231,-0.117313 -1.171145,-0.120977 -0.345369,-0.0055 -0.419845,-0.03533 -0.419845,-0.168286 0,-0.413134 0.612242,-4.6108679 0.695071,-4.7656349 0.155833,-0.2911771 0.572211,-0.40659 1.259106,-0.3490031 0.631408,0.052935 1.233599,0.2782365 1.298143,0.4856823 0.02827,0.090876 -0.102447,0.1024491 -0.623692,0.055215 l -0.659465,-0.059759 -0.04682,0.4751149 c -0.02575,0.2613132 -0.03885,0.4841303 -0.0291,0.4951493 0.0097,0.011019 0.311256,0.061666 0.670024,0.1125481 0.358769,0.050882 0.671518,0.1117247 0.694998,0.1352046 0.02348,0.02348 -0.03512,0.6291168 -0.130226,1.3458598 l -0.172916,1.303169 -0.306414,-0.0024 c -0.168527,-0.0013 -0.493725,-0.03014 -0.722662,-0.06411 l -0.416249,-0.06176 -0.04596,0.285079 c -0.121982,0.756588 -0.139833,0.72026 0.392324,0.798434 0.267375,0.03928 0.605461,0.104823 0.751301,0.145656 l 0.265165,0.07424 -0.265165,-0.0026 c -0.14584,-0.0014 -0.60325,-0.05402 -1.016466,-0.116897 z m 1.121255,-1.999202 c 0.276735,-0.259979 0.279568,-0.768168 0.0057,-1.0219414 -0.394872,-0.3658942 -0.982247,-0.2680739 -1.176092,0.1958644 -0.139405,0.333642 -0.101116,0.522516 0.166107,0.819387 0.238229,0.264659 0.726232,0.26791 1.004288,0.0067 z"
     id="path3805"
     inkscape:connector-curvature="0" /><path
     style="fill:#552200;fill-opacity:1;stroke:#001000;stroke-width:0.00883884;stroke-miterlimit:4;stroke-dasharray:none;stroke-opacity:1"
     d="m 55.967478,73.949481 c -0.490565,-0.243609 -1.681185,-0.362032 -2.115978,-0.210462 -0.282263,0.0984 -0.285836,0.09628 -0.240746,-0.142386 0.02517,-0.133245 0.417535,-3.001732 0.871916,-6.374413 l 0.826147,-6.132147 1.017224,0.0503 c 0.981548,0.04854 1.768525,0.19159 1.768525,0.321471 0,0.03443 -0.328142,0.0139 -0.729204,-0.04562 -0.401062,-0.05952 -0.754985,-0.08258 -0.786495,-0.05125 -0.03151,0.03133 -0.08428,0.260806 -0.11726,0.509949 l -0.05997,0.452987 0.426619,0.05856 c 0.23464,0.03221 0.593819,0.0812 0.798175,0.108863 0.343315,0.04648 0.368603,0.06806 0.332698,0.283948 -0.02137,0.128505 -0.100026,0.6688 -0.174786,1.200656 -0.07476,0.531855 -0.144925,0.975888 -0.155921,0.986739 -0.011,0.01085 -0.347771,-0.02361 -0.748387,-0.07657 -0.400616,-0.05297 -0.74988,-0.07481 -0.776142,-0.04855 -0.02626,0.02626 -0.07144,0.247752 -0.100389,0.492198 -0.0597,0.504099 -0.09534,0.481823 0.964109,0.602611 0.598334,0.06822 0.574309,-0.03044 0.360612,1.48088 l -0.147839,1.045559 -0.272115,-0.04652 c -0.149663,-0.02558 -0.498969,-0.07286 -0.776236,-0.105054 -0.556976,-0.06468 -0.53946,-0.08276 -0.624673,0.644764 -0.03877,0.331034 -0.02305,0.338983 0.842761,0.425916 0.328818,0.03302 0.617796,0.0923 0.642175,0.131747 0.02438,0.03945 -0.0252,0.591599 -0.110184,1.227008 -0.121415,0.907847 -0.183232,1.154915 -0.288621,1.153539 -0.07376,-9.64e-4 -0.409703,-0.04158 -0.746534,-0.09027 -0.336832,-0.04868 -0.64158,-0.05784 -0.677218,-0.02035 -0.03564,0.03749 -0.07825,0.265942 -0.09469,0.507664 l -0.02989,0.439494 0.486136,0.06715 c 1.115726,0.154112 1.048617,0.118045 0.998703,0.536736 -0.02447,0.205305 -0.07027,0.47272 -0.101757,0.594254 l -0.05726,0.220971 z m 0.177351,-2.62536 c 0.269558,-0.139394 0.47361,-0.57429 0.38604,-0.822768 -0.196127,-0.556506 -0.828952,-0.728585 -1.224554,-0.332983 -0.319434,0.319434 -0.296451,0.761099 0.05499,1.05682 0.313019,0.263388 0.435572,0.278862 0.78352,0.09893 z m 0.634208,-3.572977 c 0.292171,-0.236586 0.292171,-0.842947 0,-1.079533 -0.477501,-0.386657 -1.247733,-0.05346 -1.247733,0.539766 0,0.593223 0.770232,0.926423 1.247733,0.539767 z m 0.479858,-3.496759 c 0.323095,-0.323095 0.296652,-0.76093 -0.0643,-1.064651 -0.314683,-0.264788 -0.696099,-0.255201 -0.975826,0.02453 -0.279727,0.279727 -0.289314,0.661143 -0.02453,0.975826 0.303721,0.360952 0.741556,0.387395 1.064652,0.0643 z"
     id="path3807"
     inkscape:connector-curvature="0" /><path
     style="fill:#2b1100;fill-opacity:1;stroke:#001000;stroke-width:0.00055243;stroke-miterlimit:4;stroke-dasharray:none;stroke-opacity:1"
     d="m 55.724893,71.404853 c -0.03908,-0.0048 -0.131429,-0.02609 -0.156112,-0.03593 -0.0079,-0.0032 -0.0095,-0.0024 -0.0061,0.003 0.003,0.0049 0.0019,0.0063 -0.0032,0.0044 -0.0042,-0.0015 -0.007,-0.0058 -0.0062,-0.0094 8.35e-4,-0.0036 -10e-4,-0.0051 -0.0041,-0.0032 -0.0063,0.0039 -0.03629,-0.01547 -0.105144,-0.06798 -0.15125,-0.115343 -0.22943,-0.202732 -0.29245,-0.326895 -0.07914,-0.155916 -0.09406,-0.333011 -0.04166,-0.494475 0.06153,-0.189617 0.222946,-0.371487 0.406493,-0.458 0.10562,-0.04978 0.194517,-0.06702 0.321812,-0.0624 0.118407,0.0043 0.195668,0.02463 0.302408,0.07957 0.07552,0.03887 0.139528,0.08722 0.202082,0.152655 0.06972,0.07293 0.158234,0.208407 0.147503,0.225769 -0.0022,0.0035 -0.0013,0.0046 0.002,0.0026 0.0062,-0.0038 0.01429,0.01105 0.0099,0.01816 -0.0014,0.0023 0.0023,0.02137 0.0084,0.04232 0.01793,0.06208 0.02689,0.132299 0.02813,0.220382 l 0.0012,0.08286 -0.02307,0.06824 c -0.01269,0.03753 -0.03258,0.08849 -0.04421,0.113247 -0.06281,0.133775 -0.172979,0.26866 -0.274416,0.335989 -0.04913,0.03261 -0.151953,0.08308 -0.161667,0.07935 -0.0041,-0.0016 -0.006,-6.45e-4 -0.0044,0.002 0.0017,0.0027 -0.0026,0.0047 -0.0094,0.0046 -0.0068,-1.62e-4 -0.03725,0.005 -0.06764,0.01143 -0.06481,0.01375 -0.170262,0.01913 -0.230112,0.01174 z"
     id="path3819"
     inkscape:connector-curvature="0" /><path
     style="fill:#2b1100;fill-opacity:1;stroke:#001000;stroke-width:0.00883884;stroke-miterlimit:4;stroke-dasharray:none;stroke-opacity:1"
     d="m 55.795285,67.659052 c -0.581185,-0.618643 0.319072,-1.519701 0.940198,-0.941035 0.251268,0.234092 0.259726,0.725768 0.01667,0.968828 -0.246197,0.246198 -0.712179,0.232662 -0.956864,-0.02779 z"
     id="path3821"
     inkscape:connector-curvature="0" /><path
     style="fill:#2b1100;fill-opacity:1;stroke:#001000;stroke-width:0.00883884;stroke-miterlimit:4;stroke-dasharray:none;stroke-opacity:1"
     d="m 56.261996,64.199523 c -0.265138,-0.265138 -0.276774,-0.567041 -0.03376,-0.875981 0.414941,-0.527511 1.319264,-0.135755 1.19347,0.517015 -0.108425,0.562635 -0.755691,0.762984 -1.159708,0.358966 z"
     id="path3823"
     inkscape:connector-curvature="0" /><path
     style="fill:#2b1100;fill-opacity:1;stroke:#001000;stroke-width:0.00883884;stroke-miterlimit:4;stroke-dasharray:none;stroke-opacity:1"
     d="m 8.459837,57.780935 c -0.4890368,-0.384676 -0.1994402,-1.177988 0.4300218,-1.177988 0.406073,0 0.6629126,0.271846 0.6629126,0.701644 0,0.332498 -0.3287125,0.659536 -0.6629126,0.659536 -0.108422,0 -0.3019318,-0.08244 -0.4300218,-0.183192 z"
     id="path3825"
     inkscape:connector-curvature="0" /><path
     style="fill:#2b1100;fill-opacity:1;stroke:#001000;stroke-width:0.00883884;stroke-miterlimit:4;stroke-dasharray:none;stroke-opacity:1"
     d="m 8.04251,61.297976 c -0.5501546,-0.422395 -0.3147124,-1.212673 0.3670587,-1.232057 0.342236,-0.0097 0.701261,0.344239 0.701261,0.691388 0,0.477914 -0.6931523,0.828713 -1.0683197,0.540669 z"
     id="path3827"
     inkscape:connector-curvature="0" /><path
     style="fill:#2b1100;fill-opacity:1;stroke:#001000;stroke-width:0.00883884;stroke-miterlimit:4;stroke-dasharray:none;stroke-opacity:1"
     d="m 7.4378663,64.625527 c -0.2430122,-0.30894 -0.2313765,-0.610843 0.033761,-0.875981 0.4439808,-0.443981 1.1442273,-0.171062 1.1442273,0.44596 0,0.629462 -0.7933121,0.919058 -1.1779883,0.430021 z"
     id="path3829"
     inkscape:connector-curvature="0" /><path
     style="fill:#2b1100;fill-opacity:1;stroke:#001000;stroke-width:0.00883884;stroke-miterlimit:4;stroke-dasharray:none;stroke-opacity:1"
     d="M 16.302466,4.5645149 C 15.894114,4.3625916 15.806784,3.7955952 16.133686,3.468693 c 0.35455,-0.3545504 0.848899,-0.2639021 1.096573,0.2010778 0.281288,0.5280851 -0.379863,1.1656855 -0.927793,0.8947441 z"
     id="path3831"
     inkscape:connector-curvature="0" /><path
     style="fill:#2b1100;fill-opacity:1;stroke:#001000;stroke-width:0.00883884;stroke-miterlimit:4;stroke-dasharray:none;stroke-opacity:1"
     d="m 63.588352,10.803084 c -0.182966,-0.182966 -0.216323,-0.281246 -0.172493,-0.508233 0.111348,-0.5766534 0.753406,-0.7830796 1.162677,-0.3738086 0.265137,0.2651376 0.276773,0.5670416 0.03376,0.8759816 -0.249686,0.317424 -0.709858,0.320148 -1.023945,0.0061 z"
     id="path3833"
     inkscape:connector-curvature="0" /><path
     style="fill:#2b1100;fill-opacity:1;stroke:#001000;stroke-width:0.00883884;stroke-miterlimit:4;stroke-dasharray:none;stroke-opacity:1"
     d="m 10.791181,59.710842 c 0.0033,-0.670593 0.08435,-0.809939 0.604027,-1.037994 0.996312,-0.437223 1.510784,-1.13002 1.51438,-2.039289 0.0088,-2.218926 -3.651071,-3.770564 -6.4123037,-2.718577 -0.6753684,0.257305 -1.4811036,1.018157 -1.6203373,1.530077 -0.2305402,0.847627 0.020355,1.672207 0.7180951,2.360056 0.3713375,0.366074 0.383559,0.395215 0.333879,0.796113 -0.028362,0.228871 -0.076953,0.441515 -0.1079797,0.472541 C 5.7360897,59.158621 4.8026238,58.633976 4.2327566,58.181146 3.6160037,57.691059 3.0593689,56.879103 2.9315463,56.283087 2.5431506,54.47206 4.544721,52.959054 7.5640336,52.781347 c 1.7450438,-0.102708 3.6786434,0.354993 5.1543474,1.220083 0.669496,0.392473 1.611516,1.338196 1.878189,1.885571 0.284084,0.583111 0.292674,1.42782 0.01981,1.948516 -0.21989,0.419616 -0.803999,0.980388 -1.356879,1.302668 -0.448813,0.261619 -1.539972,0.635359 -2.093646,0.71711 -0.347745,0.05134 -0.375578,0.04061 -0.374678,-0.144453 z"
     id="path3835"
     inkscape:connector-curvature="0" /><path
     style="fill:#2b1100;fill-opacity:1;stroke:#001000;stroke-width:0.00883884;stroke-miterlimit:4;stroke-dasharray:none;stroke-opacity:1"
     d="m 58.551538,66.269202 c 0.03122,-0.156108 0.05677,-0.373214 0.05677,-0.482458 0,-0.165663 0.06234,-0.208241 0.375651,-0.256567 1.038399,-0.160167 2.063875,-0.670609 2.502464,-1.245629 0.348468,-0.456865 0.403533,-1.197364 0.130916,-1.760517 -0.42336,-0.874545 -1.801407,-1.776181 -3.314487,-2.16862 -3.187313,-0.826675 -6.238221,-0.07643 -6.670508,1.640334 -0.223121,0.886096 0.409595,1.905872 1.60398,2.585202 l 0.505841,0.287707 -0.05425,0.414727 c -0.02984,0.2281 -0.06902,0.431782 -0.08707,0.452627 -0.06415,0.0741 -0.979043,-0.262504 -1.801509,-0.662807 -2.341172,-1.139473 -3.42688,-2.571231 -2.832805,-3.735714 0.519187,-1.017692 2.061425,-1.766527 4.236285,-2.056933 1.212555,-0.161911 3.71075,-0.05123 5.007747,0.221867 2.271176,0.47822 4.176323,1.322346 5.270187,2.335096 1.191738,1.103367 1.414961,1.985685 0.733448,2.899055 -0.66201,0.887232 -2.62769,1.593449 -4.889256,1.756581 l -0.830165,0.05988 z"
     id="path3837"
     inkscape:connector-curvature="0" /></svg>