<?xml version="1.0" encoding="UTF-8" standalone="no"?>
<svg
   xmlns:dc="http://purl.org/dc/elements/1.1/"
   xmlns:cc="http://creativecommons.org/ns#"
   xmlns:rdf="http://www.w3.org/1999/02/22-rdf-syntax-ns#"
   xmlns:svg="http://www.w3.org/2000/svg"
   xmlns="http://www.w3.org/2000/svg"
   xmlns:sodipodi="http://sodipodi.sourceforge.net/DTD/sodipodi-0.dtd"
   xmlns:inkscape="http://www.inkscape.org/namespaces/inkscape"
   version="1.1"
   x="0px"
   y="0px"
   viewBox="0 0 73.984123 76.754707"
   enable-background="new 0 0 90 90"
   xml:space="preserve"
   id="svg108"
   sodipodi:docname="noun_304884_cc.svg"
   width="73.984123"
   height="76.754707"
   inkscape:version="0.92.0 unknown"><metadata
     id="metadata114"><rdf:RDF><cc:Work
         rdf:about=""><dc:format>image/svg+xml</dc:format><dc:type
           rdf:resource="http://purl.org/dc/dcmitype/StillImage" /></cc:Work></rdf:RDF></metadata><defs
     id="defs112" /><sodipodi:namedview
     pagecolor="#ffffff"
     bordercolor="#666666"
     borderopacity="1"
     objecttolerance="10"
     gridtolerance="10"
     guidetolerance="10"
     inkscape:pageopacity="0"
     inkscape:pageshadow="2"
     inkscape:window-width="1875"
     inkscape:window-height="1056"
     id="namedview110"
     showgrid="false"
     inkscape:zoom="8.3911111"
     inkscape:cx="85.029625"
     inkscape:cy="50.915841"
     inkscape:window-x="1411"
     inkscape:window-y="24"
     inkscape:window-maximized="1"
     inkscape:current-layer="svg108" /><g
     transform="translate(-8.007244,-6.6232954)"
     id="g102"><path
       style="fill:#000000"
       inkscape:connector-curvature="0"
       d="M 79.092,22.157 C 77.631,21.186 75.76,20.418 73.684,19.924 l 0.637,-4.705 c 0.133,-0.982 -0.676,-1.905 -1.803,-2.059 l -0.744,-0.101 c -1.125,-0.151 -2.15,0.523 -2.284,1.505 l -0.643,4.75 c -1.992,-0.035 -3.863,0.205 -5.43,0.721 -1.82,0.6 -3.073,1.519 -3.654,2.639 L 31.665,18.938 C 31.371,16.752 29.257,14.722 26.262,13.667 L 26.921,8.803 C 26.988,8.31 26.825,7.821 26.463,7.427 26.125,7.059 25.647,6.817 25.118,6.745 L 24.375,6.644 C 23.25,6.495 22.224,7.166 22.09,8.148 l -0.646,4.775 c -3.907,0.112 -7.053,1.978 -7.416,4.656 l -5.923,43.563 0.087,0.012 c -0.066,0.209 -0.12,0.423 -0.149,0.644 -0.35,2.59 1.897,5.129 5.533,6.349 l -0.891,6.582 c -0.067,0.494 0.096,0.982 0.458,1.377 0.338,0.367 0.816,0.609 1.345,0.682 l 0.743,0.1 c 0.108,0.016 0.215,0.022 0.322,0.022 0.417,0 0.818,-0.11 1.156,-0.321 0.454,-0.283 0.74,-0.711 0.807,-1.205 l 0.885,-6.539 c 3.919,-0.141 6.932,-2.025 7.288,-4.658 0.02,-0.145 0.021,-0.289 0.024,-0.434 l 27.781,3.76 0.067,-0.497 0.152,0.021 c -0.134,0.291 -0.236,0.591 -0.279,0.905 -0.366,2.713 2.878,5.463 7.915,6.758 l -0.879,6.498 c -0.133,0.981 0.676,1.904 1.803,2.059 l 0.744,0.1 c 0.106,0.015 0.212,0.021 0.316,0.021 0.995,0 1.847,-0.637 1.968,-1.525 l 0.874,-6.458 c 0.248,0.009 0.496,0.019 0.738,0.019 4.965,0 8.709,-1.787 9.064,-4.418 0.033,-0.244 0.027,-0.489 0.004,-0.734 l 0.094,0.014 0.975,-7.198 0.066,-0.025 C 77.102,63.021 77.081,62.99 77.065,62.958 l 0.723,-5.33 0.066,-0.026 C 77.84,57.57 77.819,57.539 77.803,57.508 l 0.723,-5.331 0.064,-0.025 C 78.578,52.12 78.557,52.089 78.541,52.058 l 0.721,-5.331 0.066,-0.026 C 79.316,46.67 79.295,46.638 79.279,46.607 L 80,41.277 80.066,41.252 c -0.014,-0.033 -0.035,-0.063 -0.051,-0.095 l 0.723,-5.33 0.066,-0.026 C 80.79,35.769 80.769,35.738 80.753,35.707 l 0.721,-5.33 0.066,-0.026 c -0.012,-0.032 -0.033,-0.063 -0.049,-0.094 l 0.471,-3.476 c 0.22,-1.606 -0.802,-3.246 -2.87,-4.624 z M 70.48,14.699 c 0.059,-0.428 0.589,-0.722 1.16,-0.647 l 0.742,0.101 c 0.424,0.058 0.77,0.308 0.896,0.609 l -1.363,-0.185 -0.135,0.991 1.457,0.197 -0.379,2.787 -1.454,-0.197 -0.135,0.991 1.456,0.197 -0.023,0.173 C 72.296,19.638 71.886,19.568 71.469,19.512 70.924,19.438 70.384,19.391 69.85,19.357 Z m -11.06,9.023 -0.189,1.347 -2.646,-0.358 -0.134,0.991 2.639,0.357 -0.393,2.785 -2.623,-0.355 -0.135,0.991 2.618,0.354 -0.394,2.784 -2.603,-0.352 -0.134,0.991 2.597,0.351 -0.394,2.785 -2.58,-0.349 -0.134,0.991 2.574,0.348 -0.394,2.785 -2.559,-0.346 -0.134,0.992 2.553,0.345 -0.393,2.784 -2.538,-0.343 -0.134,0.991 2.532,0.343 -0.394,2.784 -2.516,-0.34 -0.134,0.99 2.51,0.34 -0.394,2.785 -2.494,-0.338 -0.134,0.992 2.488,0.336 -0.394,2.785 -2.472,-0.335 -0.134,0.991 2.466,0.334 -0.393,2.784 -2.451,-0.331 -0.134,0.99 2.445,0.331 -0.387,2.788 -2.43,-0.329 -0.134,0.992 2.424,0.328 -0.378,2.675 -27.502,-3.722 5.792,-42.795 c 10e-4,-0.007 0,-0.014 10e-4,-0.021 l 27.765,3.692 c -0.003,0.028 -0.014,0.054 -0.018,0.082 z M 23.081,8.283 C 23.139,7.855 23.67,7.56 24.241,7.636 l 0.743,0.101 c 0.293,0.04 0.564,0.174 0.743,0.368 0.069,0.075 0.114,0.157 0.149,0.239 l -1.442,-0.195 -0.135,0.991 1.538,0.208 -0.377,2.787 -1.538,-0.208 -0.134,0.991 1.537,0.208 -0.033,0.244 c -0.535,-0.142 -1.09,-0.256 -1.665,-0.334 -0.397,-0.054 -0.789,-0.083 -1.176,-0.102 z m -8.062,9.431 c 0.354,-2.618 4.157,-4.274 8.475,-3.688 3.859,0.522 6.837,2.66 7.175,4.977 l -0.143,1.056 C 30.068,19.632 29.36,19.177 28.236,18.9 l -0.239,0.971 c 1.938,0.477 2.319,1.506 2.334,1.55 l 0.011,-0.004 -0.15,1.11 c -1.223,-0.79 -3.159,-1.281 -3.651,-1.397 l -0.229,0.974 c 1.478,0.348 3.162,0.996 3.729,1.544 l -0.252,1.861 C 29.331,25.082 28.623,24.627 27.498,24.35 l -0.239,0.971 c 1.938,0.477 2.319,1.505 2.334,1.549 l 0.012,-0.004 -0.079,0.584 C 26.572,25.504 21.984,25.764 21.77,25.776 l 0.064,0.998 c 0.052,-0.003 4.939,-0.278 7.541,1.798 l -0.196,1.449 c -2.955,-1.946 -7.542,-1.686 -7.756,-1.673 l 0.063,0.998 c 0.051,-0.004 4.938,-0.28 7.541,1.797 l -0.196,1.449 c -2.954,-1.947 -7.542,-1.686 -7.757,-1.674 l 0.064,0.998 c 0.051,-0.004 4.939,-0.279 7.541,1.798 l -0.196,1.449 C 25.529,33.216 20.941,33.478 20.727,33.49 l 0.064,0.998 c 0.051,-0.006 4.938,-0.28 7.541,1.797 l -0.196,1.449 C 25.182,35.787 20.594,36.047 20.38,36.06 l 0.063,0.998 c 0.051,-0.005 4.938,-0.279 7.541,1.798 l -0.196,1.448 C 24.834,38.358 20.246,38.617 20.031,38.63 l 0.064,0.998 c 0.05,-0.007 4.936,-0.283 7.541,1.798 l -0.196,1.448 c -2.955,-1.946 -7.542,-1.685 -7.757,-1.673 l 0.064,0.998 c 0.051,-0.005 4.938,-0.279 7.541,1.797 l -0.196,1.449 C 24.137,43.498 19.55,43.758 19.336,43.771 l 0.063,0.998 c 0.051,-0.005 4.938,-0.279 7.541,1.798 l -0.196,1.448 C 23.79,46.07 19.202,46.329 18.988,46.342 l 0.063,0.998 c 0.052,-0.005 4.935,-0.283 7.541,1.796 l -0.086,0.641 c -1.223,-0.789 -3.159,-1.281 -3.651,-1.396 l -0.229,0.973 c 1.478,0.349 3.161,0.996 3.729,1.546 l -0.252,1.86 c -0.458,-0.427 -1.167,-0.882 -2.291,-1.158 l -0.238,0.971 c 1.937,0.477 2.318,1.506 2.334,1.549 l 0.011,-0.003 -0.15,1.109 c -1.223,-0.789 -3.159,-1.28 -3.651,-1.396 l -0.229,0.974 c 1.478,0.348 3.161,0.994 3.729,1.545 l -0.252,1.861 C 24.908,57.784 24.2,57.329 23.076,57.053 l -0.239,0.971 c 1.938,0.477 2.319,1.506 2.334,1.55 l 0.011,-0.004 -0.228,1.679 C 23.683,59.285 20.957,57.7 17.646,57.252 14.22,56.788 11.077,57.666 9.364,59.329 Z m 2.267,51.906 -0.335,2.478 -1.647,-0.224 -0.134,0.992 1.647,0.223 -0.176,1.297 c -0.225,-0.231 -0.532,-0.398 -0.892,-0.447 l -0.916,-0.123 c -0.389,-0.053 -0.759,0.039 -1.047,0.23 l 1.722,-12.721 c 0.481,-0.096 1.024,-0.121 1.59,-0.045 0.456,0.063 0.884,0.184 1.27,0.348 l -0.009,0.064 -1.647,-0.223 -0.134,0.99 1.647,0.224 -0.335,2.478 -1.647,-0.223 -0.135,0.99 1.647,0.224 -0.335,2.477 -1.648,-0.223 -0.134,0.991 z m -3.089,-6.074 c -0.273,-0.313 -0.42,-0.648 -0.377,-0.967 0.045,-0.336 0.275,-0.626 0.624,-0.852 z M 19.3,62.191 c 0.276,0.237 0.683,0.68 0.611,1.212 -0.05,0.366 -0.39,0.708 -0.904,0.955 z m -0.446,3.302 c 1.161,-0.362 1.93,-1.081 2.049,-1.956 0.104,-0.767 -0.252,-1.53 -1.002,-2.152 -0.684,-0.565 -1.631,-0.954 -2.668,-1.095 -2.263,-0.307 -4.197,0.639 -4.403,2.154 -0.114,0.844 0.334,1.673 1.206,2.304 l -0.149,1.104 c -1.985,-0.864 -3.217,-2.317 -3.034,-3.675 0.262,-1.928 3.236,-3.189 6.496,-2.744 3.259,0.442 5.792,2.444 5.531,4.373 -0.192,1.422 -1.9,2.521 -4.171,2.771 z m 5.843,-1.441 c -0.28,2.07 -2.86,3.617 -6.161,3.785 l 0.034,-0.25 c 2.885,-0.243 5.034,-1.683 5.299,-3.648 0.345,-2.549 -2.46,-4.964 -6.388,-5.496 -3.927,-0.53 -7.275,1.05 -7.621,3.601 -0.256,1.897 1.301,3.796 3.887,4.83 l -0.035,0.257 c -3.021,-1.076 -4.953,-3.173 -4.679,-5.199 0.354,-2.618 4.157,-4.273 8.475,-3.688 3.858,0.522 6.835,2.659 7.175,4.976 l -0.052,0.387 0.088,0.012 c 0.003,0.142 -0.002,0.287 -0.022,0.433 z m 40.845,8.568 -0.335,2.478 -1.58,-0.214 -0.134,0.991 1.579,0.214 -0.335,2.477 -1.579,-0.213 -0.135,0.99 1.579,0.215 -0.175,1.296 c -0.225,-0.23 -0.533,-0.397 -0.893,-0.446 l -0.915,-0.124 c -0.389,-0.053 -0.76,0.04 -1.048,0.231 L 63.306,67.69 c 0.503,-0.029 1.053,-0.012 1.632,0.067 0.429,0.058 0.835,0.152 1.226,0.263 l -0.02,0.142 -1.579,-0.215 -0.135,0.992 1.58,0.213 -0.336,2.479 -1.579,-0.215 -0.134,0.992 z m -3.611,-2.215 c -0.858,-0.455 -1.373,-1.029 -1.311,-1.492 0.062,-0.457 0.701,-0.862 1.658,-1.076 z m 5.197,-2.043 c 0.272,0.121 0.531,0.252 0.756,0.4 0.622,0.41 0.962,0.881 0.911,1.258 -0.064,0.477 -0.907,0.927 -2.043,1.118 z m -0.516,3.811 c 1.848,-0.234 3.033,-0.986 3.174,-2.019 0.106,-0.79 -0.373,-1.581 -1.352,-2.226 -0.87,-0.574 -2.064,-0.988 -3.361,-1.164 -2.896,-0.389 -5.235,0.475 -5.444,2.015 -0.135,0.992 0.675,1.979 2.161,2.665 l -0.138,1.023 c -3.057,-0.926 -5.074,-2.586 -4.873,-4.074 0.118,-0.869 1.034,-1.643 2.515,-2.123 1.624,-0.527 3.718,-0.654 5.896,-0.361 2.177,0.295 4.161,0.975 5.587,1.915 1.298,0.856 1.976,1.847 1.858,2.716 -0.209,1.539 -2.786,2.649 -6.158,2.635 z m 8.376,-1.315 c -0.297,2.188 -3.995,3.68 -8.678,3.539 l 0.03,-0.221 c 0.046,0 0.092,0 0.137,0 4.003,0 6.862,-1.395 7.147,-3.504 0.174,-1.283 -0.643,-2.592 -2.298,-3.684 -1.549,-1.021 -3.682,-1.757 -6.004,-2.071 -2.322,-0.314 -4.573,-0.172 -6.339,0.401 -1.887,0.612 -3.022,1.656 -3.196,2.939 -0.275,2.039 2.06,4.135 5.729,5.209 L 61.485,73.7 c -4.331,-1.145 -7.344,-3.521 -7.06,-5.625 0.16,-1.184 1.37,-2.23 3.319,-2.873 2.1,-0.692 4.8,-0.865 7.605,-0.484 2.805,0.38 5.362,1.264 7.202,2.488 1.709,1.137 2.597,2.469 2.437,3.652 z m -1.883,-4.484 c -1.962,-1.308 -4.669,-2.248 -7.621,-2.646 -2.952,-0.4 -5.812,-0.214 -8.052,0.524 -1.286,0.424 -2.28,1.009 -2.966,1.709 L 60.41,23.859 c 0.16,-1.184 1.37,-2.23 3.319,-2.873 2.099,-0.692 4.8,-0.864 7.604,-0.483 2.804,0.379 5.362,1.263 7.202,2.487 1.709,1.138 2.596,2.469 2.436,3.652 l -0.035,0.256 c -0.457,-0.433 -1.168,-0.896 -2.309,-1.177 l -0.238,0.971 c 1.936,0.477 2.318,1.506 2.334,1.549 l 0.033,-0.011 -0.152,1.13 c -1.223,-0.796 -3.176,-1.292 -3.672,-1.409 l -0.229,0.974 c 1.494,0.351 3.199,1.008 3.748,1.563 l -0.252,1.861 c -0.457,-0.432 -1.17,-0.896 -2.311,-1.177 l -0.238,0.971 c 1.938,0.478 2.318,1.506 2.334,1.549 l 0.033,-0.011 -0.152,1.13 c -1.221,-0.796 -3.176,-1.292 -3.67,-1.409 l -0.23,0.974 c 1.494,0.352 3.199,1.009 3.748,1.562 l -0.252,1.861 c -0.457,-0.432 -1.17,-0.896 -2.309,-1.176 l -0.24,0.971 c 1.938,0.477 2.318,1.505 2.334,1.549 l 0.035,-0.011 -0.154,1.13 c -1.221,-0.796 -3.174,-1.292 -3.67,-1.409 l -0.229,0.974 c 1.492,0.352 3.197,1.009 3.746,1.562 l -0.252,1.861 c -0.457,-0.432 -1.17,-0.896 -2.309,-1.176 l -0.238,0.971 c 1.936,0.477 2.318,1.505 2.332,1.549 l 0.035,-0.012 -0.152,1.13 C 77.167,44.916 75.214,44.42 74.718,44.303 l -0.229,0.975 c 1.494,0.351 3.199,1.008 3.748,1.563 L 77.988,48.7 c -0.457,-0.433 -1.17,-0.896 -2.311,-1.177 l -0.238,0.971 c 1.936,0.477 2.318,1.505 2.334,1.549 l 0.033,-0.011 -0.152,1.129 c -1.221,-0.796 -3.176,-1.292 -3.67,-1.408 l -0.23,0.973 c 1.494,0.352 3.201,1.01 3.748,1.563 l -0.252,1.86 c -0.457,-0.432 -1.17,-0.896 -2.309,-1.176 l -0.24,0.971 c 1.938,0.477 2.318,1.506 2.334,1.549 l 0.035,-0.011 -0.154,1.13 c -1.221,-0.797 -3.176,-1.293 -3.67,-1.41 l -0.23,0.975 c 1.494,0.352 3.199,1.01 3.748,1.563 l -0.252,1.861 c -0.457,-0.433 -1.17,-0.896 -2.309,-1.177 l -0.238,0.971 c 1.936,0.477 2.318,1.505 2.332,1.549 l 0.035,-0.011 -0.152,1.13 c -1.223,-0.797 -3.176,-1.292 -3.672,-1.409 l -0.229,0.974 c 1.492,0.351 3.199,1.009 3.746,1.563 l -0.252,1.861 c -0.457,-0.433 -1.168,-0.896 -2.309,-1.177 l -0.238,0.971 c 1.936,0.477 2.318,1.506 2.334,1.549 l 0.033,-0.011 -0.283,2.093 c -0.488,-0.74 -1.224,-1.451 -2.205,-2.103 z"
       id="path2" /><rect
       style="fill:#000000"
       x="37.209"
       y="29.541"
       transform="matrix(0.991,0.1341,-0.1341,0.991,4.4324,-5.7087)"
       width="14.75"
       height="1"
       id="rect4" /><rect
       style="fill:#000000"
       x="36.847"
       y="32.215"
       transform="matrix(0.991,0.1341,-0.1341,0.991,4.7879,-5.6362)"
       width="14.75"
       height="1"
       id="rect6" /><rect
       style="fill:#000000"
       x="36.486"
       y="34.888"
       transform="matrix(0.991,0.1341,-0.1341,0.991,5.1417,-5.5621)"
       width="14.75"
       height="1"
       id="rect8" /><rect
       style="fill:#000000"
       x="36.123001"
       y="37.561001"
       transform="matrix(0.991,0.1341,-0.1341,0.991,5.4984,-5.4906)"
       width="14.75"
       height="1"
       id="rect10" /><rect
       style="fill:#000000"
       x="35.762001"
       y="40.235001"
       transform="matrix(0.991,0.1342,-0.1342,0.991,5.8553,-5.4192)"
       width="14.751"
       height="1"
       id="rect12" /><rect
       style="fill:#000000"
       x="43.622002"
       y="43.497002"
       transform="matrix(-0.991,-0.134,0.134,-0.991,87.4221,93.8804)"
       width="6.4990001"
       height="1"
       id="rect14" /><rect
       style="fill:#000000"
       x="35.037998"
       y="45.581001"
       transform="matrix(0.991,0.1341,-0.1341,0.991,6.5644,-5.2726)"
       width="14.75"
       height="1.001"
       id="rect16" /><rect
       style="fill:#000000"
       x="34.675999"
       y="48.255001"
       transform="matrix(0.991,0.1341,-0.1341,0.991,6.9197,-5.1998)"
       width="14.75"
       height="1.001"
       id="rect18" /><rect
       style="fill:#000000"
       x="41.188999"
       y="44.055"
       transform="matrix(-0.1336,0.991,-0.991,-0.1336,98.2287,16.9871)"
       width="1.001"
       height="14.75"
       id="rect20" /><path
       style="fill:#000000"
       inkscape:connector-curvature="0"
       d="m 71.333,34.095 0.401,-0.916 C 67.302,31.232 61.09,31.742 60.829,31.766 l 0.086,0.996 c 0.062,-0.006 6.222,-0.511 10.418,1.333 z"
       id="path22" /><path
       style="fill:#000000"
       inkscape:connector-curvature="0"
       d="m 70.952,36.905 0.402,-0.916 C 66.922,34.043 60.709,34.551 60.448,34.576 l 0.086,0.996 c 0.062,-0.006 6.218,-0.512 10.418,1.333 z"
       id="path24" /><path
       style="fill:#000000"
       inkscape:connector-curvature="0"
       d="m 60.067,37.387 0.086,0.996 c 0.062,-0.006 6.224,-0.51 10.418,1.333 L 70.973,38.8 C 66.542,36.853 60.33,37.363 60.067,37.387 Z"
       id="path26" /><path
       style="fill:#000000"
       inkscape:connector-curvature="0"
       d="m 59.688,40.196 0.086,0.996 c 0.062,-0.006 6.218,-0.512 10.418,1.334 L 70.594,41.61 C 66.162,39.664 59.949,40.173 59.688,40.196 Z"
       id="path28" /><path
       style="fill:#000000"
       inkscape:connector-curvature="0"
       d="m 59.307,43.008 0.086,0.996 c 0.062,-0.007 6.223,-0.511 10.418,1.333 l 0.402,-0.916 C 65.781,42.474 59.569,42.985 59.307,43.008 Z"
       id="path30" /><path
       style="fill:#000000"
       inkscape:connector-curvature="0"
       d="m 58.927,45.817 0.086,0.996 c 0.062,-0.006 6.223,-0.51 10.418,1.334 l 0.402,-0.916 C 65.401,45.285 59.189,45.794 58.927,45.817 Z"
       id="path32" /><path
       style="fill:#000000"
       inkscape:connector-curvature="0"
       d="m 58.546,48.628 0.086,0.996 c 0.063,-0.006 6.219,-0.512 10.418,1.333 l 0.402,-0.916 C 65.021,48.096 58.809,48.604 58.546,48.628 Z"
       id="path34" /><path
       style="fill:#000000"
       inkscape:connector-curvature="0"
       d="m 58.166,51.438 0.086,0.996 c 0.062,-0.005 6.223,-0.509 10.418,1.334 l 0.402,-0.916 C 64.64,50.905 58.428,51.414 58.166,51.438 Z"
       id="path36" /><path
       style="fill:#000000"
       inkscape:connector-curvature="0"
       d="m 57.785,54.249 0.086,0.996 c 0.062,-0.006 6.218,-0.512 10.418,1.333 l 0.402,-0.916 C 64.26,53.717 58.048,54.226 57.785,54.249 Z"
       id="path38" /><circle
       style="fill:#000000"
       cx="77.057999"
       cy="25.902"
       r="0.73400003"
       id="circle40" /><circle
       style="fill:#000000"
       cx="57.298"
       cy="27.201"
       r="0.73400003"
       id="circle42" /><circle
       style="fill:#000000"
       cx="76.319"
       cy="31.353001"
       r="0.73400003"
       id="circle44" /><circle
       style="fill:#000000"
       cx="75.581001"
       cy="36.803001"
       r="0.73400003"
       id="circle46" /><circle
       style="fill:#000000"
       cx="74.845001"
       cy="42.252998"
       r="0.73400003"
       id="circle48" /><circle
       style="fill:#000000"
       cx="74.106003"
       cy="47.702999"
       r="0.73400003"
       id="circle50" /><circle
       style="fill:#000000"
       cx="73.367996"
       cy="53.153"
       r="0.73400003"
       id="circle52" /><circle
       style="fill:#000000"
       cx="72.630997"
       cy="58.604"
       r="0.73400003"
       id="circle54" /><circle
       style="fill:#000000"
       cx="71.893997"
       cy="64.054001"
       r="0.73400003"
       id="circle56" /><circle
       style="fill:#000000"
       cx="26.663"
       cy="19.080999"
       r="0.73400003"
       id="circle58" /><circle
       style="fill:#000000"
       cx="25.926001"
       cy="24.531"
       r="0.73400003"
       id="circle60" /><circle
       style="fill:#000000"
       cx="22.237"
       cy="51.783001"
       r="0.73400003"
       id="circle62" /><circle
       style="fill:#000000"
       cx="21.499001"
       cy="57.231998"
       r="0.73400003"
       id="circle64" /><circle
       style="fill:#000000"
       cx="56.786999"
       cy="30.979"
       r="0.73400003"
       id="circle66" /><circle
       style="fill:#000000"
       cx="56.276001"
       cy="34.757"
       r="0.73400003"
       id="circle68" /><circle
       style="fill:#000000"
       cx="55.764999"
       cy="38.535"
       r="0.73400003"
       id="circle70" /><circle
       style="fill:#000000"
       cx="55.252998"
       cy="42.313"
       r="0.73400003"
       id="circle72" /><circle
       style="fill:#000000"
       cx="72.102997"
       cy="16.993999"
       r="0.73400003"
       id="circle74" /><circle
       style="fill:#000000"
       cx="24.620001"
       cy="10.567"
       r="0.73400003"
       id="circle76" /><circle
       style="fill:#000000"
       cx="54.742001"
       cy="46.091"
       r="0.73400003"
       id="circle78" /><circle
       style="fill:#000000"
       cx="54.23"
       cy="49.868999"
       r="0.73400003"
       id="circle80" /><circle
       style="fill:#000000"
       cx="53.717999"
       cy="53.646999"
       r="0.73400003"
       id="circle82" /><circle
       style="fill:#000000"
       cx="53.208"
       cy="57.424999"
       r="0.73400003"
       id="circle84" /><circle
       style="fill:#000000"
       cx="52.695999"
       cy="61.202999"
       r="0.73400003"
       id="circle86" /><circle
       style="fill:#000000"
       cx="52.185001"
       cy="64.981003"
       r="0.73400003"
       id="circle88" /><circle
       style="fill:#000000"
       cx="64.752998"
       cy="70.364998"
       r="0.73400003"
       id="circle90" /><circle
       style="fill:#000000"
       cx="64.283997"
       cy="73.833"
       r="0.73400003"
       id="circle92" /><circle
       style="fill:#000000"
       cx="63.814999"
       cy="77.301003"
       r="0.73400003"
       id="circle94" /><circle
       style="fill:#000000"
       cx="16.899"
       cy="63.888"
       r="0.73400003"
       id="circle96" /><circle
       style="fill:#000000"
       cx="16.429001"
       cy="67.356003"
       r="0.73400003"
       id="circle98" /><circle
       style="fill:#000000"
       cx="15.96"
       cy="70.823997"
       r="0.73500001"
       id="circle100" /></g></svg>