<?xml version="1.0" encoding="UTF-8" standalone="no"?>
<svg
   xmlns:dc="http://purl.org/dc/elements/1.1/"
   xmlns:cc="http://creativecommons.org/ns#"
   xmlns:rdf="http://www.w3.org/1999/02/22-rdf-syntax-ns#"
   xmlns:svg="http://www.w3.org/2000/svg"
   xmlns="http://www.w3.org/2000/svg"
   xmlns:xlink="http://www.w3.org/1999/xlink"
   xmlns:sodipodi="http://sodipodi.sourceforge.net/DTD/sodipodi-0.dtd"
   xmlns:inkscape="http://www.inkscape.org/namespaces/inkscape"
   version="1.1"
   x="0px"
   y="0px"
   viewBox="0 0 122.90057 122.90057"
   xml:space="preserve"
   id="svg151"
   sodipodi:docname="dog_ballon.svg"
   width="122.90057"
   height="122.90057"
   inkscape:version="0.92.1 unknown"><metadata
     id="metadata157"><rdf:RDF><cc:Work
         rdf:about=""><dc:format>image/svg+xml</dc:format><dc:type
           rdf:resource="http://purl.org/dc/dcmitype/StillImage" /><dc:title /></cc:Work></rdf:RDF></metadata><defs
     id="defs155"><linearGradient
       inkscape:collect="always"
       id="linearGradient4784"><stop
         style="stop-color:#35995f;stop-opacity:1;"
         offset="0"
         id="stop4780" /><stop
         style="stop-color:#356f5f;stop-opacity:0"
         offset="1"
         id="stop4782" /></linearGradient><radialGradient
       inkscape:collect="always"
       xlink:href="#linearGradient4784"
       id="radialGradient4786"
       cx="27.67429"
       cy="43.614117"
       fx="27.67429"
       fy="43.614117"
       r="60"
       gradientUnits="userSpaceOnUse"
       gradientTransform="matrix(2.9283353,-0.00541619,0.00489025,2.6439834,-53.578595,-71.550994)" /></defs><sodipodi:namedview
     pagecolor="#ffffff"
     bordercolor="#666666"
     borderopacity="1"
     objecttolerance="10"
     gridtolerance="10"
     guidetolerance="10"
     inkscape:pageopacity="0"
     inkscape:pageshadow="2"
     inkscape:window-width="1875"
     inkscape:window-height="1056"
     id="namedview153"
     showgrid="false"
     inkscape:zoom="3.656"
     inkscape:cx="72.427779"
     inkscape:cy="57.731377"
     inkscape:window-x="1411"
     inkscape:window-y="24"
     inkscape:window-maximized="1"
     inkscape:current-layer="layer1"
     showguides="false" /><g
     inkscape:groupmode="layer"
     id="layer1"
     inkscape:label="fond"
     style="display:inline"
     transform="translate(33.775997,17.83617)"><circle
       style="opacity:1;fill:#5bcf8f;fill-opacity:1;stroke:#4b6e5f;stroke-width:2;stroke-miterlimit:4;stroke-dasharray:none;stroke-opacity:1"
       id="path3963"
       cx="27.67429"
       cy="43.614117"
       r="59.950287" /></g><g
     inkscape:groupmode="layer"
     id="layer3"
     inkscape:label="cocarde"
     sodipodi:insensitive="true"
     style="display:inline"><path
       style="display:inline;stroke-width:0.46723962"
       d="m 120.53297,17.206845 1.54189,-1.915684 -2.24274,-1.027924 1.16809,-2.149304 -2.38292,-0.607413 0.79431,-2.3361961 -2.42965,-0.1868963 0.3738,-2.4296455 -2.42965,0.233619 -0.0935,-2.4763699 -2.3362,0.7008596 -0.51397,-2.3829226 -2.19602,1.0746518 -0.93448,-2.2894739 -1.9624,1.4484425 -1.355,-2.05585369 L 103.85248,2.6289682 102.17042,0.80673491 100.86216,2.8625886 98.899752,1.4141461 97.965274,3.70362 95.769245,2.6289682 95.208559,5.0118908 92.825636,4.3110312 l -0.09345,2.4763699 -2.429645,-0.233619 0.37379,2.4296455 -2.429645,0.1868963 0.794306,2.3361961 -2.38292,0.607413 1.1681,2.149304 -2.196028,1.027924 1.541891,1.915684 -2.00913,1.401718 1.868958,1.588614 -1.728788,1.775512 2.102579,1.214822 -1.354993,2.055856 2.289474,0.84103 -0.981204,2.242751 2.429647,0.420514 -0.560688,2.382922 2.476369,-0.04671 -0.140173,2.429644 2.429646,-0.467238 0.280346,2.429645 2.289473,-0.887754 0.747583,2.336195 2.10258,-1.261545 1.121366,2.196026 1.82224,-1.635337 1.49516,1.962405 1.49517,-1.915684 1.82224,1.63534 1.12139,-2.196025 2.10255,1.261545 0.7476,-2.336198 2.28947,0.887756 0.28035,-2.429646 2.42964,0.46724 -0.14018,-2.476369 2.47638,0.04671 -0.56069,-2.382922 2.42964,-0.420514 -0.9812,-2.242751 2.28949,-0.84103 -1.35501,-2.055856 2.10258,-1.214822 -1.72878,-1.775512 1.86894,-1.588614 z M 103.85251,34.26109 c -8.129957,0 -14.76476,-6.634803 -14.76476,-14.764771 0,-8.12997 6.634803,-14.7647716 14.76476,-14.7647716 8.12997,0 14.76478,6.6348016 14.76478,14.7647716 0,8.129968 -6.63481,14.764771 -14.76478,14.764771 z"
       id="path2"
       inkscape:connector-curvature="0" /><path
       style="display:inline;fill:#692019;fill-opacity:1;stroke-width:0.46723962"
       d="m 103.66561,6.1332656 c -7.429093,0 -13.456486,6.0273914 -13.456486,13.4565004 0,7.42911 6.027393,13.456501 13.456486,13.456501 7.42912,0 13.4565,-6.074116 13.4565,-13.503224 0,-7.42911 -6.02738,-13.4097774 -13.4565,-13.4097774 z m 0,25.8850744 c -6.868407,0 -12.475283,-5.606875 -12.475283,-12.475297 0,-6.868423 5.606876,-12.4752985 12.475283,-12.4752985 6.86843,0 12.47532,5.6068755 12.47532,12.4752985 0,6.868422 -5.60689,12.475297 -12.47532,12.475297 z"
       id="path4"
       inkscape:connector-curvature="0" /><path
       style="opacity:1;fill:#992f24;fill-opacity:1;stroke:#692019;stroke-width:0.86142999;stroke-miterlimit:4;stroke-dasharray:none;stroke-opacity:1"
       d="m 103.63505,37.964062 c -1.6e-4,-0.07107 -0.30076,-0.477451 -0.66777,-0.903069 l -0.66731,-0.773861 -0.79283,0.730787 c -0.43602,0.401931 -0.8555,0.730786 -0.93213,0.730786 -0.0766,0 -0.36911,-0.465057 -0.649922,-1.033462 l -0.510593,-1.033462 -0.999264,0.602747 c -0.549597,0.331511 -1.027832,0.602747 -1.062739,0.602747 -0.03491,0 -0.231168,-0.503935 -0.436133,-1.11986 -0.204967,-0.615922 -0.390409,-1.119857 -0.412094,-1.119857 -0.02169,0 -0.523338,0.189642 -1.114784,0.421428 -1.205622,0.472478 -1.147806,0.516204 -1.317634,-0.99645 -0.103358,-0.92057 -0.144533,-0.998212 -0.486276,-0.916864 -0.205349,0.04887 -0.749193,0.143138 -1.208543,0.209463 l -0.835184,0.120595 0.05991,-1.185015 0.05991,-1.185016 -1.18868,0.06009 -1.18868,0.06009 0.133124,-0.835371 c 0.276915,-1.737668 0.305722,-1.678454 -0.899984,-1.850059 -0.592234,-0.08429 -1.076787,-0.217755 -1.076787,-0.296587 0,-0.07884 0.193822,-0.581598 0.430714,-1.117255 0.236894,-0.535659 0.430717,-0.992653 0.430717,-1.015545 0,-0.0229 -0.484556,-0.216572 -1.076789,-0.430404 -0.592233,-0.213827 -1.1026,-0.411548 -1.13415,-0.439373 -0.03154,-0.02783 0.22042,-0.463076 0.55993,-0.96722 0.339511,-0.504144 0.617292,-0.975144 0.617292,-1.046667 0,-0.07152 -0.426408,-0.37069 -0.947573,-0.664818 -0.521165,-0.294127 -0.947573,-0.582859 -0.947573,-0.641628 0,-0.05877 0.368261,-0.482607 0.818359,-0.941866 0.715396,-0.72996 0.783885,-0.860763 0.54436,-1.039634 -0.568095,-0.42425 -1.568781,-1.347593 -1.510025,-1.393323 0.03364,-0.02618 0.425469,-0.293753 0.870731,-0.594605 0.445263,-0.300855 0.85134,-0.614597 0.902395,-0.697205 0.05106,-0.08262 -0.225739,-0.550301 -0.615098,-1.039313 -0.389359,-0.489014 -0.679145,-0.915034 -0.643966,-0.946708 0.03517,-0.03167 0.490367,-0.270064 1.011531,-0.529757 0.521166,-0.259693 0.966658,-0.488386 0.989986,-0.508209 0.02334,-0.01983 -0.200251,-0.484067 -0.496835,-1.03165 -0.61385,-1.133352 -0.607051,-1.145427 0.825524,-1.466023 0.773435,-0.173088 0.924993,-0.264058 0.829818,-0.498086 -0.06405,-0.157479 -0.256856,-0.686057 -0.428469,-1.174617 l -0.312032,-0.8882899 0.37279,-0.099999 c 0.205032,-0.055001 0.748533,-0.1010569 1.207781,-0.1023547 l 0.834992,-0.0024 -0.108107,-1.196425 -0.108109,-1.1964252 1.211337,0.1015549 1.211337,0.101555 v -1.230959 c 0,-0.6770444 0.01938,-1.2299896 0.04307,-1.2287673 0.0237,0.00122 0.534863,0.1563827 1.13594,0.3448002 0.601079,0.1884176 1.152705,0.3055986 1.225834,0.2604021 0.07313,-0.045196 0.22485,-0.5492356 0.337159,-1.1200869 0.112304,-0.5708516 0.280401,-1.0379118 0.373541,-1.0379118 0.09313,0 0.551831,0.1938217 1.019318,0.4307149 0.467485,0.2368932 0.911093,0.430715 0.985795,0.430715 0.0747,0 0.316186,-0.4651722 0.536646,-1.033716 0.220459,-0.5685437 0.460881,-1.0337158 0.534272,-1.0337158 0.07342,0 0.488829,0.2713504 0.923182,0.6030009 0.434348,0.3316505 0.855518,0.603001 0.935948,0.603001 0.0803,0 0.41002,-0.4353135 0.73249,-0.9673633 l 0.58629,-0.96736309 0.86408,0.90581359 0.8641,0.9058136 0.82007,-0.8918903 0.82011,-0.89189011 0.63305,0.95343981 c 0.34818,0.5243918 0.68596,0.9534398 0.75062,0.9534398 0.0646,0 0.49922,-0.2713505 0.9657,-0.603001 0.46648,-0.3316505 0.88848,-0.6030009 0.93781,-0.6030009 0.0492,0 0.27443,0.4651721 0.50026,1.0337158 0.22582,0.5685438 0.47903,1.033716 0.56268,1.033716 0.0837,0 0.53457,-0.1938218 1.00205,-0.430715 0.4675,-0.2368932 0.91587,-0.4307149 0.99639,-0.4307149 0.0804,0 0.24776,0.5099303 0.37165,1.1331785 0.25066,1.2610764 0.0992,1.2025427 1.77618,0.6859527 l 0.81837,-0.2520763 v 1.2209112 1.2209108 l 1.20601,-0.08629 c 1.36294,-0.097519 1.31774,-0.1595507 1.05311,1.4457494 -0.13029,0.7903787 -0.12445,0.804328 0.37638,0.9045024 0.27979,0.055959 0.80913,0.1017376 1.17632,0.1017376 0.36717,0 0.66762,0.065394 0.66762,0.1453155 0,0.079918 -0.15507,0.5959962 -0.34459,1.1468308 -0.1895,0.550833 -0.34457,1.019535 -0.34457,1.041556 0,0.02202 0.50394,0.176449 1.11987,0.343171 0.61591,0.166722 1.11845,0.349771 1.11673,0.406776 -10e-4,0.057 -0.2343,0.523055 -0.51685,1.03567 -0.28256,0.512615 -0.51375,0.954058 -0.51375,0.980984 0,0.02692 0.46518,0.257712 1.03372,0.512859 0.56855,0.255149 1.03371,0.520718 1.03371,0.590157 0,0.06944 -0.31244,0.518686 -0.69435,0.998327 l -0.69435,0.872073 0.81529,0.571791 c 0.44841,0.314486 0.89656,0.631513 0.99585,0.704507 0.11561,0.08502 0.0429,0.248439 -0.20265,0.454749 -0.21077,0.177119 -0.6295,0.529263 -0.9305,0.782543 l -0.54728,0.460507 0.80129,0.813521 c 0.4407,0.447435 0.80129,0.863315 0.80129,0.924173 0,0.06086 -0.4264,0.354617 -0.94759,0.652798 -0.52115,0.298182 -0.94756,0.573716 -0.94756,0.612301 0,0.03859 0.27784,0.504493 0.61744,1.035355 0.33957,0.53086 0.59154,0.984554 0.55992,1.008209 -0.0315,0.02367 -0.53763,0.218846 -1.12447,0.433759 l -1.06695,0.390752 0.42636,0.96404 c 0.23448,0.53022 0.39071,1.056863 0.34719,1.170311 -0.0437,0.113461 -0.54994,0.260913 -1.12532,0.327694 -0.61062,0.07088 -1.04363,0.20404 -1.04004,0.319863 0.003,0.109145 0.11263,0.644231 0.24288,1.189085 l 0.23676,0.990645 h -1.20929 -1.2093 l 0.0652,1.292145 c 0.0359,0.71068 0.0185,1.292146 -0.0385,1.292146 -0.0571,0 -0.55045,-0.08971 -1.09632,-0.199325 -1.15774,-0.232506 -1.29623,-0.129046 -1.30467,0.974611 -0.008,1.118211 -0.12911,1.178704 -1.37527,0.690332 -0.60302,-0.236323 -1.10773,-0.410797 -1.12157,-0.38772 -0.0138,0.02307 -0.16774,0.526514 -0.34202,1.118748 -0.17427,0.592233 -0.38095,1.076786 -0.45928,1.076786 -0.0784,0 -0.52042,-0.232586 -0.98242,-0.516856 -0.46201,-0.284274 -0.91407,-0.51686 -1.00462,-0.51686 -0.0906,0 -0.38486,0.460781 -0.65404,1.02396 l -0.4894,1.023957 -0.92786,-0.79269 c -0.51763,-0.442235 -0.98724,-0.723555 -1.06218,-0.636314 -0.0739,0.086 -0.38724,0.485871 -0.69633,0.888589 -0.5173,0.674001 -0.87694,0.920962 -0.87807,0.603002 z m 3.51109,-4.12073 c 3.12828,-0.705105 6.55727,-2.911584 8.49255,-5.464764 0.93104,-1.22829 2.15031,-3.710243 2.54865,-5.188028 0.47755,-1.771721 0.53053,-4.718968 0.12043,-6.694855 -1.12379,-5.413299 -5.41805,-9.921119 -10.79576,-11.332633 -1.88774,-0.4954848 -5.16058,-0.5343882 -6.97759,-0.082942 -1.563823,0.3885458 -3.722268,1.3640928 -5.123544,2.3156812 -2.232913,1.5163435 -4.665801,4.8151308 -5.590949,7.5808528 -0.538764,1.610628 -0.55763,1.763203 -0.55763,4.509747 0,2.739209 0.01999,2.902311 0.549543,4.479433 1.839344,5.478158 6.501382,9.371264 12.175,10.166924 1.32271,0.185494 3.62548,0.05633 5.15935,-0.289417 z"
       id="path5033"
       inkscape:connector-curvature="0" /><path
       style="opacity:1;fill:#ffcc00;fill-opacity:1;stroke:#692019;stroke-width:0.3045615;stroke-miterlimit:4;stroke-dasharray:none;stroke-opacity:1"
       d="m 102.58185,33.758865 c -1.94496,-0.171397 -4.19589,-0.91111 -5.929858,-1.948708 -2.003533,-1.198905 -3.741496,-2.899489 -4.934897,-4.828764 -0.902333,-1.458732 -1.739751,-3.538013 -1.928894,-4.789387 -0.09984,-0.660523 -0.100093,-4.758265 -3.24e-4,-5.421194 0.117415,-0.780301 0.624725,-2.23407 1.137153,-3.258691 1.029032,-2.0576 2.817689,-4.3215315 4.289311,-5.4290533 C 96.419,7.1764568 98.218679,6.2725424 99.901718,5.728769 101.20366,5.30812 101.60902,5.259382 103.8001,5.260062 c 1.71091,5.31e-4 1.99936,0.015144 2.66309,0.1349096 5.24069,0.9456314 9.6589,5.0050134 11.19527,10.2860394 0.64578,2.219707 0.63095,5.853739 -0.0319,7.832386 -0.40115,1.197327 -1.25408,2.966095 -1.93295,4.008435 -1.22211,1.876415 -3.2803,3.61192 -5.71087,4.815451 -1.95785,0.969476 -3.60997,1.356169 -6.06076,1.418588 -0.58628,0.01494 -1.1893,0.01628 -1.34007,0.003 z m 2.98231,-0.848631 c 2.9355,-0.409431 5.76641,-1.879736 7.84209,-4.072964 1.93611,-2.04577 3.15127,-4.554211 3.58903,-7.408839 0.14665,-0.956254 0.14665,-2.815963 0,-3.772219 -0.45652,-2.976966 -1.69963,-5.443231 -3.81121,-7.561313 -2.47883,-2.4864603 -5.54611,-3.82044 -9.05003,-3.9359275 -3.90875,-0.1288295 -7.437045,1.3030249 -10.162665,4.1242125 -2.438783,2.524294 -3.752047,5.78005 -3.754225,9.307222 -0.0028,4.5145 2.230882,8.681321 5.999363,11.191569 1.558271,1.037992 3.138212,1.681248 5.005507,2.037936 1.35116,0.258098 2.90719,0.290466 4.34214,0.09033 z"
       id="path5039"
       inkscape:connector-curvature="0" /><path
       style="opacity:1;fill:#992f24;fill-opacity:1;stroke:#692019;stroke-width:0.3045615;stroke-miterlimit:4;stroke-dasharray:none;stroke-opacity:1"
       d="M 101.82297,31.868874 C 96.27483,31.018505 91.979623,26.59711 91.288255,21.024679 c -0.09438,-0.760668 -0.07866,-2.390007 0.03062,-3.173453 0.663964,-4.760416 4.022054,-8.740388 8.595022,-10.1867192 3.069843,-0.9709284 6.304823,-0.7310201 9.194803,0.6818915 3.83313,1.8740317 6.44339,5.5465027 6.93299,9.7542537 0.7834,6.73304 -4.02444,12.916775 -10.72576,13.795245 -0.94404,0.123745 -2.59249,0.110993 -3.49296,-0.02701 z"
       id="path5041"
       inkscape:connector-curvature="0" /></g><g
     inkscape:groupmode="layer"
     id="layer4"
     inkscape:label="numéro"
     sodipodi:insensitive="true"
     style="display:inline"><text
       xml:space="preserve"
       style="font-style:normal;font-weight:normal;font-size:25.28574944px;line-height:39.50898361px;font-family:sans-serif;letter-spacing:0px;word-spacing:0px;fill:#ffcc00;fill-opacity:1;stroke:none;stroke-width:1.58035934px;stroke-linecap:butt;stroke-linejoin:miter;stroke-opacity:1"
       x="95.822731"
       y="28.321953"
       id="text5046"><tspan
         sodipodi:role="line"
         id="tspan5044"
         x="95.822731"
         y="28.321953"
         style="stroke-width:1.58035934px">1</tspan></text>
</g><g
     inkscape:groupmode="layer"
     id="layer2"
     inkscape:label="badge"
     transform="translate(33.775997,17.83617)"
     style="display:inline"
     sodipodi:insensitive="true"><path
       inkscape:connector-curvature="0"
       d="m 16.027312,50.130717 c 0,0.4 -0.3,0.7 -0.7,0.7 h -1.2 c -0.4,0 -0.7,-0.3 -0.7,-0.7 0,-0.4 0.3,-0.7 0.7,-0.7 h 1.2 c 0.4,0.1 0.7,0.4 0.7,0.7 z m 44.8,19.3 c -1.2,1.7 -3.1,2.7 -5.2,2.7 h -4.8 c -3.1,0 -4.6,-2.2 -5.9,-4.7 v -0.1 l -3.3,-8.2 h -19.9 l -3.3,8.1 c -0.6,2.8 -3.2,4.9 -6.100001,4.9 H 4.3273106 c -1.3,0 -2.6,-0.7 -3.4,-1.8 -0.8,-1.1 -0.9,-2.5 -0.5,-3.8 v -0.1 l 0.7,-1.3 c -1.1,-1.1 -0.7,-3 -0.2,-4 l 7.1000004,-13 -2.6000004,-3.1 h -7.6 c -3.6,0 -6.6,-2.3 -7.7999998,-5.4 l -2.8999998,1 c -0.1,0 -0.2,0 -0.4,0 -0.5,0 -1,-0.2 -1.4,-0.5 -0.5,-0.4 -0.8,-1 -0.8,-1.7 v -3 c 0,-0.6 0.3,-1.2 0.7,-1.6 0.5,-0.4 1.1,-0.6 1.7,-0.5 h 0.1 l 2.9,0.7 c 1.0999996,-3.2 4.1999996,-5.6 7.8999996,-5.6 h 5.5 l 5.6000004,-10.9 c 0.5,-1 1.2,-1.8 2,-2.5 1.6,-1.2 4.700001,-2.5 8.700001,1.9 1.8,1.7 2.2,4.5 0.8,6.700001 l -4.8,7.599999 c 0,0 0,0 0,0 -0.1,0.3 -0.3,0.5 -0.4,0.7 -0.1,0.3 -0.2,0.7 0,1.1 l 6.3,6.6 h 22.9 l 4.4,-7.2 c 1.1,-1.8 3.3,-2.6 5.3,-2 l 3.9,-6.999999 c 0.6,-1 1.8,-1.3 2.8,-0.8 0.5,0.3 0.8,0.7 1,1.2 0.1,0.499999 0.1,1.099999 -0.2,1.599999 l -3.9,7 c 1.7,1.3 2.2,3.8 1.1,5.7 l -2.8,5.3 c 1.2,1.3 4.9,6.1 4.1,14.8 l 1.5,5.1 c 0.7,2.2 0.4,4.4 -0.8,6.1 z m -5.5,-24.4 -1.4,2.7 c 1.7,0.4 3.2,1.6 3.9,3.3 l 1,3.2 c -0.4,-5 -2.5,-8 -3.5,-9.2 z m -37.2,-27.4 c -0.9,-0.6 -2.1,-0.8 -3.2,-0.5 -1.1,0.3 -2,1 -2.500001,2 l -4.7000004,9.2 c 0,0 0,0 0,0 0,0 0,0 0,0 -0.6,0.9 -2,3.6 -1.2,4.8 0.4,0.6 1.7000004,1.8 3.3000004,1.8 1.5,-0.1 2.9,-1.3 4.300001,-3.5 0.2,-0.4 0.4,-0.8 0.5,-0.9 l 4.7,-7.399999 c 1.1,-1.800001 0.6,-4.300001 -1.2,-5.500001 z m -13.3000014,10.9 h 0.9 c 0.2,-0.1 0.6,-0.5 0.8,-0.8 l 4.7000004,-9.2 c 0.7,-1.4 1.900001,-2.3 3.400001,-2.7 0.3,-0.1 0.7,-0.1 1,-0.2 -1.3,-0.5 -2.6,-0.3 -3.800001,0.6 -0.6,0.5 -1.2,1.2 -1.6,2 z m -15.0999996,10 c -0.1,-0.4 -0.1,-0.8 -0.1,-1.1 -0.1,0.2 -0.2,0.3 -0.4,0.3 -0.2,0 -0.4,-0.2 -0.4,-0.4 0,-0.2 0.2,-0.4 0.4,-0.4 0.2,0 0.3,0.1 0.4,0.2 0,0 0,-0.1 0,-0.1 0,-0.5 0.1,-1 0.1,-1.5 l -2.8,-0.7 c -0.2,0 -0.5,0.1 -0.6,0.2 -0.2,0.2 -0.3,0.4 -0.3,0.6 v 1.2 h 2.1 c 0.3,0 0.5,0.2 0.5,0.5 0,0.3 -0.2,0.5 -0.5,0.5 h -2.1 v 0.9 c 0,0.3 0.1,0.5 0.3,0.7 0.2,0.2 0.4,0.2 0.7,0.2 z m 12.2999996,25.4 7.8000004,-13.7 -0.7,-0.8 -6.8000004,12.5 v 0 c -0.1,-0.1 -0.6,1.2 -0.3,2 z m 58.3000014,0.1 -1.6,-5.3 c 0,0 0,0 0,0 l -2.2,-7.4 c -0.6,-1.5 -2,-2.5 -3.6,-2.5 0,0 0,0 0,0 0,0 0,0 0,0 -0.1,0 -0.2,0 -0.2,0 0,0 0,0 0,0 0,0 0,0 0,0 0,0 0,0 -0.1,-0.1 0,0 -0.1,-0.1 -0.1,-0.1 0,0 0,-0.1 -0.1,-0.1 0,0 0,-0.1 -0.1,-0.1 0,0 0,-0.1 0,-0.1 0,0 0,-0.1 0,-0.1 0,0 0,0 0,0 0,0 0,-0.1 0,-0.1 0,0 0,-0.1 0,-0.1 0,0 0,0 0,0 l 5.3,-10.2 c 0.9,-1.5 0.4,-3.4 -1.1,-4.2 0,0 0,0 0,0 -0.2,-0.1 -0.4,-0.4 -0.3,-0.7 0,-0.1 0,-0.2 0.1,-0.2 0,0 0,0 0,0 v 0 c 0,0 0,0 0,0 0,0 0,0 0,0 l 4.2,-7.5 c 0.1,-0.2 0.1,-0.4 0.1,-0.5 -0.1,-0.2 -0.2,-0.3 -0.3,-0.4 -0.3,-0.2 -0.8,-0.1 -1,0.3 l -4,6.6 0.2,0.1 c 0.3,0.2 0.4,0.6 0.2,0.9 -0.2,0.3 -0.6,0.4 -0.9,0.2 l -0.6,-0.3 c -1.5,-0.9 -3.4,-0.3 -4.2,1.1 l -4.3,7.2 2.7,3.7 c 0.2,0.3 0.2,0.7 -0.1,0.9 -0.1,0.1 -0.3,0.1 -0.4,0.1 -0.2,0 -0.4,-0.1 -0.5,-0.3 l -2.9,-3.7 h -22.9 l -4.6,7.4 c -0.1,0.2 -0.3,0.3 -0.6,0.3 -0.1,0 -0.2,0 -0.4,-0.1 -0.3,-0.2 -0.4,-0.6 -0.2,-0.9 l 4.5,-7.3 -6.3,-6.6 c 0,-0.1 -0.1,-0.1 -0.1,-0.2 -1.300001,1.6 -2.700001,2.5 -4.300001,2.6 -0.1,0 -0.2,0 -0.2,0 -2.1000004,0 -3.6000004,-1.5 -4.3000004,-2.3 -0.8,-1.1 -0.4,-2.8 0.1,-4.1 h -7.5 c -3.9,0 -6.9999998,3.1 -6.9999998,7 0,3.9 3.0999998,7 6.9999998,7 h 7.6 l 3.4000004,-4.6 c 0.2,-0.3 0.6,-0.4 0.9,-0.1 0.3,0.2 0.4,0.6 0.1,0.9 l -1,1.4 2.9,2.8 c 0.2,0.2 0.2,0.5 0,0.7 -0.1,0.1 -0.2,0.1 -0.3,0.1 -0.1,0 -0.2,0 -0.3,-0.1 l -2.8,-2.7 -1.7000004,2.3 4.2000004,5 h 1.6 c 0.4,0 0.700001,0.3 0.700001,0.7 0,0.4 -0.300001,0.7 -0.700001,0.7 h -1.5 l -9.1000004,16.1 c -0.3,0.8 -0.2,1.8 0.3,2.5 0.5,0.8 1.4,1.2 2.3,1.2 h 8.0000004 c 2.300001,0 4.300001,-1.6 4.800001,-3.9 v -0.1 l 3.4,-8.3 -2,-7.7 h -1.4 c -0.4,0 -0.7,-0.3 -0.7,-0.7 0,-0.4 0.3,-0.7 0.7,-0.7 h 1.6 c 0.5,0 0.9,0.3 1,0.8 l 1.9,7.6 h 19.7 l 2.8,-4.8 c 0.1,-0.1 1.6,-2.8 4.9,-3.5 0.4,-0.1 0.7,0.1 0.8,0.5 0.1,0.4 -0.1,0.7 -0.5,0.8 -2.7,0.6 -4.1,2.9 -4.1,2.9 l -2.8,4.9 3.4,8.3 c 1.4,2.6 2.5,3.9 4.7,3.9 h 4.8 c 1.7,0 3.2,-0.8 4.1,-2.2 1.3,-1.3 1.5,-3 0.9,-4.6 z m -58.3000014,-28.5 -7.1,0.8 c -0.3,0 -0.4,0.3 -0.4,0.5 0,0.2 0.2,0.4 0.5,0.4 0,0 0,0 0.1,0 l 7.1,-0.8 c 0.3,0 0.4,-0.3 0.4,-0.5 -0.1,-0.2 -0.4,-0.4 -0.6,-0.4 z m 1.3,-0.3 c -0.3,0 -0.5,0.2 -0.5,0.5 0,0.3 0.2,0.4 0.5,0.4 0.3,0 0.5,-0.2 0.5,-0.5 0,-0.3 -0.3,-0.4 -0.5,-0.4 z m 7.9000004,-11.1 c -0.2,-0.1 -0.5,0 -0.6,0.2 l -1.5,3 c -0.1,0.2 0,0.5 0.2,0.6 0.1,0 0.1,0.1 0.2,0.1 0.2,0 0.3,-0.1 0.4,-0.3 l 1.5,-3 c 0.1,-0.2 0,-0.5 -0.2,-0.6 z m 0.3,-1.299999 c -0.3,0 -0.5,0.2 -0.5,0.5 0,0.3 0.2,0.5 0.5,0.5 0.3,0 0.5,-0.2 0.5,-0.5 0,-0.3 -0.2,-0.5 -0.5,-0.5 z m 0.9,22.199999 c -0.2,0 -0.4,0.2 -0.4,0.4 0,0.2 0.2,0.4 0.4,0.4 0.2,0 0.4,-0.2 0.4,-0.4 0,-0.2 -0.1,-0.4 -0.4,-0.4 z m -8.8000004,23.5 c -0.7,-0.6 0.5,-2.2 0.5,-2.2 0.2,-0.2 0.1,-0.5 -0.1,-0.7 -0.2,-0.2 -0.5,-0.1 -0.7,0.1 -0.7,0.8 -1.5,2.5 -0.4,3.5 0.1,0.1 0.2,0.1 0.3,0.1 0.1,0 0.3,-0.1 0.3,-0.2 0.3,-0.1 0.3,-0.4 0.1,-0.6 z m 0.6,0.6 c -0.3,0 -0.5,0.2 -0.5,0.5 0,0.3 0.2,0.5 0.5,0.5 0.3,0 0.5,-0.2 0.5,-0.5 -0.1,-0.3 -0.3,-0.5 -0.5,-0.5 z m 10.8000014,-14.2 c -0.2,-0.1 -0.5,-0.1 -0.6,0.1 l -5.300001,8.2 c -0.1,0.2 -0.1,0.5 0.1,0.6 0.1,0.1 0.2,0.1 0.3,0.1 0.2,0 0.3,-0.1 0.4,-0.2 l 5.300001,-8.2 c 0.1,-0.2 0.1,-0.5 -0.2,-0.6 z m -6.300001,9.2 c -0.3,0 -0.5,0.2 -0.5,0.5 0,0.3 0.2,0.5 0.5,0.5 0.3,0 0.5,-0.2 0.5,-0.5 0,-0.3 -0.2,-0.5 -0.5,-0.5 z m 30.800001,-14.4 h -18.2 c -0.3,0 -0.5,0.2 -0.5,0.5 0,0.3 0.2,0.5 0.5,0.5 h 18.2 c 0.3,0 0.5,-0.2 0.5,-0.5 0,-0.3 -0.2,-0.5 -0.5,-0.5 z m 18.2,-21.8 c 0.1,0 0.1,0 0.2,0 0.1,0 0.2,-0.1 0.3,-0.2 l 1.6,-2.9 c 0.1,-0.2 0,-0.4 -0.1,-0.5 -0.2,-0.1 -0.4,0 -0.5,0.1 l -1.6,2.9 c -0.2,0.3 -0.1,0.5 0.1,0.6 z m -6.7,32.7 -2.3,-4.7 c -0.1,-0.2 -0.4,-0.3 -0.6,-0.2 -0.2,0.1 -0.3,0.4 -0.2,0.6 l 2.3,4.7 c 0.1,0.2 0.2,0.3 0.4,0.3 0.1,0 0.1,0 0.2,0 0.3,-0.2 0.3,-0.4 0.2,-0.7 z m 0.2,0.9 c -0.3,0 -0.5,0.2 -0.5,0.5 0,0.3 0.2,0.5 0.5,0.5 0.3,0 0.5,-0.2 0.5,-0.5 0.1,-0.2 -0.2,-0.5 -0.5,-0.5 z m 1.3,-26.3 c 0,-0.4 -0.3,-0.7 -0.7,-0.7 -0.4,0 -0.7,0.3 -0.7,0.7 0,0.4 0.3,0.7 0.7,0.7 0.4,0 0.7,-0.3 0.7,-0.7 z"
       id="path2-7" /><path
       style="opacity:1;fill:#ff99ff;fill-opacity:1;stroke:none;stroke-width:0.96704978;stroke-miterlimit:4;stroke-dasharray:none;stroke-opacity:1"
       d="M 2.978042,70.53759 C 2.045037,70.077638 1.523189,69.112633 1.605062,67.998667 1.662082,67.22289 2.361568,65.860675 6.21693,59.017305 l 4.544657,-8.066884 1.002369,-0.008 c 0.827044,-0.0066 1.023748,-0.07534 1.124592,-0.393069 0.193458,-0.609529 -0.04715,-0.775365 -1.124997,-0.775365 h -1.00601 L 8.632054,47.230685 c -1.169017,-1.398818 -2.113621,-2.580951 -2.09912,-2.626963 0.0145,-0.04601 0.399659,-0.598941 0.855907,-1.228727 l 0.829541,-1.145068 1.506955,1.466487 c 1.37141,1.334583 1.906595,1.61344 1.906595,0.993427 0,-0.124339 -0.663293,-0.893277 -1.473987,-1.708752 L 8.683959,41.498406 9.303415,40.598058 C 9.802914,39.872062 9.87777,39.643365 9.689965,39.417075 9.561866,39.262726 9.343571,39.13644 9.204865,39.13644 c -0.138707,0 -1.059165,1.093309 -2.045463,2.429575 l -1.793269,2.429575 -4.748556,-0.0603 -4.748556,-0.0603 -1.149924,-0.564605 c -1.464511,-0.719064 -2.704572,-1.959125 -3.362295,-3.362294 -0.451766,-0.963788 -0.51644,-1.343965 -0.51644,-3.035859 0,-1.7237 0.05852,-2.053263 0.537933,-3.029508 0.716,-1.458014 1.895212,-2.605487 3.426971,-3.334734 l 1.257165,-0.598517 4.611449,-0.06388 c 4.395064,-0.06089 4.606402,-0.04727 4.503876,0.290115 -0.701558,2.308649 -0.532096,3.311176 0.761221,4.503313 2.284373,2.105662 4.711566,2.077941 7.018751,-0.08016 l 0.94597,-0.884845 3.215841,3.363062 c 1.768713,1.849683 3.215841,3.409807 3.215841,3.466941 0,0.05713 -1.005625,1.732192 -2.234722,3.722353 -2.178363,3.527217 -2.521322,4.370117 -1.826887,4.490006 0.159563,0.02755 0.382149,-0.01509 0.494636,-0.09473 0.112486,-0.07965 1.242307,-1.820229 2.510713,-3.867957 l 2.306193,-3.723141 11.511507,0.0062 11.511509,0.0062 1.257164,1.647427 c 1.701176,2.229273 2.030662,2.529493 2.420756,2.205742 0.398614,-0.33082 0.354532,-0.421972 -1.263684,-2.613022 l -1.379118,-1.867312 2.359346,-3.946778 c 2.475002,-4.140248 2.90359,-4.622925 4.307118,-4.850686 0.442199,-0.07176 0.960282,0.02695 1.579796,0.300988 0.506999,0.224271 1.087554,0.407765 1.29012,0.407765 0.465371,0 0.667233,-0.49553 0.355081,-0.87165 -0.195402,-0.235444 -0.02734,-0.639953 0.943158,-2.270104 0.649511,-1.090985 1.181942,-1.8313 1.183181,-1.645142 0.0012,0.186157 0.08411,0.338467 0.18415,0.338467 0.18518,0 1.945613,-2.993899 1.945613,-3.308828 0,-0.399421 -0.345351,-0.119601 -0.757546,0.613803 -0.568581,1.011651 -0.751114,0.855518 -0.219066,-0.187382 0.330772,-0.648366 0.504682,-0.792382 0.956861,-0.792382 0.30394,0 0.66153,0.131231 0.794644,0.291624 0.20162,0.242939 -0.133462,0.965822 -2.007123,4.33002 -1.237031,2.221117 -2.249149,4.132053 -2.249149,4.246523 0,0.114471 0.369896,0.553164 0.821992,0.974875 0.815169,0.760382 0.821898,0.777697 0.810579,2.086143 -0.01137,1.314445 -0.02177,1.339173 -2.770437,6.588973 -1.517461,2.898267 -2.729666,5.422267 -2.693788,5.608888 0.04455,0.231709 0.309769,0.373734 0.836335,0.447852 1.784636,0.251203 2.963201,1.406524 3.584672,3.513965 0.228067,0.773385 1.19671,4.017189 2.152542,7.208453 1.85549,6.194977 1.925719,6.667622 1.199395,8.072175 -0.538495,1.041337 -2.403565,2.748267 -3.286795,3.008107 -0.999749,0.294118 -7.180033,0.316626 -7.94313,0.02893 -1.592826,-0.600518 -2.709683,-2.360232 -4.908888,-7.734415 l -1.751959,-4.281251 1.451145,-2.552387 c 0.79813,-1.403812 1.636948,-2.788598 1.864043,-3.077301 0.549613,-0.698721 1.976518,-1.665082 3.073433,-2.081463 0.707768,-0.268665 0.888218,-0.429513 0.888218,-0.791731 0,-0.405658 -0.07962,-0.449806 -0.739964,-0.4103 -0.990835,0.05928 -2.518416,0.915142 -3.598891,2.016366 -0.485768,0.495097 -1.565704,2.083476 -2.399858,3.529732 l -1.516643,2.629555 h -9.899567 -9.899566 l -0.94046,-3.819846 c -0.517253,-2.100916 -1.018502,-3.972157 -1.11389,-4.158314 -0.236827,-0.462198 -2.817032,-0.501771 -2.991971,-0.04589 -0.193522,0.50431 0.310338,0.867882 1.202758,0.867882 0.781431,0 0.848873,0.04214 1.006165,0.628583 0.09273,0.34572 0.545842,2.108168 1.006922,3.916551 l 0.838325,3.287969 -1.649222,4.061609 c -0.907073,2.233885 -1.79057,4.454345 -1.963327,4.934356 -0.441459,1.226606 -1.309171,2.199951 -2.482388,2.784591 -1.003662,0.500146 -1.013524,0.500968 -5.94766,0.496572 -4.132563,-0.0037 -5.045124,-0.05508 -5.569709,-0.31369 z M 4.577705,69.880163 C 4.732042,69.63044 4.302576,69.079668 4.067029,69.225244 c -0.09432,0.05829 -0.171495,0.274923 -0.171495,0.481395 0,0.396396 0.470466,0.516068 0.682171,0.173524 z M 3.515517,69.010093 C 3.703041,68.78414 3.708786,68.657472 3.539197,68.487886 3.218326,68.167015 3.261102,67.759817 3.702122,66.93697 c 0.479264,-0.894202 0.499238,-1.353368 0.05515,-1.267845 -0.888606,0.17113 -1.543768,2.277907 -1.015399,3.265174 0.241867,0.451932 0.444958,0.47183 0.773638,0.07579 z m 5.602086,-4.343527 c 0,-0.25788 -0.12894,-0.38682 -0.38682,-0.38682 -0.25788,0 -0.38682,0.12894 -0.38682,0.38682 0,0.257879 0.12894,0.38682 0.38682,0.38682 0.25788,0 0.38682,-0.128941 0.38682,-0.38682 z m 0.807912,-1.112108 c 0.674175,-0.793323 5.187796,-7.994697 5.187796,-8.277005 0,-0.865367 -0.885164,0.185944 -3.329662,3.954645 -2.400333,3.700609 -2.877323,4.660828 -2.315273,4.660828 0.09323,0 0.298939,-0.15231 0.457139,-0.338468 z m 41.701199,-1.569394 c -0.08923,-0.463356 -0.732562,-0.52716 -0.732562,-0.07265 0,0.202821 0.05203,0.420792 0.115615,0.48438 0.213406,0.213406 0.677668,-0.09642 0.616947,-0.411726 z m -0.648941,-0.972119 c 0.179363,-0.290213 -2.361524,-5.243237 -2.689764,-5.243237 -0.490634,0 -0.347656,0.470595 0.910224,2.995885 1.107758,2.223913 1.493193,2.710674 1.77954,2.247352 z M 15.790246,50.160819 c 0,-0.447073 -0.07671,-0.487938 -1.017564,-0.54206 -1.064157,-0.06121 -1.38732,0.179092 -1.132801,0.842358 0.08825,0.229982 0.353502,0.286591 1.132801,0.241763 0.940852,-0.05412 1.017564,-0.09499 1.017564,-0.542061 z m 24.044638,0.04835 0.0618,-0.435173 h -9.399903 c -8.440424,0 -9.412034,0.03161 -9.518723,0.309634 -0.06535,0.1703 0.0027,0.387035 0.151127,0.481636 0.150513,0.0959 4.334583,0.151441 9.456918,0.125536 l 9.186973,-0.04646 z M 12.70364,45.506113 c 0.178003,-0.288016 -0.02838,-0.444609 -0.39869,-0.302507 -0.170893,0.06558 -0.256544,0.206881 -0.190338,0.314009 0.156774,0.253665 0.428424,0.24836 0.589028,-0.01151 z M -0.84301,36.706135 c 3.138315,-0.329934 3.653527,-0.472754 3.23071,-0.895571 -0.179499,-0.179498 -1.062436,-0.135805 -3.940717,0.195011 -2.040164,0.234487 -3.748432,0.465383 -3.796151,0.513102 -0.04772,0.04772 -0.03157,0.230582 0.03588,0.406361 0.09219,0.240248 0.278199,0.293135 0.74918,0.213015 0.344597,-0.05862 2.019092,-0.252983 3.721098,-0.431918 z m 4.508315,-1.00271 c -0.03585,-0.186157 -0.193351,-0.338467 -0.350001,-0.338467 -0.156649,0 -0.31415,0.15231 -0.35,0.338467 -0.04573,0.237479 0.0587,0.338468 0.35,0.338468 0.291304,0 0.395735,-0.100989 0.350001,-0.338468 z m 48.679422,-0.435172 c 0,-0.383706 -0.109801,-0.496159 -0.531878,-0.544724 -0.449473,-0.05172 -0.531877,0.01071 -0.531877,0.402937 0,0.582775 0.1676,0.753593 0.668976,0.681823 0.277087,-0.03966 0.394779,-0.200659 0.394779,-0.540036 z"
       id="path5358"
       inkscape:connector-curvature="0" /><path
       style="opacity:1;fill:#ff99ff;fill-opacity:1;stroke:none;stroke-width:0.48352489;stroke-miterlimit:4;stroke-dasharray:none;stroke-opacity:1"
       d="m 8.517024,34.693126 c -1.106157,-0.464449 -2.00055,-1.282218 -2.195929,-2.007801 -0.230782,-0.85706 0.194532,-2.277947 1.25997,-4.209298 0.258637,-0.468839 1.490341,-2.854228 2.737119,-5.300864 2.500604,-4.907099 2.72327,-5.241914 3.850374,-5.789665 3.246806,-1.577885 6.681808,1.514521 5.541483,4.988794 -0.08237,0.250961 -1.332568,2.328454 -2.778218,4.616651 -1.445649,2.288197 -2.802522,4.45108 -3.015273,4.806408 -0.559294,0.934108 -2.076284,2.448181 -2.804445,2.799053 -0.817521,0.393929 -1.800019,0.430549 -2.595081,0.09672 z m 2.110951,-8.493852 0.869739,-1.714433 -0.205199,-0.205198 c -0.170715,-0.170715 -0.239941,-0.186605 -0.41194,-0.09455 -0.20597,0.110232 -1.750922,3.051819 -1.750922,3.333753 0,0.200238 0.286357,0.457893 0.471087,0.423872 0.09507,-0.01751 0.502244,-0.708576 1.027235,-1.74344 z m 1.252287,-2.610456 c 0.193732,-0.276591 0.189949,-0.325894 -0.04287,-0.558712 -0.232839,-0.232839 -0.417942,-0.245179 -0.621675,-0.04144 -0.19409,0.194089 -0.19409,0.46903 0,0.66312 0.214533,0.214533 0.488349,0.18859 0.664544,-0.06296 z"
       id="path5370"
       inkscape:connector-curvature="0" /><path
       style="opacity:1;fill:#ff99ff;fill-opacity:1;stroke:none;stroke-width:0.48352489;stroke-miterlimit:4;stroke-dasharray:none;stroke-opacity:1"
       d="m 5.192673,27.744473 c 0.236724,-0.438799 1.486953,-2.821367 2.778287,-5.294597 1.291334,-2.47323 2.536676,-4.764887 2.767427,-5.092572 1.048837,-1.489432 2.648584,-2.249285 4.142179,-1.967464 0.705743,0.133164 0.87353,0.256138 0.466337,0.341787 -0.926042,0.194782 -1.211162,0.285536 -1.833446,0.583591 -0.454387,0.217637 -0.889702,0.52852 -1.263561,0.902378 -0.628688,0.628689 -0.83412,0.999595 -4.026465,7.26975 -1.965137,3.85977 -2.106529,4.054943 -2.937573,4.054943 H 4.762266 Z"
       id="path5372"
       inkscape:connector-curvature="0" /><path
       style="opacity:1;fill:#ff99ff;fill-opacity:1;stroke:none;stroke-width:0.48352489;stroke-miterlimit:4;stroke-dasharray:none;stroke-opacity:1"
       d="m -13.70016,39.380685 c -0.255125,-0.255124 -0.282676,-0.344666 -0.282676,-0.918697 v -0.636021 h 1.112107 c 0.983168,0 1.134532,-0.02242 1.305518,-0.19341 0.232818,-0.232818 0.236601,-0.282121 0.04287,-0.558712 -0.141276,-0.2017 -0.221624,-0.214928 -1.305517,-0.214928 h -1.154976 v -0.778035 c 0,-0.697123 0.02468,-0.802721 0.237367,-1.015402 0.350164,-0.350165 0.599989,-0.322485 3.168236,0.351024 l 0.359397,0.09425 -0.05858,0.794963 c -0.03222,0.437229 -0.07004,0.808857 -0.08404,0.825839 -0.014,0.01698 -0.1132,-0.02392 -0.220436,-0.09089 -0.369761,-0.23092 -0.695483,0.309923 -0.356221,0.591485 0.116505,0.09669 0.191603,0.08917 0.38682,-0.03874 l 0.242246,-0.158726 v 0.429493 c 0,0.236221 0.02234,0.487705 0.04964,0.558855 0.03489,0.09091 -0.360354,0.294711 -1.329693,0.685642 -0.758634,0.305954 -1.480596,0.555921 -1.60436,0.555482 -0.123763,-4.35e-4 -0.352229,-0.128003 -0.507701,-0.283475 z"
       id="path5374"
       inkscape:connector-curvature="0" /><path
       style="opacity:1;fill:#ff99ff;fill-opacity:1;stroke:none;stroke-width:0.48352489;stroke-miterlimit:4;stroke-dasharray:none;stroke-opacity:1"
       d="m 1.922398,63.617276 c -0.03552,-0.189324 -0.01942,-0.554009 0.03577,-0.810412 0.06452,-0.299744 1.200615,-2.485984 3.182087,-6.123427 1.694959,-3.111482 3.275088,-6.016215 3.511397,-6.454962 0.23631,-0.438746 0.458635,-0.797763 0.494057,-0.797816 0.03542,-5.2e-5 0.20438,0.176642 0.375465,0.392653 0.256585,0.323966 0.294128,0.429817 0.214368,0.604406 -0.150231,0.328847 -7.575038,13.352664 -7.667007,13.44866 -0.04527,0.04725 -0.110285,-0.06802 -0.146132,-0.259102 z"
       id="path5376"
       inkscape:connector-curvature="0" /><path
       style="opacity:1;fill:#ff99ff;fill-opacity:1;stroke:none;stroke-width:0.48352489;stroke-miterlimit:4;stroke-dasharray:none;stroke-opacity:1"
       d="m 58.235588,52.470789 c -0.387658,-1.222334 -0.663269,-1.91265 -0.925454,-2.317959 -0.641427,-0.991574 -1.774378,-1.871939 -2.8742,-2.233409 -0.265938,-0.0874 -0.497959,-0.171111 -0.5156,-0.186014 -0.01764,-0.0149 0.293552,-0.646007 0.691543,-1.402453 l 0.723619,-1.375356 0.454748,0.617675 c 1.006569,1.367202 1.844156,3.073853 2.358827,4.806303 0.303818,1.022688 0.719305,3.27244 0.668894,3.621881 -0.01667,0.115545 -0.278739,-0.573255 -0.582377,-1.530668 z"
       id="path5378"
       inkscape:connector-curvature="0" /></g></svg>