<?xml version="1.0" encoding="UTF-8" standalone="no"?>
<svg
   xmlns:dc="http://purl.org/dc/elements/1.1/"
   xmlns:cc="http://creativecommons.org/ns#"
   xmlns:rdf="http://www.w3.org/1999/02/22-rdf-syntax-ns#"
   xmlns:svg="http://www.w3.org/2000/svg"
   xmlns="http://www.w3.org/2000/svg"
   xmlns:sodipodi="http://sodipodi.sourceforge.net/DTD/sodipodi-0.dtd"
   xmlns:inkscape="http://www.inkscape.org/namespaces/inkscape"
   version="1.1"
   x="0px"
   y="0px"
   viewBox="0 0 92.946815 84.932411"
   enable-background="new 0 0 100 100"
   xml:space="preserve"
   id="svg8"
   sodipodi:docname="noun_574842_cc.svg"
   width="92.946815"
   height="84.932411"
   inkscape:version="0.92.0 unknown"><metadata
     id="metadata14"><rdf:RDF><cc:Work
         rdf:about=""><dc:format>image/svg+xml</dc:format><dc:type
           rdf:resource="http://purl.org/dc/dcmitype/StillImage" /></cc:Work></rdf:RDF></metadata><defs
     id="defs12" /><sodipodi:namedview
     pagecolor="#ffffff"
     bordercolor="#666666"
     borderopacity="1"
     objecttolerance="10"
     gridtolerance="10"
     guidetolerance="10"
     inkscape:pageopacity="0"
     inkscape:pageshadow="2"
     inkscape:window-width="1875"
     inkscape:window-height="1056"
     id="namedview10"
     showgrid="false"
     inkscape:zoom="2.6700352"
     inkscape:cx="30.875818"
     inkscape:cy="32.916513"
     inkscape:window-x="1411"
     inkscape:window-y="24"
     inkscape:window-maximized="1"
     inkscape:current-layer="svg8" /><path
     d="m 19.1,54.232415 h -8.5 c -1.8,0 -3.3,1.4 -3.4,3.2 -0.2,0.7 -0.8,2 -1.4,2.2 -0.5,0.1 -1.5,-0.4 -3,-2.1 -0.5,-0.6 -1.5,-0.7 -2.1,-0.2 -0.6,0.5 -0.7,1.5 -0.2,2.1 2.1,2.5 4.2,3.5 6,3 2.2,-0.6 3.2,-3 3.5,-4.1 l 0.6,9.5 v 13.2 c 0,0.8 0.7,1.5 1.5,1.5 0.8,0 1.5,-0.7 1.5,-1.5 v -11.6 h 2 v 11.7 c 0,0.8 0.7,1.5 1.5,1.5 0.8,0 1.5,-0.7 1.5,-1.5 v -13.2 l 0.6,-10.7 c 0.1,0 0.3,0.2 0.3,0.4 0,0 0,0.1 0,0.1 0,0.1 0.4,5.8 0.4,9.2 0,0.8 0.7,1.5 1.5,1.5 0.8,0 1.5,-0.7 1.5,-1.5 0,-3.4 -0.4,-8.8 -0.4,-9.4 0,-1.8 -1.5,-3.3 -3.4,-3.3 z m -5.6,12.2 -0.6,-9.2 h 3.3 l -0.5,9.2 z m 1.6,-23.9 c -2.7,0 -4.9,2.2 -4.9,4.9 0,2.8 2.2,5.1 4.9,5.1 2.7,0 4.9,-2.3 4.9,-5.1 0,-2.6 -2.1,-4.8 -4.9,-4.9 z m 0,7 c -1,0 -1.9,-1 -1.9,-2.1 0,-1.1 0.8,-1.9 1.8,-1.9 1.1,0.1 2,0.9 2,1.9 0,1.1 -0.9,2.1 -1.9,2.1 z m 24.9,6.9 h -8.5 c -1.9,0 -2.3,-4.3 -2.3,-5.4 0,-0.8 -0.7,-1.5 -1.5,-1.5 -0.8,0 -1.5,0.7 -1.5,1.5 0,3 1,7.9 4.8,8.4 l 0.5,10.8 v 13.2 c 0,0.8 0.7,1.5 1.5,1.5 0.8,0 1.5,-0.7 1.5,-1.5 v -11.8 h 2 v 11.7 c 0,0.8 0.7,1.5 1.5,1.5 0.8,0 1.5,-0.7 1.5,-1.5 v -13.2 l 0.6,-10.7 c 0.1,0 0.3,0.2 0.3,0.4 0,0 0,0.1 0,0.1 0,0.1 0.4,5.8 0.4,9.2 0,0.8 0.7,1.5 1.5,1.5 0.8,0 1.5,-0.7 1.5,-1.5 0,-3.4 -0.4,-8.8 -0.4,-9.4 0,-1.8 -1.5,-3.3 -3.4,-3.3 z m -5.6,12.2 -0.4,-9.2 h 3.2 l -0.5,9.2 z m 1.6,-23.9 c -2.7,0 -4.9,2.2 -4.9,4.9 0,2.8 2.2,5.1 4.9,5.1 2.7,0 4.9,-2.3 4.9,-5.1 0,-2.6 -2.1,-4.8 -4.9,-4.9 z m 0,7 c -1,0 -1.9,-1 -1.9,-2.1 0,-1.1 0.8,-1.9 1.8,-1.9 1.1,0.1 2,0.9 2,1.9 0,1.1 -0.9,2.1 -1.9,2.1 z m 24.9,1.6 h -8.8 c -1.9,0 -3.4,1.5 -3.4,3.3 0,0.6 -0.4,6 -0.4,9.4 0,0.8 0.7,1.5 1.5,1.5 0.8,0 1.5,-0.7 1.5,-1.5 0,-3.4 0.4,-9.1 0.4,-9.2 0,0 0,-0.1 0,-0.1 0,-0.1 0,-0.1 0.1,-0.2 l 0.6,10.6 v 13.2 c 0,0.8 0.7,1.5 1.5,1.5 0.8,0 1.5,-0.7 1.5,-1.5 v -11.8 h 2 v 11.7 c 0,0.8 0.7,1.5 1.5,1.5 0.8,0 1.5,-0.7 1.5,-1.5 v -13.2 l 0.7,-10.6 c 0.1,0.1 0.2,0.2 0.2,0.3 0,0 0,0.1 0,0.1 0,0.1 0.4,5.8 0.4,9.2 0,0.8 0.7,1.5 1.5,1.5 0.8,0 1.5,-0.7 1.5,-1.5 0,-3.4 -0.4,-8.8 -0.4,-9.4 0,-1.8 -1.5,-3.3 -3.4,-3.3 z m -5.6,12.2 -0.5,-9.2 h 3.4 l -0.6,9.2 z m 1.6,-23.8 c -2.7,0 -4.9,2.2 -4.9,4.9 0,2.8 2.2,5.1 4.9,5.1 2.7,0 4.9,-2.3 4.9,-5.1 0,-2.7 -2.2,-4.9 -4.9,-4.9 z m 0,7 c -1,0 -1.9,-1 -1.9,-2.1 0,-1.1 0.8,-1.9 1.9,-1.9 1.1,0 1.9,0.8 1.9,1.9 0,1.1 -0.9,2.1 -1.9,2.1 z m 29.3,-1.4 c -0.8,-0.1 -1.6,0.4 -1.7,1.2 -0.6,3.8 -2.1,6.9 -2.7,6.9 h -8.5 c -0.8,0 -2.4,-3.2 -3.1,-7 -0.2,-0.8 -0.9,-1.3 -1.8,-1.2 -0.8,0.2 -1.3,0.9 -1.2,1.8 0.4,2.1 1.9,8.5 5.3,9.3 l 0.8,10.9 v 13.2 c 0,0.8 0.7,1.5 1.5,1.5 0.8,0 1.5,-0.7 1.5,-1.5 v -11.7 h 1.9 v 11.7 c 0,0.8 0.7,1.5 1.5,1.5 0.8,0 1.5,-0.7 1.5,-1.5 v -13.1 l 0.8,-10.8 c 3.6,-0.4 5,-7.3 5.4,-9.4 0.2,-0.9 -0.3,-1.7 -1.2,-1.8 z m -9.9,20.4 -0.7,-9.2 h 3.5 l -0.7,9.2 z m 1.6,-13.8 c 2.7,0 4.9,-2.3 4.9,-5.1 0,-2.7 -2.2,-4.9 -4.9,-4.9 -2.7,0 -4.9,2.2 -4.9,4.9 0,2.8 2.2,5.1 4.9,5.1 z m 0,-7 c 1,0 1.9,0.9 1.9,1.9 0,1.1 -0.9,2.1 -1.9,2.1 -1,0 -1.9,-1 -1.9,-2.1 0,-1.1 0.8,-1.9 1.9,-1.9 z m -52.8,-7.6 c -0.6,0 -1.5,0.2 -2,1.5 -0.2,0.6 -0.8,0.9 -1.4,0.9 -0.2,0 -0.4,0 -0.6,-0.1 -0.8,-0.3 -1.1,-1.2 -0.8,-2 0.9,-2.1 2.6,-3.3 4.8,-3.3 2.9,0 4,1.7 4.8,3.3 0.4,0.8 0,1.6 -0.7,2 -0.8,0.4 -1.6,0 -2,-0.7 -0.6,-1.3 -1,-1.6 -2.1,-1.6 z m 23.3,1.1 c -0.6,-1.2 -1,-1.5 -2,-1.5 -0.6,0 -1.5,0.2 -2,1.5 -0.2,0.6 -0.8,0.9 -1.4,0.9 -0.2,0 -0.4,0 -0.6,-0.1 -0.8,-0.3 -1.1,-1.2 -0.8,-2 0.9,-2.1 2.6,-3.3 4.8,-3.3 2.9,0 4,1.7 4.8,3.3 0.4,0.8 0,1.6 -0.7,2 -0.8,0.3 -1.7,0 -2.1,-0.8 z m 18.6,0 c -0.2,0.6 -0.8,0.9 -1.4,0.9 -0.2,0 -0.4,0 -0.6,-0.1 -0.8,-0.3 -1.1,-1.2 -0.8,-2 0.9,-2.1 2.6,-3.3 4.8,-3.3 2.9,0 4,1.7 4.8,3.3 0.4,0.8 0,1.6 -0.7,2 -0.7,0.3 -1.6,0 -2,-0.7 -0.6,-1.2 -1,-1.5 -2,-1.5 -0.7,-0.1 -1.6,0.1 -2.1,1.4 z m -12.3,-6.1 c 0.9,-2.1 2.6,-3.3 4.8,-3.3 2.9,0 4,1.7 4.8,3.3 0.4,0.8 0,1.6 -0.7,2 -0.8,0.3 -1.6,0 -2,-0.7 -0.6,-1.2 -1,-1.5 -2,-1.5 -0.6,0 -1.5,0.2 -2,1.5 -0.2,0.6 -0.8,0.9 -1.4,0.9 -0.2,0 -0.4,0 -0.6,-0.1 -0.8,-0.4 -1.2,-1.3 -0.9,-2.1 z m -23.9,-1.3 c 0.9,-2.1 2.6,-3.3 4.8,-3.3 2.9,0 4,1.7 4.8,3.3 0.4,0.8 0,1.6 -0.7,2 -0.7,0.3 -1.6,0 -2,-0.7 -0.6,-1.2 -1,-1.5 -2,-1.5 -0.6,0 -1.5,0.2 -2,1.5 -0.2,0.6 -0.8,0.9 -1.4,0.9 -0.2,0 -0.4,0 -0.6,-0.1 -0.8,-0.4 -1.2,-1.3 -0.9,-2.1 z m -21.9,-10.5 c -0.6,-1.3 -0.6,-2.8 0,-4.6 0.3,-0.8 1.1,-1.2 1.9,-0.9 0.8,0.3 1.2,1.1 0.9,1.9 -0.3,0.7 -0.5,1.6 -0.2,2.2 0.2,0.4 0.7,0.7 1.5,0.9 2.9,0.8 4.5,3.3 4.1,6.5 -0.1,0.8 -0.7,1.3 -1.5,1.3 -0.1,0 -0.1,0 -0.2,0 -0.8,-0.1 -1.4,-0.9 -1.3,-1.7 0.1,-0.8 0.1,-2.7 -1.9,-3.3 -1.6,-0.3 -2.7,-1.1 -3.3,-2.3 z m 27,-15.2000003 c 0,-0.8 0.6,-1.5 1.4,-1.6 0.6,0 2.1,-0.3 2.3,-1.7 0.1,-1.4 0.7,-2.5 1.6,-3.20000002 1,-0.8 2.4,-1 4.2,-0.7 0.8,0.2 1.4,0.90000002 1.2,1.70000002 -0.2,0.8 -0.9,1.4 -1.7,1.2 -0.8,-0.2 -1.5,-0.1 -1.8,0.1 -0.3,0.2 -0.4,0.7 -0.4,1.1 -0.3,2.5 -2.3,4.2 -5.1,4.3 0,0 -0.1,0 -0.1,0 -0.9,0.2 -1.6,-0.4 -1.6,-1.2 z M 73.8,18.032415 c 0.4,0.7 0.2,1.6 -0.5,2.1 -0.4,0.3 -0.5,0.5 -0.5,0.5 0,0 0,0.2 0.2,0.4 1.3,1.6 1.1,3.8 -0.5,5.3 -0.3,0.3 -0.7,0.4 -1,0.4 -0.4,0 -0.8,-0.2 -1.1,-0.5 -0.6,-0.6 -0.5,-1.6 0.1,-2.1 0.2,-0.2 0.6,-0.7 0.2,-1.2 -0.9,-1.1 -0.9,-2.1 -0.8,-2.8 0.2,-1 0.8,-1.8 1.9,-2.5 0.6,-0.5 1.5,-0.3 2,0.4 z m 15.7,1 c 0.1,0.8 -0.6,1.5 -1.4,1.6 0,0 -0.1,0 -0.1,0 -0.8,0 -1.4,-0.6 -1.5,-1.4 -0.2,-2.1 1,-3.8 3,-4.3 0.3,-0.1 0.4,-0.1 0.4,-0.2 0,0 0,-0.2 -0.1,-0.8 -0.2,-0.8 0.2,-1.6 1,-1.9 0.8,-0.2 1.6,0.2 1.9,1 0.4,1.2 0.3,2.3 -0.2,3.1 -0.5,0.8 -1.2,1.3 -2.3,1.6 -0.2,0.2 -0.8,0.3 -0.7,1.3 z m -44.1,-1.7 c 0.3,0.3 0.4,0.7 0.4,1.1 0,0.4 -0.2,0.8 -0.4,1.1 -0.3,0.3 -0.7,0.4 -1.1,0.4 -0.4,0 -0.8,-0.2 -1.1,-0.4 -0.3,-0.3 -0.4,-0.7 -0.4,-1.1 0,-0.4 0.2,-0.8 0.4,-1.1 0.6,-0.5 1.6,-0.5 2.2,0 z m 6.7,6.4 c -0.3,-0.3 -0.4,-0.7 -0.4,-1.1 0,-0.4 0.2,-0.8 0.4,-1.1 0.6,-0.6 1.6,-0.6 2.1,0 0.3,0.3 0.4,0.7 0.4,1.1 0,0.4 -0.2,0.8 -0.4,1.1 -0.3,0.3 -0.7,0.4 -1.1,0.4 -0.3,0 -0.7,-0.2 -1,-0.4 z m -51.7,-9.2 c -0.3,-0.3 -0.4,-0.7 -0.4,-1.1 0,-0.4 0.2,-0.8 0.4,-1.1 0.6,-0.6 1.6,-0.6 2.1,0 0.3,0.3 0.4,0.7 0.4,1.1 0,0.4 -0.2,0.8 -0.4,1.1 -0.3,0.3 -0.7,0.4 -1.1,0.4 -0.3,0 -0.7,-0.2 -1,-0.4 z M 70,7.5324147 c -0.3,-0.3 -0.4,-0.7 -0.4,-1.1 0,-0.4 0.2,-0.8 0.4,-1.1 0.6,-0.6 1.6,-0.6 2.1,0 0.3,0.3 0.4,0.7 0.4,1.1 0,0.4 -0.2,0.8 -0.4,1.1 -0.3,0.3 -0.7,0.4 -1.1,0.4 -0.3,0 -0.7,-0.2 -1,-0.4 z M 92.1,34.232415 c 0.3,0.3 0.4,0.7 0.4,1.1 0,0.4 -0.2,0.8 -0.4,1.1 -0.3,0.3 -0.7,0.4 -1.1,0.4 -0.4,0 -0.8,-0.2 -1.1,-0.4 -0.3,-0.3 -0.4,-0.7 -0.4,-1.1 0,-0.4 0.2,-0.8 0.4,-1.1 0.6,-0.5 1.6,-0.5 2.2,0 z M 16.4,8.2324147 c -0.3,-0.3 -0.4,-0.7 -0.4,-1.1 0,-0.4 0.2,-0.8 0.4,-1.1 0.5,-0.6 1.6,-0.6 2.1,0 0.3,0.3 0.4,0.7 0.4,1.1 0,0.4 -0.2,0.8 -0.4,1.1 -0.3,0.3 -0.7,0.4 -1.1,0.4 -0.3,0 -0.7,-0.2 -1,-0.4 z"
     id="path2"
     inkscape:connector-curvature="0" /><path
     style="fill:#008000;fill-opacity:1;stroke:#001000;stroke-width:0.01324153;stroke-miterlimit:4;stroke-dasharray:none;stroke-opacity:1"
     d="m 36.364994,8.2455603 c -0.906772,-0.8447864 -0.29546,-2.2448144 1.095541,-2.5090115 1.492499,-0.2834753 1.94115,-0.7046899 2.229836,-2.0934728 0.351737,-1.6921013 0.95718,-2.5772378 2.170349,-3.17297463 0.687319,-0.33751375 0.88947,-0.37228268 2.149045,-0.36962438 1.634869,0.00345 2.157119,0.20334546 2.466635,0.94412241 0.237688,0.5688675 0.08141,1.1695447 -0.42893,1.6486729 -0.31272,0.2935931 -0.426596,0.3143914 -1.517874,0.277225 -1.088853,-0.037084 -1.203713,-0.016258 -1.490156,0.2701847 -0.213033,0.2130333 -0.336367,0.5299033 -0.393276,1.0104109 -0.295693,2.4966631 -2.487765,4.2548184 -5.304918,4.2548184 -0.509771,0 -0.771806,-0.069881 -0.976252,-0.260351 z"
     id="path4491"
     inkscape:connector-curvature="0" /><path
     style="fill:#008000;fill-opacity:1;stroke:#001000;stroke-width:0.01324153;stroke-miterlimit:4;stroke-dasharray:none;stroke-opacity:1"
     d="m 70.590134,26.348209 c -0.443669,-0.360228 -0.664408,-1.042288 -0.487723,-1.507007 0.06924,-0.182128 0.274794,-0.526352 0.456776,-0.764942 0.428566,-0.56188 0.418744,-0.694249 -0.117613,-1.584958 -0.56793,-0.943141 -0.693156,-1.718591 -0.42531,-2.633693 0.242003,-0.826808 0.838185,-1.584657 1.653243,-2.101551 0.68201,-0.432518 1.138715,-0.47589 1.60767,-0.152675 0.514973,0.354931 0.649701,0.595537 0.654225,1.168351 0.0045,0.569614 -0.209008,0.961194 -0.823394,1.510148 l -0.383237,0.342422 0.471188,0.782485 c 0.259154,0.430367 0.509531,0.986869 0.556394,1.236671 0.228377,1.217353 -0.315278,2.805302 -1.237715,3.615212 -0.56653,0.49742 -1.375771,0.53507 -1.924504,0.08954 z"
     id="path4493"
     inkscape:connector-curvature="0" /><path
     style="fill:#008000;fill-opacity:1;stroke:#001000;stroke-width:0.01324153;stroke-miterlimit:4;stroke-dasharray:none;stroke-opacity:1"
     d="m 0.68020244,14.655434 c -0.4367266,-0.237003 -0.63230156,-0.573923 -0.63230156,-1.089278 0,-1.025546 0.55857833,-1.617448 1.52638542,-1.617448 0.3585374,0 0.582323,0.102108 0.8831963,0.402981 0.3743625,0.374363 0.3985939,0.455889 0.3412014,1.147966 -0.049984,0.602736 -0.1302843,0.80391 -0.420551,1.053587 -0.418125,0.359656 -1.1430976,0.403289 -1.69793056,0.102192 z"
     id="path4497"
     inkscape:connector-curvature="0" /><path
     style="fill:#2b1100;fill-opacity:1;stroke:#001000;stroke-width:0.01324153;stroke-miterlimit:4;stroke-dasharray:none;stroke-opacity:1"
     d="m 90.334217,36.62804 c -0.592506,-0.245998 -0.837392,-0.761402 -0.732684,-1.542058 0.104891,-0.782021 0.563152,-1.156342 1.415648,-1.156342 0.48315,0 0.736436,0.07666 0.998757,0.302304 0.726938,0.625285 0.474964,2.144657 -0.41157,2.481717 -0.450164,0.171152 -0.690754,0.154934 -1.270151,-0.08562 z"
     id="path4501"
     inkscape:connector-curvature="0" /><path
     style="fill:#2b1100;fill-opacity:1;stroke:#001000;stroke-width:0.01324153;stroke-miterlimit:4;stroke-dasharray:none;stroke-opacity:1"
     d="m 21.173074,41.615125 c -0.512034,-0.143817 -0.953743,-0.781134 -0.954472,-1.377155 -2.73e-4,-0.222392 0.153818,-0.714016 0.342422,-1.092496 1.521095,-3.05244 5.811127,-3.751354 8.125019,-1.323694 0.571308,0.599397 1.330793,1.974497 1.330793,2.409492 0,0.791537 -0.720062,1.537324 -1.483096,1.536084 -0.519773,-8.48e-4 -1.120918,-0.478296 -1.515349,-1.203544 -0.510942,-0.939479 -0.911965,-1.213252 -1.795889,-1.226029 -0.933188,-0.01349 -1.53132,0.354663 -2.012461,1.238677 -0.524586,0.963839 -1.156384,1.285997 -2.036967,1.038665 z"
     id="path4509"
     inkscape:connector-curvature="0" /><path
     style="fill:#2b1100;fill-opacity:1;stroke:#001000;stroke-width:0.01324153;stroke-miterlimit:4;stroke-dasharray:none;stroke-opacity:1"
     d="m 55.287519,36.172648 c -0.946885,-0.800433 -0.829469,-1.888447 0.362477,-3.358817 1.274971,-1.57279 3.679008,-2.161838 5.815462,-1.424931 1.343679,0.463463 3.117884,2.779566 2.923393,3.81629 -0.100227,0.534256 -0.621969,1.086989 -1.131726,1.198951 -0.585299,0.128553 -1.262665,-0.230122 -1.667175,-0.882791 -0.59168,-0.954667 -0.971188,-1.282842 -1.590983,-1.375786 -1.052036,-0.157763 -1.838459,0.321662 -2.41457,1.471987 -0.147827,0.295169 -0.425328,0.608 -0.616667,0.69518 -0.558863,0.254635 -1.284877,0.194106 -1.680211,-0.140083 z"
     id="path4511"
     inkscape:connector-curvature="0" /><path
     style="fill:#2b1100;fill-opacity:1;stroke:#001000;stroke-width:0.01324153;stroke-miterlimit:4;stroke-dasharray:none;stroke-opacity:1"
     d="m 87.008741,20.131578 -0.483467,-0.483467 0.05781,-1.101426 c 0.04668,-0.889482 0.12611,-1.217972 0.412749,-1.707085 0.478471,-0.816449 1.260316,-1.458823 2.139135,-1.757543 l 0.727291,-0.247214 -0.02997,-0.964204 c -0.02848,-0.916296 -0.0099,-0.984268 0.373841,-1.368023 0.770345,-0.770361 1.85817,-0.577431 2.401736,0.425957 0.325876,0.601546 0.329594,2.382866 0.0062,2.979028 -0.366712,0.676057 -1.149381,1.350205 -1.855171,1.597943 -0.96099,0.337316 -1.287632,0.718554 -1.287632,1.50285 0,0.891984 -0.482499,1.437966 -1.357976,1.536644 -0.579033,0.06527 -0.653846,0.03726 -1.104568,-0.41346 z"
     id="path4513"
     inkscape:connector-curvature="0" /><path
     style="fill:#2b1100;fill-opacity:1;stroke:#001000;stroke-width:0.01324153;stroke-miterlimit:4;stroke-dasharray:none;stroke-opacity:1"
     d="m 43.573899,19.716775 c -0.695358,-0.354992 -0.919514,-1.264634 -0.507819,-2.060765 0.531837,-1.028459 2.438741,-0.786535 2.649352,0.336116 0.255052,1.359545 -0.952228,2.331808 -2.141533,1.724649 z"
     id="path4515"
     inkscape:connector-curvature="0" /><path
     style="fill:#2b1100;fill-opacity:1;stroke:#001000;stroke-width:0.01324153;stroke-miterlimit:4;stroke-dasharray:none;stroke-opacity:1"
     d="M 14.96317,29.656667 C 14.373856,29.400358 14.168748,28.905256 14.101364,27.576394 14.01112,25.796726 13.486937,25.182442 11.593735,24.637736 9.0047592,23.892845 7.9472144,21.547583 8.792621,18.425851 9.0433671,17.49995 9.5458897,17.006198 10.23749,17.006198 c 1.248356,0 1.796851,0.969321 1.311236,2.317267 -0.25323,0.702904 -0.251083,1.526819 0.0049,1.892331 0.217024,0.309845 1.104847,0.822182 1.424751,0.822182 0.459464,0 2.078505,0.968859 2.662679,1.593389 1.066018,1.139659 1.653737,2.941867 1.465998,4.4954 -0.108314,0.896293 -0.348648,1.291701 -0.933691,1.536148 -0.54653,0.228355 -0.672315,0.227705 -1.210225,-0.0062 z"
     id="path4517"
     inkscape:connector-curvature="0" /><path
     style="fill:#2b1100;fill-opacity:1;stroke:#001000;stroke-width:0.01324153;stroke-miterlimit:4;stroke-dasharray:none;stroke-opacity:1"
     d="M 16.82297,8.4061239 C 16.138659,8.0993424 15.889343,7.5092734 16.105251,6.7074551 16.287568,6.0303815 16.634634,5.7342266 17.338798,5.6548572 18.414386,5.5336228 19.132186,6.547851 18.762839,7.666982 18.49167,8.4886322 17.689121,8.794425 16.82297,8.4061239 Z"
     id="path4519"
     inkscape:connector-curvature="0" /><path
     style="fill:#2b1100;fill-opacity:1;stroke:#001000;stroke-width:0.01324153;stroke-miterlimit:4;stroke-dasharray:none;stroke-opacity:1"
     d="M 70.242771,7.6639082 C 69.823451,7.4363189 69.527399,6.6237005 69.66462,6.0769684 c 0.154171,-0.6142652 0.774478,-1.1205585 1.372901,-1.1205585 1.064717,0 1.69651,0.9959281 1.296405,2.0435899 -0.318896,0.8350167 -1.23817,1.1268716 -2.091155,0.6639084 z"
     id="path4521"
     inkscape:connector-curvature="0" /><path
     style="fill:#2b1100;fill-opacity:1;stroke:#001000;stroke-width:0.01324153;stroke-miterlimit:4;stroke-dasharray:none;stroke-opacity:1"
     d="m 52.577522,23.966352 c -0.860906,-0.374687 -1.106426,-1.368249 -0.544252,-2.202458 0.781685,-1.159943 2.480388,-0.637093 2.480388,0.763448 0,0.834639 -0.293072,1.32307 -0.894016,1.489961 -0.599461,0.166479 -0.535333,0.169614 -1.04212,-0.05095 z"
     id="path4523"
     inkscape:connector-curvature="0" /></svg>