<?xml version="1.0" encoding="UTF-8" standalone="no"?>
<svg
   xmlns:dc="http://purl.org/dc/elements/1.1/"
   xmlns:cc="http://creativecommons.org/ns#"
   xmlns:rdf="http://www.w3.org/1999/02/22-rdf-syntax-ns#"
   xmlns:svg="http://www.w3.org/2000/svg"
   xmlns="http://www.w3.org/2000/svg"
   xmlns:sodipodi="http://sodipodi.sourceforge.net/DTD/sodipodi-0.dtd"
   xmlns:inkscape="http://www.inkscape.org/namespaces/inkscape"
   version="1.1"
   x="0px"
   y="0px"
   viewBox="0 0 53.665001 93.5"
   enable-background="new 0 0 100 100"
   xml:space="preserve"
   id="svg46"
   sodipodi:docname="phone.svg"
   width="53.665001"
   height="93.5"
   inkscape:version="0.92.1 unknown"><metadata
     id="metadata52"><rdf:RDF><cc:Work
         rdf:about=""><dc:format>image/svg+xml</dc:format><dc:type
           rdf:resource="http://purl.org/dc/dcmitype/StillImage" /><dc:title></dc:title></cc:Work></rdf:RDF></metadata><defs
     id="defs50" /><sodipodi:namedview
     pagecolor="#ffffff"
     bordercolor="#666666"
     borderopacity="1"
     objecttolerance="10"
     gridtolerance="10"
     guidetolerance="10"
     inkscape:pageopacity="0"
     inkscape:pageshadow="2"
     inkscape:window-width="1875"
     inkscape:window-height="1056"
     id="namedview48"
     showgrid="false"
     inkscape:zoom="5.3400704"
     inkscape:cx="10.325007"
     inkscape:cy="52.31655"
     inkscape:window-x="1411"
     inkscape:window-y="24"
     inkscape:window-maximized="1"
     inkscape:current-layer="svg46" /><g
     id="g40"
     transform="translate(-22.667,-2.75)"><path
       d="m 24.549,87.342 c 0,3.873 3.152,7.027 7.026,7.027 h 35.851 c 3.873,0 7.025,-3.154 7.025,-7.027 V 83.026 H 24.549 Z M 45.136,86.23 h 7.977 c 1.1,0 1.994,0.891 1.994,1.992 0,1.104 -0.893,1.994 -1.994,1.994 h -7.977 c -1.101,0 -1.994,-0.891 -1.994,-1.994 10e-4,-1.101 0.894,-1.992 1.994,-1.992 z"
       id="path2"
       inkscape:connector-curvature="0"
       style="fill:none" /><path
       d="M 67.426,4.632 H 31.575 c -3.874,0 -7.026,3.151 -7.026,7.025 v 5.033 h 49.902 v -5.033 c 0,-3.873 -3.152,-7.025 -7.025,-7.025 z M 66.955,12.6 c -1.098,0 -2.012,-0.891 -2.012,-1.992 0,-1.102 0.871,-1.992 1.973,-1.992 h 0.039 c 1.104,0 1.992,0.89 1.992,1.992 0,1.1 -0.888,1.992 -1.992,1.992 z"
       id="path4"
       inkscape:connector-curvature="0"
       style="fill:none" /><path
       d="m 66.955,8.616 h -0.039 c -1.102,0 -1.973,0.89 -1.973,1.992 0,1.101 0.914,1.992 2.012,1.992 1.104,0 1.992,-0.891 1.992,-1.992 0,-1.103 -0.888,-1.992 -1.992,-1.992 z"
       id="path6"
       inkscape:connector-curvature="0" /><path
       d="M 67.426,2.75 H 31.575 c -4.912,0 -8.908,3.996 -8.908,8.908 v 75.684 c 0,4.912 3.996,8.908 8.908,8.908 h 35.851 c 4.91,0 8.906,-3.996 8.906,-8.908 V 11.658 c 0,-4.912 -3.996,-8.908 -8.906,-8.908 z m 7.025,84.592 c 0,3.873 -3.152,7.027 -7.025,7.027 H 31.575 c -3.874,0 -7.026,-3.154 -7.026,-7.027 v -4.316 h 49.902 z m 0,-6.199 H 24.549 V 18.574 h 49.902 z m 0,-64.453 H 24.549 v -5.033 c 0,-3.874 3.152,-7.025 7.026,-7.025 h 35.851 c 3.873,0 7.025,3.151 7.025,7.025 z"
       id="path8"
       inkscape:connector-curvature="0" /><path
       d="m 45.136,90.217 h 7.977 c 1.102,0 1.994,-0.891 1.994,-1.994 0,-1.102 -0.895,-1.992 -1.994,-1.992 h -7.977 c -1.101,0 -1.994,0.891 -1.994,1.992 10e-4,1.103 0.894,1.994 1.994,1.994 z"
       id="path10"
       inkscape:connector-curvature="0" /><g
       id="g38"><path
         d="m 43.613,62.75 c -0.968,-0.77 -2.133,-1.176 -3.37,-1.176 -1.67,0 -3.222,0.747 -4.256,2.05 -0.9,1.133 -1.305,2.552 -1.14,3.994 0.165,1.442 0.88,2.732 2.014,3.632 0.968,0.769 2.132,1.176 3.369,1.176 1.67,0 3.222,-0.747 4.256,-2.051 0.899,-1.133 1.305,-2.551 1.14,-3.993 -0.165,-1.443 -0.88,-2.733 -2.013,-3.632 z m 0.361,5.161 C 43.84,68.216 43.528,68.4 43.196,68.368 L 42.178,68.27 C 41.824,68.236 41.543,67.966 41.492,67.616 L 41.46,67.39 c -0.016,-0.102 -0.103,-0.176 -0.205,-0.172 l -2.041,0.056 c -0.099,0.003 -0.186,0.084 -0.194,0.183 L 39,67.684 c -0.031,0.347 -0.305,0.638 -0.649,0.689 l -1.012,0.155 c -0.217,0.032 -0.438,-0.029 -0.607,-0.17 -0.169,-0.141 -0.27,-0.348 -0.275,-0.568 l -0.02,-0.729 c -0.003,-0.116 0.021,-0.233 0.071,-0.35 0.189,-0.432 0.918,-1.167 3.679,-1.243 1.294,-0.034 2.281,0.087 2.932,0.36 0.766,0.323 0.891,0.781 0.898,1.026 l 0.02,0.729 c 0.002,0.114 -0.018,0.226 -0.063,0.328 z"
         id="path12"
         inkscape:connector-curvature="0"
         style="fill:none" /><path
         d="m 54.528,50.695 c -0.929,-0.163 -1.601,-0.991 -1.562,-1.925 0.021,-0.472 0.021,-0.968 0.018,-1.485 0,-0.824 0.401,-1.603 0.79,-2.356 0.361,-0.701 0.735,-1.426 0.768,-2.123 l 0.01,-0.204 0.088,-0.184 c 0.428,-0.887 0.673,-1.755 0.673,-2.381 0,-0.29 -0.059,-0.372 -0.059,-0.372 l -0.37,-0.374 0.098,-0.516 c 0.066,-0.354 0.128,-0.721 0.19,-1.095 0.05,-0.3 0.101,-0.604 0.156,-0.913 0.43,-2.387 -0.319,-3.887 -2.29,-4.586 -1.77,-0.627 -4.271,-0.577 -5.818,0.118 -2.038,0.917 -2.704,2.211 -2.298,4.467 0.058,0.321 0.111,0.639 0.163,0.951 0.06,0.362 0.119,0.716 0.185,1.059 l 0.097,0.517 -0.37,0.373 c -0.013,0.015 -0.059,0.119 -0.059,0.372 0,0.626 0.245,1.495 0.672,2.381 l 0.089,0.184 0.01,0.204 c 0.032,0.68 0.396,1.376 0.747,2.049 0.398,0.763 0.811,1.553 0.811,2.425 -0.002,0.522 -0.002,1.021 0.017,1.492 0.041,0.932 -0.63,1.76 -1.562,1.924 -2.256,0.401 -4.178,1.097 -5.56,1.989 2.634,2.403 6.125,3.884 9.964,3.884 3.839,0 7.33,-1.48 9.964,-3.884 -1.382,-0.894 -3.303,-1.589 -5.562,-1.991 z"
         id="path14"
         inkscape:connector-curvature="0"
         style="fill:none" /><path
         d="m 60.243,61.572 c -0.206,0 -0.414,0.012 -0.624,0.035 -1.438,0.165 -2.727,0.882 -3.63,2.019 -0.903,1.137 -1.31,2.555 -1.145,3.991 0.314,2.742 2.629,4.811 5.385,4.811 0.207,0 0.415,-0.013 0.625,-0.036 1.438,-0.165 2.728,-0.881 3.63,-2.018 0.903,-1.138 1.31,-2.555 1.145,-3.992 -0.315,-2.742 -2.63,-4.81 -5.386,-4.81 z m 3.226,7.542 -0.501,0.529 c -0.08,0.084 -0.181,0.149 -0.297,0.197 -0.439,0.171 -1.476,0.175 -3.481,-1.723 -0.938,-0.891 -1.551,-1.674 -1.818,-2.328 -0.313,-0.77 -0.077,-1.183 0.091,-1.361 L 57.964,63.9 c 0.079,-0.082 0.172,-0.146 0.276,-0.187 0.311,-0.121 0.662,-0.03 0.874,0.227 l 0.65,0.789 c 0.226,0.274 0.233,0.663 0.021,0.947 l -0.137,0.183 c -0.062,0.083 -0.052,0.197 0.022,0.267 l 1.482,1.403 c 0.072,0.068 0.19,0.072 0.268,0.009 l 0.175,-0.146 c 0.267,-0.224 0.666,-0.235 0.945,-0.029 l 0.825,0.605 c 0.177,0.131 0.29,0.331 0.31,0.55 0.021,0.218 -0.054,0.436 -0.206,0.596 z"
         id="path16"
         inkscape:connector-curvature="0"
         style="fill:none" /><g
         id="g36"><path
           d="m 43.375,63.064 c -0.968,-0.77 -2.133,-1.176 -3.37,-1.176 -1.67,0 -3.222,0.747 -4.256,2.05 -0.9,1.133 -1.305,2.552 -1.14,3.994 0.165,1.442 0.88,2.732 2.014,3.632 0.968,0.769 2.132,1.176 3.369,1.176 1.67,0 3.222,-0.747 4.256,-2.051 0.899,-1.133 1.305,-2.551 1.14,-3.993 -0.165,-1.442 -0.88,-2.732 -2.013,-3.632 z m 0.36,5.162 c -0.134,0.305 -0.446,0.489 -0.778,0.457 l -1.018,-0.098 c -0.354,-0.034 -0.635,-0.304 -0.686,-0.654 l -0.032,-0.227 c -0.016,-0.102 -0.103,-0.176 -0.205,-0.172 l -2.041,0.056 c -0.099,0.003 -0.186,0.084 -0.194,0.183 l -0.02,0.228 c -0.031,0.347 -0.305,0.638 -0.649,0.689 L 37.1,68.843 c -0.217,0.032 -0.438,-0.029 -0.607,-0.17 -0.169,-0.141 -0.27,-0.348 -0.275,-0.568 l -0.02,-0.729 c -0.003,-0.116 0.021,-0.233 0.071,-0.35 0.189,-0.432 0.918,-1.167 3.679,-1.243 1.294,-0.034 2.281,0.087 2.932,0.36 0.766,0.323 0.891,0.781 0.898,1.026 l 0.02,0.729 c 0.003,0.114 -0.018,0.225 -0.063,0.328 z"
           id="path18"
           inkscape:connector-curvature="0"
           style="fill:none" /><path
           d="m 52.729,49.084 c 0.021,-0.472 0.021,-0.968 0.018,-1.485 0,-0.824 0.401,-1.603 0.79,-2.356 0.361,-0.701 0.735,-1.426 0.768,-2.123 l 0.01,-0.204 0.088,-0.184 c 0.428,-0.887 0.673,-1.755 0.673,-2.381 0,-0.29 -0.059,-0.372 -0.059,-0.372 l -0.37,-0.374 0.098,-0.516 c 0.066,-0.354 0.128,-0.721 0.19,-1.095 0.05,-0.3 0.101,-0.604 0.156,-0.913 0.43,-2.387 -0.319,-3.887 -2.29,-4.586 -1.77,-0.627 -4.271,-0.577 -5.818,0.118 -2.038,0.917 -2.704,2.211 -2.298,4.467 0.058,0.321 0.111,0.639 0.163,0.951 0.06,0.362 0.119,0.716 0.185,1.059 l 0.097,0.517 -0.37,0.373 c -0.013,0.015 -0.059,0.119 -0.059,0.372 0,0.626 0.245,1.495 0.672,2.381 l 0.089,0.184 0.01,0.204 c 0.032,0.68 0.396,1.376 0.747,2.049 0.398,0.763 0.811,1.553 0.811,2.425 -0.002,0.522 -0.002,1.021 0.017,1.492 0.041,0.932 -0.63,1.76 -1.562,1.924 -2.256,0.401 -4.178,1.097 -5.56,1.989 2.634,2.403 6.125,3.884 9.964,3.884 3.839,0 7.33,-1.48 9.964,-3.884 -1.381,-0.893 -3.302,-1.588 -5.561,-1.989 -0.931,-0.164 -1.603,-0.992 -1.563,-1.927 z"
           id="path20"
           inkscape:connector-curvature="0"
           style="fill:none" /><path
           d="m 49.887,27.258 c -8.168,0 -14.813,6.645 -14.813,14.813 0,3.599 1.292,6.899 3.434,9.469 1.623,-1.133 3.893,-2.002 6.533,-2.482 -0.016,-0.468 -0.016,-0.958 -0.014,-1.466 0,-0.378 -0.284,-0.921 -0.584,-1.496 -0.403,-0.773 -0.857,-1.642 -0.957,-2.669 -0.508,-1.105 -0.787,-2.19 -0.787,-3.074 0,-0.508 0.098,-0.946 0.291,-1.308 -0.039,-0.224 -0.078,-0.452 -0.116,-0.684 -0.051,-0.303 -0.103,-0.612 -0.159,-0.925 -0.57,-3.172 0.557,-5.346 3.446,-6.646 2.029,-0.912 5.034,-0.985 7.308,-0.178 2.878,1.021 4.187,3.508 3.59,6.824 -0.054,0.3 -0.104,0.597 -0.152,0.889 -0.041,0.244 -0.081,0.485 -0.122,0.721 0.192,0.362 0.29,0.799 0.29,1.307 0,0.883 -0.279,1.969 -0.788,3.074 -0.1,1.041 -0.562,1.938 -0.973,2.734 -0.278,0.541 -0.567,1.101 -0.567,1.435 0.003,0.505 0.003,0.996 -0.015,1.463 2.643,0.48 4.912,1.35 6.533,2.482 C 63.408,48.972 64.7,45.671 64.7,42.072 64.699,33.903 58.055,27.258 49.887,27.258 Z"
           id="path22"
           inkscape:connector-curvature="0"
           style="fill:none" /><path
           d="m 60.005,61.887 c -0.206,0 -0.414,0.012 -0.624,0.035 -1.438,0.165 -2.727,0.882 -3.63,2.019 -0.903,1.137 -1.31,2.555 -1.145,3.991 0.314,2.742 2.629,4.811 5.385,4.811 0.207,0 0.415,-0.013 0.625,-0.036 1.438,-0.165 2.728,-0.881 3.63,-2.018 0.903,-1.138 1.31,-2.555 1.145,-3.992 -0.315,-2.743 -2.63,-4.81 -5.386,-4.81 z m 3.225,7.542 -0.501,0.529 c -0.08,0.084 -0.181,0.149 -0.297,0.197 -0.439,0.171 -1.476,0.175 -3.481,-1.723 -0.938,-0.891 -1.551,-1.674 -1.818,-2.328 -0.313,-0.77 -0.077,-1.183 0.091,-1.361 l 0.501,-0.528 c 0.079,-0.082 0.172,-0.146 0.276,-0.187 0.311,-0.121 0.662,-0.03 0.874,0.227 l 0.65,0.789 c 0.226,0.274 0.233,0.663 0.021,0.947 l -0.137,0.183 c -0.062,0.083 -0.052,0.197 0.022,0.267 l 1.482,1.403 c 0.072,0.068 0.19,0.072 0.268,0.009 l 0.175,-0.146 c 0.267,-0.224 0.666,-0.235 0.945,-0.029 l 0.825,0.605 c 0.177,0.131 0.29,0.331 0.31,0.55 0.022,0.218 -0.053,0.436 -0.206,0.596 z"
           id="path24"
           inkscape:connector-curvature="0"
           style="fill:none" /><path
           d="m 66.699,42.07 c 0,-9.271 -7.542,-16.813 -16.813,-16.813 -9.271,0 -16.812,7.543 -16.812,16.813 0,9.27 7.542,16.813 16.813,16.813 9.271,0 16.812,-7.542 16.812,-16.813 z M 49.887,56.883 c -3.839,0 -7.33,-1.48 -9.964,-3.884 1.381,-0.893 3.304,-1.588 5.56,-1.989 0.932,-0.164 1.603,-0.992 1.562,-1.924 -0.019,-0.472 -0.019,-0.97 -0.017,-1.492 0,-0.872 -0.412,-1.662 -0.811,-2.425 C 45.865,44.496 45.502,43.8 45.47,43.12 l -0.01,-0.204 -0.089,-0.184 c -0.427,-0.887 -0.672,-1.755 -0.672,-2.381 0,-0.252 0.046,-0.357 0.059,-0.372 l 0.37,-0.373 -0.097,-0.517 c -0.065,-0.343 -0.125,-0.697 -0.185,-1.059 -0.052,-0.312 -0.105,-0.629 -0.163,-0.951 -0.406,-2.256 0.26,-3.55 2.298,-4.467 1.547,-0.695 4.049,-0.745 5.818,-0.118 1.971,0.699 2.72,2.199 2.29,4.586 -0.056,0.309 -0.106,0.613 -0.156,0.913 -0.063,0.375 -0.124,0.741 -0.19,1.095 l -0.098,0.516 0.37,0.374 c 0,0 0.059,0.083 0.059,0.372 0,0.626 -0.245,1.495 -0.673,2.381 l -0.088,0.184 -0.01,0.204 c -0.032,0.697 -0.406,1.421 -0.768,2.123 -0.389,0.753 -0.79,1.532 -0.79,2.356 0.003,0.517 0.003,1.013 -0.018,1.485 -0.039,0.934 0.633,1.762 1.562,1.925 2.259,0.401 4.18,1.097 5.561,1.989 -2.633,2.405 -6.124,3.886 -9.963,3.886 z m 4.844,-7.826 c 0.018,-0.467 0.018,-0.958 0.015,-1.463 0,-0.333 0.289,-0.894 0.567,-1.435 0.411,-0.796 0.873,-1.693 0.973,-2.734 0.509,-1.105 0.788,-2.19 0.788,-3.074 0,-0.508 -0.098,-0.945 -0.29,-1.307 0.041,-0.236 0.081,-0.477 0.122,-0.721 0.049,-0.292 0.099,-0.589 0.152,-0.889 0.597,-3.316 -0.712,-5.803 -3.59,-6.824 -2.273,-0.807 -5.278,-0.733 -7.308,0.178 -2.89,1.3 -4.017,3.474 -3.446,6.646 0.057,0.313 0.108,0.622 0.159,0.925 0.038,0.231 0.077,0.459 0.116,0.684 -0.193,0.362 -0.291,0.799 -0.291,1.308 0,0.883 0.279,1.969 0.787,3.074 0.1,1.028 0.554,1.896 0.957,2.669 0.3,0.575 0.584,1.118 0.584,1.496 -0.002,0.508 -0.002,0.998 0.014,1.466 -2.64,0.48 -4.91,1.35 -6.533,2.482 -2.142,-2.569 -3.434,-5.87 -3.434,-9.469 0,-8.167 6.645,-14.813 14.813,-14.813 8.168,0 14.813,6.645 14.813,14.813 0,3.599 -1.292,6.9 -3.435,9.469 -1.62,-1.132 -3.89,-2.001 -6.533,-2.481 z"
           id="path26"
           inkscape:connector-curvature="0" /><path
           d="m 44.619,61.498 c -1.307,-1.037 -2.945,-1.609 -4.614,-1.609 -2.284,0 -4.406,1.022 -5.822,2.806 -1.233,1.552 -1.787,3.492 -1.561,5.466 0.227,1.974 1.206,3.738 2.757,4.971 1.306,1.037 2.944,1.609 4.613,1.609 0,0 0,0 0,0 2.285,0 4.407,-1.023 5.823,-2.807 1.231,-1.551 1.786,-3.492 1.56,-5.466 -0.227,-1.973 -1.205,-3.739 -2.756,-4.97 z m -0.37,9.191 c -1.034,1.304 -2.586,2.051 -4.256,2.051 -1.237,0 -2.401,-0.407 -3.369,-1.176 -1.133,-0.899 -1.849,-2.189 -2.014,-3.632 -0.166,-1.442 0.239,-2.861 1.14,-3.994 1.034,-1.303 2.585,-2.05 4.256,-2.05 1.236,0 2.402,0.406 3.37,1.176 1.133,0.899 1.848,2.189 2.014,3.632 0.164,1.443 -0.242,2.861 -1.141,3.993 z"
           id="path28"
           inkscape:connector-curvature="0" /><path
           d="m 42.881,66.144 c -0.651,-0.273 -1.638,-0.395 -2.932,-0.36 -2.76,0.076 -3.489,0.812 -3.679,1.243 -0.05,0.116 -0.074,0.233 -0.071,0.35 l 0.02,0.729 c 0.006,0.221 0.106,0.428 0.275,0.568 0.168,0.141 0.39,0.202 0.607,0.17 l 1.012,-0.155 C 38.457,68.637 38.731,68.346 38.762,68 l 0.02,-0.228 c 0.009,-0.099 0.096,-0.18 0.194,-0.183 l 2.041,-0.056 c 0.102,-0.004 0.189,0.07 0.205,0.172 l 0.032,0.227 c 0.051,0.351 0.332,0.62 0.686,0.654 l 1.018,0.098 c 0.332,0.032 0.645,-0.152 0.778,-0.457 0.045,-0.103 0.065,-0.214 0.063,-0.327 l -0.02,-0.729 c -0.008,-0.246 -0.133,-0.704 -0.898,-1.027 z"
           id="path30"
           inkscape:connector-curvature="0" /><path
           d="m 67.377,66.469 c -0.462,-4.032 -4.096,-7.007 -8.225,-6.533 -1.968,0.226 -3.731,1.206 -4.967,2.761 -1.236,1.556 -1.792,3.496 -1.565,5.463 0.43,3.753 3.599,6.582 7.371,6.583 0.282,0 0.567,-0.017 0.853,-0.05 1.969,-0.225 3.733,-1.205 4.969,-2.761 1.235,-1.555 1.791,-3.495 1.564,-5.463 z m -3.131,4.219 c -0.902,1.137 -2.191,1.853 -3.63,2.018 -0.21,0.023 -0.418,0.036 -0.625,0.036 -2.756,0 -5.07,-2.068 -5.385,-4.811 -0.165,-1.437 0.241,-2.854 1.145,-3.991 0.904,-1.137 2.192,-1.854 3.63,-2.019 0.21,-0.023 0.418,-0.035 0.624,-0.035 2.756,0 5.071,2.067 5.386,4.81 0.165,1.438 -0.242,2.855 -1.145,3.992 z"
           id="path32"
           inkscape:connector-curvature="0" /><path
           d="m 62.303,67.677 c -0.279,-0.206 -0.679,-0.194 -0.945,0.029 l -0.175,0.146 c -0.077,0.063 -0.195,0.06 -0.268,-0.009 L 59.433,66.44 c -0.074,-0.069 -0.084,-0.184 -0.022,-0.267 l 0.137,-0.183 c 0.212,-0.284 0.204,-0.673 -0.021,-0.947 l -0.65,-0.789 c -0.212,-0.257 -0.563,-0.348 -0.874,-0.227 -0.104,0.04 -0.197,0.104 -0.276,0.187 l -0.501,0.528 c -0.168,0.179 -0.403,0.592 -0.091,1.361 0.268,0.654 0.88,1.438 1.818,2.328 2.006,1.897 3.042,1.894 3.481,1.723 0.116,-0.048 0.217,-0.113 0.297,-0.197 l 0.501,-0.529 c 0.152,-0.16 0.228,-0.378 0.207,-0.597 -0.02,-0.219 -0.133,-0.419 -0.31,-0.55 z"
           id="path34"
           inkscape:connector-curvature="0" /></g></g></g><path
     style="fill:#93a6a6;stroke-width:0.487;fill-opacity:1;stroke:#080024;stroke-opacity:1;stroke-miterlimit:4;stroke-dasharray:none"
     d="M 2.0295219,10.551018 C 2.089364,7.3417969 2.1102495,7.1864956 2.6347422,6.0506977 3.3246999,4.5565827 4.9207607,3.0336917 6.4389025,2.4209354 L 7.5221429,1.9837151 25.967593,1.9301479 c 11.317169,-0.032866 18.899441,0.016879 19.620218,0.1287218 2.426394,0.3765034 4.368259,1.7776896 5.413463,3.9061731 0.510986,1.0405842 0.529742,1.183537 0.589468,4.4923432 l 0.06169,3.417558 H 26.809986 1.9675409 Z M 45.364283,9.5893325 C 46.548632,8.8671171 46.673218,7.1971067 45.609519,6.3020629 44.26752,5.1728448 42.27307,6.0719875 42.263677,7.8104438 c -0.0091,1.6845101 1.67289,2.6495082 3.100606,1.7788887 z"
     id="path56"
     inkscape:connector-curvature="0" /><path
     style="fill:#daf3ea;fill-opacity:1;stroke:#080024;stroke-width:0.04559865;stroke-miterlimit:4;stroke-dasharray:none;stroke-opacity:1"
     d="M 43.436611,9.4708907 C 42.714215,9.0866257 42.327013,8.070004 42.594434,7.2597095 42.986805,6.070815 44.450702,5.6606998 45.427644,6.4659776 45.8564,6.8193951 46.05976,7.267838 46.05976,7.8599034 c 0,1.0229743 -0.757654,1.7845302 -1.775387,1.7845302 -0.327999,0 -0.642571,-0.064395 -0.847762,-0.1735429 z"
     id="path872"
     inkscape:connector-curvature="0" /><path
     style="fill:#93a6a6;fill-opacity:1;stroke:#080024;stroke-width:0.491;stroke-miterlimit:4;stroke-dasharray:none;stroke-opacity:1"
     d="M 6.8103947,91.160185 C 5.4306971,90.720342 4.2934297,89.896757 3.3595717,88.66117 2.3132921,87.276837 2.0471709,86.233982 1.9336152,83.073242 L 1.8343802,80.311106 H 26.782315 51.730252 l -0.06327,2.949399 c -0.06108,2.847549 -0.08328,2.991433 -0.642765,4.166612 -0.736496,1.546985 -1.899683,2.710172 -3.446668,3.446668 l -1.217213,0.579496 -19.194503,0.0385 C 8.5076508,91.529211 7.9388931,91.519946 6.8103947,91.160185 Z M 31.285631,87.286378 c 0.400741,-0.200192 0.790916,-0.604814 1.004116,-1.041294 0.310261,-0.635198 0.320566,-0.78777 0.0935,-1.384362 -0.140354,-0.368768 -0.492977,-0.848076 -0.783604,-1.065129 -0.502594,-0.375355 -0.745091,-0.39464 -4.962354,-0.39464 -2.438666,0 -4.66829,0.06546 -4.954721,0.145473 -0.612297,0.171037 -1.256525,1.132577 -1.257519,1.876908 -3.75e-4,0.288351 0.131155,0.779256 0.292313,1.0909 0.508214,0.982775 1.040147,1.084742 5.699417,1.092525 3.645892,0.0061 4.301711,-0.03706 4.86885,-0.320381 z"
     id="path874"
     inkscape:connector-curvature="0" /><path
     style="fill:#daf3ea;fill-opacity:1;stroke:#080024;stroke-width:0.09194636;stroke-miterlimit:4;stroke-dasharray:none;stroke-opacity:1"
     d="m 22.458683,87.263437 c -1.005519,-0.150223 -1.34388,-0.384453 -1.660872,-1.149738 -0.285248,-0.68865 -0.118677,-1.392814 0.468329,-1.97982 l 0.452031,-0.452031 h 4.664844 c 4.376596,0 4.694176,0.02307 5.139545,0.373399 1.023875,0.805381 0.944382,2.207911 -0.166429,2.936393 -0.456473,0.29936 -0.987805,0.345553 -4.275226,0.371678 -2.064684,0.01641 -4.144684,-0.02854 -4.622222,-0.09988 z"
     id="path876"
     inkscape:connector-curvature="0" /><path
     style="fill:#008600;fill-opacity:1;stroke:#008600;stroke-width:0.392;stroke-miterlimit:4;stroke-dasharray:none;stroke-opacity:1"
     d="m 35.218163,69.435467 c -1.795524,-0.811079 -2.984039,-2.471576 -3.135612,-4.380825 -0.217713,-2.742367 1.368403,-4.945502 4.056174,-5.634077 2.373785,-0.608135 4.791195,0.528573 5.960562,2.80276 1.047207,2.03661 0.473774,4.853568 -1.296467,6.368829 -1.451026,1.242024 -3.887522,1.609948 -5.584657,0.843313 z m 5.092682,-2.36147 c 0.713092,-0.683185 0.674455,-1.236554 -0.129132,-1.84948 -0.498988,-0.380597 -0.799111,-0.476975 -1.264028,-0.405917 -0.495881,0.07579 -0.760778,-0.02951 -1.419239,-0.564138 -0.576487,-0.468075 -0.751707,-0.715177 -0.608606,-0.858278 0.330327,-0.330327 0.230107,-0.895169 -0.276731,-1.559668 -1.125215,-1.475233 -2.834439,-0.101481 -2.141471,1.721162 0.282313,0.742539 2.390985,2.860399 3.461845,3.476929 1.167016,0.671891 1.707821,0.680851 2.377362,0.03939 z"
     id="path878"
     inkscape:connector-curvature="0" /><path
     style="fill:#ff0000;fill-opacity:1;stroke:#ff0000;stroke-width:0.473;stroke-miterlimit:4;stroke-dasharray:none;stroke-opacity:1"
     d="m 15.032564,69.340483 c -3.226054,-1.607611 -4.011431,-5.629893 -1.618871,-8.290995 2.144096,-2.384752 5.705774,-2.375577 7.859825,0.02025 2.413004,2.683841 1.480427,6.880275 -1.866874,8.400614 -1.184245,0.537882 -3.151281,0.479481 -4.37408,-0.129865 z m 0.865079,-3.52228 c 0.120806,-0.07466 0.219648,-0.299313 0.219648,-0.499225 0,-0.3211 0.136729,-0.363475 1.172807,-0.363475 1.030733,0 1.1952,0.0503 1.35766,0.415255 0.225443,0.506434 1.468144,0.821063 2.104304,0.532771 0.34522,-0.156446 0.421342,-0.341497 0.421342,-1.024267 0,-1.268415 -0.542668,-1.6697 -2.567826,-1.898821 -1.333147,-0.150828 -3.674984,0.183232 -4.45189,0.635058 -0.418637,0.243466 -0.580112,0.489832 -0.625067,0.95368 -0.08522,0.879325 0.09865,1.470835 0.482084,1.550861 0.388088,0.081 1.574596,-0.108798 1.886938,-0.301837 z"
     id="path880"
     inkscape:connector-curvature="0" /><path
     style="fill:#000172;fill-opacity:1;stroke:#452baa;stroke-width:0.825;stroke-miterlimit:4;stroke-dasharray:none;stroke-opacity:1"
     d="M 25.359119,53.855131 C 22.80315,53.530222 20.294846,52.497872 18.412323,50.996018 l -0.990116,-0.789903 1.310338,-0.563692 c 0.720686,-0.31003 2.060041,-0.748997 2.976344,-0.975482 2.156083,-0.532923 2.86009,-1.267221 2.851459,-2.974149 -0.0037,-0.723364 -0.286996,-1.907584 -0.677628,-2.83216 -1.414697,-3.348413 -1.627092,-4.534032 -1.768588,-9.872554 -0.02747,-1.03658 0.708293,-2.107612 1.950523,-2.839311 1.22716,-0.722821 5.240892,-0.759541 6.524379,-0.05969 1.698785,0.926304 1.808121,1.35932 1.586508,6.283206 -0.110331,2.451386 -0.272107,3.077003 -1.883252,7.282839 -0.575665,1.502756 -0.53899,3.099181 0.08956,3.898249 0.373872,0.475302 1.057524,0.789639 2.449682,1.126344 1.062094,0.256876 2.443659,0.726316 3.070145,1.043201 l 1.139066,0.576154 -1.139066,0.813611 c -3.134456,2.238874 -6.866615,3.209725 -10.542555,2.742449 z"
     id="path882"
     inkscape:connector-curvature="0" /></svg>