<?xml version="1.0" encoding="UTF-8" standalone="no"?>
<svg
   xmlns:dc="http://purl.org/dc/elements/1.1/"
   xmlns:cc="http://creativecommons.org/ns#"
   xmlns:rdf="http://www.w3.org/1999/02/22-rdf-syntax-ns#"
   xmlns:svg="http://www.w3.org/2000/svg"
   xmlns="http://www.w3.org/2000/svg"
   xmlns:xlink="http://www.w3.org/1999/xlink"
   xmlns:sodipodi="http://sodipodi.sourceforge.net/DTD/sodipodi-0.dtd"
   xmlns:inkscape="http://www.inkscape.org/namespaces/inkscape"
   version="1.1"
   x="0px"
   y="0px"
   viewBox="0 0 122.90057 122.90057"
   xml:space="preserve"
   id="svg151"
   sodipodi:docname="porte_voix_solo.svg"
   width="122.90057"
   height="122.90057"
   inkscape:version="0.92.1 unknown"><metadata
     id="metadata157"><rdf:RDF><cc:Work
         rdf:about=""><dc:format>image/svg+xml</dc:format><dc:type
           rdf:resource="http://purl.org/dc/dcmitype/StillImage" /><dc:title></dc:title></cc:Work></rdf:RDF></metadata><defs
     id="defs155"><linearGradient
       inkscape:collect="always"
       id="linearGradient4784"><stop
         style="stop-color:#35995f;stop-opacity:1;"
         offset="0"
         id="stop4780" /><stop
         style="stop-color:#356f5f;stop-opacity:0"
         offset="1"
         id="stop4782" /></linearGradient><radialGradient
       inkscape:collect="always"
       xlink:href="#linearGradient4784"
       id="radialGradient4786"
       cx="27.67429"
       cy="43.614117"
       fx="27.67429"
       fy="43.614117"
       r="60"
       gradientUnits="userSpaceOnUse"
       gradientTransform="matrix(2.9283353,-0.00541619,0.00489025,2.6439834,-53.578595,-71.550994)" /></defs><sodipodi:namedview
     pagecolor="#ffffff"
     bordercolor="#666666"
     borderopacity="1"
     objecttolerance="10"
     gridtolerance="10"
     guidetolerance="10"
     inkscape:pageopacity="0"
     inkscape:pageshadow="2"
     inkscape:window-width="1875"
     inkscape:window-height="1056"
     id="namedview153"
     showgrid="false"
     inkscape:zoom="3.656"
     inkscape:cx="20.637754"
     inkscape:cy="50.201906"
     inkscape:window-x="1411"
     inkscape:window-y="24"
     inkscape:window-maximized="1"
     inkscape:current-layer="layer4"
     showguides="false" /><g
     inkscape:groupmode="layer"
     id="layer1"
     inkscape:label="fond"
     style="display:inline"
     transform="translate(33.528503,17.696831)"
     sodipodi:insensitive="true" /><g
     inkscape:groupmode="layer"
     id="layer3"
     inkscape:label="cocarde"
     style="display:inline"
     transform="translate(-0.24749358,-0.13933925)"
     sodipodi:insensitive="true" /><g
     inkscape:groupmode="layer"
     id="layer4"
     inkscape:label="numéro"
     style="display:inline"
     transform="translate(-0.24749358,-0.13933925)"
     sodipodi:insensitive="true" /><g
     inkscape:groupmode="layer"
     id="layer2"
     inkscape:label="badge"
     transform="translate(33.528503,17.696831)"
     style="display:inline"
     sodipodi:insensitive="true"><path
       inkscape:connector-curvature="0"
       d="m 7.436225,46.45976 c -0.5288223,0 -0.9576955,-0.428873 -0.9576955,-0.957695 0,-0.528823 0.4288732,-0.957696 0.9576955,-0.957696 0.5288224,0 0.9576956,0.428873 0.9576956,0.957696 0,0.528822 -0.4288732,0.957695 -0.9576956,0.957695 z m 36.378799,-7.532538 c 0,-0.528823 -0.428873,-0.957696 -0.957695,-0.957696 -0.528823,0 -0.957696,0.428873 -0.957696,0.957696 0,0.528822 0.428873,0.957695 0.957696,0.957695 0.528822,0 0.957695,-0.428873 0.957695,-0.957695 z M 63.393265,22.946245 v 39.677126 c 0,1.00222 -0.815041,1.81726 -1.817259,1.81726 h -1.513777 c -1.002218,0 -1.817259,-0.81504 -1.817259,-1.81726 V 62.487985 C 51.620152,51.941522 32.841505,52.791091 29.844845,53.000076 c -0.415243,0.524279 -0.896817,1.000401 -1.321147,1.373848 l 2.01534,1.958096 c 0.211711,0.206259 0.310751,0.502472 0.263503,0.795051 -0.04725,0.29167 -0.232609,0.543361 -0.498838,0.672386 l -0.652396,0.31802 0.320746,0.726904 c 0.199899,0.453406 0,0.983137 -0.449771,1.191213 l -0.653305,0.302574 4.863894,10.203911 c 3.934366,0.727812 3.819879,2.835832 3.79262,3.08298 -0.0055,0.04907 -0.01545,0.09722 -0.02817,0.144472 l -0.166279,0.592426 c -0.07178,0.256234 -0.25169,0.467944 -0.493386,0.579706 l -8.21492,3.802614 c -0.120847,0.05634 -0.25169,0.0845 -0.381624,0.0845 -0.157193,0 -0.313477,-0.04089 -0.454315,-0.121756 -0.254416,-0.14629 -0.422512,-0.407066 -0.45068,-0.700554 -0.0027,-0.02817 -0.317112,-2.853096 -3.140224,-6.702051 -2.519628,-3.439163 -4.206953,-8.265803 -4.788475,-10.086698 l -1.475615,0.141747 c -0.418878,0.03907 -0.806863,-0.208985 -0.944975,-0.604239 l -2.716802,-7.77696 H 4.9365832 c 0,0 0,0 -9.086e-4,0 -0.050883,0 -0.1008579,-0.0045 -0.1526498,-0.01363 L -0.51610074,52.05601 c -0.3870762,-0.06633 -0.68783246,-0.373447 -0.74507616,-0.76234 -0.047249,-0.318021 -0.082685,-0.622412 -0.1244822,-0.933163 l -3.9879752,-0.60969 c -0.394345,-0.05997 -0.703279,-0.370721 -0.761431,-0.765066 -0.06088,-0.409792 -0.11267,-0.810498 -0.159919,-1.203935 h -1.772736 c -0.501564,0 -0.90863,-0.407066 -0.90863,-0.908629 v -8.116788 c 0,-0.501563 0.407066,-0.908629 0.90863,-0.908629 h 1.732756 c 0.103584,-0.762341 0.19899,-1.208478 0.211711,-1.26663 0.08178,-0.365269 0.378898,-0.64331 0.74871,-0.699645 l 4.033407,-0.616959 c 0.048157,-0.261685 0.082685,-0.425239 0.090863,-0.461584 0.079959,-0.359817 0.36981216,-0.634223 0.73326396,-0.696919 L 4.7821182,33.197404 c 0.023624,-0.0036 0.045432,0.0045 0.069056,0.0018 0.029076,-0.0027 0.055426,-0.01545 0.084503,-0.01545 H 29.339647 c 0.01454,0 0.02726,0.0082 0.0418,0.0091 0.01635,9.08e-4 0.02998,-0.0064 0.04634,-0.0045 0.215345,0.01999 21.652642,1.947193 28.816277,-9.456107 v -0.786873 c 0,-1.002219 0.815041,-1.817259 1.817259,-1.817259 H 61.5751 c 1.002219,9.08e-4 1.818168,0.815949 1.818168,1.818167 z M 28.306535,35.002851 H 5.7089203 C 4.6639963,41.829384 5.422702,48.877624 5.7243673,51.16101 h 9.1916967 13.43136 c -0.140838,-0.990407 -0.33165,-2.624122 -0.440686,-4.750316 H 9.9349567 c -0.501564,0 -0.90863,-0.407066 -0.90863,-0.908629 0,-0.501564 0.407066,-0.90863 0.90863,-0.90863 H 27.8395 C 27.79225,42.5681 27.835,40.217475 28.043941,37.636059 H 7.3871591 c -0.5015636,0 -0.9086296,-0.407066 -0.9086296,-0.90863 0,-0.501563 0.407066,-0.908629 0.9086296,-0.908629 H 28.21749 c 0.02908,-0.27168 0.05543,-0.539726 0.08904,-0.815949 z M -6.4776193,45.964557 c -0.208985,-2.574147 -0.162644,-4.71397 -0.04452,-6.299528 h -0.636949 v 6.299528 z m 4.8720718,2.525082 c -0.051792,-0.512467 -0.096315,-1.013122 -0.1335685,-1.501965 h -1.8408835 c -0.5015635,0 -0.9086295,-0.407066 -0.9086295,-0.908629 0,-0.501564 0.407066,-0.90863 0.9086295,-0.90863 h 1.729122 c -0.00454,-0.09086 -0.00999,-0.184452 -0.013629,-0.273497 h -1.7164012 c -0.5015635,0 -0.9086295,-0.407066 -0.9086295,-0.90863 0,-0.501563 0.407066,-0.908629 0.9086295,-0.908629 h 1.6691525 c -9.087e-4,-0.09359 9.086e-4,-0.179909 0,-0.272589 h -1.6691525 c -0.5015635,0 -0.9086295,-0.407066 -0.9086295,-0.90863 0,-0.501563 0.407066,-0.908629 0.9086295,-0.908629 h 1.6936855 c 0.048157,-1.555574 0.1571929,-2.847645 0.2734974,-3.843503 l -2.8431018,0.435233 c -0.2235237,1.421097 -0.6632997,5.258239 0.027259,10.476499 z m 2.04895956,1.888132 3.42099024,0.586975 C 3.5282094,48.301552 2.9139758,41.784861 3.8480473,35.203658 l -3.43371104,0.587883 c -0.2898528,1.730031 -0.9876803,7.137285 0.0290758,14.58623 z M 26.832738,60.289102 c -0.104492,-0.21898 -0.116304,-0.471579 -0.03453,-0.700553 0.08269,-0.228066 0.252599,-0.414335 0.473396,-0.515193 l 0.677838,-0.313478 -1.751838,-3.976162 c -0.172639,-0.393437 -0.04725,-0.853204 0.301665,-1.104894 0.0073,-0.0055 0.393437,-0.287127 0.860472,-0.700553 H 19.70545 l 1.363853,3.810792 c 0.169005,0.472487 -0.07633,0.993132 -0.548812,1.161229 -0.100858,0.03634 -0.204442,0.05361 -0.306208,0.05361 -0.373447,0 -0.722361,-0.231701 -0.855021,-0.602422 L 17.776429,52.97827 h -1.579198 l 2.271574,6.50397 1.503782,-0.144472 c 0.02908,-0.0027 0.05815,-0.0045 0.08723,-0.0045 0.400705,0 0.759614,0.26532 0.872284,0.657848 0.01817,0.06179 1.828161,6.277722 4.730323,10.238438 2.023518,2.758599 2.879447,5.057432 3.236539,6.384031 l 6.794732,-3.145675 0.01908,-0.06724 c -0.06815,-0.194447 -0.648762,-0.841391 -2.72498,-1.139421 -0.300757,-0.04362 -0.559716,-0.234427 -0.690559,-0.508833 z M 58.24497,59.449528 V 35.120972 c -2.322457,1.688234 -7.078224,4.544057 -12.721722,4.544057 -0.502472,0 -0.90863,-0.407066 -0.90863,-0.90863 0,-0.501563 0.406158,-0.908629 0.90863,-0.908629 6.208666,0 11.447823,-3.975255 12.721722,-5.02563 v -6.051473 c -3.498224,3.97798 -9.184427,6.646625 -16.644276,7.77696 -5.126488,0.77597 -9.625113,0.627863 -11.46327,0.515193 -0.628772,5.081965 -0.547904,9.503356 -0.327107,12.539088 3.098427,-0.04361 14.557154,-0.05088 19.844469,2.118015 0.46431,0.189904 0.686016,0.720543 0.495203,1.185762 -0.143563,0.351639 -0.482482,0.56335 -0.840482,0.56335 -0.115396,0 -0.2317,-0.0209 -0.345279,-0.06815 -4.838452,-1.985356 -15.815606,-2.016249 -18.992175,-1.981721 0.07723,0.729629 0.154467,1.31933 0.214437,1.734574 1.869959,-0.11267 6.334965,-0.250782 11.414204,0.517918 7.45894,1.131244 13.146052,3.798981 16.644276,7.777869 z m 3.332853,3.173843 -0.0018,-39.677126 h -1.513777 v 1.060371 38.207872 0.408883 z M 52.493345,51.526279 c 0,-0.528823 -0.428873,-0.957696 -0.957695,-0.957696 -0.528823,0 -0.957696,0.428873 -0.957696,0.957696 0,0.528822 0.428873,0.957695 0.957696,0.957695 0.528822,0 0.957695,-0.428873 0.957695,-0.957695 z"
       id="path2-5"
       style="stroke-width:0.90862954" /><path
       style="opacity:1;fill:#cc0000;fill-opacity:1;stroke:none;stroke-width:0.68380743;stroke-miterlimit:4;stroke-dasharray:none;stroke-opacity:1"
       d="M 57.310106,58.586343 C 53.781437,54.993102 47.817112,52.520837 40.356187,51.558795 37.89566,51.241525 33.73199,51.036593 31.850638,51.140159 l -1.667249,0.09178 -0.08219,-0.522885 c -0.0452,-0.287588 -0.108364,-0.689742 -0.140361,-0.893678 -0.032,-0.203935 -0.0013,-0.405923 0.06815,-0.448863 0.207907,-0.128493 8.516342,0.185642 10.874017,0.411139 2.754479,0.263448 5.0382,0.650219 6.588738,1.11587 2.085957,0.626445 2.642663,0.551866 2.642663,-0.354023 0,-0.528261 -0.307319,-0.750047 -1.601637,-1.155882 -3.230683,-1.012977 -7.880341,-1.544334 -14.757702,-1.686488 l -3.982424,-0.08232 -0.08526,-0.902506 c -0.202169,-2.140078 -0.07699,-7.116464 0.269533,-10.715143 l 0.08889,-0.92314 h 2.902841 c 10.917492,0 19.033294,-2.437095 24.193567,-7.265089 l 1.177878,-1.102032 v 3.067486 3.067486 l -1.059902,0.761812 c -3.595615,2.584378 -7.135659,3.955761 -11.04349,4.278153 -1.500476,0.123788 -1.934063,0.581569 -1.346017,1.421123 0.222215,0.317256 0.257017,0.321968 1.743709,0.236107 3.371235,-0.194699 7.238014,-1.562164 10.465264,-3.700983 0.634089,-0.420235 1.172587,-0.764063 1.196663,-0.764063 0.02407,0 0.04377,5.477297 0.04377,12.171772 0,6.694475 -0.04808,12.171772 -0.106852,12.171772 -0.05877,0 -0.474182,-0.374051 -0.92314,-0.831225 z m -5.134201,-6.503958 c 0.356421,-0.453115 0.359383,-0.794572 0.0099,-1.144029 -0.581058,-0.581057 -1.504377,-0.195086 -1.504377,0.628868 0,0.835199 0.977623,1.172202 1.49445,0.515161 z m -8.77324,-12.434607 c 0.36531,-0.255873 0.415919,-1.023215 0.08904,-1.350091 -0.326877,-0.326876 -1.094218,-0.276268 -1.350092,0.08904 -0.300027,0.42835 -0.265312,0.750157 0.122791,1.138259 0.388102,0.388103 0.709909,0.422818 1.138258,0.12279 z"
       id="path5405"
       inkscape:connector-curvature="0" /><path
       style="opacity:1;fill:#cc0000;fill-opacity:1;stroke:none;stroke-width:0.68380743;stroke-miterlimit:4;stroke-dasharray:none;stroke-opacity:1"
       d="m 1.7516717,50.66701 c -0.697622,-0.130258 -1.29168004,-0.260964 -1.32013004,-0.290456 -0.108244,-0.112216 -0.352111,-2.612251 -0.486544,-4.98787 -0.09264,-1.637114 -0.09528,-3.323748 -0.0078,-4.991794 0.119037,-2.270043 0.344439,-4.476281 0.470169,-4.602011 0.08463,-0.08463 3.35944204,-0.635284 3.41635604,-0.574457 0.03023,0.03231 -0.03571,0.858798 -0.146545,1.836643 -0.359241,3.16956 -0.256417,10.535669 0.186612,13.368436 0.0797,0.50963 0.0773,0.512747 -0.381746,0.495599 -0.254075,-0.0095 -1.032736,-0.123833 -1.730358,-0.25409 z"
       id="path5407"
       inkscape:connector-curvature="0" /><path
       style="opacity:1;fill:#ffffff;fill-opacity:1;stroke:none;stroke-width:0.68380743;stroke-miterlimit:4;stroke-dasharray:none;stroke-opacity:1"
       d="m 5.6395837,50.767404 c -0.586628,-3.352221 -0.584916,-13.08751 0.0027,-15.522429 l 0.07426,-0.307713 H 17.068905 28.421233 l -0.08246,0.307713 c -0.04536,0.169243 -0.08331,0.384642 -0.08433,0.478666 -0.0015,0.135274 -2.21384,0.170951 -10.600882,0.170951 -10.4166673,0 -10.6037213,0.0047 -10.8725383,0.273523 -0.336956,0.336956 -0.34843,0.699498 -0.03419,1.080281 l 0.239332,0.290015 10.5306353,0.03285 10.530634,0.03285 -0.01568,0.478665 c -0.0086,0.263266 -0.06414,1.84799 -0.123366,3.521609 l -0.10768,3.042943 h -9.043415 c -9.9220223,0 -9.6538663,-0.02207 -9.6492263,0.794133 0.0047,0.824521 -0.581815,0.772404 9.5319943,0.847005 l 9.270617,0.06838 0.155898,1.72757 c 0.08574,0.950163 0.199219,2.042545 0.252167,2.427516 l 0.09627,0.699947 H 17.066182 5.7173657 Z m 2.341856,-4.555074 c 0.368796,-0.258315 0.409515,-0.948155 0.07761,-1.314901 -0.325171,-0.359309 -1.070269,-0.329336 -1.338664,0.05385 -0.300028,0.428349 -0.265313,0.750156 0.12279,1.138259 0.388103,0.388102 0.709909,0.422817 1.138259,0.12279 z"
       id="path5409"
       inkscape:connector-curvature="0" /><path
       style="opacity:1;fill:#ffffff;fill-opacity:1;stroke:none;stroke-width:0.68380743;stroke-miterlimit:4;stroke-dasharray:none;stroke-opacity:1"
       d="M 59.981236,42.801048 V 22.902251 h 0.820569 0.820569 v 19.898797 19.898796 h -0.820569 -0.820569 z"
       id="path5411"
       inkscape:connector-curvature="0" /><path
       style="opacity:1;fill:#ffffff;fill-opacity:1;stroke:none;stroke-width:0.68380743;stroke-miterlimit:4;stroke-dasharray:none;stroke-opacity:1"
       d="m -3.3678403,48.287217 c -0.504602,-0.08386 -0.975572,-0.214014 -1.046601,-0.289233 -0.180188,-0.190816 -0.429269,-3.441957 -0.429269,-5.603051 0,-1.488325 0.219428,-4.707059 0.328709,-4.821754 0.06617,-0.06945 2.839189,-0.470937 2.891489,-0.418637 0.03114,0.03114 -0.01441,0.929707 -0.101231,1.996806 l -0.157855,1.940181 h -1.049075 c -0.842641,0 -1.093613,0.04921 -1.275414,0.250101 -0.283681,0.313465 -0.288393,0.694534 -0.01344,1.087084 0.189619,0.270718 0.33168,0.303953 1.299234,0.303953 0.874459,0 1.086337,0.04001 1.086337,0.205142 0,0.164114 -0.205142,0.205142 -1.025711,0.205142 -1.13264,0 -1.572757,0.242831 -1.572757,0.867754 0,0.577284 0.392851,0.773384 1.549335,0.773384 0.841388,0 1.049133,0.04062 1.049133,0.205142 0,0.164114 -0.205142,0.205143 -1.025711,0.205143 -1.126534,0 -1.57482,0.243958 -1.570663,0.854759 0.0046,0.669771 0.484575,0.92314 1.74892,0.92314 h 0.948427 l 0.08477,0.512856 c 0.153566,0.929072 0.13003,0.993277 -0.356695,0.97304 -0.244461,-0.01016 -0.85733,-0.08709 -1.361931,-0.170952 z"
       id="path5413"
       inkscape:connector-curvature="0" /><path
       style="opacity:1;fill:#003399;fill-opacity:1;stroke:none;stroke-width:0.34190372;stroke-miterlimit:4;stroke-dasharray:none;stroke-opacity:1"
       d="m -7.1902513,42.802886 0.01778,-3.16261 0.311105,-0.02028 0.311105,-0.02028 -0.0034,2.481989 c -0.0019,1.365094 0.0211,2.797395 0.05102,3.182891 l 0.05442,0.700903 h -0.379908 -0.379908 z"
       id="path5415"
       inkscape:connector-curvature="0" /><path
       style="opacity:1;fill:#ffffff;fill-opacity:1;stroke:none;stroke-width:0.68380743;stroke-miterlimit:4;stroke-dasharray:none;stroke-opacity:1"
       d="M 28.491117,75.565297 C 27.925245,73.969376 27.218656,72.651567 25.75699,70.466071 25.029332,69.378072 23.981733,67.56475 23.428991,66.436468 22.480114,64.499575 21.183249,61.23108 20.971713,60.243377 20.828896,59.57654 20.407794,59.366484 19.317367,59.418148 l -0.917765,0.04348 -0.376317,-1.094092 c -0.206975,-0.60175 -0.715434,-2.063389 -1.12991,-3.248085 l -0.753592,-2.153989 h 0.843277 0.843276 l 0.806343,2.268847 c 0.443488,1.247865 0.893129,2.355633 0.999202,2.461706 0.257432,0.257432 0.922107,0.245108 1.189265,-0.02205 0.331534,-0.331534 0.268064,-0.702286 -0.468896,-2.739006 -0.376094,-1.039403 -0.683808,-1.90775 -0.683808,-1.92966 0,-0.02191 1.738581,-0.038 3.863512,-0.03576 l 3.863512,0.0041 -0.583353,0.508774 c -0.421279,0.36742 -0.582766,0.612141 -0.581237,0.880819 0.0012,0.204624 0.402862,1.281382 0.892661,2.392795 0.489798,1.111413 0.843669,2.036619 0.786378,2.056015 -0.419588,0.142048 -0.999441,0.627195 -1.065843,0.891762 -0.05898,0.234983 0.646673,1.848318 2.678688,6.124319 1.517317,3.192913 2.864145,5.915954 2.992953,6.051202 0.128807,0.135248 0.616106,0.334999 1.082888,0.443891 0.927195,0.2163 1.784865,0.606648 2.05919,0.937189 0.150889,0.181811 0.07398,0.256286 -0.556194,0.538629 -0.402212,0.180205 -1.941717,0.889816 -3.421124,1.576913 -1.479405,0.687097 -2.717664,1.249267 -2.751686,1.249267 -0.03402,0 -0.230973,-0.476956 -0.43767,-1.059902 z"
       id="path5419"
       inkscape:connector-curvature="0" /><path
       style="opacity:1;fill:#cc0000;fill-opacity:1;stroke:none;stroke-width:0.34190372;stroke-miterlimit:4;stroke-dasharray:none;stroke-opacity:1"
       d="M -7.1679833,42.791034 V 39.64552 h 0.307713 0.307713 v 2.519582 c 0,1.385771 0.01999,2.801252 0.04443,3.145515 l 0.04443,0.625931 h -0.352143 -0.352143 z"
       id="path5429"
       inkscape:connector-curvature="0" /><path
       style="opacity:1;fill:#003399;fill-opacity:1;stroke:#003399;stroke-width:0.30000001;stroke-miterlimit:4;stroke-dasharray:none;stroke-opacity:1"
       d="m -2.1419993,48.414461 c -0.507531,-0.03337 -1.638873,-0.223144 -1.960383,-0.328837 l -0.319246,-0.104949 -0.07412,-0.457922 c -0.333872,-2.062779 -0.392836,-5.784546 -0.138883,-8.766183 0.08757,-1.028101 0.113629,-1.146952 0.261828,-1.193988 0.153474,-0.04871 2.431725,-0.378769 2.61448,-0.378769 0.162297,0 0.161437,0.04736 -0.04655,2.564278 -0.05283,0.63936 -0.09645,1.200937 -0.09693,1.247949 -6.49e-4,0.06413 -0.231985,0.08547 -0.926204,0.08547 -1.01769,0 -1.293752,0.06759 -1.488203,0.364359 -0.22834,0.348491 -0.07431,1.011428 0.278928,1.200474 0.0711,0.03805 0.565125,0.09076 1.097835,0.117125 0.64442,0.0319 0.992531,0.07682 1.04018,0.134234 0.120263,0.144907 -0.03797,0.182739 -0.986469,0.235851 -0.994249,0.05567 -1.187712,0.108079 -1.401281,0.379589 -0.209711,0.266605 -0.202311,0.77366 0.01426,0.977119 0.226635,0.212913 0.488191,0.271414 1.453195,0.325031 0.548898,0.0305 0.87368,0.07766 0.920126,0.13363 0.120456,0.14514 -0.03739,0.182919 -0.986301,0.236053 -0.493573,0.02764 -0.977986,0.08266 -1.076473,0.122279 -0.302287,0.121595 -0.47055,0.400703 -0.47055,0.780532 0,0.280142 0.03324,0.371181 0.194337,0.53228 0.255281,0.25528 0.55118,0.326243 1.5971,0.383022 0.70536,0.03829 0.876221,0.06775 0.910524,0.157008 0.02322,0.06043 0.05984,0.359038 0.08136,0.663574 0.04402,0.622869 0.04149,0.625901 -0.492564,0.590786 z"
       id="path5431"
       inkscape:connector-curvature="0" /></g><g
     inkscape:groupmode="layer"
     id="layer5"
     inkscape:label="gris"
     style="display:inline"
     sodipodi:insensitive="true" /></svg>