<?xml version="1.0" encoding="UTF-8" standalone="no"?>
<svg
   xmlns:dc="http://purl.org/dc/elements/1.1/"
   xmlns:cc="http://creativecommons.org/ns#"
   xmlns:rdf="http://www.w3.org/1999/02/22-rdf-syntax-ns#"
   xmlns:svg="http://www.w3.org/2000/svg"
   xmlns="http://www.w3.org/2000/svg"
   xmlns:xlink="http://www.w3.org/1999/xlink"
   xmlns:sodipodi="http://sodipodi.sourceforge.net/DTD/sodipodi-0.dtd"
   xmlns:inkscape="http://www.inkscape.org/namespaces/inkscape"
   version="1.1"
   x="0px"
   y="0px"
   viewBox="0 0 122.90057 122.90057"
   xml:space="preserve"
   id="svg151"
   sodipodi:docname="porte_voix.svg"
   width="122.90057"
   height="122.90057"
   inkscape:version="0.92.1 unknown"><metadata
     id="metadata157"><rdf:RDF><cc:Work
         rdf:about=""><dc:format>image/svg+xml</dc:format><dc:type
           rdf:resource="http://purl.org/dc/dcmitype/StillImage" /><dc:title /></cc:Work></rdf:RDF></metadata><defs
     id="defs155"><linearGradient
       inkscape:collect="always"
       id="linearGradient4784"><stop
         style="stop-color:#35995f;stop-opacity:1;"
         offset="0"
         id="stop4780" /><stop
         style="stop-color:#356f5f;stop-opacity:0"
         offset="1"
         id="stop4782" /></linearGradient><radialGradient
       inkscape:collect="always"
       xlink:href="#linearGradient4784"
       id="radialGradient4786"
       cx="27.67429"
       cy="43.614117"
       fx="27.67429"
       fy="43.614117"
       r="60"
       gradientUnits="userSpaceOnUse"
       gradientTransform="matrix(2.9283353,-0.00541619,0.00489025,2.6439834,-53.578595,-71.550994)" /></defs><sodipodi:namedview
     pagecolor="#ffffff"
     bordercolor="#666666"
     borderopacity="1"
     objecttolerance="10"
     gridtolerance="10"
     guidetolerance="10"
     inkscape:pageopacity="0"
     inkscape:pageshadow="2"
     inkscape:window-width="1875"
     inkscape:window-height="1056"
     id="namedview153"
     showgrid="false"
     inkscape:zoom="2.5851824"
     inkscape:cx="122.14983"
     inkscape:cy="14.124959"
     inkscape:window-x="1411"
     inkscape:window-y="24"
     inkscape:window-maximized="1"
     inkscape:current-layer="layer1"
     showguides="false" /><g
     inkscape:groupmode="layer"
     id="layer1"
     inkscape:label="fond"
     style="display:inline"
     transform="translate(33.528503,17.696831)"><circle
       style="display:inline;opacity:1;fill:#5bcf8f;fill-opacity:1;stroke:#4b6e5f;stroke-width:2;stroke-miterlimit:4;stroke-dasharray:none;stroke-opacity:1"
       id="path3963"
       cx="27.921783"
       cy="43.753456"
       r="59.950287" /></g><g
     inkscape:groupmode="layer"
     id="layer3"
     inkscape:label="cocarde"
     style="display:inline"
     transform="translate(-0.24749358,-0.13933925)"><path
       style="display:inline;stroke-width:0.46723962"
       d="m 120.53297,17.206845 1.54189,-1.915684 -2.24274,-1.027924 1.16809,-2.149304 -2.38292,-0.607413 0.79431,-2.3361961 -2.42965,-0.1868963 0.3738,-2.4296455 -2.42965,0.233619 -0.0935,-2.4763699 -2.3362,0.7008596 -0.51397,-2.3829226 -2.19602,1.0746518 -0.93448,-2.2894739 -1.9624,1.4484425 -1.355,-2.05585369 L 103.85248,2.6289682 102.17042,0.80673491 100.86216,2.8625886 98.899752,1.4141461 97.965274,3.70362 95.769245,2.6289682 95.208559,5.0118908 92.825636,4.3110312 l -0.09345,2.4763699 -2.429645,-0.233619 0.37379,2.4296455 -2.429645,0.1868963 0.794306,2.3361961 -2.38292,0.607413 1.1681,2.149304 -2.196028,1.027924 1.541891,1.915684 -2.00913,1.401718 1.868958,1.588614 -1.728788,1.775512 2.102579,1.214822 -1.354993,2.055856 2.289474,0.84103 -0.981204,2.242751 2.429647,0.420514 -0.560688,2.382922 2.476369,-0.04671 -0.140173,2.429644 2.429646,-0.467238 0.280346,2.429645 2.289473,-0.887754 0.747583,2.336195 2.10258,-1.261545 1.121366,2.196026 1.82224,-1.635337 1.49516,1.962405 1.49517,-1.915684 1.82224,1.63534 1.12139,-2.196025 2.10255,1.261545 0.7476,-2.336198 2.28947,0.887756 0.28035,-2.429646 2.42964,0.46724 -0.14018,-2.476369 2.47638,0.04671 -0.56069,-2.382922 2.42964,-0.420514 -0.9812,-2.242751 2.28949,-0.84103 -1.35501,-2.055856 2.10258,-1.214822 -1.72878,-1.775512 1.86894,-1.588614 z M 103.85251,34.26109 c -8.129957,0 -14.76476,-6.634803 -14.76476,-14.764771 0,-8.12997 6.634803,-14.7647716 14.76476,-14.7647716 8.12997,0 14.76478,6.6348016 14.76478,14.7647716 0,8.129968 -6.63481,14.764771 -14.76478,14.764771 z"
       id="path2"
       inkscape:connector-curvature="0" /><path
       style="display:inline;fill:#692019;fill-opacity:1;stroke-width:0.46723962"
       d="m 103.66561,6.1332656 c -7.429093,0 -13.456486,6.0273914 -13.456486,13.4565004 0,7.42911 6.027393,13.456501 13.456486,13.456501 7.42912,0 13.4565,-6.074116 13.4565,-13.503224 0,-7.42911 -6.02738,-13.4097774 -13.4565,-13.4097774 z m 0,25.8850744 c -6.868407,0 -12.475283,-5.606875 -12.475283,-12.475297 0,-6.868423 5.606876,-12.4752985 12.475283,-12.4752985 6.86843,0 12.47532,5.6068755 12.47532,12.4752985 0,6.868422 -5.60689,12.475297 -12.47532,12.475297 z"
       id="path4"
       inkscape:connector-curvature="0" /><path
       style="opacity:1;fill:#992f24;fill-opacity:1;stroke:#692019;stroke-width:0.86142999;stroke-miterlimit:4;stroke-dasharray:none;stroke-opacity:1"
       d="m 103.63505,37.964062 c -1.6e-4,-0.07107 -0.30076,-0.477451 -0.66777,-0.903069 l -0.66731,-0.773861 -0.79283,0.730787 c -0.43602,0.401931 -0.8555,0.730786 -0.93213,0.730786 -0.0766,0 -0.36911,-0.465057 -0.649922,-1.033462 l -0.510593,-1.033462 -0.999264,0.602747 c -0.549597,0.331511 -1.027832,0.602747 -1.062739,0.602747 -0.03491,0 -0.231168,-0.503935 -0.436133,-1.11986 -0.204967,-0.615922 -0.390409,-1.119857 -0.412094,-1.119857 -0.02169,0 -0.523338,0.189642 -1.114784,0.421428 -1.205622,0.472478 -1.147806,0.516204 -1.317634,-0.99645 -0.103358,-0.92057 -0.144533,-0.998212 -0.486276,-0.916864 -0.205349,0.04887 -0.749193,0.143138 -1.208543,0.209463 l -0.835184,0.120595 0.05991,-1.185015 0.05991,-1.185016 -1.18868,0.06009 -1.18868,0.06009 0.133124,-0.835371 c 0.276915,-1.737668 0.305722,-1.678454 -0.899984,-1.850059 -0.592234,-0.08429 -1.076787,-0.217755 -1.076787,-0.296587 0,-0.07884 0.193822,-0.581598 0.430714,-1.117255 0.236894,-0.535659 0.430717,-0.992653 0.430717,-1.015545 0,-0.0229 -0.484556,-0.216572 -1.076789,-0.430404 -0.592233,-0.213827 -1.1026,-0.411548 -1.13415,-0.439373 -0.03154,-0.02783 0.22042,-0.463076 0.55993,-0.96722 0.339511,-0.504144 0.617292,-0.975144 0.617292,-1.046667 0,-0.07152 -0.426408,-0.37069 -0.947573,-0.664818 -0.521165,-0.294127 -0.947573,-0.582859 -0.947573,-0.641628 0,-0.05877 0.368261,-0.482607 0.818359,-0.941866 0.715396,-0.72996 0.783885,-0.860763 0.54436,-1.039634 -0.568095,-0.42425 -1.568781,-1.347593 -1.510025,-1.393323 0.03364,-0.02618 0.425469,-0.293753 0.870731,-0.594605 0.445263,-0.300855 0.85134,-0.614597 0.902395,-0.697205 0.05106,-0.08262 -0.225739,-0.550301 -0.615098,-1.039313 -0.389359,-0.489014 -0.679145,-0.915034 -0.643966,-0.946708 0.03517,-0.03167 0.490367,-0.270064 1.011531,-0.529757 0.521166,-0.259693 0.966658,-0.488386 0.989986,-0.508209 0.02334,-0.01983 -0.200251,-0.484067 -0.496835,-1.03165 -0.61385,-1.133352 -0.607051,-1.145427 0.825524,-1.466023 0.773435,-0.173088 0.924993,-0.264058 0.829818,-0.498086 -0.06405,-0.157479 -0.256856,-0.686057 -0.428469,-1.174617 l -0.312032,-0.8882899 0.37279,-0.099999 c 0.205032,-0.055001 0.748533,-0.1010569 1.207781,-0.1023547 l 0.834992,-0.0024 -0.108107,-1.196425 -0.108109,-1.1964252 1.211337,0.1015549 1.211337,0.101555 v -1.230959 c 0,-0.6770444 0.01938,-1.2299896 0.04307,-1.2287673 0.0237,0.00122 0.534863,0.1563827 1.13594,0.3448002 0.601079,0.1884176 1.152705,0.3055986 1.225834,0.2604021 0.07313,-0.045196 0.22485,-0.5492356 0.337159,-1.1200869 0.112304,-0.5708516 0.280401,-1.0379118 0.373541,-1.0379118 0.09313,0 0.551831,0.1938217 1.019318,0.4307149 0.467485,0.2368932 0.911093,0.430715 0.985795,0.430715 0.0747,0 0.316186,-0.4651722 0.536646,-1.033716 0.220459,-0.5685437 0.460881,-1.0337158 0.534272,-1.0337158 0.07342,0 0.488829,0.2713504 0.923182,0.6030009 0.434348,0.3316505 0.855518,0.603001 0.935948,0.603001 0.0803,0 0.41002,-0.4353135 0.73249,-0.9673633 l 0.58629,-0.96736309 0.86408,0.90581359 0.8641,0.9058136 0.82007,-0.8918903 0.82011,-0.89189011 0.63305,0.95343981 c 0.34818,0.5243918 0.68596,0.9534398 0.75062,0.9534398 0.0646,0 0.49922,-0.2713505 0.9657,-0.603001 0.46648,-0.3316505 0.88848,-0.6030009 0.93781,-0.6030009 0.0492,0 0.27443,0.4651721 0.50026,1.0337158 0.22582,0.5685438 0.47903,1.033716 0.56268,1.033716 0.0837,0 0.53457,-0.1938218 1.00205,-0.430715 0.4675,-0.2368932 0.91587,-0.4307149 0.99639,-0.4307149 0.0804,0 0.24776,0.5099303 0.37165,1.1331785 0.25066,1.2610764 0.0992,1.2025427 1.77618,0.6859527 l 0.81837,-0.2520763 v 1.2209112 1.2209108 l 1.20601,-0.08629 c 1.36294,-0.097519 1.31774,-0.1595507 1.05311,1.4457494 -0.13029,0.7903787 -0.12445,0.804328 0.37638,0.9045024 0.27979,0.055959 0.80913,0.1017376 1.17632,0.1017376 0.36717,0 0.66762,0.065394 0.66762,0.1453155 0,0.079918 -0.15507,0.5959962 -0.34459,1.1468308 -0.1895,0.550833 -0.34457,1.019535 -0.34457,1.041556 0,0.02202 0.50394,0.176449 1.11987,0.343171 0.61591,0.166722 1.11845,0.349771 1.11673,0.406776 -10e-4,0.057 -0.2343,0.523055 -0.51685,1.03567 -0.28256,0.512615 -0.51375,0.954058 -0.51375,0.980984 0,0.02692 0.46518,0.257712 1.03372,0.512859 0.56855,0.255149 1.03371,0.520718 1.03371,0.590157 0,0.06944 -0.31244,0.518686 -0.69435,0.998327 l -0.69435,0.872073 0.81529,0.571791 c 0.44841,0.314486 0.89656,0.631513 0.99585,0.704507 0.11561,0.08502 0.0429,0.248439 -0.20265,0.454749 -0.21077,0.177119 -0.6295,0.529263 -0.9305,0.782543 l -0.54728,0.460507 0.80129,0.813521 c 0.4407,0.447435 0.80129,0.863315 0.80129,0.924173 0,0.06086 -0.4264,0.354617 -0.94759,0.652798 -0.52115,0.298182 -0.94756,0.573716 -0.94756,0.612301 0,0.03859 0.27784,0.504493 0.61744,1.035355 0.33957,0.53086 0.59154,0.984554 0.55992,1.008209 -0.0315,0.02367 -0.53763,0.218846 -1.12447,0.433759 l -1.06695,0.390752 0.42636,0.96404 c 0.23448,0.53022 0.39071,1.056863 0.34719,1.170311 -0.0437,0.113461 -0.54994,0.260913 -1.12532,0.327694 -0.61062,0.07088 -1.04363,0.20404 -1.04004,0.319863 0.003,0.109145 0.11263,0.644231 0.24288,1.189085 l 0.23676,0.990645 h -1.20929 -1.2093 l 0.0652,1.292145 c 0.0359,0.71068 0.0185,1.292146 -0.0385,1.292146 -0.0571,0 -0.55045,-0.08971 -1.09632,-0.199325 -1.15774,-0.232506 -1.29623,-0.129046 -1.30467,0.974611 -0.008,1.118211 -0.12911,1.178704 -1.37527,0.690332 -0.60302,-0.236323 -1.10773,-0.410797 -1.12157,-0.38772 -0.0138,0.02307 -0.16774,0.526514 -0.34202,1.118748 -0.17427,0.592233 -0.38095,1.076786 -0.45928,1.076786 -0.0784,0 -0.52042,-0.232586 -0.98242,-0.516856 -0.46201,-0.284274 -0.91407,-0.51686 -1.00462,-0.51686 -0.0906,0 -0.38486,0.460781 -0.65404,1.02396 l -0.4894,1.023957 -0.92786,-0.79269 c -0.51763,-0.442235 -0.98724,-0.723555 -1.06218,-0.636314 -0.0739,0.086 -0.38724,0.485871 -0.69633,0.888589 -0.5173,0.674001 -0.87694,0.920962 -0.87807,0.603002 z m 3.51109,-4.12073 c 3.12828,-0.705105 6.55727,-2.911584 8.49255,-5.464764 0.93104,-1.22829 2.15031,-3.710243 2.54865,-5.188028 0.47755,-1.771721 0.53053,-4.718968 0.12043,-6.694855 -1.12379,-5.413299 -5.41805,-9.921119 -10.79576,-11.332633 -1.88774,-0.4954848 -5.16058,-0.5343882 -6.97759,-0.082942 -1.563823,0.3885458 -3.722268,1.3640928 -5.123544,2.3156812 -2.232913,1.5163435 -4.665801,4.8151308 -5.590949,7.5808528 -0.538764,1.610628 -0.55763,1.763203 -0.55763,4.509747 0,2.739209 0.01999,2.902311 0.549543,4.479433 1.839344,5.478158 6.501382,9.371264 12.175,10.166924 1.32271,0.185494 3.62548,0.05633 5.15935,-0.289417 z"
       id="path5033"
       inkscape:connector-curvature="0" /><path
       style="opacity:1;fill:#ffcc00;fill-opacity:1;stroke:#692019;stroke-width:0.3045615;stroke-miterlimit:4;stroke-dasharray:none;stroke-opacity:1"
       d="m 102.58185,33.758865 c -1.94496,-0.171397 -4.19589,-0.91111 -5.929858,-1.948708 -2.003533,-1.198905 -3.741496,-2.899489 -4.934897,-4.828764 -0.902333,-1.458732 -1.739751,-3.538013 -1.928894,-4.789387 -0.09984,-0.660523 -0.100093,-4.758265 -3.24e-4,-5.421194 0.117415,-0.780301 0.624725,-2.23407 1.137153,-3.258691 1.029032,-2.0576 2.817689,-4.3215315 4.289311,-5.4290533 C 96.419,7.1764568 98.218679,6.2725424 99.901718,5.728769 101.20366,5.30812 101.60902,5.259382 103.8001,5.260062 c 1.71091,5.31e-4 1.99936,0.015144 2.66309,0.1349096 5.24069,0.9456314 9.6589,5.0050134 11.19527,10.2860394 0.64578,2.219707 0.63095,5.853739 -0.0319,7.832386 -0.40115,1.197327 -1.25408,2.966095 -1.93295,4.008435 -1.22211,1.876415 -3.2803,3.61192 -5.71087,4.815451 -1.95785,0.969476 -3.60997,1.356169 -6.06076,1.418588 -0.58628,0.01494 -1.1893,0.01628 -1.34007,0.003 z m 2.98231,-0.848631 c 2.9355,-0.409431 5.76641,-1.879736 7.84209,-4.072964 1.93611,-2.04577 3.15127,-4.554211 3.58903,-7.408839 0.14665,-0.956254 0.14665,-2.815963 0,-3.772219 -0.45652,-2.976966 -1.69963,-5.443231 -3.81121,-7.561313 -2.47883,-2.4864603 -5.54611,-3.82044 -9.05003,-3.9359275 -3.90875,-0.1288295 -7.437045,1.3030249 -10.162665,4.1242125 -2.438783,2.524294 -3.752047,5.78005 -3.754225,9.307222 -0.0028,4.5145 2.230882,8.681321 5.999363,11.191569 1.558271,1.037992 3.138212,1.681248 5.005507,2.037936 1.35116,0.258098 2.90719,0.290466 4.34214,0.09033 z"
       id="path5039"
       inkscape:connector-curvature="0" /><path
       style="opacity:1;fill:#992f24;fill-opacity:1;stroke:#692019;stroke-width:0.3045615;stroke-miterlimit:4;stroke-dasharray:none;stroke-opacity:1"
       d="M 101.82297,31.868874 C 96.27483,31.018505 91.979623,26.59711 91.288255,21.024679 c -0.09438,-0.760668 -0.07866,-2.390007 0.03062,-3.173453 0.663964,-4.760416 4.022054,-8.740388 8.595022,-10.1867192 3.069843,-0.9709284 6.304823,-0.7310201 9.194803,0.6818915 3.83313,1.8740317 6.44339,5.5465027 6.93299,9.7542537 0.7834,6.73304 -4.02444,12.916775 -10.72576,13.795245 -0.94404,0.123745 -2.59249,0.110993 -3.49296,-0.02701 z"
       id="path5041"
       inkscape:connector-curvature="0" /></g><g
     inkscape:groupmode="layer"
     id="layer4"
     inkscape:label="numéro"
     style="display:inline"
     transform="translate(-0.24749358,-0.13933925)"><text
       xml:space="preserve"
       style="font-style:normal;font-weight:normal;font-size:25.28574944px;line-height:39.50898361px;font-family:sans-serif;letter-spacing:0px;word-spacing:0px;fill:#ffcc00;fill-opacity:1;stroke:none;stroke-width:1.58035934px;stroke-linecap:butt;stroke-linejoin:miter;stroke-opacity:1"
       x="95.822731"
       y="28.321953"
       id="text5046"><tspan
         sodipodi:role="line"
         id="tspan5044"
         x="95.822731"
         y="28.321953"
         style="stroke-width:1.58035934px">1</tspan></text>
</g><g
     inkscape:groupmode="layer"
     id="layer2"
     inkscape:label="badge"
     transform="translate(33.528503,17.696831)"
     style="display:inline"><path
       inkscape:connector-curvature="0"
       d="m 6.0823553,45.10589 c -0.5288223,0 -0.9576955,-0.428873 -0.9576955,-0.957695 0,-0.528823 0.4288732,-0.957696 0.9576955,-0.957696 0.5288224,0 0.9576956,0.428873 0.9576956,0.957696 0,0.528822 -0.4288732,0.957695 -0.9576956,0.957695 z M 42.461154,37.573352 c 0,-0.528823 -0.428873,-0.957696 -0.957695,-0.957696 -0.528823,0 -0.957696,0.428873 -0.957696,0.957696 0,0.528822 0.428873,0.957695 0.957696,0.957695 0.528822,0 0.957695,-0.428873 0.957695,-0.957695 z M 62.039395,21.592375 v 39.677126 c 0,1.00222 -0.815041,1.81726 -1.817259,1.81726 h -1.513777 c -1.002218,0 -1.817259,-0.81504 -1.817259,-1.81726 V 61.134115 C 50.266282,50.587652 31.487635,51.437221 28.490975,51.646206 c -0.415243,0.524279 -0.896817,1.000401 -1.321147,1.373848 l 2.01534,1.958096 c 0.211711,0.206259 0.310751,0.502472 0.263503,0.795051 -0.04725,0.29167 -0.232609,0.543361 -0.498838,0.672386 l -0.652396,0.31802 0.320746,0.726904 c 0.199899,0.453406 0,0.983137 -0.449771,1.191213 l -0.653305,0.302574 4.863894,10.203911 c 3.934366,0.727812 3.819879,2.835832 3.79262,3.08298 -0.0055,0.04907 -0.01545,0.09722 -0.02817,0.144472 l -0.166279,0.592426 c -0.07178,0.256234 -0.25169,0.467944 -0.493386,0.579706 l -8.21492,3.802614 c -0.120847,0.05634 -0.25169,0.0845 -0.381624,0.0845 -0.157193,0 -0.313477,-0.04089 -0.454315,-0.121756 -0.254416,-0.14629 -0.422512,-0.407066 -0.45068,-0.700554 -0.0027,-0.02817 -0.317112,-2.853096 -3.140224,-6.702051 -2.519628,-3.439163 -4.206953,-8.265803 -4.788475,-10.086698 l -1.475615,0.141747 c -0.418878,0.03907 -0.806863,-0.208985 -0.944975,-0.604239 l -2.716802,-7.77696 H 3.5827135 c 0,0 0,0 -9.086e-4,0 -0.050883,0 -0.1008579,-0.0045 -0.1526498,-0.01363 L -1.8699704,50.70214 c -0.3870762,-0.06633 -0.6878325,-0.373447 -0.7450762,-0.76234 -0.047249,-0.318021 -0.082685,-0.622412 -0.1244822,-0.933163 l -3.9879752,-0.60969 c -0.394345,-0.05997 -0.703279,-0.370721 -0.761431,-0.765066 -0.06088,-0.409792 -0.11267,-0.810498 -0.159919,-1.203935 H -9.42159 c -0.501564,0 -0.90863,-0.407066 -0.90863,-0.908629 v -8.116788 c 0,-0.501563 0.407066,-0.908629 0.90863,-0.908629 h 1.732756 c 0.103584,-0.762341 0.19899,-1.208478 0.211711,-1.26663 0.08178,-0.365269 0.378898,-0.64331 0.74871,-0.699645 l 4.033407,-0.616959 c 0.048157,-0.261685 0.082685,-0.425239 0.090863,-0.461584 0.079959,-0.359817 0.3698122,-0.634223 0.733264,-0.696919 l 5.2991275,-0.908629 c 0.023624,-0.0036 0.045432,0.0045 0.069056,0.0018 0.029076,-0.0027 0.055426,-0.01545 0.084503,-0.01545 H 27.985777 c 0.01454,0 0.02726,0.0082 0.0418,0.0091 0.01635,9.08e-4 0.02998,-0.0064 0.04634,-0.0045 0.215345,0.01999 21.652642,1.947193 28.816277,-9.456107 v -0.786873 c 0,-1.002219 0.815041,-1.817259 1.817259,-1.817259 h 1.513777 c 1.002219,9.08e-4 1.818168,0.815949 1.818168,1.818167 z M 26.952665,33.648981 H 4.3550506 c -1.044924,6.826533 -0.2862183,13.874773 0.015447,16.158159 h 9.1916964 13.43136 c -0.140838,-0.990407 -0.33165,-2.624122 -0.440686,-4.750316 H 8.581087 c -0.501564,0 -0.90863,-0.407066 -0.90863,-0.908629 0,-0.501564 0.407066,-0.90863 0.90863,-0.90863 H 26.48563 c -0.04725,-2.025335 -0.0045,-4.37596 0.204441,-6.957376 H 6.0332894 c -0.5015636,0 -0.9086296,-0.407066 -0.9086296,-0.90863 0,-0.501563 0.407066,-0.908629 0.9086296,-0.908629 H 26.86362 c 0.02908,-0.27168 0.05543,-0.539726 0.08904,-0.815949 z M -7.831489,44.610687 c -0.208985,-2.574147 -0.162644,-4.71397 -0.04452,-6.299528 h -0.636949 v 6.299528 z m 4.8720718,2.525082 c -0.051792,-0.512467 -0.096315,-1.013122 -0.1335685,-1.501965 h -1.8408835 c -0.5015635,0 -0.9086295,-0.407066 -0.9086295,-0.908629 0,-0.501564 0.407066,-0.90863 0.9086295,-0.90863 h 1.729122 c -0.00454,-0.09086 -0.00999,-0.184452 -0.013629,-0.273497 h -1.7164012 c -0.5015635,0 -0.9086295,-0.407066 -0.9086295,-0.90863 0,-0.501563 0.407066,-0.908629 0.9086295,-0.908629 h 1.6691525 c -9.087e-4,-0.09359 9.086e-4,-0.179909 0,-0.272589 h -1.6691525 c -0.5015635,0 -0.9086295,-0.407066 -0.9086295,-0.90863 0,-0.501563 0.407066,-0.908629 0.9086295,-0.908629 h 1.6936855 c 0.048157,-1.555574 0.1571929,-2.847645 0.2734974,-3.843503 l -2.8431018,0.435233 C -6.03422,37.648768 -6.473996,41.48591 -5.7834373,46.70417 Z m 2.0489596,1.888132 3.4209902,0.586975 C 2.1743397,46.947682 1.5601061,40.430991 2.4941776,33.849788 l -3.433711,0.587883 c -0.2898528,1.730031 -0.9876803,7.137285 0.0290758,14.58623 z m 26.3893256,9.911331 c -0.104492,-0.21898 -0.116304,-0.471579 -0.03453,-0.700553 0.08269,-0.228066 0.252599,-0.414335 0.473396,-0.515193 l 0.677838,-0.313478 -1.751838,-3.976162 c -0.172639,-0.393437 -0.04725,-0.853204 0.301665,-1.104894 0.0073,-0.0055 0.393437,-0.287127 0.860472,-0.700553 H 18.35158 l 1.363853,3.810792 c 0.169005,0.472487 -0.07633,0.993132 -0.548812,1.161229 -0.100858,0.03634 -0.204442,0.05361 -0.306208,0.05361 -0.373447,0 -0.722361,-0.231701 -0.855021,-0.602422 L 16.422559,51.6244 h -1.579198 l 2.271574,6.50397 1.503782,-0.144472 c 0.02908,-0.0027 0.05815,-0.0045 0.08723,-0.0045 0.400705,0 0.759614,0.26532 0.872284,0.657848 0.01817,0.06179 1.828161,6.277722 4.730323,10.238438 2.023518,2.758599 2.879447,5.057432 3.236539,6.384031 l 6.794732,-3.145675 0.01908,-0.06724 c -0.06815,-0.194447 -0.648762,-0.841391 -2.72498,-1.139421 -0.300757,-0.04362 -0.559716,-0.234427 -0.690559,-0.508833 z M 56.8911,58.095658 V 33.767102 c -2.322457,1.688234 -7.078224,4.544057 -12.721722,4.544057 -0.502472,0 -0.90863,-0.407066 -0.90863,-0.90863 0,-0.501563 0.406158,-0.908629 0.90863,-0.908629 6.208666,0 11.447823,-3.975255 12.721722,-5.02563 v -6.051473 c -3.498224,3.97798 -9.184427,6.646625 -16.644276,7.77696 -5.126488,0.77597 -9.625113,0.627863 -11.46327,0.515193 -0.628772,5.081965 -0.547904,9.503356 -0.327107,12.539088 3.098427,-0.04361 14.557154,-0.05088 19.844469,2.118015 0.46431,0.189904 0.686016,0.720543 0.495203,1.185762 -0.143563,0.351639 -0.482482,0.56335 -0.840482,0.56335 -0.115396,0 -0.2317,-0.0209 -0.345279,-0.06815 -4.838452,-1.985356 -15.815606,-2.016249 -18.992175,-1.981721 0.07723,0.729629 0.154467,1.31933 0.214437,1.734574 1.869959,-0.11267 6.334965,-0.250782 11.414204,0.517918 7.45894,1.131244 13.146052,3.798981 16.644276,7.777869 z m 3.332853,3.173843 -0.0018,-39.677126 h -1.513777 v 1.060371 38.207872 0.408883 z M 51.139475,50.172409 c 0,-0.528823 -0.428873,-0.957696 -0.957695,-0.957696 -0.528823,0 -0.957696,0.428873 -0.957696,0.957696 0,0.528822 0.428873,0.957695 0.957696,0.957695 0.528822,0 0.957695,-0.428873 0.957695,-0.957695 z"
       id="path2-5"
       style="stroke-width:0.90862954" /><path
       style="opacity:1;fill:#cc0000;fill-opacity:1;stroke:none;stroke-width:0.68380743;stroke-miterlimit:4;stroke-dasharray:none;stroke-opacity:1"
       d="m 89.732233,75.068643 c -3.528669,-3.593241 -9.492994,-6.065506 -16.953919,-7.027548 -2.460527,-0.31727 -6.624197,-0.522202 -8.505549,-0.418636 l -1.667249,0.09178 -0.08219,-0.522885 c -0.0452,-0.287588 -0.108364,-0.689742 -0.140361,-0.893678 -0.032,-0.203935 -0.0013,-0.405923 0.06815,-0.448863 0.207907,-0.128493 8.516342,0.185642 10.874017,0.411139 2.754479,0.263448 5.0382,0.650219 6.588738,1.11587 2.085957,0.626445 2.642663,0.551866 2.642663,-0.354023 0,-0.528261 -0.307319,-0.750047 -1.601637,-1.155882 C 77.724213,64.85294 73.074555,64.321583 66.197194,64.179429 L 62.21477,64.097109 62.12951,63.194603 C 61.927341,61.054525 62.05252,56.078139 62.399043,52.47946 l 0.08889,-0.92314 h 2.902841 c 10.917492,0 19.033294,-2.437095 24.193567,-7.265089 l 1.177878,-1.102032 v 3.067486 3.067486 l -1.059902,0.761812 c -3.595615,2.584378 -7.135659,3.955761 -11.04349,4.278153 -1.500476,0.123788 -1.934063,0.581569 -1.346017,1.421123 0.222215,0.317256 0.257017,0.321968 1.743709,0.236107 3.371235,-0.194699 7.238014,-1.562164 10.465264,-3.700983 0.634089,-0.420235 1.172587,-0.764063 1.196663,-0.764063 0.02407,0 0.04377,5.477297 0.04377,12.171772 0,6.694475 -0.04808,12.171772 -0.106852,12.171772 -0.05877,0 -0.474182,-0.374051 -0.92314,-0.831225 z m -5.134201,-6.503958 c 0.356421,-0.453115 0.359383,-0.794572 0.0099,-1.144029 -0.581058,-0.581057 -1.504377,-0.195086 -1.504377,0.628868 0,0.835199 0.977623,1.172202 1.49445,0.515161 z m -8.77324,-12.434607 c 0.36531,-0.255873 0.415919,-1.023215 0.08904,-1.350091 -0.326877,-0.326876 -1.094218,-0.276268 -1.350092,0.08904 -0.300027,0.42835 -0.265312,0.750157 0.122791,1.138259 0.388102,0.388103 0.709909,0.422818 1.138258,0.12279 z"
       id="path5405"
       inkscape:connector-curvature="0"
       transform="translate(-33.775997,-17.83617)" /><path
       style="opacity:1;fill:#cc0000;fill-opacity:1;stroke:none;stroke-width:0.68380743;stroke-miterlimit:4;stroke-dasharray:none;stroke-opacity:1"
       d="m 34.173799,67.14931 c -0.697622,-0.130258 -1.29168,-0.260964 -1.32013,-0.290456 -0.108244,-0.112216 -0.352111,-2.612251 -0.486544,-4.98787 -0.09264,-1.637114 -0.09528,-3.323748 -0.0078,-4.991794 0.119037,-2.270043 0.344439,-4.476281 0.470169,-4.602011 0.08463,-0.08463 3.359442,-0.635284 3.416356,-0.574457 0.03023,0.03231 -0.03571,0.858798 -0.146545,1.836643 -0.359241,3.16956 -0.256417,10.535669 0.186612,13.368436 0.0797,0.50963 0.0773,0.512747 -0.381746,0.495599 -0.254075,-0.0095 -1.032736,-0.123833 -1.730358,-0.25409 z"
       id="path5407"
       inkscape:connector-curvature="0"
       transform="translate(-33.775997,-17.83617)" /><path
       style="opacity:1;fill:#ffffff;fill-opacity:1;stroke:none;stroke-width:0.68380743;stroke-miterlimit:4;stroke-dasharray:none;stroke-opacity:1"
       d="m 38.061711,67.249704 c -0.586628,-3.352221 -0.584916,-13.08751 0.0027,-15.522429 l 0.07426,-0.307713 H 49.491032 60.84336 l -0.08246,0.307713 c -0.04536,0.169243 -0.08331,0.384642 -0.08433,0.478666 -0.0015,0.135274 -2.21384,0.170951 -10.600882,0.170951 -10.416667,0 -10.603721,0.0047 -10.872538,0.273523 -0.336956,0.336956 -0.34843,0.699498 -0.03419,1.080281 l 0.239332,0.290015 10.530635,0.03285 10.530634,0.03285 -0.01568,0.478665 c -0.0086,0.263266 -0.06414,1.84799 -0.123366,3.521609 l -0.10768,3.042943 H 51.17942 c -9.922022,0 -9.653866,-0.02207 -9.649226,0.794133 0.0047,0.824521 -0.581815,0.772404 9.531994,0.847005 l 9.270617,0.06838 0.155898,1.72757 c 0.08574,0.950163 0.199219,2.042545 0.252167,2.427516 l 0.09627,0.699947 H 49.488309 38.139493 Z m 2.341856,-4.555074 c 0.368796,-0.258315 0.409515,-0.948155 0.07761,-1.314901 -0.325171,-0.359309 -1.070269,-0.329336 -1.338664,0.05385 -0.300028,0.428349 -0.265313,0.750156 0.12279,1.138259 0.388103,0.388102 0.709909,0.422817 1.138259,0.12279 z"
       id="path5409"
       inkscape:connector-curvature="0"
       transform="translate(-33.775997,-17.83617)" /><path
       style="opacity:1;fill:#ffffff;fill-opacity:1;stroke:none;stroke-width:0.68380743;stroke-miterlimit:4;stroke-dasharray:none;stroke-opacity:1"
       d="M 92.403363,59.283348 V 39.384551 h 0.820569 0.820569 v 19.898797 19.898796 h -0.820569 -0.820569 z"
       id="path5411"
       inkscape:connector-curvature="0"
       transform="translate(-33.775997,-17.83617)" /><path
       style="opacity:1;fill:#ffffff;fill-opacity:1;stroke:none;stroke-width:0.68380743;stroke-miterlimit:4;stroke-dasharray:none;stroke-opacity:1"
       d="m 29.054287,64.769517 c -0.504602,-0.08386 -0.975572,-0.214014 -1.046601,-0.289233 -0.180188,-0.190816 -0.429269,-3.441957 -0.429269,-5.603051 0,-1.488325 0.219428,-4.707059 0.328709,-4.821754 0.06617,-0.06945 2.839189,-0.470937 2.891489,-0.418637 0.03114,0.03114 -0.01441,0.929707 -0.101231,1.996806 l -0.157855,1.940181 h -1.049075 c -0.842641,0 -1.093613,0.04921 -1.275414,0.250101 -0.283681,0.313465 -0.288393,0.694534 -0.01344,1.087084 0.189619,0.270718 0.33168,0.303953 1.299234,0.303953 0.874459,0 1.086337,0.04001 1.086337,0.205142 0,0.164114 -0.205142,0.205142 -1.025711,0.205142 -1.13264,0 -1.572757,0.242831 -1.572757,0.867754 0,0.577284 0.392851,0.773384 1.549335,0.773384 0.841388,0 1.049133,0.04062 1.049133,0.205142 0,0.164114 -0.205142,0.205143 -1.025711,0.205143 -1.126534,0 -1.57482,0.243958 -1.570663,0.854759 0.0046,0.669771 0.484575,0.92314 1.74892,0.92314 h 0.948427 l 0.08477,0.512856 c 0.153566,0.929072 0.13003,0.993277 -0.356695,0.97304 -0.244461,-0.01016 -0.85733,-0.08709 -1.361931,-0.170952 z"
       id="path5413"
       inkscape:connector-curvature="0"
       transform="translate(-33.775997,-17.83617)" /><path
       style="opacity:1;fill:#003399;fill-opacity:1;stroke:none;stroke-width:0.34190372;stroke-miterlimit:4;stroke-dasharray:none;stroke-opacity:1"
       d="m 25.231876,59.285186 0.01778,-3.16261 0.311105,-0.02028 0.311105,-0.02028 -0.0034,2.481989 c -0.0019,1.365094 0.0211,2.797395 0.05102,3.182891 l 0.05442,0.700903 H 25.593998 25.21409 Z"
       id="path5415"
       inkscape:connector-curvature="0"
       transform="translate(-33.775997,-17.83617)" /><path
       style="opacity:1;fill:#ffffff;fill-opacity:1;stroke:none;stroke-width:0.68380743;stroke-miterlimit:4;stroke-dasharray:none;stroke-opacity:1"
       d="M 60.913244,92.047597 C 60.347372,90.451676 59.640783,89.133867 58.179117,86.948371 57.451459,85.860372 56.40386,84.04705 55.851118,82.918768 54.902241,80.981875 53.605376,77.71338 53.39384,76.725677 53.251023,76.05884 52.829921,75.848784 51.739494,75.900448 l -0.917765,0.04348 -0.376317,-1.094092 c -0.206975,-0.60175 -0.715434,-2.063389 -1.12991,-3.248085 L 48.56191,69.447762 h 0.843277 0.843276 l 0.806343,2.268847 c 0.443488,1.247865 0.893129,2.355633 0.999202,2.461706 0.257432,0.257432 0.922107,0.245108 1.189265,-0.02205 0.331534,-0.331534 0.268064,-0.702286 -0.468896,-2.739006 -0.376094,-1.039403 -0.683808,-1.90775 -0.683808,-1.92966 0,-0.02191 1.738581,-0.038 3.863512,-0.03576 l 3.863512,0.0041 -0.583353,0.508774 c -0.421279,0.36742 -0.582766,0.612141 -0.581237,0.880819 0.0012,0.204624 0.402862,1.281382 0.892661,2.392795 0.489798,1.111413 0.843669,2.036619 0.786378,2.056015 -0.419588,0.142048 -0.999441,0.627195 -1.065843,0.891762 -0.05898,0.234983 0.646673,1.848318 2.678688,6.124319 1.517317,3.192913 2.864145,5.915954 2.992953,6.051202 0.128807,0.135248 0.616106,0.334999 1.082888,0.443891 0.927195,0.2163 1.784865,0.606648 2.05919,0.937189 0.150889,0.181811 0.07398,0.256286 -0.556194,0.538629 -0.402212,0.180205 -1.941717,0.889816 -3.421124,1.576913 -1.479405,0.687097 -2.717664,1.249267 -2.751686,1.249267 -0.03402,0 -0.230973,-0.476956 -0.43767,-1.059902 z"
       id="path5419"
       inkscape:connector-curvature="0"
       transform="translate(-33.775997,-17.83617)" /><path
       style="opacity:1;fill:#cc0000;fill-opacity:1;stroke:none;stroke-width:0.34190372;stroke-miterlimit:4;stroke-dasharray:none;stroke-opacity:1"
       d="M 25.254144,59.273334 V 56.12782 h 0.307713 0.307713 v 2.519582 c 0,1.385771 0.01999,2.801252 0.04443,3.145515 l 0.04443,0.625931 h -0.352143 -0.352143 z"
       id="path5429"
       inkscape:connector-curvature="0"
       transform="translate(-33.775997,-17.83617)" /><path
       style="opacity:1;fill:#003399;fill-opacity:1;stroke:#003399;stroke-width:0.30000001;stroke-miterlimit:4;stroke-dasharray:none;stroke-opacity:1"
       d="m 30.280128,64.896761 c -0.507531,-0.03337 -1.638873,-0.223144 -1.960383,-0.328837 l -0.319246,-0.104949 -0.07412,-0.457922 c -0.333872,-2.062779 -0.392836,-5.784546 -0.138883,-8.766183 0.08757,-1.028101 0.113629,-1.146952 0.261828,-1.193988 0.153474,-0.04871 2.431725,-0.378769 2.61448,-0.378769 0.162297,0 0.161437,0.04736 -0.04655,2.564278 -0.05283,0.63936 -0.09645,1.200937 -0.09693,1.247949 -6.49e-4,0.06413 -0.231985,0.08547 -0.926204,0.08547 -1.01769,0 -1.293752,0.06759 -1.488203,0.364359 -0.22834,0.348491 -0.07431,1.011428 0.278928,1.200474 0.0711,0.03805 0.565125,0.09076 1.097835,0.117125 0.64442,0.0319 0.992531,0.07682 1.04018,0.134234 0.120263,0.144907 -0.03797,0.182739 -0.986469,0.235851 -0.994249,0.05567 -1.187712,0.108079 -1.401281,0.379589 -0.209711,0.266605 -0.202311,0.77366 0.01426,0.977119 0.226635,0.212913 0.488191,0.271414 1.453195,0.325031 0.548898,0.0305 0.87368,0.07766 0.920126,0.13363 0.120456,0.14514 -0.03739,0.182919 -0.986301,0.236053 -0.493573,0.02764 -0.977986,0.08266 -1.076473,0.122279 -0.302287,0.121595 -0.47055,0.400703 -0.47055,0.780532 0,0.280142 0.03324,0.371181 0.194337,0.53228 0.255281,0.25528 0.55118,0.326243 1.5971,0.383022 0.70536,0.03829 0.876221,0.06775 0.910524,0.157008 0.02322,0.06043 0.05984,0.359038 0.08136,0.663574 0.04402,0.622869 0.04149,0.625901 -0.492564,0.590786 z"
       id="path5431"
       inkscape:connector-curvature="0"
       transform="translate(-33.775997,-17.83617)" /></g><g
     inkscape:groupmode="layer"
     id="layer5"
     inkscape:label="gris"
     style="display:inline" /></svg>