<?xml version="1.0" encoding="UTF-8" standalone="no"?>
<svg
   xmlns:dc="http://purl.org/dc/elements/1.1/"
   xmlns:cc="http://creativecommons.org/ns#"
   xmlns:rdf="http://www.w3.org/1999/02/22-rdf-syntax-ns#"
   xmlns:svg="http://www.w3.org/2000/svg"
   xmlns="http://www.w3.org/2000/svg"
   xmlns:sodipodi="http://sodipodi.sourceforge.net/DTD/sodipodi-0.dtd"
   xmlns:inkscape="http://www.inkscape.org/namespaces/inkscape"
   version="1.1"
   x="0px"
   y="0px"
   viewBox="0 0 36.765999 75.313004"
   enable-background="new 0 0 100 100"
   xml:space="preserve"
   id="svg10"
   sodipodi:docname="repair.svg"
   width="36.765999"
   height="75.313004"
   inkscape:version="0.92.0 unknown"><metadata
     id="metadata16"><rdf:RDF><cc:Work
         rdf:about=""><dc:format>image/svg+xml</dc:format><dc:type
           rdf:resource="http://purl.org/dc/dcmitype/StillImage" /></cc:Work></rdf:RDF></metadata><defs
     id="defs14" /><sodipodi:namedview
     pagecolor="#ffffff"
     bordercolor="#666666"
     borderopacity="1"
     objecttolerance="10"
     gridtolerance="10"
     guidetolerance="10"
     inkscape:pageopacity="0"
     inkscape:pageshadow="2"
     inkscape:window-width="1875"
     inkscape:window-height="1056"
     id="namedview12"
     showgrid="false"
     inkscape:zoom="3.776"
     inkscape:cx="87.705062"
     inkscape:cy="7.0632448"
     inkscape:window-x="1411"
     inkscape:window-y="24"
     inkscape:window-maximized="1"
     inkscape:current-layer="svg10" /><path
     d="M 26.183,1.734 C 24.489,1.068 22.687,0.586 20.807,0.297 19.514,0.1 18.196,0 16.891,0 H 12.304 C 12.182,0 12.064,0.044 11.972,0.125 11.743,0.328 11.496,0.578 11.237,0.842 10.505,1.586 9.594,2.512 8.79,2.512 7.761,2.512 6.774,2.147 5.915,1.477 5.883,0.658 5.212,0 4.385,0 H 1.536 C 0.689,0 0,0.689 0,1.536 v 7.337 c 0,0.847 0.689,1.535 1.536,1.535 h 2.849 c 0.831,0 1.506,-0.664 1.531,-1.489 1.813,-1.392 4.356,-1.299 6.051,0.214 0.004,0.003 0.008,0.007 0.013,0.011 1.154,1.04 1.815,2.568 1.816,4.195 v 24.458 h -0.805 c -0.208,0 -0.396,0.129 -0.468,0.325 -0.747,2 -1.141,4.383 -1.141,6.891 v 0.54 c 0,0.004 -0.002,0.008 -0.002,0.012 0,0.004 0.002,0.008 0.002,0.012 v 21.7 c 0,1.016 -0.526,1.721 -1.035,1.815 -0.236,0.044 -0.408,0.25 -0.408,0.491 v 4.061 c 0,0.936 0.584,1.669 1.33,1.669 h 11.752 c 0.746,0 1.33,-0.733 1.33,-1.669 v -4.061 c 0,-0.241 -0.172,-0.447 -0.408,-0.491 -0.508,-0.095 -1.033,-0.8 -1.033,-1.815 V 45.013 c 0,-2.507 -0.395,-4.89 -1.143,-6.891 -0.073,-0.196 -0.26,-0.325 -0.468,-0.325 H 20.495 V 13.339 c 0,-3.042 2.245,-5.516 5.005,-5.516 4.118,0 7.98,2.473 10.331,6.614 0.091,0.16 0.258,0.253 0.435,0.253 0.042,0 0.085,-0.005 0.127,-0.017 0.22,-0.058 0.373,-0.256 0.373,-0.483 C 36.765,9.15 32.612,4.261 26.183,1.734 Z M 4.921,8.873 c 0,0.295 -0.24,0.535 -0.536,0.535 H 1.536 C 1.241,9.408 1,9.168 1,8.873 V 1.536 C 1,1.241 1.24,1 1.536,1 H 4.385 C 4.68,1 4.921,1.24 4.921,1.536 v 0.201 6.92 z m 8.966,41.609 v 6.683 7.262 c 0,1.713 -0.687,3.199 -1.7,4.017 0.122,-0.356 0.194,-0.75 0.194,-1.167 v -21.16 c 0.854,0.163 1.506,0.721 1.506,1.368 z m 6.515,6.683 v -6.683 -2.997 c 0,-0.649 0.654,-1.209 1.507,-1.37 v 21.161 c 0,0.418 0.072,0.811 0.194,1.168 -1.013,-0.817 -1.701,-2.304 -1.701,-4.018 z m 1.507,-12.152 v 0.092 c -1.419,0.191 -2.507,1.182 -2.507,2.381 v 2.997 6.683 7.262 c 0,2.92 1.73,5.329 3.949,5.648 v 3.568 c 0,0.415 -0.213,0.669 -0.33,0.669 H 11.268 c -0.116,0 -0.33,-0.254 -0.33,-0.669 v -3.568 c 2.218,-0.319 3.949,-2.729 3.949,-5.648 v -7.262 -6.683 -2.997 c 0,-1.196 -1.087,-2.187 -2.506,-2.38 v -0.093 c 0,-2.254 0.332,-4.395 0.961,-6.216 h 0.953 5.699 0.953 c 0.63,1.822 0.962,3.963 0.962,6.216 z M 14.795,37.797 V 13.839 h 4.699 V 37.797 Z M 25.499,6.823 c -3.156,0 -5.751,2.656 -5.987,6.016 H 14.778 C 14.654,11.125 13.9,9.535 12.665,8.415 12.646,8.395 12.626,8.377 12.604,8.361 10.75,6.726 8.004,6.454 5.921,7.689 v -4.98 c 0.883,0.529 1.859,0.804 2.87,0.804 1.224,0 2.297,-1.091 3.16,-1.968 0.191,-0.194 0.374,-0.381 0.548,-0.544 h 4.393 c 1.254,0 2.521,0.096 3.786,0.289 1.785,0.274 3.515,0.736 5.143,1.376 5.141,2.021 8.734,5.598 9.691,9.471 C 32.96,8.775 29.338,6.823 25.499,6.823 Z"
     id="path2"
     inkscape:connector-curvature="0" /><path
     d="m 17.144,69.113 c -1.028,0 -1.864,0.837 -1.864,1.865 0,1.027 0.836,1.863 1.864,1.863 1.028,0 1.864,-0.836 1.864,-1.863 0,-1.028 -0.836,-1.865 -1.864,-1.865 z m 0,2.729 c -0.477,0 -0.864,-0.388 -0.864,-0.863 0,-0.478 0.388,-0.865 0.864,-0.865 0.476,0 0.864,0.388 0.864,0.865 0,0.475 -0.387,0.863 -0.864,0.863 z"
     id="path4"
     inkscape:connector-curvature="0" /><path
     style="fill:#008080;fill-opacity:1;stroke:#001000;stroke-width:0.00936317;stroke-miterlimit:4;stroke-dasharray:none;stroke-opacity:1"
     d="M 21.58785,67.886359 C 21.39463,67.672487 21.114079,67.235807 20.964405,66.91596 20.411437,65.734294 20.418192,65.867198 20.416416,56.135396 l -0.0016,-8.904574 0.21344,-0.316724 c 0.222295,-0.329864 0.838408,-0.736716 1.11967,-0.739378 0.153481,-0.0015 0.164107,0.624088 0.187264,11.023595 0.0135,6.063825 0.01992,11.036782 0.01427,11.051018 -0.0057,0.01424 -0.168366,-0.149104 -0.361586,-0.362974 z"
     id="path8"
     inkscape:connector-curvature="0" /><path
     style="fill:#008080;fill-opacity:1;stroke:#001000;stroke-width:0.00936317;stroke-miterlimit:4;stroke-dasharray:none;stroke-opacity:1"
     d="m 12.303447,68.059595 c 0.03105,-0.115869 0.05703,-5.087714 0.05774,-11.048543 0.0011,-9.695309 0.01648,-10.837873 0.145456,-10.837873 0.228543,0 0.817205,0.333007 1.073035,0.607018 l 0.234079,0.250714 0.02617,9.004531 c 0.02851,9.810974 0.0349,9.672784 -0.500511,10.826198 -0.25624,0.552008 -0.868686,1.408626 -1.007108,1.408626 -0.04692,0 -0.05991,-0.0948 -0.02885,-0.210671 z"
     id="path10"
     inkscape:connector-curvature="0" /><path
     style="fill:#008080;fill-opacity:1;stroke:#001000;stroke-width:0.00936317;stroke-miterlimit:4;stroke-dasharray:none;stroke-opacity:1"
     d="m 11.054912,74.081589 c -0.05772,-0.107845 -0.09693,-0.952902 -0.09693,-2.089013 v -1.907905 l 0.466287,-0.119506 c 0.943104,-0.24171 2.095289,-1.21626 2.655335,-2.245956 0.129253,-0.237642 0.35405,-0.76915 0.499549,-1.181129 l 0.264545,-0.749054 0.02644,-9.35603 0.02644,-9.356028 -0.247097,-0.505049 c -0.300243,-0.613674 -0.881792,-1.072891 -1.678413,-1.325348 l -0.561791,-0.178036 0.02613,-0.875562 c 0.04963,-1.663289 0.373077,-3.737067 0.760796,-4.877858 l 0.167225,-0.492026 3.755901,-0.02447 c 3.553669,-0.02315 3.760824,-0.01527 3.847328,0.146366 0.351653,0.657069 0.835301,3.48063 0.874779,5.106997 l 0.02465,1.015468 -0.528466,0.165136 c -0.916596,0.286419 -1.665772,0.971519 -1.862891,1.703561 -0.0635,0.235836 -0.08575,3.471241 -0.06572,9.557882 0.02814,8.54945 0.04226,9.241165 0.199343,9.763152 0.572921,1.903812 1.837588,3.347852 3.248734,3.709518 l 0.460291,0.117969 v 1.907905 c 0,1.136111 -0.03921,1.981168 -0.09692,2.089013 -0.09428,0.176157 -0.26057,0.181108 -6.082769,0.181108 -5.822198,0 -5.988491,-0.005 -6.082767,-0.181108 z m 7.147238,-1.569611 c 1.205425,-0.849145 1.014808,-2.689248 -0.337095,-3.254109 -1.088192,-0.454676 -2.418657,0.285431 -2.572298,1.43091 -0.11268,0.840091 0.420652,1.750799 1.197755,2.045265 0.498558,0.188918 1.270362,0.08879 1.711638,-0.222066 z"
     id="path12"
     inkscape:connector-curvature="0" /><path
     style="fill:#ff9955;fill-opacity:1;stroke:#001000;stroke-width:0.00936317;stroke-miterlimit:4;stroke-dasharray:none;stroke-opacity:1"
     d="m 12.212639,68.159413 c 0.02654,-0.170769 0.07767,-5.134864 0.11363,-11.031322 0.07628,-12.507873 0.05339,-11.049029 0.173296,-11.046487 0.228869,0.0049 0.86791,0.372134 1.126925,0.647687 l 0.280895,0.29883 0.01479,9.005926 c 0.0088,5.382784 -0.01887,8.911753 -0.06889,8.771846 -0.06247,-0.174748 -0.07359,-0.112178 -0.04387,0.246856 0.06631,0.801036 -0.307445,1.898571 -0.939975,2.76025 -0.185911,0.253261 -0.420601,0.50467 -0.521534,0.558688 -0.168479,0.09017 -0.179562,0.07278 -0.135268,-0.212274 z"
     id="path14"
     inkscape:connector-curvature="0" /><path
     style="fill:#ff9955;fill-opacity:1;stroke:#001000;stroke-width:0.00936317;stroke-miterlimit:4;stroke-dasharray:none;stroke-opacity:1"
     d="m 21.995441,68.402912 c -0.0061,-0.04721 -0.0051,-0.120562 0.0023,-0.163013 0.0074,-0.04245 -0.02518,-0.05333 -0.07235,-0.02418 -0.131513,0.08128 -0.703011,-0.602388 -0.978064,-1.170032 -0.357349,-0.73748 -0.52193,-1.475691 -0.481314,-2.158874 0.0259,-0.435608 0.01416,-0.520337 -0.04365,-0.314997 -0.04465,0.15861 -0.0839,-3.517511 -0.09015,-8.444167 -0.0076,-5.978681 0.02036,-8.808031 0.08879,-8.988646 0.142017,-0.374824 0.449972,-0.682507 0.883264,-0.882484 0.508748,-0.234803 0.559141,-0.223721 0.579034,0.127335 0.0288,0.508146 0.171752,22.023976 0.146612,22.065877 -0.01287,0.02146 -0.0284,3.74e-4 -0.0345,-0.04682 z"
     id="path16"
     inkscape:connector-curvature="0" /><path
     style="fill:#c8beb7;fill-opacity:1;stroke:#001000;stroke-width:0.00936317;stroke-miterlimit:4;stroke-dasharray:none;stroke-opacity:1"
     d="m 16.568687,71.554579 c -0.186795,-0.186795 -0.273693,-0.367451 -0.273693,-0.568993 0,-0.402795 0.43989,-0.842685 0.842685,-0.842685 0.402795,0 0.842686,0.43989 0.842686,0.842685 0,0.402795 -0.439891,0.842686 -0.842686,0.842686 -0.201542,0 -0.382197,-0.0869 -0.568992,-0.273693 z"
     id="path18"
     inkscape:connector-curvature="0" /><path
     style="fill:#c8beb7;fill-opacity:1;stroke:#001000;stroke-width:0.01324153;stroke-miterlimit:4;stroke-dasharray:none;stroke-opacity:1"
     d="M 14.682096,11.995037 C 14.242279,9.7594912 12.576455,7.8390967 10.520307,7.1972467 9.2140173,6.7894734 6.8651059,6.9584626 6.2683337,7.5031492 6.1991467,7.5662976 6.0948697,7.6179644 6.036607,7.6179644 c -0.058263,0 -0.1059322,-1.109653 -0.1059322,-2.4658958 0,-1.9572854 0.034139,-2.4377237 0.165519,-2.3293098 0.3400833,0.2806357 1.8366651,0.6902317 2.5117128,0.6874247 0.9870969,-0.0041 1.6440664,-0.3512248 2.8557984,-1.5089068 l 1.050953,-1.00407498 2.567384,1.1068e-4 c 1.41206,6.086e-5 3.222838,0.0619161 4.023951,0.1374561 7.278396,0.686308 13.469911,4.3517943 15.773869,9.3384085 0.24585,0.53211 0.446999,1.053916 0.446999,1.159568 0,0.105652 -0.461798,-0.284136 -1.026218,-0.866196 C 33.012637,9.4382877 31.984566,8.6983034 30.407836,7.9645855 28.528888,7.0902336 27.719474,6.9027638 25.792963,6.8957266 24.157376,6.889752 24.12601,6.8953426 23.144658,7.368252 22.097725,7.8727581 21.109433,8.7390688 20.521517,9.6676268 20.087198,10.353596 19.575823,11.799559 19.572239,12.35181 l -0.0028,0.430349 h -2.366247 -2.366246 z"
     id="path20"
     inkscape:connector-curvature="0" /><path
     style="fill:#ac9d93;fill-opacity:1;stroke:#001000;stroke-width:0.01324153;stroke-miterlimit:4;stroke-dasharray:none;stroke-opacity:1"
     d="M 14.802497,25.825062 V 13.841481 h 2.317267 2.317267 v 11.983581 11.98358 h -2.317267 -2.317267 z"
     id="path22"
     inkscape:connector-curvature="0" /><path
     style="fill:#ac9d93;fill-opacity:1;stroke:#001000;stroke-width:0.01324153;stroke-miterlimit:4;stroke-dasharray:none;stroke-opacity:1"
     d="M 1.11308,9.1335453 C 1.068107,9.0163469 1.03131,7.2092289 1.03131,5.1177278 c 0,-2.7811249 0.042688,-3.8454175 0.1588984,-3.9616278 0.2384104,-0.23841043 3.334322,-0.21861976 3.534512,0.022595 0.1069341,0.1288475 0.140444,1.32914 0.115525,4.1379766 l -0.035101,3.956484 -1.8051478,0.036739 C 1.4412661,9.3416186 1.1836866,9.3175446 1.11308,9.1335453 Z"
     id="path24"
     inkscape:connector-curvature="0" /><path
     style="fill:#ff9955;fill-opacity:1;stroke:#001000;stroke-width:0.01324153;stroke-miterlimit:4;stroke-dasharray:none;stroke-opacity:1"
     d="m 16.579966,71.611343 c -0.33086,-0.33086 -0.342175,-0.94828 -0.02268,-1.237422 0.355091,-0.321353 1.023008,-0.281928 1.273114,0.07515 0.290492,0.414737 0.256881,0.726316 -0.118888,1.102085 -0.394057,0.394057 -0.777296,0.414442 -1.131549,0.06019 z"
     id="path26"
     inkscape:connector-curvature="0" /></svg>