<?xml version="1.0" encoding="UTF-8" standalone="no"?>
<svg
   xmlns:dc="http://purl.org/dc/elements/1.1/"
   xmlns:cc="http://creativecommons.org/ns#"
   xmlns:rdf="http://www.w3.org/1999/02/22-rdf-syntax-ns#"
   xmlns:svg="http://www.w3.org/2000/svg"
   xmlns="http://www.w3.org/2000/svg"
   xmlns:xlink="http://www.w3.org/1999/xlink"
   xmlns:sodipodi="http://sodipodi.sourceforge.net/DTD/sodipodi-0.dtd"
   xmlns:inkscape="http://www.inkscape.org/namespaces/inkscape"
   version="1.1"
   x="0px"
   y="0px"
   viewBox="0 0 122.90057 122.90057"
   xml:space="preserve"
   id="svg151"
   sodipodi:docname="shoes_punch.svg"
   width="122.90057"
   height="122.90057"
   inkscape:version="0.92.1 unknown"><metadata
     id="metadata157"><rdf:RDF><cc:Work
         rdf:about=""><dc:format>image/svg+xml</dc:format><dc:type
           rdf:resource="http://purl.org/dc/dcmitype/StillImage" /><dc:title /></cc:Work></rdf:RDF></metadata><defs
     id="defs155"><linearGradient
       inkscape:collect="always"
       id="linearGradient4784"><stop
         style="stop-color:#35995f;stop-opacity:1;"
         offset="0"
         id="stop4780" /><stop
         style="stop-color:#356f5f;stop-opacity:0"
         offset="1"
         id="stop4782" /></linearGradient><radialGradient
       inkscape:collect="always"
       xlink:href="#linearGradient4784"
       id="radialGradient4786"
       cx="27.67429"
       cy="43.614117"
       fx="27.67429"
       fy="43.614117"
       r="60"
       gradientUnits="userSpaceOnUse"
       gradientTransform="matrix(2.9283353,-0.00541619,0.00489025,2.6439834,-53.578595,-71.550994)" /></defs><sodipodi:namedview
     pagecolor="#ffffff"
     bordercolor="#666666"
     borderopacity="1"
     objecttolerance="10"
     gridtolerance="10"
     guidetolerance="10"
     inkscape:pageopacity="0"
     inkscape:pageshadow="2"
     inkscape:window-width="1875"
     inkscape:window-height="1056"
     id="namedview153"
     showgrid="false"
     inkscape:zoom="1.828"
     inkscape:cx="121.07236"
     inkscape:cy="50.830012"
     inkscape:window-x="1411"
     inkscape:window-y="24"
     inkscape:window-maximized="1"
     inkscape:current-layer="layer1"
     showguides="false" /><g
     inkscape:groupmode="layer"
     id="layer1"
     inkscape:label="fond"
     style="display:inline"
     transform="translate(33.775997,17.83617)"><circle
       style="opacity:1;fill:#5bcf8f;fill-opacity:1;stroke:#4b6e5f;stroke-width:2;stroke-miterlimit:4;stroke-dasharray:none;stroke-opacity:1"
       id="path3963"
       cx="27.67429"
       cy="43.614117"
       r="59.950287" /></g><g
     inkscape:groupmode="layer"
     id="layer3"
     inkscape:label="cocarde"
     style="display:inline"
     sodipodi:insensitive="true"><path
       style="display:inline;stroke-width:0.46723962"
       d="m 120.53297,17.206845 1.54189,-1.915684 -2.24274,-1.027924 1.16809,-2.149304 -2.38292,-0.607413 0.79431,-2.3361961 -2.42965,-0.1868963 0.3738,-2.4296455 -2.42965,0.233619 -0.0935,-2.4763699 -2.3362,0.7008596 -0.51397,-2.3829226 -2.19602,1.0746518 -0.93448,-2.2894739 -1.9624,1.4484425 -1.355,-2.05585369 L 103.85248,2.6289682 102.17042,0.80673491 100.86216,2.8625886 98.899752,1.4141461 97.965274,3.70362 95.769245,2.6289682 95.208559,5.0118908 92.825636,4.3110312 l -0.09345,2.4763699 -2.429645,-0.233619 0.37379,2.4296455 -2.429645,0.1868963 0.794306,2.3361961 -2.38292,0.607413 1.1681,2.149304 -2.196028,1.027924 1.541891,1.915684 -2.00913,1.401718 1.868958,1.588614 -1.728788,1.775512 2.102579,1.214822 -1.354993,2.055856 2.289474,0.84103 -0.981204,2.242751 2.429647,0.420514 -0.560688,2.382922 2.476369,-0.04671 -0.140173,2.429644 2.429646,-0.467238 0.280346,2.429645 2.289473,-0.887754 0.747583,2.336195 2.10258,-1.261545 1.121366,2.196026 1.82224,-1.635337 1.49516,1.962405 1.49517,-1.915684 1.82224,1.63534 1.12139,-2.196025 2.10255,1.261545 0.7476,-2.336198 2.28947,0.887756 0.28035,-2.429646 2.42964,0.46724 -0.14018,-2.476369 2.47638,0.04671 -0.56069,-2.382922 2.42964,-0.420514 -0.9812,-2.242751 2.28949,-0.84103 -1.35501,-2.055856 2.10258,-1.214822 -1.72878,-1.775512 1.86894,-1.588614 z M 103.85251,34.26109 c -8.129957,0 -14.76476,-6.634803 -14.76476,-14.764771 0,-8.12997 6.634803,-14.7647716 14.76476,-14.7647716 8.12997,0 14.76478,6.6348016 14.76478,14.7647716 0,8.129968 -6.63481,14.764771 -14.76478,14.764771 z"
       id="path2"
       inkscape:connector-curvature="0" /><path
       style="display:inline;fill:#692019;fill-opacity:1;stroke-width:0.46723962"
       d="m 103.66561,6.1332656 c -7.429093,0 -13.456486,6.0273914 -13.456486,13.4565004 0,7.42911 6.027393,13.456501 13.456486,13.456501 7.42912,0 13.4565,-6.074116 13.4565,-13.503224 0,-7.42911 -6.02738,-13.4097774 -13.4565,-13.4097774 z m 0,25.8850744 c -6.868407,0 -12.475283,-5.606875 -12.475283,-12.475297 0,-6.868423 5.606876,-12.4752985 12.475283,-12.4752985 6.86843,0 12.47532,5.6068755 12.47532,12.4752985 0,6.868422 -5.60689,12.475297 -12.47532,12.475297 z"
       id="path4"
       inkscape:connector-curvature="0" /><path
       style="opacity:1;fill:#992f24;fill-opacity:1;stroke:#692019;stroke-width:0.86142999;stroke-miterlimit:4;stroke-dasharray:none;stroke-opacity:1"
       d="m 103.63505,37.964062 c -1.6e-4,-0.07107 -0.30076,-0.477451 -0.66777,-0.903069 l -0.66731,-0.773861 -0.79283,0.730787 c -0.43602,0.401931 -0.8555,0.730786 -0.93213,0.730786 -0.0766,0 -0.36911,-0.465057 -0.649922,-1.033462 l -0.510593,-1.033462 -0.999264,0.602747 c -0.549597,0.331511 -1.027832,0.602747 -1.062739,0.602747 -0.03491,0 -0.231168,-0.503935 -0.436133,-1.11986 -0.204967,-0.615922 -0.390409,-1.119857 -0.412094,-1.119857 -0.02169,0 -0.523338,0.189642 -1.114784,0.421428 -1.205622,0.472478 -1.147806,0.516204 -1.317634,-0.99645 -0.103358,-0.92057 -0.144533,-0.998212 -0.486276,-0.916864 -0.205349,0.04887 -0.749193,0.143138 -1.208543,0.209463 l -0.835184,0.120595 0.05991,-1.185015 0.05991,-1.185016 -1.18868,0.06009 -1.18868,0.06009 0.133124,-0.835371 c 0.276915,-1.737668 0.305722,-1.678454 -0.899984,-1.850059 -0.592234,-0.08429 -1.076787,-0.217755 -1.076787,-0.296587 0,-0.07884 0.193822,-0.581598 0.430714,-1.117255 0.236894,-0.535659 0.430717,-0.992653 0.430717,-1.015545 0,-0.0229 -0.484556,-0.216572 -1.076789,-0.430404 -0.592233,-0.213827 -1.1026,-0.411548 -1.13415,-0.439373 -0.03154,-0.02783 0.22042,-0.463076 0.55993,-0.96722 0.339511,-0.504144 0.617292,-0.975144 0.617292,-1.046667 0,-0.07152 -0.426408,-0.37069 -0.947573,-0.664818 -0.521165,-0.294127 -0.947573,-0.582859 -0.947573,-0.641628 0,-0.05877 0.368261,-0.482607 0.818359,-0.941866 0.715396,-0.72996 0.783885,-0.860763 0.54436,-1.039634 -0.568095,-0.42425 -1.568781,-1.347593 -1.510025,-1.393323 0.03364,-0.02618 0.425469,-0.293753 0.870731,-0.594605 0.445263,-0.300855 0.85134,-0.614597 0.902395,-0.697205 0.05106,-0.08262 -0.225739,-0.550301 -0.615098,-1.039313 -0.389359,-0.489014 -0.679145,-0.915034 -0.643966,-0.946708 0.03517,-0.03167 0.490367,-0.270064 1.011531,-0.529757 0.521166,-0.259693 0.966658,-0.488386 0.989986,-0.508209 0.02334,-0.01983 -0.200251,-0.484067 -0.496835,-1.03165 -0.61385,-1.133352 -0.607051,-1.145427 0.825524,-1.466023 0.773435,-0.173088 0.924993,-0.264058 0.829818,-0.498086 -0.06405,-0.157479 -0.256856,-0.686057 -0.428469,-1.174617 l -0.312032,-0.8882899 0.37279,-0.099999 c 0.205032,-0.055001 0.748533,-0.1010569 1.207781,-0.1023547 l 0.834992,-0.0024 -0.108107,-1.196425 -0.108109,-1.1964252 1.211337,0.1015549 1.211337,0.101555 v -1.230959 c 0,-0.6770444 0.01938,-1.2299896 0.04307,-1.2287673 0.0237,0.00122 0.534863,0.1563827 1.13594,0.3448002 0.601079,0.1884176 1.152705,0.3055986 1.225834,0.2604021 0.07313,-0.045196 0.22485,-0.5492356 0.337159,-1.1200869 0.112304,-0.5708516 0.280401,-1.0379118 0.373541,-1.0379118 0.09313,0 0.551831,0.1938217 1.019318,0.4307149 0.467485,0.2368932 0.911093,0.430715 0.985795,0.430715 0.0747,0 0.316186,-0.4651722 0.536646,-1.033716 0.220459,-0.5685437 0.460881,-1.0337158 0.534272,-1.0337158 0.07342,0 0.488829,0.2713504 0.923182,0.6030009 0.434348,0.3316505 0.855518,0.603001 0.935948,0.603001 0.0803,0 0.41002,-0.4353135 0.73249,-0.9673633 l 0.58629,-0.96736309 0.86408,0.90581359 0.8641,0.9058136 0.82007,-0.8918903 0.82011,-0.89189011 0.63305,0.95343981 c 0.34818,0.5243918 0.68596,0.9534398 0.75062,0.9534398 0.0646,0 0.49922,-0.2713505 0.9657,-0.603001 0.46648,-0.3316505 0.88848,-0.6030009 0.93781,-0.6030009 0.0492,0 0.27443,0.4651721 0.50026,1.0337158 0.22582,0.5685438 0.47903,1.033716 0.56268,1.033716 0.0837,0 0.53457,-0.1938218 1.00205,-0.430715 0.4675,-0.2368932 0.91587,-0.4307149 0.99639,-0.4307149 0.0804,0 0.24776,0.5099303 0.37165,1.1331785 0.25066,1.2610764 0.0992,1.2025427 1.77618,0.6859527 l 0.81837,-0.2520763 v 1.2209112 1.2209108 l 1.20601,-0.08629 c 1.36294,-0.097519 1.31774,-0.1595507 1.05311,1.4457494 -0.13029,0.7903787 -0.12445,0.804328 0.37638,0.9045024 0.27979,0.055959 0.80913,0.1017376 1.17632,0.1017376 0.36717,0 0.66762,0.065394 0.66762,0.1453155 0,0.079918 -0.15507,0.5959962 -0.34459,1.1468308 -0.1895,0.550833 -0.34457,1.019535 -0.34457,1.041556 0,0.02202 0.50394,0.176449 1.11987,0.343171 0.61591,0.166722 1.11845,0.349771 1.11673,0.406776 -10e-4,0.057 -0.2343,0.523055 -0.51685,1.03567 -0.28256,0.512615 -0.51375,0.954058 -0.51375,0.980984 0,0.02692 0.46518,0.257712 1.03372,0.512859 0.56855,0.255149 1.03371,0.520718 1.03371,0.590157 0,0.06944 -0.31244,0.518686 -0.69435,0.998327 l -0.69435,0.872073 0.81529,0.571791 c 0.44841,0.314486 0.89656,0.631513 0.99585,0.704507 0.11561,0.08502 0.0429,0.248439 -0.20265,0.454749 -0.21077,0.177119 -0.6295,0.529263 -0.9305,0.782543 l -0.54728,0.460507 0.80129,0.813521 c 0.4407,0.447435 0.80129,0.863315 0.80129,0.924173 0,0.06086 -0.4264,0.354617 -0.94759,0.652798 -0.52115,0.298182 -0.94756,0.573716 -0.94756,0.612301 0,0.03859 0.27784,0.504493 0.61744,1.035355 0.33957,0.53086 0.59154,0.984554 0.55992,1.008209 -0.0315,0.02367 -0.53763,0.218846 -1.12447,0.433759 l -1.06695,0.390752 0.42636,0.96404 c 0.23448,0.53022 0.39071,1.056863 0.34719,1.170311 -0.0437,0.113461 -0.54994,0.260913 -1.12532,0.327694 -0.61062,0.07088 -1.04363,0.20404 -1.04004,0.319863 0.003,0.109145 0.11263,0.644231 0.24288,1.189085 l 0.23676,0.990645 h -1.20929 -1.2093 l 0.0652,1.292145 c 0.0359,0.71068 0.0185,1.292146 -0.0385,1.292146 -0.0571,0 -0.55045,-0.08971 -1.09632,-0.199325 -1.15774,-0.232506 -1.29623,-0.129046 -1.30467,0.974611 -0.008,1.118211 -0.12911,1.178704 -1.37527,0.690332 -0.60302,-0.236323 -1.10773,-0.410797 -1.12157,-0.38772 -0.0138,0.02307 -0.16774,0.526514 -0.34202,1.118748 -0.17427,0.592233 -0.38095,1.076786 -0.45928,1.076786 -0.0784,0 -0.52042,-0.232586 -0.98242,-0.516856 -0.46201,-0.284274 -0.91407,-0.51686 -1.00462,-0.51686 -0.0906,0 -0.38486,0.460781 -0.65404,1.02396 l -0.4894,1.023957 -0.92786,-0.79269 c -0.51763,-0.442235 -0.98724,-0.723555 -1.06218,-0.636314 -0.0739,0.086 -0.38724,0.485871 -0.69633,0.888589 -0.5173,0.674001 -0.87694,0.920962 -0.87807,0.603002 z m 3.51109,-4.12073 c 3.12828,-0.705105 6.55727,-2.911584 8.49255,-5.464764 0.93104,-1.22829 2.15031,-3.710243 2.54865,-5.188028 0.47755,-1.771721 0.53053,-4.718968 0.12043,-6.694855 -1.12379,-5.413299 -5.41805,-9.921119 -10.79576,-11.332633 -1.88774,-0.4954848 -5.16058,-0.5343882 -6.97759,-0.082942 -1.563823,0.3885458 -3.722268,1.3640928 -5.123544,2.3156812 -2.232913,1.5163435 -4.665801,4.8151308 -5.590949,7.5808528 -0.538764,1.610628 -0.55763,1.763203 -0.55763,4.509747 0,2.739209 0.01999,2.902311 0.549543,4.479433 1.839344,5.478158 6.501382,9.371264 12.175,10.166924 1.32271,0.185494 3.62548,0.05633 5.15935,-0.289417 z"
       id="path5033"
       inkscape:connector-curvature="0" /><path
       style="opacity:1;fill:#ffcc00;fill-opacity:1;stroke:#692019;stroke-width:0.3045615;stroke-miterlimit:4;stroke-dasharray:none;stroke-opacity:1"
       d="m 102.58185,33.758865 c -1.94496,-0.171397 -4.19589,-0.91111 -5.929858,-1.948708 -2.003533,-1.198905 -3.741496,-2.899489 -4.934897,-4.828764 -0.902333,-1.458732 -1.739751,-3.538013 -1.928894,-4.789387 -0.09984,-0.660523 -0.100093,-4.758265 -3.24e-4,-5.421194 0.117415,-0.780301 0.624725,-2.23407 1.137153,-3.258691 1.029032,-2.0576 2.817689,-4.3215315 4.289311,-5.4290533 C 96.419,7.1764568 98.218679,6.2725424 99.901718,5.728769 101.20366,5.30812 101.60902,5.259382 103.8001,5.260062 c 1.71091,5.31e-4 1.99936,0.015144 2.66309,0.1349096 5.24069,0.9456314 9.6589,5.0050134 11.19527,10.2860394 0.64578,2.219707 0.63095,5.853739 -0.0319,7.832386 -0.40115,1.197327 -1.25408,2.966095 -1.93295,4.008435 -1.22211,1.876415 -3.2803,3.61192 -5.71087,4.815451 -1.95785,0.969476 -3.60997,1.356169 -6.06076,1.418588 -0.58628,0.01494 -1.1893,0.01628 -1.34007,0.003 z m 2.98231,-0.848631 c 2.9355,-0.409431 5.76641,-1.879736 7.84209,-4.072964 1.93611,-2.04577 3.15127,-4.554211 3.58903,-7.408839 0.14665,-0.956254 0.14665,-2.815963 0,-3.772219 -0.45652,-2.976966 -1.69963,-5.443231 -3.81121,-7.561313 -2.47883,-2.4864603 -5.54611,-3.82044 -9.05003,-3.9359275 -3.90875,-0.1288295 -7.437045,1.3030249 -10.162665,4.1242125 -2.438783,2.524294 -3.752047,5.78005 -3.754225,9.307222 -0.0028,4.5145 2.230882,8.681321 5.999363,11.191569 1.558271,1.037992 3.138212,1.681248 5.005507,2.037936 1.35116,0.258098 2.90719,0.290466 4.34214,0.09033 z"
       id="path5039"
       inkscape:connector-curvature="0" /><path
       style="opacity:1;fill:#992f24;fill-opacity:1;stroke:#692019;stroke-width:0.3045615;stroke-miterlimit:4;stroke-dasharray:none;stroke-opacity:1"
       d="M 101.82297,31.868874 C 96.27483,31.018505 91.979623,26.59711 91.288255,21.024679 c -0.09438,-0.760668 -0.07866,-2.390007 0.03062,-3.173453 0.663964,-4.760416 4.022054,-8.740388 8.595022,-10.1867192 3.069843,-0.9709284 6.304823,-0.7310201 9.194803,0.6818915 3.83313,1.8740317 6.44339,5.5465027 6.93299,9.7542537 0.7834,6.73304 -4.02444,12.916775 -10.72576,13.795245 -0.94404,0.123745 -2.59249,0.110993 -3.49296,-0.02701 z"
       id="path5041"
       inkscape:connector-curvature="0" /></g><g
     inkscape:groupmode="layer"
     id="layer4"
     inkscape:label="numéro"
     style="display:inline"><text
       xml:space="preserve"
       style="font-style:normal;font-weight:normal;font-size:25.28574944px;line-height:39.50898361px;font-family:sans-serif;letter-spacing:0px;word-spacing:0px;fill:#ffcc00;fill-opacity:1;stroke:none;stroke-width:1.58035934px;stroke-linecap:butt;stroke-linejoin:miter;stroke-opacity:1"
       x="95.822731"
       y="28.321953"
       id="text5046"><tspan
         sodipodi:role="line"
         id="tspan5044"
         x="95.822731"
         y="28.321953"
         style="stroke-width:1.58035934px">1</tspan></text>
</g><g
     inkscape:groupmode="layer"
     id="layer2"
     inkscape:label="badge"
     transform="translate(33.775997,17.83617)"
     style="display:inline"><g
       transform="translate(-25.66186,-0.517226)"
       id="g18"><path
         style="fill:#000000"
         inkscape:connector-curvature="0"
         d="m 67.16,22.683 c -0.284,-0.253 -0.694,-0.316 -1.04,-0.161 -0.349,0.156 -0.572,0.502 -0.572,0.884 v 7.06 c 0,0.535 0.434,0.968 0.969,0.968 l 6.321,-0.001 c 0.013,0.001 0.033,0.001 0.047,0.001 0.511,0 0.961,-0.292 1.147,-0.742 0.36,-0.872 -0.345,-1.83 -1.515,-3 -2.128,-2.129 -5.325,-4.98 -5.357,-5.009 z m 0.324,6.815 v -3.91 c 1.09,0.999 2.533,2.342 3.665,3.474 0.163,0.163 0.303,0.308 0.419,0.436 z"
         id="path2-5" /><path
         style="fill:#000000"
         inkscape:connector-curvature="0"
         d="m 84.134,62.473 c -0.293,0.113 -0.439,0.443 -0.326,0.737 2.201,5.695 -2.046,8.07 -2.229,8.17 -0.276,0.148 -0.38,0.493 -0.231,0.771 0.102,0.191 0.298,0.3 0.501,0.3 0.091,0 0.182,-0.021 0.267,-0.066 0.055,-0.029 5.326,-2.929 2.756,-9.586 -0.114,-0.293 -0.441,-0.436 -0.738,-0.326 z"
         id="path4-6" /><path
         style="fill:#000000"
         inkscape:connector-curvature="0"
         d="M 87.01,61.845 84.461,55.543 C 84.424,55.44 84.137,54.706 83.405,54.24 l -0.202,-2.716 c 0.65,-0.146 1.438,-0.473 1.885,-1.222 0.521,-0.869 0.41,-1.976 -0.327,-3.285 3,-4.669 1.387,-10.235 0.708,-12.08 0.676,-0.755 1.286,-1.722 0.899,-2.667 -0.055,-0.136 -0.148,-0.236 -0.234,-0.345 l 0.378,-4.284 c 0.038,-1.201 -0.281,-2.058 -0.911,-2.593 0.441,-1.475 0.713,-3.225 -0.328,-4.194 -1.061,-0.99 -2.627,-0.356 -2.803,-0.28 -0.065,0.028 -0.129,0.063 -0.186,0.105 -1.415,1.025 -3.08,0.282 -3.095,0.282 L 67.492,13.965 c -5.264,-2.969 -8.921,-3.7 -11.175,-2.238 -2.179,1.412 -1.942,4.252 -1.936,4.283 v 18.83 h -1.5 c -0.534,0 -0.968,0.434 -0.968,0.968 v 7.417 c 0,0.534 0.434,0.967 0.968,0.967 h 1.862 c -0.324,1.106 -0.872,1.867 -0.866,1.867 -4.727,5.087 -19.789,10.855 -19.853,10.884 -0.171,0.048 -1.69,0.496 -2.147,1.748 -0.103,0.281 -0.166,0.661 -0.084,1.111 -4.101,1.325 -7.827,2.274 -10.597,2.828 -6.565,1.312 -7.596,3.769 -7.733,4.776 -0.671,0.586 -1.898,2.129 -1.235,5.271 0.063,0.5 0.494,2.562 3.355,3.686 2.729,1.072 19.067,3.467 19.803,3.574 l 2.881,0.293 c -0.064,0.295 -0.038,0.699 0.232,1.071 0.462,0.642 1.412,0.939 2.988,0.939 h 35.87 c 0.009,0 0.018,0 0.027,0 0.619,-0.017 6.064,-0.263 6.064,-3.529 0,-0.016 -0.008,-0.028 -0.009,-0.042 0.391,-0.287 0.645,-0.621 0.791,-0.916 0.625,-1.258 0.153,-2.833 -0.147,-3.596 0.929,-0.566 2.146,-1.554 2.975,-3.208 1.218,-2.428 1.208,-5.476 -0.048,-9.104 z m -6.111,-15.153 2.14,1.171 c 0.014,0.031 0.014,0.063 0.03,0.093 0.416,0.739 0.458,1.183 0.359,1.353 -0.133,0.224 -0.653,0.352 -1.038,0.385 -3.134,-1.622 -6.281,-4.487 -7.227,-5.385 v -0.115 h 1.773 1.756 c 0.534,0 0.967,-0.433 0.967,-0.967 0,-0.535 -0.433,-0.968 -0.967,-0.968 h -0.788 v -5.481 h 0.788 c 0.534,0 0.967,-0.433 0.967,-0.968 0,-0.534 -0.433,-0.968 -0.967,-0.968 H 76.936 75.2 v -0.657 c 1.752,-0.335 6.118,-1.108 9.139,-1.108 0.025,0 0.066,0.003 0.112,0.01 -0.085,0.144 -0.242,0.363 -0.521,0.664 h -2.564 c -0.534,0 -0.968,0.434 -0.968,0.968 0,0.534 0.434,0.968 0.968,0.968 h 2.312 c 0.571,1.599 1.896,6.267 -0.412,10.095 l -1.435,-0.785 c -0.471,-0.258 -1.058,-0.086 -1.313,0.383 -0.258,0.467 -0.086,1.055 0.381,1.312 z m 3.681,-19.166 -0.32,3.615 c -4.038,0.016 -9.973,1.248 -10.226,1.3 -0.449,0.094 -0.769,0.489 -0.769,0.947 v 1.452 h -14.67 v -3.62 c 0.055,-0.282 0.248,-0.818 0.939,-0.818 h 1.517 c 0.003,0 0.006,0 0.011,0 1.15,-0.008 2.847,-0.775 2.847,-2.866 v -5.313 c 0,-0.05 -0.003,-0.101 -0.011,-0.15 -0.034,-0.222 -0.078,-1.191 0.376,-1.524 0.186,-0.137 0.968,-0.493 3.275,0.645 5.704,2.808 11.828,6.029 11.89,6.061 0.061,0.033 0.126,0.06 0.194,0.078 0.188,0.051 1.847,0.465 3.082,-0.51 0.555,-0.301 1.341,-0.509 1.613,-0.348 0.128,0.076 0.271,0.412 0.252,1.051 z M 57.37,13.352 c 0.887,-0.574 3.259,-1.034 9.149,2.288 l 11.755,7.025 c 0.111,0.053 2.696,1.263 5.038,-0.342 0.241,-0.082 0.575,-0.113 0.641,-0.052 0.004,0.003 0.321,0.432 -0.214,2.239 -1.011,0.094 -1.915,0.588 -2.058,0.673 -0.051,0.028 -0.098,0.062 -0.142,0.099 -0.359,0.308 -1.016,0.258 -1.312,0.201 -0.859,-0.452 -6.521,-3.415 -11.822,-6.026 -2.384,-1.174 -4.111,-1.327 -5.28,-0.467 -1.345,0.99 -1.21,2.84 -1.151,3.3 v 5.247 c 0,0.749 -0.513,0.919 -0.931,0.93 h -1.509 c -2.02,0 -2.76,1.673 -2.867,2.559 -0.005,0.039 -0.007,0.078 -0.007,0.117 v 3.698 H 56.317 L 56.313,15.922 c -0.001,-0.019 -0.131,-1.8 1.057,-2.57 z m -3.52,28.906 v -5.481 h 22.119 v 5.481 H 74.197 59.534 55.918 Z m 1.504,5.05 c 0.048,-0.06 0.996,-1.31 1.389,-3.115 h 2.548 l 4.048,2.159 c 0.691,0.38 0.947,0.653 1.042,0.746 h -7.408 c -0.229,0 -0.449,0.08 -0.624,0.227 -3.033,2.554 -6.651,4.792 -10.449,6.728 l -0.094,-0.282 c 3.734,-1.935 7.469,-4.221 9.548,-6.463 z m -11.295,7.344 0.088,0.265 c -1.668,0.799 -3.355,1.541 -5.038,2.224 l -0.062,-0.177 c 1.484,-0.644 3.216,-1.429 5.012,-2.312 z m -9.434,4.131 c 0.153,-0.059 1.15,-0.44 2.638,-1.06 l 0.045,0.131 c -1.116,0.43 -2.22,0.833 -3.308,1.209 0.175,-0.109 0.399,-0.212 0.625,-0.28 z m -13.048,5.746 c 5.667,-1.133 15.221,-3.856 24.061,-8.187 0.002,-10e-4 0.004,0 0.006,-10e-4 0.008,-0.002 0.013,-0.008 0.02,-0.011 4.217,-2.067 8.271,-4.494 11.66,-7.298 h 7.468 c 0.159,0 0.317,-0.039 0.457,-0.115 0.509,-0.271 1.104,-0.887 1.107,-1.724 0.008,-1.388 -1.566,-2.254 -2.095,-2.544 l -0.854,-0.456 h 9.821 v 0.527 c 0,0.258 0.102,0.505 0.284,0.686 0.162,0.16 3.831,3.785 7.73,5.879 l 0.244,3.263 c -1.437,1.678 -3.527,2.954 -3.897,3.17 l -9.815,3.768 c -0.163,0.085 -1.596,0.865 -1.718,2.375 -0.037,0.452 0.056,0.9 0.268,1.345 -11.847,-3.198 -19.505,3.08 -19.607,3.167 -0.054,0.044 -1.354,1.1 -3.84,0.637 -3.4,-0.643 -6.759,1.673 -6.806,1.712 -4.459,2.4 -7.308,1.64 -7.327,1.634 -0.043,-0.013 -0.087,-0.022 -0.132,-0.03 -8.071,-1.258 -12.035,-3.828 -13.217,-4.728 0.105,-0.327 0.908,-2.013 6.182,-3.069 z m 55.768,15.78 H 41.488 c -0.514,0 -0.861,-0.039 -1.089,-0.081 1.988,-3.701 4.604,-5.651 7.599,-5.651 1.787,0 3.096,0.696 3.099,0.696 0,0 0,0 -0.002,0 0.081,0.049 1.994,1.183 4.094,1.183 1.344,0 2.472,-0.447 3.352,-1.328 2.052,-2.049 6.434,-2.277 6.434,-2.278 8.506,0 14.82,4.84 16.435,6.207 -0.514,0.806 -2.776,1.211 -4.065,1.252 z M 82.5,76.895 c -0.029,0.059 -0.104,0.183 -0.31,0.289 -2.32,-1.878 -8.66,-6.271 -17.257,-6.271 0,0 -0.001,0 -0.002,0 -0.211,0.011 -5.174,0.261 -7.759,2.846 -0.512,0.512 -1.16,0.761 -1.983,0.761 -1.553,0 -3.083,-0.898 -3.123,-0.921 -0.07,-0.039 -1.744,-0.958 -4.068,-0.958 -2.487,0 -5.917,1.055 -8.767,5.744 l -3.606,-0.366 c -4.668,-0.682 -17.24,-2.632 -19.334,-3.454 -1.988,-0.78 -2.135,-2.059 -2.139,-2.091 -0.003,-0.052 -0.01,-0.104 -0.021,-0.155 -0.353,-1.631 -0.044,-2.564 0.258,-3.052 1.576,1.163 5.782,3.694 13.875,4.965 0.564,0.142 3.876,0.806 8.819,-1.863 0.028,-0.019 2.826,-1.944 5.437,-1.457 3.464,0.656 5.388,-1.009 5.453,-1.064 0.424,-0.357 9.544,-7.753 23.555,-0.551 l 5.361,3.335 c 0.019,0.012 0.035,0.022 0.052,0.036 0.111,0.079 2.597,1.854 5.403,2.361 0.202,0.575 0.385,1.404 0.156,1.866 z m 2.843,-6.839 c -1.082,2.192 -3.139,2.896 -3.155,2.902 -0.024,0.008 -0.043,0.027 -0.066,0.038 -2.14,-0.548 -4.026,-1.883 -4.041,-1.895 -0.009,-0.007 -0.017,-0.012 -0.024,-0.018 -0.012,-0.007 -0.016,-0.018 -0.026,-0.025 l -0.08,-0.049 c -1.854,-1.354 -3.649,-2.451 -5.383,-3.347 l -3.392,-2.107 c -0.784,-0.583 -1.218,-1.141 -1.189,-1.532 0.024,-0.333 0.422,-0.663 0.646,-0.798 l 9.725,-3.726 c 0.043,-0.018 0.086,-0.039 0.127,-0.061 0.107,-0.061 2.378,-1.356 4.145,-3.257 0.014,0.025 0.025,0.049 0.026,0.053 l 2.544,6.289 c 1.054,3.053 1.103,5.588 0.143,7.533 z"
         id="path6" /><path
         style="fill:#000000"
         inkscape:connector-curvature="0"
         d="m 57.498,78.795 c 0.151,0.432 0.58,0.944 1.758,0.944 L 72.66,79.738 c 0,0 0.125,0.009 0.311,0.009 0.468,0 1.89,0 2.225,-1.073 0.337,-1.08 -0.841,-1.895 -1.344,-2.243 -1.811,-1.256 -4.599,-2.925 -7.873,-2.925 -2.54,0 -5.012,1.003 -7.327,2.963 -0.575,0.46 -1.489,1.372 -1.154,2.326 z m 8.481,-3.353 c 2.557,0 4.859,1.289 6.453,2.362 H 60.073 c 1.941,-1.589 3.875,-2.362 5.906,-2.362 z"
         id="path8" /><path
         style="fill:#000000"
         inkscape:connector-curvature="0"
         d="m 27.834,70.625 c -5.573,-0.758 -9.919,-3.316 -9.962,-3.343 -0.27,-0.161 -0.62,-0.071 -0.78,0.198 -0.161,0.271 -0.073,0.619 0.197,0.781 0.185,0.11 4.579,2.701 10.393,3.49 0.026,0.005 0.052,0.006 0.077,0.006 0.281,0 0.525,-0.207 0.564,-0.492 0.042,-0.312 -0.177,-0.598 -0.489,-0.64 z"
         id="path10" /><circle
         style="fill:#000000"
         cx="29.181999"
         cy="71.438004"
         r="0.53399998"
         id="circle12" /><path
         style="fill:#000000"
         inkscape:connector-curvature="0"
         d="m 53.435,76.961 c -3.321,-2.296 -6.591,-2.24 -9.285,0.04 -0.446,0.356 -1.151,1.078 -0.863,1.898 0.111,0.314 0.448,0.843 1.468,0.843 l 7.687,-0.002 c 0,0 0.09,0.007 0.225,0.007 0.985,0 1.585,-0.316 1.779,-0.939 0.293,-0.943 -0.655,-1.599 -1.011,-1.847 z m -7.072,0.842 c 1.46,-0.827 3.012,-0.824 4.709,0.003 z"
         id="path14" /><circle
         style="fill:#000000"
         cx="83.573997"
         cy="61.508999"
         r="0.57599998"
         id="circle16" /></g><path
       style="opacity:1;fill:#ffffff;fill-opacity:1;stroke:none;stroke-width:0.07881455;stroke-miterlimit:4;stroke-dasharray:none;stroke-opacity:1"
       d="m 68.433004,94.964022 c 0.188653,-0.227312 1.621883,-1.116504 2.282226,-1.415918 1.965705,-0.891293 4.032442,-0.980814 6.182505,-0.267796 0.845842,0.280503 2.495913,1.092096 3.218086,1.582825 l 0.356543,0.242277 h -6.078351 c -5.321894,0 -6.063747,-0.0176 -5.961009,-0.141388 z"
       id="path5675"
       inkscape:connector-curvature="0"
       transform="translate(-33.775997,-17.83617)" /><path
       style="opacity:1;fill:#ffffff;fill-opacity:1;stroke:#ffffff;stroke-width:0.139;stroke-linejoin:round;stroke-miterlimit:4;stroke-dasharray:none;stroke-opacity:1"
       d="m 54.77694,94.985148 c 1.140118,-0.592809 2.677812,-0.60066 4.013721,-0.02049 l 0.338468,0.146992 -2.296743,-5.17e-4 -2.296744,-5.18e-4 z"
       id="path5677"
       inkscape:connector-curvature="0"
       transform="translate(-33.775997,-17.83617)" /><path
       style="opacity:1;fill:#ffffff;fill-opacity:1;stroke:#ffffff;stroke-width:0.205;stroke-linejoin:round;stroke-miterlimit:4;stroke-dasharray:none;stroke-opacity:1"
       d="m 69.733851,95.066586 c -1.086917,-0.0214 -1.282139,-0.03658 -1.282139,-0.09969 0,-0.06489 0.970775,-0.703582 1.635453,-1.075989 2.231425,-1.250227 4.75304,-1.408506 7.196492,-0.451716 0.975084,0.381817 2.561396,1.207388 3.067879,1.596628 0.08232,0.06327 -0.006,0.06438 -4.685656,0.05907 -2.623256,-0.003 -5.292669,-0.01571 -5.932029,-0.0283 z"
       id="path5679"
       inkscape:connector-curvature="0"
       transform="translate(-33.775997,-17.83617)" /><path
       style="opacity:1;fill:#ffffff;fill-opacity:1;stroke:#ffffff;stroke-width:0.0280361;stroke-linejoin:round;stroke-miterlimit:4;stroke-dasharray:none;stroke-opacity:1"
       d="m 61.936994,56.830498 v -2.73523 h 11.077681 11.07768 v 2.73523 2.73523 H 73.014675 61.936994 Z"
       id="path5685"
       inkscape:connector-curvature="0"
       transform="translate(-33.775997,-17.83617)" /><path
       style="opacity:1;fill:#ff6600;fill-opacity:1;stroke:#ff6600;stroke-width:0.2;stroke-linejoin:round;stroke-miterlimit:4;stroke-dasharray:none;stroke-opacity:1"
       d="m 64.460913,52.008706 c -0.03994,-0.104079 -0.05489,-4.585209 -0.03322,-9.958066 l 0.03939,-9.768829 0.341903,-0.681514 c 0.50258,-1.001787 0.991362,-1.237023 2.530088,-1.217654 2.533261,0.03189 4.590483,0.985434 13.04557,6.046769 3.414123,2.043742 6.460486,3.788342 6.769694,3.876888 0.309208,0.08855 1.028089,0.161132 1.597512,0.161303 0.877638,2.6e-4 1.176781,-0.06589 1.964205,-0.434372 0.510891,-0.239074 1.016229,-0.434681 1.122972,-0.434681 0.312164,0 0.363793,0.354294 0.187658,1.287774 l -0.165007,0.874507 -0.619147,0.155903 c -0.34053,0.08575 -0.91727,0.306974 -1.281645,0.491616 -0.364375,0.184643 -0.869569,0.335715 -1.122653,0.335715 -0.328534,0 -2.275986,-0.916047 -6.808432,-3.202565 -3.491552,-1.76141 -6.743082,-3.330748 -7.225623,-3.487418 -2.042227,-0.663063 -3.634305,-0.20078 -4.43547,1.287904 -0.276922,0.514561 -0.297031,0.766319 -0.338644,4.239606 -0.03753,3.132397 -0.07705,3.728867 -0.260529,3.931893 -0.173615,0.192111 -0.445078,0.239332 -1.375889,0.239332 -1.448258,0 -2.135699,0.201295 -2.735368,0.800963 -0.817171,0.817172 -0.91535,1.205071 -0.876348,3.462408 0.02199,1.272794 -0.0171,2.038802 -0.106863,2.094281 -0.07784,0.04811 -0.174213,0.0023 -0.214153,-0.101763 z"
       id="path5687"
       inkscape:connector-curvature="0"
       transform="translate(-33.775997,-17.83617)" /><path
       style="opacity:1;fill:#ff6600;fill-opacity:1;stroke:#ff6600;stroke-width:0.32699999;stroke-linejoin:round;stroke-miterlimit:4;stroke-dasharray:none;stroke-opacity:1"
       d="m 54.004828,71.194727 c 0,-0.0754 0.379766,-0.328803 0.843925,-0.563109 2.603487,-1.314236 6.181383,-3.687549 7.793507,-5.16964 1.015649,-0.933727 1.518588,-1.701497 1.979303,-3.021542 l 0.311206,-0.891667 1.16474,-0.03945 1.164739,-0.03945 2.294977,1.229418 c 1.262238,0.67618 2.418062,1.322789 2.5685,1.436909 0.246645,0.187103 -0.09837,0.207919 -3.511132,0.211841 l -3.784657,0.0044 -0.660092,0.503547 c -0.363051,0.276951 -1.029349,0.790834 -1.480662,1.141964 -2.325984,1.809656 -8.684354,5.614591 -8.684354,5.196836 z"
       id="path5689"
       inkscape:connector-curvature="0"
       transform="translate(-33.775997,-17.83617)" /><path
       style="opacity:1;fill:#ff6600;fill-opacity:1;stroke:#ff6600;stroke-width:0.00559013;stroke-linejoin:round;stroke-miterlimit:4;stroke-dasharray:none;stroke-opacity:1"
       d="m 47.20742,74.407383 c -0.04767,-0.123763 -0.07374,-0.105297 0.514974,-0.364824 1.355426,-0.59752 2.575561,-1.160088 3.826046,-1.764075 0.391565,-0.189127 0.623417,-0.292354 0.628063,-0.279632 0.02165,0.05929 0.07612,0.223058 0.07612,0.228874 0,0.0174 -1.377522,0.65669 -2.257383,1.047622 -0.877416,0.389845 -1.697359,0.74032 -2.474395,1.057649 l -0.295577,0.120709 z"
       id="path5691"
       inkscape:connector-curvature="0"
       transform="translate(-33.775997,-17.83617)" /><path
       style="opacity:1;fill:#ff6600;fill-opacity:1;stroke:#ff6600;stroke-width:0.00197641;stroke-linejoin:round;stroke-miterlimit:4;stroke-dasharray:none;stroke-opacity:1"
       d="m 42.178803,76.345367 c 0.132877,-0.07722 0.314549,-0.158658 0.477481,-0.214029 0.254989,-0.08665 1.566917,-0.60944 2.508285,-0.999515 l 0.211542,-0.08766 0.02147,0.06145 c 0.01181,0.0338 0.01997,0.06334 0.01813,0.06565 -0.0039,0.0049 -0.310386,0.122349 -0.776978,0.297797 -0.688213,0.258782 -1.290181,0.477898 -1.976408,0.719411 -0.431281,0.151786 -0.508009,0.178363 -0.514329,0.178151 -0.003,-1.01e-4 0.01086,-0.0097 0.0308,-0.02126 z"
       id="path5693"
       inkscape:connector-curvature="0"
       transform="translate(-33.775997,-17.83617)" /><path
       style="opacity:1;fill:#ff6600;fill-opacity:1;stroke:#ff6600;stroke-width:0.04472101;stroke-linejoin:round;stroke-miterlimit:4;stroke-dasharray:none;stroke-opacity:1"
       d="m 89.013833,89.870393 c -1.195821,-0.471845 -1.764598,-0.800523 -4.148235,-2.397137 -1.017737,-0.681704 -2.340904,-1.51186 -2.940372,-1.844792 -2.243789,-1.246152 -4.889343,-2.959889 -5.340942,-3.459755 -0.546069,-0.604433 -0.583275,-0.907986 -0.159557,-1.301754 0.169242,-0.15728 2.52325,-1.131556 5.231127,-2.165058 5.364038,-2.047266 6.192979,-2.483927 8.19105,-4.314797 0.889714,-0.815261 0.903454,-0.821906 1.027075,-0.496758 0.06891,0.181256 0.661339,1.64764 1.316503,3.258632 1.491447,3.667344 1.855516,5.031662 1.858615,6.965018 0.0038,2.357164 -0.69844,3.990912 -2.241892,5.215886 -0.651899,0.517385 -1.432352,0.945537 -1.701936,0.933673 -0.05883,-0.0026 -0.549977,-0.17951 -1.091436,-0.393158 z m 1.646422,-0.436645 c 2.002805,-1.326603 3.317668,-4.158458 3.034312,-6.535073 -0.116511,-0.977224 -0.447147,-2.285957 -0.702054,-2.778893 -0.222231,-0.429746 -0.729115,-0.516867 -1.013507,-0.174197 -0.140891,0.169764 -0.113282,0.402124 0.150312,1.265044 0.421753,1.380686 0.452183,3.318469 0.06844,4.35809 -0.38171,1.034102 -1.162778,2.090779 -2.040386,2.760356 -0.803338,0.612914 -0.939924,0.933643 -0.559579,1.313988 0.287414,0.287414 0.323181,0.280368 1.062466,-0.209315 z m 1.330082,-10.11122 c 0.31374,-0.167909 0.348757,-0.712366 0.06117,-0.951045 -0.255851,-0.212337 -0.832343,-0.07736 -0.947124,0.221758 -0.09439,0.245978 0.249189,0.87086 0.478825,0.87086 0.07843,0 0.26164,-0.06371 0.407132,-0.141573 z"
       id="path5695"
       inkscape:connector-curvature="0"
       transform="translate(-33.775997,-17.83617)" /><path
       style="opacity:1;fill:#ff6600;fill-opacity:1;stroke:#ff6600;stroke-width:0.04472101;stroke-linejoin:round;stroke-miterlimit:4;stroke-dasharray:none;stroke-opacity:1"
       d="M 89.388968,66.330555 C 87.61629,65.253879 84.442875,62.798816 83.583509,61.839252 L 83.32298,61.548346 h 1.910069 c 1.733195,0 1.937786,-0.02582 2.20938,-0.278851 0.70104,-0.653118 0.14427,-1.772571 -0.881605,-1.772571 h -0.460222 v -2.666849 -2.666849 h 0.460222 c 0.649249,0 1.181469,-0.452139 1.178822,-1.001447 -0.0044,-0.905509 -0.361672,-1.049976 -2.596895,-1.049976 -1.782697,0 -1.796069,-0.0023 -1.7527,-0.306525 0.04074,-0.285754 0.19661,-0.331311 2.300267,-0.672312 3.480453,-0.564179 6.701313,-0.829915 6.701313,-0.552891 0,0.335357 -0.410836,0.437885 -1.771061,0.441986 -1.510873,0.0046 -1.738336,0.07762 -2.047374,0.657676 -0.223172,0.418885 0.01224,1.020193 0.483457,1.234895 0.186502,0.08498 0.883341,0.154502 1.548531,0.154502 h 1.209436 l 0.282333,1.059901 c 0.825063,3.097354 0.684443,6.061294 -0.391845,8.259145 L 91.3943,63.022871 90.445099,62.567979 c -1.117742,-0.535663 -1.602842,-0.456719 -1.893652,0.308171 -0.208629,0.548736 0.07242,0.942176 1.063233,1.48841 1.422886,0.784436 1.619,0.952269 1.818269,1.556059 0.209121,0.633643 0.137759,0.765413 -0.516068,0.952928 -0.381687,0.109467 -0.555215,0.0478 -1.527913,-0.542992 z"
       id="path5697"
       inkscape:connector-curvature="0"
       transform="translate(-33.775997,-17.83617)" /><path
       style="opacity:1;fill:#cc0000;fill-opacity:1;stroke:#ff6600;stroke-width:0.04472101;stroke-linejoin:round;stroke-miterlimit:4;stroke-dasharray:none;stroke-opacity:1"
       d="m 35.430471,89.380547 c -4.511273,-0.867113 -8.436686,-2.24543 -10.860585,-3.813443 -0.533106,-0.344864 -0.969284,-0.686847 -0.969284,-0.759963 0,-0.276343 1.059591,-1.149301 1.914661,-1.577421 1.228667,-0.615173 1.823346,-0.793547 5.243311,-1.572727 13.21738,-3.011353 25.276758,-8.149572 33.270918,-14.175959 l 1.520245,-1.146036 h 3.89758 c 3.745428,0 3.911754,-0.01115 4.26066,-0.285598 0.730216,-0.574389 0.98333,-1.641716 0.574425,-2.422233 -0.286348,-0.546581 -1.008301,-1.191417 -1.857948,-1.659486 l -0.752189,-0.41438 4.820843,-0.0025 4.820842,-0.0025 -8.2e-4,0.444475 c -6.84e-4,0.379447 0.164194,0.60113 1.127228,1.515234 1.487993,1.412392 3.957193,3.329846 5.590649,4.341413 l 1.314952,0.814324 0.09879,1.604297 0.09879,1.604297 -1.003462,0.960331 c -1.73691,1.662254 -2.426456,2.021808 -7.883033,4.110502 -3.260406,1.248033 -5.128096,2.035003 -5.440239,2.292296 -0.858482,0.707634 -1.264534,1.967467 -0.950903,2.950313 0.08712,0.273002 0.06593,0.313488 -0.125591,0.239995 -0.126713,-0.04862 -0.856942,-0.225036 -1.62273,-0.392026 -1.219437,-0.265913 -1.79995,-0.303968 -4.674619,-0.30644 -2.906762,-0.0025 -3.442637,0.03245 -4.683949,0.305519 -2.901397,0.638252 -5.645884,1.776812 -7.801422,3.236444 -1.572221,1.064639 -2.361247,1.257089 -4.240706,1.034349 -2.441988,-0.289407 -3.588286,-0.02338 -6.796899,1.577373 -3.750406,1.871053 -5.457942,2.159085 -8.889497,1.499505 z m 2.251112,-0.268191 c 0.363301,-0.43775 -0.1703,-1.110198 -0.644164,-0.811781 -0.473514,0.298196 -0.304818,1.010353 0.239332,1.010353 0.132017,0 0.314192,-0.08936 0.404832,-0.198572 z m -1.274554,-0.444772 c 0.05187,-0.206672 0.0116,-0.408757 -0.104068,-0.522214 -0.103775,-0.101793 -0.978727,-0.344198 -1.944338,-0.53868 -2.261595,-0.455505 -4.647377,-1.255616 -6.777373,-2.272904 -0.932224,-0.445229 -1.801671,-0.80951 -1.932105,-0.80951 -0.343866,0 -0.587162,0.357118 -0.494586,0.725971 0.171127,0.681827 5.11017,2.717925 8.313621,3.427254 2.451251,0.542771 2.800428,0.541593 2.938849,-0.0099 z"
       id="path5699"
       inkscape:connector-curvature="0"
       transform="translate(-33.775997,-17.83617)" /><path
       style="opacity:1;fill:#cc0000;fill-opacity:1;stroke:#ff6600;stroke-width:0.04472101;stroke-linejoin:round;stroke-miterlimit:4;stroke-dasharray:none;stroke-opacity:1"
       d="m 66.704324,50.184744 c 0.05559,-2.405706 0.08794,-2.449308 1.81717,-2.449308 1.259437,0 1.840616,-0.15075 2.51604,-0.652628 0.893987,-0.664282 0.970261,-1.048148 0.973632,-4.899995 0.0033,-3.749364 0.07709,-4.238938 0.661193,-4.385539 0.961674,-0.241364 3.283767,0.784478 11.564801,5.109039 l 3.572961,1.865889 0.95733,-10e-4 c 0.823439,-9.02e-4 1.100247,-0.07103 1.979184,-0.501424 1.88125,-0.921209 2.019249,-0.758335 1.777297,2.097664 l -0.170623,2.014039 -1.425514,0.09216 c -2.531812,0.163686 -8.090439,0.988001 -8.946487,1.326718 -0.469483,0.185757 -0.667358,0.650004 -0.667358,1.565729 v 0.745753 H 73.986874 66.659797 Z M 81.590211,48.62297 c 1.005595,-0.520014 0.906875,-1.51393 -0.29361,-2.95605 -0.484952,-0.582564 -4.785394,-4.653417 -5.841845,-5.529965 -0.573189,-0.47558 -1.194977,-0.502829 -1.547238,-0.0678 -0.231665,0.286093 -0.252211,0.622923 -0.252211,4.134629 0,2.443633 0.05257,3.921397 0.145702,4.095408 0.08014,0.149735 0.280149,0.326417 0.444475,0.392625 0.164325,0.06621 1.794239,0.124279 3.62203,0.129047 2.709155,0.0071 3.397069,-0.0295 3.722697,-0.197889 z"
       id="path5701"
       inkscape:connector-curvature="0"
       transform="translate(-33.775997,-17.83617)" /><path
       style="opacity:1;fill:#ffffff;fill-opacity:1;stroke:#ff6600;stroke-width:0.04472101;stroke-linejoin:round;stroke-miterlimit:4;stroke-dasharray:none;stroke-opacity:1"
       d="m 75.569968,44.931825 c 0,-1.015454 0.04678,-1.84628 0.103967,-1.84628 0.05718,0 0.964937,0.827651 2.017232,1.839225 l 1.913265,1.839225 -2.017232,0.0071 -2.017232,0.0071 z"
       id="path5703"
       inkscape:connector-curvature="0"
       transform="translate(-33.775997,-17.83617)" /><path
       style="opacity:1;fill:#ffffff;fill-opacity:1;stroke:#ff6600;stroke-width:0.04472101;stroke-linejoin:round;stroke-miterlimit:4;stroke-dasharray:none;stroke-opacity:1"
       d="m 45.003775,95.44467 c -2.307276,-0.256248 -10.592649,-1.567734 -14.975383,-2.370442 -6.494909,-1.189559 -7.448482,-1.66208 -7.810455,-3.870294 -0.127576,-0.778272 -0.126683,-1.159375 0.0041,-1.743709 0.09204,-0.411271 0.222395,-0.747765 0.289681,-0.747765 0.06729,0 0.509057,0.251318 0.981713,0.558485 1.815075,1.179572 4.70423,2.378474 7.746689,3.214616 1.931399,0.530796 4.950208,1.124774 6.326526,1.244803 2.020903,0.176243 4.934649,-0.599114 7.617724,-2.027099 2.597412,-1.382392 2.657648,-1.396591 5.973686,-1.408089 3.304924,-0.01146 3.363136,-0.02725 5.515244,-1.496332 1.491381,-1.018051 2.743118,-1.638949 4.446445,-2.205565 2.504593,-0.83316 3.382765,-0.958699 6.654832,-0.951336 3.394192,0.0076 4.545759,0.193017 7.590263,1.221883 2.627378,0.887901 3.845724,1.502627 7.428249,3.747979 1.78153,1.116576 3.577631,2.21784 3.991335,2.447252 0.807873,0.447993 3.008616,1.260624 3.413984,1.260624 0.291783,0 0.410889,0.365651 0.413471,1.269336 0.0012,0.42734 -0.06273,0.678698 -0.184574,0.725453 -0.102542,0.03935 -0.660919,-0.268878 -1.240835,-0.684949 -5.583998,-4.006335 -12.797941,-6.097711 -17.940152,-5.200985 -2.401316,0.418755 -4.422019,1.2655 -5.695827,2.386752 -0.3453,0.303944 -0.84576,0.643688 -1.112134,0.754986 -0.994404,0.415489 -2.423057,0.191145 -4.292202,-0.674012 -0.580763,-0.268813 -1.425189,-0.583137 -1.876501,-0.698497 -0.983838,-0.251478 -3.189794,-0.279961 -4.11812,-0.05317 -2.276165,0.556066 -4.550796,2.242457 -6.208062,4.602604 -0.592685,0.844053 -0.608002,0.854536 -1.222897,0.836872 -0.342482,-0.0098 -1.115035,-0.07257 -1.716786,-0.139399 z"
       id="path5705"
       inkscape:connector-curvature="0"
       transform="translate(-33.775997,-17.83617)" /><path
       style="opacity:1;fill:#404040;fill-opacity:1;stroke:#ff6600;stroke-width:0;stroke-linejoin:round;stroke-miterlimit:4;stroke-dasharray:none;stroke-opacity:1"
       d="m 49.072429,97.554446 c -0.244461,-0.03034 -0.444474,-0.09056 -0.444474,-0.133827 0,-0.04327 0.352439,-0.608353 0.783199,-1.255744 1.095707,-1.646747 2.289481,-2.770756 3.668443,-3.454059 2.138581,-1.059708 4.074897,-1.019152 6.587304,0.137971 1.588166,0.731452 2.858563,1.024036 4.034664,0.929222 1.147707,-0.09252 1.846889,-0.402751 2.978906,-1.321735 1.047351,-0.850252 2.117992,-1.382957 3.624179,-1.803239 1.590791,-0.443889 5.241452,-0.441423 7.31674,0.0049 2.076786,0.446688 4.478096,1.280067 6.359409,2.207044 1.672671,0.824173 4.128616,2.362783 4.991795,3.127279 l 0.478665,0.423941 -0.340603,0.267872 c -0.421252,0.331298 -1.551676,0.656141 -2.886027,0.829338 -0.964635,0.125208 -36.160653,0.164045 -37.1522,0.04099 z M 61.83428,96.90631 c 0.538283,-0.224909 0.878013,-0.843371 0.770944,-1.403466 -0.108053,-0.565246 -1.085465,-1.382277 -2.413499,-2.017474 -1.603289,-0.766851 -2.41402,-0.944944 -3.91266,-0.859496 -0.974909,0.05559 -1.378801,0.151068 -2.134066,0.504499 -1.162143,0.543833 -2.302647,1.394631 -2.574669,1.920664 -0.423389,0.818744 -0.154265,1.678078 0.613423,1.958711 0.112829,0.04125 2.222642,0.07985 4.688474,0.08579 3.643177,0.0088 4.573041,-0.02669 4.962053,-0.189226 z m 20.665299,-0.06488 c 0.6563,-0.297984 0.865794,-0.612173 0.865794,-1.298472 0,-0.366594 -0.120906,-0.62109 -0.488218,-1.027661 -0.928242,-1.027453 -3.594087,-2.547289 -5.666049,-3.230296 -1.03277,-0.340444 -1.368473,-0.384211 -3.008753,-0.392259 -1.569945,-0.0077 -1.999799,0.0389 -2.871991,0.311377 -2.263116,0.707008 -5.014023,2.557023 -5.598975,3.765371 -0.261645,0.540487 -0.282569,0.694315 -0.149351,1.097969 0.154919,0.469409 0.531761,0.811089 1.035755,0.939111 0.147303,0.03742 3.652669,0.07382 7.789704,0.08089 7.103756,0.01215 7.553578,-0.0015 8.092084,-0.246032 z"
       id="path5707"
       inkscape:connector-curvature="0"
       transform="translate(-33.775997,-17.83617)" /></g></svg>