<?xml version="1.0" encoding="UTF-8" standalone="no"?>
<svg
   xmlns:dc="http://purl.org/dc/elements/1.1/"
   xmlns:cc="http://creativecommons.org/ns#"
   xmlns:rdf="http://www.w3.org/1999/02/22-rdf-syntax-ns#"
   xmlns:svg="http://www.w3.org/2000/svg"
   xmlns="http://www.w3.org/2000/svg"
   xmlns:xlink="http://www.w3.org/1999/xlink"
   xmlns:sodipodi="http://sodipodi.sourceforge.net/DTD/sodipodi-0.dtd"
   xmlns:inkscape="http://www.inkscape.org/namespaces/inkscape"
   version="1.1"
   x="0px"
   y="0px"
   viewBox="0 0 122.90057 122.90057"
   xml:space="preserve"
   id="svg151"
   sodipodi:docname="shoes_punch5.svg"
   width="122.90057"
   height="122.90057"
   inkscape:version="0.92.1 unknown"><metadata
     id="metadata157"><rdf:RDF><cc:Work
         rdf:about=""><dc:format>image/svg+xml</dc:format><dc:type
           rdf:resource="http://purl.org/dc/dcmitype/StillImage" /><dc:title></dc:title></cc:Work></rdf:RDF></metadata><defs
     id="defs155"><linearGradient
       inkscape:collect="always"
       id="linearGradient4784"><stop
         style="stop-color:#35995f;stop-opacity:1;"
         offset="0"
         id="stop4780" /><stop
         style="stop-color:#356f5f;stop-opacity:0"
         offset="1"
         id="stop4782" /></linearGradient><radialGradient
       inkscape:collect="always"
       xlink:href="#linearGradient4784"
       id="radialGradient4786"
       cx="27.67429"
       cy="43.614117"
       fx="27.67429"
       fy="43.614117"
       r="60"
       gradientUnits="userSpaceOnUse"
       gradientTransform="matrix(2.9283353,-0.00541619,0.00489025,2.6439834,-53.578595,-71.550994)" /></defs><sodipodi:namedview
     pagecolor="#ffffff"
     bordercolor="#666666"
     borderopacity="1"
     objecttolerance="10"
     gridtolerance="10"
     guidetolerance="10"
     inkscape:pageopacity="0"
     inkscape:pageshadow="2"
     inkscape:window-width="1875"
     inkscape:window-height="1056"
     id="namedview153"
     showgrid="false"
     inkscape:zoom="5.1703648"
     inkscape:cx="48.647384"
     inkscape:cy="55.674444"
     inkscape:window-x="1411"
     inkscape:window-y="24"
     inkscape:window-maximized="1"
     inkscape:current-layer="layer4"
     showguides="false" /><g
     inkscape:groupmode="layer"
     id="layer1"
     inkscape:label="fond"
     style="display:inline"
     transform="translate(33.775997,17.83617)"
     sodipodi:insensitive="true"><circle
       style="opacity:1;fill:#5bcf8f;fill-opacity:1;stroke:#4b6e5f;stroke-width:2;stroke-miterlimit:4;stroke-dasharray:none;stroke-opacity:1"
       id="path3963"
       cx="27.67429"
       cy="43.614117"
       r="59.950287" /></g><g
     inkscape:groupmode="layer"
     id="layer3"
     inkscape:label="cocarde"
     style="display:inline" /><g
     inkscape:groupmode="layer"
     id="layer4"
     inkscape:label="numéro"
     style="display:inline"><g
       style="display:inline"
       id="g8"
       transform="matrix(0.36681218,0,0,0.36681218,87.643343,-1.0347927)"><path
         d="M 69.699,3.941 C 69.418,3.66 69.036,3.502 68.638,3.502 H 31.361 c -0.397,0 -0.779,0.158 -1.061,0.439 L 3.941,30.3 C 3.66,30.581 3.502,30.963 3.502,31.361 v 37.278 c 0,0.398 0.158,0.779 0.439,1.061 L 30.3,96.059 c 0.281,0.281 0.663,0.439 1.061,0.439 h 37.277 c 0.397,0 0.779,-0.158 1.061,-0.439 L 96.059,69.7 c 0.281,-0.281 0.439,-0.663 0.439,-1.061 V 31.361 c 0,-0.398 -0.158,-0.779 -0.439,-1.061 z M 69.177,7.662 93.14,31.624 76.527,37.952 62.078,23.502 Z m 6.1,31.868 V 60.47 L 60.47,75.277 H 39.53 L 24.722,60.47 V 39.53 L 39.53,24.722 H 60.47 Z M 67.506,6.502 60.237,22.723 H 39.807 L 33.617,6.502 Z M 31.616,6.868 37.952,23.472 23.499,37.925 7.657,30.827 Z M 6.501,32.501 22.722,39.769 V 60.198 L 6.501,66.388 Z M 30.824,92.34 6.87,68.387 23.474,62.051 37.922,76.498 Z m 1.671,1.158 7.268,-16.221 h 20.434 l 6.18,16.221 z M 68.379,93.136 62.051,76.524 76.493,62.082 92.346,69.17 Z M 93.499,67.494 77.277,60.241 V 39.807 l 16.222,-6.179 z"
         id="path6-5"
         inkscape:connector-curvature="0" /></g><path
       style="display:inline;opacity:1;fill:#b81721;fill-opacity:1;stroke:#561721;stroke-width:0.13738103;stroke-linejoin:round;stroke-miterlimit:4;stroke-dasharray:none;stroke-opacity:1"
       d="m 93.933997,29.353394 -4.963421,-4.96342 v -7.0736 -7.073601 l 4.979656,-4.9810538 4.979659,-4.98105323 h 7.041129 7.04113 l 4.99729,4.99729313 4.99729,4.9972939 v 7.041125 7.041123 l -4.98106,4.979658 -4.98104,4.979656 h -7.0736 -7.073612 z m 18.049673,3.881546 c 8.1e-4,-0.02833 -0.49967,-1.372951 -1.11256,-2.988037 l -1.11434,-2.936521 -3.78163,3.44e-4 -3.78163,3.44e-4 -1.29578,2.899415 c -0.71268,1.594678 -1.311018,2.939128 -1.329645,2.987668 -0.02748,0.07147 1.149235,0.08826 6.189975,0.08826 3.42313,0 6.22465,-0.02319 6.22561,-0.05152 z m 5.18161,-4.479295 c 2.41617,-2.416387 4.37869,-4.40777 4.36116,-4.425294 -0.0575,-0.05766 -5.7284,-2.5839 -5.80016,-2.5839 -0.12904,0 -5.34545,5.27191 -5.31167,5.368174 0.25968,0.739768 2.29793,6.034117 2.32309,6.034258 0.0189,1.37e-4 2.0114,-1.976851 4.42758,-4.393238 z m -16.90301,1.224487 c 0.70327,-1.572912 1.27867,-2.886471 1.27867,-2.919022 0,-0.03255 -1.19295,-1.252423 -2.650989,-2.710828 l -2.650992,-2.651644 -1.556303,0.596522 c -0.855967,0.328086 -2.231232,0.853889 -3.056145,1.168451 l -1.499843,0.571928 4.416229,4.416626 c 2.428924,2.429143 4.421732,4.41014 4.42846,4.402214 0.0067,-0.0079 0.58764,-1.301337 1.290913,-2.874247 z m 12.28601,-6.08678 2.73077,-2.730126 V 17.316553 13.46988 l -2.73013,-2.730766 -2.73013,-2.7307652 h -3.84666 -3.84668 l -2.730773,2.7301252 -2.730762,2.730125 v 3.846674 3.846673 l 2.730124,2.730765 2.730131,2.730766 h 3.84668 3.84667 z m 9.39375,-6.376404 c 0,-5.287616 -0.0143,-6.218194 -0.0958,-6.199319 -0.0527,0.01223 -1.39689,0.516781 -2.98705,1.121257 l -2.89122,1.099049 7.4e-4,3.777978 7.3e-4,3.777979 2.93478,1.315664 c 1.61412,0.723615 2.95796,1.318646 2.9863,1.322292 0.0283,0.0037 0.0515,-2.79306 0.0515,-6.2149 z m -28.918712,4.689994 2.919346,-1.116025 0.01775,-3.784382 0.01775,-3.784383 -2.937096,-1.315364 c -1.615403,-0.723451 -2.960281,-1.314932 -2.988616,-1.314402 -0.02833,5.14e-4 -0.05152,2.798385 -0.05152,6.217455 0,3.419071 0.02319,6.215734 0.05152,6.214807 0.02833,-9.68e-4 1.365225,-0.503893 2.970869,-1.117706 z m 5.918397,-11.983324 2.654935,-2.6617577 -1.156,-3.0206342 C 99.804844,2.8798769 99.259039,1.5120551 99.227733,1.5016207 99.196443,1.4911877 97.193524,3.4601228 94.776834,5.8770341 l -4.393983,4.3943839 0.547464,0.245752 c 0.301106,0.135161 1.598431,0.720527 2.882942,1.300812 1.284514,0.580286 2.366537,1.057839 2.4045,1.061229 0.03796,0.0034 1.263742,-1.191628 2.723958,-2.655593 z m 19.837075,1.525936 c 1.6415,-0.624508 3.00024,-1.151153 3.01943,-1.170324 0.0191,-0.01916 -1.94129,-2.0111717 -4.35657,-4.4266706 -2.41526,-2.4154976 -4.4137,-4.3693587 -4.44096,-4.3419128 -0.0555,0.055847 -2.59866,5.7089106 -2.59866,5.7763324 0,0.073078 5.24994,5.298407 5.32317,5.29822 0.038,-6.9e-5 1.41208,-0.511138 3.05359,-1.135645 z m -7.70083,-7.3661908 c 0.72385,-1.6159441 1.31609,-2.9605609 1.31609,-2.9880371 0,-0.027481 -2.80074,-0.049957 -6.22384,-0.049957 -4.9505,0 -6.21724,0.017566 -6.19159,0.085864 0.0496,0.1319702 2.11867,5.5601391 2.18629,5.7356575 l 0.0595,0.1545535 h 3.76872 3.7687 z"
       id="path4497"
       inkscape:connector-curvature="0" /><path
       style="display:inline;opacity:1;fill:#641721;fill-opacity:1;stroke:#561721;stroke-width:0.210917;stroke-linejoin:round;stroke-miterlimit:4;stroke-dasharray:none;stroke-opacity:1"
       d="m 113.1147,10.20128 c -1.41641,-1.4090509 -2.5753,-2.5977415 -2.5753,-2.6415342 0,-0.080138 2.12314,-4.8461896 2.3844,-5.3525243 l 0.14011,-0.2715409 4.31243,4.2978689 4.31242,4.2978695 -0.74917,0.290309 c -1.6598,0.64318 -4.88232,1.849328 -5.0601,1.893924 -0.1773,0.04447 -0.35521,-0.117317 -2.76479,-2.514372 z"
       id="path4499"
       inkscape:connector-curvature="0" /><path
       style="display:inline;opacity:1;fill:#641721;fill-opacity:1;stroke:#561721;stroke-width:0.28427944;stroke-linejoin:round;stroke-miterlimit:4;stroke-dasharray:none;stroke-opacity:1"
       d="m 94.608304,28.3958 c -2.358429,-2.371948 -4.274894,-4.323515 -4.258812,-4.336816 0.01609,-0.01331 1.342081,-0.524321 2.946666,-1.135599 l 2.917426,-1.111416 2.594989,2.594315 c 1.427247,1.426873 2.594997,2.634133 2.594997,2.682802 0,0.09458 -2.396437,5.519379 -2.465918,5.582079 -0.02271,0.0205 -1.970919,-1.903418 -4.329348,-4.275365 z"
       id="path4501"
       inkscape:connector-curvature="0" /><path
       style="display:inline;opacity:1;fill:#b41721;fill-opacity:1;stroke:#561721;stroke-width:0.13738103;stroke-linejoin:round;stroke-miterlimit:4;stroke-dasharray:none;stroke-opacity:1"
       d="m 102.26173,7.1668898 c -0.0168,-0.047222 -0.50736,-1.3377481 -1.09019,-2.8678291 l -1.05969,-2.7819652 2.35947,-0.058947 c 1.31297,-0.032797 4.00445,-0.032797 6.06828,0 l 3.70883,0.058947 -1.27734,2.8678283 -1.27733,2.8678291 H 105.993 c -2.89856,0 -3.70738,-0.01861 -3.73127,-0.085863 z"
       id="path4503"
       inkscape:connector-curvature="0" /><path
       style="display:inline;opacity:1;fill:#b41721;fill-opacity:1;stroke:#561721;stroke-width:0.17423578;stroke-linejoin:round;stroke-miterlimit:4;stroke-dasharray:none;stroke-opacity:1"
       d="m 100.98476,33.156489 -1.277425,-0.04176 1.277425,-2.867488 1.27743,-2.867488 3.71005,-3.41e-4 3.71004,-3.41e-4 1.08273,2.860487 c 0.59551,1.573268 1.07415,2.869082 1.06366,2.879586 -0.0429,0.04287 -9.66134,0.076 -10.84391,0.03734 z"
       id="path4505"
       inkscape:connector-curvature="0" /><path
       style="display:inline;opacity:1;fill:#c81721;fill-opacity:1;stroke:#561721;stroke-width:0.210917;stroke-linejoin:round;stroke-miterlimit:4;stroke-dasharray:none;stroke-opacity:1"
       d="m 112.47757,32.273272 c -0.15175,-0.406132 -0.63371,-1.672786 -1.07101,-2.814784 -0.43728,-1.141998 -0.81337,-2.149256 -0.83574,-2.238351 -0.0353,-0.140722 0.28966,-0.496718 2.4752,-2.711453 1.38372,-1.402204 2.57465,-2.568128 2.64654,-2.590939 0.10982,-0.03487 2.91612,1.164341 5.31177,2.269835 l 0.40176,0.185396 -4.31597,4.31936 c -2.37378,2.375648 -4.32061,4.319359 -4.32629,4.319359 -0.005,0 -0.13451,-0.33229 -0.28626,-0.738423 z"
       id="path4507"
       inkscape:connector-curvature="0" /><path
       style="display:inline;opacity:1;fill:#c81721;fill-opacity:1;stroke:#561721;stroke-width:0.13738103;stroke-linejoin:round;stroke-miterlimit:4;stroke-dasharray:none;stroke-opacity:1"
       d="m 93.314192,11.4915 -2.765856,-1.248119 3.727522,-3.7321703 c 2.050137,-2.0526939 3.99775,-3.9805947 4.328027,-4.2842242 l 0.600508,-0.5520529 0.127693,0.2988785 c 0.07019,0.1643832 0.585604,1.4855766 1.145274,2.9359849 l 1.01756,2.6371065 -2.612947,2.6005455 c -1.437123,1.4303 -2.655471,2.59866 -2.707439,2.596358 -0.05196,-0.0023 -1.339124,-0.565841 -2.860342,-1.252307 z"
       id="path4511"
       inkscape:connector-curvature="0" /><path
       style="display:inline;opacity:1;fill:#b41721;fill-opacity:1;stroke:#561721;stroke-width:0.17423578;stroke-linejoin:round;stroke-miterlimit:4;stroke-dasharray:none;stroke-opacity:1"
       d="m 118.90281,22.302622 -2.86748,-1.277422 2.1e-4,-3.709287 2.2e-4,-3.709287 0.94394,-0.35555 c 0.51916,-0.19555 1.80747,-0.681785 2.8629,-1.080521 1.05542,-0.398735 1.92803,-0.715903 1.93912,-0.704819 0.0584,0.05835 0.0904,6.986038 0.0433,9.36004 l -0.0547,2.754265 z"
       id="path4513"
       inkscape:connector-curvature="0" /><path
       style="display:inline;opacity:1;fill:#b41721;fill-opacity:1;stroke:#561721;stroke-width:0.210917;stroke-linejoin:round;stroke-miterlimit:4;stroke-dasharray:none;stroke-opacity:1"
       d="m 90.115571,19.53492 c -0.02286,-2.013829 -0.01937,-4.749546 0.0077,-6.079371 l 0.04933,-2.417862 2.878248,1.279975 2.878248,1.279976 -0.04457,1.275268 c -0.02452,0.701397 -0.04465,2.374464 -0.04477,3.717926 l -1.93e-4,2.442658 -2.730449,1.03844 c -1.501747,0.571142 -2.780307,1.057803 -2.841245,1.081468 -0.100772,0.03914 -0.114557,-0.288155 -0.152364,-3.618478 z"
       id="path4515"
       inkscape:connector-curvature="0" /><path
       style="display:inline;opacity:1;fill:#c81721;fill-opacity:1;stroke:#561721;stroke-width:0.26630563;stroke-linejoin:round;stroke-miterlimit:4;stroke-dasharray:none;stroke-opacity:1"
       d="M 99.451001,23.814571 96.75593,21.118212 v -3.78859 -3.788591 l 2.696358,-2.695069 2.696362,-2.6950688 h 3.83716 3.83717 l 2.69507,2.6963578 2.69507,2.69636 v 3.788591 3.788589 l -2.69637,2.695071 -2.69635,2.695068 h -3.83717 -3.83716 z"
       id="path4517"
       inkscape:connector-curvature="0" /><text
       xml:space="preserve"
       style="font-style:normal;font-weight:normal;font-size:24.316576px;line-height:14.70139694px;font-family:sans-serif;letter-spacing:0px;word-spacing:0px;display:inline;fill:#ffffff;fill-opacity:1;stroke:#561721;stroke-width:0.40099999;stroke-linecap:butt;stroke-linejoin:miter;stroke-miterlimit:4;stroke-dasharray:none;stroke-opacity:1"
       x="99.675575"
       y="25.151823"
       id="text5046"><tspan
         sodipodi:role="line"
         id="tspan5044"
         x="99.675575"
         y="25.151823"
         style="font-size:21.61473465px;line-height:14.70139694px;fill:#ffffff;fill-opacity:1;stroke:#561721;stroke-width:0.40099999;stroke-miterlimit:4;stroke-dasharray:none;stroke-opacity:1">5</tspan></text>
</g><g
     inkscape:groupmode="layer"
     id="layer2"
     inkscape:label="badge"
     transform="translate(33.775997,17.83617)"
     style="display:inline"
     sodipodi:insensitive="true"><g
       transform="matrix(0.9538481,0,0,0.9538481,-21.10631,3.2783059)"
       id="g18"><path
         style="fill:#000000"
         inkscape:connector-curvature="0"
         d="m 67.16,22.683 c -0.284,-0.253 -0.694,-0.316 -1.04,-0.161 -0.349,0.156 -0.572,0.502 -0.572,0.884 v 7.06 c 0,0.535 0.434,0.968 0.969,0.968 l 6.321,-0.001 c 0.013,0.001 0.033,0.001 0.047,0.001 0.511,0 0.961,-0.292 1.147,-0.742 0.36,-0.872 -0.345,-1.83 -1.515,-3 -2.128,-2.129 -5.325,-4.98 -5.357,-5.009 z m 0.324,6.815 v -3.91 c 1.09,0.999 2.533,2.342 3.665,3.474 0.163,0.163 0.303,0.308 0.419,0.436 z"
         id="path2-5" /><path
         style="fill:#000000"
         inkscape:connector-curvature="0"
         d="m 84.134,62.473 c -0.293,0.113 -0.439,0.443 -0.326,0.737 2.201,5.695 -2.046,8.07 -2.229,8.17 -0.276,0.148 -0.38,0.493 -0.231,0.771 0.102,0.191 0.298,0.3 0.501,0.3 0.091,0 0.182,-0.021 0.267,-0.066 0.055,-0.029 5.326,-2.929 2.756,-9.586 -0.114,-0.293 -0.441,-0.436 -0.738,-0.326 z"
         id="path4-6" /><path
         style="fill:#000000"
         inkscape:connector-curvature="0"
         d="M 87.01,61.845 84.461,55.543 C 84.424,55.44 84.137,54.706 83.405,54.24 l -0.202,-2.716 c 0.65,-0.146 1.438,-0.473 1.885,-1.222 0.521,-0.869 0.41,-1.976 -0.327,-3.285 3,-4.669 1.387,-10.235 0.708,-12.08 0.676,-0.755 1.286,-1.722 0.899,-2.667 -0.055,-0.136 -0.148,-0.236 -0.234,-0.345 l 0.378,-4.284 c 0.038,-1.201 -0.281,-2.058 -0.911,-2.593 0.441,-1.475 0.713,-3.225 -0.328,-4.194 -1.061,-0.99 -2.627,-0.356 -2.803,-0.28 -0.065,0.028 -0.129,0.063 -0.186,0.105 -1.415,1.025 -3.08,0.282 -3.095,0.282 L 67.492,13.965 c -5.264,-2.969 -8.921,-3.7 -11.175,-2.238 -2.179,1.412 -1.942,4.252 -1.936,4.283 v 18.83 h -1.5 c -0.534,0 -0.968,0.434 -0.968,0.968 v 7.417 c 0,0.534 0.434,0.967 0.968,0.967 h 1.862 c -0.324,1.106 -0.872,1.867 -0.866,1.867 -4.727,5.087 -19.789,10.855 -19.853,10.884 -0.171,0.048 -1.69,0.496 -2.147,1.748 -0.103,0.281 -0.166,0.661 -0.084,1.111 -4.101,1.325 -7.827,2.274 -10.597,2.828 -6.565,1.312 -7.596,3.769 -7.733,4.776 -0.671,0.586 -1.898,2.129 -1.235,5.271 0.063,0.5 0.494,2.562 3.355,3.686 2.729,1.072 19.067,3.467 19.803,3.574 l 2.881,0.293 c -0.064,0.295 -0.038,0.699 0.232,1.071 0.462,0.642 1.412,0.939 2.988,0.939 h 35.87 c 0.009,0 0.018,0 0.027,0 0.619,-0.017 6.064,-0.263 6.064,-3.529 0,-0.016 -0.008,-0.028 -0.009,-0.042 0.391,-0.287 0.645,-0.621 0.791,-0.916 0.625,-1.258 0.153,-2.833 -0.147,-3.596 0.929,-0.566 2.146,-1.554 2.975,-3.208 1.218,-2.428 1.208,-5.476 -0.048,-9.104 z m -6.111,-15.153 2.14,1.171 c 0.014,0.031 0.014,0.063 0.03,0.093 0.416,0.739 0.458,1.183 0.359,1.353 -0.133,0.224 -0.653,0.352 -1.038,0.385 -3.134,-1.622 -6.281,-4.487 -7.227,-5.385 v -0.115 h 1.773 1.756 c 0.534,0 0.967,-0.433 0.967,-0.967 0,-0.535 -0.433,-0.968 -0.967,-0.968 h -0.788 v -5.481 h 0.788 c 0.534,0 0.967,-0.433 0.967,-0.968 0,-0.534 -0.433,-0.968 -0.967,-0.968 H 76.936 75.2 v -0.657 c 1.752,-0.335 6.118,-1.108 9.139,-1.108 0.025,0 0.066,0.003 0.112,0.01 -0.085,0.144 -0.242,0.363 -0.521,0.664 h -2.564 c -0.534,0 -0.968,0.434 -0.968,0.968 0,0.534 0.434,0.968 0.968,0.968 h 2.312 c 0.571,1.599 1.896,6.267 -0.412,10.095 l -1.435,-0.785 c -0.471,-0.258 -1.058,-0.086 -1.313,0.383 -0.258,0.467 -0.086,1.055 0.381,1.312 z m 3.681,-19.166 -0.32,3.615 c -4.038,0.016 -9.973,1.248 -10.226,1.3 -0.449,0.094 -0.769,0.489 -0.769,0.947 v 1.452 h -14.67 v -3.62 c 0.055,-0.282 0.248,-0.818 0.939,-0.818 h 1.517 c 0.003,0 0.006,0 0.011,0 1.15,-0.008 2.847,-0.775 2.847,-2.866 v -5.313 c 0,-0.05 -0.003,-0.101 -0.011,-0.15 -0.034,-0.222 -0.078,-1.191 0.376,-1.524 0.186,-0.137 0.968,-0.493 3.275,0.645 5.704,2.808 11.828,6.029 11.89,6.061 0.061,0.033 0.126,0.06 0.194,0.078 0.188,0.051 1.847,0.465 3.082,-0.51 0.555,-0.301 1.341,-0.509 1.613,-0.348 0.128,0.076 0.271,0.412 0.252,1.051 z M 57.37,13.352 c 0.887,-0.574 3.259,-1.034 9.149,2.288 l 11.755,7.025 c 0.111,0.053 2.696,1.263 5.038,-0.342 0.241,-0.082 0.575,-0.113 0.641,-0.052 0.004,0.003 0.321,0.432 -0.214,2.239 -1.011,0.094 -1.915,0.588 -2.058,0.673 -0.051,0.028 -0.098,0.062 -0.142,0.099 -0.359,0.308 -1.016,0.258 -1.312,0.201 -0.859,-0.452 -6.521,-3.415 -11.822,-6.026 -2.384,-1.174 -4.111,-1.327 -5.28,-0.467 -1.345,0.99 -1.21,2.84 -1.151,3.3 v 5.247 c 0,0.749 -0.513,0.919 -0.931,0.93 h -1.509 c -2.02,0 -2.76,1.673 -2.867,2.559 -0.005,0.039 -0.007,0.078 -0.007,0.117 v 3.698 H 56.317 L 56.313,15.922 c -0.001,-0.019 -0.131,-1.8 1.057,-2.57 z m -3.52,28.906 v -5.481 h 22.119 v 5.481 H 74.197 59.534 55.918 Z m 1.504,5.05 c 0.048,-0.06 0.996,-1.31 1.389,-3.115 h 2.548 l 4.048,2.159 c 0.691,0.38 0.947,0.653 1.042,0.746 h -7.408 c -0.229,0 -0.449,0.08 -0.624,0.227 -3.033,2.554 -6.651,4.792 -10.449,6.728 l -0.094,-0.282 c 3.734,-1.935 7.469,-4.221 9.548,-6.463 z m -11.295,7.344 0.088,0.265 c -1.668,0.799 -3.355,1.541 -5.038,2.224 l -0.062,-0.177 c 1.484,-0.644 3.216,-1.429 5.012,-2.312 z m -9.434,4.131 c 0.153,-0.059 1.15,-0.44 2.638,-1.06 l 0.045,0.131 c -1.116,0.43 -2.22,0.833 -3.308,1.209 0.175,-0.109 0.399,-0.212 0.625,-0.28 z m -13.048,5.746 c 5.667,-1.133 15.221,-3.856 24.061,-8.187 0.002,-10e-4 0.004,0 0.006,-10e-4 0.008,-0.002 0.013,-0.008 0.02,-0.011 4.217,-2.067 8.271,-4.494 11.66,-7.298 h 7.468 c 0.159,0 0.317,-0.039 0.457,-0.115 0.509,-0.271 1.104,-0.887 1.107,-1.724 0.008,-1.388 -1.566,-2.254 -2.095,-2.544 l -0.854,-0.456 h 9.821 v 0.527 c 0,0.258 0.102,0.505 0.284,0.686 0.162,0.16 3.831,3.785 7.73,5.879 l 0.244,3.263 c -1.437,1.678 -3.527,2.954 -3.897,3.17 l -9.815,3.768 c -0.163,0.085 -1.596,0.865 -1.718,2.375 -0.037,0.452 0.056,0.9 0.268,1.345 -11.847,-3.198 -19.505,3.08 -19.607,3.167 -0.054,0.044 -1.354,1.1 -3.84,0.637 -3.4,-0.643 -6.759,1.673 -6.806,1.712 -4.459,2.4 -7.308,1.64 -7.327,1.634 -0.043,-0.013 -0.087,-0.022 -0.132,-0.03 -8.071,-1.258 -12.035,-3.828 -13.217,-4.728 0.105,-0.327 0.908,-2.013 6.182,-3.069 z m 55.768,15.78 H 41.488 c -0.514,0 -0.861,-0.039 -1.089,-0.081 1.988,-3.701 4.604,-5.651 7.599,-5.651 1.787,0 3.096,0.696 3.099,0.696 0,0 0,0 -0.002,0 0.081,0.049 1.994,1.183 4.094,1.183 1.344,0 2.472,-0.447 3.352,-1.328 2.052,-2.049 6.434,-2.277 6.434,-2.278 8.506,0 14.82,4.84 16.435,6.207 -0.514,0.806 -2.776,1.211 -4.065,1.252 z M 82.5,76.895 c -0.029,0.059 -0.104,0.183 -0.31,0.289 -2.32,-1.878 -8.66,-6.271 -17.257,-6.271 0,0 -0.001,0 -0.002,0 -0.211,0.011 -5.174,0.261 -7.759,2.846 -0.512,0.512 -1.16,0.761 -1.983,0.761 -1.553,0 -3.083,-0.898 -3.123,-0.921 -0.07,-0.039 -1.744,-0.958 -4.068,-0.958 -2.487,0 -5.917,1.055 -8.767,5.744 l -3.606,-0.366 c -4.668,-0.682 -17.24,-2.632 -19.334,-3.454 -1.988,-0.78 -2.135,-2.059 -2.139,-2.091 -0.003,-0.052 -0.01,-0.104 -0.021,-0.155 -0.353,-1.631 -0.044,-2.564 0.258,-3.052 1.576,1.163 5.782,3.694 13.875,4.965 0.564,0.142 3.876,0.806 8.819,-1.863 0.028,-0.019 2.826,-1.944 5.437,-1.457 3.464,0.656 5.388,-1.009 5.453,-1.064 0.424,-0.357 9.544,-7.753 23.555,-0.551 l 5.361,3.335 c 0.019,0.012 0.035,0.022 0.052,0.036 0.111,0.079 2.597,1.854 5.403,2.361 0.202,0.575 0.385,1.404 0.156,1.866 z m 2.843,-6.839 c -1.082,2.192 -3.139,2.896 -3.155,2.902 -0.024,0.008 -0.043,0.027 -0.066,0.038 -2.14,-0.548 -4.026,-1.883 -4.041,-1.895 -0.009,-0.007 -0.017,-0.012 -0.024,-0.018 -0.012,-0.007 -0.016,-0.018 -0.026,-0.025 l -0.08,-0.049 c -1.854,-1.354 -3.649,-2.451 -5.383,-3.347 l -3.392,-2.107 c -0.784,-0.583 -1.218,-1.141 -1.189,-1.532 0.024,-0.333 0.422,-0.663 0.646,-0.798 l 9.725,-3.726 c 0.043,-0.018 0.086,-0.039 0.127,-0.061 0.107,-0.061 2.378,-1.356 4.145,-3.257 0.014,0.025 0.025,0.049 0.026,0.053 l 2.544,6.289 c 1.054,3.053 1.103,5.588 0.143,7.533 z"
         id="path6" /><path
         style="fill:#000000"
         inkscape:connector-curvature="0"
         d="m 57.498,78.795 c 0.151,0.432 0.58,0.944 1.758,0.944 L 72.66,79.738 c 0,0 0.125,0.009 0.311,0.009 0.468,0 1.89,0 2.225,-1.073 0.337,-1.08 -0.841,-1.895 -1.344,-2.243 -1.811,-1.256 -4.599,-2.925 -7.873,-2.925 -2.54,0 -5.012,1.003 -7.327,2.963 -0.575,0.46 -1.489,1.372 -1.154,2.326 z m 8.481,-3.353 c 2.557,0 4.859,1.289 6.453,2.362 H 60.073 c 1.941,-1.589 3.875,-2.362 5.906,-2.362 z"
         id="path8" /><path
         style="fill:#000000"
         inkscape:connector-curvature="0"
         d="m 27.834,70.625 c -5.573,-0.758 -9.919,-3.316 -9.962,-3.343 -0.27,-0.161 -0.62,-0.071 -0.78,0.198 -0.161,0.271 -0.073,0.619 0.197,0.781 0.185,0.11 4.579,2.701 10.393,3.49 0.026,0.005 0.052,0.006 0.077,0.006 0.281,0 0.525,-0.207 0.564,-0.492 0.042,-0.312 -0.177,-0.598 -0.489,-0.64 z"
         id="path10" /><circle
         style="fill:#000000"
         cx="29.181999"
         cy="71.438004"
         r="0.53399998"
         id="circle12" /><path
         style="fill:#000000"
         inkscape:connector-curvature="0"
         d="m 53.435,76.961 c -3.321,-2.296 -6.591,-2.24 -9.285,0.04 -0.446,0.356 -1.151,1.078 -0.863,1.898 0.111,0.314 0.448,0.843 1.468,0.843 l 7.687,-0.002 c 0,0 0.09,0.007 0.225,0.007 0.985,0 1.585,-0.316 1.779,-0.939 0.293,-0.943 -0.655,-1.599 -1.011,-1.847 z m -7.072,0.842 c 1.46,-0.827 3.012,-0.824 4.709,0.003 z"
         id="path14" /><circle
         style="fill:#000000"
         cx="83.573997"
         cy="61.508999"
         r="0.57599998"
         id="circle16" /></g><path
       style="opacity:1;fill:#ffffff;fill-opacity:1;stroke:none;stroke-width:0.07517711;stroke-miterlimit:4;stroke-dasharray:none;stroke-opacity:1"
       d="m 36.428727,77.339916 c 0.179946,-0.216821 1.54703,-1.064975 2.176897,-1.35057 1.874984,-0.850158 3.846337,-0.935548 5.89717,-0.255437 0.806805,0.267557 2.380722,1.041694 3.069565,1.509775 l 0.340088,0.231095 h -5.797823 c -5.076279,0 -5.783894,-0.01679 -5.685897,-0.134863 z"
       id="path5675"
       inkscape:connector-curvature="0" /><path
       style="opacity:1;fill:#ffffff;fill-opacity:1;stroke:#ffffff;stroke-width:0.13258488;stroke-linejoin:round;stroke-miterlimit:4;stroke-dasharray:none;stroke-opacity:1"
       d="m 23.402916,77.360067 c 1.087499,-0.565449 2.554226,-0.572938 3.82848,-0.01954 l 0.322847,0.140208 -2.190744,-4.93e-4 -2.190745,-4.94e-4 z"
       id="path5677"
       inkscape:connector-curvature="0" /><path
       style="opacity:1;fill:#ffffff;fill-opacity:1;stroke:#ffffff;stroke-width:0.19553886;stroke-linejoin:round;stroke-miterlimit:4;stroke-dasharray:none;stroke-opacity:1"
       d="m 37.669537,77.437747 c -1.036754,-0.02041 -1.222966,-0.03489 -1.222966,-0.09509 0,-0.0619 0.925972,-0.671111 1.559974,-1.02633 2.12844,-1.192527 4.533678,-1.343501 6.86436,-0.430869 0.930082,0.364196 2.443183,1.151665 2.926291,1.522941 0.07852,0.06035 -0.0057,0.06141 -4.469404,0.05634 -2.502188,-0.0029 -5.048403,-0.01498 -5.658255,-0.02699 z"
       id="path5679"
       inkscape:connector-curvature="0" /><path
       style="opacity:1;fill:#ffffff;fill-opacity:1;stroke:#ffffff;stroke-width:0.02674218;stroke-linejoin:round;stroke-miterlimit:4;stroke-dasharray:none;stroke-opacity:1"
       d="m 30.23252,40.966327 v -2.608994 h 10.566425 10.566424 v 2.608994 2.608994 H 40.798945 30.23252 Z"
       id="path5685"
       inkscape:connector-curvature="0" /><path
       style="opacity:1;fill:#ff6600;fill-opacity:1;stroke:#ff6600;stroke-width:0.19076963;stroke-linejoin:round;stroke-miterlimit:4;stroke-dasharray:none;stroke-opacity:1"
       d="m 32.639955,36.36707 c -0.0381,-0.09928 -0.05236,-4.373593 -0.03169,-9.498483 l 0.03757,-9.317979 0.326124,-0.650061 c 0.479385,-0.955552 0.945609,-1.179932 2.41332,-1.161457 2.416346,0.03042 4.378623,0.939955 12.443492,5.7677 3.256555,1.949419 6.162322,3.613502 6.45726,3.697962 0.294937,0.08446 0.98064,0.153695 1.523783,0.153858 0.837134,2.48e-4 1.122471,-0.06285 1.873554,-0.414324 0.487312,-0.228041 0.969328,-0.41462 1.071144,-0.41462 0.297757,0 0.347004,0.337943 0.178998,1.228341 l -0.157392,0.834147 -0.590572,0.148707 c -0.324814,0.08179 -0.874937,0.292807 -1.222495,0.468927 -0.347558,0.176122 -0.829437,0.320221 -1.07084,0.320221 -0.313372,0 -2.170945,-0.873769 -6.49421,-3.05476 -3.330411,-1.680118 -6.431876,-3.177028 -6.892147,-3.326467 -1.947974,-0.632462 -3.466575,-0.191514 -4.230765,1.228465 -0.264141,0.490813 -0.283322,0.730952 -0.323015,4.04394 -0.0358,2.987831 -0.07349,3.556772 -0.248505,3.750428 -0.165602,0.183245 -0.424537,0.228287 -1.312389,0.228287 -1.381418,0 -2.037132,0.192005 -2.609125,0.763997 -0.779457,0.779458 -0.873105,1.149455 -0.835903,3.302611 0.02097,1.214052 -0.01631,1.944708 -0.101931,1.997626 -0.07425,0.04589 -0.166173,0.0022 -0.20427,-0.09707 z"
       id="path5687"
       inkscape:connector-curvature="0" /><path
       style="opacity:1;fill:#ff6600;fill-opacity:1;stroke:#ff6600;stroke-width:0.31190833;stroke-linejoin:round;stroke-miterlimit:4;stroke-dasharray:none;stroke-opacity:1"
       d="m 22.666438,54.667619 c 0,-0.07192 0.362239,-0.313628 0.804977,-0.53712 2.483331,-1.253582 5.8961,-3.517362 7.433821,-4.931051 0.968775,-0.890634 1.448503,-1.62297 1.887955,-2.882092 l 0.296843,-0.850515 1.110985,-0.03763 1.110984,-0.03763 2.18906,1.172678 c 1.203983,0.644973 2.306464,1.26174 2.449959,1.370593 0.235261,0.178468 -0.09383,0.198323 -3.349087,0.202064 l -3.609988,0.0042 -0.629627,0.480307 c -0.346296,0.26417 -0.981843,0.754336 -1.412327,1.089261 -2.218636,1.726137 -8.283555,5.355467 -8.283555,4.956992 z"
       id="path5689"
       inkscape:connector-curvature="0" /><path
       style="opacity:1;fill:#ff6600;fill-opacity:1;stroke:#ff6600;stroke-width:0.00533214;stroke-linejoin:round;stroke-miterlimit:4;stroke-dasharray:none;stroke-opacity:1"
       d="m 16.182744,57.732005 c -0.04547,-0.118051 -0.07034,-0.100437 0.491207,-0.347986 1.29287,-0.569944 2.456694,-1.106548 3.649466,-1.68266 0.373494,-0.180398 0.594645,-0.278861 0.599077,-0.266726 0.02065,0.05655 0.07261,0.212763 0.07261,0.218311 0,0.0166 -1.313947,0.626382 -2.153201,0.999272 -0.836921,0.371853 -1.619022,0.706153 -2.360197,1.008836 l -0.281935,0.115138 z"
       id="path5691"
       inkscape:connector-curvature="0" /><path
       style="opacity:1;fill:#ff6600;fill-opacity:1;stroke:#ff6600;stroke-width:0.00188519;stroke-linejoin:round;stroke-miterlimit:4;stroke-dasharray:none;stroke-opacity:1"
       d="m 11.386207,59.580548 c 0.126744,-0.07366 0.300032,-0.151336 0.455444,-0.204152 0.243221,-0.08265 1.494601,-0.581313 2.392523,-0.953385 l 0.201779,-0.08361 0.02048,0.05861 c 0.01126,0.03224 0.01905,0.06042 0.01729,0.06262 -0.0037,0.0047 -0.296061,0.116702 -0.741119,0.284053 -0.65645,0.246839 -1.230636,0.455842 -1.885193,0.686209 -0.411376,0.14478 -0.484563,0.170131 -0.490591,0.169929 -0.0029,-9.7e-5 0.01036,-0.0093 0.02938,-0.02028 z"
       id="path5693"
       inkscape:connector-curvature="0" /><path
       style="opacity:1;fill:#ff6600;fill-opacity:1;stroke:#ff6600;stroke-width:0.04265705;stroke-linejoin:round;stroke-miterlimit:4;stroke-dasharray:none;stroke-opacity:1"
       d="M 56.059711,72.481368 C 54.91908,72.0313 54.376553,71.717791 52.102925,70.194863 c -0.970766,-0.650242 -2.232867,-1.442084 -2.804668,-1.759651 -2.140234,-1.18864 -4.663691,-2.823284 -5.094447,-3.300081 -0.520867,-0.576537 -0.556356,-0.86608 -0.152194,-1.241675 0.161432,-0.150021 2.406798,-1.079333 4.989701,-2.065137 5.116478,-1.952781 5.907161,-2.369289 7.813018,-4.115661 0.848652,-0.777635 0.861757,-0.783973 0.979673,-0.473831 0.06573,0.17289 0.630817,1.571598 1.255744,3.10824 1.422614,3.498089 1.76988,4.799441 1.772836,6.643569 0.0036,2.248376 -0.666205,3.806724 -2.138424,4.975163 -0.621813,0.493506 -1.366246,0.901898 -1.623388,0.890582 -0.05612,-0.0025 -0.524595,-0.171225 -1.041065,-0.375013 z m 1.570437,-0.416493 c 1.910372,-1.265378 3.164551,-3.966537 2.894273,-6.233467 -0.111134,-0.932123 -0.426511,-2.180456 -0.669653,-2.650642 -0.211975,-0.409912 -0.695465,-0.493012 -0.966732,-0.166157 -0.134389,0.161929 -0.108054,0.383565 0.143375,1.20666 0.402288,1.316964 0.431314,3.165315 0.06528,4.156955 -0.364093,0.986377 -1.109113,1.994286 -1.946218,2.632961 -0.766263,0.584627 -0.896545,0.890553 -0.533753,1.253345 0.274149,0.274149 0.308265,0.267428 1.013431,-0.199655 z m 1.268696,-9.644568 c 0.29926,-0.16016 0.332661,-0.679489 0.05835,-0.907153 -0.244043,-0.202537 -0.793929,-0.07379 -0.903412,0.211524 -0.09003,0.234626 0.237688,0.830668 0.456726,0.830668 0.07481,0 0.249565,-0.06077 0.388342,-0.135039 z"
       id="path5695"
       inkscape:connector-curvature="0" /><path
       style="opacity:1;fill:#ff6600;fill-opacity:1;stroke:#ff6600;stroke-width:0.04265705;stroke-linejoin:round;stroke-miterlimit:4;stroke-dasharray:none;stroke-opacity:1"
       d="m 56.417533,50.027938 c -1.690865,-1.026985 -4.717821,-3.368742 -5.537526,-4.284021 l -0.248505,-0.27748 h 1.821916 c 1.653204,0 1.848353,-0.02463 2.107413,-0.265981 0.668685,-0.622976 0.137611,-1.690764 -0.840918,-1.690764 h -0.438982 v -2.543769 -2.543769 h 0.438982 c 0.619285,0 1.126942,-0.431271 1.124418,-0.955228 -0.0042,-0.863718 -0.344981,-1.001517 -2.477044,-1.001517 -1.700422,0 -1.713177,-0.0022 -1.671809,-0.292379 0.03886,-0.272566 0.187536,-0.31602 2.194105,-0.641283 3.319823,-0.538141 6.392035,-0.791613 6.392035,-0.527374 0,0.319879 -0.391876,0.417675 -1.689324,0.421587 -1.441143,0.0044 -1.658108,0.07404 -1.952883,0.627323 -0.212873,0.399553 0.01167,0.973109 0.461144,1.177902 0.177895,0.08106 0.842573,0.147372 1.477063,0.147372 h 1.153619 l 0.269303,1.010984 c 0.786984,2.954406 0.652854,5.781554 -0.373761,7.87797 l -0.296464,0.605399 -0.905393,-0.433898 c -1.066156,-0.510941 -1.528868,-0.43564 -1.806257,0.293948 -0.199,0.523411 0.06908,0.898693 1.014163,1.419718 1.357217,0.748232 1.54428,0.90832 1.734353,1.484243 0.199469,0.6044 0.131401,0.730088 -0.492251,0.908949 -0.364071,0.104415 -0.529591,0.04559 -1.457397,-0.517932 z"
       id="path5697"
       inkscape:connector-curvature="0" /><path
       style="opacity:1;fill:#cc0000;fill-opacity:1;stroke:#ff6600;stroke-width:0.04265705;stroke-linejoin:round;stroke-miterlimit:4;stroke-dasharray:none;stroke-opacity:1"
       d="M 4.9493231,72.014129 C 0.6462539,71.187035 -3.0979938,69.87233 -5.4100253,68.376684 -5.9185274,68.047736 -6.334575,67.721536 -6.334575,67.651795 c 0,-0.26359 1.0106889,-1.096259 1.8262958,-1.50462 1.1719617,-0.586782 1.7391951,-0.756924 5.0013222,-1.500143 12.607373,-2.872373 24.110188,-7.773454 31.735402,-13.521712 l 1.450083,-1.093144 h 3.717699 c 3.57257,0 3.731219,-0.01064 4.064023,-0.272417 0.696515,-0.54788 0.937947,-1.565948 0.547914,-2.310442 -0.273133,-0.521356 -0.961766,-1.136431 -1.7722,-1.582898 l -0.717474,-0.395256 4.598352,-0.0024 4.598351,-0.0024 -7.83e-4,0.423962 c -6.52e-4,0.361935 0.156617,0.573387 1.075205,1.445303 1.419319,1.347207 3.774561,3.176167 5.33263,4.141049 l 1.254264,0.776741 0.09423,1.530256 0.09423,1.530255 -0.95715,0.91601 c -1.656748,1.585538 -2.31447,1.928498 -7.519216,3.920795 -3.109932,1.190434 -4.891425,1.941083 -5.189162,2.186502 -0.818861,0.674975 -1.206173,1.876665 -0.907017,2.81415 0.0831,0.260403 0.06289,0.29902 -0.119794,0.228919 -0.120865,-0.04638 -0.817393,-0.21465 -1.547838,-0.373933 -1.163158,-0.253641 -1.716879,-0.289939 -4.458877,-0.292297 -2.772609,-0.0024 -3.283753,0.03095 -4.467776,0.291418 -2.767492,0.608796 -5.385315,1.694809 -7.441371,3.087076 -1.49966,1.015504 -2.252271,1.199072 -4.04499,0.986612 -2.329285,-0.27605 -3.422679,-0.0223 -6.483209,1.504574 -3.5773175,1.784701 -5.2060475,2.05944 -8.4792297,1.4303 z M 7.096542,71.758316 C 7.443076,71.340769 6.9341017,70.699356 6.4821074,70.984 c -0.4516604,0.284434 -0.29075,0.963723 0.2282864,0.963723 0.1259242,0 0.2996914,-0.08523 0.3861482,-0.189407 z M 5.8808111,71.334071 c 0.049476,-0.197134 0.011065,-0.389892 -0.099265,-0.498113 -0.098986,-0.0971 -0.9335569,-0.328313 -1.8546032,-0.513819 -2.1572181,-0.434482 -4.4328917,-1.197667 -6.4645843,-2.168005 -0.8892001,-0.424681 -1.7185205,-0.77215 -1.8429347,-0.77215 -0.327996,0 -0.5600634,0.340637 -0.47176,0.692466 0.1632292,0.65036 4.874326,2.592488 7.9299317,3.26908 2.3381211,0.517721 2.6711829,0.516598 2.8032155,-0.0094 z"
       id="path5699"
       inkscape:connector-curvature="0" /><path
       style="opacity:1;fill:#cc0000;fill-opacity:1;stroke:#ff6600;stroke-width:0.04265705;stroke-linejoin:round;stroke-miterlimit:4;stroke-dasharray:none;stroke-opacity:1"
       d="m 34.779829,34.627287 c 0.05302,-2.294678 0.08388,-2.336268 1.733304,-2.336268 1.201311,0 1.755668,-0.143792 2.39992,-0.622508 0.852727,-0.633624 0.925481,-0.999774 0.928697,-4.673851 0.0031,-3.576324 0.07353,-4.043303 0.630677,-4.183138 0.917291,-0.230224 3.132215,0.748273 11.031064,4.873247 l 3.408062,1.779775 0.913147,-9.54e-4 c 0.785436,-8.6e-4 1.049469,-0.06775 1.887841,-0.478282 1.794427,-0.878694 1.926057,-0.723337 1.695272,2.000853 l -0.162749,1.921087 -1.359724,0.08791 c -2.414964,0.156131 -7.71705,0.942402 -8.533589,1.265487 -0.447816,0.177184 -0.636558,0.620005 -0.636558,1.493468 v 0.711335 h -6.988918 -6.988918 z m 14.198875,-1.489695 c 0.959184,-0.496015 0.865021,-1.444059 -0.28006,-2.819623 -0.46257,-0.555677 -4.564539,-4.438653 -5.572233,-5.274747 -0.546735,-0.453631 -1.139826,-0.479622 -1.47583,-0.06467 -0.220973,0.272889 -0.240571,0.594173 -0.240571,3.943808 0,2.330854 0.05014,3.740417 0.138978,3.906397 0.07644,0.142824 0.26722,0.311352 0.423962,0.374504 0.156741,0.06316 1.711431,0.118544 3.454866,0.123092 2.584122,0.0068 3.240288,-0.02814 3.550888,-0.188756 z"
       id="path5701"
       inkscape:connector-curvature="0" /><path
       style="opacity:1;fill:#ffffff;fill-opacity:1;stroke:#ff6600;stroke-width:0.04265705;stroke-linejoin:round;stroke-miterlimit:4;stroke-dasharray:none;stroke-opacity:1"
       d="m 43.236306,29.6168 c 0,-0.968589 0.04462,-1.761071 0.09917,-1.761071 0.05454,0 0.920403,0.789454 1.924133,1.754342 l 1.824964,1.754341 -1.924133,0.0068 -1.924133,0.0068 z"
       id="path5703"
       inkscape:connector-curvature="0" /><path
       style="opacity:1;fill:#ffffff;fill-opacity:1;stroke:#ff6600;stroke-width:0.04265705;stroke-linejoin:round;stroke-miterlimit:4;stroke-dasharray:none;stroke-opacity:1"
       d="M 14.080801,77.798382 C 11.88001,77.55396 3.9770228,76.303001 -0.2034397,75.53734 -6.398596,74.402681 -7.30816,73.951968 -7.653427,71.845667 c -0.121689,-0.742353 -0.120837,-1.105867 0.0039,-1.663233 0.08779,-0.39229 0.212131,-0.713254 0.276312,-0.713254 0.06419,0 0.485563,0.239719 0.936405,0.532709 1.731306,1.125133 4.487121,2.268703 7.3891648,3.066256 1.8422612,0.506299 4.7217465,1.072863 6.0345448,1.187353 1.9276345,0.168109 4.7069054,-0.571464 7.2661514,-1.933545 2.477537,-1.318592 2.534993,-1.332135 5.697989,-1.343103 3.152396,-0.01093 3.207921,-0.02599 5.260705,-1.427273 1.422551,-0.971066 2.616518,-1.563309 4.241233,-2.103774 2.389002,-0.794708 3.226644,-0.914453 6.347699,-0.90743 3.237544,0.0072 4.335964,0.184109 7.239958,1.165491 2.50612,0.846922 3.668237,1.433277 7.085421,3.575002 1.69931,1.065044 3.412517,2.115483 3.807128,2.334307 0.770588,0.427317 2.869762,1.202444 3.256422,1.202444 0.278317,0 0.391926,0.348775 0.394389,1.210753 0.0011,0.407618 -0.05983,0.647375 -0.176056,0.691972 -0.09781,0.03753 -0.630416,-0.256468 -1.183568,-0.653337 -5.326286,-3.821435 -12.207292,-5.81629 -17.11218,-4.96095 -2.290491,0.399429 -4.217935,1.207095 -5.432954,2.276599 -0.329364,0.289917 -0.806726,0.613981 -1.060807,0.720142 -0.94851,0.396314 -2.311228,0.182324 -4.094109,-0.642905 -0.553959,-0.256407 -1.359413,-0.556224 -1.789896,-0.66626 -0.938432,-0.239872 -3.042579,-0.26704 -3.928061,-0.05072 -2.171116,0.530403 -4.340769,2.138963 -5.921549,4.390185 -0.565331,0.805099 -0.579941,0.815098 -1.166458,0.798249 -0.326675,-0.0093 -1.063574,-0.06922 -1.637553,-0.132966 z"
       id="path5705"
       inkscape:connector-curvature="0" /><path
       style="opacity:1;fill:#404040;fill-opacity:1;stroke:#ff6600;stroke-width:0;stroke-linejoin:round;stroke-miterlimit:4;stroke-dasharray:none;stroke-opacity:1"
       d="m 17.961679,79.810787 c -0.233179,-0.02894 -0.423961,-0.08638 -0.423961,-0.12765 0,-0.04127 0.336173,-0.580277 0.747053,-1.197789 1.045138,-1.570747 2.183817,-2.642881 3.499137,-3.294648 2.039882,-1.0108 3.886833,-0.972116 6.283288,0.131603 1.514869,0.697695 2.726635,0.976775 3.848457,0.886337 1.094738,-0.08825 1.761651,-0.384163 2.841423,-1.260734 0.999014,-0.811012 2.020243,-1.319131 3.456917,-1.720016 1.517373,-0.423403 4.999549,-0.421051 6.979058,0.0047 1.980939,0.426073 4.271424,1.22099 6.06591,2.105185 1.595474,0.786136 3.938073,2.253736 4.761415,2.982949 l 0.456573,0.404376 -0.324883,0.255509 c -0.401811,0.316008 -1.480063,0.625859 -2.752832,0.791062 -0.920115,0.11943 -34.49177,0.156474 -35.437555,0.0391 z m 12.172867,-0.618223 c 0.51344,-0.214529 0.837491,-0.804448 0.735364,-1.338693 -0.103066,-0.539159 -1.035369,-1.318483 -2.302112,-1.924364 -1.529294,-0.731459 -2.302608,-0.901333 -3.732083,-0.819829 -0.929915,0.05302 -1.315167,0.144096 -2.035575,0.481216 -1.108508,0.518734 -2.196375,1.330266 -2.455843,1.832021 -0.403849,0.780958 -0.147145,1.600632 0.585112,1.868313 0.107622,0.03935 2.120063,0.07617 4.472092,0.08183 3.475038,0.0084 4.361987,-0.02546 4.733045,-0.180494 z m 19.711557,-0.06189 c 0.62601,-0.284231 0.825836,-0.58392 0.825836,-1.238545 0,-0.349675 -0.115326,-0.592425 -0.465686,-0.980232 -0.885402,-0.980034 -3.428213,-2.429727 -5.40455,-3.081212 -0.985106,-0.324732 -1.305316,-0.366479 -2.869894,-0.374155 -1.497489,-0.0073 -1.907504,0.0371 -2.739443,0.297006 -2.158669,0.674378 -4.782616,2.439012 -5.340572,3.591592 -0.249569,0.515543 -0.269528,0.662271 -0.142458,1.047296 0.147769,0.447745 0.507219,0.773655 0.987953,0.895769 0.140505,0.03569 3.484092,0.07041 7.430195,0.07716 6.775904,0.01159 7.204966,-0.0014 7.718619,-0.234677 z"
       id="path5707"
       inkscape:connector-curvature="0" /></g></svg>