<?xml version="1.0" encoding="UTF-8" standalone="no"?>
<svg
   xmlns:dc="http://purl.org/dc/elements/1.1/"
   xmlns:cc="http://creativecommons.org/ns#"
   xmlns:rdf="http://www.w3.org/1999/02/22-rdf-syntax-ns#"
   xmlns:svg="http://www.w3.org/2000/svg"
   xmlns="http://www.w3.org/2000/svg"
   xmlns:sodipodi="http://sodipodi.sourceforge.net/DTD/sodipodi-0.dtd"
   xmlns:inkscape="http://www.inkscape.org/namespaces/inkscape"
   version="1.1"
   x="0px"
   y="0px"
   viewBox="0 0 85.001572 81.857002"
   enable-background="new 0 0 100 100"
   xml:space="preserve"
   id="svg138"
   sodipodi:docname="target_tune.svg"
   width="85.001572"
   height="81.857002"
   inkscape:version="0.92.0 unknown"><metadata
     id="metadata144"><rdf:RDF><cc:Work
         rdf:about=""><dc:format>image/svg+xml</dc:format><dc:type
           rdf:resource="http://purl.org/dc/dcmitype/StillImage" /></cc:Work></rdf:RDF></metadata><defs
     id="defs142" /><sodipodi:namedview
     pagecolor="#ffffff"
     bordercolor="#666666"
     borderopacity="1"
     objecttolerance="10"
     gridtolerance="10"
     guidetolerance="10"
     inkscape:pageopacity="0"
     inkscape:pageshadow="2"
     inkscape:window-width="1321"
     inkscape:window-height="744"
     id="namedview140"
     showgrid="false"
     inkscape:zoom="10.680141"
     inkscape:cx="46.017882"
     inkscape:cy="33.217253"
     inkscape:window-x="45"
     inkscape:window-y="24"
     inkscape:window-maximized="1"
     inkscape:current-layer="svg138" /><g
     id="g132"
     transform="translate(-7.5,-9.072)"><path
       d="m 37.185,56.649 c 0.292,-0.198 0.368,-0.594 0.171,-0.886 -0.287,-0.424 -0.542,-0.895 -0.759,-1.398 -0.14,-0.323 -0.517,-0.471 -0.837,-0.333 -0.323,0.139 -0.472,0.514 -0.333,0.837 0.248,0.576 0.542,1.118 0.874,1.609 0.123,0.182 0.323,0.28 0.528,0.28 0.123,10e-4 0.246,-0.035 0.356,-0.109 z"
       id="path2"
       inkscape:connector-curvature="0" /><path
       d="m 38.253,58.479 c 0.555,0.376 1.146,0.644 1.756,0.796 0.051,0.013 0.103,0.019 0.154,0.019 0.285,0 0.545,-0.194 0.617,-0.483 0.085,-0.341 -0.123,-0.688 -0.464,-0.772 -0.464,-0.114 -0.917,-0.321 -1.348,-0.612 -0.292,-0.198 -0.688,-0.122 -0.885,0.17 -0.197,0.289 -0.121,0.684 0.17,0.882 z"
       id="path4"
       inkscape:connector-curvature="0" /><path
       d="m 35.086,46.029 c -0.187,0.564 -0.333,1.153 -0.436,1.755 -0.06,0.347 0.173,0.675 0.52,0.734 0.037,0.007 0.073,0.011 0.109,0.011 0.304,0 0.574,-0.22 0.627,-0.529 0.093,-0.539 0.224,-1.067 0.39,-1.57 0.11,-0.335 -0.07,-0.695 -0.405,-0.805 -0.335,-0.109 -0.696,0.071 -0.805,0.404 z"
       id="path6"
       inkscape:connector-curvature="0" /><path
       d="m 37.471,42.146 c -0.438,0.406 -0.841,0.884 -1.199,1.42 -0.195,0.293 -0.116,0.688 0.176,0.884 0.109,0.072 0.231,0.107 0.353,0.107 0.206,0 0.408,-0.1 0.531,-0.283 0.303,-0.454 0.641,-0.856 1.005,-1.194 0.258,-0.239 0.273,-0.642 0.034,-0.9 -0.239,-0.259 -0.644,-0.273 -0.9,-0.034 z"
       id="path8"
       inkscape:connector-curvature="0" /><path
       d="m 41.902,40.628 c -0.639,-0.09 -1.31,-0.054 -1.947,0.112 -0.34,0.089 -0.544,0.437 -0.455,0.776 0.075,0.287 0.333,0.477 0.615,0.477 0.054,0 0.108,-0.007 0.162,-0.021 0.474,-0.124 0.972,-0.149 1.448,-0.084 0.347,0.046 0.67,-0.193 0.72,-0.542 0.048,-0.348 -0.195,-0.669 -0.543,-0.718 z"
       id="path10"
       inkscape:connector-curvature="0" /><path
       d="m 35.087,49.816 c -0.352,0.013 -0.627,0.308 -0.615,0.659 0.021,0.604 0.084,1.206 0.188,1.791 0.054,0.309 0.323,0.526 0.626,0.526 0.037,0 0.074,-0.003 0.111,-0.009 0.346,-0.061 0.578,-0.391 0.517,-0.737 -0.092,-0.527 -0.148,-1.071 -0.167,-1.616 -0.014,-0.351 -0.288,-0.628 -0.66,-0.614 z"
       id="path12"
       inkscape:connector-curvature="0" /><path
       d="m 42.69,59.161 c 0.071,0 0.144,-0.011 0.215,-0.037 0.584,-0.209 1.145,-0.526 1.666,-0.942 0.275,-0.219 0.32,-0.62 0.101,-0.895 -0.221,-0.276 -0.621,-0.318 -0.895,-0.101 -0.412,0.328 -0.849,0.577 -1.301,0.738 -0.331,0.119 -0.503,0.483 -0.385,0.813 0.093,0.262 0.338,0.424 0.599,0.424 z"
       id="path14"
       inkscape:connector-curvature="0" /><path
       d="m 44.529,41.786 c -0.278,-0.22 -0.678,-0.169 -0.894,0.107 -0.217,0.276 -0.169,0.677 0.108,0.894 0.387,0.305 0.75,0.678 1.079,1.109 0.126,0.164 0.315,0.251 0.508,0.251 0.135,0 0.27,-0.042 0.385,-0.13 0.28,-0.214 0.334,-0.613 0.121,-0.893 -0.394,-0.517 -0.834,-0.968 -1.307,-1.338 z"
       id="path16"
       inkscape:connector-curvature="0" /><path
       d="m 28.449,49.825 c -0.352,0.006 -0.632,0.296 -0.626,0.647 0.01,0.589 0.04,1.178 0.087,1.751 0.027,0.333 0.306,0.584 0.633,0.584 0.018,0 0.036,0 0.053,-0.001 0.351,-0.029 0.611,-0.337 0.582,-0.688 -0.045,-0.549 -0.072,-1.105 -0.082,-1.668 -0.005,-0.35 -0.263,-0.634 -0.647,-0.625 z"
       id="path18"
       inkscape:connector-curvature="0" /><path
       d="m 28.825,45.565 c -0.35,-0.051 -0.672,0.189 -0.723,0.537 -0.084,0.577 -0.151,1.164 -0.197,1.743 -0.027,0.351 0.234,0.657 0.584,0.685 0.018,0.002 0.034,0.003 0.051,0.003 0.329,0 0.608,-0.253 0.635,-0.586 0.043,-0.552 0.106,-1.11 0.187,-1.659 0.052,-0.348 -0.19,-0.672 -0.537,-0.723 z"
       id="path20"
       inkscape:connector-curvature="0" /><path
       d="m 32.986,64.652 c 0.143,0 0.286,-0.048 0.405,-0.145 0.272,-0.224 0.31,-0.625 0.087,-0.896 C 33.14,63.2 32.811,62.755 32.5,62.288 c -0.194,-0.294 -0.59,-0.373 -0.883,-0.18 -0.293,0.194 -0.373,0.591 -0.178,0.883 0.334,0.504 0.69,0.985 1.056,1.43 0.126,0.152 0.308,0.231 0.491,0.231 z"
       id="path22"
       inkscape:connector-curvature="0" /><path
       d="m 29.116,41.833 c -0.184,0.547 -0.352,1.115 -0.498,1.687 -0.087,0.341 0.119,0.688 0.459,0.775 0.052,0.014 0.106,0.02 0.158,0.02 0.284,0 0.542,-0.191 0.616,-0.479 0.139,-0.542 0.297,-1.079 0.471,-1.597 0.112,-0.334 -0.067,-0.695 -0.401,-0.807 -0.336,-0.111 -0.693,0.068 -0.805,0.401 z"
       id="path24"
       inkscape:connector-curvature="0" /><path
       d="m 29.802,58.238 c -0.327,0.127 -0.492,0.495 -0.366,0.824 0.214,0.556 0.449,1.101 0.698,1.618 0.109,0.229 0.336,0.361 0.575,0.361 0.092,0 0.186,-0.02 0.274,-0.063 0.317,-0.152 0.451,-0.532 0.298,-0.85 -0.233,-0.487 -0.455,-1 -0.656,-1.525 C 30.5,58.276 30.13,58.114 29.802,58.238 Z"
       id="path26"
       inkscape:connector-curvature="0" /><path
       d="m 29.251,57.023 c 0.053,0 0.107,-0.006 0.16,-0.02 0.341,-0.088 0.545,-0.436 0.458,-0.776 -0.138,-0.53 -0.259,-1.079 -0.361,-1.629 -0.063,-0.345 -0.4,-0.575 -0.742,-0.509 -0.346,0.063 -0.574,0.396 -0.51,0.741 0.107,0.579 0.234,1.156 0.379,1.715 0.075,0.289 0.334,0.478 0.616,0.478 z"
       id="path28"
       inkscape:connector-curvature="0" /><path
       d="m 51.932,41.756 c 0.186,0.512 0.356,1.045 0.506,1.584 0.079,0.281 0.335,0.466 0.613,0.466 0.057,0 0.114,-0.008 0.173,-0.024 0.338,-0.094 0.535,-0.445 0.44,-0.784 -0.159,-0.57 -0.34,-1.134 -0.535,-1.676 -0.119,-0.33 -0.482,-0.5 -0.816,-0.382 -0.331,0.12 -0.502,0.485 -0.381,0.816 z"
       id="path30"
       inkscape:connector-curvature="0" /><path
       d="m 35.833,67.39 c 0.104,0.064 0.22,0.096 0.334,0.096 0.213,0 0.422,-0.107 0.542,-0.302 0.185,-0.299 0.093,-0.691 -0.207,-0.877 -0.448,-0.277 -0.888,-0.598 -1.309,-0.95 -0.269,-0.228 -0.67,-0.192 -0.897,0.077 -0.227,0.269 -0.191,0.67 0.078,0.896 0.468,0.395 0.959,0.75 1.459,1.06 z"
       id="path32"
       inkscape:connector-curvature="0" /><path
       d="m 51.205,37.354 c -0.188,-0.299 -0.582,-0.388 -0.878,-0.2 -0.298,0.188 -0.388,0.581 -0.2,0.879 0.288,0.458 0.563,0.942 0.814,1.438 0.113,0.221 0.337,0.349 0.569,0.349 0.098,0 0.196,-0.022 0.289,-0.069 0.313,-0.159 0.438,-0.543 0.278,-0.856 -0.268,-0.531 -0.562,-1.049 -0.872,-1.541 z"
       id="path34"
       inkscape:connector-curvature="0" /><path
       d="m 36.45,33.728 c 0.462,-0.291 0.941,-0.54 1.423,-0.743 0.325,-0.136 0.477,-0.51 0.341,-0.834 -0.136,-0.324 -0.509,-0.478 -0.833,-0.34 -0.545,0.229 -1.086,0.511 -1.607,0.838 -0.299,0.187 -0.388,0.58 -0.201,0.878 0.12,0.192 0.328,0.298 0.54,0.298 0.115,-0.001 0.232,-0.032 0.337,-0.097 z"
       id="path36"
       inkscape:connector-curvature="0" /><path
       d="m 31.806,37.597 c -0.304,-0.18 -0.694,-0.079 -0.872,0.224 -0.293,0.496 -0.572,1.021 -0.83,1.562 -0.152,0.317 -0.017,0.697 0.301,0.849 0.088,0.042 0.182,0.063 0.273,0.063 0.238,0 0.467,-0.134 0.575,-0.363 0.241,-0.507 0.502,-0.998 0.776,-1.461 0.18,-0.305 0.08,-0.696 -0.223,-0.874 z"
       id="path38"
       inkscape:connector-curvature="0" /><path
       d="m 33.657,34.317 c -0.416,0.402 -0.822,0.845 -1.207,1.315 -0.222,0.272 -0.182,0.674 0.09,0.896 0.119,0.097 0.261,0.144 0.403,0.144 0.184,0 0.368,-0.08 0.494,-0.233 0.353,-0.434 0.726,-0.839 1.105,-1.206 0.253,-0.245 0.259,-0.648 0.015,-0.901 -0.244,-0.251 -0.647,-0.259 -0.9,-0.015 z"
       id="path40"
       inkscape:connector-curvature="0" /><path
       d="m 53.723,53.635 c -0.349,-0.059 -0.675,0.177 -0.733,0.524 -0.091,0.55 -0.2,1.1 -0.328,1.634 -0.081,0.343 0.131,0.686 0.473,0.768 0.05,0.012 0.1,0.017 0.147,0.017 0.289,0 0.549,-0.197 0.619,-0.489 0.134,-0.563 0.25,-1.142 0.346,-1.721 0.058,-0.347 -0.178,-0.677 -0.524,-0.733 z"
       id="path42"
       inkscape:connector-curvature="0" /><path
       d="m 51.037,61.712 c -0.297,-0.187 -0.69,-0.096 -0.877,0.203 -0.295,0.471 -0.612,0.926 -0.94,1.352 -0.216,0.278 -0.166,0.678 0.112,0.894 0.116,0.09 0.254,0.133 0.391,0.133 0.19,0 0.378,-0.085 0.504,-0.247 0.354,-0.459 0.696,-0.949 1.013,-1.456 0.187,-0.299 0.096,-0.693 -0.203,-0.879 z"
       id="path44"
       inkscape:connector-curvature="0" /><path
       d="m 51.908,60.625 c 0.242,0 0.473,-0.139 0.58,-0.373 0.237,-0.52 0.46,-1.07 0.662,-1.635 0.119,-0.331 -0.053,-0.696 -0.385,-0.815 -0.33,-0.118 -0.695,0.053 -0.814,0.385 -0.19,0.532 -0.399,1.05 -0.622,1.538 -0.146,0.32 -0.005,0.697 0.315,0.844 0.086,0.037 0.176,0.056 0.264,0.056 z"
       id="path46"
       inkscape:connector-curvature="0" /><path
       d="m 40.235,67.644 c -0.522,-0.062 -1.044,-0.173 -1.552,-0.332 -0.339,-0.106 -0.693,0.081 -0.798,0.418 -0.105,0.335 0.082,0.692 0.417,0.798 0.584,0.183 1.184,0.311 1.785,0.381 0.025,0.004 0.05,0.005 0.075,0.005 0.318,0 0.594,-0.239 0.632,-0.563 0.04,-0.351 -0.21,-0.666 -0.559,-0.707 z"
       id="path48"
       inkscape:connector-curvature="0" /><path
       d="m 44.146,67.174 c -0.504,0.184 -1.021,0.321 -1.537,0.409 -0.347,0.059 -0.581,0.388 -0.522,0.734 0.052,0.311 0.322,0.53 0.627,0.53 0.036,0 0.071,-0.002 0.107,-0.009 0.592,-0.1 1.185,-0.258 1.762,-0.469 0.331,-0.121 0.5,-0.486 0.379,-0.816 -0.12,-0.33 -0.486,-0.498 -0.816,-0.379 z"
       id="path50"
       inkscape:connector-curvature="0" /><path
       d="m 47.461,33.992 c -0.234,0.262 -0.213,0.664 0.05,0.899 0.396,0.354 0.782,0.745 1.147,1.162 0.126,0.145 0.302,0.218 0.479,0.218 0.149,0 0.298,-0.052 0.419,-0.158 0.264,-0.231 0.291,-0.634 0.061,-0.898 -0.4,-0.455 -0.821,-0.884 -1.258,-1.273 -0.259,-0.234 -0.664,-0.213 -0.898,0.05 z"
       id="path52"
       inkscape:connector-curvature="0" /><path
       d="m 39.463,31.811 c 0.04,0.322 0.314,0.559 0.631,0.559 0.026,0 0.053,-0.002 0.08,-0.005 0.521,-0.065 1.061,-0.081 1.586,-0.046 0.341,0.024 0.654,-0.243 0.676,-0.594 0.023,-0.352 -0.242,-0.654 -0.594,-0.678 -0.6,-0.039 -1.224,-0.021 -1.827,0.054 -0.348,0.043 -0.595,0.361 -0.552,0.71 z"
       id="path54"
       inkscape:connector-curvature="0" /><path
       d="m 46.64,67.235 c 0.123,0 0.245,-0.036 0.355,-0.109 0.485,-0.329 0.962,-0.703 1.416,-1.113 0.26,-0.235 0.28,-0.639 0.045,-0.898 -0.235,-0.263 -0.639,-0.282 -0.899,-0.047 -0.409,0.371 -0.839,0.708 -1.275,1.004 -0.292,0.196 -0.368,0.592 -0.171,0.884 0.123,0.182 0.323,0.279 0.529,0.279 z"
       id="path56"
       inkscape:connector-curvature="0" /><path
       d="m 46.17,32.363 c -0.537,-0.302 -1.092,-0.557 -1.651,-0.757 -0.333,-0.117 -0.697,0.054 -0.814,0.385 -0.119,0.332 0.054,0.696 0.385,0.814 0.492,0.177 0.981,0.4 1.456,0.668 0.098,0.056 0.206,0.081 0.312,0.081 0.223,0 0.438,-0.116 0.556,-0.324 0.171,-0.306 0.062,-0.695 -0.244,-0.867 z"
       id="path58"
       inkscape:connector-curvature="0" /><path
       d="m 21.307,57.063 c 0.348,-0.053 0.586,-0.378 0.532,-0.727 -0.084,-0.551 -0.159,-1.106 -0.223,-1.668 -0.039,-0.351 -0.347,-0.604 -0.705,-0.562 -0.349,0.039 -0.601,0.354 -0.561,0.704 0.065,0.579 0.142,1.152 0.229,1.72 0.049,0.315 0.32,0.541 0.629,0.541 0.034,0.001 0.066,-0.003 0.099,-0.008 z"
       id="path60"
       inkscape:connector-curvature="0" /><path
       d="m 20.808,52.819 c 0.352,-0.019 0.622,-0.316 0.604,-0.668 -0.028,-0.558 -0.045,-1.118 -0.052,-1.684 -0.004,-0.352 -0.265,-0.646 -0.645,-0.63 -0.352,0.005 -0.633,0.293 -0.629,0.645 0.007,0.582 0.024,1.161 0.054,1.734 0.018,0.34 0.298,0.604 0.635,0.604 0.012,10e-4 0.022,0 0.033,-10e-4 z"
       id="path62"
       inkscape:connector-curvature="0" /><path
       d="m 23.168,36.011 c 0.077,0.03 0.156,0.045 0.235,0.045 0.253,0 0.492,-0.152 0.592,-0.401 0.208,-0.525 0.428,-1.04 0.658,-1.544 0.146,-0.32 0.004,-0.698 -0.316,-0.844 -0.318,-0.146 -0.697,-0.005 -0.843,0.315 -0.238,0.522 -0.466,1.057 -0.683,1.602 -0.13,0.327 0.029,0.697 0.357,0.827 z"
       id="path64"
       inkscape:connector-curvature="0" /><path
       d="m 21.101,44.289 c 0.032,0.005 0.065,0.007 0.096,0.007 0.31,0 0.582,-0.226 0.629,-0.541 0.085,-0.559 0.181,-1.11 0.289,-1.657 0.068,-0.345 -0.157,-0.68 -0.502,-0.748 -0.345,-0.069 -0.679,0.157 -0.748,0.502 -0.111,0.564 -0.21,1.136 -0.298,1.712 -0.053,0.347 0.185,0.672 0.534,0.725 z"
       id="path66"
       inkscape:connector-curvature="0" /><path
       d="m 20.739,48.547 c 0.011,0.001 0.021,0.002 0.032,0.002 0.336,0 0.619,-0.266 0.635,-0.606 0.028,-0.564 0.066,-1.124 0.116,-1.679 0.031,-0.351 -0.228,-0.66 -0.577,-0.691 -0.361,-0.032 -0.66,0.227 -0.692,0.577 -0.051,0.572 -0.091,1.149 -0.119,1.731 -0.017,0.351 0.254,0.649 0.605,0.666 z"
       id="path68"
       inkscape:connector-curvature="0" /><path
       d="m 25.051,66.731 c -0.154,-0.314 -0.536,-0.446 -0.853,-0.291 -0.315,0.155 -0.445,0.537 -0.29,0.853 0.258,0.527 0.531,1.043 0.813,1.544 0.117,0.208 0.333,0.324 0.556,0.324 0.105,0 0.213,-0.026 0.312,-0.082 0.307,-0.172 0.415,-0.561 0.242,-0.867 -0.27,-0.481 -0.531,-0.976 -0.78,-1.481 z"
       id="path70"
       inkscape:connector-curvature="0" /><path
       d="m 22.706,60.449 c -0.144,-0.536 -0.279,-1.081 -0.4,-1.633 -0.077,-0.345 -0.417,-0.561 -0.76,-0.484 -0.343,0.076 -0.561,0.417 -0.484,0.76 0.127,0.57 0.265,1.133 0.414,1.688 0.076,0.283 0.334,0.471 0.615,0.471 0.054,0 0.11,-0.007 0.165,-0.021 0.34,-0.091 0.541,-0.441 0.45,-0.781 z"
       id="path72"
       inkscape:connector-curvature="0" /><path
       d="m 27.156,70.34 c -0.199,-0.289 -0.594,-0.361 -0.886,-0.164 -0.29,0.199 -0.363,0.596 -0.164,0.886 0.335,0.487 0.68,0.957 1.037,1.411 0.126,0.159 0.313,0.242 0.501,0.242 0.138,0 0.276,-0.044 0.393,-0.136 0.276,-0.218 0.324,-0.618 0.107,-0.895 -0.34,-0.432 -0.67,-0.88 -0.988,-1.344 z"
       id="path74"
       inkscape:connector-curvature="0" /><path
       d="m 24.028,64.433 c -0.206,-0.515 -0.401,-1.039 -0.585,-1.572 -0.114,-0.333 -0.475,-0.51 -0.809,-0.396 -0.333,0.115 -0.509,0.479 -0.395,0.81 0.191,0.554 0.393,1.098 0.607,1.632 0.1,0.249 0.338,0.4 0.591,0.4 0.079,0 0.159,-0.016 0.236,-0.046 0.327,-0.13 0.486,-0.502 0.355,-0.828 z"
       id="path76"
       inkscape:connector-curvature="0" /><path
       d="m 30.501,25.518 c 0.15,0 0.3,-0.053 0.421,-0.16 0.417,-0.368 0.849,-0.718 1.285,-1.042 0.282,-0.209 0.341,-0.608 0.132,-0.891 -0.21,-0.283 -0.608,-0.343 -0.891,-0.132 -0.465,0.345 -0.926,0.718 -1.369,1.11 -0.264,0.232 -0.289,0.635 -0.056,0.898 0.126,0.143 0.302,0.217 0.478,0.217 z"
       id="path78"
       inkscape:connector-curvature="0" /><path
       d="m 60.194,41.545 c 0.114,0.545 0.219,1.096 0.313,1.654 0.053,0.311 0.321,0.531 0.626,0.531 0.035,0 0.072,-0.003 0.106,-0.009 0.349,-0.059 0.582,-0.387 0.522,-0.734 -0.096,-0.575 -0.204,-1.144 -0.323,-1.706 -0.071,-0.345 -0.411,-0.563 -0.755,-0.491 -0.341,0.073 -0.562,0.411 -0.489,0.755 z"
       id="path80"
       inkscape:connector-curvature="0" /><path
       d="m 59.098,37.49 c 0.176,0.526 0.34,1.063 0.492,1.605 0.08,0.281 0.335,0.465 0.614,0.465 0.056,0 0.114,-0.008 0.172,-0.024 0.339,-0.095 0.536,-0.446 0.439,-0.785 -0.157,-0.563 -0.328,-1.117 -0.509,-1.663 -0.111,-0.333 -0.475,-0.516 -0.806,-0.403 -0.333,0.111 -0.514,0.471 -0.402,0.805 z"
       id="path82"
       inkscape:connector-curvature="0" /><path
       d="m 57.532,33.601 c 0.238,0.5 0.468,1.01 0.685,1.531 0.102,0.244 0.339,0.393 0.587,0.393 0.082,0 0.165,-0.016 0.244,-0.049 0.325,-0.135 0.479,-0.508 0.345,-0.833 -0.226,-0.541 -0.463,-1.072 -0.711,-1.592 -0.151,-0.316 -0.531,-0.45 -0.85,-0.299 -0.316,0.151 -0.451,0.532 -0.3,0.849 z"
       id="path84"
       inkscape:connector-curvature="0" /><path
       d="m 27.585,28.634 c 0.19,0 0.377,-0.085 0.502,-0.245 0.345,-0.441 0.705,-0.872 1.069,-1.277 0.235,-0.262 0.214,-0.664 -0.048,-0.899 -0.262,-0.233 -0.665,-0.214 -0.899,0.049 -0.384,0.427 -0.762,0.879 -1.125,1.344 -0.216,0.277 -0.167,0.678 0.109,0.895 0.118,0.089 0.256,0.133 0.392,0.133 z"
       id="path86"
       inkscape:connector-curvature="0" /><path
       d="m 26.45,29.555 c -0.298,-0.189 -0.69,-0.102 -0.88,0.194 -0.309,0.485 -0.608,0.985 -0.895,1.499 -0.172,0.307 -0.063,0.695 0.245,0.866 0.099,0.055 0.205,0.081 0.31,0.081 0.223,0 0.44,-0.117 0.556,-0.326 0.275,-0.492 0.563,-0.971 0.858,-1.436 0.19,-0.296 0.102,-0.69 -0.194,-0.878 z"
       id="path88"
       inkscape:connector-curvature="0" /><path
       d="m 56.356,31.381 c 0.117,0.203 0.331,0.316 0.551,0.316 0.109,0 0.219,-0.028 0.319,-0.087 0.304,-0.178 0.406,-0.567 0.229,-0.871 -0.296,-0.509 -0.605,-1.003 -0.924,-1.482 -0.196,-0.292 -0.591,-0.372 -0.884,-0.177 -0.292,0.195 -0.372,0.591 -0.176,0.884 0.306,0.458 0.601,0.931 0.885,1.417 z"
       id="path90"
       inkscape:connector-curvature="0" /><path
       d="m 29.788,73.563 c -0.247,-0.252 -0.649,-0.258 -0.901,-0.012 -0.252,0.245 -0.257,0.649 -0.012,0.9 0.412,0.422 0.841,0.829 1.276,1.21 0.121,0.105 0.271,0.157 0.419,0.157 0.178,0 0.354,-0.073 0.479,-0.217 0.231,-0.265 0.205,-0.667 -0.06,-0.899 -0.408,-0.357 -0.813,-0.741 -1.201,-1.139 z"
       id="path92"
       inkscape:connector-curvature="0" /><path
       d="m 53.986,27.951 c 0.126,0.154 0.309,0.234 0.492,0.234 0.143,0 0.285,-0.047 0.403,-0.144 0.271,-0.223 0.313,-0.624 0.091,-0.896 -0.369,-0.453 -0.759,-0.897 -1.159,-1.319 -0.24,-0.256 -0.644,-0.267 -0.898,-0.025 -0.258,0.241 -0.269,0.645 -0.026,0.9 0.378,0.4 0.746,0.82 1.097,1.25 z"
       id="path94"
       inkscape:connector-curvature="0" /><path
       d="m 21.903,40.093 c 0.055,0.014 0.109,0.021 0.164,0.021 0.282,0 0.54,-0.188 0.615,-0.474 0.145,-0.545 0.302,-1.083 0.469,-1.613 0.106,-0.335 -0.08,-0.693 -0.415,-0.799 -0.333,-0.105 -0.693,0.079 -0.799,0.414 -0.174,0.549 -0.336,1.106 -0.486,1.672 -0.09,0.339 0.112,0.688 0.452,0.779 z"
       id="path96"
       inkscape:connector-curvature="0" /><path
       d="m 59.932,62.015 c -0.328,-0.108 -0.694,0.072 -0.804,0.406 -0.178,0.536 -0.365,1.063 -0.564,1.58 -0.126,0.328 0.038,0.697 0.366,0.823 0.075,0.029 0.153,0.043 0.229,0.043 0.255,0 0.497,-0.156 0.594,-0.408 0.205,-0.537 0.401,-1.084 0.584,-1.64 0.11,-0.334 -0.071,-0.694 -0.405,-0.804 z"
       id="path98"
       inkscape:connector-curvature="0" /><path
       d="m 52.953,73.23 c -0.382,0.408 -0.779,0.801 -1.18,1.168 -0.26,0.238 -0.276,0.641 -0.039,0.9 0.126,0.137 0.297,0.206 0.469,0.206 0.154,0 0.309,-0.056 0.432,-0.166 0.424,-0.39 0.844,-0.807 1.249,-1.237 0.24,-0.258 0.226,-0.66 -0.03,-0.9 -0.257,-0.241 -0.663,-0.227 -0.901,0.029 z"
       id="path100"
       inkscape:connector-curvature="0" /><path
       d="m 60.969,57.869 c -0.346,-0.075 -0.682,0.148 -0.753,0.493 -0.116,0.554 -0.242,1.1 -0.38,1.639 -0.088,0.341 0.117,0.688 0.459,0.774 0.054,0.014 0.106,0.02 0.157,0.02 0.284,0 0.543,-0.19 0.617,-0.479 0.143,-0.556 0.272,-1.121 0.394,-1.691 0.071,-0.346 -0.15,-0.683 -0.494,-0.756 z"
       id="path102"
       inkscape:connector-curvature="0" /><path
       d="m 56.407,69.779 c -0.293,-0.195 -0.688,-0.114 -0.882,0.179 -0.312,0.47 -0.634,0.924 -0.966,1.362 -0.212,0.28 -0.157,0.68 0.123,0.892 0.116,0.088 0.251,0.13 0.385,0.13 0.192,0 0.383,-0.087 0.508,-0.252 0.348,-0.46 0.685,-0.936 1.012,-1.429 0.193,-0.293 0.114,-0.687 -0.18,-0.882 z"
       id="path104"
       inkscape:connector-curvature="0" /><path
       d="m 58.421,66.012 c -0.316,-0.152 -0.696,-0.015 -0.848,0.302 -0.242,0.511 -0.496,1.008 -0.758,1.494 -0.167,0.309 -0.053,0.694 0.256,0.863 0.096,0.052 0.2,0.077 0.303,0.077 0.226,0 0.445,-0.121 0.561,-0.334 0.274,-0.504 0.538,-1.023 0.79,-1.554 0.15,-0.317 0.014,-0.698 -0.304,-0.848 z"
       id="path106"
       inkscape:connector-curvature="0" /><path
       d="m 61.554,53.637 c -0.358,-0.027 -0.663,0.22 -0.698,0.569 -0.058,0.563 -0.126,1.119 -0.204,1.672 -0.05,0.348 0.191,0.67 0.539,0.72 0.031,0.005 0.062,0.007 0.092,0.007 0.312,0 0.583,-0.229 0.63,-0.546 0.081,-0.569 0.151,-1.145 0.211,-1.724 0.033,-0.351 -0.221,-0.663 -0.57,-0.698 z"
       id="path108"
       inkscape:connector-curvature="0" /><path
       d="m 33.986,23.061 c 0.102,0 0.207,-0.025 0.303,-0.077 0.482,-0.262 0.981,-0.5 1.481,-0.707 0.325,-0.135 0.479,-0.508 0.344,-0.832 -0.134,-0.325 -0.507,-0.479 -0.832,-0.345 -0.541,0.225 -1.079,0.481 -1.6,0.765 -0.31,0.167 -0.424,0.554 -0.256,0.863 0.115,0.211 0.334,0.333 0.56,0.333 z"
       id="path110"
       inkscape:connector-curvature="0" /><path
       d="m 37.962,21.545 c 0.047,0 0.096,-0.005 0.144,-0.017 0.531,-0.122 1.071,-0.213 1.607,-0.271 0.35,-0.038 0.603,-0.353 0.566,-0.701 -0.038,-0.351 -0.358,-0.601 -0.702,-0.565 -0.586,0.063 -1.177,0.163 -1.756,0.296 -0.342,0.079 -0.557,0.42 -0.479,0.763 0.068,0.295 0.33,0.495 0.62,0.495 z"
       id="path112"
       inkscape:connector-curvature="0" /><path
       d="m 38.192,78.491 c -0.525,-0.116 -1.053,-0.267 -1.571,-0.444 -0.331,-0.114 -0.695,0.062 -0.81,0.394 -0.114,0.333 0.062,0.695 0.394,0.811 0.563,0.194 1.139,0.356 1.711,0.484 0.046,0.01 0.093,0.015 0.139,0.015 0.292,0 0.555,-0.202 0.621,-0.499 0.077,-0.345 -0.139,-0.685 -0.484,-0.761 z"
       id="path114"
       inkscape:connector-curvature="0" /><path
       d="m 51.079,24.995 c 0.119,0.1 0.264,0.148 0.408,0.148 0.182,0 0.362,-0.078 0.488,-0.229 0.226,-0.271 0.189,-0.672 -0.079,-0.897 -0.456,-0.381 -0.929,-0.741 -1.404,-1.071 -0.288,-0.201 -0.685,-0.13 -0.887,0.159 -0.201,0.289 -0.13,0.686 0.16,0.887 0.444,0.308 0.886,0.646 1.314,1.003 z"
       id="path116"
       inkscape:connector-curvature="0" /><path
       d="m 34.369,77.06 c -0.475,-0.253 -0.95,-0.539 -1.413,-0.847 -0.292,-0.195 -0.689,-0.115 -0.882,0.177 -0.195,0.294 -0.116,0.688 0.177,0.885 0.497,0.329 1.008,0.636 1.518,0.908 0.096,0.052 0.198,0.075 0.299,0.075 0.228,0 0.448,-0.121 0.563,-0.335 0.165,-0.311 0.048,-0.697 -0.262,-0.863 z"
       id="path118"
       inkscape:connector-curvature="0" /><path
       d="m 42.251,78.785 c -0.539,0.039 -1.088,0.049 -1.634,0.025 -0.364,-0.016 -0.648,0.258 -0.663,0.609 -0.015,0.352 0.258,0.648 0.61,0.663 0.214,0.01 0.429,0.014 0.646,0.014 0.381,0 0.759,-0.014 1.135,-0.041 0.351,-0.027 0.614,-0.333 0.588,-0.684 -0.026,-0.349 -0.337,-0.607 -0.682,-0.586 z"
       id="path120"
       inkscape:connector-curvature="0" /><path
       d="m 42.16,21.209 c 0.542,0.037 1.086,0.106 1.62,0.207 0.04,0.008 0.08,0.012 0.119,0.012 0.3,0 0.567,-0.214 0.625,-0.52 0.065,-0.346 -0.163,-0.679 -0.508,-0.743 -0.582,-0.11 -1.177,-0.187 -1.769,-0.227 -0.337,-0.029 -0.654,0.241 -0.678,0.592 -0.025,0.351 0.241,0.656 0.591,0.679 z"
       id="path122"
       inkscape:connector-curvature="0" /><path
       d="m 46.139,22.075 c 0.506,0.188 1.014,0.408 1.505,0.653 0.091,0.046 0.188,0.067 0.283,0.067 0.233,0 0.459,-0.129 0.57,-0.353 0.158,-0.314 0.03,-0.697 -0.285,-0.854 -0.532,-0.267 -1.08,-0.505 -1.629,-0.709 -0.331,-0.122 -0.696,0.045 -0.819,0.376 -0.122,0.331 0.047,0.697 0.375,0.82 z"
       id="path124"
       inkscape:connector-curvature="0" /><path
       d="m 49.841,75.955 c -0.453,0.318 -0.921,0.616 -1.39,0.885 -0.306,0.174 -0.412,0.563 -0.237,0.868 0.117,0.206 0.331,0.322 0.554,0.322 0.106,0 0.214,-0.027 0.313,-0.085 0.506,-0.286 1.009,-0.606 1.492,-0.948 0.289,-0.202 0.357,-0.601 0.154,-0.888 -0.201,-0.286 -0.598,-0.356 -0.886,-0.154 z"
       id="path126"
       inkscape:connector-curvature="0" /><path
       d="m 46.226,77.893 c -0.515,0.195 -1.04,0.361 -1.562,0.494 -0.341,0.087 -0.546,0.434 -0.459,0.774 0.074,0.288 0.333,0.479 0.616,0.479 0.053,0 0.105,-0.007 0.159,-0.02 0.567,-0.145 1.138,-0.325 1.696,-0.538 0.329,-0.124 0.495,-0.492 0.37,-0.82 -0.124,-0.328 -0.497,-0.494 -0.82,-0.369 z"
       id="path128"
       inkscape:connector-curvature="0" /><path
       d="m 88.356,52.005 h 1.339 c 0.174,0 0.338,-0.071 0.459,-0.195 l 1.329,-1.38 c 0.236,-0.246 0.236,-0.637 0,-0.883 l -1.329,-1.38 c -0.121,-0.126 -0.285,-0.195 -0.459,-0.195 h -1.311 l 3.897,-3.41 c 0.201,-0.175 0.271,-0.455 0.178,-0.703 -0.095,-0.249 -0.332,-0.413 -0.597,-0.413 h -8.58 c -0.154,0 -0.304,0.056 -0.419,0.157 l -4.994,4.369 H 69.825 C 69.084,26.11 56.602,9.072 41.21,9.072 H 35.308 C 19.715,9.071 7.5,27.05 7.5,50 c 0,22.951 12.215,40.929 27.81,40.929 h 5.902 c 15.4,0 27.884,-17.048 28.619,-38.924 h 8.012 l 5.022,4.394 c 0.115,0.102 0.265,0.157 0.419,0.157 h 8.58 c 0.265,0 0.502,-0.165 0.597,-0.412 0.093,-0.249 0.023,-0.529 -0.178,-0.704 z m -4.834,-7.286 h 6.646 l -3.717,3.253 H 79.805 Z M 8.773,50 C 8.773,28.431 19.741,11.396 33.98,10.394 21.667,14.982 12.552,30.998 12.552,50 c 0,19.001 9.115,35.018 21.428,39.606 C 19.741,88.604 8.773,71.57 8.773,50 Z m 32.438,39.654 c -15.1,0 -27.385,-17.789 -27.385,-39.654 0,-21.866 12.285,-39.654 27.385,-39.654 14.69,0 26.608,16.476 27.342,37.626 H 61.67 c 0.345,-0.028 0.607,-0.325 0.586,-0.673 -0.037,-0.581 -0.085,-1.158 -0.144,-1.729 -0.036,-0.35 -0.336,-0.598 -0.699,-0.568 -0.351,0.036 -0.604,0.349 -0.567,0.699 0.057,0.554 0.103,1.114 0.138,1.678 0.021,0.33 0.29,0.582 0.613,0.594 h -7.591 c 0.289,-0.085 0.493,-0.354 0.461,-0.663 -0.056,-0.576 -0.134,-1.161 -0.231,-1.74 -0.059,-0.346 -0.375,-0.578 -0.733,-0.522 -0.347,0.059 -0.58,0.388 -0.522,0.734 0.093,0.55 0.167,1.105 0.221,1.652 0.026,0.261 0.205,0.463 0.439,0.539 h -5.408 l 0.624,-2.231 c 0.021,-0.076 0.023,-0.152 0.017,-0.228 -0.002,-0.022 -0.007,-0.042 -0.012,-0.064 -0.01,-0.053 -0.026,-0.104 -0.05,-0.152 -0.01,-0.021 -0.02,-0.041 -0.031,-0.061 -0.031,-0.049 -0.069,-0.093 -0.113,-0.133 -0.013,-0.012 -0.021,-0.025 -0.036,-0.036 -0.002,-0.002 -0.003,-0.005 -0.007,-0.008 -0.06,-0.044 -0.126,-0.074 -0.193,-0.096 -0.006,-0.002 -0.009,-0.006 -0.016,-0.008 -0.013,-0.004 -0.028,0 -0.041,-0.003 -0.057,-0.012 -0.111,-0.017 -0.168,-0.013 -0.028,0.002 -0.053,0.004 -0.079,0.009 -0.052,0.009 -0.098,0.026 -0.146,0.048 -0.02,0.01 -0.043,0.016 -0.062,0.027 -0.005,0.002 -0.011,0.003 -0.015,0.006 l -0.761,0.479 c -0.137,-0.313 -0.489,-0.466 -0.81,-0.345 -0.328,0.126 -0.492,0.495 -0.366,0.823 0.026,0.069 0.048,0.143 0.072,0.214 l -2.597,1.632 c -0.508,-0.94 -1.327,-1.521 -2.232,-1.521 -1.547,0 -2.76,1.62 -2.76,3.688 0,2.069 1.212,3.689 2.76,3.689 0.915,0 1.735,-0.588 2.243,-1.54 l 2.635,1.656 c -0.042,0.051 -0.082,0.102 -0.104,0.166 -0.196,0.513 -0.429,0.998 -0.695,1.441 -0.181,0.302 -0.083,0.692 0.22,0.873 0.102,0.063 0.215,0.091 0.326,0.091 0.217,0 0.428,-0.109 0.547,-0.309 0.295,-0.492 0.554,-1.03 0.771,-1.594 l 0.751,0.472 c 0.028,0.019 0.06,0.027 0.092,0.041 0.02,0.008 0.038,0.02 0.058,0.025 0.062,0.02 0.124,0.031 0.189,0.031 0.006,10e-4 0.013,0 0.017,0 0.013,0 0.022,-0.006 0.034,-0.007 0.042,-0.004 0.082,-0.005 0.121,-0.017 0.01,-0.003 0.017,-0.01 0.025,-0.014 0.072,-0.021 0.138,-0.056 0.197,-0.101 0.002,0 0.003,-0.002 0.003,-0.002 0.152,-0.117 0.256,-0.292 0.256,-0.498 0,-0.055 -0.025,-0.102 -0.038,-0.153 -0.002,-0.006 0,-0.012 -0.002,-0.019 l -0.036,-0.128 c -0.002,-0.002 0,-0.003 -0.002,-0.005 l -0.586,-2.097 h 5.125 c 0.1,0.188 0.282,0.329 0.511,0.344 0.016,0 0.028,10e-4 0.043,10e-4 0.242,0 0.455,-0.14 0.561,-0.345 h 6.643 c 0.103,0.193 0.294,0.334 0.529,0.344 0.008,0 0.017,0 0.024,0 0.244,0 0.453,-0.141 0.56,-0.344 h 6.327 C 67.83,73.169 55.908,89.654 41.211,89.654 Z m -0.339,-39.127 1.502,0.943 c -0.283,0.577 -0.717,0.945 -1.163,0.945 -0.805,0 -1.486,-1.106 -1.486,-2.416 0,-1.309 0.681,-2.415 1.486,-2.415 0.439,0 0.87,0.36 1.152,0.926 l -1.492,0.938 c -0.185,0.117 -0.298,0.321 -0.298,0.54 0,0.219 0.114,0.422 0.299,0.539 z m 1.535,-0.539 4.775,-3.001 -0.796,2.829 c -0.033,0.112 -0.033,0.231 0,0.345 l 0.796,2.827 z m 5.463,0.743 -0.209,-0.743 0.209,-0.743 h 41.555 l 0.715,0.743 -0.715,0.743 z m 35.652,4.551 -3.745,-3.277 h 6.646 l 3.745,3.277 z"
       id="path130"
       inkscape:connector-curvature="0" /></g><path
     style="fill:#008000;fill-opacity:1;stroke:#001000;stroke-width:0.00662076;stroke-miterlimit:4;stroke-dasharray:none;stroke-opacity:1"
     d="m 34.89857,49.996293 c -0.217708,-0.121375 -0.316151,-0.290287 -0.316151,-0.542463 0,-0.285998 0.174188,-0.476846 0.620724,-0.680094 0.223022,-0.101511 0.612651,-0.32204 0.865843,-0.490062 0.512526,-0.340122 0.635996,-0.363166 0.942971,-0.175992 0.240846,0.146853 0.349283,0.504288 0.231448,0.762907 -0.142171,0.31203 -1.442231,1.100058 -1.965806,1.191568 -0.11619,0.02031 -0.273495,-0.007 -0.379029,-0.06586 z"
     id="path251"
     inkscape:connector-curvature="0" /><path
     style="fill:#008000;fill-opacity:1;stroke:#001000;stroke-width:0.00662076;stroke-miterlimit:4;stroke-dasharray:none;stroke-opacity:1"
     d="m 32.198944,50.106634 c -0.441221,-0.145924 -1.148307,-0.496621 -1.434585,-0.711519 -0.375554,-0.281915 -0.348527,-0.849695 0.05026,-1.055918 0.27273,-0.141034 0.350206,-0.12509 0.943782,0.194228 0.296918,0.159729 0.697817,0.341399 0.890885,0.40371 0.444695,0.143522 0.608977,0.315854 0.608977,0.638818 0,0.305261 -0.215488,0.573957 -0.496557,0.619165 -0.109242,0.01757 -0.362487,-0.02225 -0.562765,-0.08848 z"
     id="path253"
     inkscape:connector-curvature="0" /><path
     style="fill:#008000;fill-opacity:1;stroke:#001000;stroke-width:0.00662076;stroke-miterlimit:4;stroke-dasharray:none;stroke-opacity:1"
     d="m 28.863277,47.428127 c -0.290807,-0.308517 -0.967828,-1.63531 -0.967828,-1.896703 0,-0.287415 0.309474,-0.598797 0.595128,-0.598797 0.332116,0 0.449127,0.105388 0.724002,0.652088 0.142244,0.282909 0.365352,0.691378 0.495796,0.907708 0.2819,0.46751 0.296478,0.677232 0.06611,0.951014 -0.139353,0.165612 -0.221457,0.203702 -0.439083,0.203702 -0.217217,0 -0.306598,-0.04129 -0.47412,-0.219012 z"
     id="path255"
     inkscape:connector-curvature="0" /><path
     style="fill:#008000;fill-opacity:1;stroke:#001000;stroke-width:0.00662076;stroke-miterlimit:4;stroke-dasharray:none;stroke-opacity:1"
     d="m 27.426258,43.589817 c -0.171924,-0.131999 -0.241624,-0.318157 -0.315275,-0.842042 -0.14976,-1.065267 -0.160431,-1.428356 -0.04835,-1.6451 0.201935,-0.390498 0.653505,-0.465534 0.957225,-0.159058 0.16516,0.166659 0.188123,0.25493 0.27127,1.04277 0.127624,1.209273 0.122923,1.32312 -0.06279,1.520802 -0.119404,0.1271 -0.222427,0.166985 -0.427193,0.165387 -0.148413,-0.0012 -0.317113,-0.0384 -0.37489,-0.08276 z"
     id="path257"
     inkscape:connector-curvature="0" /><path
     style="fill:#008000;fill-opacity:1;stroke:#001000;stroke-width:0.00662076;stroke-miterlimit:4;stroke-dasharray:none;stroke-opacity:1"
     d="m 27.360695,39.243864 c -0.248462,-0.248463 -0.248687,-0.436882 -0.0017,-1.404942 0.25295,-0.991327 0.296729,-1.0914 0.530294,-1.212181 0.246205,-0.127318 0.359613,-0.128515 0.595963,-0.0063 0.366532,0.189541 0.378152,0.373311 0.09513,1.504372 -0.285875,1.142441 -0.387801,1.312575 -0.78635,1.312575 -0.176798,0 -0.290693,-0.05086 -0.433359,-0.19353 z"
     id="path259"
     inkscape:connector-curvature="0" /><path
     style="fill:#008000;fill-opacity:1;stroke:#001000;stroke-width:0.00662076;stroke-miterlimit:4;stroke-dasharray:none;stroke-opacity:1"
     d="m 28.88347,35.271406 c -0.311852,-0.311852 -0.270887,-0.556358 0.19731,-1.177704 0.214963,-0.285276 0.541414,-0.659528 0.725448,-0.83167 0.286059,-0.267575 0.373879,-0.312986 0.605283,-0.312986 0.373686,0 0.595696,0.223089 0.595696,0.59859 0,0.242721 -0.04355,0.319586 -0.386214,0.681637 -0.212417,0.224437 -0.497751,0.557035 -0.634076,0.739106 -0.410117,0.54774 -0.762078,0.644395 -1.103447,0.303027 z"
     id="path261"
     inkscape:connector-curvature="0" /><path
     style="fill:#008000;fill-opacity:1;stroke:#001000;stroke-width:0.00662076;stroke-miterlimit:4;stroke-dasharray:none;stroke-opacity:1"
     d="m 32.259415,32.802879 c -0.394652,-0.321433 -0.303276,-0.955168 0.159755,-1.107982 0.354609,-0.117032 1.284547,-0.20227 1.715414,-0.157236 0.525577,0.05493 0.778873,0.256266 0.778873,0.619087 0,0.174677 -0.05056,0.313893 -0.160183,0.441016 -0.152543,0.176903 -0.188068,0.185902 -0.744836,0.188684 -0.321559,0.0016 -0.823,0.02521 -1.114314,0.05246 -0.395834,0.03702 -0.556203,0.02792 -0.634709,-0.03603 z"
     id="path263"
     inkscape:connector-curvature="0" /><path
     style="fill:#008000;fill-opacity:1;stroke:#001000;stroke-width:0.00662076;stroke-miterlimit:4;stroke-dasharray:none;stroke-opacity:1"
     d="m 36.829493,34.266438 c -0.740766,-0.750835 -0.790506,-0.817679 -0.790506,-1.062331 0,-0.358375 0.227993,-0.586099 0.58679,-0.586099 0.212343,0 0.331586,0.05687 0.631518,0.301194 0.203361,0.165657 0.548717,0.51381 0.767457,0.773673 0.348851,0.414435 0.397709,0.506848 0.397709,0.752243 0,0.23112 -0.03542,0.309566 -0.203702,0.451168 -0.381743,0.321215 -0.506972,0.26444 -1.389266,-0.629848 z"
     id="path265"
     inkscape:connector-curvature="0" /><path
     style="fill:#008000;fill-opacity:1;stroke:#001000;stroke-width:0.00662076;stroke-miterlimit:4;stroke-dasharray:none;stroke-opacity:1"
     d="M 19.839883,19.478591 C 19.588176,19.3691 19.48708,19.20017 19.48708,18.889063 c 0,-0.195816 0.101151,-0.352654 0.659431,-1.022473 0.362687,-0.435147 0.707748,-0.809718 0.766803,-0.83238 0.413652,-0.158733 0.891033,0.149603 0.891033,0.57551 0,0.193979 -0.103306,0.353335 -0.665046,1.02587 -0.446806,0.534933 -0.732492,0.819729 -0.870579,0.867866 -0.113043,0.03941 -0.208535,0.07048 -0.212205,0.06906 -0.0037,-0.0014 -0.101155,-0.04369 -0.216634,-0.09392 z"
     id="path267"
     inkscape:connector-curvature="0" /><path
     style="fill:#008000;fill-opacity:1;stroke:#001000;stroke-width:0.00662076;stroke-miterlimit:4;stroke-dasharray:none;stroke-opacity:1"
     d="m 17.27501,22.880407 c -0.09427,-0.112036 -0.171405,-0.279681 -0.171405,-0.372543 0,-0.336896 0.980731,-1.919756 1.276378,-2.060021 0.228666,-0.108488 0.593141,-0.0072 0.74275,0.206383 0.184294,0.263117 0.118058,0.501294 -0.370533,1.332391 -0.603221,1.026085 -0.66993,1.097493 -1.025278,1.097493 -0.231951,0 -0.310178,-0.03526 -0.451912,-0.203703 z"
     id="path269"
     inkscape:connector-curvature="0" /><path
     style="fill:#008000;fill-opacity:1;stroke:#001000;stroke-width:0.00662076;stroke-miterlimit:4;stroke-dasharray:none;stroke-opacity:1"
     d="m 15.680141,26.930275 c -0.221539,-0.09487 -0.376689,-0.316924 -0.382956,-0.548106 -0.0085,-0.312733 0.645493,-1.828999 0.887048,-2.056666 0.246831,-0.23264 0.513749,-0.236282 0.781877,-0.01067 0.157587,0.132601 0.203703,0.225044 0.203703,0.408341 0,0.260719 -0.666358,1.895285 -0.849374,2.083502 -0.134612,0.138438 -0.459284,0.201109 -0.640298,0.123596 z"
     id="path271"
     inkscape:connector-curvature="0" /><path
     style="fill:#008000;fill-opacity:1;stroke:#001000;stroke-width:0.00662076;stroke-miterlimit:4;stroke-dasharray:none;stroke-opacity:1"
     d="m 14.249266,30.929737 c -0.09511,-0.05169 -0.211316,-0.186654 -0.25823,-0.299915 -0.07696,-0.185788 -0.05796,-0.300984 0.194269,-1.177859 0.28452,-0.98915 0.378805,-1.171863 0.660226,-1.279451 0.205832,-0.07869 0.570024,0.0396 0.70199,0.228006 0.149174,0.212977 0.121324,0.455574 -0.164944,1.43677 -0.199262,0.682981 -0.301204,0.92894 -0.432196,1.04277 -0.194706,0.169196 -0.448164,0.187156 -0.701115,0.04968 z"
     id="path273"
     inkscape:connector-curvature="0" /><path
     style="fill:#008000;fill-opacity:1;stroke:#001000;stroke-width:0.00662076;stroke-miterlimit:4;stroke-dasharray:none;stroke-opacity:1"
     d="m 13.283807,35.040203 c -0.162371,-0.139767 -0.184999,-0.204381 -0.179692,-0.513109 0.0099,-0.577404 0.28616,-1.877996 0.432154,-2.034702 0.375486,-0.403037 1.051908,-0.154385 1.05109,0.386379 -1.99e-4,0.129687 -0.07203,0.637262 -0.159625,1.127945 -0.139144,0.779426 -0.181393,0.911182 -0.334373,1.04277 -0.234867,0.202024 -0.568518,0.198198 -0.809554,-0.0093 z"
     id="path275"
     inkscape:connector-curvature="0" /><path
     style="fill:#008000;fill-opacity:1;stroke:#001000;stroke-width:0.00662076;stroke-miterlimit:4;stroke-dasharray:none;stroke-opacity:1"
     d="m 12.820334,39.265014 -0.17238,-0.17238 0.0448,-0.992744 c 0.047,-1.041555 0.128234,-1.378864 0.362231,-1.504095 0.174502,-0.09339 0.445539,-0.09102 0.626731,0.0055 0.302074,0.160886 0.317009,0.228599 0.275057,1.247131 -0.04359,1.058201 -0.103493,1.340788 -0.31576,1.489466 -0.231065,0.161844 -0.620549,0.127264 -0.820676,-0.07286 z"
     id="path277"
     inkscape:connector-curvature="0" /><path
     style="fill:#008000;fill-opacity:1;stroke:#001000;stroke-width:0.00662076;stroke-miterlimit:4;stroke-dasharray:none;stroke-opacity:1"
     d="m 12.891112,43.585017 c -0.216038,-0.185828 -0.275477,-0.53831 -0.284039,-1.684399 -0.0053,-0.706027 0.0034,-0.756782 0.154231,-0.907662 0.313671,-0.313671 0.809468,-0.26653 0.996282,0.09473 0.133746,0.258636 0.163145,2.170384 0.0364,2.367111 -0.200021,0.310467 -0.62249,0.3714 -0.902875,0.130222 z"
     id="path279"
     inkscape:connector-curvature="0" /><path
     style="fill:#008000;fill-opacity:1;stroke:#001000;stroke-width:0.00662076;stroke-miterlimit:4;stroke-dasharray:none;stroke-opacity:1"
     d="m 13.29635,47.81836 c -0.185739,-0.185739 -0.196789,-0.226502 -0.329704,-1.216267 -0.134425,-1.001013 -0.12941,-1.095084 0.07108,-1.333348 0.218114,-0.259215 0.589925,-0.282825 0.855567,-0.05433 0.15609,0.134263 0.18638,0.239742 0.299452,1.04277 0.17195,1.221176 0.168878,1.295198 -0.06339,1.527463 -0.251647,0.251646 -0.600935,0.265782 -0.833005,0.03371 z"
     id="path281"
     inkscape:connector-curvature="0" /><path
     style="fill:#008000;fill-opacity:1;stroke:#001000;stroke-width:0.00662076;stroke-miterlimit:4;stroke-dasharray:none;stroke-opacity:1"
     d="m 14.175772,51.994999 c -0.130661,-0.121093 -0.212455,-0.344487 -0.38043,-1.039024 -0.117691,-0.486621 -0.213982,-0.985636 -0.213982,-1.108923 0,-0.266175 0.210035,-0.519258 0.480177,-0.578591 0.210786,-0.0463 0.554516,0.103424 0.64933,0.282833 0.101239,0.191566 0.472717,1.79725 0.472717,2.043282 0,0.498248 -0.631516,0.749162 -1.007812,0.400423 z"
     id="path283"
     inkscape:connector-curvature="0" /><path
     style="fill:#008000;fill-opacity:1;stroke:#001000;stroke-width:0.00662076;stroke-miterlimit:4;stroke-dasharray:none;stroke-opacity:1"
     d="m 15.730235,56.174708 c -0.254956,-0.06714 -0.345524,-0.226145 -0.737107,-1.294066 -0.302106,-0.823902 -0.317506,-0.930492 -0.174412,-1.207204 0.165749,-0.320524 0.67406,-0.386581 0.934056,-0.121385 0.08255,0.0842 0.30218,0.568506 0.488076,1.076244 0.362127,0.989076 0.377013,1.172382 0.114487,1.409758 -0.187554,0.169587 -0.358305,0.206915 -0.6251,0.136653 z"
     id="path285"
     inkscape:connector-curvature="0" /><path
     style="fill:#008000;fill-opacity:1;stroke:#001000;stroke-width:0.00662076;stroke-miterlimit:4;stroke-dasharray:none;stroke-opacity:1"
     d="m 17.520244,60.029459 c -0.177067,-0.07432 -0.364028,-0.362995 -0.807721,-1.247156 -0.394116,-0.785367 -0.418366,-1.000626 -0.143672,-1.27532 0.206047,-0.206046 0.419967,-0.242992 0.691255,-0.119385 0.218444,0.09953 1.126301,1.787552 1.127256,2.09596 0.0012,0.393873 -0.491011,0.703761 -0.867118,0.545901 z"
     id="path287"
     inkscape:connector-curvature="0" /><path
     style="fill:#008000;fill-opacity:1;stroke:#001000;stroke-width:0.00662076;stroke-miterlimit:4;stroke-dasharray:none;stroke-opacity:1"
     d="m 19.806762,63.534574 c -0.113256,-0.06609 -1.092864,-1.361999 -1.242141,-1.643214 -0.198173,-0.373329 0.12363,-0.87028 0.563554,-0.87028 0.286832,0 0.434543,0.13948 1.083892,1.023494 0.447785,0.609608 0.532958,0.766154 0.532958,0.979572 0,0.347491 -0.232,0.579777 -0.576307,0.577018 -0.138209,-0.0011 -0.301089,-0.03107 -0.361956,-0.06659 z"
     id="path289"
     inkscape:connector-curvature="0" /><path
     style="fill:#008000;fill-opacity:1;stroke:#001000;stroke-width:0.00662076;stroke-miterlimit:4;stroke-dasharray:none;stroke-opacity:1"
     d="m 22.102598,66.069412 c -0.73264,-0.666998 -0.89412,-0.879565 -0.89412,-1.176991 0,-0.263347 0.330824,-0.56096 0.623557,-0.56096 0.208588,0 0.325845,0.08267 0.993595,0.700529 0.416404,0.38529 0.784099,0.780053 0.8171,0.877251 0.07979,0.23501 -0.01659,0.575618 -0.199048,0.703417 -0.08031,0.05625 -0.255375,0.102278 -0.389027,0.102278 -0.214769,0 -0.32539,-0.075 -0.952057,-0.645524 z"
     id="path291"
     inkscape:connector-curvature="0" /><path
     style="fill:#008000;fill-opacity:1;stroke:#001000;stroke-width:0.00662076;stroke-miterlimit:4;stroke-dasharray:none;stroke-opacity:1"
     d="m 26.139966,69.024876 c -0.577511,-0.305867 -1.330792,-0.784554 -1.46453,-0.930664 -0.210044,-0.229476 -0.244959,-0.41873 -0.1242,-0.673211 0.208968,-0.440367 0.578517,-0.480346 1.132544,-0.122522 0.215028,0.138877 0.59224,0.36499 0.83825,0.502473 0.517655,0.289292 0.645949,0.442116 0.643029,0.765977 -0.0048,0.529604 -0.484854,0.744073 -1.025093,0.457947 z"
     id="path293"
     inkscape:connector-curvature="0" /><path
     style="fill:#008000;fill-opacity:1;stroke:#001000;stroke-width:0.00662076;stroke-miterlimit:4;stroke-dasharray:none;stroke-opacity:1"
     d="m 29.756197,70.491841 c -1.024928,-0.284509 -1.25372,-0.385311 -1.365601,-0.601665 -0.05385,-0.104127 -0.0979,-0.267576 -0.0979,-0.363221 0,-0.223145 0.331685,-0.56096 0.550782,-0.56096 0.159654,0 1.71452,0.411846 2.018204,0.534573 0.186383,0.07532 0.344125,0.428823 0.298307,0.668504 -0.04379,0.229097 -0.273216,0.441687 -0.520105,0.481948 -0.108813,0.01774 -0.500496,-0.05281 -0.883685,-0.159179 z"
     id="path295"
     inkscape:connector-curvature="0" /><path
     style="fill:#008000;fill-opacity:1;stroke:#001000;stroke-width:0.00662076;stroke-miterlimit:4;stroke-dasharray:none;stroke-opacity:1"
     d="m 32.826312,70.930582 c -0.389828,-0.17875 -0.474952,-0.67062 -0.169007,-0.976565 l 0.19353,-0.19353 0.948551,-0.0103 c 1.203242,-0.01306 1.249969,-0.008 1.425123,0.155742 0.295325,0.276009 0.227297,0.798269 -0.128804,0.988848 -0.228802,0.122451 -2.018837,0.150691 -2.269393,0.0358 z"
     id="path297"
     inkscape:connector-curvature="0" /><path
     style="fill:#008000;fill-opacity:1;stroke:#001000;stroke-width:0.00662076;stroke-miterlimit:4;stroke-dasharray:none;stroke-opacity:1"
     d="m 36.894593,70.361448 c -0.391302,-0.391302 -0.192128,-0.906834 0.41128,-1.064531 0.158946,-0.04154 0.591996,-0.179075 0.962333,-0.305634 0.637359,-0.217811 0.68572,-0.224934 0.905025,-0.133302 0.271122,0.113282 0.37476,0.276772 0.37476,0.591191 0,0.369485 -0.214347,0.516991 -1.20514,0.829329 -0.48422,0.152646 -0.964624,0.277299 -1.067564,0.277008 -0.118095,-3.38e-4 -0.258582,-0.07195 -0.380694,-0.194061 z"
     id="path299"
     inkscape:connector-curvature="0" /><path
     style="fill:#008000;fill-opacity:1;stroke:#001000;stroke-width:0.00662076;stroke-miterlimit:4;stroke-dasharray:none;stroke-opacity:1"
     d="m 41.028195,68.902851 c -0.313528,-0.132061 -0.472868,-0.685961 -0.271915,-0.94523 0.16309,-0.210417 1.79746,-1.176477 1.990352,-1.176477 0.282455,0 0.575194,0.321962 0.575194,0.632614 0,0.312811 -0.205163,0.510126 -1.116687,1.073972 -0.698143,0.431853 -0.937112,0.51614 -1.176944,0.415121 z"
     id="path301"
     inkscape:connector-curvature="0" /><path
     style="fill:#008000;fill-opacity:1;stroke:#001000;stroke-width:0.00662076;stroke-miterlimit:4;stroke-dasharray:none;stroke-opacity:1"
     d="m 44.456159,66.345091 c -0.138191,-0.0581 -0.246521,-0.171002 -0.310105,-0.323181 -0.145427,-0.348056 -0.02547,-0.554514 0.780255,-1.342859 0.646517,-0.632573 0.711606,-0.678628 0.959087,-0.678628 0.49638,0 0.803227,0.436379 0.590178,0.839315 -0.161117,0.304719 -1.380373,1.472289 -1.604626,1.536604 -0.13881,0.03981 -0.269138,0.02999 -0.414789,-0.03125 z"
     id="path303"
     inkscape:connector-curvature="0" /><path
     style="fill:#008000;fill-opacity:1;stroke:#001000;stroke-width:0.00662076;stroke-miterlimit:4;stroke-dasharray:none;stroke-opacity:1"
     d="m 47.317919,63.208995 c -0.206179,-0.08685 -0.354674,-0.331261 -0.354674,-0.583779 0,-0.164281 0.105104,-0.367163 0.413798,-0.798755 0.227589,-0.318197 0.487735,-0.687529 0.578104,-0.820738 0.279675,-0.412257 0.709718,-0.505017 1.017763,-0.219531 0.192947,0.178817 0.236486,0.524664 0.09888,0.785454 -0.124472,0.235902 -0.966601,1.400284 -1.100161,1.521154 -0.153925,0.1393 -0.466819,0.194916 -0.653712,0.116195 z"
     id="path305"
     inkscape:connector-curvature="0" /><path
     style="fill:#008000;fill-opacity:1;stroke:#001000;stroke-width:0.00662076;stroke-miterlimit:4;stroke-dasharray:none;stroke-opacity:1"
     d="m 49.443022,59.46821 c -0.264229,-0.264228 -0.218022,-0.523093 0.265671,-1.488353 0.2355,-0.469964 0.495373,-0.901544 0.577497,-0.959065 0.08212,-0.05752 0.259211,-0.104585 0.393529,-0.104585 0.298637,0 0.587022,0.29613 0.587022,0.602789 0,0.230203 -0.801977,1.825891 -1.003099,1.995861 -0.207845,0.17565 -0.621858,0.152116 -0.82062,-0.04665 z"
     id="path309"
     inkscape:connector-curvature="0" /><path
     style="fill:#008000;fill-opacity:1;stroke:#001000;stroke-width:0.00662076;stroke-miterlimit:4;stroke-dasharray:none;stroke-opacity:1"
     d="m 51.263782,55.608607 c -0.281049,-0.251245 -0.2695,-0.418697 0.102945,-1.492526 0.346764,-0.999788 0.475406,-1.172331 0.874046,-1.172331 0.165737,0 0.282934,0.05504 0.42971,0.201818 0.25349,0.25349 0.239427,0.39143 -0.151549,1.486476 -0.316636,0.886838 -0.515753,1.158634 -0.84881,1.158634 -0.127583,0 -0.27813,-0.06746 -0.406342,-0.182071 z"
     id="path311"
     inkscape:connector-curvature="0" /><path
     style="fill:#008000;fill-opacity:1;stroke:#001000;stroke-width:0.00662076;stroke-miterlimit:4;stroke-dasharray:none;stroke-opacity:1"
     d="m 52.497468,51.482102 c -0.09427,-0.112037 -0.171405,-0.255133 -0.171405,-0.317993 0,-0.156786 0.385826,-1.860208 0.462212,-2.040665 0.08564,-0.202323 0.430579,-0.368789 0.659836,-0.318436 0.222377,0.04884 0.442643,0.269801 0.495764,0.497322 0.02147,0.09194 -0.0616,0.591163 -0.186866,1.123056 -0.257068,1.091536 -0.368666,1.260419 -0.832884,1.260419 -0.203751,0 -0.289837,-0.0411 -0.426657,-0.203703 z"
     id="path313"
     inkscape:connector-curvature="0" /><path
     style="fill:#008000;fill-opacity:1;stroke:#001000;stroke-width:0.00662076;stroke-miterlimit:4;stroke-dasharray:none;stroke-opacity:1"
     d="m 53.484696,47.434757 c -0.21386,-0.122649 -0.293586,-0.267694 -0.295828,-0.538203 -0.0032,-0.3917 0.195145,-1.903861 0.267526,-2.039106 0.130488,-0.24382 0.577054,-0.338884 0.865855,-0.184323 0.284017,0.152001 0.316622,0.407844 0.186171,1.460843 -0.06607,0.533288 -0.157961,1.030207 -0.204212,1.104266 -0.158512,0.253819 -0.554166,0.348699 -0.819512,0.196523 z"
     id="path315"
     inkscape:connector-curvature="0" /><path
     style="fill:#008000;fill-opacity:1;stroke:#001000;stroke-width:0.00662076;stroke-miterlimit:4;stroke-dasharray:none;stroke-opacity:1"
     d="M 53.418489,34.607855 C 53.1489,34.497514 53.059843,34.30058 52.892003,33.443616 c -0.0925,-0.472292 -0.168297,-0.966419 -0.168438,-1.098062 -5.01e-4,-0.468021 0.404628,-0.736028 0.838545,-0.554726 0.28446,0.118855 0.337107,0.240567 0.523256,1.209689 0.23547,1.225895 0.212502,1.401098 -0.206626,1.576221 -0.252145,0.105353 -0.275085,0.106904 -0.460251,0.03112 z"
     id="path319"
     inkscape:connector-curvature="0" /><path
     style="fill:#008000;fill-opacity:1;stroke:#001000;stroke-width:0.00662076;stroke-miterlimit:4;stroke-dasharray:none;stroke-opacity:1"
     d="m 52.491582,30.436774 c -0.07283,-0.02981 -0.181026,-0.109851 -0.24044,-0.177874 -0.137361,-0.157266 -0.653363,-1.796413 -0.653363,-2.075494 0,-0.28277 0.310487,-0.597178 0.589731,-0.597178 0.364353,0 0.565751,0.272232 0.832672,1.12553 0.391076,1.250204 0.380745,1.506256 -0.06835,1.693899 -0.252145,0.105353 -0.275084,0.106904 -0.460251,0.03112 z"
     id="path321"
     inkscape:connector-curvature="0" /><path
     style="fill:#008000;fill-opacity:1;stroke:#001000;stroke-width:0.00662076;stroke-miterlimit:4;stroke-dasharray:none;stroke-opacity:1"
     d="m 51.034822,26.36887 c -0.168557,-0.07346 -0.261764,-0.226823 -0.612421,-1.007692 -0.227964,-0.507649 -0.413605,-1.015692 -0.413605,-1.131913 0,-0.326606 0.254595,-0.579381 0.583554,-0.579381 0.426015,0 0.502386,0.103687 1.111527,1.509081 0.123717,0.285437 0.22494,0.577402 0.22494,0.648812 0,0.233437 -0.189357,0.504323 -0.405114,0.579536 -0.254303,0.08865 -0.242089,0.08911 -0.488881,-0.01844 z"
     id="path323"
     inkscape:connector-curvature="0" /><path
     style="fill:#008000;fill-opacity:1;stroke:#001000;stroke-width:0.00662076;stroke-miterlimit:4;stroke-dasharray:none;stroke-opacity:1"
     d="m 49.022497,22.438585 c -0.317354,-0.297997 -1.132345,-1.67321 -1.132345,-1.910713 0,-0.423476 0.455881,-0.723202 0.851032,-0.559525 0.182752,0.0757 0.381703,0.345239 0.951477,1.289069 0.383097,0.634599 0.409151,0.883164 0.122605,1.16971 -0.253396,0.253396 -0.530847,0.257407 -0.792769,0.01146 z"
     id="path325"
     inkscape:connector-curvature="0" /><path
     style="fill:#008000;fill-opacity:1;stroke:#001000;stroke-width:0.00662076;stroke-miterlimit:4;stroke-dasharray:none;stroke-opacity:1"
     d="m 46.710078,19.027916 c -0.08462,-0.04498 -0.44959,-0.422556 -0.811043,-0.839055 -0.574901,-0.662453 -0.657188,-0.787665 -0.657188,-0.999999 0,-0.485193 0.568994,-0.776781 0.969026,-0.496588 0.225882,0.158214 1.271589,1.390174 1.345897,1.585617 0.0944,0.248302 0.0245,0.472305 -0.208585,0.668437 -0.216387,0.182078 -0.403946,0.206059 -0.638107,0.08159 z"
     id="path327"
     inkscape:connector-curvature="0" /><path
     style="fill:#008000;fill-opacity:1;stroke:#001000;stroke-width:0.00662076;stroke-miterlimit:4;stroke-dasharray:none;stroke-opacity:1"
     d="m 43.444337,15.794688 c -0.194831,-0.149277 -0.569544,-0.432973 -0.832696,-0.630435 -0.493972,-0.370662 -0.613968,-0.516438 -0.613968,-0.745875 0,-0.401997 0.4338,-0.738995 0.790987,-0.614479 0.215398,0.07509 1.096449,0.713125 1.509728,1.09331 0.246964,0.227187 0.281383,0.293542 0.281383,0.542466 0,0.235423 -0.03462,0.312743 -0.203703,0.455022 -0.290274,0.244249 -0.513721,0.220265 -0.931731,-0.100009 z"
     id="path329"
     inkscape:connector-curvature="0" /><path
     style="fill:#008000;fill-opacity:1;stroke:#001000;stroke-width:0.00662076;stroke-miterlimit:4;stroke-dasharray:none;stroke-opacity:1"
     d="m 40.011444,13.583744 c -0.09103,-0.0518 -0.475611,-0.222062 -0.854612,-0.378348 -0.534141,-0.22026 -0.71646,-0.32882 -0.810796,-0.48278 -0.211199,-0.344684 -0.117015,-0.672017 0.250274,-0.869815 0.217181,-0.11696 0.235766,-0.116973 0.571529,-4.06e-4 0.547175,0.189964 1.661329,0.73615 1.769007,0.867211 0.05379,0.06548 0.09781,0.237619 0.09781,0.382541 0,0.206103 -0.04013,0.298017 -0.184258,0.421987 -0.21208,0.182423 -0.577506,0.208388 -0.838951,0.05961 z"
     id="path331"
     inkscape:connector-curvature="0" /><path
     style="fill:#008000;fill-opacity:1;stroke:#001000;stroke-width:0.00662076;stroke-miterlimit:4;stroke-dasharray:none;stroke-opacity:1"
     d="m 35.774156,12.254982 c -0.273106,-0.04775 -0.624136,-0.08869 -0.780066,-0.09098 -0.665966,-0.0098 -1.049026,-0.412736 -0.848514,-0.892629 0.120192,-0.287659 0.276382,-0.369471 0.705376,-0.369471 0.588129,0 1.736939,0.194363 1.915773,0.324123 0.353857,0.256754 0.313713,0.836951 -0.0717,1.036256 -0.213372,0.110339 -0.249686,0.110051 -0.920869,-0.0073 z"
     id="path333"
     inkscape:connector-curvature="0" /><path
     style="fill:#008000;fill-opacity:1;stroke:#001000;stroke-width:0.00662076;stroke-miterlimit:4;stroke-dasharray:none;stroke-opacity:1"
     d="m 30.312027,12.436189 c -0.370625,-0.06921 -0.577446,-0.523738 -0.397048,-0.87259 0.135785,-0.262579 0.357667,-0.353413 1.208415,-0.494702 1.177278,-0.195517 1.44794,-0.147002 1.614797,0.289447 0.07032,0.183946 -0.02836,0.547306 -0.183643,0.676178 -0.114391,0.09494 -2.03903,0.439666 -2.242521,0.401667 z"
     id="path335"
     inkscape:connector-curvature="0" /><path
     style="fill:#008000;fill-opacity:1;stroke:#001000;stroke-width:0.00662076;stroke-miterlimit:4;stroke-dasharray:none;stroke-opacity:1"
     d="m 26.063384,13.788965 c -0.231043,-0.198735 -0.257318,-0.610748 -0.05335,-0.83656 0.132338,-0.14651 1.244797,-0.712562 1.752282,-0.891613 0.476539,-0.168133 0.861414,0.08319 0.861414,0.562513 0,0.11403 -0.02994,0.263263 -0.06652,0.331628 -0.09328,0.174295 -1.816918,0.992524 -2.090798,0.992524 -0.135315,0 -0.289058,-0.06046 -0.403027,-0.158492 z"
     id="path337"
     inkscape:connector-curvature="0" /><path
     style="fill:#2b1100;fill-opacity:1;stroke:#001000;stroke-width:0.00662076;stroke-miterlimit:4;stroke-dasharray:none;stroke-opacity:1"
     d="m 22.753019,16.366288 c -0.254271,-0.109947 -0.352804,-0.277906 -0.352804,-0.601391 0,-0.196473 0.04812,-0.288397 0.248279,-0.474327 0.415474,-0.385931 1.311152,-1.070324 1.489492,-1.138129 0.457385,-0.173897 0.900404,0.264897 0.768186,0.760861 -0.03903,0.146412 -0.217196,0.334376 -0.627558,0.662076 -1.136574,0.907628 -1.190733,0.935705 -1.525595,0.79091 z"
     id="path339"
     inkscape:connector-curvature="0" /><path
     style="fill:#2b1100;fill-opacity:1;stroke:#001000;stroke-width:0.00662076;stroke-miterlimit:4;stroke-dasharray:none;stroke-opacity:1"
     d="m 21.312716,47.74551 c -0.08485,-0.09155 -0.171842,-0.247969 -0.19332,-0.34759 -0.02148,-0.09962 -0.114497,-0.531313 -0.206711,-0.959314 -0.09221,-0.428 -0.16766,-0.820477 -0.16766,-0.872171 0,-0.160235 0.324825,-0.489507 0.526618,-0.533829 0.25285,-0.05553 0.559364,0.105732 0.653448,0.3438 0.04025,0.101856 0.163672,0.596239 0.274263,1.098629 0.18586,0.844316 0.1935,0.928085 0.100972,1.107015 -0.124278,0.240328 -0.285611,0.32992 -0.594099,0.32992 -0.170506,0 -0.283563,-0.04782 -0.393511,-0.16646 z"
     id="path341"
     inkscape:connector-curvature="0" /><path
     style="fill:#2b1100;fill-opacity:1;stroke:#001000;stroke-width:0.00662076;stroke-miterlimit:4;stroke-dasharray:none;stroke-opacity:1"
     d="m 20.776524,43.648467 c -0.301139,-0.131206 -0.36105,-0.346695 -0.407175,-1.464532 l -0.04188,-1.015016 0.203687,-0.203686 c 0.213666,-0.213667 0.409767,-0.251791 0.709321,-0.1379 0.263354,0.100127 0.343528,0.398375 0.388615,1.445659 0.0464,1.077862 -0.0034,1.269392 -0.362271,1.394512 -0.254428,0.08869 -0.241921,0.08918 -0.490294,-0.01904 z"
     id="path343"
     inkscape:connector-curvature="0" /><path
     style="fill:#2b1100;fill-opacity:1;stroke:#001000;stroke-width:0.00662076;stroke-miterlimit:4;stroke-dasharray:none;stroke-opacity:1"
     d="m 20.59872,39.235067 c -0.200366,-0.200366 -0.2019,-0.207262 -0.158369,-0.711732 0.143061,-1.657858 0.273652,-1.999077 0.765084,-1.999077 0.287122,0 0.564685,0.185655 0.62261,0.416447 0.02122,0.08454 -0.01744,0.613074 -0.0859,1.174517 -0.115477,0.946964 -0.137154,1.031706 -0.299661,1.171489 -0.25863,0.222464 -0.589931,0.202186 -0.843761,-0.05164 z"
     id="path345"
     inkscape:connector-curvature="0" /><path
     style="fill:#2b1100;fill-opacity:1;stroke:#001000;stroke-width:0.00662076;stroke-miterlimit:4;stroke-dasharray:none;stroke-opacity:1"
     d="m 21.296099,35.028915 c -0.15533,-0.15533 -0.167774,-0.205938 -0.134316,-0.546213 0.05973,-0.607515 0.481056,-1.832199 0.685698,-1.993171 0.348798,-0.274364 0.877529,-0.09244 0.982216,0.33795 0.05717,0.235049 -0.525692,2.113404 -0.700287,2.256761 -0.218032,0.179023 -0.626051,0.151932 -0.833311,-0.05533 z"
     id="path347"
     inkscape:connector-curvature="0" /><path
     style="fill:#2b1100;fill-opacity:1;stroke:#001000;stroke-width:0.00662076;stroke-miterlimit:4;stroke-dasharray:none;stroke-opacity:1"
     d="m 22.96298,31.165058 c -0.181532,-0.0743 -0.345764,-0.268746 -0.394495,-0.467071 -0.07093,-0.28867 0.84571,-2.046564 1.136174,-2.178908 0.266938,-0.121625 0.481852,-0.08365 0.686878,0.121378 0.292954,0.292954 0.258052,0.481999 -0.276635,1.498378 -0.542063,1.0304 -0.730833,1.198571 -1.151922,1.026223 z"
     id="path349"
     inkscape:connector-curvature="0" /><path
     style="fill:#2b1100;fill-opacity:1;stroke:#001000;stroke-width:0.00662076;stroke-miterlimit:4;stroke-dasharray:none;stroke-opacity:1"
     d="m 25.0536,27.414824 c -0.302683,-0.254692 -0.287207,-0.60641 0.04458,-1.013071 0.597008,-0.73174 1.155521,-1.261728 1.37254,-1.302441 0.433266,-0.08128 0.837569,0.325615 0.733911,0.738619 -0.03973,0.158287 -0.653645,0.865858 -1.301479,1.500019 -0.309099,0.302576 -0.554885,0.324816 -0.849548,0.07687 z"
     id="path351"
     inkscape:connector-curvature="0" /><path
     style="fill:#2b1100;fill-opacity:1;stroke:#001000;stroke-width:0.00662076;stroke-miterlimit:4;stroke-dasharray:none;stroke-opacity:1"
     d="m 28.281507,24.638034 c -0.219856,-0.119397 -0.349553,-0.474066 -0.259743,-0.710286 0.03525,-0.0927 0.168886,-0.248487 0.296978,-0.346188 0.299646,-0.228551 1.625572,-0.894391 1.781398,-0.894564 0.176893,-1.96e-4 0.496259,0.181854 0.574066,0.327239 0.0997,0.186294 0.08329,0.482285 -0.03621,0.652889 -0.05741,0.08196 -0.392586,0.292657 -0.744836,0.468208 -0.35225,0.17555 -0.744732,0.383148 -0.872182,0.461328 -0.268083,0.164447 -0.489986,0.176863 -0.739471,0.04137 z"
     id="path353"
     inkscape:connector-curvature="0" /><path
     style="fill:#2b1100;fill-opacity:1;stroke:#001000;stroke-width:0.00662076;stroke-miterlimit:4;stroke-dasharray:none;stroke-opacity:1"
     d="m 32.213758,23.119519 c -0.178599,-0.150282 -0.213437,-0.22538 -0.213437,-0.460103 0,-0.40436 0.19239,-0.563451 0.771658,-0.638102 0.69607,-0.0897 1.519732,-0.07532 1.774133,0.03097 0.417188,0.174312 0.501173,0.643351 0.173815,0.970709 -0.186147,0.186147 -0.217088,0.193548 -0.811043,0.194001 -0.339633,2.58e-4 -0.811953,0.01884 -1.049602,0.04129 -0.402821,0.03806 -0.446544,0.02866 -0.645524,-0.138771 z"
     id="path355"
     inkscape:connector-curvature="0" /><path
     style="fill:#2b1100;fill-opacity:1;stroke:#001000;stroke-width:0.00662076;stroke-miterlimit:4;stroke-dasharray:none;stroke-opacity:1"
     d="M 37.826593,24.275759 C 37.626315,24.169903 37.239,23.989307 36.965893,23.874433 36.37868,23.62744 36.259566,23.533418 36.202037,23.271494 c -0.0618,-0.281365 0.0765,-0.557545 0.34236,-0.683705 0.212363,-0.100773 0.252527,-0.100419 0.573209,0.0051 0.511535,0.168251 1.402633,0.603081 1.632817,0.796768 0.167506,0.140947 0.201699,0.218232 0.201699,0.455882 0,0.238267 -0.0341,0.314853 -0.203702,0.457568 -0.259837,0.218639 -0.468176,0.212467 -0.921827,-0.02731 z"
     id="path357"
     inkscape:connector-curvature="0" /><path
     style="fill:#2b1100;fill-opacity:1;stroke:#001000;stroke-width:0.00662076;stroke-miterlimit:4;stroke-dasharray:none;stroke-opacity:1"
     d="m 41.37293,27.113901 c -0.165733,-0.100466 -1.419407,-1.374709 -1.499193,-1.523789 -0.191738,-0.358266 0.129766,-0.850812 0.555358,-0.850812 0.279,0 0.729488,0.35136 1.369955,1.0685 0.387033,0.433366 0.43035,0.510284 0.43035,0.764167 0,0.196753 -0.04133,0.323625 -0.136373,0.418672 -0.164989,0.164989 -0.544186,0.229898 -0.720097,0.123262 z"
     id="path359"
     inkscape:connector-curvature="0" /><path
     style="fill:#2b1100;fill-opacity:1;stroke:#001000;stroke-width:0.00662076;stroke-miterlimit:4;stroke-dasharray:none;stroke-opacity:1"
     d="m 43.757881,30.67427 c -0.141313,-0.05913 -0.287854,-0.248287 -0.54783,-0.707134 -0.618371,-1.091399 -0.705573,-1.287714 -0.657346,-1.479867 0.103862,-0.413819 0.523057,-0.601661 0.888784,-0.398266 0.317434,0.176537 1.168376,1.649959 1.168376,2.023065 0,0.44025 -0.443714,0.733045 -0.851984,0.562202 z"
     id="path361"
     inkscape:connector-curvature="0" /><path
     style="fill:#2b1100;fill-opacity:1;stroke:#001000;stroke-width:0.00662076;stroke-miterlimit:4;stroke-dasharray:none;stroke-opacity:1"
     d="m 45.18197,34.5663 c -0.111349,-0.09369 -0.232115,-0.279903 -0.26837,-0.413798 -0.03625,-0.133895 -0.171265,-0.564481 -0.300024,-0.956858 -0.250615,-0.763718 -0.251877,-0.937537 -0.0085,-1.166208 0.218769,-0.205522 0.498777,-0.23514 0.749019,-0.07923 0.188876,0.117679 0.243962,0.232361 0.51311,1.068221 0.391404,1.215538 0.388139,1.402929 -0.02819,1.618224 -0.273195,0.141275 -0.424864,0.125035 -0.657071,-0.07035 z"
     id="path363"
     inkscape:connector-curvature="0" /><path
     style="fill:#2b1100;fill-opacity:1;stroke:#001000;stroke-width:0.00662076;stroke-miterlimit:4;stroke-dasharray:none;stroke-opacity:1"
     d="m 45.458799,47.386932 c -0.119579,-0.07449 -0.233492,-0.212989 -0.259102,-0.315028 -0.04583,-0.182587 0.267053,-1.992618 0.383836,-2.22052 0.147952,-0.288726 0.694769,-0.356558 0.948998,-0.117723 0.08507,0.07992 0.172327,0.215624 0.193894,0.301556 0.02157,0.08593 -0.04956,0.595534 -0.158064,1.132446 -0.153726,0.76069 -0.230576,1.009479 -0.348099,1.126925 -0.218735,0.218592 -0.50338,0.253111 -0.761463,0.09234 z"
     id="path367"
     inkscape:connector-curvature="0" /><path
     style="fill:#2b1100;fill-opacity:1;stroke:#001000;stroke-width:0.00662076;stroke-miterlimit:4;stroke-dasharray:none;stroke-opacity:1"
     d="m 44.070254,51.423884 c -0.333674,-0.203454 -0.350681,-0.479952 -0.07048,-1.145783 0.126243,-0.299982 0.297283,-0.717555 0.380089,-0.927942 0.08281,-0.210386 0.225264,-0.441285 0.316574,-0.513109 0.402319,-0.316464 0.972526,-0.0091 0.957591,0.516112 -0.0053,0.184863 -0.432095,1.322895 -0.674083,1.797231 -0.201077,0.394143 -0.543155,0.496986 -0.909696,0.273491 z"
     id="path369"
     inkscape:connector-curvature="0" /><path
     style="fill:#2b1100;fill-opacity:1;stroke:#001000;stroke-width:0.00662076;stroke-miterlimit:4;stroke-dasharray:none;stroke-opacity:1"
     d="m 41.793957,55.001279 c -0.127207,-0.127207 -0.19353,-0.261063 -0.19353,-0.390593 0,-0.195906 0.04474,-0.271441 0.8233,-1.390015 0.502511,-0.721969 0.780564,-0.836475 1.175126,-0.483933 0.343243,0.306687 0.302482,0.534464 -0.238849,1.334692 -0.632534,0.93505 -0.821464,1.123379 -1.126963,1.123379 -0.183125,0 -0.294756,-0.0492 -0.439084,-0.19353 z"
     id="path371"
     inkscape:connector-curvature="0" /><path
     style="fill:#2b1100;fill-opacity:1;stroke:#001000;stroke-width:0.00662076;stroke-miterlimit:4;stroke-dasharray:none;stroke-opacity:1"
     d="m 38.952122,58.128559 c -0.164339,-0.06271 -0.342531,-0.242656 -0.406831,-0.410845 -0.101794,-0.266264 0.04886,-0.577989 0.394136,-0.815548 0.169275,-0.116464 0.488847,-0.365363 0.710159,-0.553108 0.493103,-0.418312 0.626692,-0.492173 0.890176,-0.492173 0.243744,0 0.527296,0.251107 0.538628,0.476996 0.02155,0.429613 -0.01213,0.479624 -0.702804,1.043377 -0.799475,0.652564 -1.169874,0.84806 -1.423464,0.751301 z"
     id="path373"
     inkscape:connector-curvature="0" /><path
     style="fill:#2b1100;fill-opacity:1;stroke:#001000;stroke-width:0.00662076;stroke-miterlimit:4;stroke-dasharray:none;stroke-opacity:1"
     d="m 34.979665,59.716165 c -0.33323,-0.122526 -0.478173,-0.531394 -0.306243,-0.86387 0.0565,-0.109254 0.155963,-0.219468 0.221034,-0.244921 0.28784,-0.112588 1.669428,-0.454428 1.944917,-0.481222 0.276528,-0.02689 0.319659,-0.01074 0.480005,0.179824 0.322348,0.383088 0.171515,0.809022 -0.362103,1.022533 -0.337092,0.134878 -1.5633,0.436403 -1.745884,0.429314 -0.07283,-0.0028 -0.177105,-0.02157 -0.231726,-0.04166 z"
     id="path375"
     inkscape:connector-curvature="0" /><path
     style="fill:#2b1100;fill-opacity:1;stroke:#001000;stroke-width:0.00662076;stroke-miterlimit:4;stroke-dasharray:none;stroke-opacity:1"
     d="m 31.963881,59.732596 c -1.346029,-0.244518 -1.733818,-0.512615 -1.549463,-1.071218 0.137199,-0.415717 0.439777,-0.506373 1.079156,-0.323331 0.187676,0.05373 0.594137,0.14093 0.903248,0.193783 0.664599,0.113635 0.861444,0.273464 0.861444,0.699451 0,0.20375 -0.0411,0.289837 -0.203702,0.426657 -0.229646,0.193235 -0.380932,0.20359 -1.090683,0.07466 z"
     id="path377"
     inkscape:connector-curvature="0" /><path
     style="fill:#2b1100;fill-opacity:1;stroke:#001000;stroke-width:0.00662076;stroke-miterlimit:4;stroke-dasharray:none;stroke-opacity:1"
     d="M 28.021576,58.098991 C 27.362421,57.673425 26.834332,57.2372 26.726973,57.02959 c -0.264767,-0.512004 0.313287,-1.074057 0.816125,-0.793534 0.263118,0.146789 1.559462,1.082553 1.627433,1.17476 0.173896,0.235905 0.129389,0.617142 -0.09663,0.827711 -0.235527,0.219427 -0.563736,0.175907 -1.052324,-0.139536 z"
     id="path379"
     inkscape:connector-curvature="0" /><path
     style="fill:#2b1100;fill-opacity:1;stroke:#001000;stroke-width:0.00662076;stroke-miterlimit:4;stroke-dasharray:none;stroke-opacity:1"
     d="m 25.280247,55.528281 c -0.195749,-0.08187 -0.49641,-0.423176 -0.986604,-1.119981 -0.51468,-0.73161 -0.557752,-0.956598 -0.24333,-1.27102 0.11566,-0.11566 0.263502,-0.19353 0.36743,-0.19353 0.20484,0 0.534051,0.157601 0.582661,0.278933 0.01878,0.04686 0.27563,0.409873 0.570788,0.806685 0.322276,0.43327 0.536651,0.785017 0.536651,0.880539 0,0.260469 -0.179423,0.530085 -0.405114,0.608762 -0.240851,0.08396 -0.244513,0.08404 -0.422482,0.0096 z"
     id="path381"
     inkscape:connector-curvature="0" /><path
     style="fill:#2b1100;fill-opacity:1;stroke:#001000;stroke-width:0.00662076;stroke-miterlimit:4;stroke-dasharray:none;stroke-opacity:1"
     d="m 22.805636,51.768564 c -0.236784,-0.23916 -0.812285,-1.553712 -0.8529,-1.948185 -0.02754,-0.267504 -0.0087,-0.332699 0.138587,-0.480006 0.206714,-0.206714 0.61691,-0.233763 0.827929,-0.05459 0.07505,0.06372 0.31832,0.542516 0.540593,1.063981 0.374775,0.879243 0.398661,0.964696 0.328813,1.176337 -0.140548,0.425864 -0.67173,0.556884 -0.983022,0.242468 z"
     id="path383"
     inkscape:connector-curvature="0" /><path
     style="fill:#008000;fill-opacity:1;stroke:#001000;stroke-width:0.00936317;stroke-miterlimit:4;stroke-dasharray:none;stroke-opacity:1"
     d="m 22.734188,16.37476 c -0.278113,-0.13339 -0.425115,-0.489408 -0.318196,-0.770627 0.09851,-0.259107 1.53507,-1.454095 1.768165,-1.470832 0.462811,-0.03323 0.763103,0.197916 0.763103,0.587395 0,0.30372 -0.08362,0.399024 -0.985526,1.123279 -0.724406,0.581715 -0.93316,0.67198 -1.227546,0.530785 z"
     id="path385"
     inkscape:connector-curvature="0" /><path
     style="fill:#008000;fill-opacity:1;stroke:#001000;stroke-width:0.02648305;stroke-miterlimit:4;stroke-dasharray:none;stroke-opacity:1"
     d="M 23.379579,79.970703 C 13.397457,77.514757 5.3836576,67.010986 2.4720262,52.566953 0.33572903,41.969198 1.2817496,29.928245 4.9857929,20.571719 6.9141663,15.700589 9.1845533,12.024749 12.330106,8.6810067 15.435198,5.3802747 18.65203,3.3125468 22.55525,2.1084491 25.418179,1.2252692 25.728415,1.4147282 23.499359,2.6850102 13.516628,8.3739145 6.7162514,20.633223 5.2638419,35.558897 c -0.9312717,9.570206 0.7642315,19.888728 4.6259253,28.152526 3.2580298,6.971992 8.7430798,13.025638 14.3705098,15.860204 1.982428,0.998559 1.832331,1.066573 -0.880698,0.399076 z"
     id="path393"
     inkscape:connector-curvature="0" /><path
     style="fill:#2b1100;fill-opacity:1;stroke:#001000;stroke-width:0.00936317;stroke-miterlimit:4;stroke-dasharray:none;stroke-opacity:1"
     d="m 40.273132,41.254255 c -0.03376,-0.199839 -0.03278,-0.515846 0.0022,-0.702238 l 0.06358,-0.338894 H 61.142534 81.94617 l 0.346943,0.355301 0.346942,0.355301 -0.355296,0.346937 -0.355295,0.346937 H 61.131992 40.334518 Z"
     id="path395"
     inkscape:connector-curvature="0" /><path
     style="fill:#2b1100;fill-opacity:1;stroke:#001000;stroke-width:0.00936317;stroke-miterlimit:4;stroke-dasharray:none;stroke-opacity:1"
     d="m 37.258322,42.384386 c -1.19363,-0.756467 -2.196258,-1.401911 -2.228064,-1.434322 -0.03181,-0.03241 0.959407,-0.698975 2.202694,-1.481254 1.243287,-0.782279 2.283612,-1.399236 2.311834,-1.371014 0.02822,0.02822 -0.122361,0.674724 -0.334628,1.436673 l -0.385939,1.38536 0.370065,1.30861 c 0.384928,1.361165 0.421641,1.546481 0.304496,1.537015 -0.03862,-0.0031 -1.046829,-0.624602 -2.240458,-1.381068 z"
     id="path397"
     inkscape:connector-curvature="0" /><path
     style="fill:#008000;fill-opacity:1;stroke:#001000;stroke-width:0.00936317;stroke-miterlimit:4;stroke-dasharray:none;stroke-opacity:1"
     d="m 74.199553,37.263723 1.86989,-1.638555 h 3.246064 c 1.785335,0 3.23202,0.03634 3.214853,0.08076 -0.01717,0.04442 -0.831761,0.781213 -1.810213,1.637326 l -1.779003,1.55657 -3.305741,0.0012 -3.305741,0.0012 z"
     id="path399"
     inkscape:connector-curvature="0" /><path
     style="fill:#008000;fill-opacity:1;stroke:#001000;stroke-width:0.00936317;stroke-miterlimit:4;stroke-dasharray:none;stroke-opacity:1"
     d="m 74.185207,44.590406 -1.851253,-1.615147 3.282525,-0.02461 3.282526,-0.02461 1.82348,1.600945 c 1.002915,0.88052 1.823481,1.61841 1.823481,1.639756 0,0.02135 -1.464639,0.03881 -3.254753,0.03881 H 76.03646 Z"
     id="path401"
     inkscape:connector-curvature="0" /><path
     style="fill:#2b1100;fill-opacity:1;stroke:#001000;stroke-width:0.00936317;stroke-miterlimit:4;stroke-dasharray:none;stroke-opacity:1"
     d="M 23.461629,79.946907 C 17.780419,78.484253 12.930477,74.791984 9.045714,68.972048 2.2374904,58.772349 -0.27189161,43.622122 2.4894541,29.389066 3.7627625,22.825937 6.349568,16.505927 9.5749516,12.077979 12.996151,7.3812075 16.849646,4.2627306 21.345923,2.5522111 22.18606,2.2325971 22.388037,2.1927333 23.312189,2.1641313 l 1.029949,-0.031876 -1.029949,0.6234723 C 17.738802,6.1295374 13.534627,10.838892 10.268507,17.366756 7.5542478,22.791638 5.8653388,28.985135 5.177328,36.036919 c -0.1873667,1.92042 -0.1584634,8.137892 0.047009,10.112226 0.9244674,8.882982 3.4849479,16.610547 7.492366,22.612062 2.527278,3.784856 6.027351,7.372781 9.288719,9.521867 0.512732,0.337867 1.501053,0.918031 2.196268,1.289253 0.695216,0.371224 1.281584,0.692377 1.303042,0.713674 0.136615,0.1356 -0.808746,-0.0213 -2.043103,-0.339094 z"
     id="path405"
     inkscape:connector-curvature="0" /></svg>