<svg xmlns="http://www.w3.org/2000/svg" xmlns:xlink="http://www.w3.org/1999/xlink" version="1.1" x="0px" y="0px" viewBox="0 0 100 125" enable-background="new 0 0 100 100" xml:space="preserve"><g><path d="M37.185,56.649c0.292-0.198,0.368-0.594,0.171-0.886c-0.287-0.424-0.542-0.895-0.759-1.398   c-0.14-0.323-0.517-0.471-0.837-0.333c-0.323,0.139-0.472,0.514-0.333,0.837c0.248,0.576,0.542,1.118,0.874,1.609   c0.123,0.182,0.323,0.28,0.528,0.28C36.952,56.759,37.075,56.723,37.185,56.649z"/><path d="M38.253,58.479c0.555,0.376,1.146,0.644,1.756,0.796c0.051,0.013,0.103,0.019,0.154,0.019c0.285,0,0.545-0.194,0.617-0.483   c0.085-0.341-0.123-0.688-0.464-0.772c-0.464-0.114-0.917-0.321-1.348-0.612c-0.292-0.198-0.688-0.122-0.885,0.17   C37.886,57.886,37.962,58.281,38.253,58.479z"/><path d="M35.086,46.029c-0.187,0.564-0.333,1.153-0.436,1.755c-0.06,0.347,0.173,0.675,0.52,0.734   c0.037,0.007,0.073,0.011,0.109,0.011c0.304,0,0.574-0.22,0.627-0.529c0.093-0.539,0.224-1.067,0.39-1.57   c0.11-0.335-0.07-0.695-0.405-0.805C35.556,45.516,35.195,45.696,35.086,46.029z"/><path d="M37.471,42.146c-0.438,0.406-0.841,0.884-1.199,1.42c-0.195,0.293-0.116,0.688,0.176,0.884   c0.109,0.072,0.231,0.107,0.353,0.107c0.206,0,0.408-0.1,0.531-0.283c0.303-0.454,0.641-0.856,1.005-1.194   c0.258-0.239,0.273-0.642,0.034-0.9C38.132,41.921,37.727,41.907,37.471,42.146z"/><path d="M41.902,40.628c-0.639-0.09-1.31-0.054-1.947,0.112c-0.34,0.089-0.544,0.437-0.455,0.776   c0.075,0.287,0.333,0.477,0.615,0.477c0.054,0,0.108-0.007,0.162-0.021c0.474-0.124,0.972-0.149,1.448-0.084   c0.347,0.046,0.67-0.193,0.72-0.542C42.493,40.998,42.25,40.677,41.902,40.628z"/><path d="M35.087,49.816c-0.352,0.013-0.627,0.308-0.615,0.659c0.021,0.604,0.084,1.206,0.188,1.791   c0.054,0.309,0.323,0.526,0.626,0.526c0.037,0,0.074-0.003,0.111-0.009c0.346-0.061,0.578-0.391,0.517-0.737   c-0.092-0.527-0.148-1.071-0.167-1.616C35.733,50.079,35.459,49.802,35.087,49.816z"/><path d="M42.69,59.161c0.071,0,0.144-0.011,0.215-0.037c0.584-0.209,1.145-0.526,1.666-0.942c0.275-0.219,0.32-0.62,0.101-0.895   c-0.221-0.276-0.621-0.318-0.895-0.101c-0.412,0.328-0.849,0.577-1.301,0.738c-0.331,0.119-0.503,0.483-0.385,0.813   C42.184,58.999,42.429,59.161,42.69,59.161z"/><path d="M44.529,41.786c-0.278-0.22-0.678-0.169-0.894,0.107c-0.217,0.276-0.169,0.677,0.108,0.894   c0.387,0.305,0.75,0.678,1.079,1.109c0.126,0.164,0.315,0.251,0.508,0.251c0.135,0,0.27-0.042,0.385-0.13   c0.28-0.214,0.334-0.613,0.121-0.893C45.442,42.607,45.002,42.156,44.529,41.786z"/><path d="M28.449,49.825c-0.352,0.006-0.632,0.296-0.626,0.647c0.01,0.589,0.04,1.178,0.087,1.751   c0.027,0.333,0.306,0.584,0.633,0.584c0.018,0,0.036,0,0.053-0.001c0.351-0.029,0.611-0.337,0.582-0.688   c-0.045-0.549-0.072-1.105-0.082-1.668C29.091,50.1,28.833,49.816,28.449,49.825z"/><path d="M28.825,45.565c-0.35-0.051-0.672,0.189-0.723,0.537c-0.084,0.577-0.151,1.164-0.197,1.743   c-0.027,0.351,0.234,0.657,0.584,0.685c0.018,0.002,0.034,0.003,0.051,0.003c0.329,0,0.608-0.253,0.635-0.586   c0.043-0.552,0.106-1.11,0.187-1.659C29.414,45.94,29.172,45.616,28.825,45.565z"/><path d="M32.986,64.652c0.143,0,0.286-0.048,0.405-0.145c0.272-0.224,0.31-0.625,0.087-0.896c-0.338-0.411-0.667-0.856-0.978-1.323   c-0.194-0.294-0.59-0.373-0.883-0.18c-0.293,0.194-0.373,0.591-0.178,0.883c0.334,0.504,0.69,0.985,1.056,1.43   C32.621,64.573,32.803,64.652,32.986,64.652z"/><path d="M29.116,41.833c-0.184,0.547-0.352,1.115-0.498,1.687c-0.087,0.341,0.119,0.688,0.459,0.775   c0.052,0.014,0.106,0.02,0.158,0.02c0.284,0,0.542-0.191,0.616-0.479c0.139-0.542,0.297-1.079,0.471-1.597   c0.112-0.334-0.067-0.695-0.401-0.807C29.585,41.321,29.228,41.5,29.116,41.833z"/><path d="M29.802,58.238c-0.327,0.127-0.492,0.495-0.366,0.824c0.214,0.556,0.449,1.101,0.698,1.618   c0.109,0.229,0.336,0.361,0.575,0.361c0.092,0,0.186-0.02,0.274-0.063c0.317-0.152,0.451-0.532,0.298-0.85   c-0.233-0.487-0.455-1-0.656-1.525C30.5,58.276,30.13,58.114,29.802,58.238z"/><path d="M29.251,57.023c0.053,0,0.107-0.006,0.16-0.02c0.341-0.088,0.545-0.436,0.458-0.776c-0.138-0.53-0.259-1.079-0.361-1.629   c-0.063-0.345-0.4-0.575-0.742-0.509c-0.346,0.063-0.574,0.396-0.51,0.741c0.107,0.579,0.234,1.156,0.379,1.715   C28.71,56.834,28.969,57.023,29.251,57.023z"/><path d="M51.932,41.756c0.186,0.512,0.356,1.045,0.506,1.584c0.079,0.281,0.335,0.466,0.613,0.466c0.057,0,0.114-0.008,0.173-0.024   c0.338-0.094,0.535-0.445,0.44-0.784c-0.159-0.57-0.34-1.134-0.535-1.676c-0.119-0.33-0.482-0.5-0.816-0.382   C51.982,41.06,51.811,41.425,51.932,41.756z"/><path d="M35.833,67.39c0.104,0.064,0.22,0.096,0.334,0.096c0.213,0,0.422-0.107,0.542-0.302c0.185-0.299,0.093-0.691-0.207-0.877   c-0.448-0.277-0.888-0.598-1.309-0.95c-0.269-0.228-0.67-0.192-0.897,0.077s-0.191,0.67,0.078,0.896   C34.842,66.725,35.333,67.08,35.833,67.39z"/><path d="M51.205,37.354c-0.188-0.299-0.582-0.388-0.878-0.2c-0.298,0.188-0.388,0.581-0.2,0.879   c0.288,0.458,0.563,0.942,0.814,1.438c0.113,0.221,0.337,0.349,0.569,0.349c0.098,0,0.196-0.022,0.289-0.069   c0.313-0.159,0.438-0.543,0.278-0.856C51.809,38.364,51.515,37.846,51.205,37.354z"/><path d="M36.45,33.728c0.462-0.291,0.941-0.54,1.423-0.743c0.325-0.136,0.477-0.51,0.341-0.834   c-0.136-0.324-0.509-0.478-0.833-0.34c-0.545,0.229-1.086,0.511-1.607,0.838c-0.299,0.187-0.388,0.58-0.201,0.878   c0.12,0.192,0.328,0.298,0.54,0.298C36.228,33.824,36.345,33.793,36.45,33.728z"/><path d="M31.806,37.597c-0.304-0.18-0.694-0.079-0.872,0.224c-0.293,0.496-0.572,1.021-0.83,1.562   c-0.152,0.317-0.017,0.697,0.301,0.849c0.088,0.042,0.182,0.063,0.273,0.063c0.238,0,0.467-0.134,0.575-0.363   c0.241-0.507,0.502-0.998,0.776-1.461C32.209,38.166,32.109,37.775,31.806,37.597z"/><path d="M33.657,34.317c-0.416,0.402-0.822,0.845-1.207,1.315c-0.222,0.272-0.182,0.674,0.09,0.896   c0.119,0.097,0.261,0.144,0.403,0.144c0.184,0,0.368-0.08,0.494-0.233c0.353-0.434,0.726-0.839,1.105-1.206   c0.253-0.245,0.259-0.648,0.015-0.901C34.313,34.081,33.91,34.073,33.657,34.317z"/><path d="M53.723,53.635c-0.349-0.059-0.675,0.177-0.733,0.524c-0.091,0.55-0.2,1.1-0.328,1.634   c-0.081,0.343,0.131,0.686,0.473,0.768c0.05,0.012,0.1,0.017,0.147,0.017c0.289,0,0.549-0.197,0.619-0.489   c0.134-0.563,0.25-1.142,0.346-1.721C54.305,54.021,54.069,53.691,53.723,53.635z"/><path d="M51.037,61.712c-0.297-0.187-0.69-0.096-0.877,0.203c-0.295,0.471-0.612,0.926-0.94,1.352   c-0.216,0.278-0.166,0.678,0.112,0.894c0.116,0.09,0.254,0.133,0.391,0.133c0.19,0,0.378-0.085,0.504-0.247   c0.354-0.459,0.696-0.949,1.013-1.456C51.427,62.292,51.336,61.898,51.037,61.712z"/><path d="M51.908,60.625c0.242,0,0.473-0.139,0.58-0.373c0.237-0.52,0.46-1.07,0.662-1.635c0.119-0.331-0.053-0.696-0.385-0.815   c-0.33-0.118-0.695,0.053-0.814,0.385c-0.19,0.532-0.399,1.05-0.622,1.538c-0.146,0.32-0.005,0.697,0.315,0.844   C51.73,60.606,51.82,60.625,51.908,60.625z"/><path d="M40.235,67.644c-0.522-0.062-1.044-0.173-1.552-0.332c-0.339-0.106-0.693,0.081-0.798,0.418   c-0.105,0.335,0.082,0.692,0.417,0.798c0.584,0.183,1.184,0.311,1.785,0.381c0.025,0.004,0.05,0.005,0.075,0.005   c0.318,0,0.594-0.239,0.632-0.563C40.834,68,40.584,67.685,40.235,67.644z"/><path d="M44.146,67.174c-0.504,0.184-1.021,0.321-1.537,0.409c-0.347,0.059-0.581,0.388-0.522,0.734   c0.052,0.311,0.322,0.53,0.627,0.53c0.036,0,0.071-0.002,0.107-0.009c0.592-0.1,1.185-0.258,1.762-0.469   c0.331-0.121,0.5-0.486,0.379-0.816C44.842,67.223,44.476,67.055,44.146,67.174z"/><path d="M47.461,33.992c-0.234,0.262-0.213,0.664,0.05,0.899c0.396,0.354,0.782,0.745,1.147,1.162   c0.126,0.145,0.302,0.218,0.479,0.218c0.149,0,0.298-0.052,0.419-0.158c0.264-0.231,0.291-0.634,0.061-0.898   c-0.4-0.455-0.821-0.884-1.258-1.273C48.1,33.708,47.695,33.729,47.461,33.992z"/><path d="M39.463,31.811c0.04,0.322,0.314,0.559,0.631,0.559c0.026,0,0.053-0.002,0.08-0.005c0.521-0.065,1.061-0.081,1.586-0.046   c0.341,0.024,0.654-0.243,0.676-0.594c0.023-0.352-0.242-0.654-0.594-0.678c-0.6-0.039-1.224-0.021-1.827,0.054   C39.667,31.144,39.42,31.462,39.463,31.811z"/><path d="M46.64,67.235c0.123,0,0.245-0.036,0.355-0.109c0.485-0.329,0.962-0.703,1.416-1.113c0.26-0.235,0.28-0.639,0.045-0.898   c-0.235-0.263-0.639-0.282-0.899-0.047c-0.409,0.371-0.839,0.708-1.275,1.004c-0.292,0.196-0.368,0.592-0.171,0.884   C46.234,67.138,46.434,67.235,46.64,67.235z"/><path d="M46.17,32.363c-0.537-0.302-1.092-0.557-1.651-0.757c-0.333-0.117-0.697,0.054-0.814,0.385   c-0.119,0.332,0.054,0.696,0.385,0.814c0.492,0.177,0.981,0.4,1.456,0.668c0.098,0.056,0.206,0.081,0.312,0.081   c0.223,0,0.438-0.116,0.556-0.324C46.585,32.924,46.476,32.535,46.17,32.363z"/><path d="M21.307,57.063c0.348-0.053,0.586-0.378,0.532-0.727c-0.084-0.551-0.159-1.106-0.223-1.668   c-0.039-0.351-0.347-0.604-0.705-0.562c-0.349,0.039-0.601,0.354-0.561,0.704c0.065,0.579,0.142,1.152,0.229,1.72   c0.049,0.315,0.32,0.541,0.629,0.541C21.242,57.072,21.274,57.068,21.307,57.063z"/><path d="M20.808,52.819c0.352-0.019,0.622-0.316,0.604-0.668c-0.028-0.558-0.045-1.118-0.052-1.684   c-0.004-0.352-0.265-0.646-0.645-0.63c-0.352,0.005-0.633,0.293-0.629,0.645c0.007,0.582,0.024,1.161,0.054,1.734   c0.018,0.34,0.298,0.604,0.635,0.604C20.787,52.821,20.797,52.82,20.808,52.819z"/><path d="M23.168,36.011c0.077,0.03,0.156,0.045,0.235,0.045c0.253,0,0.492-0.152,0.592-0.401c0.208-0.525,0.428-1.04,0.658-1.544   c0.146-0.32,0.004-0.698-0.316-0.844c-0.318-0.146-0.697-0.005-0.843,0.315c-0.238,0.522-0.466,1.057-0.683,1.602   C22.681,35.511,22.84,35.881,23.168,36.011z"/><path d="M21.101,44.289c0.032,0.005,0.065,0.007,0.096,0.007c0.31,0,0.582-0.226,0.629-0.541c0.085-0.559,0.181-1.11,0.289-1.657   c0.068-0.345-0.157-0.68-0.502-0.748c-0.345-0.069-0.679,0.157-0.748,0.502c-0.111,0.564-0.21,1.136-0.298,1.712   C20.514,43.911,20.752,44.236,21.101,44.289z"/><path d="M20.739,48.547c0.011,0.001,0.021,0.002,0.032,0.002c0.336,0,0.619-0.266,0.635-0.606c0.028-0.564,0.066-1.124,0.116-1.679   c0.031-0.351-0.228-0.66-0.577-0.691c-0.361-0.032-0.66,0.227-0.692,0.577c-0.051,0.572-0.091,1.149-0.119,1.731   C20.117,48.232,20.388,48.53,20.739,48.547z"/><path d="M25.051,66.731c-0.154-0.314-0.536-0.446-0.853-0.291c-0.315,0.155-0.445,0.537-0.29,0.853   c0.258,0.527,0.531,1.043,0.813,1.544c0.117,0.208,0.333,0.324,0.556,0.324c0.105,0,0.213-0.026,0.312-0.082   c0.307-0.172,0.415-0.561,0.242-0.867C25.561,67.731,25.3,67.236,25.051,66.731z"/><path d="M22.706,60.449c-0.144-0.536-0.279-1.081-0.4-1.633c-0.077-0.345-0.417-0.561-0.76-0.484   c-0.343,0.076-0.561,0.417-0.484,0.76c0.127,0.57,0.265,1.133,0.414,1.688c0.076,0.283,0.334,0.471,0.615,0.471   c0.054,0,0.11-0.007,0.165-0.021C22.596,61.139,22.797,60.789,22.706,60.449z"/><path d="M27.156,70.34c-0.199-0.289-0.594-0.361-0.886-0.164c-0.29,0.199-0.363,0.596-0.164,0.886   c0.335,0.487,0.68,0.957,1.037,1.411c0.126,0.159,0.313,0.242,0.501,0.242c0.138,0,0.276-0.044,0.393-0.136   c0.276-0.218,0.324-0.618,0.107-0.895C27.804,71.252,27.474,70.804,27.156,70.34z"/><path d="M24.028,64.433c-0.206-0.515-0.401-1.039-0.585-1.572c-0.114-0.333-0.475-0.51-0.809-0.396   c-0.333,0.115-0.509,0.479-0.395,0.81c0.191,0.554,0.393,1.098,0.607,1.632c0.1,0.249,0.338,0.4,0.591,0.4   c0.079,0,0.159-0.016,0.236-0.046C24,65.131,24.159,64.759,24.028,64.433z"/><path d="M30.501,25.518c0.15,0,0.3-0.053,0.421-0.16c0.417-0.368,0.849-0.718,1.285-1.042c0.282-0.209,0.341-0.608,0.132-0.891   c-0.21-0.283-0.608-0.343-0.891-0.132c-0.465,0.345-0.926,0.718-1.369,1.11c-0.264,0.232-0.289,0.635-0.056,0.898   C30.149,25.444,30.325,25.518,30.501,25.518z"/><path d="M60.194,41.545c0.114,0.545,0.219,1.096,0.313,1.654c0.053,0.311,0.321,0.531,0.626,0.531c0.035,0,0.072-0.003,0.106-0.009   c0.349-0.059,0.582-0.387,0.522-0.734c-0.096-0.575-0.204-1.144-0.323-1.706c-0.071-0.345-0.411-0.563-0.755-0.491   C60.342,40.863,60.121,41.201,60.194,41.545z"/><path d="M59.098,37.49c0.176,0.526,0.34,1.063,0.492,1.605c0.08,0.281,0.335,0.465,0.614,0.465c0.056,0,0.114-0.008,0.172-0.024   c0.339-0.095,0.536-0.446,0.439-0.785c-0.157-0.563-0.328-1.117-0.509-1.663c-0.111-0.333-0.475-0.516-0.806-0.403   C59.167,36.796,58.986,37.156,59.098,37.49z"/><path d="M57.532,33.601c0.238,0.5,0.468,1.01,0.685,1.531c0.102,0.244,0.339,0.393,0.587,0.393c0.082,0,0.165-0.016,0.244-0.049   c0.325-0.135,0.479-0.508,0.345-0.833c-0.226-0.541-0.463-1.072-0.711-1.592c-0.151-0.316-0.531-0.45-0.85-0.299   C57.516,32.903,57.381,33.284,57.532,33.601z"/><path d="M27.585,28.634c0.19,0,0.377-0.085,0.502-0.245c0.345-0.441,0.705-0.872,1.069-1.277c0.235-0.262,0.214-0.664-0.048-0.899   c-0.262-0.233-0.665-0.214-0.899,0.049c-0.384,0.427-0.762,0.879-1.125,1.344c-0.216,0.277-0.167,0.678,0.109,0.895   C27.311,28.59,27.449,28.634,27.585,28.634z"/><path d="M26.45,29.555c-0.298-0.189-0.69-0.102-0.88,0.194c-0.309,0.485-0.608,0.985-0.895,1.499   c-0.172,0.307-0.063,0.695,0.245,0.866c0.099,0.055,0.205,0.081,0.31,0.081c0.223,0,0.44-0.117,0.556-0.326   c0.275-0.492,0.563-0.971,0.858-1.436C26.834,30.137,26.746,29.743,26.45,29.555z"/><path d="M56.356,31.381c0.117,0.203,0.331,0.316,0.551,0.316c0.109,0,0.219-0.028,0.319-0.087c0.304-0.178,0.406-0.567,0.229-0.871   c-0.296-0.509-0.605-1.003-0.924-1.482c-0.196-0.292-0.591-0.372-0.884-0.177c-0.292,0.195-0.372,0.591-0.176,0.884   C55.777,30.422,56.072,30.895,56.356,31.381z"/><path d="M29.788,73.563c-0.247-0.252-0.649-0.258-0.901-0.012c-0.252,0.245-0.257,0.649-0.012,0.9   c0.412,0.422,0.841,0.829,1.276,1.21c0.121,0.105,0.271,0.157,0.419,0.157c0.178,0,0.354-0.073,0.479-0.217   c0.231-0.265,0.205-0.667-0.06-0.899C30.581,74.345,30.176,73.961,29.788,73.563z"/><path d="M53.986,27.951c0.126,0.154,0.309,0.234,0.492,0.234c0.143,0,0.285-0.047,0.403-0.144c0.271-0.223,0.313-0.624,0.091-0.896   c-0.369-0.453-0.759-0.897-1.159-1.319c-0.24-0.256-0.644-0.267-0.898-0.025c-0.258,0.241-0.269,0.645-0.026,0.9   C53.267,27.101,53.635,27.521,53.986,27.951z"/><path d="M21.903,40.093c0.055,0.014,0.109,0.021,0.164,0.021c0.282,0,0.54-0.188,0.615-0.474c0.145-0.545,0.302-1.083,0.469-1.613   c0.106-0.335-0.08-0.693-0.415-0.799c-0.333-0.105-0.693,0.079-0.799,0.414c-0.174,0.549-0.336,1.106-0.486,1.672   C21.361,39.653,21.563,40.002,21.903,40.093z"/><path d="M59.932,62.015c-0.328-0.108-0.694,0.072-0.804,0.406c-0.178,0.536-0.365,1.063-0.564,1.58   c-0.126,0.328,0.038,0.697,0.366,0.823c0.075,0.029,0.153,0.043,0.229,0.043c0.255,0,0.497-0.156,0.594-0.408   c0.205-0.537,0.401-1.084,0.584-1.64C60.447,62.485,60.266,62.125,59.932,62.015z"/><path d="M52.953,73.23c-0.382,0.408-0.779,0.801-1.18,1.168c-0.26,0.238-0.276,0.641-0.039,0.9   c0.126,0.137,0.297,0.206,0.469,0.206c0.154,0,0.309-0.056,0.432-0.166c0.424-0.39,0.844-0.807,1.249-1.237   c0.24-0.258,0.226-0.66-0.03-0.9C53.597,72.96,53.191,72.974,52.953,73.23z"/><path d="M60.969,57.869c-0.346-0.075-0.682,0.148-0.753,0.493c-0.116,0.554-0.242,1.1-0.38,1.639   c-0.088,0.341,0.117,0.688,0.459,0.774c0.054,0.014,0.106,0.02,0.157,0.02c0.284,0,0.543-0.19,0.617-0.479   c0.143-0.556,0.272-1.121,0.394-1.691C61.534,58.279,61.313,57.942,60.969,57.869z"/><path d="M56.407,69.779c-0.293-0.195-0.688-0.114-0.882,0.179c-0.312,0.47-0.634,0.924-0.966,1.362   c-0.212,0.28-0.157,0.68,0.123,0.892c0.116,0.088,0.251,0.13,0.385,0.13c0.192,0,0.383-0.087,0.508-0.252   c0.348-0.46,0.685-0.936,1.012-1.429C56.78,70.368,56.701,69.974,56.407,69.779z"/><path d="M58.421,66.012c-0.316-0.152-0.696-0.015-0.848,0.302c-0.242,0.511-0.496,1.008-0.758,1.494   c-0.167,0.309-0.053,0.694,0.256,0.863c0.096,0.052,0.2,0.077,0.303,0.077c0.226,0,0.445-0.121,0.561-0.334   c0.274-0.504,0.538-1.023,0.79-1.554C58.875,66.543,58.739,66.162,58.421,66.012z"/><path d="M61.554,53.637c-0.358-0.027-0.663,0.22-0.698,0.569c-0.058,0.563-0.126,1.119-0.204,1.672   c-0.05,0.348,0.191,0.67,0.539,0.72c0.031,0.005,0.062,0.007,0.092,0.007c0.312,0,0.583-0.229,0.63-0.546   c0.081-0.569,0.151-1.145,0.211-1.724C62.157,53.984,61.903,53.672,61.554,53.637z"/><path d="M33.986,23.061c0.102,0,0.207-0.025,0.303-0.077c0.482-0.262,0.981-0.5,1.481-0.707c0.325-0.135,0.479-0.508,0.344-0.832   c-0.134-0.325-0.507-0.479-0.832-0.345c-0.541,0.225-1.079,0.481-1.6,0.765c-0.31,0.167-0.424,0.554-0.256,0.863   C33.541,22.939,33.76,23.061,33.986,23.061z"/><path d="M37.962,21.545c0.047,0,0.096-0.005,0.144-0.017c0.531-0.122,1.071-0.213,1.607-0.271c0.35-0.038,0.603-0.353,0.566-0.701   c-0.038-0.351-0.358-0.601-0.702-0.565c-0.586,0.063-1.177,0.163-1.756,0.296c-0.342,0.079-0.557,0.42-0.479,0.763   C37.41,21.345,37.672,21.545,37.962,21.545z"/><path d="M38.192,78.491c-0.525-0.116-1.053-0.267-1.571-0.444c-0.331-0.114-0.695,0.062-0.81,0.394   c-0.114,0.333,0.062,0.695,0.394,0.811c0.563,0.194,1.139,0.356,1.711,0.484c0.046,0.01,0.093,0.015,0.139,0.015   c0.292,0,0.555-0.202,0.621-0.499C38.753,78.907,38.537,78.567,38.192,78.491z"/><path d="M51.079,24.995c0.119,0.1,0.264,0.148,0.408,0.148c0.182,0,0.362-0.078,0.488-0.229c0.226-0.271,0.189-0.672-0.079-0.897   c-0.456-0.381-0.929-0.741-1.404-1.071c-0.288-0.201-0.685-0.13-0.887,0.159c-0.201,0.289-0.13,0.686,0.16,0.887   C50.209,24.3,50.651,24.638,51.079,24.995z"/><path d="M34.369,77.06c-0.475-0.253-0.95-0.539-1.413-0.847c-0.292-0.195-0.689-0.115-0.882,0.177   c-0.195,0.294-0.116,0.688,0.177,0.885c0.497,0.329,1.008,0.636,1.518,0.908c0.096,0.052,0.198,0.075,0.299,0.075   c0.228,0,0.448-0.121,0.563-0.335C34.796,77.612,34.679,77.226,34.369,77.06z"/><path d="M42.251,78.785c-0.539,0.039-1.088,0.049-1.634,0.025c-0.364-0.016-0.648,0.258-0.663,0.609   c-0.015,0.352,0.258,0.648,0.61,0.663c0.214,0.01,0.429,0.014,0.646,0.014c0.381,0,0.759-0.014,1.135-0.041   c0.351-0.027,0.614-0.333,0.588-0.684C42.907,79.022,42.596,78.764,42.251,78.785z"/><path d="M42.16,21.209c0.542,0.037,1.086,0.106,1.62,0.207c0.04,0.008,0.08,0.012,0.119,0.012c0.3,0,0.567-0.214,0.625-0.52   c0.065-0.346-0.163-0.679-0.508-0.743c-0.582-0.11-1.177-0.187-1.769-0.227c-0.337-0.029-0.654,0.241-0.678,0.592   C41.544,20.881,41.81,21.186,42.16,21.209z"/><path d="M46.139,22.075c0.506,0.188,1.014,0.408,1.505,0.653c0.091,0.046,0.188,0.067,0.283,0.067c0.233,0,0.459-0.129,0.57-0.353   c0.158-0.314,0.03-0.697-0.285-0.854c-0.532-0.267-1.08-0.505-1.629-0.709c-0.331-0.122-0.696,0.045-0.819,0.376   C45.642,21.586,45.811,21.952,46.139,22.075z"/><path d="M49.841,75.955c-0.453,0.318-0.921,0.616-1.39,0.885c-0.306,0.174-0.412,0.563-0.237,0.868   c0.117,0.206,0.331,0.322,0.554,0.322c0.106,0,0.214-0.027,0.313-0.085c0.506-0.286,1.009-0.606,1.492-0.948   c0.289-0.202,0.357-0.601,0.154-0.888C50.526,75.823,50.129,75.753,49.841,75.955z"/><path d="M46.226,77.893c-0.515,0.195-1.04,0.361-1.562,0.494c-0.341,0.087-0.546,0.434-0.459,0.774   c0.074,0.288,0.333,0.479,0.616,0.479c0.053,0,0.105-0.007,0.159-0.02c0.567-0.145,1.138-0.325,1.696-0.538   c0.329-0.124,0.495-0.492,0.37-0.82C46.922,77.934,46.549,77.768,46.226,77.893z"/><path d="M88.356,52.005h1.339c0.174,0,0.338-0.071,0.459-0.195l1.329-1.38c0.236-0.246,0.236-0.637,0-0.883l-1.329-1.38   c-0.121-0.126-0.285-0.195-0.459-0.195h-1.311l3.897-3.41c0.201-0.175,0.271-0.455,0.178-0.703   c-0.095-0.249-0.332-0.413-0.597-0.413h-8.58c-0.154,0-0.304,0.056-0.419,0.157l-4.994,4.369h-8.044   c-0.741-21.862-13.223-38.9-28.615-38.9h-5.902C19.715,9.071,7.5,27.05,7.5,50c0,22.951,12.215,40.929,27.81,40.929h5.902   c15.4,0,27.884-17.048,28.619-38.924h8.012l5.022,4.394c0.115,0.102,0.265,0.157,0.419,0.157h8.58c0.265,0,0.502-0.165,0.597-0.412   c0.093-0.249,0.023-0.529-0.178-0.704L88.356,52.005z M83.522,44.719h6.646l-3.717,3.253h-6.646L83.522,44.719z M8.773,50   c0-21.569,10.968-38.604,25.207-39.606C21.667,14.982,12.552,30.998,12.552,50c0,19.001,9.115,35.018,21.428,39.606   C19.741,88.604,8.773,71.57,8.773,50z M41.211,89.654c-15.1,0-27.385-17.789-27.385-39.654c0-21.866,12.285-39.654,27.385-39.654   c14.69,0,26.608,16.476,27.342,37.626H61.67c0.345-0.028,0.607-0.325,0.586-0.673c-0.037-0.581-0.085-1.158-0.144-1.729   c-0.036-0.35-0.336-0.598-0.699-0.568c-0.351,0.036-0.604,0.349-0.567,0.699c0.057,0.554,0.103,1.114,0.138,1.678   c0.021,0.33,0.29,0.582,0.613,0.594h-7.591c0.289-0.085,0.493-0.354,0.461-0.663c-0.056-0.576-0.134-1.161-0.231-1.74   c-0.059-0.346-0.375-0.578-0.733-0.522c-0.347,0.059-0.58,0.388-0.522,0.734c0.093,0.55,0.167,1.105,0.221,1.652   c0.026,0.261,0.205,0.463,0.439,0.539h-5.408l0.624-2.231c0.021-0.076,0.023-0.152,0.017-0.228   c-0.002-0.022-0.007-0.042-0.012-0.064c-0.01-0.053-0.026-0.104-0.05-0.152c-0.01-0.021-0.02-0.041-0.031-0.061   c-0.031-0.049-0.069-0.093-0.113-0.133c-0.013-0.012-0.021-0.025-0.036-0.036c-0.002-0.002-0.003-0.005-0.007-0.008   c-0.06-0.044-0.126-0.074-0.193-0.096c-0.006-0.002-0.009-0.006-0.016-0.008c-0.013-0.004-0.028,0-0.041-0.003   c-0.057-0.012-0.111-0.017-0.168-0.013c-0.028,0.002-0.053,0.004-0.079,0.009c-0.052,0.009-0.098,0.026-0.146,0.048   c-0.02,0.01-0.043,0.016-0.062,0.027c-0.005,0.002-0.011,0.003-0.015,0.006l-0.761,0.479c-0.137-0.313-0.489-0.466-0.81-0.345   c-0.328,0.126-0.492,0.495-0.366,0.823c0.026,0.069,0.048,0.143,0.072,0.214l-2.597,1.632c-0.508-0.94-1.327-1.521-2.232-1.521   c-1.547,0-2.76,1.62-2.76,3.688c0,2.069,1.212,3.689,2.76,3.689c0.915,0,1.735-0.588,2.243-1.54l2.635,1.656   c-0.042,0.051-0.082,0.102-0.104,0.166c-0.196,0.513-0.429,0.998-0.695,1.441c-0.181,0.302-0.083,0.692,0.22,0.873   c0.102,0.063,0.215,0.091,0.326,0.091c0.217,0,0.428-0.109,0.547-0.309c0.295-0.492,0.554-1.03,0.771-1.594l0.751,0.472   c0.028,0.019,0.06,0.027,0.092,0.041c0.02,0.008,0.038,0.02,0.058,0.025c0.062,0.02,0.124,0.031,0.189,0.031   c0.006,0.001,0.013,0,0.017,0c0.013,0,0.022-0.006,0.034-0.007c0.042-0.004,0.082-0.005,0.121-0.017   c0.01-0.003,0.017-0.01,0.025-0.014c0.072-0.021,0.138-0.056,0.197-0.101c0.002,0,0.003-0.002,0.003-0.002   c0.152-0.117,0.256-0.292,0.256-0.498c0-0.055-0.025-0.102-0.038-0.153c-0.002-0.006,0-0.012-0.002-0.019l-0.036-0.128   c-0.002-0.002,0-0.003-0.002-0.005l-0.586-2.097h5.125c0.1,0.188,0.282,0.329,0.511,0.344c0.016,0,0.028,0.001,0.043,0.001   c0.242,0,0.455-0.14,0.561-0.345h6.643c0.103,0.193,0.294,0.334,0.529,0.344c0.008,0,0.017,0,0.024,0   c0.244,0,0.453-0.141,0.56-0.344h6.327C67.83,73.169,55.908,89.654,41.211,89.654z M40.872,50.527l1.502,0.943   c-0.283,0.577-0.717,0.945-1.163,0.945c-0.805,0-1.486-1.106-1.486-2.416c0-1.309,0.681-2.415,1.486-2.415   c0.439,0,0.87,0.36,1.152,0.926l-1.492,0.938c-0.185,0.117-0.298,0.321-0.298,0.54S40.687,50.41,40.872,50.527z M42.407,49.988   l4.775-3.001l-0.796,2.829c-0.033,0.112-0.033,0.231,0,0.345l0.796,2.827L42.407,49.988z M47.87,50.731l-0.209-0.743l0.209-0.743   h41.555l0.715,0.743l-0.715,0.743H47.87z M83.522,55.282l-3.745-3.277h6.646l3.745,3.277H83.522z"/></g><text x="0" y="115" fill="#000000" font-size="5px" font-weight="bold" font-family="'Helvetica Neue', Helvetica, Arial-Unicode, Arial, Sans-serif">Created by Fernando Affonso</text><text x="0" y="120" fill="#000000" font-size="5px" font-weight="bold" font-family="'Helvetica Neue', Helvetica, Arial-Unicode, Arial, Sans-serif">from the Noun Project</text></svg>