<?xml version="1.0" encoding="UTF-8" standalone="no"?>
<svg
   xmlns:dc="http://purl.org/dc/elements/1.1/"
   xmlns:cc="http://creativecommons.org/ns#"
   xmlns:rdf="http://www.w3.org/1999/02/22-rdf-syntax-ns#"
   xmlns:svg="http://www.w3.org/2000/svg"
   xmlns="http://www.w3.org/2000/svg"
   xmlns:sodipodi="http://sodipodi.sourceforge.net/DTD/sodipodi-0.dtd"
   xmlns:inkscape="http://www.inkscape.org/namespaces/inkscape"
   version="1.1"
   x="0px"
   y="0px"
   viewBox="0 0 54.104 62.826"
   enable-background="new 0 0 100 100"
   xml:space="preserve"
   id="svg8"
   sodipodi:docname="time.svg"
   width="54.104"
   height="62.826"
   inkscape:version="0.92.1 unknown"><metadata
     id="metadata14"><rdf:RDF><cc:Work
         rdf:about=""><dc:format>image/svg+xml</dc:format><dc:type
           rdf:resource="http://purl.org/dc/dcmitype/StillImage" /><dc:title></dc:title></cc:Work></rdf:RDF></metadata><defs
     id="defs12" /><sodipodi:namedview
     pagecolor="#ffffff"
     bordercolor="#666666"
     borderopacity="1"
     objecttolerance="10"
     gridtolerance="10"
     guidetolerance="10"
     inkscape:pageopacity="0"
     inkscape:pageshadow="2"
     inkscape:window-width="1875"
     inkscape:window-height="1056"
     id="namedview10"
     showgrid="false"
     inkscape:zoom="2.6700352"
     inkscape:cx="45.55651"
     inkscape:cy="11.021328"
     inkscape:window-x="1411"
     inkscape:window-y="24"
     inkscape:window-maximized="1"
     inkscape:current-layer="svg8" /><path
     d="M 29.765,8.858 V 4.859 h 10.866 c 0.533,0 0.964,-0.431 0.964,-0.964 V 0.964 C 41.595,0.431 41.164,0 40.631,0 H 13.715 c -0.533,0 -0.964,0.432 -0.964,0.964 v 2.931 c 0,0.533 0.432,0.964 0.964,0.964 h 10.866 v 3.98 C 10.819,10.091 0,21.69 0,35.774 0,50.691 12.135,62.826 27.051,62.826 41.968,62.826 54.104,50.691 54.104,35.774 54.103,21.772 43.41,10.224 29.765,8.858 Z M 14.678,1.928 H 39.667 V 2.93 H 28.801 25.545 14.678 Z M 27.836,4.859 V 8.693 H 26.509 V 4.859 Z M 27.05,60.896 c -13.853,0 -25.122,-11.271 -25.122,-25.123 0,-13.854 11.27,-25.124 25.122,-25.124 13.854,0 25.124,11.271 25.124,25.124 0,13.853 -11.27,25.123 -25.124,25.123 z M 50.234,35.773 c 0,-12.784 -10.4,-23.183 -23.184,-23.183 -12.783,0 -23.182,10.399 -23.182,23.183 0,12.783 10.399,23.182 23.182,23.182 12.783,0 23.184,-10.398 23.184,-23.182 z M 27.05,57.027 c -11.719,0 -21.253,-9.535 -21.253,-21.254 0,-11.72 9.534,-21.255 21.253,-21.255 11.72,0 21.256,9.535 21.256,21.255 0,11.719 -9.536,21.254 -21.256,21.254 z M 5.037,24.78 c 2.28,-4.557 6.017,-8.379 10.521,-10.764 0.236,-0.125 0.528,-0.035 0.652,0.2 0.124,0.236 0.034,0.527 -0.201,0.652 C 11.679,17.159 8.09,20.832 5.898,25.21 5.814,25.379 5.644,25.477 5.466,25.477 5.393,25.477 5.32,25.461 5.251,25.426 5.014,25.308 4.918,25.018 5.037,24.78 Z m -0.726,1.655 c 0,-0.288 0.234,-0.521 0.522,-0.521 0.288,0 0.521,0.233 0.521,0.521 0,0.288 -0.233,0.522 -0.521,0.522 -0.288,0 -0.522,-0.234 -0.522,-0.522 z m 44.914,20.232 c -2.28,4.556 -6.017,8.379 -10.521,10.765 -0.072,0.038 -0.15,0.055 -0.226,0.055 -0.173,0 -0.341,-0.093 -0.428,-0.256 -0.124,-0.236 -0.033,-0.527 0.2,-0.652 4.33,-2.291 7.921,-5.964 10.112,-10.342 0.119,-0.237 0.41,-0.336 0.646,-0.217 0.238,0.12 0.335,0.408 0.217,0.647 z m 0.725,-1.655 c 0,0.288 -0.233,0.521 -0.521,0.521 -0.288,0 -0.521,-0.233 -0.521,-0.521 0,-0.288 0.233,-0.521 0.521,-0.521 0.288,0 0.521,0.233 0.521,0.521 z M 39.235,33.504 h -9.83 v -9.83 c 0,-0.533 -0.431,-0.964 -0.964,-0.964 h -2.774 c -0.533,0 -0.964,0.432 -0.964,0.964 v 13.568 c 0,0.533 0.431,0.965 0.964,0.965 h 13.568 c 0.533,0 0.965,-0.432 0.965,-0.965 v -2.773 c -0.001,-0.534 -0.432,-0.965 -0.965,-0.965 z m -0.964,2.774 H 26.63 v -11.64 h 0.846 v 9.831 c 0,0.532 0.432,0.964 0.964,0.964 h 9.83 v 0.845 z"
     id="path2"
     inkscape:connector-curvature="0" /><path
     style="opacity:1;fill:#ffcc00;fill-opacity:1;stroke:#ffcc00;stroke-width:0.4;stroke-linejoin:round;stroke-miterlimit:4;stroke-dasharray:none;stroke-opacity:1"
     d="M 23.95969,60.656322 C 17.62772,59.782914 11.908811,56.689461 7.9863073,52.016052 2.1090613,45.013694 0.41025034,35.543706 3.5272784,27.159283 6.6670798,18.713604 13.936842,12.652282 22.83416,11.061753 c 1.619844,-0.289571 5.248452,-0.396021 6.894099,-0.202246 7.638714,0.899457 14.124044,4.901442 18.367402,11.334204 4.708886,7.138485 5.293709,16.668296 1.502184,24.478395 -1.347423,2.775534 -2.934,4.928176 -5.332503,7.235059 -3.556873,3.421001 -7.887011,5.625339 -12.909746,6.571946 -1.297126,0.244463 -6.07789,0.359014 -7.395906,0.177211 z m 6.532247,-1.92724 c 0.788841,-0.109832 2.132153,-0.400569 2.985135,-0.646083 8.496016,-2.445409 14.869837,-9.540294 16.458774,-18.320736 0.397942,-2.199023 0.395368,-5.806429 -0.0057,-8.025476 C 48.809739,25.538314 45.170726,19.966102 39.981936,16.503706 37.006222,14.518059 34.002981,13.3553 30.389771,12.789924 28.379612,12.475386 24.479245,12.569217 22.528337,12.979047 18.114,13.906372 14.354598,15.860226 11.107798,18.914583 3.7141701,25.869977 1.7257371,36.895618 6.2179115,46.028457 9.3669709,52.43067 15.439242,57.09846 22.503122,58.546994 c 2.401749,0.492508 5.286957,0.558269 7.988815,0.182088 z m 9.407266,-1.941886 c 3.7674,-2.280811 7.033506,-5.694703 9.003915,-9.411329 0.528952,-0.997719 0.495311,-1.413618 -0.11434,-1.413618 -0.263941,0 -0.427941,0.192761 -0.929431,1.092426 -1.024882,1.838623 -2.310203,3.531809 -3.904954,5.1441 -1.644062,1.662142 -2.844054,2.615337 -4.705765,3.737947 -1.138987,0.686809 -1.361957,0.938103 -1.202068,1.354766 0.134213,0.349755 0.693338,0.19756 1.852643,-0.504292 z M 49.91308,45.300173 c 0.1007,-0.188161 0.1007,-0.3415 0,-0.529661 -0.250134,-0.467379 -1.059322,-0.265083 -1.059322,0.264831 0,0.529914 0.809188,0.73221 1.059322,0.26483 z M 5.2134732,26.818787 c 0.1144447,-0.114444 0.2080812,-0.288949 0.2080812,-0.387788 0,-0.231846 -0.3640226,-0.595868 -0.5958686,-0.595868 -0.231846,0 -0.5958687,0.364022 -0.5958687,0.595868 0,0.231846 0.3640227,0.595869 0.5958687,0.595869 0.098839,0 0.2733429,-0.09364 0.3877874,-0.208081 z m 0.8421485,-1.85135 c 2.9156609,-4.895584 4.8927503,-6.92235 9.6694673,-9.912426 0.61324,-0.383869 0.707603,-0.774113 0.255687,-1.05741 -0.184733,-0.115805 -0.375554,-0.06626 -0.926907,0.240678 -3.724561,2.073441 -7.1090343,5.401241 -9.2970145,9.141335 -0.8609251,1.47165 -0.9378275,1.701658 -0.6613746,1.978111 0.3447125,0.344712 0.5791549,0.249413 0.9601418,-0.390288 z"
     id="path4491"
     inkscape:connector-curvature="0" /><path
     style="opacity:1;fill:#ffcc00;fill-opacity:1;stroke:#ffcc00;stroke-width:0.237;stroke-linejoin:round;stroke-miterlimit:4;stroke-dasharray:none;stroke-opacity:1"
     d="m 26.688253,30.446706 v -5.758351 h 0.374527 0.374527 v 5.065476 5.065477 l 0.318347,0.318348 0.318348,0.318347 h 5.065477 5.065476 v 0.374527 0.374527 h -5.758351 -5.758351 z"
     id="path4493"
     inkscape:connector-curvature="0" /><path
     style="opacity:1;fill:#fff0b9;fill-opacity:1;stroke:#fff0b9;stroke-width:0.137;stroke-linejoin:round;stroke-miterlimit:4;stroke-dasharray:none;stroke-opacity:1"
     d="M 25.377409,56.933557 C 21.902737,56.618013 18.311514,55.388193 15.499262,53.550772 10.371144,50.200253 6.936159,44.804196 6.0369357,38.686298 c -0.2243476,-1.526356 -0.2243476,-4.278811 0,-5.805167 0.7008486,-4.768248 2.8137078,-8.927298 6.2412483,-12.285563 3.805994,-3.729068 8.691923,-5.814826 14.035542,-5.991643 6.159605,-0.203818 11.786817,2.08582 16.041601,6.527115 3.157433,3.295841 5.14154,7.42668 5.724761,11.918742 0.164578,1.267617 0.189523,3.949076 0.04767,5.123997 -0.870888,7.213098 -5.279914,13.456922 -11.735994,16.61988 -2.035133,0.997049 -4.027973,1.623849 -6.239134,1.962368 -0.950578,0.14553 -3.914298,0.255713 -4.775218,0.17753 z m 14.285215,-18.80568 c 0.517556,-0.216249 0.602229,-0.539484 0.602229,-2.298989 0,-1.152769 -0.0328,-1.569193 -0.139913,-1.776327 -0.303389,-0.586689 -0.06427,-0.562824 -5.639272,-0.562824 h -5.082095 v -5.090302 c 0,-4.986256 -0.0039,-5.095278 -0.191523,-5.333783 -0.272904,-0.346941 -0.712511,-0.43615 -2.14927,-0.43615 -1.427028,0 -1.834444,0.08065 -2.160483,0.427689 l -0.227126,0.241754 v 7.094281 c 0,7.759797 -0.02279,7.440485 0.551291,7.723707 0.428663,0.211479 13.931713,0.221717 14.436162,0.01094 z"
     id="path4495"
     inkscape:connector-curvature="0" /><path
     style="opacity:1;fill:#ff9900;fill-opacity:1;stroke:#ff9900;stroke-width:0.109;stroke-linejoin:round;stroke-miterlimit:4;stroke-dasharray:none;stroke-opacity:1"
     d="m 5.2707739,25.219955 c -0.1691867,-0.169187 -0.040132,-0.499762 0.6592711,-1.688732 2.1717092,-3.691858 5.429317,-6.922707 9.093112,-9.018419 0.614664,-0.351591 0.854112,-0.398132 0.983654,-0.19119 0.107543,0.171801 -0.03298,0.288945 -1.606587,1.339261 -1.830641,1.221877 -2.792909,1.975317 -3.919099,3.068593 -1.4975481,1.453779 -2.5814732,2.846616 -4.0624082,5.220165 -0.8361892,1.340191 -0.9510108,1.467254 -1.1479429,1.270322 z"
     id="path4497"
     inkscape:connector-curvature="0" /><path
     style="opacity:1;fill:#ff9900;fill-opacity:1;stroke:#ff9900;stroke-width:0.105;stroke-linejoin:round;stroke-miterlimit:4;stroke-dasharray:none;stroke-opacity:1"
     d="m 4.6299491,26.673436 c -0.091017,-0.07991 -0.1654845,-0.18687 -0.1654845,-0.237681 0,-0.119503 0.2465724,-0.366076 0.3660759,-0.366076 0.08972,0 0.3829779,0.28684 0.3829779,0.374596 0,0.05679 -0.3176656,0.374458 -0.3744584,0.374458 -0.023994,0 -0.1180944,-0.06538 -0.2091109,-0.145297 z"
     id="path4499"
     inkscape:connector-curvature="0" /><path
     style="opacity:1;fill:#ff9900;fill-opacity:1;stroke:#ff9900;stroke-width:0.103;stroke-linejoin:round;stroke-miterlimit:4;stroke-dasharray:none;stroke-opacity:1"
     d="m 49.225575,45.280564 c -0.190987,-0.116445 -0.214456,-0.333629 -0.05003,-0.462968 0.357223,-0.280992 0.807112,0.131931 0.489637,0.449406 -0.100561,0.100561 -0.287461,0.106327 -0.439609,0.01356 z"
     id="path4501"
     inkscape:connector-curvature="0" /><path
     style="opacity:1;fill:#ff9900;fill-opacity:1;stroke:#ff9900;stroke-width:0.103;stroke-linejoin:round;stroke-miterlimit:4;stroke-dasharray:none;stroke-opacity:1"
     d="m 38.249727,57.242214 c -0.01214,-0.01214 -0.02207,-0.07865 -0.02207,-0.147815 0,-0.238267 0.153721,-0.363511 1.426147,-1.161952 1.720417,-1.079553 2.618808,-1.791713 4.081102,-3.23511 1.152805,-1.137908 1.851282,-1.926196 2.641836,-2.981531 0.642484,-0.857672 0.959003,-1.349496 1.894011,-2.943016 0.26328,-0.448703 0.402094,-0.598284 0.555223,-0.598284 0.18942,0 0.240434,0.06061 0.217069,0.257888 -0.02774,0.234233 -0.174682,0.57031 -0.525906,1.20283 -1.978501,3.563093 -5.211342,6.869828 -8.828022,9.029809 -0.744398,0.444575 -1.335123,0.68145 -1.439391,0.577181 z"
     id="path4503"
     inkscape:connector-curvature="0" /><path
     style="opacity:1;fill:#ff9900;fill-opacity:1;stroke:#ff9900;stroke-width:0.00964407;stroke-linejoin:round;stroke-miterlimit:4;stroke-dasharray:none;stroke-opacity:1"
     d="m 26.606912,36.185914 c -0.02461,-0.06437 -0.03382,-2.68723 -0.02047,-5.828574 l 0.02428,-5.711536 0.444751,-0.02854 0.444751,-0.02854 v 5.089692 5.089692 l 0.30876,0.299262 0.308761,0.299263 h 5.075064 5.075063 v 0.468158 0.468159 H 32.45977 c -4.560196,0 -5.817721,-0.02515 -5.852858,-0.11704 z"
     id="path4505"
     inkscape:connector-curvature="0" /><path
     style="opacity:1;fill:#ff9900;fill-opacity:1;stroke:#ff9900;stroke-width:0.21;stroke-linejoin:round;stroke-miterlimit:4;stroke-dasharray:none;stroke-opacity:1"
     d="M 26.56391,6.8089609 V 4.9363264 h 0.608606 0.608606 V 6.8089609 8.6815954 H 27.172516 26.56391 Z"
     id="path4507"
     inkscape:connector-curvature="0" /><path
     style="opacity:1;fill:#cc0000;fill-opacity:1;stroke:#cc0000;stroke-width:0.501;stroke-linejoin:round;stroke-miterlimit:4;stroke-dasharray:none;stroke-opacity:1"
     d="M 14.693014,2.4158962 V 1.9524428 H 27.173151 39.653289 V 2.4158962 2.8793496 H 27.173151 14.693014 Z"
     id="path4509"
     inkscape:connector-curvature="0" /></svg>