<?xml version="1.0" encoding="UTF-8" standalone="no"?>
<svg
   xmlns:dc="http://purl.org/dc/elements/1.1/"
   xmlns:cc="http://creativecommons.org/ns#"
   xmlns:rdf="http://www.w3.org/1999/02/22-rdf-syntax-ns#"
   xmlns:svg="http://www.w3.org/2000/svg"
   xmlns="http://www.w3.org/2000/svg"
   xmlns:xlink="http://www.w3.org/1999/xlink"
   xmlns:sodipodi="http://sodipodi.sourceforge.net/DTD/sodipodi-0.dtd"
   xmlns:inkscape="http://www.inkscape.org/namespaces/inkscape"
   version="1.1"
   x="0px"
   y="0px"
   viewBox="0 0 123.01917 122.90057"
   xml:space="preserve"
   id="svg151"
   sodipodi:docname="whale3.svg"
   width="123.01917"
   height="122.90057"
   inkscape:version="0.92.1 unknown"><metadata
     id="metadata157"><rdf:RDF><cc:Work
         rdf:about=""><dc:format>image/svg+xml</dc:format><dc:type
           rdf:resource="http://purl.org/dc/dcmitype/StillImage" /><dc:title></dc:title></cc:Work></rdf:RDF></metadata><defs
     id="defs155"><linearGradient
       inkscape:collect="always"
       id="linearGradient4784"><stop
         style="stop-color:#35995f;stop-opacity:1;"
         offset="0"
         id="stop4780" /><stop
         style="stop-color:#356f5f;stop-opacity:0"
         offset="1"
         id="stop4782" /></linearGradient><radialGradient
       inkscape:collect="always"
       xlink:href="#linearGradient4784"
       id="radialGradient4786"
       cx="27.67429"
       cy="43.614117"
       fx="27.67429"
       fy="43.614117"
       r="60"
       gradientUnits="userSpaceOnUse"
       gradientTransform="matrix(2.9283353,-0.00541619,0.00489025,2.6439834,-53.578595,-71.550994)" /></defs><sodipodi:namedview
     pagecolor="#ffffff"
     bordercolor="#666666"
     borderopacity="1"
     objecttolerance="10"
     gridtolerance="10"
     guidetolerance="10"
     inkscape:pageopacity="0"
     inkscape:pageshadow="2"
     inkscape:window-width="1875"
     inkscape:window-height="1056"
     id="namedview153"
     showgrid="false"
     inkscape:zoom="7.312"
     inkscape:cx="115.87536"
     inkscape:cy="103.86754"
     inkscape:window-x="1411"
     inkscape:window-y="24"
     inkscape:window-maximized="1"
     inkscape:current-layer="layer1"
     showguides="false" /><g
     inkscape:groupmode="layer"
     id="layer1"
     inkscape:label="fond"
     style="display:inline"
     transform="translate(33.990332,17.782066)"><circle
       style="display:inline;opacity:1;fill:#5bcf8f;fill-opacity:1;stroke:#4b6e5f;stroke-width:2;stroke-miterlimit:4;stroke-dasharray:none;stroke-opacity:1"
       id="path3963"
       cx="27.459955"
       cy="43.668221"
       r="59.950287" /><path
       style="display:inline;stroke-width:0.46723962"
       d="m 86.361387,-0.2342988 1.54189,-1.915684 -2.24274,-1.027924 1.16809,-2.149304 -2.38292,-0.607413 0.79431,-2.3361975 -2.42965,-0.186896 0.3738,-2.4296447 -2.42965,0.233619 -0.0935,-2.47637 -2.3362,0.70086 -0.51397,-2.382923 -2.19602,1.074652 -0.93448,-2.289474 -1.9624,1.448442 -1.355,-2.055853 -1.68205,1.822233 -1.68206,-1.822233 -1.30826,2.055853 -1.962412,-1.448442 -0.93447,2.289474 -2.19603,-1.074652 -0.56069,2.382923 -2.38292,-0.70086 -0.0935,2.47637 -2.42965,-0.233619 0.37379,2.4296447 -2.42964,0.186896 0.7943,2.3361975 -2.38292,0.607413 1.1681,2.149304 -2.19602,1.027924 1.54189,1.915684 -2.00913,1.401718 1.86896,1.588614 -1.72879,1.775512 2.10258,1.214822 -1.355,2.055856 2.28948,0.84103 -0.98121,2.2427508 2.42965,0.420514 -0.56069,2.382922 2.47637,-0.04671 -0.14017,2.429644 2.42964,-0.467238 0.28035,2.429645 2.28947,-0.887754 0.74759,2.336195 2.10258,-1.261545 1.121362,2.196026 1.82224,-1.635337 1.49516,1.962405 1.49517,-1.915684 1.82224,1.63534 1.12139,-2.196025 2.10255,1.261545 0.7476,-2.336198 2.28947,0.887756 0.28035,-2.429646 2.42964,0.46724 -0.14018,-2.476369 2.47638,0.04671 -0.56069,-2.382922 2.42964,-0.420514 -0.9812,-2.2427508 2.28949,-0.84103 -1.35501,-2.055856 2.10258,-1.214822 -1.72878,-1.775512 1.86894,-1.588614 z M 69.680927,16.819946 c -8.129952,0 -14.764762,-6.634803 -14.764762,-14.7647708 0,-8.12997 6.63481,-14.7647722 14.764762,-14.7647722 8.12997,0 14.76478,6.6348022 14.76478,14.7647722 0,8.1299678 -6.63481,14.7647708 -14.76478,14.7647708 z"
       id="path2"
       inkscape:connector-curvature="0" /><path
       style="display:inline;fill:#ffde4c;fill-opacity:1;stroke-width:0.46723962"
       d="m 69.494027,-11.307879 c -7.429092,0 -13.456482,6.0273922 -13.456482,13.4565012 0,7.42911 6.02739,13.4565008 13.456482,13.4565008 7.42912,0 13.4565,-6.0741158 13.4565,-13.5032238 0,-7.42911 -6.02738,-13.4097782 -13.4565,-13.4097782 z m 0,25.885075 c -6.868402,0 -12.475282,-5.6068748 -12.475282,-12.4752968 0,-6.868423 5.60688,-12.4752992 12.475282,-12.4752992 6.86843,0 12.47532,5.6068762 12.47532,12.4752992 0,6.868422 -5.60689,12.4752968 -12.47532,12.4752968 z"
       id="path4"
       inkscape:connector-curvature="0" /><path
       style="display:inline;opacity:1;fill:#ffde4c;fill-opacity:1;stroke:#edcd00;stroke-width:0.86142999;stroke-miterlimit:4;stroke-dasharray:none;stroke-opacity:1"
       d="m 69.463467,20.522918 c -1.6e-4,-0.07107 -0.30076,-0.477451 -0.66777,-0.903069 l -0.66731,-0.773861 -0.79283,0.730787 c -0.43602,0.401931 -0.8555,0.730786 -0.93213,0.730786 -0.0766,0 -0.36911,-0.465057 -0.649922,-1.033462 l -0.51059,-1.033462 -0.99927,0.602747 c -0.54959,0.331511 -1.02783,0.602747 -1.06274,0.602747 -0.0349,0 -0.23116,-0.503935 -0.43613,-1.11986 -0.20497,-0.615922 -0.39041,-1.119857 -0.41209,-1.119857 -0.0217,0 -0.52334,0.189642 -1.11479,0.421428 -1.20562,0.472478 -1.1478,0.516204 -1.31763,-0.99645 -0.10336,-0.92057 -0.14453,-0.998212 -0.48628,-0.916864 -0.20535,0.04887 -0.74919,0.143138 -1.20854,0.209463 l -0.83518,0.120595 0.0599,-1.185015 0.0599,-1.185016 -1.18868,0.06009 -1.18868,0.06009 0.13312,-0.835371 c 0.27692,-1.737668 0.30572,-1.678454 -0.89998,-1.850059 -0.59224,-0.08429 -1.07679,-0.217755 -1.07679,-0.296587 0,-0.07884 0.19382,-0.581598 0.43071,-1.1172548 0.2369,-0.535659 0.43072,-0.992653 0.43072,-1.015545 0,-0.0229 -0.48456,-0.216572 -1.07679,-0.430404 -0.59223,-0.213827 -1.1026,-0.411548 -1.13415,-0.439373 -0.0315,-0.02783 0.22042,-0.463076 0.55993,-0.96722 0.33951,-0.504144 0.61729,-0.975144 0.61729,-1.046667 0,-0.07152 -0.4264,-0.37069 -0.94757,-0.664818 -0.52116,-0.294127 -0.94757,-0.582859 -0.94757,-0.641628 0,-0.05877 0.36826,-0.482607 0.81836,-0.941866 0.71539,-0.72996 0.78388,-0.860763 0.54436,-1.039634 -0.5681,-0.42425 -1.56878,-1.347593 -1.51003,-1.393323 0.0336,-0.02618 0.42547,-0.293753 0.87073,-0.594605 0.44527,-0.300855 0.85134,-0.614597 0.9024,-0.697205 0.0511,-0.08262 -0.22574,-0.550301 -0.6151,-1.039313 -0.38936,-0.489014 -0.67915,-0.915034 -0.64397,-0.946708 0.0352,-0.03167 0.49037,-0.270064 1.01153,-0.529757 0.52117,-0.259693 0.96666,-0.488386 0.98999,-0.508209 0.0233,-0.01983 -0.20025,-0.484067 -0.49683,-1.03165 -0.61385,-1.133352 -0.60706,-1.145427 0.82552,-1.466023 0.77343,-0.173088 0.92499,-0.264058 0.82982,-0.498086 -0.064,-0.157479 -0.25686,-0.6860575 -0.42847,-1.1746185 l -0.31203,-0.88829 0.37279,-0.1 c 0.20503,-0.055 0.74853,-0.101056 1.20778,-0.102354 l 0.83499,-0.0024 -0.10811,-1.196425 -0.10811,-1.1964247 1.21134,0.101555 1.21134,0.101555 v -1.230958 c 0,-0.677045 0.0194,-1.22999 0.0431,-1.228768 0.0237,0.0012 0.53486,0.156383 1.13594,0.344801 0.60108,0.188417 1.1527,0.305598 1.22583,0.260402 0.0731,-0.0452 0.22485,-0.549236 0.33716,-1.120087 0.1123,-0.570852 0.2804,-1.037912 0.37354,-1.037912 0.0931,0 0.55183,0.193822 1.01932,0.430715 0.46748,0.236893 0.91109,0.430715 0.98579,0.430715 0.0747,0 0.31619,-0.465172 0.53665,-1.033716 0.22046,-0.568544 0.46088,-1.033716 0.53427,-1.033716 0.0734,0 0.48883,0.271351 0.92318,0.603001 0.434352,0.331651 0.855522,0.603001 0.935952,0.603001 0.0803,0 0.41002,-0.435313 0.73249,-0.967363 l 0.58629,-0.967363 0.86408,0.905813 0.8641,0.905814 0.82007,-0.89189 0.82011,-0.89189 0.63305,0.953439 c 0.34818,0.524392 0.68596,0.95344 0.75062,0.95344 0.0646,0 0.49922,-0.27135 0.9657,-0.603001 0.46648,-0.33165 0.88848,-0.603001 0.93781,-0.603001 0.0492,0 0.27443,0.465172 0.50026,1.033716 0.22582,0.568544 0.47903,1.033716 0.56268,1.033716 0.0837,0 0.53457,-0.193822 1.00205,-0.430715 0.4675,-0.236893 0.91587,-0.430715 0.99639,-0.430715 0.0804,0 0.24776,0.50993 0.37165,1.133179 0.25066,1.261076 0.0992,1.202542 1.77618,0.685952 l 0.81837,-0.252076 v 1.220911 1.220911 l 1.20601,-0.08629 c 1.36294,-0.09752 1.31774,-0.159551 1.05311,1.4457487 -0.13029,0.790379 -0.12445,0.804328 0.37638,0.904502 0.27979,0.05596 0.80913,0.101738 1.17632,0.101738 0.36717,0 0.66762,0.06539 0.66762,0.145316 0,0.07992 -0.15507,0.595996 -0.34459,1.146831 -0.1895,0.5508335 -0.34457,1.0195355 -0.34457,1.0415565 0,0.02202 0.50394,0.176449 1.11987,0.343171 0.61591,0.166722 1.11845,0.349771 1.11673,0.406776 -0.001,0.057 -0.2343,0.523055 -0.51685,1.03567 -0.28256,0.512615 -0.51375,0.954058 -0.51375,0.980984 0,0.02692 0.46518,0.257712 1.03372,0.512859 0.56855,0.255149 1.03371,0.520718 1.03371,0.590157 0,0.06944 -0.31244,0.518686 -0.69435,0.998327 l -0.69435,0.872073 0.81529,0.571791 c 0.44841,0.314486 0.89656,0.631513 0.99585,0.704507 0.11561,0.08502 0.0429,0.248439 -0.20265,0.454749 -0.21077,0.177119 -0.6295,0.529263 -0.9305,0.782543 l -0.54728,0.460507 0.80129,0.813521 c 0.4407,0.447435 0.80129,0.863315 0.80129,0.924173 0,0.06086 -0.4264,0.354617 -0.94759,0.652798 -0.52115,0.298182 -0.94756,0.573716 -0.94756,0.612301 0,0.03859 0.27784,0.504493 0.61744,1.035355 0.33957,0.53086 0.59154,0.984554 0.55992,1.008209 -0.0315,0.02367 -0.53763,0.218846 -1.12447,0.433759 l -1.06695,0.390752 0.42636,0.96404 c 0.23448,0.5302198 0.39071,1.0568628 0.34719,1.1703108 -0.0437,0.113461 -0.54994,0.260913 -1.12532,0.327694 -0.61062,0.07088 -1.04363,0.20404 -1.04004,0.319863 0.003,0.109145 0.11263,0.644231 0.24288,1.189085 l 0.23676,0.990645 h -1.20929 -1.2093 l 0.0652,1.292145 c 0.0359,0.71068 0.0185,1.292146 -0.0385,1.292146 -0.0571,0 -0.55045,-0.08971 -1.09632,-0.199325 -1.15774,-0.232506 -1.29623,-0.129046 -1.30467,0.974611 -0.008,1.118211 -0.12911,1.178704 -1.37527,0.690332 -0.60302,-0.236323 -1.10773,-0.410797 -1.12157,-0.38772 -0.0138,0.02307 -0.16774,0.526514 -0.34202,1.118748 -0.17427,0.592233 -0.38095,1.076786 -0.45928,1.076786 -0.0784,0 -0.52042,-0.232586 -0.98242,-0.516856 -0.46201,-0.284274 -0.91407,-0.51686 -1.00462,-0.51686 -0.0906,0 -0.38486,0.460781 -0.65404,1.02396 l -0.4894,1.023957 -0.92786,-0.79269 c -0.51763,-0.442235 -0.98724,-0.723555 -1.06218,-0.636314 -0.0739,0.086 -0.38724,0.485871 -0.69633,0.888589 -0.5173,0.674001 -0.87694,0.920962 -0.87807,0.603002 z m 3.51109,-4.12073 c 3.12828,-0.705105 6.55727,-2.911584 8.49255,-5.464764 0.93104,-1.2282898 2.15031,-3.7102428 2.54865,-5.1880278 0.47755,-1.771721 0.53053,-4.718968 0.12043,-6.694855 -1.12379,-5.413299 -5.41805,-9.9211192 -10.79576,-11.3326332 -1.88774,-0.495485 -5.16058,-0.534388 -6.97759,-0.08294 -1.563822,0.388546 -3.722272,1.364093 -5.123542,2.315681 -2.23291,1.5163427 -4.6658,4.8151312 -5.59095,7.5808532 -0.53876,1.610628 -0.55763,1.763203 -0.55763,4.509747 0,2.739209 0.02,2.902311 0.54954,4.479433 1.83935,5.4781578 6.50138,9.3712638 12.175002,10.1669238 1.32271,0.185494 3.62548,0.05633 5.15935,-0.289417 z"
       id="path5033"
       inkscape:connector-curvature="0" /><path
       style="display:inline;opacity:1;fill:#820000;fill-opacity:1;stroke:#edcd00;stroke-width:0.3045615;stroke-miterlimit:4;stroke-dasharray:none;stroke-opacity:1"
       d="m 68.410267,16.317721 c -1.94496,-0.171397 -4.195892,-0.91111 -5.929862,-1.948708 -2.00353,-1.198905 -3.74149,-2.899489 -4.93489,-4.8287638 -0.90234,-1.458732 -1.73975,-3.538013 -1.9289,-4.789387 -0.0998,-0.660523 -0.10009,-4.758265 -3.2e-4,-5.421194 0.11741,-0.780301 0.62472,-2.23407 1.13715,-3.258691 1.02903,-2.0576 2.81769,-4.3215325 4.28931,-5.4290545 1.20466,-0.9066097 3.00434,-1.8105247 4.68738,-2.3542977 1.301942,-0.420649 1.707302,-0.469387 3.898382,-0.468707 1.71091,5.31e-4 1.99936,0.01514 2.66309,0.134909 5.24069,0.945632 9.6589,5.0050137 11.19527,10.2860402 0.64578,2.219707 0.63095,5.853739 -0.0319,7.832386 -0.40115,1.197327 -1.25408,2.966095 -1.93295,4.0084348 -1.22211,1.876415 -3.2803,3.61192 -5.71087,4.815451 -1.95785,0.969476 -3.60997,1.356169 -6.06076,1.418588 -0.58628,0.01494 -1.1893,0.01628 -1.34007,0.003 z m 2.98231,-0.848631 c 2.9355,-0.409431 5.76641,-1.879736 7.84209,-4.072964 1.93611,-2.0457698 3.15127,-4.5542108 3.58903,-7.4088388 0.14665,-0.956254 0.14665,-2.815963 0,-3.772219 -0.45652,-2.976966 -1.69963,-5.443231 -3.81121,-7.5613145 -2.47883,-2.48646 -5.54611,-3.8204387 -9.05003,-3.9359267 -3.90875,-0.128829 -7.437042,1.3030247 -10.162662,4.1242127 -2.43879,2.5242945 -3.75205,5.7800505 -3.75423,9.3072225 -0.003,4.5145 2.23088,8.6813208 5.99937,11.1915688 1.55827,1.037992 3.13821,1.681248 5.005502,2.037936 1.35116,0.258098 2.90719,0.290466 4.34214,0.09033 z"
       id="path5039"
       inkscape:connector-curvature="0" /><path
       style="display:inline;opacity:1;fill:#ffde4c;fill-opacity:1;stroke:#edcd00;stroke-width:0.3045615;stroke-miterlimit:4;stroke-dasharray:none;stroke-opacity:1"
       d="M 67.651387,14.42773 C 62.103245,13.577361 57.808045,9.1559662 57.116675,3.5835352 c -0.0944,-0.760668 -0.0787,-2.390007 0.0306,-3.173453 0.66396,-4.760416 4.02205,-8.7403895 8.59502,-10.1867195 3.069842,-0.9709287 6.304822,-0.7310207 9.194802,0.681891 3.83313,1.874032 6.44339,5.5465035 6.93299,9.7542545 0.7834,6.73304 -4.02444,12.9167748 -10.72576,13.7952448 -0.94404,0.123745 -2.59249,0.110993 -3.49296,-0.02701 z"
       id="path5041"
       inkscape:connector-curvature="0" /><text
       xml:space="preserve"
       style="font-style:normal;font-weight:normal;font-size:25.28574944px;line-height:39.50898361px;font-family:sans-serif;letter-spacing:0px;word-spacing:0px;display:inline;fill:#820000;fill-opacity:1;stroke:none;stroke-width:1.58035934px;stroke-linecap:butt;stroke-linejoin:miter;stroke-opacity:1"
       x="61.885372"
       y="11.18174"
       id="text5046"><tspan
         sodipodi:role="line"
         id="tspan5044"
         x="61.885372"
         y="11.18174"
         style="fill:#820000;fill-opacity:1;stroke-width:1.58035934px">3</tspan></text>
</g><g
     inkscape:groupmode="layer"
     id="layer3"
     inkscape:label="cocarde"
     style="display:inline"
     transform="translate(0.21433465,-0.05410365)" /><g
     inkscape:groupmode="layer"
     id="layer4"
     inkscape:label="numéro"
     style="display:inline"
     transform="translate(0.21433465,-0.05410365)" /><g
     inkscape:groupmode="layer"
     id="layer2"
     inkscape:label="badge"
     transform="translate(33.990332,17.782066)"
     style="display:inline"
     sodipodi:insensitive="true"><path
       inkscape:connector-curvature="0"
       d="m 71.159498,63.270959 c -0.104,-0.291 -0.374,-0.488 -0.683,-0.499 -0.027,-0.001 -1.038,-0.038 -2.559,-0.181 0.845,-0.121 1.555,-0.295 1.989,-0.543 0.207,-0.118 0.346,-0.328 0.373,-0.565 0.027,-0.237 -0.06,-0.473 -0.234,-0.636 -1.353,-1.255 -13.393,-12.237001 -18.554,-12.137001 -0.021,10e-4 -2.068,0.135 -3.298,-1.052 -2.464,-2.377 -15.344,-10.396 -33.274998,-6.188 -0.363,0.06 -8.9909996,1.397 -15.82499963,-10.377 -0.08,-0.183 -0.23799997,-0.529 -0.45499997,-0.947 1.16199997,-0.744 4.854,-3.344 4.665,-6.231 -0.102,-1.567 -1.298,-2.856 -3.55600003,-3.834 -0.28,-0.121 -0.6,-0.05 -0.81699997,0.161 -0.218,0.213 -0.281,0.546 -0.168,0.828 0.008,0.019 0.182,0.467 -0.134,1.093 -0.337,0.668 -1.458,1.917 -5.12,2.921 -0.226,-0.155 -0.468,-0.302 -0.729,-0.44 -0.087,-0.062 -2.165,-1.513 -6.0110004,-1.68 -3.108,-0.135 -4.178,-2.808 -4.221,-2.918 -0.052,-0.136 -0.142,-0.254 -0.259,-0.34 -0.099,-0.073 -0.455,-0.311 -0.865,-0.311 -0.343,0 -0.646,0.16 -0.834,0.439 -0.321,0.479 -0.349,1.254 0.562,3.472 1.689,4.109 2.318,4.501 10.0000004,8.21 l 0.896,0.693 c -0.832,3.4 -4.5420004,22.373001 13.793,29.675001 13.4579976,5.36 27.9779976,10.482999 41.1749976,10.482999 8.799,0 17.011,-2.276999 23.927,-8.279999 0.235,-0.201 0.32,-0.525 0.217,-0.816 z M 0.01050037,22.751958 c 0.121,-0.258 0.199,-0.504 0.247,-0.732 0.98200003,0.6 1.50300003,1.267 1.55100003,1.991 0.119,1.816 -2.55100003,3.943 -3.925,4.837 -0.767,-1.173 -1.823,-2.362 -3.016,-2.502 -0.021,-0.026 -0.039,-0.052 -0.06,-0.078 2.768,-0.879 4.51599997,-2.06 5.20299997,-3.516 z m -7.99999997,7.531 c -0.041,-0.032 -0.086,-0.06 -0.133,-0.083 -7.6740004,-3.704 -7.8490004,-3.843 -9.3370004,-7.463 -0.02,-0.05 -0.04,-0.098 -0.059,-0.146 0.872,0.902 2.227,1.785 4.224,1.871 3.3680004,0.146 5.1890004,1.393 5.2880004,1.455 3.141,1.664 2.889,4.735 2.512,6.298 l -1.048,-0.812 c -0.058,-0.065 -0.126,-0.117 -0.206,-0.16 z m 14.387,30.210001 c -7.869,-3.135 -12.414,-8.834 -13.509,-16.939001 -0.604,-4.465 0.057,-8.469 0.464,-10.333 l 0.474,0.367 c -0.216,2.076 -0.852,9.834 1.08,14.736 0.094,0.236 0.319,0.381 0.559,0.381 0.073,0 0.147,-0.014 0.22,-0.042 0.309,-0.122 0.46,-0.471 0.339,-0.778 -1.684,-4.272 -1.275,-11.137 -1.048,-13.676 0.037,-0.003 0.075,-0.004 0.112,-0.014 0.225,-0.06 0.41,-0.22 0.501,-0.435 0.487,-1.155 0.868,-3.036 0.467,-4.882 0.64,0.8 1.276,1.925 1.703,2.893 1.87199997,3.228 3.881,5.542 5.847,7.198 1.292,1.413 3.779,3.916 6.5549996,5.569 0.096,0.058 0.201,0.084 0.306,0.084 0.205,0 0.404,-0.104 0.517,-0.293 0.169,-0.284 0.076,-0.652 -0.209,-0.822 -0.751,-0.447 -1.4839996,-0.968 -2.1799996,-1.514 3.6399996,1.436 6.3959996,0.99 6.6259996,0.948 17.145998,-4.02 29.733998,3.679 31.933998,5.8 1.724,1.663 4.344,1.475 4.414,1.47 0.021,-10e-4 0.043,-10e-4 0.065,-10e-4 3.584,0 12.3,7.155001 16.423,10.855001 -1.949,0.327 -5.588,0.317 -7.93,0.205 -0.873,-0.233 -1.73,-0.498 -2.536,-0.808 -0.336,-0.162 -1.845,-0.78 -4.083,0.115 -1.729,0.686 -3.907,-1.229 -3.941,-1.259 -0.227,-0.194 -5.619,-4.723 -11.73,-2.067 -0.38,0.165 -0.554,0.606 -0.389,0.986 0.165,0.381 0.612,0.556 0.986,0.389 5.243,-2.273 10.109,1.79 10.144,1.82 0.116,0.104 2.898,2.558 5.487,1.523 1.783,-0.712 2.817,-0.187 2.85,-0.17 0.032,0.019 0.066,0.035 0.102,0.048 0.648,0.251 1.329,0.467 2.018,0.669 -2.896,1.364 -9.827,3.829 -19.107,1.833 -0.314,-0.064 -0.643,0.137 -0.713,0.461 -0.069,0.324 0.137,0.643 0.461,0.713 2.622,0.563 5.057,0.788 7.275,0.788 7.429,0 12.412,-2.524 13.822,-3.335 0.719,0.17 1.433,0.321 2.136,0.45 -4.031,1.734 -15.864,5.942 -28.348,1.98 -0.322,-0.099 -0.654,0.075 -0.754,0.391 -0.1,0.316 0.075,0.653 0.391,0.754 3.889,1.234 7.713,1.7 11.273,1.7 10.916,0 19.346,-4.382 19.457,-4.44 0.023,-0.013 0.037,-0.033 0.058,-0.048 0.307,0.043 0.606,0.083 0.897,0.12 -4.421,2.552 -17.383,8.333999 -36.56,2.4 -0.32,-0.102 -0.653,0.079 -0.751,0.396 -0.098,0.317 0.079,0.653 0.396,0.751 6.194,1.917 11.763,2.633 16.632,2.633 12.431,0 20.273,-4.669 22.217,-5.97 0.232,0.021 0.475,0.044 0.681,0.061 -16.625,12.783999 -40.716,4.856 -62.1009976,-3.661 z m 43.1549976,-2.947 c 0.031,-0.413 0.393,-0.708 0.805,-0.691 2.541,0.192 3.604,1.721 3.647,1.785 0.232,0.344 0.143,0.81 -0.2,1.042 -0.129,0.087 -0.275,0.129 -0.42,0.129 -0.238,0 -0.472,-0.113 -0.617,-0.322 -0.039,-0.055 -0.753,-1.004 -2.523,-1.138 -0.414,-0.031 -0.723,-0.392 -0.692,-0.805 z m -15.841,1.233 c 0.034,0 0.069,-0.003 0.104,-0.008 l 2.286,-0.323 c 0.226,-0.031 0.425,-0.165 0.541,-0.361 0.116,-0.197 0.136,-0.437 0.054,-0.649 -2.429,-6.333001 -8.592,-9.066001 -13.104,-8.813001 -4.209,0.229 -10.456998,-1.778 -10.515998,-1.797 -0.261,-0.088 -0.543,-0.021 -0.741,0.163 -0.199,0.185 -0.283,0.463 -0.219,0.727 2.652,10.937001 20.814998,11.062001 21.586998,11.062001 10e-4,-10e-4 0.008,-10e-4 0.008,-10e-4 z M 14.0005,48.665958 c 2.161,0.605 6.417998,1.641 9.675998,1.456 1.328,-0.074 2.797,0.167 4.248,0.699 -2.457,0.257 -6.621,0.367001 -10.738,-1.035 -0.315,-0.106 -0.654998,0.061 -0.761998,0.375 -0.106,0.313 0.062,0.654 0.375,0.762 2.889998,0.983001 5.765998,1.268001 8.125998,1.268001 2.346,0 4.178,-0.28 5.004,-0.434 0.33,0.19 0.652,0.403 0.97,0.627 -1.389,0.402 -3.871,0.91 -6.82,0.562 -0.322,-0.041 -0.626,0.196 -0.666,0.525 -0.039,0.329 0.196,0.627 0.525,0.666 0.75,0.089 1.47,0.127 2.153,0.127 2.812,0 4.987,-0.64 5.948,-0.98 1.154,1.029 2.157,2.304 2.88,3.817 l -1.261,0.179 c -0.944,-0.012 -16.205,-0.324 -19.657998,-8.614001 z m 23.569998,15.812001 c 0,-0.38 0.308,-0.688 0.688,-0.688 0.38,0 0.688,0.308 0.688,0.688 0,0.38 -0.308,0.688 -0.688,0.688 -0.38,0 -0.688,-0.308 -0.688,-0.688 z m -4.312,0.688 c 0,0.38 -0.308,0.688 -0.688,0.688 -0.38,0 -0.688,-0.308 -0.688,-0.688 0,-0.38 0.308,-0.688 0.688,-0.688 0.38,0 0.688,0.308 0.688,0.688 z m -5.375,1.217 c 0,0.38 -0.308,0.688 -0.688,0.688 -0.38,0 -0.688,-0.308 -0.688,-0.688 0,-0.38 0.308,-0.688 0.688,-0.688 0.38,0 0.688,0.308 0.688,0.688 z m -6.225,-18.817001 c -0.015,-0.331 0.242,-0.611 0.573,-0.626 9.504,-0.414 13.724,5.561001 13.896,5.815001 0.187,0.273 0.117,0.646 -0.156,0.833 -0.104,0.071 -0.222,0.105 -0.338,0.105 -0.191,0 -0.379,-0.091 -0.496,-0.26 -0.038,-0.059 -4.042,-5.720001 -12.854,-5.295001 -0.338,0.012 -0.609,-0.241 -0.625,-0.572 z m -24.7129976,2.162 c 0,0.38 -0.308,0.688 -0.688,0.688 -0.38,0 -0.688,-0.308 -0.688,-0.688 0,-0.38 0.308,-0.688 0.688,-0.688 0.38,0 0.688,0.308 0.688,0.688 z m 53.0909976,-3.482 c 0.07,0.245 0.26,0.438 0.504,0.512 0.071,0.021 0.145,0.032 0.217,0.032 0.176,0 0.35,-0.062 0.486,-0.179 l 3.705,-3.165 c 0.425,-0.439 0.724,-0.939 0.889,-1.485 0.589,-1.94 -0.509,-3.998 -2.448,-4.587 -0.349,-0.105 -0.708,-0.159 -1.069,-0.159 -1.63,0 -3.044,1.048 -3.519,2.609 -0.22,0.724 -0.21,1.488 0.021,2.183 z m 0.201,-5.986 c 0.276,-0.91 1.133,-1.545 2.083,-1.545 0.214,0 0.427,0.032 0.634,0.095 1.147,0.349 1.797,1.567 1.448,2.717 -0.096,0.316 -0.274,0.611 -0.479,0.828 l -2.767,2.359 -0.902,-3.147 c -0.141,-0.43 -0.147,-0.881 -0.017,-1.307 z m -5.608,2.052 2.709,3.094 c 0.146,0.167 0.354,0.256 0.564,0.256 0.107,0 0.216,-0.023 0.317,-0.07 0.303,-0.142 0.475,-0.465 0.424,-0.795 l -0.436,-2.762 c -0.012,-0.267 -0.393,-2.095 -0.491,-2.355 -0.383,-1.029 -1.609,-1.592 -2.642,-1.207 -1.062,0.396 -1.604,1.581 -1.209,2.644 0.146,0.385 0.509,0.918 0.764,1.195 z m 0.97,-2.435 c 0.062,-0.023 0.128,-0.035 0.193,-0.035 0.23,0 0.439,0.145 0.515,0.347 0.074,0.232 0.38,1.723 0.411,1.994 l 0.045,0.289 -1.017,-1.162 c -0.184,-0.199 -0.418,-0.568 -0.474,-0.719 -0.106,-0.286 0.041,-0.607 0.327,-0.714 z m 6.668,6.326 c -0.285,0.173 -0.422,0.514 -0.334,0.836 0.087,0.322 0.376,0.548 0.71,0.554 l 4.095,0.074 c 0.011,0 0.116,0.002 0.126,0.002 0.367,0 0.931,-0.061 1.299,-0.192 1.065,-0.383 1.621,-1.562 1.239,-2.629 -0.373,-1.036 -1.598,-1.609 -2.624,-1.24 -0.265,0.094 -1.909,0.982 -2.052,1.099 z m 3.285,-0.246 c 0.181,-0.121 1.516,-0.847 1.729,-0.936 0.287,-0.101 0.608,0.056 0.709,0.334 0.104,0.288 -0.047,0.607 -0.335,0.71 -0.134,0.048 -0.509,0.104 -0.791,0.104 v 0.75 l -0.082,-0.752 -1.53,-0.027 z"
       id="path2-3" /><path
       style="opacity:1;fill:#6699ff;fill-opacity:1;stroke:#6699ff;stroke-width:0.241;stroke-miterlimit:4;stroke-dasharray:none;stroke-opacity:1"
       d="m 84.606094,61.278065 c -0.722398,-2.398013 -0.76902,-3.012834 -0.284536,-3.75225 0.575339,-0.878078 2.059258,-1.160922 2.939261,-0.560242 0.861974,0.588374 1.208036,1.819394 0.756778,2.69203 -0.168702,0.326234 -2.379732,2.347918 -2.90507,2.656289 -0.114763,0.06736 -0.269343,-0.248803 -0.506433,-1.035827 z"
       id="path5566"
       inkscape:connector-curvature="0"
       transform="translate(-33.775997,-17.83617)" /><path
       style="opacity:1;fill:#6699ff;fill-opacity:1;stroke:#6699ff;stroke-width:0.00823988;stroke-miterlimit:4;stroke-dasharray:none;stroke-opacity:1"
       d="m 79.921899,59.589737 c -0.573026,-0.659242 -0.804796,-0.983353 -0.878066,-1.227906 -0.07845,-0.261852 0.09441,-0.559568 0.373454,-0.64317 0.300518,-0.09004 0.584186,0.0736 0.675406,0.38961 0.113541,0.393342 0.446109,2.100612 0.415208,2.131513 -0.0062,0.0062 -0.26987,-0.286352 -0.586002,-0.650047 z"
       id="path5568"
       inkscape:connector-curvature="0"
       transform="translate(-33.775997,-17.83617)" /><path
       style="opacity:1;fill:#84ebff;fill-opacity:1;stroke:#b1ceff;stroke-width:0.00823988;stroke-miterlimit:4;stroke-dasharray:none;stroke-opacity:1"
       d="m 90.597365,64.288802 c -0.01445,-0.138698 -0.03459,-0.26563 -0.04475,-0.282071 -0.01016,-0.01644 -0.352205,-0.03019 -0.760098,-0.03054 l -0.741623,-6.49e-4 0.159861,-0.100401 c 0.218736,-0.137379 0.913018,-0.524624 1.432977,-0.799265 0.362034,-0.191225 0.457035,-0.227297 0.598332,-0.227189 0.488921,3.72e-4 0.722173,0.56369 0.376527,0.909336 -0.12917,0.129169 -0.309433,0.185497 -0.687226,0.214741 l -0.273523,0.02117 -0.01709,0.273523 -0.0171,0.273523 z"
       id="path5570"
       inkscape:connector-curvature="0"
       transform="translate(-33.775997,-17.83617)" /><path
       style="opacity:1;fill:#bfbfbf;fill-opacity:1;stroke:#bfbfbf;stroke-width:0.223;stroke-miterlimit:4;stroke-dasharray:none;stroke-opacity:1"
       d="M 77.306213,88.556578 C 70.263506,88.050674 62.751225,86.371422 53.371731,83.206401 47.967608,81.382831 40.502904,78.523733 38.18905,77.391198 c -4.814564,-2.35653 -8.1647,-5.833532 -10.030689,-10.410539 -1.735807,-4.257687 -2.160467,-9.64924 -1.180162,-14.983518 0.157312,-0.856005 0.163253,-0.867835 0.366604,-0.729981 0.113685,0.07707 0.199488,0.216685 0.190672,0.31026 -0.385587,4.093091 -0.240625,9.005614 0.350282,11.870475 0.521653,2.529097 0.961059,3.37677 1.581196,3.050334 0.437308,-0.230196 0.454058,-0.456955 0.111248,-1.506083 -0.322361,-0.986546 -0.677876,-2.786859 -0.836072,-4.233831 -0.142732,-1.305531 -0.171975,-6.460803 -0.04431,-7.811023 0.07575,-0.801115 0.09561,-0.856231 0.357374,-0.991593 0.533269,-0.275764 1.020052,-2.364996 0.940132,-4.034969 -0.02482,-0.518581 -0.02944,-0.942874 -0.01028,-0.942874 0.07337,0 0.761556,1.143809 1.335836,2.220245 0.670857,1.257461 1.695281,2.832344 2.644561,4.065579 0.815441,1.059359 5.651375,5.890609 7.006907,7.000119 0.573435,0.469358 1.484895,1.153412 2.025469,1.520117 1.168538,0.792693 1.515718,0.852532 1.801062,0.310424 0.161734,-0.307269 -6.77e-4,-0.640393 -0.437118,-0.896663 -0.531716,-0.312204 -1.598623,-1.080779 -1.55745,-1.121952 0.01918,-0.01918 0.315875,0.05377 0.659312,0.162124 1.080274,0.340821 2.418963,0.569725 3.670639,0.627643 1.120364,0.05184 1.332638,0.03109 2.901149,-0.283595 3.396461,-0.681427 5.348961,-0.878316 8.703448,-0.877654 3.315989,6.77e-4 5.226613,0.189105 8.362659,0.82483 5.292254,1.072824 10.939785,3.548284 13.791955,6.045374 1.101679,0.964525 2.512542,1.479872 4.061141,1.483415 1.031656,0.0024 2.070591,0.293327 3.453327,0.96715 3.006776,1.465235 7.779562,4.93614 12.461708,9.062512 l 0.88613,0.78094 -0.39579,0.06329 c -0.91242,0.145902 -4.114079,0.254739 -5.776535,0.196367 l -1.789042,-0.06282 -1.595632,-0.54394 C 90.63447,77.9881 90.582266,77.977495 89.539392,77.981067 c -0.897933,0.0031 -1.191019,0.04566 -1.880166,0.273209 -1.362471,0.449865 -2.412027,0.242819 -3.77427,-0.74455 -1.724594,-1.250006 -2.047164,-1.455937 -3.049011,-1.946513 -2.040571,-0.999211 -3.662103,-1.367969 -5.657242,-1.286531 -1.250319,0.05104 -2.182602,0.242102 -3.25229,0.666538 -0.882126,0.350014 -1.053374,0.97844 -0.39932,1.465383 l 0.264939,0.197248 0.89552,-0.301105 c 3.189399,-1.072388 6.64762,-0.327974 9.802554,2.110092 2.009881,1.553192 3.662862,1.974806 5.42649,1.384092 0.413849,-0.138615 1.062816,-0.27456 1.442152,-0.3021 0.640046,-0.04647 0.785385,-0.01662 2.018778,0.414619 l 1.329076,0.464693 -0.488302,0.215501 c -1.504138,0.663818 -3.717631,1.341359 -5.628409,1.722832 -1.93518,0.386345 -3.620739,0.540681 -5.906384,0.54081 -2.317773,9.7e-5 -3.527597,-0.09558 -5.594554,-0.44258 -1.708595,-0.286839 -1.795943,-0.28769 -1.983923,-0.01931 -0.216628,0.30928 -0.185609,0.613795 0.08414,0.825979 0.260251,0.204713 1.772354,0.49734 3.923633,0.759311 1.79836,0.218996 5.394073,0.216917 7.202831,-0.0042 3.333542,-0.407451 6.39747,-1.262945 9.002674,-2.513677 l 1.264585,-0.607115 1.007981,0.210285 1.007982,0.210285 -1.257165,0.488988 c -8.708172,3.387142 -17.956951,3.998332 -26.065149,1.722473 -1.185691,-0.332807 -1.209657,-0.335466 -1.447417,-0.160531 -0.303832,0.223548 -0.368279,0.687511 -0.125573,0.904027 0.532706,0.475221 4.85148,1.410617 8.007029,1.734229 1.488036,0.152603 5.531115,0.152329 7.156168,-4.84e-4 5.224732,-0.491312 10.705284,-1.919249 15.134329,-3.943191 0.663032,-0.302986 0.896796,-0.365666 1.208812,-0.324127 0.382609,0.05094 0.368399,0.06061 -1.305517,0.888523 -0.930786,0.460363 -2.105751,0.997669 -2.611035,1.194014 -3.800449,1.476794 -7.982814,2.413842 -12.312825,2.758656 -2.118567,0.168708 -7.194693,0.06356 -9.297294,-0.192589 -3.089434,-0.376369 -6.227158,-1.006272 -9.038707,-1.814536 -0.828068,-0.238053 -1.604934,-0.434744 -1.726369,-0.437091 -0.509483,-0.0098 -0.799732,0.680609 -0.427656,1.017333 0.439719,0.397941 5.081233,1.561984 8.339023,2.091341 3.484078,0.566126 4.352187,0.630577 8.507507,0.631624 4.08972,0.001 4.909198,-0.05903 8.074866,-0.591832 4.642897,-0.781429 9.755347,-2.590221 13.182197,-4.663878 0.76344,-0.461977 1.06849,-0.596528 1.30061,-0.573682 0.29246,0.02878 0.27166,0.05223 -0.58396,0.658427 -4.489612,3.180853 -9.59148,5.042442 -15.784594,5.759545 -1.559788,0.180608 -6.463983,0.261176 -8.219923,0.135041 z M 61.463159,84.726161 c 0.239268,-0.216535 0.230379,-0.753473 -0.01656,-1.000414 -0.410045,-0.410045 -1.16046,-0.111285 -1.16046,0.462007 0,0.433013 0.247264,0.698453 0.650627,0.698453 0.192251,0 0.429128,-0.07202 0.526395,-0.160046 z m 5.354959,-1.237781 c 0.130552,-0.130552 0.237368,-0.350116 0.237368,-0.48792 0,-0.137805 -0.106816,-0.357369 -0.237368,-0.487921 -0.373741,-0.373742 -0.833062,-0.305156 -1.073778,0.160337 -0.383971,0.742518 0.486028,1.403255 1.073778,0.815504 z m 5.773727,-0.74452 c 0.09308,-0.109999 0.169234,-0.30595 0.169234,-0.435444 0,-0.309496 -0.409207,-0.710179 -0.725287,-0.710179 -0.302169,0 -0.725288,0.396055 -0.725288,0.678897 0,0.688711 0.835875,0.993177 1.281341,0.466726 z m 15.151486,-5.365331 c 0.110236,-0.140142 0.200429,-0.341713 0.200429,-0.447933 0,-0.758263 -1.517214,-1.824369 -3.062183,-2.151715 -0.902854,-0.191296 -0.974055,-0.18365 -1.296979,0.139275 -0.596276,0.596275 -0.246396,1.166864 0.830507,1.354398 0.831581,0.144814 1.566726,0.499801 2.041107,0.985613 0.465963,0.477189 0.969408,0.524267 1.287119,0.120362 z M 68.766695,76.472698 c 1.183517,-0.17162 1.359686,-0.22161 1.552583,-0.440565 0.310515,-0.352462 0.274387,-0.625787 -0.220924,-1.671399 -1.616648,-3.412778 -4.573375,-6.046278 -8.105246,-7.219188 -1.683618,-0.559119 -2.296185,-0.646753 -5.091645,-0.728412 -3.294215,-0.09623 -5.094709,-0.389771 -8.966716,-1.461878 -1.305253,-0.361407 -1.390232,-0.37314 -1.66676,-0.230142 -0.171474,0.08867 -0.318585,0.259057 -0.357482,0.414036 -0.153033,0.609733 0.681559,2.705792 1.585819,3.982748 0.906869,1.28064 2.406314,2.645354 3.941308,3.587168 3.323009,2.03887 8.499749,3.466912 13.973869,3.854796 1.742446,0.123465 1.937627,0.118395 3.355194,-0.08716 z m 1.03164,-5.077408 c 0.215543,-0.215543 0.279255,-0.498708 0.161653,-0.71845 -0.245417,-0.458567 -1.142474,-1.418569 -1.967261,-2.105304 -3.026514,-2.51994 -6.644018,-3.792921 -10.793534,-3.798193 -1.534908,-0.0019 -1.748305,0.06823 -1.748305,0.574964 0,0.556866 0.156648,0.626187 1.46552,0.648523 1.611157,0.0275 2.462473,0.105398 3.506611,0.320876 3.366464,0.694737 6.065285,2.232366 8.288526,4.722313 0.474156,0.531038 0.803395,0.638666 1.08679,0.355271 z M 30.496093,68.082964 c 0.265222,-0.214764 0.292573,-0.72604 0.053,-0.990764 -0.397714,-0.439468 -1.208549,-0.114868 -1.208549,0.483816 0,0.582062 0.689323,0.884474 1.155548,0.506948 z"
       id="path5574"
       inkscape:connector-curvature="0"
       transform="translate(-33.775997,-17.83617)" /><path
       style="opacity:1;fill:#bfbfbf;fill-opacity:1;stroke:#bfbfbf;stroke-width:0.01524891;stroke-miterlimit:4;stroke-dasharray:none;stroke-opacity:1"
       d="M 65.152433,74.973476 C 57.077598,74.295281 51.031306,71.73108 48.572174,67.941875 c -0.370587,-0.571026 -0.719436,-1.218409 -0.719436,-1.335106 0,-0.03623 0.274336,0.0093 0.609637,0.101186 0.852521,0.233609 2.824084,0.670021 3.800921,0.841346 1.730951,0.303587 2.394931,0.363009 4.684081,0.419197 2.435312,0.05978 2.924135,0.119399 4.118691,0.50237 l 0.497009,0.159339 -0.410284,0.06175 c -0.759293,0.114274 -4.474378,0.07167 -5.538841,-0.06352 -1.288658,-0.163663 -2.758454,-0.46296 -3.795131,-0.772808 -1.004404,-0.300201 -1.234525,-0.314835 -1.470136,-0.09349 -0.200206,0.188084 -0.231514,0.567031 -0.06633,0.802863 0.121476,0.173432 0.995814,0.472129 2.254465,0.770186 1.99316,0.471994 3.240089,0.621348 5.552874,0.66511 1.971203,0.0373 3.198017,-0.02899 4.748614,-0.256565 l 0.888173,-0.130357 0.438408,0.286208 c 0.272059,0.177609 0.406492,0.303323 0.354294,0.331315 -0.04626,0.02481 -0.361056,0.109216 -0.69954,0.187569 -1.653721,0.382805 -3.384792,0.523579 -5.08774,0.413744 -1.057002,-0.06817 -1.131644,-0.06489 -1.294923,0.05702 -0.367621,0.274469 -0.333026,0.80807 0.06576,1.014291 0.123354,0.06379 0.595732,0.127726 1.294917,0.175269 2.127642,0.144676 4.277496,-0.12372 6.757546,-0.843639 l 0.299564,-0.08696 0.657766,0.689511 c 0.361771,0.379232 0.836421,0.938692 1.054777,1.243245 0.361993,0.504892 1.072642,1.698084 1.073019,1.801616 2.74e-4,0.08317 -1.039027,0.196267 -1.729251,0.188173 -0.38396,-0.0045 -1.17535,-0.04827 -1.758644,-0.09726 z"
       id="path5604"
       inkscape:connector-curvature="0"
       transform="translate(-33.775997,-17.83617)" /><path
       style="opacity:1;fill:#bfbfbf;fill-opacity:1;stroke:#bfbfbf;stroke-width:0.01524891;stroke-miterlimit:4;stroke-dasharray:none;stroke-opacity:1"
       d="m 27.016407,49.051389 c -1.222185,-0.952361 -1.243893,-0.965486 -3.082509,-1.863761 -5.275945,-2.577618 -6.103768,-3.22791 -7.182918,-5.642505 -0.202278,-0.452597 -0.367778,-0.852408 -0.367778,-0.888468 0,-0.03606 0.206197,0.104518 0.458216,0.312395 0.544041,0.44875 1.496214,0.933963 2.208633,1.125485 0.28207,0.07583 1.043927,0.184138 1.693015,0.240684 2.004639,0.174638 3.285934,0.514276 4.646916,1.231775 1.552738,0.818591 2.304923,1.595909 2.765491,2.857897 0.286612,0.785335 0.378645,1.647015 0.275237,2.57698 -0.04588,0.412611 -0.105925,0.808348 -0.133434,0.879416 -0.04344,0.112227 -0.211849,0.0031 -1.280869,-0.829898 z"
       id="path5606"
       inkscape:connector-curvature="0"
       transform="translate(-33.775997,-17.83617)" /><path
       style="opacity:1;fill:#bfbfbf;fill-opacity:1;stroke:#bfbfbf;stroke-width:0.01524891;stroke-miterlimit:4;stroke-dasharray:none;stroke-opacity:1"
       d="M 31.438603,46.335948 C 30.67552,45.226773 29.736907,44.444475 28.89823,44.218643 l -0.304071,-0.08188 0.786432,-0.290897 c 1.619878,-0.599186 3.002738,-1.435867 3.742821,-2.264548 0.338688,-0.379234 0.902021,-1.363716 0.902021,-1.576375 0,-0.137898 0.04875,-0.12071 0.410216,0.144629 1.294857,0.950512 1.456771,2.055961 0.51089,3.48804 -0.509052,0.770712 -1.714899,1.925591 -2.835766,2.715903 l -0.444475,0.313395 z"
       id="path5608"
       inkscape:connector-curvature="0"
       transform="translate(-33.775997,-17.83617)" /><path
       style="opacity:1;fill:#404040;fill-opacity:1;stroke:#bfbfbf;stroke-width:0.01524891;stroke-miterlimit:4;stroke-dasharray:none;stroke-opacity:1"
       d="m 68.297297,70.410363 c -2.215374,-2.159156 -4.226421,-3.306687 -7.080895,-4.040454 -1.194348,-0.307018 -2.173954,-0.433875 -3.894284,-0.5043 -0.789797,-0.03233 -1.490111,-0.08133 -1.556252,-0.108882 -0.281575,-0.117301 -0.229881,-0.68515 0.07001,-0.769064 0.344105,-0.09629 2.876136,-0.04322 3.742805,0.07844 2.953053,0.41454 5.403475,1.40449 7.647875,3.089677 1.341712,1.007412 2.643427,2.373074 2.643427,2.773287 0,0.209702 -0.2316,0.46825 -0.419445,0.46825 -0.0886,0 -0.515064,-0.364968 -1.153243,-0.986953 z"
       id="path5610"
       inkscape:connector-curvature="0"
       transform="translate(-33.775997,-17.83617)" /><path
       style="opacity:1;fill:#404040;fill-opacity:1;stroke:#bfbfbf;stroke-width:0.01078261;stroke-miterlimit:4;stroke-dasharray:none;stroke-opacity:1"
       d="m 71.770435,82.814396 c -0.184634,-0.09112 -0.311809,-0.30115 -0.311809,-0.514949 0,-0.127847 0.04295,-0.205984 0.194615,-0.354084 0.161919,-0.15811 0.227659,-0.190036 0.391315,-0.190036 0.168656,0 0.223634,0.02887 0.385615,0.202527 0.278252,0.298301 0.2436,0.591806 -0.09697,0.821314 -0.189284,0.127559 -0.354703,0.137914 -0.562769,0.03523 z"
       id="path5612"
       inkscape:connector-curvature="0"
       transform="translate(-33.775997,-17.83617)" /><path
       style="opacity:1;fill:#404040;fill-opacity:1;stroke:#bfbfbf;stroke-width:0.01078261;stroke-miterlimit:4;stroke-dasharray:none;stroke-opacity:1"
       d="m 86.952898,77.454147 c -0.08127,-0.0354 -0.298854,-0.198535 -0.483525,-0.362532 -0.461999,-0.410276 -1.13356,-0.737629 -1.85887,-0.906107 -0.648629,-0.150666 -0.80448,-0.209675 -1.009565,-0.382243 -0.119705,-0.100725 -0.150895,-0.164559 -0.150895,-0.308826 0,-0.225818 0.223675,-0.553068 0.452654,-0.66226 0.148262,-0.0707 0.199293,-0.0687 0.702265,0.02753 0.844791,0.161626 1.621023,0.474422 2.260416,0.910874 0.535316,0.365409 0.936389,0.847687 0.936389,1.125979 0,0.174412 -0.153606,0.438925 -0.310421,0.53455 -0.173779,0.105971 -0.332448,0.112759 -0.538448,0.02304 z"
       id="path5614"
       inkscape:connector-curvature="0"
       transform="translate(-33.775997,-17.83617)" /><path
       style="opacity:1;fill:#404040;fill-opacity:1;stroke:#bfbfbf;stroke-width:0.01078261;stroke-miterlimit:4;stroke-dasharray:none;stroke-opacity:1"
       d="m 65.950162,83.417571 c -0.123835,-0.123836 -0.148723,-0.186657 -0.148458,-0.374732 5.08e-4,-0.360144 0.225972,-0.632593 0.525833,-0.635413 0.211987,-0.002 0.585955,0.349381 0.585955,0.550555 0,0.50853 -0.61905,0.80387 -0.96333,0.45959 z"
       id="path5616"
       inkscape:connector-curvature="0"
       transform="translate(-33.775997,-17.83617)" /><path
       style="opacity:1;fill:#404040;fill-opacity:1;stroke:#bfbfbf;stroke-width:0.01078261;stroke-miterlimit:4;stroke-dasharray:none;stroke-opacity:1"
       d="m 60.796903,84.734555 c -0.257976,-0.08516 -0.362644,-0.238111 -0.362644,-0.529926 0,-0.470987 0.59773,-0.713997 0.91791,-0.37318 0.131349,0.139814 0.18779,0.533225 0.100027,0.697213 -0.08298,0.15505 -0.455114,0.271974 -0.655293,0.205893 z"
       id="path5618"
       inkscape:connector-curvature="0"
       transform="translate(-33.775997,-17.83617)" /><path
       style="opacity:1;fill:#000000;fill-opacity:1;stroke:#bfbfbf;stroke-width:0.02156521;stroke-miterlimit:4;stroke-dasharray:none;stroke-opacity:1"
       d="m 86.486837,77.125117 c -0.629187,-0.51993 -1.020675,-0.71172 -1.926402,-0.943746 -0.813628,-0.208432 -1.120906,-0.410693 -1.120906,-0.73782 0,-0.315243 0.390869,-0.630647 0.779873,-0.629304 1.326744,0.0046 3.571851,1.30937 3.571851,2.075849 0,0.303326 -0.314665,0.630743 -0.606179,0.630743 -0.120647,0 -0.434854,-0.178075 -0.698237,-0.395722 z"
       id="path5620"
       inkscape:connector-curvature="0"
       transform="translate(-33.775997,-17.83617)" /><path
       style="opacity:1;fill:#000000;fill-opacity:1;stroke:#bfbfbf;stroke-width:0.02156521;stroke-miterlimit:4;stroke-dasharray:none;stroke-opacity:1"
       d="m 29.587731,67.825241 c -0.145073,-0.221409 -0.145478,-0.261499 -0.0048,-0.47619 0.327478,-0.499795 0.932395,-0.389414 0.932395,0.170137 0,0.386356 -0.147554,0.547815 -0.500636,0.547815 -0.179735,0 -0.320931,-0.07995 -0.426953,-0.241762 z"
       id="path5622"
       inkscape:connector-curvature="0"
       transform="translate(-33.775997,-17.83617)" /><path
       style="opacity:1;fill:#000000;fill-opacity:1;stroke:#bfbfbf;stroke-width:0.00762445;stroke-miterlimit:4;stroke-dasharray:none;stroke-opacity:1"
       d="m 29.760699,67.9598 c -0.166303,-0.112016 -0.281516,-0.331567 -0.236344,-0.450378 0.08613,-0.226551 0.372936,-0.462891 0.561723,-0.462891 0.108956,0 0.278072,0.101347 0.337779,0.202422 0.1375,0.232769 0.03973,0.677485 -0.166148,0.755761 -0.155223,0.05901 -0.371766,0.03945 -0.49701,-0.04491 z"
       id="path5626"
       inkscape:connector-curvature="0"
       transform="translate(-33.775997,-17.83617)" /><path
       style="opacity:1;fill:#84ebff;fill-opacity:1;stroke:#b1ceff;stroke-width:0.015;stroke-miterlimit:4;stroke-dasharray:none;stroke-opacity:1"
       d="m 84.809268,62.120906 c -0.161881,-0.317311 -0.698782,-2.165804 -0.822663,-2.832336 -0.1094,-0.588616 -0.06024,-1.23337 0.121145,-1.588916 0.202661,-0.397248 0.682193,-0.807933 1.148682,-0.983764 0.335257,-0.126366 0.504508,-0.14766 0.985969,-0.124051 0.694218,0.03404 1.00085,0.170077 1.428068,0.633553 0.37951,0.41172 0.567777,0.846335 0.607053,1.401385 0.05743,0.811629 -0.0155,0.949644 -1.030512,1.950134 -0.999159,0.984863 -1.994305,1.811908 -2.180187,1.811908 -0.07176,0 -0.176418,-0.108871 -0.257555,-0.267913 z"
       id="path5628"
       inkscape:connector-curvature="0"
       transform="translate(-33.775997,-17.83617)" /><path
       style="opacity:1;fill:#84ebff;fill-opacity:1;stroke:#b1ceff;stroke-width:0.01524891;stroke-miterlimit:4;stroke-dasharray:none;stroke-opacity:1"
       d="m 79.977185,59.633165 c -0.728614,-0.847209 -0.914762,-1.130398 -0.914762,-1.39164 0,-0.296763 0.203783,-0.502925 0.495761,-0.501549 0.42255,0.002 0.48549,0.118369 0.736269,1.361391 0.116124,0.575582 0.200763,1.056885 0.188086,1.069561 -0.01268,0.01268 -0.240085,-0.229317 -0.505354,-0.537763 z"
       id="path5630"
       inkscape:connector-curvature="0"
       transform="translate(-33.775997,-17.83617)" /></g></svg>