<?xml version="1.0" encoding="UTF-8" standalone="no"?>
<svg
   xmlns:dc="http://purl.org/dc/elements/1.1/"
   xmlns:cc="http://creativecommons.org/ns#"
   xmlns:rdf="http://www.w3.org/1999/02/22-rdf-syntax-ns#"
   xmlns:svg="http://www.w3.org/2000/svg"
   xmlns="http://www.w3.org/2000/svg"
   xmlns:xlink="http://www.w3.org/1999/xlink"
   xmlns:sodipodi="http://sodipodi.sourceforge.net/DTD/sodipodi-0.dtd"
   xmlns:inkscape="http://www.inkscape.org/namespaces/inkscape"
   version="1.1"
   x="0px"
   y="0px"
   viewBox="0 0 122.90057 122.90057"
   xml:space="preserve"
   id="svg151"
   sodipodi:docname="yeezy4.svg"
   width="122.90057"
   height="122.90057"
   inkscape:version="0.92.1 unknown"><metadata
     id="metadata157"><rdf:RDF><cc:Work
         rdf:about=""><dc:format>image/svg+xml</dc:format><dc:type
           rdf:resource="http://purl.org/dc/dcmitype/StillImage" /><dc:title></dc:title></cc:Work></rdf:RDF></metadata><defs
     id="defs155"><linearGradient
       inkscape:collect="always"
       id="linearGradient4784"><stop
         style="stop-color:#35995f;stop-opacity:1;"
         offset="0"
         id="stop4780" /><stop
         style="stop-color:#356f5f;stop-opacity:0"
         offset="1"
         id="stop4782" /></linearGradient><radialGradient
       inkscape:collect="always"
       xlink:href="#linearGradient4784"
       id="radialGradient4786"
       cx="27.67429"
       cy="43.614117"
       fx="27.67429"
       fy="43.614117"
       r="60"
       gradientUnits="userSpaceOnUse"
       gradientTransform="matrix(2.9283353,-0.00541619,0.00489025,2.6439834,-53.578595,-71.550994)" /></defs><sodipodi:namedview
     pagecolor="#ffffff"
     bordercolor="#666666"
     borderopacity="1"
     objecttolerance="10"
     gridtolerance="10"
     guidetolerance="10"
     inkscape:pageopacity="0"
     inkscape:pageshadow="2"
     inkscape:window-width="1875"
     inkscape:window-height="1056"
     id="namedview153"
     showgrid="false"
     inkscape:zoom="2.8284271"
     inkscape:cx="102.14226"
     inkscape:cy="56.863156"
     inkscape:window-x="1411"
     inkscape:window-y="24"
     inkscape:window-maximized="1"
     inkscape:current-layer="layer3"
     showguides="false" /><g
     inkscape:groupmode="layer"
     id="layer1"
     inkscape:label="fond"
     style="display:inline"
     transform="translate(33.775997,17.83617)"
     sodipodi:insensitive="true"><circle
       style="display:inline;opacity:1;fill:#5bcf8f;fill-opacity:1;stroke:#4b6e5f;stroke-width:2;stroke-miterlimit:4;stroke-dasharray:none;stroke-opacity:1"
       id="path3963"
       cx="27.841667"
       cy="43.564995"
       r="59.950287" /></g><g
     inkscape:groupmode="layer"
     id="layer3"
     inkscape:label="cocarde"
     style="display:inline"><g
       style="display:inline"
       transform="matrix(0.08105938,0,0,0.08105938,73.85501,-13.184264)"
       id="g8"><g
         id="g6"><path
           d="M 347.21447,183.39604 426.87051,323.84838 584.44519,356.55602 476.10065,476.068 493.83112,636.73476 347.21446,570.14488 200.59782,636.73476 218.32827,476.068 109.98374,356.55601 267.55843,323.84837 Z"
           style="opacity:1;fill:none;fill-opacity:1;fill-rule:evenodd;stroke:#000000;stroke-width:19.5998745;stroke-linecap:butt;stroke-linejoin:miter;stroke-miterlimit:4;stroke-dasharray:none;stroke-opacity:1"
           id="path2-3"
           inkscape:connector-curvature="0" /><path
           d="m 347.21447,241.2087 61.43431,108.06487 121.52863,25.16547 -83.56015,91.95323 13.67452,123.618 -113.07731,-51.23467 -113.07732,51.23467 13.67453,-123.618 -83.56015,-91.95324 121.52864,-25.16546 z"
           style="opacity:1;fill:none;fill-opacity:1;fill-rule:evenodd;stroke:#000000;stroke-width:15;stroke-linecap:butt;stroke-linejoin:miter;stroke-miterlimit:4;stroke-dasharray:none;stroke-opacity:1"
           id="path4-67"
           inkscape:connector-curvature="0" /></g></g><path
       style="display:inline;opacity:1;fill:#ffde4c;fill-opacity:1;stroke:#edcd00;stroke-width:0.13676149;stroke-linejoin:round;stroke-miterlimit:4;stroke-dasharray:none;stroke-opacity:1"
       d="m 91.12101,36.908337 c 0,-0.126301 1.20497,-11.118603 1.26306,-11.522163 0.036,-0.250419 0.0203,-0.268936 -3.98782,-4.684081 -2.21321,-2.437968 -4.01447,-4.44436 -4.0028,-4.458648 0.0117,-0.01429 2.64464,-0.570515 5.85104,-1.236061 l 5.82983,-1.210083 2.92039,-5.149089 c 1.60623,-2.832 2.94575,-5.173665 2.97672,-5.203703 0.031,-0.03004 1.37949,2.28178 2.99669,5.137369 1.6172,2.85559 2.98653,5.206222 3.04294,5.223628 0.0564,0.01741 2.64121,0.556466 5.74399,1.197912 3.10277,0.641446 5.69272,1.188707 5.75544,1.216136 0.0903,0.03948 -0.72536,0.975538 -3.91462,4.492607 -2.50517,2.762663 -4.0179,4.482286 -4.00021,4.54732 0.0701,0.257811 1.2927,11.695642 1.25427,11.734076 -0.0237,0.02373 -2.45304,-1.052387 -5.39847,-2.391363 -2.94543,-1.338976 -5.39698,-2.434444 -5.44788,-2.434374 -0.0509,6.8e-5 -2.49766,1.092509 -5.43722,2.427643 -2.93956,1.335134 -5.36731,2.427517 -5.395,2.427517 -0.0277,0 -0.0504,-0.05159 -0.0504,-0.114643 z m 5.85909,-3.449362 c 2.66337,-1.208013 4.89012,-2.210039 4.94831,-2.226723 0.0582,-0.01668 2.31742,0.971587 5.02051,2.196159 2.7031,1.224571 4.92631,2.214902 4.94048,2.200734 0.0142,-0.01417 -0.23732,-2.391149 -0.55886,-5.282182 -0.32155,-2.891033 -0.58454,-5.319177 -0.58444,-5.395875 1.4e-4,-0.08828 1.33073,-1.603723 3.62601,-4.129703 1.99419,-2.194637 3.60763,-4.008935 3.5854,-4.031772 -0.0222,-0.02284 -2.40929,-0.533865 -5.3046,-1.135616 l -5.26419,-1.094092 -2.66181,-4.683554 c -1.464,-2.575955 -2.68623,-4.691694 -2.71608,-4.701643 -0.0298,-0.01 -1.2569,2.097651 -2.72679,4.683555 l -2.67252,4.701642 -5.26997,1.094092 c -2.89848,0.601751 -5.28639,1.110657 -5.30646,1.130904 -0.0201,0.02025 1.59301,1.830012 3.58462,4.021703 2.89448,3.185271 3.62111,4.021755 3.62116,4.168603 6e-5,0.19401 -1.06531,9.984338 -1.13429,10.42373 -0.0221,0.141035 -0.0242,0.256428 -0.005,0.256428 0.0196,0 2.21476,-0.988376 4.87814,-2.19639 z"
       id="path4552"
       inkscape:connector-curvature="0" /><path
       style="display:inline;opacity:1;fill:#ffcf4c;fill-opacity:1;stroke:#edcd00;stroke-width:0.13676149;stroke-linejoin:round;stroke-miterlimit:4;stroke-dasharray:none;stroke-opacity:1"
       d="m 93.6196,33.304055 c 0.0234,-0.165048 0.25469,-2.237349 0.51391,-4.605113 l 0.47131,-4.305024 -0.56555,-0.618389 c -2.5747,-2.815254 -5.57961,-6.14385 -5.57961,-6.180624 1e-5,-0.02474 2.00057,-0.458845 4.4457,-0.964674 2.44512,-0.505828 4.47136,-0.936626 4.50275,-0.95733 0.0314,-0.0207 1.0627,-1.806994 2.29179,-3.969535 1.2291,-2.16254 2.25967,-3.940506 2.29017,-3.951034 0.0305,-0.01053 1.06543,1.758823 2.29983,3.931892 1.2344,2.173069 2.26801,3.966901 2.29691,3.986294 0.0289,0.01939 2.05531,0.449835 4.50314,0.956539 3.23869,0.67041 4.44173,0.944422 4.418,1.006267 -0.0179,0.04674 -1.40091,1.588822 -3.07327,3.426842 l -3.04066,3.341856 0.50616,4.570573 c 0.27839,2.513815 0.49742,4.579315 0.48673,4.59 -0.0107,0.01068 -1.8177,-0.796019 -4.01559,-1.792675 -2.19789,-0.996656 -4.08899,-1.845733 -4.20243,-1.886839 -0.19201,-0.06957 -0.48964,0.05381 -4.308,1.785864 -2.25595,1.023331 -4.14271,1.877385 -4.19281,1.897899 -0.0712,0.02917 -0.0818,-0.02808 -0.0485,-0.262789 z"
       id="path4558"
       inkscape:connector-curvature="0" /><text
       xml:space="preserve"
       style="font-style:normal;font-weight:normal;font-size:24.316576px;line-height:14.70139694px;font-family:sans-serif;letter-spacing:0px;word-spacing:0px;display:inline;fill:#000000;fill-opacity:1;stroke:none;stroke-width:1.60120535px;stroke-linecap:butt;stroke-linejoin:miter;stroke-opacity:1"
       x="94.866104"
       y="29.486313"
       id="text5046"><tspan
         sodipodi:role="line"
         id="tspan5044"
         x="94.866104"
         y="29.486313"
         style="font-size:21.61473465px;line-height:14.70139694px;fill:#000000;fill-opacity:1;stroke-width:1.60120535px">4</tspan></text>
</g><g
     inkscape:groupmode="layer"
     id="layer4"
     inkscape:label="numéro"
     style="display:inline" /><g
     inkscape:groupmode="layer"
     id="layer2"
     inkscape:label="badge"
     transform="translate(33.775997,17.83617)"
     style="display:inline"
     sodipodi:insensitive="true"><path
       inkscape:connector-curvature="0"
       d="m 71.355146,54.996356 v 0 c -0.029,-2.688 -2.949,-3.896 -3.005,-3.916 -1.688,-0.881 -3.255,-1.477 -4.769,-2.055 -0.663,-0.252 -1.324,-0.505 -1.994,-0.779 -6.894,-2.832 -12.684,-5.762 -17.509,-8.577 0.016,-0.4 -0.267,-0.754 -0.671,-0.805 -0.18,-0.022 -0.346,0.03 -0.49,0.116 -0.231,-0.139 -0.465,-0.276 -0.69,-0.414 -0.198,-0.511 -0.602,-1.259 -1.372,-1.659 -0.026,-0.014 -0.056,-0.013 -0.08,-0.023 -0.284,-0.234 -0.63,-0.367 -1.021,-0.379 -0.212,-0.008 -0.433,0.026 -0.657,0.085 -0.7,-0.458 -1.38,-0.914 -2.027,-1.36 0.052,-0.248 -0.005,-0.514 -0.198,-0.707 -0.655,-0.655 -1.413,-0.938 -2.186,-0.991 -0.386,-0.284 -0.757,-0.562 -1.121,-0.839 0.077,-0.158 0.112,-0.338 0.066,-0.521 -0.102,-0.417 -0.522,-0.675 -0.938,-0.572 -0.144,0.035 -0.271,0.068 -0.41,0.103 -0.095,-0.076 -0.197,-0.153 -0.291,-0.228 0.008,-0.2 0.015,-0.4 0.01,-0.596 -0.011,-0.422 -0.356,-0.757 -0.777,-0.757 -0.005,0 -0.013,0 -0.019,0 -0.222,0.006 -0.416,0.106 -0.555,0.259 -5.04,-4.198 -7.168,-7.06 -7.212,-7.121 -0.174,-0.241 -0.472,-0.363 -0.765,-0.309 -0.292,0.052 -0.53,0.268 -0.611,0.555 -0.302,1.077 -0.666,2.18 -1.144,3.472 -4.288,11.592 -9.733,12.592 -9.753,12.596 -0.31,0.034 -0.636,0.021 -0.967,-0.016 -3.842,-3.92 -6.955,-5.911 -9.2540002,-5.911 -0.022,0 -0.045,0 -0.067,0 -0.916,0.015 -1.431,0.354 -1.649,0.541 -0.176,0.064 -0.331,0.186 -0.423,0.36 -0.489,0.927 -0.91,1.865 -1.292,2.801 l -0.925,-0.665 c -0.067,-0.049 -0.143,-0.086 -0.223,-0.11 l -2.3419999,-0.728 c -0.318,-0.1 -0.666,0.017 -0.861,0.289 l -1.8870001,2.628 c -0.195,0.272 -0.195,0.637 0,0.908 l 1.4370001,1.987 c 0.049,0.068 0.109,0.126 0.177,0.176 l 2.8599999,2.055 c -0.49,3.857 0.14,6.593 0.491,7.726 -1.739,0.907 -2.9299999,2.726 -2.9299999,4.818 0,2.905 2.2929999,5.279 5.1639999,5.422 l -10e-4,0.009 c 0.085,0.012 8.6200002,1.034 21.6310002,1.034 h 18.25 c 0.028,0 1.167,-0.004 2.983,-0.05 0.031,0.005 0.062,0.018 0.097,0.018 0.062,0 0.124,-0.009 0.186,-0.024 2.474,-0.064 6.084,-0.207 9.916,-0.518 0.015,10e-4 0.027,0.008 0.042,0.008 0.057,0 0.114,-0.013 0.169,-0.024 0.328,-0.027 0.656,-0.053 0.987,-0.084 6.975,-0.622 12.019,-1.601 15.08,-2.921 0.003,0 0.005,0 0.008,-10e-4 0.002,-0.001 0.004,-0.004 0.006,-0.005 1.348,-0.583 2.315,-1.231 2.887,-1.946 0.567,-0.711 0.779,-1.524 0.639,-2.355 z m -39.608,-21.557 c 0.04,-0.011 0.078,-0.021 0.12,-0.032 0.206,0.16 0.419,0.321 0.631,0.483 -0.335,0.121 -0.651,0.259 -0.947,0.406 0.073,-0.284 0.138,-0.569 0.196,-0.857 z m -20.394,7.677 c 0.258,-0.036 6.369,-1.018 11.024,-13.6 0.287,-0.776 0.534,-1.489 0.753,-2.169 0.17,0.199 0.368,0.423 0.587,0.666 -4.076,10.838 -7.534,15.221 -12.305,15.598 -3.995,0.319 -6.571,-1.58 -8.279,-2.833 -0.2630002,-0.193 -0.5060002,-0.372 -0.7320002,-0.527 -1.042,-0.718 -2.175,-1.424 -2.798,-1.806 0.092,-0.194 0.176,-0.389 0.273,-0.583 0.659,0.267 1.831,0.854 3.163,2.027 0.1930002,0.147 4.7210002,3.597 8.3140002,3.227 z m -7.325,-4.425 c -0.462,-0.408 -0.903,-0.738 -1.3250002,-1.029 0.9660002,0.422 2.2550002,1.219 3.9330002,2.664 -1.486,-0.782 -2.606,-1.635 -2.608,-1.635 z m -11.1640001,2.524 0.437,-0.607 0.596,0.447 c 0.07,0.053 0.151,0.077 0.2319999,0.077 0.119,0 0.235,-0.053 0.311,-0.155 0.129,-0.171 0.094,-0.415 -0.077,-0.543 l -0.6079999,-0.457 0.3449999,-0.48 1.687,0.523 5.892,4.232 -0.777,1.083 -1.021,-0.765 c -0.172,-0.128 -0.415,-0.093 -0.544,0.078 -0.128,0.171 -0.094,0.416 0.078,0.544 l 1.033,0.775 -0.656,0.914 -5.8929999,-4.234 z m 4.3359999,5.717 2.314,1.663 c 0.133,0.096 0.292,0.146 0.453,0.146 0.042,0 0.084,-0.004 0.126,-0.011 0.203,-0.032 0.385,-0.146 0.505,-0.313 l 2.7930002,-3.89 c 0.25,-0.347 0.17,-0.833 -0.177,-1.083 l -4.4070002,-3.165 c 0.053,-0.133 0.107,-0.267 0.162,-0.4 0.637,0.393 1.645,1.027 2.552,1.652 0.214,0.147 0.444,0.316 0.693,0.499 1.6460002,1.209 4.3160002,3.17 8.3230002,3.17 0.323,0 0.657,-0.013 0.998,-0.04 6.153,-0.487 9.837,-6.678 13.364,-15.891 0.894,0.916 2.023,2.001 3.421,3.224 -0.652,-0.035 -1.496,-0.194 -2.432,-0.683 -0.192,-0.099 -0.425,-0.025 -0.524,0.165 -0.099,0.19 -0.025,0.425 0.165,0.524 1.214,0.634 2.303,0.79 3.083,0.79 0.23,0 0.421,-0.016 0.592,-0.034 0.365,0.309 0.75,0.626 1.146,0.948 -5.603,1.525 -6.872,2.599 -7.218,3.316 -0.055,-0.029 -0.113,-0.049 -0.171,-0.05 -0.215,0.004 -0.385,0.181 -0.382,0.395 0.002,0.082 0.03,0.809 0.583,1.155 0.174,0.109 0.373,0.163 0.594,0.163 0.256,0 0.542,-0.073 0.856,-0.22 0.194,-0.091 0.278,-0.322 0.188,-0.516 -0.048,-0.102 -0.135,-0.171 -0.234,-0.203 0.005,-0.034 0.013,-0.069 0.013,-0.104 0.221,-0.232 1.25,-1.031 5.471,-2.237 -0.689,2.696 -2.026,5.174 -2.071,5.256 -0.08,-0.071 -0.185,-0.111 -0.3,-0.093 -0.212,0.025 -0.365,0.218 -0.339,0.431 0.01,0.081 0.111,0.797 0.703,1.127 0.182,0.102 0.384,0.152 0.604,0.152 0.265,0 0.555,-0.073 0.87,-0.22 0.194,-0.091 0.278,-0.322 0.188,-0.517 -0.061,-0.129 -0.185,-0.204 -0.317,-0.216 0.189,-0.354 0.85,-1.636 1.461,-3.285 0.468,-0.337 1.939,-1.315 3.282,-1.432 0.206,0.15 0.423,0.303 0.636,0.455 -0.627,2.757 -1.072,5.205 -1.204,5.944 -0.1,-0.091 -0.239,-0.13 -0.379,-0.087 -0.204,0.066 -0.315,0.286 -0.248,0.49 0.025,0.078 0.268,0.768 0.93,1.011 0.146,0.054 0.297,0.08 0.454,0.08 0.317,0 0.656,-0.11 1.013,-0.329 0.182,-0.113 0.239,-0.352 0.127,-0.535 -0.087,-0.14 -0.248,-0.204 -0.398,-0.176 0.057,-0.329 0.47,-2.663 1.081,-5.435 0.43,0.296 0.872,0.595 1.325,0.896 -0.731,0.517 -1.32,1.096 -1.506,1.289 -0.297,0.308 -0.289,0.798 0.019,1.097 0.309,0.298 0.801,0.29 1.099,-0.018 0.457,-0.472 1.187,-1.083 1.811,-1.439 0.259,0.167 0.523,0.334 0.789,0.502 l 0.202,4.799 c -0.109,-0.036 -0.232,-0.028 -0.335,0.041 -0.177,0.121 -0.223,0.363 -0.104,0.541 0.052,0.077 0.529,0.748 1.222,0.748 0.004,0 0.007,0 0.011,0 0.424,-0.004 0.799,-0.249 1.112,-0.73 0.117,-0.179 0.068,-0.421 -0.112,-0.538 -0.074,-0.048 -0.157,-0.06 -0.239,-0.055 l -0.157,-3.73 c 0.088,0.048 0.184,0.077 0.286,0.086 0.24,0.145 0.477,0.289 0.721,0.434 -0.146,0.4 -0.32,0.815 -0.45,1.094 -0.182,0.39 -0.013,0.851 0.375,1.032 0.107,0.049 0.218,0.073 0.327,0.073 0.294,0 0.573,-0.166 0.705,-0.448 0.037,-0.08 0.219,-0.472 0.404,-0.953 4.804,2.766 10.544,5.644 17.354,8.438 0.683,0.281 1.356,0.537 2.031,0.795 1.473,0.562 2.996,1.143 4.668,2.011 0.019,0.008 1.585,0.668 2.003,1.924 -0.247,0.089 -0.549,0.21 -0.932,0.376 -5.658,1.52 -15.169,1.629 -25.382,1.093 l -8.544,-3.34 c -0.931,-0.553 -1.376,-0.925 -1.39,-0.936 -0.162,-0.142 -0.406,-0.123 -0.548,0.04 -0.14,0.162 -0.123,0.406 0.039,0.547 0.111,0.097 2.136,1.811 6.946,3.481 -19.716,-1.287 -40.6880002,-4.611 -41.0210002,-4.664 l -0.095,-0.016 -0.107,0.01 c -0.327,0.006 -0.646,0.037 -0.957,0.098 -0.28,-0.925 -0.774,-3.11 -0.513,-6.169 z m 67.8240002,13.736 c -0.09,-0.4 -0.19,-0.951 -0.229,-1.546 0.52,-0.068 1.02,-0.145 1.508,-0.227 0.045,0.501 0.136,0.936 0.23,1.275 -0.466,0.175 -0.969,0.341 -1.509,0.498 z m -3.384,0.799 c -0.022,-0.116 -0.046,-0.238 -0.068,-0.366 0.154,-0.036 0.317,-0.067 0.471,-0.106 0.165,-0.042 0.266,-0.211 0.224,-0.378 -0.042,-0.165 -0.209,-0.27 -0.378,-0.225 -0.134,0.034 -0.275,0.063 -0.41,0.096 -0.046,-0.363 -0.069,-0.72 -0.052,-1.018 0.625,-0.049 1.233,-0.105 1.826,-0.166 0.052,0.686 0.167,1.31 0.268,1.76 -0.598,0.142 -1.228,0.276 -1.881,0.403 z m -3.375,0.56 c -0.017,-0.088 -0.035,-0.179 -0.053,-0.274 0.625,-0.096 1.24,-0.202 1.841,-0.319 0.021,0.108 0.039,0.212 0.06,0.31 -0.602,0.1 -1.221,0.193 -1.848,0.283 z m -2.994,0.378 c -0.035,-0.085 -0.07,-0.178 -0.107,-0.274 0.509,-0.05 1.013,-0.101 1.511,-0.162 0.017,0.093 0.032,0.183 0.049,0.267 -0.481,0.06 -0.965,0.115 -1.453,0.169 z m -6.202,0.547 c -0.034,-0.149 -0.066,-0.31 -0.1,-0.475 0.509,-0.009 1.017,-0.026 1.524,-0.045 0.032,0.146 0.062,0.281 0.094,0.411 -0.509,0.039 -1.015,0.075 -1.518,0.109 z m -3.559,0.202 c -0.035,-0.174 -0.078,-0.404 -0.12,-0.669 0.527,0.006 1.057,0.012 1.586,0.012 0.138,0 0.276,-0.004 0.414,-0.004 0.038,0.199 0.075,0.388 0.11,0.557 -0.677,0.04 -1.34,0.075 -1.99,0.104 z m -3.45,0.132 c -0.045,-0.244 -0.09,-0.549 -0.129,-0.896 0.622,0.024 1.249,0.046 1.883,0.062 0.042,0.29 0.086,0.552 0.126,0.771 -0.652,0.025 -1.28,0.046 -1.88,0.063 z m -3.13,0.057 c -0.066,-0.271 -0.138,-0.641 -0.177,-1.119 0.528,0.033 1.063,0.064 1.607,0.092 0.035,0.378 0.081,0.719 0.129,1.008 -0.556,0.009 -1.078,0.017 -1.559,0.019 z m -3.006,0.003 c -0.098,-0.314 -0.217,-0.77 -0.292,-1.349 0.51,0.042 1.029,0.082 1.561,0.121 0.03,0.479 0.085,0.889 0.152,1.228 z m -3.266,0 c -0.079,-0.358 -0.176,-0.934 -0.213,-1.642 0.517,0.053 1.054,0.105 1.608,0.156 0.058,0.579 0.155,1.081 0.258,1.485 h -1.653 z m -6.198,0 c -0.085,-0.502 -0.196,-1.347 -0.202,-2.386 0.389,0.056 0.878,0.122 1.455,0.199 -0.006,0.85 0.063,1.636 0.128,2.187 z m -3.109,0 c -0.106,-0.522 -0.265,-1.445 -0.297,-2.463 0.547,-0.016 1.097,-0.034 1.649,-0.057 -0.002,1.04 0.093,1.916 0.185,2.52 z m -3.246,0 c -0.018,0 -0.034,0 -0.052,0 -0.086,-0.535 -0.195,-1.406 -0.206,-2.431 0.547,0.003 1.1,10e-4 1.654,-0.006 0.028,0.961 0.156,1.833 0.268,2.437 z m -3.286,-0.022 c -0.083,-0.525 -0.196,-1.419 -0.219,-2.47 0.56,0.019 1.123,0.032 1.692,0.043 0.009,0.984 0.1,1.84 0.188,2.443 -0.563,-0.004 -1.117,-0.009 -1.661,-0.016 z m -3.296,-0.066 c -0.084,-0.432 -0.223,-1.344 -0.205,-2.557 0.567,0.034 1.143,0.064 1.725,0.092 0.018,1.018 0.112,1.898 0.199,2.504 -0.585,-0.011 -1.159,-0.025 -1.719,-0.039 z m -3.174,-0.108 c -0.092,-0.587 -0.208,-1.565 -0.192,-2.68 0.528,0.045 1.064,0.087 1.608,0.127 -0.022,1.126 0.077,2.029 0.171,2.611 -0.541,-0.018 -1.073,-0.036 -1.587,-0.058 z m -2.791,-0.131 c -0.176,-0.507 -0.471,-1.557 -0.491,-2.847 0.502,0.055 1.018,0.106 1.541,0.157 -0.025,1.094 0.067,2.068 0.162,2.751 -0.416,-0.02 -0.82,-0.039 -1.212,-0.061 z m -2.816,-0.169 c -0.211,-0.42 -0.731,-1.596 -0.787,-3.052 0.505,0.066 1.024,0.132 1.557,0.195 -0.005,1.189 0.194,2.217 0.392,2.93 -0.404,-0.023 -0.79,-0.048 -1.162,-0.073 z m -3.0390002,-0.229 c -0.343,-0.495 -1.125,-1.787 -1.185,-3.317 0.592,0.093 1.219,0.187 1.875,0.281 0.008,1.271 0.311,2.378 0.601,3.14 -0.464,-0.037 -0.896,-0.071 -1.291,-0.104 z m -2.938,-0.284 c -0.285,-0.371 -1.29,-1.795 -1.375,-3.566 0.483,0.089 1.014,0.183 1.586,0.281 -0.01,1.26 0.353,2.445 0.824,3.395 -0.525,-0.054 -0.875,-0.092 -1.035,-0.11 z m 0.218,-7.405 c 0.089,-0.088 0.143,-0.194 0.18,-0.305 0.371,0.058 0.907,0.141 1.586,0.244 -0.021,0.018 -0.045,0.025 -0.065,0.045 -1.06,1.121 -1.54,2.334 -1.67,3.509 -0.584,-0.099 -1.124,-0.195 -1.613,-0.285 0.084,-1.03 0.515,-2.14 1.582,-3.208 z m 48.3010002,6.945 c -0.663,10e-4 -1.324,-0.004 -1.983,-0.014 -0.068,-0.573 -0.116,-1.219 -0.081,-1.805 0.012,-0.195 -0.058,-0.374 -0.17,-0.518 0.795,0.036 1.586,0.067 2.369,0.094 -0.138,0.127 -0.234,0.301 -0.253,0.502 -0.043,0.473 0.021,1.121 0.118,1.741 z m -5.369,-1.772 c 0.037,-0.307 -0.114,-0.589 -0.36,-0.745 0.782,0.046 1.562,0.087 2.336,0.126 -0.122,0.129 -0.21,0.291 -0.221,0.481 -0.036,0.613 10e-4,1.267 0.064,1.863 -0.622,-0.018 -1.242,-0.039 -1.854,-0.064 -0.03,-0.522 -0.033,-1.089 0.035,-1.661 z m -1.542,-0.183 c -0.072,0.608 -0.08,1.214 -0.055,1.771 -0.537,-0.027 -1.07,-0.058 -1.594,-0.091 -0.006,-0.502 0.025,-1.071 0.13,-1.705 0.047,-0.289 -0.081,-0.558 -0.294,-0.727 0.758,0.051 1.514,0.101 2.268,0.146 -0.238,0.11 -0.422,0.326 -0.455,0.606 z m -3.054,-0.277 c -0.109,0.679 -0.148,1.296 -0.148,1.851 -0.545,-0.04 -1.074,-0.082 -1.595,-0.125 -0.028,-0.511 -0.016,-1.074 0.075,-1.679 0.046,-0.31 -0.1,-0.602 -0.346,-0.764 0.797,0.062 1.594,0.124 2.392,0.181 -0.192,0.113 -0.339,0.298 -0.378,0.536 z m -3.204,-0.185 c -0.095,0.632 -0.118,1.227 -0.1,1.773 -0.544,-0.05 -1.074,-0.101 -1.582,-0.151 0.005,-0.435 0.033,-0.897 0.109,-1.383 0.068,-0.424 -0.22,-0.821 -0.643,-0.89 -0.425,-0.068 -0.822,0.222 -0.89,0.644 -0.081,0.511 -0.121,1.001 -0.131,1.463 -0.568,-0.063 -1.106,-0.125 -1.602,-0.186 0.019,-0.451 0.065,-0.908 0.155,-1.335 0.087,-0.42 -0.182,-0.831 -0.602,-0.919 -0.422,-0.09 -0.831,0.181 -0.919,0.602 -0.099,0.473 -0.153,0.969 -0.179,1.458 -0.584,-0.075 -1.077,-0.144 -1.466,-0.198 0.016,-0.439 0.051,-0.904 0.116,-1.385 0.058,-0.426 -0.24,-0.816 -0.665,-0.874 -0.422,-0.057 -0.816,0.24 -0.874,0.665 -0.069,0.509 -0.107,0.998 -0.126,1.465 -0.557,0.023 -1.112,0.041 -1.665,0.056 0.012,-0.501 0.058,-1.01 0.164,-1.491 0.092,-0.419 -0.172,-0.834 -0.591,-0.926 -0.418,-0.09 -0.833,0.173 -0.925,0.592 -0.134,0.606 -0.19,1.237 -0.202,1.853 -0.552,0.005 -1.101,0.006 -1.646,0.004 0.019,-0.648 0.081,-1.337 0.214,-2.027 0.08,-0.411 -0.183,-0.804 -0.587,-0.898 4.724,0.547 9.892,1.081 15.116,1.503 -0.243,0.098 -0.437,0.306 -0.479,0.585 z m -15.574,-1.487 c -0.152,0.789 -0.224,1.573 -0.244,2.305 -0.572,-0.011 -1.138,-0.026 -1.7,-0.045 0.01,-0.738 0.07,-1.527 0.217,-2.306 0.08,-0.422 -0.196,-0.828 -0.617,-0.909 -0.42,-0.078 -0.828,0.196 -0.909,0.617 -0.165,0.865 -0.232,1.729 -0.246,2.536 -0.575,-0.026 -1.141,-0.059 -1.702,-0.092 0.046,-0.81 0.164,-1.717 0.407,-2.692 0.07,-0.28 -0.031,-0.555 -0.225,-0.741 1.847,0.234 3.81,0.476 5.859,0.714 -0.394,-0.042 -0.763,0.216 -0.84,0.613 z m -6.3,-0.963 c -0.268,1.073 -0.398,2.072 -0.45,2.965 -0.544,-0.039 -1.08,-0.082 -1.608,-0.127 0.055,-0.894 0.207,-1.835 0.531,-2.701 0.128,-0.343 -0.012,-0.709 -0.303,-0.904 0.709,0.094 1.443,0.189 2.198,0.286 -0.177,0.102 -0.315,0.269 -0.368,0.481 z m -2.982,-0.41 c -0.379,1.012 -0.558,2.092 -0.625,3.107 -0.527,-0.053 -1.047,-0.105 -1.554,-0.161 0.048,-0.823 0.217,-1.719 0.608,-2.623 0.17,-0.394 -0.011,-0.851 -0.405,-1.021 -0.394,-0.169 -0.851,0.012 -1.021,0.404 -0.458,1.061 -0.664,2.102 -0.729,3.062 -0.538,-0.065 -1.062,-0.131 -1.571,-0.198 0.052,-0.869 0.285,-1.807 0.857,-2.729 0.207,-0.333 0.121,-0.752 -0.172,-0.996 1.483,0.211 3.189,0.449 5.084,0.704 -0.208,0.075 -0.388,0.228 -0.472,0.451 z m -5.757,-0.977 c -0.7060002,1.137 -1.0060002,2.276 -1.0860002,3.337 -0.658,-0.095 -1.284,-0.189 -1.876,-0.283 0.086,-0.88 0.438,-1.809 1.274,-2.691 0.249,-0.263 0.264,-0.649 0.079,-0.941 0.588,0.088 1.2480002,0.184 1.9680002,0.288 -0.142,0.059 -0.272,0.149 -0.359,0.29 z m 25.764,5.729 c 0.5,0.061 1.042,0.123 1.615,0.187 0.021,0.722 0.104,1.345 0.19,1.807 h -1.663 c -0.061,-0.462 -0.136,-1.193 -0.142,-1.994 z m 19.589,0.509 c -0.104,-0.621 -0.176,-1.228 -0.143,-1.583 0.021,-0.238 -0.072,-0.453 -0.229,-0.61 0.599,0.018 1.192,0.031 1.779,0.043 -0.011,0.037 -0.031,0.069 -0.036,0.108 -0.069,0.55 0.018,1.3 0.145,2.001 -0.504,0.018 -1.01,0.031 -1.516,0.041 z m 2.911,-1.848 c 0.013,-0.098 10e-4,-0.19 -0.021,-0.279 0.604,0.005 1.2,0.008 1.79,0.008 -0.131,0.119 -0.228,0.276 -0.251,0.467 -0.058,0.462 0.008,0.971 0.12,1.453 -0.485,0.035 -0.973,0.066 -1.464,0.092 -0.132,-0.677 -0.222,-1.349 -0.174,-1.741 z m 3.059,0.387 c 0.032,-0.262 -0.081,-0.5 -0.264,-0.665 0.647,-0.005 1.286,-0.014 1.915,-0.028 -0.024,0.52 0.025,1.109 0.101,1.648 -0.528,0.064 -1.065,0.124 -1.605,0.176 -0.113,-0.402 -0.187,-0.813 -0.147,-1.131 z m 3.206,-0.715 c 10e-4,-0.01 -0.004,-0.018 -0.003,-0.025 0.628,-0.024 1.241,-0.055 1.845,-0.089 -0.007,0.399 0.026,0.834 0.083,1.248 -0.602,0.119 -1.214,0.227 -1.84,0.322 -0.07,-0.506 -0.117,-1.04 -0.085,-1.456 z m -61.1240002,-4.648 c -0.615,0.932 -0.928,1.885 -1.026,2.812 -0.367,-0.074 -0.683,-0.14 -0.938,-0.193 0.233,-1.138 0.973,-2.081 1.964,-2.619 z m -2.043,3.397 c 0,-0.055 0.014,-0.104 0.017,-0.157 0.266,0.056 0.589,0.123 0.966,0.198 -0.007,1.151 0.285,2.236 0.695,3.148 -1.012,-0.701 -1.678,-1.867 -1.678,-3.189 z m 57.2930002,4.281 c -0.029,-0.116 -0.058,-0.232 -0.086,-0.354 0.502,-0.026 1,-0.06 1.497,-0.096 0.035,0.109 0.069,0.209 0.105,0.309 -0.505,0.049 -1.01,0.097 -1.516,0.141 z m 17.344,-4.333 c -0.334,0.418 -0.859,0.801 -1.528,1.154 -0.062,-0.262 -0.115,-0.579 -0.135,-0.932 0.483,-0.104 0.952,-0.213 1.393,-0.333 l 0.107,-0.037 c 0.115,-0.05 0.239,-0.104 0.364,-0.154 -0.054,0.101 -0.119,0.2 -0.201,0.302 z m -6.371,2.068 c 0,0.174 -0.142,0.314 -0.315,0.314 -0.173,0 -0.316,-0.14 -0.316,-0.314 0,-0.175 0.142,-0.315 0.315,-0.315 0.173,0 0.316,0.14 0.316,0.315 z m -66.6560002,-17.949 c -0.077,0.102 -0.193,0.156 -0.312,0.156 -0.081,0 -0.163,-0.025 -0.232,-0.077 l -1.358,-1.019 c -0.171,-0.128 -0.206,-0.372 -0.077,-0.544 0.129,-0.172 0.372,-0.205 0.543,-0.077 l 1.357,1.017 c 0.173,0.129 0.207,0.372 0.079,0.544 z m 2.817,2.114 c -0.076,0.102 -0.192,0.155 -0.31,0.155 -0.082,0 -0.163,-0.025 -0.232,-0.077 l -2.111,-1.584 c -0.172,-0.128 -0.207,-0.373 -0.078,-0.543 0.129,-0.17 0.373,-0.207 0.544,-0.077 l 2.11,1.582 c 0.172,0.13 0.207,0.373 0.077,0.544 z m 32.4850002,8.434 c 0,-0.227 0.187,-0.412 0.414,-0.412 0.227,0 0.412,0.186 0.412,0.412 0,0.228 -0.185,0.412 -0.412,0.412 -0.227,0 -0.414,-0.185 -0.414,-0.412 z m -32.2730002,-0.936 c -0.015,-0.214 0.147,-0.399 0.36,-0.414 3.7900002,-0.264 9.9200002,1.746 10.1790002,1.831 0.204,0.067 0.314,0.287 0.247,0.489 -0.054,0.164 -0.205,0.268 -0.368,0.268 -0.041,0 -0.082,-0.006 -0.122,-0.02 -0.036,-0.012 -2.058,-0.675 -4.462,-1.197 l -2.4230002,-0.438 c -1.067,-0.148 -2.109,-0.223 -2.996,-0.159 -0.218,0.013 -0.4,-0.146 -0.415,-0.36 z m -1.013,0.353 c -0.201,-0.009 -0.356,-0.18 -0.347,-0.38 0.01,-0.2 0.181,-0.357 0.381,-0.348 0.202,0.01 0.356,0.181 0.347,0.382 -0.009,0.201 -0.181,0.354 -0.381,0.346 z m 25.9420002,-20.892 c 0,-0.198 0.16,-0.357 0.356,-0.357 0.196,0 0.357,0.159 0.357,0.357 0,0.197 -0.161,0.356 -0.357,0.356 -0.196,0 -0.356,-0.16 -0.356,-0.356 z"
       id="path5163" /><path
       style="opacity:1;fill:#ffffff;fill-opacity:1;stroke:none;stroke-width:0.68380743;stroke-miterlimit:4;stroke-dasharray:none;stroke-opacity:1"
       d="m 53.767327,74.931829 c 0.08544,-0.802517 0.07469,-1.201765 -0.03724,-1.38279 -0.150347,-0.243151 -0.106543,-0.250089 0.981548,-0.155463 0.626405,0.05448 1.181102,0.124023 1.232659,0.154551 0.05156,0.03053 -0.04778,0.197024 -0.220743,0.36999 -0.235984,0.235983 -0.338912,0.542576 -0.41234,1.22824 l -0.09786,0.913755 h -0.783078 -0.783078 z"
       id="path5201"
       inkscape:connector-curvature="0"
       transform="translate(-33.775997,-17.83617)" /><path
       style="opacity:1;fill:#ffffff;fill-opacity:1;stroke:none;stroke-width:0.34190372;stroke-miterlimit:4;stroke-dasharray:none;stroke-opacity:1"
       d="m 50.615792,76.093657 -0.296683,-0.02647 0.04899,-0.662485 c 0.02694,-0.364366 0.08733,-0.923944 0.134202,-1.243506 0.04687,-0.319563 0.07092,-0.627276 0.05345,-0.683808 -0.135252,-0.437623 -0.463957,-0.662909 -0.859068,-0.588786 -0.351827,0.066 -0.564663,0.3508 -0.656568,0.878556 -0.06235,0.358051 -0.208167,1.838866 -0.212166,2.154628 -0.0012,0.09671 -0.5874,0.11501 -1.299594,0.04057 l -0.429625,-0.0449 0.04208,-0.553427 c 0.02314,-0.304385 0.122781,-0.974769 0.221415,-1.489742 0.168689,-0.880729 0.172815,-0.949385 0.0695,-1.156477 -0.06041,-0.12109 -0.102005,-0.227543 -0.09244,-0.236562 0.0096,-0.009 1.094389,0.116154 2.410718,0.278161 1.316329,0.162008 2.608725,0.317414 2.871991,0.345348 l 0.478666,0.05079 -0.293436,0.125018 c -0.430871,0.183572 -0.56065,0.60802 -0.671678,2.19675 l -0.04659,0.666713 -0.588239,-0.01195 c -0.323531,-0.0066 -0.721746,-0.02386 -0.884921,-0.03842 z"
       id="path5203"
       inkscape:connector-curvature="0"
       transform="translate(-33.775997,-17.83617)" /><path
       style="opacity:1;fill:#ffffff;fill-opacity:1;stroke:none;stroke-width:0.34190372;stroke-miterlimit:4;stroke-dasharray:none;stroke-opacity:1"
       d="m 44.315681,75.739687 -0.374147,-0.04014 0.02054,-0.341904 c 0.03299,-0.549265 0.201119,-1.421817 0.384747,-1.996804 0.212943,-0.666776 0.212871,-0.761768 -8.07e-4,-1.07664 l -0.172863,-0.254728 0.189958,0.03882 c 0.104477,0.02135 0.589986,0.08879 1.078908,0.149856 0.488923,0.06107 0.901893,0.123283 0.917711,0.138253 0.01582,0.01497 -0.04356,0.104206 -0.131963,0.198302 -0.194162,0.206676 -0.429423,1.236704 -0.558203,2.44394 l -0.08571,0.803474 -0.447012,-0.01115 c -0.245857,-0.0061 -0.615378,-0.02921 -0.821158,-0.05129 z"
       id="path5205"
       inkscape:connector-curvature="0"
       transform="translate(-33.775997,-17.83617)" /><path
       style="opacity:1;fill:#ffffff;fill-opacity:1;stroke:none;stroke-width:0.34190372;stroke-miterlimit:4;stroke-dasharray:none;stroke-opacity:1"
       d="m 41.627783,75.490407 c -0.405404,-0.04389 -0.756628,-0.09932 -0.780498,-0.12319 -0.08527,-0.08527 0.198591,-1.514522 0.428591,-2.157969 0.270454,-0.756624 0.279436,-0.853793 0.105317,-1.139329 -0.245831,-0.403134 -0.845603,-0.476941 -1.159607,-0.142699 -0.289883,0.308566 -0.72344,1.804766 -0.866582,2.990563 l -0.0377,0.312328 -0.664394,-0.08763 c -0.365417,-0.0482 -0.718244,-0.08874 -0.78406,-0.09009 -0.300124,-0.0062 -0.03699,-1.267753 0.502686,-2.410096 0.357548,-0.756831 0.370651,-0.858013 0.15533,-1.19945 -0.127003,-0.201389 -0.236165,-0.207371 2.061209,0.112957 1.052464,0.146747 2.082813,0.287443 2.289664,0.312659 0.628435,0.07661 0.64512,0.08818 0.411088,0.285104 -0.149527,0.125819 -0.250439,0.320901 -0.377891,0.730538 -0.191936,0.616889 -0.443481,1.963282 -0.443481,2.373728 0,0.144481 -0.02308,0.273869 -0.05129,0.287529 -0.02821,0.01366 -0.38298,-0.01107 -0.788384,-0.05495 z"
       id="path5207"
       inkscape:connector-curvature="0"
       transform="translate(-33.775997,-17.83617)" /><path
       style="opacity:1;fill:#ffffff;fill-opacity:1;stroke:none;stroke-width:0.34190372;stroke-miterlimit:4;stroke-dasharray:none;stroke-opacity:1"
       d="m 35.219094,74.679519 -0.92314,-0.142444 0.02083,-0.205142 c 0.07008,-0.690013 0.479092,-1.572875 1.073411,-2.316954 0.38595,-0.483205 0.457642,-0.719083 0.305155,-1.004008 -0.05541,-0.103532 -0.04843,-0.132266 0.03212,-0.132266 0.125126,0 1.513526,0.195209 1.73784,0.24434 l 0.160608,0.03518 -0.182437,0.169077 c -0.418713,0.38805 -1.057932,2.048921 -1.170083,3.040203 -0.02563,0.226581 -0.06563,0.421526 -0.08889,0.433213 -0.02325,0.01169 -0.457693,-0.04285 -0.96542,-0.121197 z"
       id="path5209"
       inkscape:connector-curvature="0"
       transform="translate(-33.775997,-17.83617)" /><path
       style="opacity:1;fill:#ffffff;fill-opacity:1;stroke:none;stroke-width:0.34190372;stroke-miterlimit:4;stroke-dasharray:none;stroke-opacity:1"
       d="m 32.415483,74.22935 c -0.131632,-0.03006 -0.462424,-0.09129 -0.735093,-0.136071 -0.487816,-0.08011 -0.49576,-0.08472 -0.49576,-0.287605 0,-0.339816 0.199229,-1.015829 0.450597,-1.52894 0.210393,-0.429469 0.538041,-0.888516 1.144164,-1.603016 l 0.192955,-0.227457 0.559233,0.08261 c 0.307578,0.04543 0.657988,0.09977 0.77869,0.12074 l 0.219457,0.03813 -0.366232,0.454482 c -0.201427,0.249964 -0.476521,0.643267 -0.611318,0.874005 -0.270498,0.463022 -0.621655,1.451893 -0.694845,1.956707 -0.04929,0.339937 -0.05686,0.344333 -0.441848,0.256415 z"
       id="path5211"
       inkscape:connector-curvature="0"
       transform="translate(-33.775997,-17.83617)" /><path
       style="opacity:1;fill:#ffffff;fill-opacity:1;stroke:none;stroke-width:0.34190372;stroke-miterlimit:4;stroke-dasharray:none;stroke-opacity:1"
       d="m 29.040208,73.597079 c -0.331658,-0.06893 -0.332254,-0.06955 -0.293778,-0.30665 0.05751,-0.354366 0.396812,-1.030913 0.722417,-1.440436 0.256818,-0.323008 1.034949,-0.971288 1.165838,-0.971288 0.02774,0 -0.110109,0.320271 -0.30633,0.711713 -0.314858,0.62811 -0.465954,1.086487 -0.616304,1.86966 -0.0475,0.247415 -0.09448,0.256995 -0.671843,0.137001 z"
       id="path5213"
       inkscape:connector-curvature="0"
       transform="translate(-33.775997,-17.83617)" /><path
       style="opacity:1;fill:#ffffff;fill-opacity:1;stroke:none;stroke-width:0.34190372;stroke-miterlimit:4;stroke-dasharray:none;stroke-opacity:1"
       d="m 29.835095,77.078841 c -0.666125,-0.635375 -1.10327,-1.529907 -1.208709,-2.473385 -0.05357,-0.479373 -0.0027,-0.534846 0.410032,-0.446779 0.70568,0.150589 0.643836,0.09842 0.643836,0.543099 0,0.545653 0.169743,1.399439 0.418147,2.103218 0.113345,0.32113 0.190225,0.59973 0.170845,0.61911 -0.01938,0.01938 -0.214748,-0.135988 -0.434151,-0.345263 z"
       id="path5215"
       inkscape:connector-curvature="0"
       transform="translate(-33.775997,-17.83617)" /><path
       style="opacity:1;fill:#ffffff;fill-opacity:1;stroke:none;stroke-width:0.34190372;stroke-miterlimit:4;stroke-dasharray:none;stroke-opacity:1"
       d="m 32.99672,78.253924 c -0.541382,-0.06897 -0.5413,-0.0689 -0.999739,-0.868246 -0.34936,-0.609151 -0.715908,-1.653081 -0.80722,-2.298962 -0.03702,-0.261839 -0.05964,-0.483735 -0.05027,-0.493102 0.0094,-0.0094 0.351668,0.04331 0.760669,0.117072 0.409001,0.07376 0.764977,0.134102 0.791058,0.134102 0.02608,0 0.08401,0.325179 0.128733,0.722621 0.08783,0.78055 0.324142,1.69137 0.590841,2.2773 0.175015,0.384504 0.201334,0.49326 0.115882,0.478847 -0.02821,-0.0048 -0.266685,-0.03609 -0.529951,-0.06963 z"
       id="path5217"
       inkscape:connector-curvature="0"
       transform="translate(-33.775997,-17.83617)" /><path
       style="opacity:1;fill:#ffffff;fill-opacity:1;stroke:none;stroke-width:0.34190372;stroke-miterlimit:4;stroke-dasharray:none;stroke-opacity:1"
       d="m 36.044977,78.536044 c -0.430274,-0.03738 -0.598164,-0.08045 -0.663869,-0.170306 -0.191051,-0.261278 -0.659709,-1.228 -0.811082,-1.673054 -0.165208,-0.485732 -0.354215,-1.482832 -0.292735,-1.544312 0.01917,-0.01917 0.443416,0.02777 0.942774,0.104306 0.499358,0.07654 0.916196,0.139156 0.926307,0.139156 0.01011,0 0.03908,0.238478 0.06438,0.529951 0.05894,0.67905 0.264275,1.716107 0.442162,2.233147 0.164084,0.476918 0.161228,0.45336 0.05346,0.440971 -0.04701,-0.0054 -0.344641,-0.03234 -0.661398,-0.05986 z"
       id="path5219"
       inkscape:connector-curvature="0"
       transform="translate(-33.775997,-17.83617)" /><path
       style="opacity:1;fill:#ffffff;fill-opacity:1;stroke:none;stroke-width:0.34190372;stroke-miterlimit:4;stroke-dasharray:none;stroke-opacity:1"
       d="m 39.033263,78.760079 -0.528007,-0.02327 -0.137904,-0.311753 C 38.053168,77.714789 37.862507,76.96915 37.716906,75.881278 l -0.03974,-0.296936 0.258246,0.03893 c 0.142036,0.02141 0.507659,0.0733 0.812497,0.115309 l 0.55425,0.07638 0.04656,0.728672 c 0.02561,0.40077 0.09258,0.974843 0.148833,1.275719 0.05625,0.300875 0.120703,0.647053 0.143229,0.769283 0.02253,0.122231 0.01385,0.216045 -0.01928,0.208476 -0.03313,-0.0076 -0.297836,-0.02423 -0.588241,-0.03703 z"
       id="path5221"
       inkscape:connector-curvature="0"
       transform="translate(-33.775997,-17.83617)" /><path
       style="opacity:1;fill:#ffffff;fill-opacity:1;stroke:none;stroke-width:0.34190372;stroke-miterlimit:4;stroke-dasharray:none;stroke-opacity:1"
       d="m 41.63062,78.897404 -0.323978,-0.02558 -0.103685,-0.356663 C 41.022561,77.89462 40.89977,77.223591 40.851743,76.59584 l -0.04652,-0.608081 0.574689,0.04713 c 0.316078,0.02592 0.670047,0.06363 0.786597,0.0838 l 0.211908,0.03667 0.04396,0.916554 c 0.02418,0.504105 0.06402,1.132365 0.08853,1.396133 l 0.04457,0.479579 -0.300437,-0.01232 c -0.165241,-0.0068 -0.446228,-0.02384 -0.624415,-0.0379 z"
       id="path5223"
       inkscape:connector-curvature="0"
       transform="translate(-33.775997,-17.83617)" /><path
       style="opacity:1;fill:#ffffff;fill-opacity:1;stroke:none;stroke-width:0.34190372;stroke-miterlimit:4;stroke-dasharray:none;stroke-opacity:1"
       d="m 44.643362,79.033653 c -0.508474,-0.02248 -0.526345,-0.02909 -0.563434,-0.208476 -0.06395,-0.309296 -0.176362,-1.661929 -0.176422,-2.122848 l -5.8e-5,-0.433213 0.529951,0.04229 c 0.291473,0.02326 0.654943,0.05768 0.807711,0.07648 l 0.277761,0.03418 0.08135,1.177306 c 0.04474,0.647518 0.100276,1.246542 0.123405,1.331163 0.03931,0.143814 0.02256,0.152958 -0.256542,0.140095 -0.164227,-0.0076 -0.534902,-0.02421 -0.823724,-0.03698 z"
       id="path5225"
       inkscape:connector-curvature="0"
       transform="translate(-33.775997,-17.83617)" /><path
       style="opacity:1;fill:#ffffff;fill-opacity:1;stroke:none;stroke-width:0.34190372;stroke-miterlimit:4;stroke-dasharray:none;stroke-opacity:1"
       d="m 47.293212,79.092351 c -0.119649,-0.193597 -0.302334,-2.498369 -0.202084,-2.549522 0.08065,-0.04115 1.653482,0.04319 1.701538,0.09125 0.02072,0.02071 0.06653,0.441531 0.101805,0.935148 0.03528,0.493616 0.08462,1.051849 0.109648,1.240516 l 0.0455,0.343032 H 48.19009 c -0.472743,0 -0.876338,-0.02719 -0.896878,-0.06042 z"
       id="path5227"
       inkscape:connector-curvature="0"
       transform="translate(-33.775997,-17.83617)" /><path
       style="opacity:1;fill:#ffffff;fill-opacity:1;stroke:none;stroke-width:0.34190372;stroke-miterlimit:4;stroke-dasharray:none;stroke-opacity:1"
       d="m 50.583014,79.16987 c -0.03477,-0.0598 -0.160279,-1.183284 -0.217718,-1.948851 l -0.03976,-0.529951 h 0.881362 0.881362 l 0.04299,0.803474 c 0.02365,0.441911 0.06357,1.01118 0.08871,1.265044 l 0.04571,0.46157 h -0.826422 c -0.454532,0 -0.83984,-0.02308 -0.85624,-0.05129 z"
       id="path5229"
       inkscape:connector-curvature="0"
       transform="translate(-33.775997,-17.83617)" /><path
       style="opacity:1;fill:#ffffff;fill-opacity:1;stroke:none;stroke-width:0.34190372;stroke-miterlimit:4;stroke-dasharray:none;stroke-opacity:1"
       d="m 53.787145,79.067299 c -0.06683,-0.301385 -0.173631,-1.489252 -0.173631,-1.931165 v -0.449275 l 0.836794,0.0192 0.836794,0.0192 0.07994,0.854759 c 0.04397,0.470118 0.102445,1.031695 0.129951,1.247949 l 0.05001,0.393189 h -0.862871 c -0.839133,0 -0.86381,-0.0042 -0.896988,-0.153857 z"
       id="path5231"
       inkscape:connector-curvature="0"
       transform="translate(-33.775997,-17.83617)" /><path
       style="opacity:1;fill:#ffffff;fill-opacity:1;stroke:none;stroke-width:0.48352489;stroke-miterlimit:4;stroke-dasharray:none;stroke-opacity:1"
       d="m 66.517582,76.995761 -0.366652,-0.03817 0.06502,-0.944 0.06502,-0.943999 -0.267459,-0.210384 c -0.315089,-0.247848 -0.447063,-0.25901 -0.81469,-0.0689 -0.342149,0.176932 -0.374662,0.264293 -0.454458,1.221114 l -0.06482,0.777221 -0.638341,-0.06228 c -1.075646,-0.104946 -1.012725,-0.03527 -0.937057,-1.037632 0.06163,-0.816369 0.05199,-0.88766 -0.148844,-1.101442 -0.503401,-0.535846 -1.180769,-0.157927 -1.292479,0.721102 -0.03163,0.248899 -0.08002,0.59769 -0.107541,0.775093 l -0.05003,0.32255 -0.50177,-0.06173 c -1.017063,-0.125122 -1.050642,-0.139451 -0.991482,-0.423078 0.02948,-0.141349 0.0647,-0.554554 0.07825,-0.918233 0.02213,-0.593873 0.0014,-0.680075 -0.203657,-0.846169 -0.28681,-0.23233 -0.701266,-0.237089 -0.980161,-0.01125 -0.176278,0.142742 -0.232186,0.332228 -0.313859,1.063755 l -0.09937,0.890075 h -0.870628 -0.870629 l 0.05994,-0.507701 c 0.03296,-0.279236 0.08697,-0.704038 0.120005,-0.944004 0.07947,-0.57724 -0.156946,-0.898244 -0.669982,-0.909689 -0.213648,-0.0048 -0.353219,-0.05562 -0.353391,-0.128759 -3.58e-4,-0.152066 -0.207019,-0.16234 2.442511,0.121429 2.549452,0.27305 9.451129,0.918149 9.822935,0.918149 h 0.242926 l -0.227681,0.242355 c -0.236161,0.251382 -0.365704,0.837572 -0.379204,1.715921 l -0.0071,0.459349 -0.459349,-0.01626 c -0.252642,-0.0089 -0.624343,-0.03343 -0.826002,-0.05443 z"
       id="path5233"
       inkscape:connector-curvature="0"
       transform="translate(-33.775997,-17.83617)" /><path
       style="opacity:1;fill:#ffffff;fill-opacity:1;stroke:none;stroke-width:0.48352489;stroke-miterlimit:4;stroke-dasharray:none;stroke-opacity:1"
       d="m 56.984596,78.541198 c -0.05586,-0.359017 -0.129338,-0.924742 -0.16329,-1.257165 l -0.06173,-0.604406 h 0.783135 c 0.430724,0 0.815773,-8.71e-4 0.855664,-0.0019 0.03989,-0.0011 0.101462,0.40147 0.136824,0.894521 0.03536,0.493052 0.09027,1.059647 0.122024,1.259101 l 0.05773,0.362643 h -0.814398 -0.814398 z"
       id="path5235"
       inkscape:connector-curvature="0"
       transform="translate(-33.775997,-17.83617)" /><path
       style="opacity:1;fill:#ffffff;fill-opacity:1;stroke:none;stroke-width:0.48352489;stroke-miterlimit:4;stroke-dasharray:none;stroke-opacity:1"
       d="m 60.128197,78.686255 c -0.03153,-0.279235 -0.08625,-0.828989 -0.12161,-1.221674 l -0.06428,-0.713973 0.569816,0.06838 c 0.987556,0.118515 1.004989,0.127769 1.004989,0.533465 0,0.19896 0.02814,0.694691 0.06254,1.101623 l 0.06254,0.739878 H 60.91386 60.185525 Z"
       id="path5237"
       inkscape:connector-curvature="0"
       transform="translate(-33.775997,-17.83617)" /><path
       style="opacity:1;fill:#ffffff;fill-opacity:1;stroke:none;stroke-width:0.48352489;stroke-miterlimit:4;stroke-dasharray:none;stroke-opacity:1"
       d="m 63.122222,78.879665 c -0.0262,-0.17286 -0.0724,-0.634146 -0.102662,-1.02508 l -0.05503,-0.710789 0.60598,0.06312 c 1.186113,0.123543 1.102372,0.05757 1.174749,0.925432 0.03515,0.421494 0.0894,0.832785 0.120562,0.913981 0.04823,0.125676 -0.07366,0.147629 -0.819659,0.147629 h -0.876309 z"
       id="path5239"
       inkscape:connector-curvature="0"
       transform="translate(-33.775997,-17.83617)" /><path
       style="opacity:1;fill:#ffffff;fill-opacity:1;stroke:none;stroke-width:0.48352489;stroke-miterlimit:4;stroke-dasharray:none;stroke-opacity:1"
       d="m 66.304939,78.637903 c -0.03374,-0.30583 -0.08384,-0.675726 -0.111348,-0.821993 -0.04751,-0.252627 -0.03147,-0.265896 0.320317,-0.265098 0.20368,4.63e-4 0.593373,0.02764 0.865985,0.0604 l 0.495657,0.05956 0.05545,0.447305 c 0.0305,0.246018 0.08487,0.588736 0.120837,0.761596 l 0.06539,0.314291 h -0.875475 -0.875474 z"
       id="path5241"
       inkscape:connector-curvature="0"
       transform="translate(-33.775997,-17.83617)" /><path
       style="opacity:1;fill:#ffffff;fill-opacity:1;stroke:none;stroke-width:0.48352489;stroke-miterlimit:4;stroke-dasharray:none;stroke-opacity:1"
       d="m 69.761208,77.285754 -0.410996,-0.03702 V 76.17398 c 0,-0.886251 -0.02957,-1.107426 -0.168568,-1.261021 -0.165698,-0.183095 -0.151296,-0.185195 0.846169,-0.123358 0.558105,0.0346 1.113232,0.08333 1.233616,0.108289 l 0.218879,0.04538 -0.192613,0.263772 c -0.146331,0.200392 -0.208163,0.490329 -0.257329,1.206645 l -0.06472,0.942874 -0.396723,-0.01689 c -0.218197,-0.0093 -0.581671,-0.03355 -0.807719,-0.05391 z"
       id="path5243"
       inkscape:connector-curvature="0"
       transform="translate(-33.775997,-17.83617)" /><path
       style="opacity:1;fill:#ffffff;fill-opacity:1;stroke:none;stroke-width:0.48352489;stroke-miterlimit:4;stroke-dasharray:none;stroke-opacity:1"
       d="m 72.71071,77.480706 c -0.23658,-0.03584 -0.265038,-0.07961 -0.257778,-0.396506 0.0045,-0.195921 0.04292,-0.617324 0.08541,-0.93645 0.05698,-0.428001 0.04215,-0.6539 -0.05651,-0.861026 -0.07357,-0.154438 -0.13376,-0.291743 -0.13376,-0.305121 0,-0.02731 0.945843,0.03497 1.714454,0.112887 l 0.505642,0.05126 -0.18926,0.259237 c -0.142454,0.195125 -0.205266,0.492422 -0.253977,1.202111 l -0.06472,0.942874 -0.54178,-0.01449 c -0.297979,-0.008 -0.661453,-0.03262 -0.807719,-0.05478 z"
       id="path5245"
       inkscape:connector-curvature="0"
       transform="translate(-33.775997,-17.83617)" /><path
       style="opacity:1;fill:#ffffff;fill-opacity:1;stroke:none;stroke-width:0.48352489;stroke-miterlimit:4;stroke-dasharray:none;stroke-opacity:1"
       d="m 76.433852,77.672271 -0.797816,-0.03342 v -1.028053 c 0,-0.822289 -0.03214,-1.063568 -0.160582,-1.205494 -0.08832,-0.09759 -0.142717,-0.191929 -0.120882,-0.209636 0.02184,-0.01771 0.540149,-0.0066 1.151808,0.02477 0.929687,0.04762 1.104176,0.08076 1.063755,0.202021 -0.02659,0.07978 -0.0514,0.623739 -0.05513,1.208793 -0.0054,0.852112 -0.03429,1.0648 -0.145057,1.069084 -0.07606,0.0029 -0.497298,-0.0097 -0.936097,-0.02807 z"
       id="path5247"
       inkscape:connector-curvature="0"
       transform="translate(-33.775997,-17.83617)" /><path
       style="opacity:1;fill:#ffffff;fill-opacity:1;stroke:none;stroke-width:0.48352489;stroke-miterlimit:4;stroke-dasharray:none;stroke-opacity:1"
       d="m 69.544824,78.686255 c -0.06314,-0.279235 -0.137549,-0.589725 -0.165359,-0.689977 -0.04724,-0.170303 9.58e-4,-0.179293 0.733864,-0.136866 0.431436,0.02498 0.805681,0.06666 0.831656,0.09264 0.02598,0.02598 0.08399,0.316031 0.12892,0.644567 l 0.08169,0.597339 h -0.747989 -0.747989 z"
       id="path5249"
       inkscape:connector-curvature="0"
       transform="translate(-33.775997,-17.83617)" /><path
       style="opacity:1;fill:#ffffff;fill-opacity:1;stroke:none;stroke-width:0.48352489;stroke-miterlimit:4;stroke-dasharray:none;stroke-opacity:1"
       d="m 72.601917,78.891753 c -0.03324,-0.166211 -0.06044,-0.433765 -0.06044,-0.594563 v -0.29236 l 0.787825,0.06075 c 0.433303,0.03341 0.798279,0.0725 0.811057,0.08686 0.01278,0.01436 0.054,0.254575 0.09159,0.53381 l 0.06836,0.507701 H 73.48133 72.662352 Z"
       id="path5251"
       inkscape:connector-curvature="0"
       transform="translate(-33.775997,-17.83617)" /><path
       style="opacity:1;fill:#ffffff;fill-opacity:1;stroke:none;stroke-width:0.48352489;stroke-miterlimit:4;stroke-dasharray:none;stroke-opacity:1"
       d="m 75.786859,78.968626 c -0.02331,-0.115413 -0.06103,-0.330973 -0.08381,-0.479023 l -0.04143,-0.26918 0.974298,0.02742 0.974299,0.02742 0.07819,0.37724 c 0.043,0.207482 0.06662,0.386529 0.05249,0.397882 -0.01413,0.01135 -0.450036,0.04482 -0.968672,0.07436 -0.910592,0.05188 -0.944431,0.04652 -0.985359,-0.156119 z"
       id="path5253"
       inkscape:connector-curvature="0"
       transform="translate(-33.775997,-17.83617)" /><path
       style="opacity:1;fill:#ffffff;fill-opacity:1;stroke:none;stroke-width:0.12088122;stroke-miterlimit:4;stroke-dasharray:none;stroke-opacity:1"
       d="m 101.73092,75.329231 c -0.0471,-0.206433 -0.0664,-0.322807 -0.0968,-0.583515 -0.0189,-0.162015 -0.0269,-0.300967 -0.0177,-0.308783 0.009,-0.0078 0.13096,-0.03859 0.27058,-0.06839 0.53847,-0.114918 1.18593,-0.290607 1.37849,-0.374054 0.11064,-0.04795 0.20641,-0.08193 0.21282,-0.07552 0.0245,0.02449 -0.18057,0.298873 -0.3681,0.492565 -0.30525,0.31529 -0.71827,0.620558 -1.18001,0.872174 -0.18608,0.101398 -0.18651,0.101496 -0.19927,0.04552 z"
       id="path5255"
       inkscape:connector-curvature="0"
       transform="translate(-33.775997,-17.83617)" /><path
       style="opacity:1;fill:#ffffff;fill-opacity:1;stroke:none;stroke-width:0.12088122;stroke-miterlimit:4;stroke-dasharray:none;stroke-opacity:1"
       d="m 98.759235,76.353641 c -0.113321,-0.503114 -0.224751,-1.406884 -0.173462,-1.406884 0.02832,0 0.742061,-0.105397 1.072017,-0.158302 0.203359,-0.03261 0.38317,-0.05929 0.39958,-0.05929 0.0201,0 0.0433,0.104677 0.0711,0.320336 0.0227,0.176184 0.0692,0.440007 0.10331,0.586274 0.0964,0.413279 0.11756,0.365989 -0.21848,0.487246 -0.15956,0.05758 -0.485939,0.165259 -0.725284,0.239295 -0.239345,0.07404 -0.448041,0.138777 -0.463769,0.143869 -0.01793,0.0058 -0.04219,-0.05111 -0.06504,-0.152549 z"
       id="path5257"
       inkscape:connector-curvature="0"
       transform="translate(-33.775997,-17.83617)" /><path
       style="opacity:1;fill:#ffffff;fill-opacity:1;stroke:none;stroke-width:0.12088122;stroke-miterlimit:4;stroke-dasharray:none;stroke-opacity:1"
       d="m 95.384351,77.177044 c -0.01477,-0.07647 -0.0318,-0.16247 -0.03786,-0.191104 -0.01019,-0.0482 0.0095,-0.05683 0.265784,-0.11643 0.248638,-0.05782 0.284286,-0.0729 0.35043,-0.148233 0.103929,-0.118369 0.103648,-0.263904 -7.41e-4,-0.382796 -0.102378,-0.116602 -0.187597,-0.127513 -0.467993,-0.05992 -0.126553,0.03051 -0.235029,0.05054 -0.241057,0.04451 -0.02308,-0.02308 -0.06594,-0.624328 -0.05848,-0.820265 l 0.0078,-0.205498 0.350555,-0.02938 c 0.192806,-0.01616 0.581022,-0.05152 0.862702,-0.07857 0.707846,-0.06799 0.626178,-0.08873 0.644089,0.163592 0.01977,0.278597 0.07387,0.649968 0.165591,1.136852 0.04203,0.223101 0.06515,0.403227 0.0532,0.414343 -0.02225,0.02068 -0.784231,0.192089 -1.3992,0.314746 -0.199454,0.03978 -0.386348,0.07792 -0.41532,0.08476 -0.04738,0.01118 -0.05537,-0.0015 -0.07952,-0.126612 z m 1.344468,-0.625827 c 0.207997,-0.0987 0.211825,-0.423543 0.0062,-0.529853 -0.155736,-0.08053 -0.357521,-0.0086 -0.424299,0.151188 -0.06291,0.150553 0.0013,0.320628 0.144442,0.382913 0.102209,0.04446 0.173298,0.04336 0.273613,-0.0042 z"
       id="path5259"
       inkscape:connector-curvature="0"
       transform="translate(-33.775997,-17.83617)" /><path
       style="opacity:1;fill:#ffffff;fill-opacity:1;stroke:none;stroke-width:0.12088122;stroke-miterlimit:4;stroke-dasharray:none;stroke-opacity:1"
       d="m 91.877808,76.959429 c -1.21e-4,-0.01 -0.01733,-0.159563 -0.03824,-0.332423 -0.03585,-0.296363 -0.06028,-1.107216 -0.03407,-1.130722 0.0066,-0.006 0.294951,-0.02362 0.640671,-0.03924 0.34572,-0.01562 0.761854,-0.03515 0.924741,-0.0434 l 0.296159,-0.015 2.59e-4,0.287802 c 1.43e-4,0.158291 0.01634,0.439328 0.03599,0.624528 0.01965,0.185199 0.03101,0.341452 0.02523,0.347228 -0.02258,0.02258 -1.697256,0.31936 -1.802091,0.31936 -0.02664,0 -0.04853,-0.0082 -0.04865,-0.01813 z"
       id="path5261"
       inkscape:connector-curvature="0"
       transform="translate(-33.775997,-17.83617)" /><path
       style="opacity:1;fill:#ffffff;fill-opacity:1;stroke:none;stroke-width:0.12088122;stroke-miterlimit:4;stroke-dasharray:none;stroke-opacity:1"
       d="m 88.710354,77.265503 c -0.08236,-0.305859 -0.120296,-0.594208 -0.120296,-0.914342 0,-0.377945 -0.02223,-0.470358 -0.158888,-0.660579 -0.04741,-0.06599 -0.08273,-0.123173 -0.07849,-0.127076 0.0042,-0.0039 0.433157,-0.01128 0.953154,-0.0164 l 0.945447,-0.0093 0.01383,0.484158 c 0.0076,0.266287 0.03169,0.634793 0.05353,0.818902 0.02183,0.18411 0.03314,0.341308 0.02511,0.34933 -0.01544,0.01544 -1.040386,0.135619 -1.395363,0.163607 l -0.209807,0.01654 z"
       id="path5263"
       inkscape:connector-curvature="0"
       transform="translate(-33.775997,-17.83617)" /><path
       style="opacity:1;fill:#ffffff;fill-opacity:1;stroke:none;stroke-width:0.12088122;stroke-miterlimit:4;stroke-dasharray:none;stroke-opacity:1"
       d="m 92.005629,77.733069 c -0.01405,-0.07646 -0.02314,-0.141707 -0.02022,-0.144999 0.0029,-0.0033 0.298182,-0.055 0.656124,-0.1149 0.357941,-0.0599 0.767995,-0.132218 0.91123,-0.1607 0.143235,-0.02848 0.266853,-0.04536 0.274707,-0.03751 0.0079,0.0079 0.02805,0.08027 0.04488,0.160919 0.02961,0.141913 0.02894,0.147024 -0.02086,0.158569 -0.09303,0.02157 -1.766596,0.277631 -1.814526,0.277631 -0.0032,0 -0.01729,-0.06256 -0.03134,-0.139013 z"
       id="path5265"
       inkscape:connector-curvature="0"
       transform="translate(-33.775997,-17.83617)" /><path
       style="opacity:1;fill:#ffffff;fill-opacity:1;stroke:none;stroke-width:0.12088122;stroke-miterlimit:4;stroke-dasharray:none;stroke-opacity:1"
       d="m 89.001315,78.150719 c -0.07268,-0.169563 -0.0713,-0.193039 0.01183,-0.200731 0.03989,-0.0037 0.376116,-0.03954 0.747167,-0.07966 0.371052,-0.04012 0.683161,-0.0643 0.693576,-0.05373 0.01042,0.01057 0.02623,0.0747 0.03515,0.142507 l 0.01621,0.123287 -0.141645,0.01682 c -0.07791,0.0093 -0.375551,0.04334 -0.661435,0.07576 -0.285884,0.03241 -0.550171,0.06438 -0.587304,0.07103 -0.06091,0.01092 -0.07202,0.0016 -0.113546,-0.09529 z"
       id="path5267"
       inkscape:connector-curvature="0"
       transform="translate(-33.775997,-17.83617)" /><path
       style="opacity:1;fill:#ffffff;fill-opacity:1;stroke:none;stroke-width:0.12088122;stroke-miterlimit:4;stroke-dasharray:none;stroke-opacity:1"
       d="m 85.918903,78.518797 c -0.02088,-0.06156 -0.08279,-0.318449 -0.07791,-0.323265 0.0028,-0.0027 0.282481,-0.02224 0.621552,-0.04333 0.339072,-0.02109 0.677854,-0.04472 0.75285,-0.0525 l 0.136355,-0.01416 0.0535,0.160755 c 0.02942,0.08842 0.04966,0.16423 0.04497,0.168477 -0.01081,0.0098 -1.363408,0.134984 -1.453818,0.134561 -0.03698,-1.73e-4 -0.07186,-0.01391 -0.07749,-0.03053 z"
       id="path5271"
       inkscape:connector-curvature="0"
       transform="translate(-33.775997,-17.83617)" /><path
       style="opacity:1;fill:#ffffff;fill-opacity:1;stroke:none;stroke-width:0.12088122;stroke-miterlimit:4;stroke-dasharray:none;stroke-opacity:1"
       d="m 85.703216,77.563852 c -0.0235,-0.0757 -0.132644,-0.785421 -0.158945,-1.033551 -0.01409,-0.13297 -0.02267,-0.409172 -0.01907,-0.613783 l 0.0066,-0.37202 0.265939,0.01531 c 0.146266,0.0084 0.546995,0.01536 0.890508,0.01542 l 0.62457,1.1e-4 -0.07715,0.09741 c -0.04243,0.05358 -0.09694,0.149493 -0.121129,0.213149 -0.09402,0.247436 -0.08355,0.803694 0.02574,1.367482 0.02568,0.132464 0.04349,0.244046 0.03957,0.247961 -0.0039,0.0039 -0.262095,0.02337 -0.573734,0.04323 -0.311639,0.01986 -0.639316,0.04185 -0.728171,0.04886 -0.139478,0.011 -0.16335,0.007 -0.174693,-0.02958 z"
       id="path5273"
       inkscape:connector-curvature="0"
       transform="translate(-33.775997,-17.83617)" /><path
       style="opacity:1;fill:#ffffff;fill-opacity:1;stroke:none;stroke-width:0.12088122;stroke-miterlimit:4;stroke-dasharray:none;stroke-opacity:1"
       d="m 82.618428,77.687394 c -5.3e-5,-0.01145 -0.01578,-0.118724 -0.03495,-0.238396 -0.06892,-0.430212 -0.109951,-0.876158 -0.110112,-1.196724 -1.89e-4,-0.374553 -0.01778,-0.457569 -0.133358,-0.629316 l -0.08353,-0.124127 0.864005,0.0159 c 0.475202,0.0087 0.87661,0.0198 0.892016,0.02456 0.02054,0.0064 0.02152,0.03649 0.0037,0.113017 -0.04344,0.186124 -0.0068,1.067072 0.06415,1.540466 0.03466,0.231389 0.06825,0.429185 0.07465,0.439546 0.0064,0.01036 0.0033,0.02376 -0.0069,0.02977 -0.03592,0.02119 -1.529542,0.0459 -1.529639,0.02531 z"
       id="path5275"
       inkscape:connector-curvature="0"
       transform="translate(-33.775997,-17.83617)" /><path
       style="opacity:1;fill:#ffffff;fill-opacity:1;stroke:none;stroke-width:0.12088122;stroke-miterlimit:4;stroke-dasharray:none;stroke-opacity:1"
       d="m 82.824411,78.736383 c -0.03992,-0.172027 -0.08476,-0.413259 -0.07806,-0.419956 0.006,-0.006 1.314715,-0.0562 1.494945,-0.05729 0.02978,-1.81e-4 0.04963,0.04932 0.08239,0.205467 0.02374,0.113138 0.03867,0.210201 0.03318,0.215696 -0.01014,0.01014 -1.332714,0.110728 -1.453812,0.110565 -0.04857,-6.5e-5 -0.06936,-0.01447 -0.07865,-0.05448 z"
       id="path5277"
       inkscape:connector-curvature="0"
       transform="translate(-33.775997,-17.83617)" /><path
       style="opacity:1;fill:#ffffff;fill-opacity:1;stroke:none;stroke-width:0.12088122;stroke-miterlimit:4;stroke-dasharray:none;stroke-opacity:1"
       d="m 79.272309,78.964203 c -0.02777,-0.09381 -0.116051,-0.635766 -0.105309,-0.646508 0.0064,-0.0064 0.461535,-0.0033 1.011302,0.007 l 0.999577,0.01878 0.04302,0.217586 c 0.02366,0.119672 0.0487,0.241557 0.05565,0.270854 0.01679,0.07078 0.0204,0.07034 -0.942679,0.115247 -0.438799,0.02046 -0.854465,0.04176 -0.923701,0.04733 -0.102395,0.0082 -0.128119,0.0026 -0.137861,-0.03033 z"
       id="path5279"
       inkscape:connector-curvature="0"
       transform="translate(-33.775997,-17.83617)" /><path
       style="opacity:1;fill:#ffffff;fill-opacity:1;stroke:none;stroke-width:0.12088122;stroke-miterlimit:4;stroke-dasharray:none;stroke-opacity:1"
       d="m 79.336601,77.708977 c -0.149591,-0.0042 -0.272007,-0.01552 -0.272037,-0.02505 -3e-5,-0.0095 -0.01742,-0.18053 -0.03864,-0.379984 -0.02283,-0.214592 -0.04064,-0.620757 -0.04362,-0.994877 l -0.005,-0.632234 -0.07578,-0.1529 c -0.04168,-0.08409 -0.0737,-0.154014 -0.07116,-0.155376 0.0025,-0.0014 0.184132,0.0056 0.403531,0.01543 0.2194,0.0099 0.747046,0.03107 1.172548,0.04715 0.425502,0.01608 0.777104,0.03228 0.781338,0.03599 0.0042,0.0037 -0.03007,0.05623 -0.07622,0.116692 -0.154658,0.202614 -0.169405,0.289804 -0.153565,0.90797 0.012,0.468378 0.04363,0.828413 0.101609,1.156659 l 0.01388,0.07857 -0.732427,-0.0052 c -0.402835,-0.0028 -0.854819,-0.0086 -1.004409,-0.01288 z"
       id="path5281"
       inkscape:connector-curvature="0"
       transform="translate(-33.775997,-17.83617)" /><path
       style="opacity:1;fill:#ffffff;fill-opacity:1;stroke:none;stroke-width:0.34190372;stroke-miterlimit:4;stroke-dasharray:none;stroke-opacity:1"
       d="m 43.044347,59.437519 c -0.703063,-0.08844 -1.783489,-0.371589 -2.508044,-0.657296 -1.144977,-0.451488 -1.893544,-0.900299 -4.068655,-2.439403 -0.545336,-0.38588 -1.422319,-0.973772 -1.948851,-1.306427 -1.2425,-0.784994 -1.180646,-0.721054 -1.027037,-1.061697 0.06857,-0.152055 0.151449,-0.276464 0.184181,-0.276464 0.114663,0 1.183556,0.565861 1.660537,0.879071 0.264854,0.173917 0.719488,0.507771 1.010297,0.741897 3.119558,2.511516 7.037106,4.042109 9.070404,3.543823 0.648431,-0.158906 1.936505,-0.808797 2.743577,-1.384259 0.819361,-0.584224 2.532965,-2.283547 3.260662,-3.233486 1.98694,-2.593765 3.759179,-6.074061 5.092332,-10.000246 0.201053,-0.592108 0.380936,-1.073625 0.399741,-1.07004 0.01881,0.0036 0.16676,0.15452 0.32879,0.335409 l 0.294599,0.328888 -0.654651,1.649413 c -3.546958,8.936683 -6.601459,12.908487 -10.631774,13.824626 -0.684889,0.155683 -2.426636,0.224238 -3.206108,0.126191 z"
       id="path5283"
       inkscape:connector-curvature="0"
       transform="translate(-33.775997,-17.83617)" /><path
       style="opacity:1;fill:#ffffff;fill-opacity:1;stroke:none;stroke-width:0.34190372;stroke-miterlimit:4;stroke-dasharray:none;stroke-opacity:1"
       d="m 30.581619,60.614477 -2.911466,-2.097403 -0.530123,-0.73341 -0.530123,-0.733411 0.222191,-0.309396 c 0.122206,-0.170167 0.234207,-0.309395 0.248892,-0.309395 0.01469,0 0.169683,0.109175 0.34444,0.242611 0.229476,0.175219 0.373631,0.236952 0.518952,0.222238 0.45539,-0.04611 0.409387,-0.455785 -0.09059,-0.806753 -0.18752,-0.131633 -0.341637,-0.255881 -0.342483,-0.276106 -8.45e-4,-0.02022 0.08493,-0.140349 0.190618,-0.266942 l 0.192153,-0.23017 0.83208,0.253174 0.83208,0.253173 2.822183,2.021564 c 1.552201,1.11186 2.879804,2.076593 2.950229,2.143851 0.124585,0.118981 0.118238,0.136334 -0.23479,0.641959 -0.199559,0.28582 -0.392911,0.519672 -0.429671,0.519672 -0.03676,0 -0.288689,-0.16698 -0.559842,-0.371066 -0.485903,-0.36572 -0.56703,-0.405245 -0.798902,-0.389224 -0.151839,0.01049 -0.278394,0.249035 -0.223642,0.421542 0.02352,0.07411 0.286784,0.320505 0.585025,0.547537 0.298241,0.227031 0.542256,0.436016 0.542256,0.46441 0,0.08132 -0.611208,0.900166 -0.667497,0.894253 -0.02778,-0.0029 -1.360661,-0.949137 -2.961968,-2.102708 z m 2.3873,-0.120973 c 0.108948,-0.07631 0.149558,-0.16381 0.134882,-0.290618 -0.01684,-0.145493 -0.249769,-0.35415 -1.175816,-1.05329 -0.635149,-0.47952 -1.20623,-0.871854 -1.269069,-0.871854 -0.212709,0 -0.358639,0.165643 -0.334306,0.379466 0.0194,0.170511 0.187165,0.326841 1.082863,1.009083 0.933243,0.710839 1.234445,0.915833 1.369495,0.932062 0.01984,0.0024 0.106217,-0.0448 0.191951,-0.104849 z M 30.17662,58.346123 c 0.168189,-0.16819 0.172506,-0.285541 0.0171,-0.464723 -0.145581,-0.167849 -1.507984,-1.176415 -1.589138,-1.176415 -0.237993,0 -0.450623,0.29584 -0.367784,0.511713 0.05077,0.132291 1.578848,1.266186 1.706364,1.266186 0.05319,0 0.158244,-0.06154 0.233463,-0.136761 z"
       id="path5285"
       inkscape:connector-curvature="0"
       transform="translate(-33.775997,-17.83617)" /><path
       style="opacity:1;fill:#ffc000;fill-opacity:1;stroke:none;stroke-width:0.96704978;stroke-miterlimit:4;stroke-dasharray:none;stroke-opacity:1"
       d="m 79.313462,73.883334 -2.417624,-0.141576 -4.254207,-1.687442 c -2.339813,-0.928093 -4.531628,-1.899042 -4.870697,-2.157662 -0.702308,-0.535678 -1.029118,-0.595823 -1.029118,-0.189397 0,0.52751 2.322025,1.892557 5.318773,3.126743 l 1.54728,0.637235 -0.870345,0.0071 C 69.113147,73.507823 49.370473,71.346923 37.440208,69.614906 34.56807,69.197933 32.033529,68.90513 31.807893,68.96423 c -0.372712,0.09762 -0.433182,-0.01346 -0.660941,-1.214102 -0.267372,-1.409471 -0.368709,-4.58403 -0.153284,-4.801915 0.07117,-0.07198 0.711212,0.267501 1.422319,0.754408 0.876509,0.600159 1.38359,0.834543 1.574438,0.727738 0.493476,-0.276154 3.159668,-4.126377 3.159668,-4.562837 0,-0.365438 -1.77566,-1.789405 -4.53061,-3.633264 -0.142494,-0.09537 -0.138612,-0.203091 0.01277,-0.354475 0.161022,-0.161023 0.937204,0.271243 2.99025,1.66531 3.952487,2.683831 5.703856,3.362587 8.691474,3.368444 2.914737,0.0057 4.902428,-0.852654 7.159337,-3.0917 2.490329,-2.47062 4.594122,-6.19494 6.972216,-12.342836 0.166262,-0.429825 0.244661,-0.382435 1.91982,1.160459 1.887468,1.738442 1.900802,1.976065 0.07873,1.402952 -1.107409,-0.348323 -1.514684,-0.269546 -1.040331,0.201225 0.32896,0.326472 2.32631,0.874752 3.186673,0.874752 0.686232,0 1.722255,0.882433 1.230865,1.048389 -0.148905,0.05029 -1.245317,0.409754 -2.436469,0.798812 -2.049677,0.66947 -4.3135,1.839466 -4.3135,2.229315 0,0.09818 -0.130552,0.178503 -0.290115,0.178503 -0.388214,0 -0.378762,0.850772 0.01381,1.243349 0.35341,0.35341 0.913459,0.390581 1.461962,0.09703 0.299318,-0.16019 0.337189,-0.266426 0.167752,-0.470585 -0.170123,-0.204985 -0.11908,-0.328895 0.229274,-0.556595 1.200689,-0.784816 5.186665,-2.19547 5.186665,-1.83558 0,0.331367 -0.778216,2.49626 -1.385774,3.855036 -0.443062,0.990887 -0.697982,1.342132 -0.974073,1.342132 -0.296364,0 -0.347701,0.0903 -0.247414,0.435172 0.199957,0.687629 0.861427,1.155 1.434572,1.013617 0.666615,-0.16444 0.91668,-0.428292 0.654447,-0.690525 -0.149442,-0.149442 0.01371,-0.690464 0.574008,-1.903423 0.694346,-1.50316 0.88293,-1.750527 1.669031,-2.189284 1.290257,-0.720149 2.222925,-0.94006 2.667185,-0.628888 0.348738,0.244265 0.341533,0.348006 -0.22686,3.266396 -0.489963,2.51569 -0.643009,3.014428 -0.925505,3.015987 -0.472499,0.0026 -0.42187,0.436316 0.10917,0.935203 0.519499,0.488043 1.252038,0.542982 1.787963,0.134094 0.311599,-0.237736 0.329014,-0.316953 0.102416,-0.465903 -0.229773,-0.151038 -0.235966,-0.404354 -0.03909,-1.599307 0.339976,-2.063567 0.806804,-4.031026 0.956196,-4.029918 0.07126,5.22e-4 0.390659,0.211339 0.709786,0.468467 l 0.580229,0.467506 -0.83231,0.715897 c -0.871977,0.750014 -1.006276,1.316412 -0.401918,1.695069 0.245666,0.153921 0.553035,6.58e-4 1.427944,-0.712046 1.025148,-0.835079 1.147855,-0.8864 1.524345,-0.637545 0.308798,0.204112 0.439946,0.550406 0.533516,1.408733 0.199084,1.826268 0.185052,3.749127 -0.02736,3.749127 -0.345838,0 -0.203874,0.75443 0.180695,0.960245 0.501951,0.268636 1.236184,0.253251 1.521312,-0.03188 0.281052,-0.281051 0.308023,-0.928367 0.03868,-0.928367 -0.115367,0 -0.19341,-0.741405 -0.19341,-1.837395 0,-1.431714 0.05883,-1.837394 0.266434,-1.837394 0.543598,0 0.750147,0.512497 0.49307,1.22343 -0.306307,0.847077 -0.133902,1.290899 0.50146,1.290899 0.390216,0 0.562805,-0.151595 0.789045,-0.693063 0.273592,-0.654797 0.313092,-0.677757 0.715417,-0.41584 0.234212,0.152473 1.81839,1.020193 3.520398,1.928267 4.765252,2.54241 10.006926,4.938284 15.859616,7.24914 1.489256,0.588013 3.283393,1.35822 3.986963,1.711568 1.17189,0.588545 2.29886,1.587416 2.29886,2.037562 0,0.410764 -2.41984,0.986022 -6.092413,1.44832 -2.644746,0.332918 -14.146642,0.51178 -18.083831,0.281214 z M 43.919441,69.730273 c 0,-0.744564 -8.89645,-2.522658 -10.180039,-2.034638 -0.827367,0.314566 -0.339459,0.513384 1.519908,0.619353 1.878132,0.107037 4.851052,0.669458 6.822737,1.290731 1.434766,0.452094 1.837394,0.479386 1.837394,0.124554 z m 22.391231,-0.847805 c 0.04277,-0.128294 -0.101299,-0.229674 -0.326379,-0.229674 -0.401775,0 -0.522194,0.203094 -0.269968,0.45532 0.179189,0.179188 0.502135,0.05699 0.596347,-0.225646 z M 32.508254,67.975859 c 0,-0.159563 -0.0819,-0.290115 -0.181995,-0.290115 -0.243886,0 -0.418558,0.302027 -0.264037,0.456548 0.217816,0.217815 0.446032,0.132658 0.446032,-0.166433 z M 58.812008,47.366285 c 0,-0.100098 -0.130552,-0.181996 -0.290115,-0.181996 -0.299091,0 -0.384248,0.228217 -0.166434,0.446032 0.154522,0.154521 0.456549,-0.02015 0.456549,-0.264036 z"
       id="path5315"
       inkscape:connector-curvature="0"
       transform="translate(-33.775997,-17.83617)" /><path
       style="opacity:1;fill:#ffc000;fill-opacity:1;stroke:none;stroke-width:0.17095186;stroke-miterlimit:4;stroke-dasharray:none;stroke-opacity:1"
       d="m 65.327793,52.096861 c 8.74e-4,-0.02376 0.04418,-0.220132 0.09623,-0.436386 0.08233,-0.342042 0.104311,-0.394603 0.168942,-0.40406 0.06769,-0.0099 0.261687,0.117451 0.59881,0.393107 l 0.09629,0.07873 -0.07919,0.03267 c -0.08841,0.03647 -0.599639,0.255529 -0.77155,0.330605 -0.08656,0.0378 -0.110768,0.03898 -0.109531,0.0053 z"
       id="path5317"
       inkscape:connector-curvature="0"
       transform="translate(-33.775997,-17.83617)" /><path
       style="opacity:1;fill:#ffc000;fill-opacity:1;stroke:none;stroke-width:0.06044061;stroke-miterlimit:4;stroke-dasharray:none;stroke-opacity:1"
       d="m 40.311147,56.114243 c -0.03989,-0.02201 -0.159563,-0.08813 -0.265938,-0.146926 -0.886708,-0.490101 -1.960554,-1.194296 -2.420065,-1.587004 -0.304794,-0.260483 -0.603809,-0.492684 -0.967516,-0.751327 -0.08803,-0.0626 -0.157856,-0.116014 -0.155172,-0.118698 0.0084,-0.0084 0.366387,0.162522 0.590671,0.282099 0.77523,0.413311 1.597603,0.968282 2.502085,1.68851 0.290338,0.231193 0.713984,0.581757 0.794076,0.657093 0.02971,0.02794 -0.0018,0.01835 -0.07814,-0.02375 z"
       id="path5319"
       inkscape:connector-curvature="0"
       transform="translate(-33.775997,-17.83617)" /></g></svg>