<?xml version="1.0" standalone="no"?>
<!DOCTYPE svg PUBLIC "-//W3C//DTD SVG 20010904//EN"
 "http://www.w3.org/TR/2001/REC-SVG-20010904/DTD/svg10.dtd">
<svg version="1.0" xmlns="http://www.w3.org/2000/svg"
 width="4167.000000pt" height="4167.000000pt" viewBox="0 0 4167.000000 4167.000000"
 preserveAspectRatio="xMidYMid meet">
<metadata>
Created by potrace 1.11, written by Peter Selinger 2001-2013
</metadata>
<g transform="translate(0.000000,4167.000000) scale(0.100000,-0.100000)"
fill="#000000" stroke="none">
<path d="M19735 36960 c-908 -74 -1781 -355 -2650 -853 -1700 -974 -3357
-2768 -4842 -5242 -2209 -3680 -3874 -8704 -4177 -12610 -34 -429 -40 -616
-41 -1125 0 -534 7 -703 46 -1125 194 -2124 951 -4157 2198 -5905 398 -559
790 -1019 1301 -1530 611 -612 1151 -1055 1860 -1529 1662 -1109 3568 -1786
5545 -1970 444 -42 550 -46 1150 -46 686 0 922 14 1505 86 1923 238 3791 955
5385 2067 425 297 811 603 1215 966 172 155 660 639 821 816 1593 1749 2626
3877 3009 6192 101 614 147 1137 157 1793 16 1070 -98 2228 -363 3673 -11 56
-22 91 -28 89 -6 -3 -585 -232 -1286 -510 -701 -278 -1280 -507 -1286 -509 -5
-2 -814 507 -1796 1130 -983 622 -1793 1134 -1801 1137 -8 4 -629 -425 -1528
-1056 -832 -584 -1518 -1063 -1524 -1065 -6 -3 -604 492 -1329 1098 -725 607
-1321 1104 -1325 1106 -5 1 -516 -400 -1137 -893 -621 -492 -1134 -894 -1140
-893 -9 2 -2780 2817 -3093 3142 l-66 68 180 -129 c414 -298 3203 -2308 3231
-2329 l30 -23 994 1199 c547 660 997 1199 1001 1198 3 -2 585 -565 1293 -1253
708 -687 1291 -1251 1295 -1253 5 -1 664 581 1465 1295 802 714 1461 1299
1466 1301 4 1 806 -470 1783 -1048 977 -577 1780 -1050 1786 -1050 8 0 2263
1481 2285 1501 20 18 -283 1044 -521 1764 -1393 4215 -3493 7884 -5731 10011
-1346 1280 -2683 2021 -4067 2253 -288 48 -467 63 -820 66 -187 2 -389 -1
-450 -5z"/>
</g>
</svg>
